<svg width="20" height="20" viewBox="0 0 20 20" fill="none" xmlns="http://www.w3.org/2000/svg">
<path d="M9 3C9.27601 3 9.54912 3.01363 9.81836 3.04102C10.2304 3.08297 10.5301 3.45127 10.4883 3.86328C10.4464 4.27537 10.0781 4.57511 9.66602 4.5332C9.44727 4.51097 9.22507 4.5 9 4.5C5.41015 4.5 2.5 7.41015 2.5 11C2.5 14.5899 5.41015 17.5 9 17.5C12.5899 17.5 15.5 14.5899 15.5 11C15.5 10.849 15.4945 10.699 15.4844 10.5508C15.4794 10.4776 15.4732 10.4045 15.4658 10.332C15.4241 9.92011 15.7248 9.55174 16.1367 9.50977C16.5486 9.46805 16.916 9.76874 16.958 10.1807C16.9671 10.2697 16.9753 10.3594 16.9814 10.4492C16.9938 10.6313 17 10.815 17 11C17 15.4183 13.4183 19 9 19C4.58172 19 1 15.4183 1 11C1 6.58172 4.58172 3 9 3ZM11.4004 12C11.8515 12 12.2083 12.4012 12.0596 12.8271C11.5535 14.2758 10.2766 15 9 15C7.72339 15 6.44648 14.2758 5.94043 12.8271C5.7917 12.4012 6.14849 12 6.59961 12H11.4004ZM6.75 8C7.44036 8 8 8.55964 8 9.25C8 9.94036 7.44036 10.5 6.75 10.5C6.05964 10.5 5.5 9.94036 5.5 9.25C5.5 8.55964 6.05964 8 6.75 8ZM11.25 8C11.9404 8 12.5 8.55964 12.5 9.25C12.5 9.94036 11.9404 10.5 11.25 10.5C10.5596 10.5 10 9.94036 10 9.25C10 8.55964 10.5596 8 11.25 8ZM15.5 1C15.9142 1 16.25 1.33579 16.25 1.75V3.75H18.25C18.6642 3.75 19 4.08579 19 4.5C19 4.91421 18.6642 5.25 18.25 5.25H16.25V7.25C16.25 7.66421 15.9142 8 15.5 8C15.0858 8 14.75 7.66421 14.75 7.25V5.25H12.75C12.3358 5.25 12 4.91421 12 4.5C12 4.08579 12.3358 3.75 12.75 3.75H14.75V1.75C14.75 1.33579 15.0858 1 15.5 1Z" fill="#1D1C1D"/>
</svg>
