<svg width="20" height="20" viewBox="0 0 20 20" fill="none" xmlns="http://www.w3.org/2000/svg">
<path d="M4.75 1.5C6.28672 1.5 7.57345 2.56675 7.91211 4H12.25C14.3211 4 16 5.67893 16 7.75V9.25C16 9.66421 15.6642 10 15.25 10C14.8358 10 14.5 9.66421 14.5 9.25V7.75C14.5 6.50736 13.4926 5.5 12.25 5.5H7.91211C7.63037 6.69235 6.69232 7.62932 5.5 7.91113V12.0879C6.93325 12.4265 8 13.7133 8 15.25C8 17.0449 6.54493 18.5 4.75 18.5C2.95507 18.5 1.5 17.0449 1.5 15.25C1.5 13.7133 2.56675 12.4265 4 12.0879V7.91113C2.56686 7.5724 1.5 6.28664 1.5 4.75C1.5 2.95507 2.95507 1.5 4.75 1.5ZM15.25 12C15.6642 12 16 12.3358 16 12.75V14.5H17.75C18.1642 14.5 18.5 14.8358 18.5 15.25C18.5 15.6642 18.1642 16 17.75 16H16V17.75C16 18.1642 15.6642 18.5 15.25 18.5C14.8358 18.5 14.5 18.1642 14.5 17.75V16H12.75C12.3358 16 12 15.6642 12 15.25C12 14.8358 12.3358 14.5 12.75 14.5H14.5V12.75C14.5 12.3358 14.8358 12 15.25 12ZM4.75 13.5C3.7835 13.5 3 14.2835 3 15.25C3 16.2165 3.7835 17 4.75 17C5.7165 17 6.5 16.2165 6.5 15.25C6.5 14.2835 5.7165 13.5 4.75 13.5ZM4.75 3C3.7835 3 3 3.7835 3 4.75C3 5.7165 3.7835 6.5 4.75 6.5C5.7165 6.5 6.5 5.7165 6.5 4.75C6.5 3.7835 5.7165 3 4.75 3Z" fill="#1D1C1D"/>
</svg>
