<svg width="20" height="20" viewBox="0 0 20 20" fill="none" xmlns="http://www.w3.org/2000/svg">
<path d="M8.875 1C9.70343 1 10.375 1.67157 10.375 2.5C10.375 3.05495 10.073 3.5384 9.625 3.79785V5H10.625C11.0392 5 11.375 5.33579 11.375 5.75C11.375 6.16421 11.0392 6.5 10.625 6.5H4.12305C3.43363 6.5002 2.875 7.059 2.875 7.75V15.75C2.875 16.4404 3.43464 17 4.125 17H13.625C14.3158 17 14.875 16.4409 14.875 15.751V10.75C14.875 10.3358 15.2108 10 15.625 10C16.0392 10 16.375 10.3358 16.375 10.75V15.751C16.375 17.2702 15.1433 18.5 13.625 18.5H4.125C2.60622 18.5 1.375 17.2688 1.375 15.75V7.75C1.375 6.23211 2.60367 5.00021 4.12305 5H8.125V3.79785C7.677 3.5384 7.375 3.05495 7.375 2.5C7.375 1.67157 8.04657 1 8.875 1ZM11.2754 12.5C11.7265 12.5 12.0833 12.9012 11.9346 13.3271C11.4285 14.7758 10.1516 15.5 8.875 15.5C7.59839 15.5 6.32148 14.7758 5.81543 13.3271C5.6667 12.9012 6.02349 12.5 6.47461 12.5H11.2754ZM6.875 9C7.42728 9 7.875 9.44772 7.875 10C7.875 10.5523 7.42728 11 6.875 11C6.32272 11 5.875 10.5523 5.875 10C5.875 9.44772 6.32272 9 6.875 9ZM10.875 9C11.4273 9 11.875 9.44772 11.875 10C11.875 10.5523 11.4273 11 10.875 11C10.3227 11 9.875 10.5523 9.875 10C9.875 9.44772 10.3227 9 10.875 9ZM15.625 2.75C16.0392 2.75 16.375 3.08579 16.375 3.5V5H17.875C18.2892 5 18.625 5.33579 18.625 5.75C18.625 6.16421 18.2892 6.5 17.875 6.5H16.375V8C16.375 8.41421 16.0392 8.75 15.625 8.75C15.2108 8.75 14.875 8.41421 14.875 8V6.5H13.375C12.9608 6.5 12.625 6.16421 12.625 5.75C12.625 5.33579 12.9608 5 13.375 5H14.875V3.5C14.875 3.08579 15.2108 2.75 15.625 2.75Z" fill="#1D1C1D"/>
</svg>
