<svg width="20" height="20" viewBox="0 0 20 20" fill="none" xmlns="http://www.w3.org/2000/svg">
<path d="M2.25 14.7002C2.66421 14.7002 3 15.036 3 15.4502V15.75C3 16.4404 3.55964 17 4.25 17H4.5498C4.96402 17 5.2998 17.3358 5.2998 17.75C5.2998 18.1642 4.96402 18.5 4.5498 18.5H4.25C2.73122 18.5 1.5 17.2688 1.5 15.75V15.4502C1.5 15.036 1.83579 14.7002 2.25 14.7002ZM11.375 17C11.7892 17 12.125 17.3358 12.125 17.75C12.125 18.1642 11.7892 18.5 11.375 18.5H8.625C8.21079 18.5 7.875 18.1642 7.875 17.75C7.875 17.3358 8.21079 17 8.625 17H11.375ZM17.75 14.7002C18.1642 14.7002 18.5 15.036 18.5 15.4502V15.75C18.5 17.2688 17.2688 18.5 15.75 18.5H15.4502C15.036 18.5 14.7002 18.1642 14.7002 17.75C14.7002 17.3358 15.036 17 15.4502 17H15.75C16.4404 17 17 16.4404 17 15.75V15.4502C17 15.036 17.3358 14.7002 17.75 14.7002ZM10 6.25C10.4142 6.25 10.75 6.58579 10.75 7V9.5H13.25C13.6642 9.5 14 9.83579 14 10.25C14 10.6642 13.6642 11 13.25 11H10.75V13.5C10.75 13.9142 10.4142 14.25 10 14.25C9.58579 14.25 9.25 13.9142 9.25 13.5V11H6.75C6.33579 11 6 10.6642 6 10.25C6 9.83579 6.33579 9.5 6.75 9.5H9.25V7C9.25 6.58579 9.58579 6.25 10 6.25ZM2.25 7.875C2.66421 7.875 3 8.21079 3 8.625V11.375C3 11.7892 2.66421 12.125 2.25 12.125C1.83579 12.125 1.5 11.7892 1.5 11.375V8.625C1.5 8.21079 1.83579 7.875 2.25 7.875ZM17.752 7.875C18.1661 7.87503 18.502 8.21081 18.502 8.625V11.375C18.502 11.7892 18.1661 12.125 17.752 12.125C17.3377 12.125 17.002 11.7892 17.002 11.375V8.625C17.002 8.21079 17.3377 7.875 17.752 7.875ZM4.5498 1.5C4.96402 1.5 5.2998 1.83579 5.2998 2.25C5.2998 2.66421 4.96402 3 4.5498 3H4.25C3.55964 3 3 3.55964 3 4.25V4.5498C3 4.96402 2.66421 5.2998 2.25 5.2998C1.83579 5.2998 1.5 4.96402 1.5 4.5498V4.25C1.5 2.73122 2.73122 1.5 4.25 1.5H4.5498ZM15.752 1.5C17.2707 1.50003 18.502 2.73124 18.502 4.25V4.5498C18.502 4.964 18.1661 5.29977 17.752 5.2998C17.3377 5.2998 17.002 4.96402 17.002 4.5498V4.25C17.002 3.55966 16.4423 3.00003 15.752 3H15.4521C15.0379 3 14.7021 2.66421 14.7021 2.25C14.7021 1.83579 15.0379 1.5 15.4521 1.5H15.752ZM11.375 1.5C11.7892 1.5 12.125 1.83579 12.125 2.25C12.125 2.66421 11.7892 3 11.375 3H8.625C8.21079 3 7.875 2.66421 7.875 2.25C7.875 1.83579 8.21079 1.5 8.625 1.5H11.375Z" fill="#1D1C1D"/>
</svg>
