<svg width="20" height="20" viewBox="0 0 20 20" fill="none" xmlns="http://www.w3.org/2000/svg">
<path d="M14.75 1.5C16.8211 1.5 18.5 3.17893 18.5 5.25V10.9854C18.5 11.7147 18.21 12.414 17.6943 12.9297L12.9297 17.6943C12.414 18.21 11.7147 18.5 10.9854 18.5H5.25C3.17893 18.5 1.5 16.8211 1.5 14.75V9.25C1.5 8.83579 1.83579 8.5 2.25 8.5C2.66421 8.5 3 8.83579 3 9.25V14.75C3 15.9926 4.00736 17 5.25 17H10.75V12.25C10.75 11.4216 11.4216 10.75 12.25 10.75H17V5.25C17 4.00736 15.9926 3 14.75 3H9.25C8.83579 3 8.5 2.66421 8.5 2.25C8.5 1.83579 8.83579 1.5 9.25 1.5H14.75ZM12.25 16.2529L16.2529 12.25H12.25V16.2529ZM4 1C4.41421 1 4.75 1.33579 4.75 1.75V3.25H6.25C6.66421 3.25 7 3.58579 7 4C7 4.41421 6.66421 4.75 6.25 4.75H4.75V6.25C4.75 6.66421 4.41421 7 4 7C3.58579 7 3.25 6.66421 3.25 6.25V4.75H1.75C1.33579 4.75 1 4.41421 1 4C1 3.58579 1.33579 3.25 1.75 3.25H3.25V1.75C3.25 1.33579 3.58579 1 4 1Z" fill="#1D1C1D"/>
</svg>
