<svg width="20" height="20" viewBox="0 0 20 20" fill="none" xmlns="http://www.w3.org/2000/svg">
<path d="M9 3.24992C9.41421 3.24992 9.75 3.5857 9.75 3.99992C9.75 4.41413 9.41421 4.74992 9 4.74992C5.41015 4.74992 2.5 7.66007 2.5 11.2499C2.5 14.8398 5.41015 17.7499 9 17.7499C12.1278 17.7499 14.7409 15.5398 15.3604 12.5956C15.4456 12.1903 15.8437 11.9303 16.249 12.0155C16.6544 12.1008 16.9134 12.4989 16.8281 12.9042C16.0657 16.5285 12.8517 19.2499 9 19.2499C4.58172 19.2499 1 15.6682 1 11.2499C1 6.83164 4.58172 3.24992 9 3.24992ZM11.4287 8.51457C11.6969 8.19891 12.1697 8.16047 12.4854 8.42863C12.801 8.6968 12.8394 9.16959 12.5713 9.48527L8.74902 13.9853C8.59911 14.1618 8.37587 14.259 8.14453 14.2489C7.91326 14.2388 7.69937 14.1223 7.56543 13.9335L5.88867 11.5693C5.64901 11.2314 5.72856 10.763 6.06641 10.5234C6.4041 10.2841 6.87167 10.3637 7.11133 10.7011L8.23047 12.2782L11.4287 8.51457ZM16.3252 6.10929C16.398 5.96366 16.6055 5.96366 16.6748 6.10929L17.1816 7.11808L17.2432 7.22843C17.396 7.48035 17.6149 7.68781 17.8818 7.81828L18.8906 8.32511C19.0363 8.39793 19.0363 8.60537 18.8906 8.67472L18.6562 8.79191L18.8027 8.49992L18.6553 8.79191L17.8818 9.18156C17.5802 9.33412 17.3307 9.57667 17.1816 9.88175L16.7842 10.6708L16.6748 10.8905C16.602 11.0362 16.3945 11.0362 16.3252 10.8905L15.8184 9.88175C15.6849 9.61782 15.4824 9.39389 15.2295 9.24211L15.1182 9.18156L14.1094 8.67472C13.9637 8.60191 13.9637 8.39446 14.1094 8.32511L15.1182 7.81828C15.4198 7.66572 15.6693 7.42317 15.8184 7.11808L16.207 6.34367L16.3252 6.10929ZM12.8604 2.08683C12.9188 1.97106 13.084 1.97106 13.1396 2.08683L13.5449 2.89445C13.667 3.13578 13.8614 3.33572 14.1055 3.455L14.9131 3.86027C15.0289 3.91868 15.0289 4.08391 14.9131 4.13957L14.1055 4.54484C13.8641 4.66689 13.6642 4.86128 13.5449 5.10539L13.2266 5.73722L13.1396 5.913C13.0812 6.02878 12.916 6.02878 12.8604 5.913L12.4551 5.10539C12.333 4.86406 12.1386 4.66412 11.8945 4.54484L11.0869 4.13957C10.9711 4.08116 10.9711 3.91592 11.0869 3.86027L11.2744 3.76554L11.8945 3.455C12.1359 3.33294 12.3358 3.13855 12.4551 2.89445L12.8604 2.08683Z" fill="#1D1C1D"/>
</svg>
