<svg width="20" height="20" viewBox="0 0 20 20" fill="none" xmlns="http://www.w3.org/2000/svg">
<path d="M12.5 1.24992C12.9142 1.24992 13.25 1.5857 13.25 1.99992C13.25 2.41413 12.9142 2.74992 12.5 2.74992H4.25C3.55964 2.74992 3 3.30956 3 3.99992V15.9999C3 16.6903 3.55964 17.2499 4.25 17.2499H13.25C13.9404 17.2499 14.5 16.6903 14.5 15.9999V11.7499C14.5 11.3357 14.8358 10.9999 15.25 10.9999C15.6642 10.9999 16 11.3357 16 11.7499V15.9999C16 17.5187 14.7688 18.7499 13.25 18.7499H4.25C2.73122 18.7499 1.5 17.5187 1.5 15.9999V3.99992C1.5 2.48113 2.73122 1.24992 4.25 1.24992H12.5ZM11 13.4999C11.4142 13.4999 11.75 13.8357 11.75 14.2499C11.75 14.6641 11.4142 14.9999 11 14.9999H6C5.58579 14.9999 5.25 14.6641 5.25 14.2499C5.25 13.8357 5.58579 13.4999 6 13.4999H11ZM10 10.4999C10.4142 10.4999 10.75 10.8357 10.75 11.2499C10.75 11.6641 10.4142 11.9999 10 11.9999H6C5.58579 11.9999 5.25 11.6641 5.25 11.2499C5.25 10.8357 5.58579 10.4999 6 10.4999H10ZM13.3252 5.10929C13.3945 4.96366 13.602 4.96366 13.6748 5.10929L13.793 5.34367L14.1816 6.11808C14.3307 6.42314 14.5802 6.66572 14.8818 6.81828L15.8906 7.32511C16.0363 7.39446 16.0363 7.60191 15.8906 7.67472L14.8818 8.18156L14.7705 8.24211C14.5176 8.39389 14.3151 8.61786 14.1816 8.88175L13.6748 9.89054C13.6054 10.0361 13.398 10.0361 13.3252 9.89054L13.2158 9.67082L12.8184 8.88175C12.6693 8.57667 12.4198 8.33412 12.1182 8.18156L11.3447 7.79191L11.1973 7.49992L11.3438 7.79191L11.1094 7.67472C10.9638 7.60537 10.9639 7.39797 11.1094 7.32511L12.1182 6.81828C12.3851 6.68782 12.604 6.4803 12.7568 6.22843L12.8184 6.11808L13.3252 5.10929ZM9 7.49992C9.41421 7.49992 9.75 7.8357 9.75 8.24992C9.75 8.66413 9.41421 8.99992 9 8.99992H6C5.58579 8.99992 5.25 8.66413 5.25 8.24992C5.25 7.8357 5.58579 7.49992 6 7.49992H9ZM16.8604 1.08683C16.916 0.971057 17.0812 0.971055 17.1396 1.08683L17.5449 1.89445C17.6642 2.13853 17.8642 2.33295 18.1055 2.455L18.7256 2.76554L18.9131 2.86027C19.0289 2.91592 19.0289 3.08116 18.9131 3.13957L18.1055 3.54484C17.8614 3.66412 17.667 3.86409 17.5449 4.10539L17.1396 4.913C17.084 5.02867 16.9188 5.02871 16.8604 4.913L16.7734 4.73722L16.4551 4.10539C16.3358 3.86128 16.1359 3.66689 15.8945 3.54484L15.0869 3.13957C14.9712 3.08391 14.9712 2.91871 15.0869 2.86027L15.8945 2.455C16.1386 2.33573 16.333 2.13574 16.4551 1.89445L16.8604 1.08683Z" fill="#1D1C1D"/>
</svg>
