<svg width="20" height="20" viewBox="0 0 20 20" fill="none" xmlns="http://www.w3.org/2000/svg">
<path d="M16.7501 8.21582C16.3359 8.21582 16.0001 8.55161 16.0001 8.96582V10.8428L15.9893 10.8359C14.9616 10.1894 13.7885 10.6512 13.128 11.3115L12.9454 11.4941L12.9239 11.5195L11.9054 12.7422C11.6435 13.0566 11.5001 13.4531 11.5001 13.8623V16.5957C11.5001 17.5428 12.1864 18.5 13.2501 18.5H13.7501C15.9183 18.5 17.5001 16.5097 17.5001 14.2881V13.7119C17.5001 13.661 17.4997 13.6104 17.4981 13.5605C17.4997 13.5406 17.5001 13.5204 17.5001 13.5V8.96582C17.5001 8.55161 17.1643 8.21582 16.7501 8.21582ZM9.00008 1C6.71152 1 4.59487 2.01489 3.05672 3.48828C1.52399 4.95654 0.500082 6.94548 0.500082 8.96582V13.5C0.500082 13.5204 0.500442 13.5406 0.502035 13.5605C0.500415 13.6108 0.500082 13.6614 0.500082 13.7119V14.2881C0.500082 16.5097 2.08185 18.5 4.25008 18.5H4.75008C5.81375 18.5 6.50008 17.5428 6.50008 16.5957V11.4043C6.50008 10.4572 5.81375 9.5 4.75008 9.5H4.25008C3.38596 9.5 2.6149 9.81601 2.00008 10.3369V8.96582C2.00008 7.4441 2.78498 5.82517 4.09383 4.57129C5.39753 3.32248 7.15603 2.5 9.00008 2.5C9.61165 2.5 10.2135 2.59027 10.7931 2.75684C11.1911 2.87113 11.6063 2.64113 11.7208 2.24316C11.8352 1.84507 11.6052 1.42984 11.2071 1.31543C10.5006 1.11238 9.75964 1 9.00008 1ZM12.6749 5.10938C12.6021 4.96374 12.3946 4.96374 12.3253 5.10938L11.8184 6.11816L11.7569 6.22852C11.6041 6.48043 11.3852 6.68789 11.1182 6.81836L10.1095 7.3252C9.96383 7.39801 9.96383 7.60546 10.1095 7.6748L10.3438 7.79199L10.1973 7.5L10.3448 7.79199L11.1182 8.18164C11.4199 8.3342 11.6693 8.57675 11.8184 8.88184L12.2159 9.6709L12.3253 9.89062C12.3981 10.0363 12.6055 10.0363 12.6749 9.89062L13.1817 8.88184C13.3152 8.6179 13.5176 8.39397 13.7706 8.24219L13.8819 8.18164L14.8907 7.6748C15.0363 7.60199 15.0363 7.39454 14.8907 7.3252L13.8819 6.81836C13.5803 6.6658 13.3308 6.42325 13.1817 6.11816L12.7931 5.34375L12.6749 5.10938ZM16.1397 1.08691C16.0813 0.971137 15.9161 0.971139 15.8604 1.08691L15.4552 1.89453C15.3331 2.13586 15.1387 2.3358 14.8946 2.45508L14.087 2.86035C13.9712 2.91876 13.9712 3.084 14.087 3.13965L14.8946 3.54492C15.1359 3.66697 15.3359 3.86136 15.4552 4.10547L15.7735 4.7373L15.8604 4.91309C15.9188 5.02886 16.0841 5.02886 16.1397 4.91309L16.545 4.10547C16.6671 3.86414 16.8614 3.6642 17.1056 3.54492L17.9132 3.13965C18.0289 3.08124 18.0289 2.916 17.9132 2.86035L17.7257 2.76562L17.1056 2.45508C16.8642 2.33303 16.6643 2.13864 16.545 1.89453L16.1397 1.08691Z" fill="#1D1C1D"/>
</svg>
