<svg width="20" height="20" viewBox="0 0 20 20" fill="none" xmlns="http://www.w3.org/2000/svg">
<path d="M9 1C9.95894 1 10.8883 1.1784 11.7559 1.49316C12.1452 1.63444 12.3463 2.06474 12.2051 2.4541C12.0638 2.84348 11.6335 3.04458 11.2441 2.90332C10.5283 2.64362 9.77187 2.5 9 2.5C7.15595 2.5 5.39745 3.32248 4.09375 4.57129C2.78489 5.82517 2 7.4441 2 8.96582V10.3379C2.6149 9.81675 3.38565 9.5 4.25 9.5H4.75C5.81366 9.5 6.5 10.4572 6.5 11.4043V16.5957C6.5 17.5428 5.81366 18.5 4.75 18.5H4.25C2.08177 18.5 0.5 16.5097 0.5 14.2881V13.7119C0.5 13.6633 0.501425 13.6148 0.50293 13.5664C0.50101 13.5445 0.5 13.5224 0.5 13.5V8.96582C0.5 6.94548 1.52391 4.95654 3.05664 3.48828C4.59479 2.01489 6.71144 1 9 1ZM16.75 8.25C17.1642 8.25 17.5 8.58579 17.5 9V13.5C17.5 13.5251 17.4985 13.5498 17.4961 13.5742C17.4974 13.6197 17.5 13.6652 17.5 13.7109V14.2881C17.5 16.5097 15.9182 18.5 13.75 18.5H13.25C12.1863 18.5 11.5 17.5428 11.5 16.5957V12.5C11.5002 12.086 11.8359 11.75 12.25 11.75C12.6641 11.75 12.9998 12.086 13 12.5V16.5957C13 16.7395 13.0508 16.852 13.1094 16.9199C13.1669 16.9863 13.2188 17 13.25 17H13.75C14.8955 17 16 15.8899 16 14.2881V13.7109C15.9998 12.6591 15.5044 11.7847 14.834 11.3369C14.4897 11.1069 14.3971 10.6413 14.627 10.2969C14.857 9.95271 15.3226 9.85911 15.667 10.0889C15.7829 10.1662 15.8932 10.2519 16 10.3418V9C16 8.58579 16.3358 8.25 16.75 8.25ZM4.25 11C3.10452 11 2 12.11 2 13.7119V14.2881C2 15.89 3.10452 17 4.25 17H4.75C4.7812 17 4.83311 16.9873 4.89062 16.9209C4.94943 16.853 5 16.7399 5 16.5957V11.4043C5 11.2601 4.94943 11.147 4.89062 11.0791C4.83311 11.0127 4.7812 11 4.75 11H4.25ZM12.3252 5.10938C12.3945 4.96374 12.602 4.96374 12.6748 5.10938L12.793 5.34375L13.1816 6.11816C13.3307 6.42322 13.5802 6.66581 13.8818 6.81836L14.8906 7.3252C15.0363 7.39454 15.0363 7.60199 14.8906 7.6748L13.8818 8.18164L13.7705 8.24219C13.5176 8.39397 13.3151 8.61794 13.1816 8.88184L12.6748 9.89062C12.6054 10.0361 12.398 10.0362 12.3252 9.89062L12.2158 9.6709L11.8184 8.88184C11.6693 8.57675 11.4198 8.3342 11.1182 8.18164L10.3447 7.79199L10.1973 7.5L10.3438 7.79199L10.1094 7.6748C9.96381 7.60546 9.96385 7.39805 10.1094 7.3252L11.1182 6.81836C11.3851 6.68791 11.604 6.48039 11.7568 6.22852L11.8184 6.11816L12.3252 5.10938ZM15.8604 1.08691C15.916 0.971139 16.0812 0.971137 16.1396 1.08691L16.5449 1.89453C16.6642 2.13861 16.8642 2.33303 17.1055 2.45508L17.7256 2.76562L17.9131 2.86035C18.0289 2.916 18.0289 3.08124 17.9131 3.13965L17.1055 3.54492C16.8614 3.66421 16.667 3.86417 16.5449 4.10547L16.1396 4.91309C16.084 5.02875 15.9188 5.0288 15.8604 4.91309L15.7734 4.7373L15.4551 4.10547C15.3358 3.86136 15.1359 3.66697 14.8945 3.54492L14.0869 3.13965C13.9712 3.084 13.9712 2.9188 14.0869 2.86035L14.8945 2.45508C15.1386 2.33582 15.333 2.13582 15.4551 1.89453L15.8604 1.08691Z" fill="#1D1C1D"/>
</svg>
