<svg width="20" height="20" viewBox="0 0 20 20" fill="none" xmlns="http://www.w3.org/2000/svg">
<path d="M5.49985 14.4999C6.05213 14.4999 6.49985 14.9476 6.49985 15.4999C6.49985 16.0521 6.05213 16.4999 5.49985 16.4999C4.94756 16.4999 4.49985 16.0521 4.49985 15.4999C4.49985 14.9476 4.94756 14.4999 5.49985 14.4999ZM17.2498 14.7499C17.6641 14.7499 17.9998 15.0856 17.9998 15.4999C17.9998 15.9141 17.6641 16.2499 17.2498 16.2499H9.99985C9.58564 16.2499 9.24985 15.9141 9.24985 15.4999C9.24985 15.0856 9.58564 14.7499 9.99985 14.7499H17.2498ZM5.15024 2.46567C5.29419 2.17811 5.7055 2.17811 5.84946 2.46567L6.85922 4.48813C7.16163 5.09527 7.65443 5.58563 8.26157 5.89048L10.284 6.90024C10.5716 7.0442 10.5716 7.4555 10.284 7.59946L8.26157 8.60923C7.65443 8.91164 7.16407 9.40443 6.85922 10.0116L5.84946 12.034C5.7055 12.3216 5.29419 12.3216 5.15024 12.034L4.14047 10.0116C3.83806 9.40443 3.34527 8.91407 2.73813 8.60923L0.715669 7.59946C0.42811 7.4555 0.42811 7.0442 0.715669 6.90024L2.73813 5.89048C3.34527 5.58806 3.83563 5.09527 4.14047 4.48813L5.15024 2.46567ZM17.2498 9.24985C17.6641 9.24985 17.9998 9.58564 17.9998 9.99985C17.9998 10.4141 17.6641 10.7499 17.2498 10.7499H11.9998C11.5856 10.7499 11.2498 10.4141 11.2498 9.99985C11.2498 9.58564 11.5856 9.24985 11.9998 9.24985H17.2498ZM17.2498 3.74985C17.6641 3.74985 17.9998 4.08564 17.9998 4.49985C17.9998 4.91406 17.6641 5.24985 17.2498 5.24985H11.9998C11.5856 5.24985 11.2498 4.91406 11.2498 4.49985C11.2498 4.08564 11.5856 3.74985 11.9998 3.74985H17.2498Z" fill="#1D1C1D"/>
</svg>
