<svg width="20" height="20" viewBox="0 0 20 20" fill="none" xmlns="http://www.w3.org/2000/svg">
<path d="M9.25008 1.74992C5.10795 1.74992 1.75008 5.10778 1.75008 9.24992C1.75008 13.3921 5.10795 16.7499 9.25008 16.7499C11.0514 16.7499 12.7026 16.1134 13.9952 15.0556L17.4698 18.5302C17.7627 18.8231 18.2375 18.8231 18.5304 18.5302C18.8232 18.2373 18.8232 17.7625 18.5304 17.4696L15.0567 13.996C15.5998 13.3323 16.0319 12.5744 16.3233 11.7499C16.4613 11.3595 16.2566 10.9311 15.8663 10.7929C15.4758 10.6549 15.0474 10.8595 14.9093 11.2499C14.0852 13.5813 11.8613 15.2499 9.25008 15.2499C5.93637 15.2499 3.25008 12.5636 3.25008 9.24992C3.25008 5.93621 5.93637 3.24992 9.25008 3.24992C10.122 3.24992 10.9488 3.43546 11.6944 3.76847C12.0725 3.93725 12.5157 3.76763 12.6847 3.38957C12.8536 3.01137 12.6839 2.56826 12.3057 2.39933C11.3714 1.98202 10.3369 1.74992 9.25008 1.74992ZM13.6749 5.10929C13.6021 4.96366 13.3946 4.96366 13.3253 5.10929L12.8184 6.11808L12.7569 6.22843C12.6041 6.48035 12.3852 6.68781 12.1182 6.81828L11.1095 7.32511C10.9638 7.39793 10.9638 7.60537 11.1095 7.67472L11.3438 7.79191L11.1973 7.49992L11.3448 7.79191L12.1182 8.18156C12.4199 8.33412 12.6693 8.57667 12.8184 8.88175L13.2159 9.67082L13.3253 9.89054C13.3981 10.0362 13.6055 10.0362 13.6749 9.89054L14.1817 8.88175C14.3152 8.61782 14.5176 8.39389 14.7706 8.24211L14.8819 8.18156L15.8907 7.67472C16.0363 7.60191 16.0363 7.39446 15.8907 7.32511L14.8819 6.81828C14.5803 6.66572 14.3308 6.42317 14.1817 6.11808L13.7931 5.34367L13.6749 5.10929ZM17.1397 1.08683C17.0813 0.971055 16.9161 0.971057 16.8604 1.08683L16.4552 1.89445C16.3331 2.13578 16.1387 2.33572 15.8946 2.455L15.087 2.86027C14.9712 2.91868 14.9712 3.08391 15.087 3.13957L15.8946 3.54484C16.1359 3.66689 16.3359 3.86128 16.4552 4.10539L16.7735 4.73722L16.8604 4.913C16.9188 5.02878 17.0841 5.02878 17.1397 4.913L17.545 4.10539C17.6671 3.86406 17.8614 3.66412 18.1056 3.54484L18.9132 3.13957C19.0289 3.08116 19.0289 2.91592 18.9132 2.86027L18.7257 2.76554L18.1056 2.455C17.8642 2.33294 17.6643 2.13855 17.545 1.89445L17.1397 1.08683Z" fill="#1D1C1D"/>
</svg>
