<svg width="20" height="20" viewBox="0 0 20 20" fill="none" xmlns="http://www.w3.org/2000/svg">
<path d="M17.1971 3.24204C17.49 2.94915 17.9648 2.94914 18.2577 3.24204C18.5506 3.53493 18.5506 4.00969 18.2577 4.30258L5.53012 17.0301C5.23723 17.323 4.76247 17.323 4.46958 17.0301C4.17668 16.7372 4.17668 16.2625 4.46958 15.9696L17.1971 3.24204ZM17.4998 14.7499C17.9139 14.75 18.2498 15.0857 18.2498 15.4999C18.2497 15.9138 17.9138 16.2497 17.4998 16.2499H9.99985C9.67086 16.2499 9.39391 16.0367 9.29282 15.742L10.285 14.7499H17.4998ZM5.15024 2.46567C5.29419 2.17811 5.7055 2.17811 5.84946 2.46567L6.85922 4.48813C7.16165 5.0951 7.65455 5.58569 8.26157 5.89048L10.284 6.90024C10.5712 7.04434 10.5713 7.45551 10.284 7.59946L8.26157 8.60923C7.65443 8.91164 7.16407 9.40443 6.85922 10.0116L5.84946 12.034C5.70551 12.3214 5.29434 12.3212 5.15024 12.034L4.14047 10.0116C3.83812 9.40455 3.3451 8.91409 2.73813 8.60923L0.715669 7.59946C0.42811 7.4555 0.42811 7.0442 0.715669 6.90024L2.73813 5.89048C3.34517 5.58808 3.83564 5.09517 4.14047 4.48813L5.15024 2.46567ZM17.4998 9.24985C17.9139 9.25001 18.2498 9.58574 18.2498 9.99985C18.2497 10.4138 17.9138 10.7497 17.4998 10.7499H14.286L15.786 9.24985H17.4998ZM12.7137 5.24985H11.9998C11.5857 5.24985 11.25 4.91393 11.2498 4.49985C11.2498 4.08564 11.5856 3.74985 11.9998 3.74985H14.2137L12.7137 5.24985Z" fill="#1D1C1D"/>
</svg>
