<svg width="20" height="20" viewBox="0 0 20 20" fill="none" xmlns="http://www.w3.org/2000/svg">
<path d="M15.7665 13.5058C15.8409 13.3571 16.053 13.3571 16.1239 13.5058L16.6415 14.5361C16.7974 14.8441 17.0456 15.0987 17.3573 15.2509L18.3885 15.7685C18.5369 15.843 18.5371 16.0551 18.3885 16.1259L17.3573 16.6425C17.0491 16.7983 16.7938 17.0468 16.6415 17.3584L16.1239 18.3886C16.0494 18.537 15.8374 18.5371 15.7665 18.3886L15.2489 17.3584C15.093 17.0503 14.8449 16.7948 14.5331 16.6425L13.5028 16.1259C13.354 16.0516 13.354 15.8393 13.5028 15.7685L14.5331 15.2509C14.8412 15.0952 15.0965 14.8476 15.2489 14.5361L15.7665 13.5058ZM7.03307 4.31637C7.20325 3.97327 7.69599 3.97317 7.86608 4.31637L9.06628 6.72066C9.42761 7.44292 10.0126 8.02745 10.7352 8.38863L13.1415 9.58883C13.4849 9.75877 13.4847 10.2507 13.1415 10.4209L10.7352 11.622C10.0127 11.9832 9.42761 12.5669 9.06628 13.289L7.86608 15.6933C7.69602 16.0368 7.20313 16.0368 7.03307 15.6933L5.8319 13.289C5.4705 12.5669 4.88558 11.9831 4.16295 11.622L1.75768 10.4209C1.41415 10.2508 1.41406 9.75877 1.75768 9.58883L4.16295 8.38863C4.88572 8.02746 5.47052 7.44301 5.8319 6.72066L7.03307 4.31637ZM15.7665 1.61129C15.8409 1.46285 16.0529 1.46296 16.1239 1.61129L16.6415 2.64156C16.7974 2.94962 17.0455 3.20512 17.3573 3.35738L18.3885 3.87398C18.5371 3.94835 18.5369 4.16043 18.3885 4.2314L17.3573 4.74898C17.0491 4.90477 16.7938 5.1523 16.6415 5.46383L16.1239 6.4941C16.0495 6.64282 15.8373 6.64282 15.7665 6.4941L15.2489 5.46383C15.093 5.15589 14.8448 4.9012 14.5331 4.74898L13.5028 4.2314C13.354 4.15705 13.354 3.9448 13.5028 3.87398L14.5331 3.35738C14.8413 3.20158 15.0965 2.95316 15.2489 2.64156L15.7665 1.61129Z" fill="#1D1C1D"/>
</svg>
