<svg width="20" height="20" viewBox="0 0 20 20" fill="none" xmlns="http://www.w3.org/2000/svg">
<path d="M5.50005 14.4999C6.05234 14.4999 6.50005 14.9476 6.50005 15.4999C6.50005 16.0521 6.05234 16.4999 5.50005 16.4999C4.94777 16.4999 4.50005 16.0521 4.50005 15.4999C4.50005 14.9476 4.94777 14.4999 5.50005 14.4999ZM17.2501 14.7499C17.6643 14.7499 18.0001 15.0856 18.0001 15.4999C18.0001 15.9141 17.6643 16.2499 17.2501 16.2499H10.0001C9.58584 16.2499 9.25005 15.9141 9.25005 15.4999C9.25005 15.0856 9.58584 14.7499 10.0001 14.7499H17.2501ZM5.15044 2.46567C5.2944 2.17811 5.7057 2.17811 5.84966 2.46567L6.85943 4.48813C7.16184 5.09527 7.65463 5.58563 8.26177 5.89048L10.2842 6.90024C10.5718 7.0442 10.5718 7.4555 10.2842 7.59946L8.26177 8.60923C7.65463 8.91164 7.16427 9.40443 6.85943 10.0116L5.84966 12.034L5.82036 12.0848C5.66694 12.3052 5.33316 12.3052 5.17974 12.0848L5.15044 12.034L4.14068 10.0116C3.83826 9.40443 3.34547 8.91407 2.73833 8.60923L0.715871 7.59946C0.446234 7.46448 0.429062 7.09389 0.66509 6.92954L0.715871 6.90024L2.73833 5.89048C3.26968 5.62581 3.71129 5.2151 4.01763 4.70981L4.14068 4.48813L5.15044 2.46567ZM17.2501 9.24985C17.6643 9.24985 18.0001 9.58564 18.0001 9.99985C18.0001 10.4141 17.6643 10.7499 17.2501 10.7499H12.0001C11.5858 10.7499 11.2501 10.4141 11.2501 9.99985C11.2501 9.58564 11.5858 9.24985 12.0001 9.24985H17.2501ZM5.48247 5.15805L5.48052 5.16098C5.03235 6.05351 4.30865 6.78209 3.40728 7.2313L3.37212 7.24985L3.40825 7.26743L3.41118 7.26938C4.30359 7.71749 5.03325 8.44046 5.48247 9.34165L5.50005 9.3768L5.51763 9.34165L5.51958 9.33872C5.96795 8.44579 6.69187 7.71561 7.5938 7.26645L7.627 7.24985L7.59185 7.23227L7.58892 7.23032C6.69599 6.78195 5.96581 6.05803 5.51665 5.1561V5.15512L5.50005 5.12192L5.48247 5.15805ZM17.2501 3.74985C17.6643 3.74985 18.0001 4.08564 18.0001 4.49985C18.0001 4.91406 17.6643 5.24985 17.2501 5.24985H12.0001C11.5858 5.24985 11.2501 4.91406 11.2501 4.49985C11.2501 4.08564 11.5858 3.74985 12.0001 3.74985H17.2501Z" fill="#1D1C1D"/>
</svg>
