<svg width="20" height="20" viewBox="0 0 20 20" fill="none" xmlns="http://www.w3.org/2000/svg">
<path d="M9.36949 1.39263C9.63181 0.869211 10.3815 0.869037 10.6312 1.39263L12.4535 5.02349C13.0027 6.10878 13.8765 7.0066 14.975 7.54302L18.6068 9.36528L18.6996 9.41899C19.1294 9.71796 19.0979 10.391 18.6068 10.625L14.975 12.4463C13.8891 12.9952 12.9903 13.8692 12.4535 14.9668L10.6312 18.5967C10.3691 19.1207 9.61914 19.1207 9.36949 18.5967L7.54723 14.9668C7.03226 13.9492 6.23211 13.0955 5.22887 12.5508L5.02574 12.4463L1.39391 10.625C0.869634 10.3631 0.869634 9.61479 1.39391 9.36528L5.02574 7.54302C6.04369 7.02839 6.89781 6.22904 7.44273 5.22661L7.54723 5.02349L9.36949 1.39263ZM8.88805 5.69634C8.19741 7.10068 7.05529 8.19801 5.7025 8.88189L5.69859 8.88482L3.48375 9.99517L5.69859 11.1055H5.69762C7.01463 11.7524 8.0625 12.7951 8.7523 14.0372L8.88609 14.2891L8.88805 14.293L10.0004 16.5088L11.1127 14.293C11.8034 12.8889 12.9455 11.7912 14.2982 11.1075L14.3021 11.1055L16.516 9.99517L14.3021 8.88482V8.88384C12.8973 8.19367 11.799 7.05262 11.1146 5.70024L11.1127 5.69634L10.0004 3.48052L8.88805 5.69634Z" fill="#1D1C1D"/>
</svg>
