<svg width="20" height="20" viewBox="0 0 20 20" fill="none" xmlns="http://www.w3.org/2000/svg">
<path d="M15.7665 13.5058C15.8409 13.3571 16.0531 13.3571 16.1239 13.5058L16.6415 14.5361C16.7974 14.8441 17.0456 15.0987 17.3573 15.2509L18.3886 15.7685C18.537 15.843 18.5371 16.0551 18.3886 16.1259L17.3573 16.6425C17.0491 16.7983 16.7939 17.0468 16.6415 17.3584L16.1239 18.3886C16.0494 18.537 15.8374 18.5371 15.7665 18.3886L15.2489 17.3584C15.0931 17.0503 14.8449 16.7948 14.5331 16.6425L13.5028 16.1259C13.354 16.0516 13.354 15.8393 13.5028 15.7685L14.5331 15.2509C14.8413 15.0952 15.0966 14.8476 15.2489 14.5361L15.7665 13.5058ZM7.03312 4.25777C7.20318 3.9143 7.69607 3.9143 7.86613 4.25777L9.06632 6.66207C9.4277 7.3844 10.0125 7.96886 10.7353 8.33004L13.1415 9.53023C13.4848 9.70033 13.4849 10.1923 13.1415 10.3623L12.5878 10.6377L10.7353 11.5625C10.0126 11.9236 9.42767 12.5081 9.06632 13.2304L7.86613 15.6347C7.69609 15.9782 7.20324 15.9781 7.03312 15.6347L6.75578 15.08L6.7548 15.0791L5.83195 13.2304C5.47057 12.5081 4.88577 11.9236 4.163 11.5625L1.75773 10.3623C1.41408 10.1923 1.4141 9.70022 1.75773 9.53023L2.30949 9.25387L4.163 8.33004C4.79554 8.01395 5.32256 7.52658 5.68644 6.92574L5.83195 6.66207L7.03312 4.25777ZM7.17375 7.33199V7.33297C6.6671 8.34568 5.84688 9.16563 4.8339 9.67183H4.83293L4.28312 9.94527L4.83293 10.2207H4.8339C5.78371 10.6953 6.56385 11.4455 7.07511 12.372L7.17375 12.5595L7.44914 13.1103L7.72453 12.5595H7.7255C8.23215 11.5468 9.05237 10.7269 10.0653 10.2207L10.6152 9.94527L10.0653 9.67183C9.05239 9.16565 8.23215 8.34565 7.7255 7.33297L7.72453 7.33199L7.44914 6.78023L7.17375 7.33199ZM15.7665 1.61129C15.8409 1.46285 16.0529 1.46296 16.1239 1.61129L16.6415 2.64156C16.7974 2.94962 17.0456 3.20512 17.3573 3.35738L18.3886 3.87398C18.5371 3.94835 18.537 4.16043 18.3886 4.2314L17.3573 4.74898C17.0492 4.90477 16.7939 5.1523 16.6415 5.46383L16.1239 6.4941C16.0495 6.64282 15.8374 6.64282 15.7665 6.4941L15.2489 5.46383C15.093 5.15589 14.8448 4.9012 14.5331 4.74898L13.5028 4.2314C13.354 4.15705 13.354 3.9448 13.5028 3.87398L14.5331 3.35738C14.8414 3.20158 15.0966 2.95316 15.2489 2.64156L15.7665 1.61129Z" fill="#1D1C1D"/>
</svg>
