<svg width="20" height="20" viewBox="0 0 20 20" fill="none" xmlns="http://www.w3.org/2000/svg">
<path d="M17.1972 3.24204C17.4901 2.94915 17.9649 2.94914 18.2578 3.24204C18.5507 3.53493 18.5507 4.00969 18.2578 4.30258L5.53023 17.0301C5.23734 17.323 4.76258 17.323 4.46968 17.0301C4.17679 16.7372 4.17679 16.2625 4.46968 15.9696L17.1972 3.24204ZM17.5 14.7499C17.9142 14.7499 18.25 15.0856 18.25 15.4999C18.2498 15.9139 17.9141 16.2498 17.5 16.2499H9.99996C9.67062 16.2498 9.39373 16.0363 9.29293 15.7411L10.2851 14.7499H17.5ZM5.15035 2.46567C5.2943 2.17811 5.70561 2.17811 5.84957 2.46567L6.85933 4.48813C7.16175 5.09516 7.65461 5.58566 8.26168 5.89048L10.2841 6.90024C10.5716 7.04423 10.5717 7.45552 10.2841 7.59946L8.26168 8.60923C7.65461 8.91164 7.16415 9.40448 6.85933 10.0116L5.84957 12.034L5.82027 12.0848C5.66682 12.3049 5.33307 12.3049 5.17964 12.0848L5.15035 12.034L4.14058 10.0116C3.83818 9.40446 3.34534 8.91408 2.73824 8.60923L0.715778 7.59946C0.446205 7.46451 0.429147 7.09395 0.664996 6.92954L0.715778 6.90024L2.73824 5.89048C3.26951 5.62585 3.7112 5.21499 4.01754 4.70981L4.14058 4.48813L5.15035 2.46567ZM17.5 9.24985C17.9142 9.24985 18.25 9.58564 18.25 9.99985C18.2498 10.4139 17.9141 10.7498 17.5 10.7499H14.2861L15.7861 9.24985H17.5ZM5.48238 5.15805L5.48043 5.16098C5.03225 6.0534 4.30847 6.78213 3.40718 7.2313L3.37203 7.24985L3.40816 7.26743L3.41109 7.26938C4.30345 7.71749 5.03317 8.44049 5.48238 9.34165L5.49996 9.3768L5.51754 9.34165L5.51949 9.33872C5.96783 8.44584 6.69185 7.71561 7.59371 7.26645L7.62691 7.24985L7.59175 7.23227L7.58882 7.23032C6.69597 6.78199 5.96572 6.05793 5.51656 5.1561V5.15512L5.49996 5.12192L5.48238 5.15805ZM12.7138 5.24985H12C11.5859 5.24982 11.2501 4.91391 11.25 4.49985C11.25 4.08565 11.5858 3.74988 12 3.74985H14.2138L12.7138 5.24985Z" fill="#1D1C1D"/>
</svg>
