<svg width="20" height="20" viewBox="0 0 20 20" fill="none" xmlns="http://www.w3.org/2000/svg">
<path d="M9.36949 1.39298C9.63163 0.869007 10.3806 0.869007 10.6302 1.39298L12.4525 5.02286C13.0017 6.10817 13.8756 7.00691 14.974 7.54337L18.6068 9.36466C19.131 9.62666 19.131 10.3749 18.6068 10.6244L14.974 12.4457C13.8881 12.9946 12.9892 13.8684 12.4525 14.9662L10.6302 18.5961C10.3681 19.1201 9.61915 19.1201 9.36949 18.5961L7.54723 14.9662C6.99799 13.8809 6.12422 12.9822 5.02574 12.4457L1.39293 10.6244C0.869021 10.3624 0.869025 9.61426 1.39293 9.36466L5.02574 7.54337C6.11173 6.99445 7.01047 6.12071 7.54723 5.02286L9.36949 1.39298Z" fill="#1D1C1D"/>
</svg>
