<svg width="20" height="20" viewBox="0 0 20 20" fill="none" xmlns="http://www.w3.org/2000/svg">
<path d="M8.9043 1.56925C9.31489 1.51648 9.69102 1.80717 9.74414 2.21769C9.79697 2.62843 9.50644 3.00459 9.0957 3.05753C5.65733 3.50056 3.00022 6.44082 3 9.99992C3.00024 13.8657 6.13416 16.9999 10 16.9999C11.2332 16.9999 12.3898 16.6812 13.3945 16.123L13.5225 16.0663C13.6549 16.0224 13.7982 16.0164 13.9355 16.0497L16.7295 16.7284L16.0508 13.9355C16.0063 13.7523 16.0325 13.5582 16.124 13.3935C16.405 12.8876 16.6252 12.343 16.7744 11.7704C16.81 11.6338 16.8417 11.4952 16.8691 11.3554C16.949 10.9493 17.3428 10.6841 17.749 10.7636C18.1553 10.8433 18.4201 11.2373 18.3408 11.6435C18.3075 11.8134 18.2689 11.9822 18.2256 12.1484C18.0698 12.7463 17.8491 13.3185 17.5742 13.8573L18.4785 17.5722C18.5404 17.8264 18.4652 18.0951 18.2803 18.2802C18.0952 18.4651 17.8265 18.5403 17.5723 18.4784L13.8574 17.5741C12.6989 18.1652 11.3877 18.4999 10 18.4999C5.30573 18.4999 1.50024 14.6941 1.5 9.99992C1.50022 5.67676 4.72733 2.10735 8.9043 1.56925ZM11.25 10.9999C11.6642 10.9999 12 11.3357 12 11.7499C12 12.1641 11.6642 12.4999 11.25 12.4999H6.75C6.33579 12.4999 6.00001 12.1641 6 11.7499C6.00001 11.3357 6.33579 10.9999 6.75 10.9999H11.25ZM16.3252 5.10929C16.398 4.96366 16.6055 4.96366 16.6748 5.10929L17.1816 6.11808L17.2432 6.22843C17.396 6.48035 17.6149 6.68781 17.8818 6.81828L18.8906 7.32511C19.0363 7.39793 19.0363 7.60537 18.8906 7.67472L18.6562 7.79191L18.8027 7.49992L18.6553 7.79191L17.8818 8.18156C17.5802 8.33412 17.3307 8.57667 17.1816 8.88175L16.7842 9.67082L16.6748 9.89054C16.602 10.0362 16.3945 10.0362 16.3252 9.89054L15.8184 8.88175C15.6849 8.61782 15.4824 8.39389 15.2295 8.24211L15.1182 8.18156L14.1094 7.67472C13.9637 7.60191 13.9637 7.39446 14.1094 7.32511L15.1182 6.81828C15.4198 6.66572 15.6693 6.42317 15.8184 6.11808L16.207 5.34367L16.3252 5.10929ZM11.75 7.49992C12.1642 7.49992 12.5 7.83571 12.5 8.24992C12.5 8.66412 12.1642 8.99992 11.75 8.99992H6.75C6.3358 8.99992 6.00001 8.66412 6 8.24992C6.00001 7.83571 6.33579 7.49992 6.75 7.49992H11.75ZM12.8604 1.08683C12.9188 0.971055 13.084 0.971057 13.1396 1.08683L13.5449 1.89445C13.667 2.13578 13.8614 2.33572 14.1055 2.455L14.9131 2.86027C15.0289 2.91868 15.0289 3.08391 14.9131 3.13957L14.1055 3.54484C13.8641 3.66689 13.6642 3.86128 13.5449 4.10539L13.2266 4.73722L13.1396 4.913C13.0812 5.02878 12.916 5.02878 12.8604 4.913L12.4551 4.10539C12.333 3.86406 12.1386 3.66412 11.8945 3.54484L11.0869 3.13957C10.9711 3.08116 10.9711 2.91592 11.0869 2.86027L11.2744 2.76554L11.8945 2.455C12.1359 2.33294 12.3358 2.13855 12.4551 1.89445L12.8604 1.08683Z" fill="#1D1C1D"/>
</svg>
