<svg width="20" height="20" viewBox="0 0 20 20" fill="none" xmlns="http://www.w3.org/2000/svg">
<path d="M9.03308 1.7499C9.44728 1.7499 9.78305 2.08571 9.78308 2.4999C9.78308 2.91411 9.44729 3.2499 9.03308 3.2499H4.49988C3.80954 3.2499 3.2499 3.80957 3.24988 4.4999V15.4999C3.24988 16.1903 3.80952 16.7499 4.49988 16.7499H14.4999C15.1902 16.7499 15.7499 16.1903 15.7499 15.4999V11.9999C15.7499 11.5857 16.0857 11.2499 16.4999 11.2499C16.9141 11.2499 17.2499 11.5857 17.2499 11.9999V15.4999C17.2499 17.0187 16.0187 18.2499 14.4999 18.2499H4.49988C2.98109 18.2499 1.74988 17.0187 1.74988 15.4999V4.4999C1.7499 2.98114 2.98111 1.7499 4.49988 1.7499H9.03308ZM8.98328 5.2499C9.39747 5.2499 9.73325 5.58571 9.73328 5.9999V6.9501H12.2899C12.704 6.95022 13.0399 7.28598 13.0399 7.7001C13.0398 8.11409 12.7039 8.44997 12.2899 8.4501H11.6825C11.6464 9.47429 11.0653 10.8225 10.077 11.9745C10.8212 12.5258 11.7379 12.9515 12.826 13.1112C13.2357 13.1716 13.519 13.5531 13.4589 13.9628C13.3985 14.3724 13.017 14.6557 12.6073 14.5956C11.1484 14.3813 9.93861 13.7836 8.98328 13.0263C8.02795 13.7836 6.81809 14.3814 5.35925 14.5956C4.94961 14.6557 4.56802 14.3724 4.50769 13.9628C4.44758 13.5532 4.73097 13.1716 5.1405 13.1112C6.2283 12.9515 7.14447 12.5256 7.88855 11.9745C6.90059 10.8226 6.32016 9.47412 6.28406 8.4501H5.24988C4.83581 8.45004 4.50004 8.11414 4.49988 7.7001C4.4999 7.28594 4.83573 6.95015 5.24988 6.9501H8.23328V5.9999C8.2333 5.58574 8.56912 5.24995 8.98328 5.2499ZM7.78406 8.4501C7.82346 9.0237 8.19105 10.0005 8.98328 10.9442C9.77555 10.0005 10.1431 9.02367 10.1825 8.4501H7.78406ZM16.3251 5.10927C16.3979 4.96366 16.6053 4.96368 16.6747 5.10927L17.1815 6.11806L17.243 6.22842C17.3959 6.48031 17.6148 6.68779 17.8817 6.81826L18.8905 7.3251C19.0361 7.39791 19.0361 7.60536 18.8905 7.6747L18.6561 7.79189L18.8026 7.4999L18.6552 7.79189L17.8817 8.18154C17.5801 8.3341 17.3306 8.57668 17.1815 8.88174L16.7841 9.6708L16.6747 9.89052C16.6019 10.0361 16.3944 10.0361 16.3251 9.89052L15.8182 8.88174C15.6847 8.61782 15.4823 8.39386 15.2294 8.24209L15.118 8.18154L14.1093 7.6747C13.9637 7.60187 13.9637 7.39447 14.1093 7.3251L15.118 6.81826C15.4196 6.66571 15.6691 6.42313 15.8182 6.11806L16.2069 5.34365L16.3251 5.10927ZM12.8602 1.08681C12.9186 0.971049 13.0839 0.971075 13.1395 1.08681L13.5448 1.89443C13.6668 2.13574 13.8613 2.3357 14.1053 2.45498L14.913 2.86025C15.0287 2.91866 15.0287 3.0839 14.913 3.13955L14.1053 3.54482C13.864 3.66688 13.6641 3.86129 13.5448 4.10537L13.2264 4.7372L13.1395 4.91299C13.0811 5.02873 12.9159 5.02875 12.8602 4.91299L12.455 4.10537C12.3329 3.86405 12.1385 3.66409 11.8944 3.54482L11.0868 3.13955C10.9711 3.08112 10.9711 2.91593 11.0868 2.86025L11.2743 2.76552L11.8944 2.45498C12.1357 2.33293 12.3357 2.13852 12.455 1.89443L12.8602 1.08681Z" fill="#1D1C1D"/>
</svg>
