<svg width="20" height="20" viewBox="0 0 20 20" fill="none" xmlns="http://www.w3.org/2000/svg">
<path d="M11.434 5.68735C11.7074 5.68755 11.9595 5.83642 12.0912 6.07602C12.2227 6.31578 12.2134 6.60888 12.0668 6.83969L10.1752 9.81235H11.9672C13.2517 9.81263 13.8846 11.3982 12.9056 12.2684C10.8797 14.0678 7.47334 17.0601 5.72692 18.5926C4.8316 19.3781 3.56923 18.3863 4.00134 17.3485L5.26598 14.3124H3.45544C2.16875 14.312 1.29749 13.0005 1.79626 11.8143L4.18005 6.14633L4.23083 6.04673C4.36554 5.82586 4.60745 5.68735 4.87145 5.68735H11.434ZM3.17907 12.3963C3.09629 12.5938 3.24132 12.812 3.45544 12.8124H6.39098C6.64155 12.8125 6.876 12.9378 7.01501 13.1463C7.15386 13.3548 7.17952 13.6192 7.08337 13.8504L6.06188 16.2997C7.81224 14.7621 10.1358 12.7206 11.723 11.3124H8.80895C8.53546 11.3124 8.28355 11.1633 8.15173 10.9237C8.02003 10.6838 8.02928 10.3909 8.17614 10.16L10.0677 7.18735H5.3695L3.17907 12.3963ZM16.3256 5.10923C16.3984 4.96373 16.6058 4.96364 16.6752 5.10923L17.182 6.11801L17.2435 6.22837C17.3963 6.48021 17.6153 6.68777 17.8822 6.81821L18.891 7.32505C19.0363 7.39794 19.0363 7.60522 18.891 7.67465L18.6566 7.79184L18.8031 7.49985L18.6556 7.79184L17.8822 8.18149C17.5806 8.33403 17.3311 8.57666 17.182 8.88169L16.7845 9.67075L16.6752 9.89048C16.6024 10.0361 16.395 10.036 16.3256 9.89048L15.8187 8.88169C15.6853 8.61784 15.4827 8.39382 15.2299 8.24204L15.1185 8.18149L14.1097 7.67465C13.9641 7.60184 13.9641 7.39439 14.1097 7.32505L15.1185 6.81821C15.42 6.66564 15.6697 6.42301 15.8187 6.11801L16.2074 5.3436L16.3256 5.10923ZM12.8607 1.08676C12.9192 0.971123 13.0844 0.971034 13.14 1.08676L13.5453 1.89438C13.6673 2.13565 13.8618 2.33567 14.1058 2.45493L14.9134 2.8602C15.0289 2.91868 15.0289 3.08376 14.9134 3.1395L14.1058 3.54477C13.8645 3.6668 13.6646 3.86128 13.5453 4.10532L13.2269 4.73715L13.14 4.91294C13.0816 5.02867 12.9164 5.02858 12.8607 4.91294L12.4554 4.10532C12.3334 3.86408 12.1389 3.66407 11.8949 3.54477L11.0873 3.1395C10.9715 3.08109 10.9715 2.91585 11.0873 2.8602L11.2748 2.76548L11.8949 2.45493C12.1361 2.33287 12.3362 2.1384 12.4554 1.89438L12.8607 1.08676Z" fill="#1D1C1D"/>
</svg>
