<svg width="20" height="20" viewBox="0 0 20 20" fill="none" xmlns="http://www.w3.org/2000/svg">
<path d="M15.25 16.5C15.6642 16.5 16 16.8358 16 17.25C16 17.6642 15.6642 18 15.25 18H4.75C4.33579 18 4 17.6642 4 17.25C4 16.8358 4.33579 16.5 4.75 16.5H15.25ZM17.25 11.75C17.6642 11.75 18 12.0858 18 12.5C18 12.9142 17.6642 13.25 17.25 13.25H2.75C2.33579 13.25 2 12.9142 2 12.5C2 12.0858 2.33579 11.75 2.75 11.75H17.25ZM15.25 7C15.6642 7 16 7.33579 16 7.75C16 8.16421 15.6642 8.5 15.25 8.5H4.75C4.33579 8.5 4 8.16421 4 7.75C4 7.33579 4.33579 7 4.75 7H15.25ZM17.25 2.25C17.6642 2.25 18 2.58579 18 3C18 3.41421 17.6642 3.75 17.25 3.75H2.75C2.33579 3.75 2 3.41421 2 3C2 2.58579 2.33579 2.25 2.75 2.25H17.25Z" fill="#1D1C1D"/>
</svg>
