<svg width="20" height="20" viewBox="0 0 20 20" fill="none" xmlns="http://www.w3.org/2000/svg">
<path d="M13.25 16.5C13.6642 16.5 14 16.8358 14 17.25C14 17.6642 13.6642 18 13.25 18H2.75C2.33579 18 2 17.6642 2 17.25C2 16.8358 2.33579 16.5 2.75 16.5H13.25ZM17.25 11.75C17.6642 11.75 18 12.0858 18 12.5C18 12.9142 17.6642 13.25 17.25 13.25H2.75C2.33579 13.25 2 12.9142 2 12.5C2 12.0858 2.33579 11.75 2.75 11.75H17.25ZM13.25 7C13.6642 7 14 7.33579 14 7.75C14 8.16421 13.6642 8.5 13.25 8.5H2.75C2.33579 8.5 2 8.16421 2 7.75C2 7.33579 2.33579 7 2.75 7H13.25ZM17.25 2.25C17.6642 2.25 18 2.58579 18 3C18 3.41421 17.6642 3.75 17.25 3.75H2.75C2.33579 3.75 2 3.41421 2 3C2 2.58579 2.33579 2.25 2.75 2.25H17.25Z" fill="#1D1C1D"/>
</svg>
