<svg width="20" height="20" viewBox="0 0 20 20" fill="none" xmlns="http://www.w3.org/2000/svg">
<path d="M15.25 1.5C16.7688 1.5 18 2.73122 18 4.25V15.75C18 17.2688 16.7688 18.5 15.25 18.5H5.25C4.2835 18.5 3.5 17.7165 3.5 16.75V14H2.75C2.33579 14 2 13.6642 2 13.25C2 12.8358 2.33579 12.5 2.75 12.5H3.5V10.75H2.75C2.33579 10.75 2 10.4142 2 10C2 9.58579 2.33579 9.25 2.75 9.25H3.5V7.5H2.75C2.33579 7.5 2 7.16421 2 6.75C2 6.33579 2.33579 6 2.75 6H3.5V3.25C3.5 2.2835 4.2835 1.5 5.25 1.5H15.25ZM8.25 12C7.83579 12 7.5 12.3358 7.5 12.75C7.5 13.1642 7.83579 13.5 8.25 13.5C8.66421 13.5 9 13.1642 9 12.75C9 12.3358 8.66421 12 8.25 12ZM11 12C10.5858 12 10.25 12.3358 10.25 12.75C10.25 13.1642 10.5858 13.5 11 13.5C11.4142 13.5 11.75 13.1642 11.75 12.75C11.75 12.3358 11.4142 12 11 12ZM13.75 12C13.3358 12 13 12.3358 13 12.75C13 13.1642 13.3358 13.5 13.75 13.5C14.1642 13.5 14.5 13.1642 14.5 12.75C14.5 12.3358 14.1642 12 13.75 12ZM8.25 9.25C7.83579 9.25 7.5 9.58579 7.5 10C7.5 10.4142 7.83579 10.75 8.25 10.75C8.66421 10.75 9 10.4142 9 10C9 9.58579 8.66421 9.25 8.25 9.25ZM11 9.25C10.5858 9.25 10.25 9.58579 10.25 10C10.25 10.4142 10.5858 10.75 11 10.75C11.4142 10.75 11.75 10.4142 11.75 10C11.75 9.58579 11.4142 9.25 11 9.25ZM13.75 9.25C13.3358 9.25 13 9.58579 13 10C13 10.4142 13.3358 10.75 13.75 10.75C14.1642 10.75 14.5 10.4142 14.5 10C14.5 9.58579 14.1642 9.25 13.75 9.25ZM8.25 6.5C7.83579 6.5 7.5 6.83579 7.5 7.25C7.5 7.66421 7.83579 8 8.25 8C8.66421 8 9 7.66421 9 7.25C9 6.83579 8.66421 6.5 8.25 6.5ZM11 6.5C10.5858 6.5 10.25 6.83579 10.25 7.25C10.25 7.66421 10.5858 8 11 8C11.4142 8 11.75 7.66421 11.75 7.25C11.75 6.83579 11.4142 6.5 11 6.5ZM13.75 6.5C13.3358 6.5 13 6.83579 13 7.25C13 7.66421 13.3358 8 13.75 8C14.1642 8 14.5 7.66421 14.5 7.25C14.5 6.83579 14.1642 6.5 13.75 6.5Z" fill="#1D1C1D"/>
</svg>
