<svg width="12" height="12" viewBox="0 0 12 12" fill="none" xmlns="http://www.w3.org/2000/svg">
<path d="M10.2008 8.84961C10.2008 10.092 9.1931 11.0992 7.95081 11.0996H4.05042C2.80777 11.0996 1.80042 10.0922 1.80042 8.84961V4.5H10.2008V8.84961ZM4.65002 5.65039C4.37417 5.65058 4.15024 5.87454 4.15002 6.15039C4.15024 6.42624 4.37417 6.65021 4.65002 6.65039H7.35022C7.62597 6.65009 7.85001 6.42617 7.85022 6.15039C7.85001 5.87462 7.62597 5.65069 7.35022 5.65039H4.65002ZM9.30042 0.900391C10.2943 0.900602 11.1001 1.7063 11.1002 2.7002V3.12012C11.1002 3.38521 10.8848 3.60059 10.6198 3.60059H1.38049C1.1154 3.60059 0.900024 3.38521 0.900024 3.12012V2.7002C0.90013 1.70624 1.70587 0.900496 2.69983 0.900391H9.30042Z" fill="#1D1C1D"/>
</svg>
