<svg width="20" height="20" viewBox="0 0 20 20" fill="none" xmlns="http://www.w3.org/2000/svg">
<path d="M17 14.75C17 16.8211 15.3211 18.5 13.25 18.5H6.75C4.67893 18.5 3 16.8211 3 14.75V7.5H17V14.75ZM7.75 9.5C7.33579 9.5 7 9.83579 7 10.25C7 10.6642 7.33579 11 7.75 11H12.25C12.6642 11 13 10.6642 13 10.25C13 9.83579 12.6642 9.5 12.25 9.5H7.75ZM15.5 1.5C17.1569 1.5 18.5 2.84315 18.5 4.5V5.2002C18.4999 5.64187 18.1419 5.99989 17.7002 6H2.2998C1.85813 5.99989 1.50011 5.64187 1.5 5.2002V4.5C1.5 2.84315 2.84315 1.5 4.5 1.5H15.5Z" fill="#1D1C1D"/>
</svg>
