<svg width="12" height="12" viewBox="0 0 12 12" fill="none" xmlns="http://www.w3.org/2000/svg">
<path d="M9.14978 0.849609C10.2543 0.849609 11.1498 1.74504 11.1498 2.84961V3.75C11.1496 4.19165 10.7917 4.5498 10.35 4.5498H10.2504V8.84961C10.2503 10.1196 9.22049 11.1491 7.95056 11.1494H4.05017C2.78007 11.1493 1.75047 10.1197 1.75037 8.84961V4.5498H1.64978C1.20817 4.5497 0.850187 4.19158 0.849976 3.75V2.84961C0.849976 1.74504 1.74541 0.849609 2.84998 0.849609H9.14978ZM2.75037 8.84961C2.75047 9.56742 3.33236 10.1493 4.05017 10.1494H7.95056C8.66821 10.1491 9.25026 9.5673 9.25037 8.84961V4.5498H2.75037V8.84961ZM7.34998 5.64941C7.62597 5.64952 7.84988 5.87342 7.84998 6.14941C7.84998 6.42549 7.62603 6.64931 7.34998 6.64941H4.64978C4.37375 6.64928 4.14978 6.42548 4.14978 6.14941C4.14988 5.87344 4.37381 5.64955 4.64978 5.64941H7.34998ZM2.84998 1.84961C2.29769 1.84961 1.84998 2.29732 1.84998 2.84961V3.5498H10.1498V2.84961C10.1498 2.29733 9.70207 1.84961 9.14978 1.84961H2.84998Z" fill="#1D1C1D"/>
</svg>
