<svg width="20" height="20" viewBox="0 0 20 20" fill="none" xmlns="http://www.w3.org/2000/svg">
<path d="M15.25 1.5C17.0449 1.5 18.5 2.95507 18.5 4.75V6.25C18.5 6.94036 17.9404 7.5 17.25 7.5H17V14.75C17 16.8211 15.3211 18.5 13.25 18.5H6.75C4.67893 18.5 3 16.8211 3 14.75V7.5H2.75C2.05965 7.5 1.5 6.94036 1.5 6.25V4.75C1.5 2.95507 2.95507 1.5 4.75 1.5H15.25ZM4.5 14.75C4.5 15.9926 5.50736 17 6.75 17H13.25C14.4926 17 15.5 15.9926 15.5 14.75V7.5H4.5V14.75ZM12.25 9.5C12.6642 9.5 13 9.83579 13 10.25C13 10.6642 12.6642 11 12.25 11H7.75C7.33579 11 7 10.6642 7 10.25C7 9.83579 7.33579 9.5 7.75 9.5H12.25ZM4.75 3C3.7835 3 3 3.7835 3 4.75V6H17V4.75C17 3.7835 16.2165 3 15.25 3H4.75Z" fill="#1D1C1D"/>
</svg>
