<svg width="12" height="12" viewBox="0 0 12 12" fill="none" xmlns="http://www.w3.org/2000/svg">
<path d="M6 0.5C9.03757 0.5 11.5 2.96243 11.5 6C11.5 9.03757 9.03757 11.5 6 11.5C2.96243 11.5 0.5 9.03757 0.5 6C0.5 2.96243 2.96243 0.5 6 0.5ZM6 1.5C3.51472 1.5 1.5 3.51472 1.5 6C1.5 8.48528 3.51472 10.5 6 10.5C8.48528 10.5 10.5 8.48528 10.5 6C10.5 3.51472 8.48528 1.5 6 1.5ZM6.00098 2.77246C6.1475 2.77269 6.287 2.8375 6.38184 2.94922L8.40234 5.33008C8.58043 5.54035 8.55438 5.85549 8.34473 6.03418C8.13422 6.21279 7.81833 6.18698 7.63965 5.97656L6.5 4.63379V8.68359C6.49982 8.95953 6.27596 9.18351 6 9.18359C5.72404 9.18351 5.50018 8.95953 5.5 8.68359V4.63379L4.36133 5.97656C4.18283 6.18693 3.86779 6.21328 3.65723 6.03516C3.4467 5.85649 3.42096 5.54063 3.59961 5.33008L5.61914 2.94922C5.71414 2.83749 5.85431 2.77246 6.00098 2.77246Z" fill="#1D1C1D"/>
</svg>
