<svg width="12" height="12" viewBox="0 0 12 12" fill="none" xmlns="http://www.w3.org/2000/svg">
<path d="M5.7316 6.6416C5.92566 6.51354 6.18968 6.53526 6.36051 6.70605L8.14762 8.49316C8.34262 8.68841 8.3427 9.005 8.14762 9.2002C7.95243 9.39538 7.63587 9.39524 7.44059 9.2002L6.50699 8.2666V10.5234C6.50699 10.7995 6.28307 11.0234 6.00699 11.0234C5.73085 11.0234 5.50699 10.7996 5.50699 10.5234V8.2666L4.5734 9.2002C4.37815 9.39536 4.06161 9.39536 3.86637 9.2002C3.67116 9.00495 3.67119 8.68842 3.86637 8.49316L5.65348 6.70605L5.7316 6.6416ZM6.00699 0.974609C6.28305 0.974688 6.50696 1.19854 6.50699 1.47461V3.7041L7.44059 2.77051C7.63587 2.57546 7.95243 2.57532 8.14762 2.77051C8.3427 2.96571 8.34263 3.28229 8.14762 3.47754L6.36051 5.26465C6.18968 5.43545 5.92566 5.45717 5.7316 5.3291L5.65348 5.26465L3.86637 3.47754C3.67119 3.28228 3.67116 2.96575 3.86637 2.77051C4.06161 2.57534 4.37815 2.57534 4.5734 2.77051L5.50699 3.7041V1.47461C5.50702 1.19849 5.73087 0.974609 6.00699 0.974609Z" fill="#1D1C1D"/>
</svg>
