<svg width="20" height="20" viewBox="0 0 20 20" fill="none" xmlns="http://www.w3.org/2000/svg">
<path d="M8.29297 16.5177C8.00708 16.8172 7.53207 16.8287 7.23242 16.5431L1.73242 11.2931C1.58416 11.1515 1.5 10.955 1.5 10.7501C1.5 10.5451 1.58416 10.3486 1.73242 10.2071L7.23242 4.95711C7.53207 4.67147 8.00708 4.683 8.29297 4.9825C8.57861 5.28215 8.56708 5.75716 8.26758 6.04305L4.12207 10.0001L11.1465 10.0001C12.1177 10.0001 13.5989 9.68459 14.8184 8.75399C16.0024 7.85026 17 6.32357 17 3.75008C17 3.33587 17.3358 3.00008 17.75 3.00008C18.1642 3.00008 18.5 3.33587 18.5 3.75008C18.5 6.77658 17.2958 8.7501 15.7285 9.94637C14.1967 11.1154 12.3762 11.5001 11.1465 11.5001L4.12207 11.5001L8.26758 15.4571C8.56708 15.743 8.57861 16.218 8.29297 16.5177Z" fill="#1D1C1D"/>
</svg>
