<svg width="20" height="20" viewBox="0 0 20 20" fill="none" xmlns="http://www.w3.org/2000/svg">
<path d="M8.29297 3.48234C8.00708 3.18284 7.53207 3.17131 7.23242 3.45695L1.73242 8.70695C1.58416 8.84847 1.5 9.04496 1.5 9.24992C1.5 9.45488 1.58416 9.65137 1.73242 9.79289L7.23242 15.0429C7.53207 15.3285 8.00708 15.317 8.29297 15.0175C8.57861 14.7179 8.56708 14.2428 8.26758 13.9569L4.12207 9.99992H11.1465C12.1177 9.99992 13.5989 10.3154 14.8184 11.246C16.0024 12.1497 17 13.6764 17 16.2499C17 16.6641 17.3358 16.9999 17.75 16.9999C18.1642 16.9999 18.5 16.6641 18.5 16.2499C18.5 13.2234 17.2958 11.2499 15.7285 10.0536C14.1967 8.88458 12.3762 8.49992 11.1465 8.49992H4.12207L8.26758 4.54289C8.56708 4.257 8.57861 3.78198 8.29297 3.48234Z" fill="#1D1C1D"/>
</svg>
