<svg width="20" height="20" viewBox="0 0 20 20" fill="none" xmlns="http://www.w3.org/2000/svg">
<path d="M10 1C14.9706 1 19 5.02944 19 10C19 14.9706 14.9706 19 10 19C5.02944 19 1 14.9706 1 10C1 5.02944 5.02944 1 10 1ZM10.083 4.75C9.89056 4.7501 9.70674 4.82429 9.56836 4.95508L9.51172 5.01465L6.17773 8.94336C5.91006 9.25909 5.94919 9.73203 6.26465 10C6.58048 10.268 7.05427 10.2299 7.32227 9.91406L9.33398 7.54199V14.4277C9.33398 14.8419 9.6698 15.1777 10.084 15.1777C10.4982 15.1777 10.834 14.8419 10.834 14.4277V7.54395L12.8447 9.91406C13.1127 10.2298 13.5865 10.2679 13.9023 10C14.2177 9.73194 14.2561 9.25904 13.9883 8.94336L10.6553 5.01465C10.5128 4.84675 10.3032 4.75 10.083 4.75Z" fill="#1D1C1D"/>
</svg>
