<svg width="20" height="20" viewBox="0 0 20 20" fill="none" xmlns="http://www.w3.org/2000/svg">
<path d="M9.52631 10.918C9.82089 10.6777 10.2556 10.6951 10.5302 10.9697L13.7802 14.2197C14.0731 14.5126 14.0731 14.9874 13.7802 15.2803C13.4873 15.5732 13.0126 15.5732 12.7197 15.2803L10.7499 13.3105V17.7998C10.7499 18.214 10.4142 18.5498 9.99994 18.5498C9.58573 18.5498 9.24994 18.214 9.24994 17.7998V13.3105L7.28022 15.2803C6.98732 15.5732 6.51256 15.5732 6.21967 15.2803C5.92678 14.9874 5.92678 14.5126 6.21967 14.2197L9.46967 10.9697L9.52631 10.918ZM9.99994 1.5C10.4142 1.5 10.7499 1.83579 10.7499 2.25V6.68945L12.7197 4.71973C13.0126 4.42683 13.4873 4.42683 13.7802 4.71973C14.0731 5.01262 14.0731 5.48738 13.7802 5.78027L10.5302 9.03027C10.2556 9.30488 9.82089 9.32234 9.52631 9.08203L9.46967 9.03027L6.21967 5.78027C5.92678 5.48738 5.92678 5.01262 6.21967 4.71973C6.51256 4.42683 6.98732 4.42683 7.28022 4.71973L9.24994 6.68945V2.25C9.24994 1.83579 9.58573 1.5 9.99994 1.5Z" fill="#1D1C1D"/>
</svg>
