<svg width="20" height="20" viewBox="0 0 20 20" fill="none" xmlns="http://www.w3.org/2000/svg">
<path d="M9.99992 3C10.4141 3 10.7499 3.33579 10.7499 3.75V14.377L14.707 10.2324C14.9928 9.93292 15.4679 9.92139 15.7675 10.207C16.067 10.4929 16.0785 10.9679 15.7929 11.2676L10.5429 16.7676C10.4014 16.9158 10.2049 17 9.99992 17C9.79496 17 9.59847 16.9158 9.45695 16.7676L4.20695 11.2676C3.92131 10.9679 3.93284 10.4929 4.23234 10.207C4.53199 9.92139 5.007 9.93292 5.29289 10.2324L9.24992 14.377V3.75C9.24992 3.33579 9.58571 3 9.99992 3Z" fill="#1D1C1D"/>
</svg>
