<svg width="12" height="12" viewBox="0 0 12 12" fill="none" xmlns="http://www.w3.org/2000/svg">
<g clip-path="url(#clip0_1308_29386)">
<path fill-rule="evenodd" clip-rule="evenodd" d="M7.93551 2.39723C8.01674 1.99106 7.75333 1.59594 7.34716 1.51471C6.94099 1.43348 6.54587 1.69689 6.46464 2.10306L6.16523 3.60012H5.25006C4.83585 3.60012 4.50006 3.93591 4.50006 4.35012C4.50006 4.76433 4.83585 5.10012 5.25006 5.10012H5.86523L5.50522 6.90017H4.65009C4.23587 6.90017 3.90009 7.23595 3.90009 7.65017C3.90009 8.06438 4.23587 8.40017 4.65009 8.40017H5.20522L4.96464 9.60306C4.8834 10.0092 5.14682 10.4043 5.55299 10.4856C5.95916 10.5668 6.35427 10.3034 6.43551 9.89723L6.73492 8.40017H7.90523L7.66465 9.60306C7.58342 10.0092 7.84683 10.4043 8.253 10.4856C8.65917 10.5668 9.05429 10.3034 9.13552 9.89723L9.43493 8.40017H10.3501C10.7643 8.40017 11.1001 8.06438 11.1001 7.65017C11.1001 7.23595 10.7643 6.90017 10.3501 6.90017H9.73493L10.0949 5.10012H10.9501C11.3643 5.10012 11.7001 4.76433 11.7001 4.35012C11.7001 3.93591 11.3643 3.60012 10.9501 3.60012H10.3949L10.6355 2.39723C10.7168 1.99106 10.4533 1.59594 10.0472 1.51471C9.641 1.43348 9.24588 1.69689 9.16465 2.10306L8.86524 3.60012H7.69493L7.93551 2.39723ZM8.20523 6.90017L8.56524 5.10012H7.39493L7.03492 6.90017H8.20523ZM0.300049 5.85012C0.300049 5.43591 0.635835 5.10012 1.05005 5.10012H2.23939L2.01972 4.88045C1.72682 4.58755 1.72683 4.11268 2.01972 3.81979C2.31262 3.5269 2.78749 3.5269 3.08038 3.81979L4.58038 5.31981C4.72103 5.46046 4.80005 5.65123 4.80005 5.85014C4.80005 6.04905 4.72103 6.23982 4.58038 6.38047L3.08038 7.88045C2.78748 8.17334 2.31261 8.17334 2.01972 7.88045C1.72682 7.58755 1.72683 7.11268 2.01972 6.81979L2.23939 6.60012H1.05005C0.635835 6.60012 0.300049 6.26433 0.300049 5.85012Z" fill="#1D1C1D"/>
</g>
<defs>
<clipPath id="clip0_1308_29386">
<rect width="12" height="12" fill="white"/>
</clipPath>
</defs>
</svg>
