<svg width="20" height="20" viewBox="0 0 20 20" fill="none" xmlns="http://www.w3.org/2000/svg">
<path d="M10 1C14.9706 1 19 5.02944 19 10C19 14.9706 14.9706 19 10 19C5.02944 19 1 14.9706 1 10C1 5.02944 5.02944 1 10 1ZM10 2.5C5.85786 2.5 2.5 5.85786 2.5 10C2.5 14.1421 5.85786 17.5 10 17.5C14.1421 17.5 17.5 14.1421 17.5 10C17.5 5.85786 14.1421 2.5 10 2.5ZM10.0029 4.75C10.2231 4.75 10.4327 4.84676 10.5752 5.01465L13.9082 8.94336C14.1761 9.25904 14.1377 9.73194 13.8223 10C13.5065 10.2679 13.0326 10.2298 12.7646 9.91406L10.75 7.53906V14.4287C10.7497 14.8427 10.414 15.1787 10 15.1787C9.58599 15.1787 9.25026 14.8427 9.25 14.4287V7.54688L7.24219 9.91406C6.97419 10.2299 6.50039 10.268 6.18457 10C5.86914 9.73203 5.83001 9.25908 6.09766 8.94336L9.43164 5.01465L9.48828 4.95508C9.62665 4.8243 9.81049 4.75011 10.0029 4.75Z" fill="#1D1C1D"/>
</svg>
