<svg width="12" height="12" viewBox="0 0 12 12" fill="none" xmlns="http://www.w3.org/2000/svg">
<path d="M6 0.5C9.03757 0.5 11.5 2.96243 11.5 6C11.5 9.03757 9.03757 11.5 6 11.5C2.96243 11.5 0.5 9.03757 0.5 6C0.5 2.96243 2.96243 0.5 6 0.5ZM6.02051 2.75C5.87386 2.7501 5.7336 2.81497 5.63867 2.92676L3.61914 5.30762C3.44069 5.51811 3.46643 5.83405 3.67676 6.0127C3.88726 6.19078 4.20234 6.16432 4.38086 5.9541L5.51953 4.61133V8.66113C5.51971 8.9369 5.74381 9.16076 6.01953 9.16113C6.29556 9.16113 6.51935 8.93712 6.51953 8.66113V4.61133L7.65918 5.9541C7.83781 6.16446 8.15375 6.19015 8.36426 6.01172C8.57412 5.83307 8.60002 5.51796 8.42188 5.30762L6.40137 2.92676C6.3065 2.81505 6.16705 2.75018 6.02051 2.75Z" fill="#1D1C1D"/>
</svg>
