<svg width="12" height="12" viewBox="0 0 12 12" fill="none" xmlns="http://www.w3.org/2000/svg">
<path d="M9.99725 1.75971C10.2679 1.81384 10.4437 2.07696 10.3898 2.3476L10.0891 3.84956H10.9504C11.2262 3.84976 11.4501 4.07375 11.4504 4.34956C11.4504 4.62557 11.2263 4.84935 10.9504 4.84956H9.88983L9.42987 7.15034H10.3498C10.6258 7.15044 10.8498 7.37426 10.8498 7.65034C10.8496 7.92629 10.6258 8.15023 10.3498 8.15034H9.22968L8.88983 9.8476C8.8357 10.1183 8.57259 10.2941 8.30194 10.2402C8.03153 10.1859 7.85547 9.9228 7.90936 9.65229L8.21014 8.15034H6.53046L6.19061 9.8476C6.1365 10.1181 5.87325 10.2939 5.60272 10.2402C5.33207 10.1861 5.15623 9.92294 5.21014 9.65229L5.51093 8.15034H4.6496C4.37374 8.15011 4.14974 7.92621 4.1496 7.65034C4.1496 7.37434 4.37365 7.15057 4.6496 7.15034H5.71112L6.17108 4.84956H5.25018C4.97404 4.84956 4.75018 4.6257 4.75018 4.34956C4.75043 4.07363 4.9742 3.84956 5.25018 3.84956H6.3703L6.71014 2.15229C6.76435 1.88173 7.02744 1.70581 7.29803 1.75971C7.56845 1.81398 7.74441 2.07712 7.69061 2.3476L7.38983 3.84956H9.06952L9.40936 2.15229C9.46347 1.88179 9.72676 1.70607 9.99725 1.75971ZM2.19647 3.99604C2.39168 3.80109 2.7083 3.80109 2.9035 3.99604L4.4035 5.49604C4.49716 5.5897 4.54986 5.71712 4.54999 5.84956C4.54999 5.98205 4.49712 6.10933 4.4035 6.20307L2.9035 7.70307C2.70824 7.89833 2.39173 7.89833 2.19647 7.70307C2.00144 7.50779 2.00129 7.19123 2.19647 6.99604L2.84296 6.34956H1.04999C0.773845 6.34956 0.549988 6.1257 0.549988 5.84956C0.550238 5.57363 0.774 5.34956 1.04999 5.34956H2.84296L2.19647 4.70307C2.00144 4.50779 2.00129 4.19123 2.19647 3.99604ZM6.73065 7.15034H8.41034L8.8703 4.84956H7.19061L6.73065 7.15034Z" fill="#1D1C1D"/>
</svg>
