<svg width="20" height="20" viewBox="0 0 20 20" fill="none" xmlns="http://www.w3.org/2000/svg">
<path d="M9.99992 3C10.2049 3 10.4014 3.08416 10.5429 3.23242L15.7929 8.73242C16.0785 9.03207 16.067 9.50708 15.7675 9.79297C15.4679 10.0786 14.9928 10.0671 14.707 9.76758L10.7499 5.62109V16.25C10.7499 16.6642 10.4141 17 9.99992 17C9.58571 17 9.24992 16.6642 9.24992 16.25V5.62109L5.29289 9.76758C5.007 10.0671 4.53199 10.0786 4.23234 9.79297C3.93284 9.50708 3.92131 9.03207 4.20695 8.73242L9.45695 3.23242C9.59847 3.08416 9.79496 3 9.99992 3Z" fill="#1D1C1D"/>
</svg>
