<svg width="20" height="20" viewBox="0 0 20 20" fill="none" xmlns="http://www.w3.org/2000/svg">
<path d="M7.2002 11.7393C7.49308 11.4467 7.96794 11.4466 8.26074 11.7393C8.55334 12.0321 8.55327 12.507 8.26074 12.7998L4.06055 17H7.25C7.66414 17 7.99989 17.3359 8 17.75C7.99979 18.164 7.66408 18.5 7.25 18.5H2.25L2.17285 18.4961C2.15404 18.4942 2.13556 18.4906 2.11719 18.4873C2.11167 18.4863 2.10609 18.4855 2.10059 18.4844C2.08518 18.4813 2.07071 18.4747 2.05566 18.4707C2.02438 18.4623 1.99308 18.4539 1.96289 18.4414C1.94344 18.4333 1.92581 18.4217 1.90723 18.4121C1.84051 18.3776 1.7757 18.3362 1.71973 18.2803C1.68829 18.2488 1.6614 18.2139 1.63672 18.1787C1.60555 18.1342 1.57767 18.087 1.55664 18.0361C1.53593 17.9859 1.52106 17.9337 1.51172 17.8809C1.50424 17.8384 1.50002 17.7946 1.5 17.75V12.75C1.50011 12.3359 1.83586 12 2.25 12C2.66414 12 2.99989 12.3359 3 12.75V15.9395L7.2002 11.7393ZM11.7393 11.7393C12.032 11.4465 12.5069 11.4467 12.7998 11.7393L17 15.9395V12.75C17.0002 12.336 17.336 12.0002 17.75 12C18.1639 12.0002 18.4998 12.3361 18.5 12.75V17.75C18.5 17.7946 18.4948 17.8384 18.4873 17.8809C18.4779 17.9338 18.4622 17.9858 18.4414 18.0361C18.4316 18.0597 18.4183 18.0813 18.4062 18.1035C18.3725 18.1662 18.3332 18.2274 18.2803 18.2803C18.2274 18.3332 18.1662 18.3725 18.1035 18.4062C18.0813 18.4183 18.0597 18.4316 18.0361 18.4414C18.0054 18.4541 17.9733 18.4623 17.9414 18.4707C17.9267 18.4746 17.9125 18.4814 17.8975 18.4844C17.892 18.4855 17.8863 18.4863 17.8809 18.4873C17.8629 18.4905 17.8446 18.4942 17.8262 18.4961L17.75 18.5H12.75C12.3361 18.4998 12.0002 18.1639 12 17.75C12.0002 17.336 12.336 17.0002 12.75 17H15.9395L11.7393 12.7998C11.4467 12.5069 11.4465 12.032 11.7393 11.7393ZM7.25 1.5C7.66421 1.5 8 1.83579 8 2.25C8 2.66421 7.66421 3 7.25 3H4.06055L8.26074 7.2002C8.55324 7.49312 8.5535 7.96798 8.26074 8.26074C7.96798 8.5535 7.49312 8.55324 7.2002 8.26074L3 4.06055V7.25C3 7.66421 2.66421 8 2.25 8C1.83579 8 1.5 7.66421 1.5 7.25V2.25C1.5 2.20468 1.50402 2.16029 1.51172 2.11719C1.52082 2.06635 1.53505 2.01621 1.55469 1.96777L1.55859 1.95801C1.57018 1.93061 1.58596 1.9055 1.60059 1.87988C1.63303 1.82304 1.67121 1.76824 1.71973 1.71973C1.76824 1.67121 1.82304 1.63303 1.87988 1.60059C1.9055 1.58596 1.93061 1.57018 1.95801 1.55859L1.96777 1.55469C1.99823 1.54234 2.03 1.53455 2.06152 1.52637C2.07463 1.52296 2.08722 1.51735 2.10059 1.51465C2.10609 1.51353 2.11166 1.51271 2.11719 1.51172C2.16029 1.50402 2.20468 1.5 2.25 1.5H7.25ZM17.8809 1.51172C17.8863 1.51269 17.892 1.51356 17.8975 1.51465C17.9101 1.51717 17.9222 1.52222 17.9346 1.52539C17.9688 1.53408 18.0032 1.54307 18.0361 1.55664C18.087 1.57767 18.1342 1.60555 18.1787 1.63672C18.2139 1.6614 18.2488 1.68829 18.2803 1.71973C18.3362 1.7757 18.3776 1.84051 18.4121 1.90723C18.4217 1.92581 18.4333 1.94344 18.4414 1.96289C18.4622 2.01297 18.4779 2.0645 18.4873 2.11719C18.495 2.16033 18.5 2.20464 18.5 2.25V7.25C18.5 7.66408 18.164 7.99979 17.75 8C17.3359 7.99989 17 7.66414 17 7.25V4.06055L12.7998 8.26074C12.507 8.55327 12.0321 8.55334 11.7393 8.26074C11.4466 7.96794 11.4467 7.49308 11.7393 7.2002L15.9395 3H12.75C12.3359 2.99989 12 2.66414 12 2.25C12 1.83586 12.3359 1.50011 12.75 1.5H17.75C17.7946 1.50002 17.8384 1.50424 17.8809 1.51172Z" fill="#1D1C1D"/>
</svg>
