<svg width="20" height="20" viewBox="0 0 20 20" fill="none" xmlns="http://www.w3.org/2000/svg">
<path d="M17.7497 10.7499C18.053 10.7499 18.3269 10.9325 18.443 11.2128C18.5591 11.493 18.4944 11.8157 18.2799 12.0301L13.0299 17.2801C12.737 17.5728 12.2622 17.573 11.9694 17.2801C11.6767 16.9873 11.6767 16.5125 11.9694 16.2196L15.9391 12.2499H2.24967C1.83563 12.2497 1.4997 11.9139 1.49967 11.4999C1.49967 11.0858 1.83561 10.7501 2.24967 10.7499H17.7497ZM6.9694 2.7196C7.26224 2.42675 7.73704 2.42684 8.02994 2.7196C8.32283 3.01249 8.32283 3.48725 8.02994 3.78015L4.06022 7.74987H17.7497C18.1639 7.74987 18.4997 8.08566 18.4997 8.49987C18.4996 8.91406 18.1639 9.24987 17.7497 9.24987H2.24967C1.94646 9.24974 1.67235 9.06714 1.55631 8.78698C1.44034 8.50685 1.50509 8.18407 1.7194 7.9696L6.9694 2.7196Z" fill="#1D1C1D"/>
</svg>
