<svg width="20" height="20" viewBox="0 0 20 20" fill="none" xmlns="http://www.w3.org/2000/svg">
<path d="M11.2676 15.7931C10.9679 16.0787 10.4929 16.0672 10.207 15.7677C9.92139 15.468 9.93293 14.993 10.2324 14.7071L14.3779 10.7501L3.75 10.7501C3.33579 10.7501 3 10.4143 3 10.0001C3 9.58587 3.33579 9.25008 3.75 9.25008L14.3779 9.25008L10.2324 5.29305C9.93292 5.00717 9.92139 4.53215 10.207 4.2325C10.4929 3.933 10.9679 3.92147 11.2676 4.20711L16.7676 9.45711C16.9158 9.59863 17 9.79512 17 10.0001C17 10.205 16.9158 10.4006 16.7676 10.5421L11.2676 15.7931Z" fill="#1D1C1D"/>
</svg>
