<svg width="20" height="20" viewBox="0 0 20 20" fill="none" xmlns="http://www.w3.org/2000/svg">
<path d="M11.707 16.7677C11.9929 17.0672 12.4679 17.0787 12.7676 16.7931L18.2676 11.5431C18.4158 11.4015 18.5 11.205 18.5 11.0001C18.5 10.7951 18.4158 10.5986 18.2676 10.4571L12.7676 5.20711C12.4679 4.92147 11.9929 4.933 11.707 5.2325C11.4214 5.53215 11.4329 6.00716 11.7324 6.29305L15.8779 10.2501L8.85352 10.2501C7.88229 10.2501 6.40105 9.93459 5.18164 9.00399C3.99762 8.10026 3 6.57357 3 4.00008C3 3.58587 2.66421 3.25008 2.25 3.25008C1.83579 3.25008 1.5 3.58587 1.5 4.00008C1.5 7.02658 2.70419 9.0001 4.27148 10.1964C5.80328 11.3654 7.62384 11.7501 8.85352 11.7501L15.8779 11.7501L11.7324 15.7071C11.4329 15.993 11.4214 16.468 11.707 16.7677Z" fill="#1D1C1D"/>
</svg>
