<svg width="20" height="20" viewBox="0 0 20 20" fill="none" xmlns="http://www.w3.org/2000/svg">
<path fill-rule="evenodd" clip-rule="evenodd" d="M12.9806 3.94631C13.0889 3.40475 12.7377 2.87792 12.1961 2.76961C11.6546 2.6613 11.1277 3.01252 11.0194 3.55408L10.4802 6.25019H8.75C8.19772 6.25019 7.75 6.69791 7.75 7.25019C7.75 7.80248 8.19772 8.25019 8.75 8.25019H10.0802L9.3802 11.7502H7.75C7.19772 11.7502 6.75 12.1979 6.75 12.7502C6.75 13.3025 7.19772 13.7502 7.75 13.7502H8.9802L8.51942 16.0541C8.41111 16.5956 8.76232 17.1225 9.30388 17.2308C9.84544 17.3391 10.3723 16.9879 10.4806 16.4463L11.0198 13.7502H13.4802L13.0194 16.0541C12.9111 16.5956 13.2623 17.1225 13.8039 17.2308C14.3454 17.3391 14.8723 16.9879 14.9806 16.4463L15.5198 13.7502H17.25C17.8023 13.7502 18.25 13.3025 18.25 12.7502C18.25 12.1979 17.8023 11.7502 17.25 11.7502H15.9198L16.6198 8.25019H18.25C18.8023 8.25019 19.25 7.80248 19.25 7.25019C19.25 6.69791 18.8023 6.25019 18.25 6.25019H17.0198L17.4806 3.94631C17.5889 3.40475 17.2377 2.87792 16.6961 2.76961C16.1546 2.6613 15.6277 3.01252 15.5194 3.55408L14.9802 6.25019H12.5198L12.9806 3.94631ZM13.8802 11.7502L14.5802 8.25019H12.1198L11.4198 11.7502H13.8802ZM3.5429 6.54308C3.93342 6.15256 4.56659 6.15256 4.95711 6.54309L7.45711 9.04312C7.64465 9.23066 7.75 9.48501 7.75 9.75023C7.75 10.0154 7.64464 10.2698 7.4571 10.4573L4.9571 12.9573C4.56658 13.3478 3.93341 13.3478 3.54289 12.9573C3.15237 12.5668 3.15237 11.9336 3.5429 11.5431L4.33574 10.7502H1.75C1.19772 10.7502 0.75 10.3025 0.75 9.75024C0.75 9.19796 1.19772 8.75024 1.75 8.75024H4.33583L3.54289 7.9573C3.15237 7.56677 3.15237 6.9336 3.5429 6.54308Z" fill="#1D1C1D"/>
</svg>
