<svg width="20" height="20" viewBox="0 0 20 20" fill="none" xmlns="http://www.w3.org/2000/svg">
<path d="M11.707 3.48234C11.9929 3.18284 12.4679 3.17131 12.7676 3.45695L18.2676 8.70695C18.4158 8.84847 18.5 9.04496 18.5 9.24992C18.5 9.45488 18.4158 9.65137 18.2676 9.79289L12.7676 15.0429C12.4679 15.3285 11.9929 15.317 11.707 15.0175C11.4214 14.7179 11.4329 14.2428 11.7324 13.9569L15.8779 9.99992H8.85352C7.88229 9.99992 6.40105 10.3154 5.18164 11.246C3.99762 12.1497 3 13.6764 3 16.2499C3 16.6641 2.66421 16.9999 2.25 16.9999C1.83579 16.9999 1.5 16.6641 1.5 16.2499C1.5 13.2234 2.70419 11.2499 4.27148 10.0536C5.80328 8.88458 7.62384 8.49992 8.85352 8.49992H15.8779L11.7324 4.54289C11.4329 4.257 11.4214 3.78198 11.707 3.48234Z" fill="#1D1C1D"/>
</svg>
