<svg width="12" height="12" viewBox="0 0 12 12" fill="none" xmlns="http://www.w3.org/2000/svg">
<path d="M6.00701 6.55974C6.28303 6.55982 6.50692 6.78371 6.50701 7.05974V9.31657L7.4406 8.38298C7.63586 8.18804 7.95246 8.18789 8.14763 8.38298C8.34272 8.57815 8.34257 8.89475 8.14763 9.09001L6.36052 10.8771C6.18969 11.048 5.92568 11.0697 5.73162 10.9416L5.65349 10.8771L3.86638 9.09001C3.67127 8.89474 3.67117 8.57819 3.86638 8.38298C4.0616 8.18792 4.37819 8.18792 4.57341 8.38298L5.50701 9.31657V7.05974C5.50709 6.78367 5.73092 6.55974 6.00701 6.55974ZM5.73162 1.05681C5.92568 0.928718 6.18969 0.950426 6.36052 1.12126L8.14763 2.90837C8.34265 3.10363 8.34275 3.42021 8.14763 3.6154C7.95244 3.81059 7.63588 3.81044 7.4406 3.6154L6.50701 2.68181V4.9113C6.50698 5.18737 6.28306 5.41122 6.00701 5.4113C5.73088 5.4113 5.50704 5.18742 5.50701 4.9113V2.68181L4.57341 3.6154C4.37817 3.81057 4.06162 3.81057 3.86638 3.6154C3.67114 3.42016 3.67119 3.10364 3.86638 2.90837L5.65349 1.12126L5.73162 1.05681Z" fill="#1D1C1D"/>
</svg>
