<svg width="20" height="20" viewBox="0 0 20 20" fill="none" xmlns="http://www.w3.org/2000/svg">
<path d="M15.7646 3.60259C15.8461 3.19672 16.2415 2.93352 16.6475 3.0147C17.0534 3.09609 17.3165 3.49152 17.2354 3.89751L16.7148 6.50005H18.25C18.6642 6.50005 18.9999 6.83591 19 7.25005C19 7.66427 18.6642 8.00005 18.25 8.00005H16.415L15.6152 12.0001H17.25C17.6642 12.0001 17.9999 12.3359 18 12.7501C18 13.1643 17.6642 13.5001 17.25 13.5001H15.3145L14.7354 16.3975C14.6539 16.8035 14.2586 17.0666 13.8525 16.9854C13.4466 16.904 13.1834 16.5086 13.2646 16.1026L13.7852 13.5001H10.8145L10.2354 16.3975C10.1539 16.8035 9.75858 17.0666 9.35254 16.9854C8.9466 16.904 8.68344 16.5086 8.76465 16.1026L9.28516 13.5001H7.75C7.33579 13.5001 7 13.1643 7 12.7501C7.00008 12.3359 7.33583 12.0001 7.75 12.0001H9.58496L10.3848 8.00005H8.75C8.33579 8.00005 8 7.66427 8 7.25005C8.00008 6.83591 8.33583 6.50005 8.75 6.50005H10.6855L11.2646 3.60259C11.3461 3.19672 11.7415 2.93352 12.1475 3.0147C12.5534 3.09609 12.8165 3.49152 12.7354 3.89751L12.2148 6.50005H15.1855L15.7646 3.60259ZM3.71973 6.71978C4.0126 6.42699 4.4874 6.42698 4.78027 6.71978L7.28027 9.21978C7.42088 9.36039 7.49995 9.5512 7.5 9.75005C7.5 9.94892 7.42087 10.1397 7.28027 10.2803L4.78027 12.7803C4.48738 13.0732 4.01262 13.0732 3.71973 12.7803C3.42691 12.4874 3.42686 12.0126 3.71973 11.7198L4.93945 10.5001H1.75C1.33579 10.5001 1 10.1643 1 9.75005C1.00008 9.33591 1.33583 9.00005 1.75 9.00005H4.93945L3.71973 7.78033C3.42691 7.48743 3.42686 7.01265 3.71973 6.71978ZM11.1152 12.0001H14.085L14.8848 8.00005H11.915L11.1152 12.0001Z" fill="#1D1C1D"/>
</svg>
