<svg width="20" height="20" viewBox="0 0 20 20" fill="none" xmlns="http://www.w3.org/2000/svg">
<path d="M9.99994 10.7501C10.4141 10.7501 10.7498 11.086 10.7499 11.5001V15.9894L12.7197 14.0196C13.0125 13.7269 13.4873 13.7269 13.7802 14.0196C14.0731 14.3125 14.073 14.7873 13.7802 15.0802L10.5302 18.3302C10.2556 18.6048 9.82089 18.6223 9.52631 18.382L9.46967 18.3302L6.21967 15.0802C5.92687 14.7873 5.92681 14.3125 6.21967 14.0196C6.51254 13.7269 6.98735 13.7269 7.28022 14.0196L9.24994 15.9894V11.5001C9.25005 11.086 9.58579 10.7501 9.99994 10.7501ZM9.52631 1.66809C9.82089 1.42778 10.2556 1.44524 10.5302 1.71984L13.7802 4.96984C14.0731 5.26274 14.0731 5.7375 13.7802 6.03039C13.4873 6.32328 13.0126 6.32328 12.7197 6.03039L10.7499 4.06066V8.50012C10.7499 8.91433 10.4142 9.25012 9.99994 9.25012C9.58573 9.25012 9.24994 8.91433 9.24994 8.50012V4.06066L7.28022 6.03039C6.98732 6.32328 6.51256 6.32328 6.21967 6.03039C5.92678 5.7375 5.92678 5.26274 6.21967 4.96984L9.46967 1.71984L9.52631 1.66809Z" fill="#1D1C1D"/>
</svg>
