<svg width="20" height="20" viewBox="0 0 20 20" fill="none" xmlns="http://www.w3.org/2000/svg">
<path d="M8.73242 4.20695C9.03207 3.92131 9.50708 3.93284 9.79297 4.23234C10.0786 4.53198 10.0671 5.007 9.76758 5.29289L5.62207 9.24992H16.25C16.6642 9.24992 17 9.58571 17 9.99992C17 10.4141 16.6642 10.7499 16.25 10.7499H5.62207L9.76758 14.7069C10.0671 14.9928 10.0786 15.4679 9.79297 15.7675C9.50708 16.067 9.03207 16.0785 8.73242 15.7929L3.23242 10.5429C3.08416 10.4014 3 10.2049 3 9.99992C3 9.79496 3.08416 9.59847 3.23242 9.45695L8.73242 4.20695Z" fill="#1D1C1D"/>
</svg>
