<svg width="18" height="18" viewBox="0 0 18 18" fill="none" xmlns="http://www.w3.org/2000/svg">
<g clip-path="url(#clip0_7545_11309)">
<path d="M9 0.825195C13.5148 0.825301 17.1747 4.48523 17.1748 9V9.58008C17.1747 11.2892 15.7892 12.6748 14.0801 12.6748C13.2509 12.6747 12.5197 12.2622 12.0752 11.6328C11.3325 12.4995 10.2309 13.0497 9 13.0498C6.7634 13.0497 4.9503 11.2366 4.9502 9C4.9503 6.7634 6.7634 4.9503 9 4.9502C10.0087 4.95024 10.9307 5.31954 11.6396 5.92969C11.7074 5.58507 12.0105 5.3252 12.375 5.3252C12.7892 5.3252 13.125 5.66098 13.125 6.0752V10.2197C13.1251 10.7472 13.5527 11.1747 14.0801 11.1748C14.9608 11.1748 15.6747 10.4607 15.6748 9.58008V9C15.6747 5.31365 12.6863 2.3253 9 2.3252C5.31365 2.3253 2.3253 5.31365 2.3252 9C2.3253 12.6863 5.31365 15.6747 9 15.6748C10.4327 15.6748 11.758 15.2242 12.8447 14.457C13.1831 14.2182 13.6517 14.2993 13.8906 14.6377C14.1291 14.976 14.0482 15.4438 13.71 15.6826C12.3785 16.6226 10.7525 17.1748 9 17.1748C4.48523 17.1747 0.825301 13.5148 0.825195 9C0.825301 4.48523 4.48523 0.825301 9 0.825195ZM9 6.4502C7.59183 6.4503 6.4503 7.59183 6.4502 9C6.4503 10.4082 7.59183 11.5497 9 11.5498C10.4082 11.5497 11.5497 10.4082 11.5498 9C11.5497 7.59183 10.4082 6.4503 9 6.4502Z" fill="#454447"/>
</g>
<defs>
<clipPath id="clip0_7545_11309">
<rect width="18" height="18" fill="white"/>
</clipPath>
</defs>
</svg>
