<svg width="20" height="20" viewBox="0 0 20 20" fill="none" xmlns="http://www.w3.org/2000/svg">
<path d="M11.5 1.5C13.9853 1.5 16 3.51472 16 6V12.5C16 15.8137 13.3137 18.5 10 18.5C6.68629 18.5 4 15.8137 4 12.5V9.75C4 9.33579 4.33579 9 4.75 9C5.16421 9 5.5 9.33579 5.5 9.75V12.5C5.5 14.9853 7.51472 17 10 17C12.4853 17 14.5 14.9853 14.5 12.5V6C14.5 4.34315 13.1569 3 11.5 3C9.84315 3 8.5 4.34315 8.5 6V12.5C8.5 13.3284 9.17157 14 10 14C10.8284 14 11.5 13.3284 11.5 12.5V6.75C11.5 6.33579 11.8358 6 12.25 6C12.6642 6 13 6.33579 13 6.75V12.5C13 14.1569 11.6569 15.5 10 15.5C8.34315 15.5 7 14.1569 7 12.5V6C7 3.51472 9.01472 1.5 11.5 1.5Z" fill="#1D1C1D"/>
</svg>
