<svg width="20" height="20" viewBox="0 0 20 20" fill="none" xmlns="http://www.w3.org/2000/svg">
<path d="M15.9168 2.5C17.3803 2.5 18.5672 3.68684 18.5672 5.15039V14.8496C18.5672 16.3132 17.3803 17.5 15.9168 17.5H8.25956C7.11968 17.4999 6.04143 16.9814 5.32987 16.0908L2.25468 12.2412C1.26212 10.9989 1.24713 9.23938 2.21855 7.98047L5.32206 3.95898C6.03207 3.03907 7.12877 2.50006 8.29081 2.5H15.9168ZM8.29081 4C7.59363 4.00006 6.93555 4.32309 6.50956 4.875L3.40605 8.89648C2.85683 9.60808 2.86544 10.6034 3.42655 11.3057L6.50175 15.1543C6.92866 15.6886 7.57567 15.9999 8.25956 16H15.9168C16.5519 16 17.0672 15.4847 17.0672 14.8496V5.15039C17.0672 4.51526 16.5519 4 15.9168 4H8.29081ZM12.7859 7.41992C13.0788 7.12709 13.5536 7.12722 13.8465 7.41992C14.1394 7.71282 14.1394 8.18758 13.8465 8.48047L12.3269 9.99902L13.8475 11.5195C14.14 11.8124 14.1401 12.2873 13.8475 12.5801C13.5546 12.8729 13.0798 12.8727 12.7869 12.5801L11.2664 11.0596L9.74687 12.5801C9.45395 12.8727 8.97913 12.8729 8.68632 12.5801C8.3937 12.2873 8.39374 11.8124 8.68632 11.5195L10.2059 9.99902L8.6873 8.48047C8.3944 8.18758 8.3944 7.71282 8.6873 7.41992C8.98021 7.12722 9.45502 7.12709 9.74784 7.41992L11.2664 8.93848L12.7859 7.41992Z" fill="#1D1C1D"/>
</svg>
