<svg width="20" height="20" viewBox="0 0 20 20" fill="none" xmlns="http://www.w3.org/2000/svg">
<path d="M9.66016 2.58116C9.90883 2.45472 10.2117 2.47612 10.4424 2.64464L16.7441 7.25011H17.75C18.1642 7.25011 18.5 7.5859 18.5 8.00011C18.5 8.41432 18.1642 8.75011 17.75 8.75011H16.75V16.0001H17.75C18.1642 16.0001 18.5 16.3359 18.5 16.7501C18.5 17.1643 18.1642 17.5001 17.75 17.5001H2.25C1.83579 17.5001 1.5 17.1643 1.5 16.7501C1.5 16.3359 1.83579 16.0001 2.25 16.0001H3.25V8.75011H2.25C1.83579 8.75011 1.5 8.41432 1.5 8.00011C1.5 7.5859 1.83579 7.25011 2.25 7.25011H3.25586L9.55762 2.64464L9.66016 2.58116ZM4.75 16.0001H7.25V8.75011H4.75V16.0001ZM8.75 16.0001H11.25V8.75011H8.75V16.0001ZM12.75 16.0001H15.25V8.75011H12.75V16.0001ZM5.79688 7.25011H14.2031L10 4.17882L5.79688 7.25011Z" fill="#1D1C1D"/>
</svg>
