<svg width="20" height="20" viewBox="0 0 20 20" fill="none" xmlns="http://www.w3.org/2000/svg">
<path d="M7.75 3.75C8.7165 3.75 9.5 4.5335 9.5 5.5V14.5C9.5 15.4665 8.7165 16.25 7.75 16.25H3.75C2.7835 16.25 2 15.4665 2 14.5V5.5C2 4.5335 2.7835 3.75 3.75 3.75H7.75ZM13.75 3.75C14.7165 3.75 15.5 4.5335 15.5 5.5V14.75H17.75C18.1642 14.75 18.5 15.0858 18.5 15.5C18.5 15.9142 18.1642 16.25 17.75 16.25H11.75C11.3358 16.25 11 15.9142 11 15.5C11 15.0858 11.3358 14.75 11.75 14.75H14V5.5C14 5.36193 13.8881 5.25 13.75 5.25H11.75C11.3358 5.25 11 4.91421 11 4.5C11 4.08579 11.3358 3.75 11.75 3.75H13.75ZM3.75 5.25C3.61193 5.25 3.5 5.36193 3.5 5.5V14.5C3.5 14.6381 3.61193 14.75 3.75 14.75H7.75C7.88807 14.75 8 14.6381 8 14.5V5.5C8 5.36193 7.88807 5.25 7.75 5.25H3.75Z" fill="#1D1C1D"/>
</svg>
