<svg width="20" height="20" viewBox="0 0 20 20" fill="none" xmlns="http://www.w3.org/2000/svg">
<path d="M3.25 11.75C3.25 13.4069 4.59315 14.75 6.25 14.75H15.25V15.5C15.25 16.6046 14.3546 17.5 13.25 17.5H3.25C2.14543 17.5 1.25 16.6046 1.25 15.5V10.5C1.25 9.39543 2.14543 8.5 3.25 8.5V11.75ZM10.25 2.5C10.8023 2.5 11.25 2.94772 11.25 3.5V4.25H12.25V3.5C12.25 2.94772 12.6977 2.5 13.25 2.5H15.75C16.3023 2.5 16.75 2.94772 16.75 3.5V4.25C17.8546 4.25 18.75 5.14543 18.75 6.25V11.25C18.75 12.3546 17.8546 13.25 16.75 13.25H6.75C5.64543 13.25 4.75 12.3546 4.75 11.25V6.25C4.75 5.14543 5.64543 4.25 6.75 4.25V3.5C6.75 2.94772 7.19772 2.5 7.75 2.5H10.25Z" fill="#1D1C1D"/>
</svg>
