<svg width="20" height="20" viewBox="0 0 20 20" fill="none" xmlns="http://www.w3.org/2000/svg">
<path fill-rule="evenodd" clip-rule="evenodd" d="M5 6.25C5 5.14543 5.89543 4.25 7 4.25V3.5C7 2.94772 7.44772 2.5 8 2.5H10.5C10.7362 2.5 10.9533 2.58191 11.1244 2.71889C11.3534 2.90214 11.5 3.18395 11.5 3.5V4.25H12.5V3.5C12.5 3.18395 12.6466 2.90214 12.8756 2.71889C13.0467 2.58191 13.2638 2.5 13.5 2.5H16C16.5523 2.5 17 2.94772 17 3.5V4.25C18.1046 4.25 19 5.14543 19 6.25V11.25C19 12.3546 18.1046 13.25 17 13.25H7C5.89543 13.25 5 12.3546 5 11.25V6.25ZM15.5 5.75H17C17.2761 5.75 17.5 5.97386 17.5 6.25V11.25C17.5 11.5261 17.2761 11.75 17 11.75H7C6.72386 11.75 6.5 11.5261 6.5 11.25V6.25C6.5 5.97386 6.72386 5.75 7 5.75H8.5V4H10V5.75H14V4H15.5V5.75Z" fill="#1D1C1D"/>
<path d="M2.87069 7.75C2.11368 7.75 1.5 8.36368 1.5 9.12069V15.25C1.5 16.4926 2.50736 17.5 3.75 17.5H14.2162C15.3394 17.5 16.25 16.5894 16.25 15.4662C16.25 15.052 15.9142 14.7162 15.5 14.7162C15.0858 14.7162 14.75 15.052 14.75 15.4662C14.75 15.761 14.511 16 14.2162 16H3.75C3.33579 16 3 15.6642 3 15.25V9.23889C3.35259 9.17762 3.62069 8.87012 3.62069 8.5C3.62069 8.08579 3.2849 7.75 2.87069 7.75Z" fill="#1D1C1D"/>
</svg>
