<svg width="20" height="20" viewBox="0 0 20 20" fill="none" xmlns="http://www.w3.org/2000/svg">
<path d="M8.67441 1.16371C8.95699 1.04888 9.28086 1.11617 9.49374 1.33461L13.4937 5.44105C13.7791 5.73426 13.7771 6.2024 13.4889 6.49281L9.9537 10.0543L13.4889 13.6149L13.5396 13.6725C13.7782 13.9672 13.7607 14.4006 13.4869 14.6745L9.48691 18.6745C9.27245 18.8886 8.94958 18.9525 8.66953 18.8366C8.38957 18.7206 8.20696 18.4472 8.20663 18.1442V11.8131L4.48886 15.5582C4.19716 15.8517 3.72219 15.8534 3.42831 15.5621C3.13444 15.2704 3.13277 14.7946 3.42441 14.5006L7.83945 10.0543L3.42441 5.61C3.13278 5.31615 3.13468 4.84129 3.42831 4.54945C3.72223 4.25781 4.19706 4.25954 4.48886 4.55336L8.20663 8.29652V1.85804C8.20667 1.55299 8.39184 1.27865 8.67441 1.16371ZM9.70663 16.3336L11.898 14.1422L9.70663 11.9362V16.3336ZM14.4293 7.50355C14.7032 7.19323 15.1773 7.16365 15.4879 7.43715C16.2651 8.1231 16.7573 9.12967 16.7574 10.2496C16.7574 11.3698 16.2652 12.3761 15.4879 13.0621C15.1773 13.336 14.7033 13.3062 14.4293 12.9957C14.1558 12.6852 14.1854 12.2111 14.4957 11.9371C14.9639 11.5238 15.2574 10.9215 15.2574 10.2496C15.2573 9.578 14.9638 8.97544 14.4957 8.56215C14.1856 8.28805 14.1555 7.81397 14.4293 7.50355ZM13.4312 8.94496C13.6421 8.94496 13.9818 9.5778 13.982 10.2516C13.982 10.9256 13.6383 11.5582 13.4312 11.5582C13.2246 11.5581 13.1844 11.4128 12.0016 10.2516C13.196 9.05889 13.2207 8.9451 13.4312 8.94496ZM9.70663 8.17347L11.9049 5.95863L9.70663 3.70277V8.17347Z" fill="#1D1C1D"/>
</svg>
