<svg width="20" height="20" viewBox="0 0 20 20" fill="none" xmlns="http://www.w3.org/2000/svg">
<path d="M10.2179 1.16273C10.5004 1.04791 10.8243 1.1152 11.0372 1.33363L15.0372 5.44008C15.3226 5.73328 15.3206 6.20143 15.0323 6.49183L11.4972 10.0534L15.0323 13.6139L15.0831 13.6715C15.3216 13.9662 15.3042 14.3996 15.0304 14.6735L11.0304 18.6735C10.8159 18.8876 10.493 18.9515 10.213 18.8356C9.93303 18.7196 9.75042 18.4462 9.75009 18.1432V11.8121L6.03232 15.5573C5.74062 15.8507 5.26564 15.8524 4.97177 15.5612C4.67789 15.2694 4.67623 14.7936 4.96787 14.4996L9.3829 10.0534L4.96787 5.60902C4.67623 5.31518 4.67814 4.84031 4.97177 4.54847C5.26569 4.25683 5.74051 4.25857 6.03232 4.55238L9.75009 8.29554V1.85707C9.75013 1.55201 9.93529 1.27767 10.2179 1.16273ZM11.2501 16.3327L13.4415 14.1412L11.2501 11.9352V16.3327ZM11.2501 8.1725L13.4483 5.95765L11.2501 3.70179V8.1725Z" fill="#1D1C1D"/>
</svg>
