<svg width="20" height="20" viewBox="0 0 20 20" fill="none" xmlns="http://www.w3.org/2000/svg">
<path d="M11.0928 2C13.092 2.00002 14.739 3.50167 14.9707 5.43848C14.989 5.55226 15 5.66939 15 5.79004C15 5.80529 14.9984 5.82076 14.998 5.83594C14.9985 5.85966 15 5.88341 15 5.90723C15 7.18069 14.3902 8.31109 13.4473 9.02441C15.2276 9.66791 16.5 11.3727 16.5 13.375C16.5 15.9293 14.4293 18 11.875 18H4.75C4.33579 18 4 17.6642 4 17.25V9.5C4 9.42385 4.01503 9.35148 4.03613 9.28223C4.01505 9.21299 4 9.14058 4 9.06445V2.75C4 2.33579 4.33579 2 4.75 2H11.0928ZM6.5 15.75H10.75C12.2688 15.75 13.5 14.5188 13.5 13C13.5 11.4812 12.2688 10.25 10.75 10.25H6.5V15.75ZM6.5 8.31445H10.0928C11.2842 8.31444 12.25 7.34864 12.25 6.15723C12.25 4.96583 11.2842 4.00002 10.0928 4H6.5V8.31445Z" fill="#1D1C1D"/>
</svg>
