<svg width="20" height="20" viewBox="0 0 20 20" fill="none" xmlns="http://www.w3.org/2000/svg">
<path d="M15.2444 1.5C15.518 1.5001 15.7709 1.64889 15.9026 1.88867C16.0342 2.12854 16.024 2.42147 15.8772 2.65234L13.1106 7H15.7923C17.3354 7.00029 18.0954 8.90195 16.9192 9.94629C14.2476 12.318 9.90124 16.1363 7.5784 18.1748C6.57517 19.0552 5.12235 17.9567 5.61942 16.7637L7.39578 12.5H4.75809C3.14951 12.4999 2.06045 10.8608 2.68387 9.37793L5.80301 1.95898L5.85477 1.85938C5.98944 1.6387 6.23062 1.50013 6.49442 1.5H15.2444ZM4.06668 9.95898C3.85885 10.4533 4.22192 10.9999 4.75809 11H8.52078C8.77143 11.0001 9.00576 11.1254 9.14481 11.334C9.28375 11.5425 9.30939 11.8068 9.21317 12.0381L7.43582 16.3027C9.85946 14.1748 13.5527 10.9285 15.9231 8.82422C16.0453 8.71556 15.9853 8.50026 15.7923 8.5H11.7444C11.471 8.49986 11.2189 8.35095 11.0872 8.11133C10.9555 7.87152 10.9649 7.57853 11.1116 7.34766L13.8782 3H6.99246L4.06668 9.95898Z" fill="#1D1C1D"/>
</svg>
