<svg width="12" height="12" viewBox="0 0 12 12" fill="none" xmlns="http://www.w3.org/2000/svg">
<path d="M8 0.75C8.82843 0.75 9.5 1.42157 9.5 2.25V10.6289C9.49974 11.3042 8.67682 11.6354 8.20898 11.1484L6 8.84668L3.79102 11.1484C3.32319 11.6354 2.50026 11.3042 2.5 10.6289V2.25C2.5 1.42157 3.17157 0.75 4 0.75H8ZM4 1.75C3.72386 1.75 3.5 1.97386 3.5 2.25V10.0059L5.56738 7.85352L5.66211 7.77344C5.89875 7.61181 6.22587 7.63845 6.43262 7.85352L8.5 10.0059V2.25C8.5 1.97386 8.27614 1.75 8 1.75H4Z" fill="#1D1C1D"/>
</svg>
