<svg width="20" height="20" viewBox="0 0 20 20" fill="none" xmlns="http://www.w3.org/2000/svg">
<path d="M14.75 1.5C16.2688 1.5 17.5 2.73122 17.5 4.25V10C17.5 11.5188 16.2688 12.75 14.75 12.75H6.25C5.00736 12.75 4 13.7574 4 15C4 16.1046 4.89543 17 6 17H16.75C17.1642 17 17.5 17.3358 17.5 17.75C17.5 18.1642 17.1642 18.5 16.75 18.5H6C4.067 18.5 2.5 16.933 2.5 15V5.25C2.5 3.17893 4.17893 1.5 6.25 1.5H14.75ZM15.75 14.25C16.1642 14.25 16.5 14.5858 16.5 15C16.5 15.4142 16.1642 15.75 15.75 15.75H6.75C6.33579 15.75 6 15.4142 6 15C6 14.5858 6.33579 14.25 6.75 14.25H15.75ZM6.25 3C5.00736 3 4 4.00736 4 5.25V11.999C4.62669 11.5284 5.40595 11.25 6.25 11.25H14.75C15.4404 11.25 16 10.6904 16 10V4.25C16 3.55964 15.4404 3 14.75 3H6.25ZM12 4.5C12.4142 4.5 12.75 4.83579 12.75 5.25C12.75 5.66421 12.4142 6 12 6H8C7.58579 6 7.25 5.66421 7.25 5.25C7.25 4.83579 7.58579 4.5 8 4.5H12Z" fill="#1D1C1D"/>
</svg>
