<svg width="20" height="20" viewBox="0 0 20 20" fill="none" xmlns="http://www.w3.org/2000/svg">
<path d="M13 1.5C14.5188 1.5 15.75 2.73122 15.75 4.25V17.043C15.7499 18.1565 14.4037 18.7141 13.6162 17.9268L10 14.3105L6.38379 17.9268C5.59634 18.7141 4.25006 18.1565 4.25 17.043V4.25C4.25 2.73122 5.48122 1.5 7 1.5H13ZM7 3C6.30964 3 5.75 3.55964 5.75 4.25V16.4395L9.39941 12.79L9.46387 12.7324C9.79758 12.4603 10.2894 12.4792 10.6006 12.79L14.25 16.4395V4.25C14.25 3.55964 13.6904 3 13 3H7Z" fill="#1D1C1D"/>
</svg>
