<svg width="20" height="20" viewBox="0 0 20 20" fill="none" xmlns="http://www.w3.org/2000/svg">
<path d="M10 1C10.8284 1 11.5 1.67157 11.5 2.5C11.5 3.05495 11.198 3.5384 10.75 3.79785V5H14.75C16.2688 5 17.5 6.23122 17.5 7.75V15.75C17.5 17.2688 16.2688 18.5 14.75 18.5H5.25C3.73122 18.5 2.5 17.2688 2.5 15.75V7.75C2.5 6.23122 3.73122 5 5.25 5H9.25V3.79785C8.802 3.5384 8.5 3.05495 8.5 2.5C8.5 1.67157 9.17157 1 10 1ZM5.25 6.5C4.55964 6.5 4 7.05964 4 7.75V15.75C4 16.4404 4.55964 17 5.25 17H14.75C15.4404 17 16 16.4404 16 15.75V7.75C16 7.05964 15.4404 6.5 14.75 6.5H5.25ZM12.4004 12.5C12.8515 12.5 13.2083 12.9012 13.0596 13.3271C12.5535 14.7758 11.2766 15.5 10 15.5C8.72339 15.5 7.44648 14.7758 6.94043 13.3271C6.7917 12.9012 7.14849 12.5 7.59961 12.5H12.4004ZM8 9C8.55228 9 9 9.44772 9 10C9 10.5523 8.55228 11 8 11C7.44772 11 7 10.5523 7 10C7 9.44772 7.44772 9 8 9ZM12 9C12.5523 9 13 9.44772 13 10C13 10.5523 12.5523 11 12 11C11.4477 11 11 10.5523 11 10C11 9.44772 11.4477 9 12 9Z" fill="#1D1C1D"/>
</svg>
