<svg width="20" height="20" viewBox="0 0 20 20" fill="none" xmlns="http://www.w3.org/2000/svg">
<path d="M13.8934 5.35254C14.4802 5.37696 16.1275 5.58958 17.1854 7.1377C17.0981 7.19171 15.2198 8.28671 15.2401 10.5625C15.2653 13.2831 17.6242 14.1913 17.6561 14.2051C17.6352 14.2722 17.2774 15.4983 16.411 16.7646C15.6607 17.8612 14.8817 18.9539 13.6551 18.9766C12.4499 18.9987 12.0623 18.2617 10.6844 18.2617C9.30691 18.2617 8.87608 18.9542 7.73519 18.999C6.55137 19.0436 5.64979 17.8131 4.89339 16.7207C3.34764 14.486 2.16661 10.4055 3.75276 7.65137C4.54076 6.28378 5.94904 5.41772 7.47737 5.39551C8.6399 5.37347 9.73741 6.17773 10.4481 6.17773C11.1584 6.17751 12.4917 5.2106 13.8934 5.35254ZM13.9119 1C14.0273 2.05388 13.604 3.11316 12.9754 3.87402C12.3469 4.63529 11.3153 5.22641 10.3055 5.14844C10.1679 4.11553 10.6773 3.03768 11.2596 2.36426C11.9095 1.60381 13.0059 1.03642 13.9119 1Z" fill="#1D1C1D"/>
</svg>
