<svg width="20" height="20" viewBox="0 0 20 20" fill="none" xmlns="http://www.w3.org/2000/svg">
<path d="M17.4608 13.1787C18.036 13.1787 18.3974 13.7998 18.1131 14.2998L16.5087 17.1211C16.3753 17.3554 16.1259 17.5 15.8563 17.5H7.57506C6.99578 17.4998 6.63573 16.871 6.92857 16.3711L8.58092 13.5498C8.7155 13.3201 8.96212 13.1787 9.22838 13.1787H17.4608ZM6.21275 4.79395C6.50133 4.29351 7.22394 4.29353 7.51256 4.79395L9.15318 7.63867C9.28675 7.87042 9.2867 8.15592 9.15318 8.3877L4.90611 15.7529C4.61749 16.2528 3.89601 16.2527 3.60728 15.7529L1.96568 12.9082C1.83195 12.6763 1.83196 12.3901 1.96568 12.1582L6.21275 4.79395ZM13.3778 2.5C13.6459 2.50017 13.8935 2.64357 14.0272 2.87598L18.1044 9.96875C18.3917 10.4687 18.0306 11.0927 17.454 11.0928H14.1942C13.9265 11.0926 13.6787 10.9496 13.5448 10.7178L9.4481 3.625C9.1594 3.12503 9.52015 2.50002 10.0975 2.5H13.3778Z" fill="#1D1C1D"/>
</svg>
