<svg width="20" height="20" viewBox="0 0 20 20" fill="none" xmlns="http://www.w3.org/2000/svg">
<path d="M10 0.951172C14.9725 0.951173 19 4.97867 19 9.95117C19 14.9237 14.9725 18.9512 10 18.9512C9.07755 18.9512 8.17769 18.8046 7.33398 18.5459C7.70519 17.9497 8.26769 16.9826 8.45898 16.1953C8.56023 15.7678 9.00977 14.0459 9.00977 14.0459C9.30227 14.6084 10.1688 15.0811 11.0801 15.0811C13.7912 15.081 15.7489 12.5838 15.749 9.49023C15.749 6.50898 13.3184 4.29199 10.2021 4.29199C6.30993 4.29215 4.25103 6.89119 4.25098 9.7373C4.25098 11.0535 4.96005 12.6958 6.08496 13.2246C6.25363 13.3033 6.33292 13.2701 6.37793 13.1016C6.41168 12.9778 6.5575 12.3696 6.625 12.0771C6.64741 11.9873 6.63579 11.9083 6.56836 11.8184C6.21977 11.3571 5.89364 10.5474 5.89355 9.77148C5.89355 7.78034 7.40108 5.8674 9.96582 5.86719C12.1707 5.86719 13.7235 7.36356 13.7236 9.52344C13.7236 11.9534 12.4862 13.6416 10.8887 13.6416C10.0113 13.6416 9.3592 12.9101 9.56152 12.0215C9.80901 10.9528 10.3036 9.79383 10.3037 9.01758C10.3037 8.33147 9.93265 7.75805 9.16797 7.75781C8.26808 7.75781 7.53632 8.69094 7.53613 9.93945C7.53613 10.7312 7.80197 11.2689 7.80664 11.2783C7.80664 11.2783 6.90652 15.0476 6.74902 15.7451C6.56909 16.5325 6.63612 17.6233 6.71484 18.332C3.37374 17.0157 1 13.7648 1 9.95117C1 4.97867 5.0275 0.951172 10 0.951172Z" fill="#1D1C1D"/>
</svg>
