<svg width="20" height="20" viewBox="0 0 20 20" fill="none" xmlns="http://www.w3.org/2000/svg">
<path d="M10 1C14.9659 1 19 5.03412 19 10C19 14.9659 14.9659 19 10 19C5.03412 19 1 14.9659 1 10C1 5.03412 5.03412 1 10 1ZM13.9385 13.208C11.5668 11.7576 8.62295 11.4187 5.20312 12.2021C4.89628 12.2764 4.70621 12.573 4.78027 12.8799C4.8438 13.1764 5.1508 13.3672 5.44727 13.3037C8.58131 12.5838 11.2388 12.8801 13.3564 14.1719C13.6211 14.3307 13.9711 14.2461 14.1299 13.9814C14.2887 13.7167 14.2032 13.3668 13.9385 13.208ZM14.998 10.5615C12.2239 8.85682 8.15751 8.37971 4.88574 9.375C4.5153 9.48087 4.3037 9.8727 4.41992 10.2432C4.53639 10.6138 4.92824 10.8255 5.29883 10.709C8.15753 9.84083 11.8419 10.2756 14.2666 11.7578C14.5948 11.9696 15.0293 11.8634 15.2305 11.5352C15.4315 11.1965 15.3259 10.7734 14.998 10.5615ZM16.1836 7.5332C12.8484 5.55324 7.55442 5.3627 4.37793 6.32617C3.93326 6.46381 3.67883 6.92935 3.81641 7.37402C3.954 7.81857 4.4197 8.07286 4.86426 7.93555C7.63837 7.09908 12.425 7.25752 15.3262 8.9834C15.7179 9.21619 16.2369 9.08971 16.4805 8.6875C16.7134 8.2852 16.5858 7.76619 16.1836 7.5332Z" fill="#1D1C1D"/>
</svg>
