<svg width="20" height="20" viewBox="0 0 20 20" fill="none" xmlns="http://www.w3.org/2000/svg">
<path d="M2.97656 4C3.45249 4.00013 3.66687 4.25789 3.73828 4.53906L5.88086 11.9219C5.9761 12.1562 6.14318 13.0937 6.16699 13.1875C6.19081 12.9062 6.42894 12.1094 6.47656 11.9219L8.97656 4.53906C9.14324 4.11729 9.4526 4 9.73828 4H10.4287C10.881 4.00006 11.119 4.28128 11.1904 4.53906L13.667 11.9219L14 13.1641C14.0952 12.6953 14.1427 12.2969 14.2617 11.9219L16.4043 4.53906C16.4757 4.1875 16.7622 4 17.167 4H19L15.0957 16.375H12.9766L10.2383 7.91406C10.143 7.70312 10.0949 7.46875 10.0234 7.1875C9.99961 7.37499 9.88099 7.63284 9.80957 7.91406L7.02344 16.375H4.9043L1 4H2.97656Z" fill="#1D1C1D"/>
</svg>
