<svg width="20" height="20" viewBox="0 0 20 20" fill="none" xmlns="http://www.w3.org/2000/svg">
<path d="M10.5 5C12.1569 5 13.5 6.34315 13.5 8V13C13.5 13.5523 13.0523 14 12.5 14H4.5C2.84315 14 1.5 12.6569 1.5 11V6C1.5 5.44772 1.94772 5 2.5 5H10.5ZM17.6855 5.16113C18.0123 4.89633 18.4997 5.12831 18.5 5.54883V13.4512C18.4998 13.8718 18.0123 14.1038 17.6855 13.8389L14.8701 11.5566C14.6361 11.3668 14.5 11.0816 14.5 10.7803V8.21973C14.5001 7.91837 14.6361 7.6332 14.8701 7.44336L17.6855 5.16113Z" fill="#1D1C1D"/>
</svg>
