<svg width="20" height="20" viewBox="0 0 20 20" fill="none" xmlns="http://www.w3.org/2000/svg">
<path d="M15.8125 5.4873C16.2267 5.4873 16.5624 5.82315 16.5625 6.2373V15.4209C16.5625 15.5164 16.5433 15.6074 16.5107 15.6914H17.75C18.1642 15.6914 18.5 16.0272 18.5 16.4414C18.5 16.8556 18.1642 17.1914 17.75 17.1914H2.25C1.83579 17.1914 1.5 16.8556 1.5 16.4414C1.5 16.0272 1.83579 15.6914 2.25 15.6914H15.1143C15.0817 15.6074 15.0625 15.5164 15.0625 15.4209V6.2373C15.0626 5.82315 15.3983 5.4873 15.8125 5.4873ZM17.75 3.19141C18.1642 3.19141 18.5 3.52719 18.5 3.94141C18.5 4.35562 18.1642 4.69141 17.75 4.69141H4.9375V14.4004C4.9375 14.8146 4.60171 15.1504 4.1875 15.1504C3.77329 15.1504 3.4375 14.8146 3.4375 14.4004V4.69141H2.25C1.83579 4.69141 1.5 4.35562 1.5 3.94141C1.5 3.52719 1.83579 3.19141 2.25 3.19141H17.75ZM7.25 7.9209C7.25016 7.20944 7.96429 6.74073 8.60254 6.98438L8.72852 7.04297L12.9199 9.3291C13.6435 9.72413 13.605 10.776 12.8545 11.1172L8.66406 13.0225C8.00196 13.3234 7.25 12.8386 7.25 12.1113V7.9209ZM8.75 11.334L11.3213 10.166L8.75 8.7627V11.334Z" fill="#1D1C1D"/>
</svg>
