<svg width="20" height="20" viewBox="0 0 20 20" fill="none" xmlns="http://www.w3.org/2000/svg">
<path d="M10 2C14.6856 2 18.4999 5.09181 18.5 8.89551C18.5 10.4148 17.9052 11.7962 16.6729 13.1455C14.888 15.2173 10.9247 17.6819 10 18.0752C9.09748 18.4574 9.22402 17.8321 9.2666 17.6191L9.38379 16.8857C9.41565 16.6734 9.44714 16.3336 9.3623 16.1211C9.26671 15.8874 8.88463 15.7592 8.6084 15.7061C4.5284 15.1642 1.5 12.3061 1.5 8.89551C1.50008 5.09181 5.31442 2 10 2ZM4.98535 6.8877C4.74098 6.8877 4.53906 7.08961 4.53906 7.33398V10.7129C4.53928 10.9571 4.74111 11.1592 4.98535 11.1592H6.6748C6.91886 11.1589 7.12088 10.9569 7.12109 10.7129C7.12109 10.4687 6.91899 10.2668 6.6748 10.2666H5.43164V7.33398C5.43164 7.08973 5.22957 6.88789 4.98535 6.8877ZM7.9707 6.8877C7.72633 6.8877 7.52441 7.08961 7.52441 7.33398V10.7129C7.52463 10.9571 7.72646 11.1592 7.9707 11.1592C8.21491 11.1591 8.41678 10.9571 8.41699 10.7129V7.33398C8.41699 7.08964 8.21504 6.88774 7.9707 6.8877ZM12.04 6.8877C11.7957 6.8877 11.5938 7.08961 11.5938 7.33398V9.42676L9.8623 7.06836C9.7774 6.96223 9.64966 6.88786 9.51172 6.8877C9.45859 6.8877 9.41543 6.89855 9.3623 6.90918C9.18186 6.97301 9.06543 7.14284 9.06543 7.33398V10.7129C9.06563 10.9571 9.25685 11.1592 9.51172 11.1592C9.75574 11.1589 9.94706 10.9569 9.94727 10.7129V8.62988L11.6787 10.9785C11.7637 11.0952 11.902 11.1592 12.04 11.1592C12.0824 11.1592 12.1353 11.1483 12.1777 11.1377C12.3582 11.074 12.4862 10.904 12.4863 10.7129V7.33398C12.4863 7.08962 12.2844 6.88772 12.04 6.8877ZM13.5273 6.8877C13.283 6.88778 13.0811 7.08966 13.0811 7.33398V10.7129C13.0813 10.957 13.2832 11.1591 13.5273 11.1592H15.2168C15.461 11.1592 15.6629 10.9571 15.6631 10.7129C15.6631 10.4685 15.4612 10.2666 15.2168 10.2666H13.9736V9.46973H15.2168C15.4611 9.46973 15.6629 9.26767 15.6631 9.02344C15.6631 8.77906 15.4612 8.57715 15.2168 8.57715H13.9736V7.78027H15.2168C15.4611 7.78027 15.663 7.57825 15.6631 7.33398C15.6631 7.08961 15.4612 6.8877 15.2168 6.8877H13.5273Z" fill="#1D1C1D"/>
</svg>
