<svg width="20" height="20" viewBox="0 0 20 20" fill="none" xmlns="http://www.w3.org/2000/svg">
<path d="M11.6777 1.60938C16.9342 1.60939 18.5 3.06377 18.5 8.32031V11.6748C18.5 16.9313 16.9342 18.3857 11.6777 18.3857H8.32227C3.06577 18.3857 1.5 16.9313 1.5 11.6748V8.32031C1.5 3.06377 3.06577 1.60939 8.32227 1.60938H11.6777ZM8.32227 3.11914C3.96051 3.11915 3.03223 3.95851 3.03223 8.32031V11.6748C3.03223 16.0366 3.96051 16.876 8.32227 16.876H11.6777C16.0395 16.876 16.9678 16.0366 16.9678 11.6748V8.32031C16.9678 3.95851 16.0395 3.11915 11.6777 3.11914H8.32227ZM10 5.69141C12.3821 5.69141 14.3054 7.61505 14.3057 9.99707C14.3057 12.3681 12.3822 14.3037 10 14.3037C7.61776 14.3037 5.69434 12.3681 5.69434 9.99707C5.69458 7.61505 7.61792 5.69141 10 5.69141ZM10 7.20117C8.45673 7.20117 7.20435 8.45386 7.2041 9.99707C7.2041 11.5405 8.45658 12.7939 10 12.7939C11.5434 12.7939 12.7959 11.5405 12.7959 9.99707C12.7956 8.45386 11.5433 7.20117 10 7.20117ZM14.5518 4.52832C15.111 4.52832 15.5586 4.97595 15.5586 5.53516C15.5585 6.09431 15.1109 6.54199 14.5518 6.54199C13.9927 6.54188 13.545 6.09424 13.5449 5.53516C13.5449 4.97602 13.9926 4.52843 14.5518 4.52832Z" fill="#1D1C1D"/>
</svg>
