<svg width="20" height="20" viewBox="0 0 20 20" fill="none" xmlns="http://www.w3.org/2000/svg">
<path d="M15.3389 7.15918C16.5336 7.15918 17.5292 7.53216 18.4004 8.30371L17.9023 9.10059C17.7281 9.32444 17.504 9.49832 17.0811 9.27441C16.6083 9.05048 15.9863 8.80187 15.3643 8.80176C14.5429 8.80176 13.9199 9.12534 13.9199 9.82227C13.92 10.4693 14.6669 10.6935 15.3887 10.9424C17.2802 11.5895 18.4998 12.0622 18.5 13.6797C18.5 15.7206 16.7827 16.7666 14.7666 16.7666C13.6465 16.7666 12.3516 16.3185 11.5303 15.6465L12.0537 14.7754C12.1533 14.5016 12.5515 14.3273 13.0244 14.5762C13.7709 14.9245 13.9452 15.1982 14.8906 15.1982C15.7368 15.1982 16.409 14.8002 16.4092 14.0537C16.4092 13.1577 15.2894 13.1076 14.0947 12.6348C12.7507 12.2365 11.8047 11.5393 11.8047 9.99609C11.8048 8.12951 13.3478 7.1592 15.3389 7.15918ZM5.78125 3.5C8.768 3.50004 10.8838 4.74464 10.8838 7.68164C10.8837 10.5439 8.79286 11.9873 5.78125 11.9873H3.88965V16.6172H1.5V3.5H5.78125ZM3.88965 10.0957H5.78125C7.29946 10.0957 8.4443 9.39895 8.44434 7.68164C8.44434 6.18827 7.54836 5.36723 5.78125 5.36719H3.88965V10.0957Z" fill="#1D1C1D"/>
</svg>
