<svg width="20" height="20" viewBox="0 0 20 20" fill="none" xmlns="http://www.w3.org/2000/svg">
<path d="M5.2002 10.4707C7.24109 10.4707 8.90137 12.1085 8.90137 14.1494C8.90118 16.1902 7.24098 17.8496 5.2002 17.8496C3.15957 17.8494 1.50019 16.19 1.5 14.1494C1.5 12.1086 3.15945 10.4709 5.2002 10.4707ZM14.7998 10.4482C16.8405 10.4484 18.5 12.1086 18.5 14.1494C18.4998 16.19 16.8404 17.8494 14.7998 17.8496C12.759 17.8496 11.0988 16.1902 11.0986 14.1494C11.0986 12.1085 12.7589 10.4482 14.7998 10.4482ZM10 2.15039C12.0408 2.15039 13.7 3.80984 13.7002 5.85059C13.7002 7.89148 12.0409 9.5293 10 9.5293C7.9591 9.5293 6.2998 7.89148 6.2998 5.85059C6.29998 3.80984 7.95921 2.15039 10 2.15039Z" fill="#1D1C1D"/>
</svg>
