<svg width="20" height="20" viewBox="0 0 20 20" fill="none" xmlns="http://www.w3.org/2000/svg">
<path d="M14.751 16.9697H12.7734C12.4653 16.9697 12.1053 16.8673 11.9512 16.4053L10.9248 13.6572H5.32617L4.29883 16.4053C4.19597 16.6108 3.93931 16.9696 3.47754 16.9697H1.5L6.81543 3.41113H9.40918L14.751 16.9697ZM18.2178 16.9697H15.752V7.36523H18.2178V16.9697ZM8.125 5.72168C8.04798 5.9784 7.68879 7.15925 7.58594 7.36523L5.96875 11.8594H10.2822L8.61328 7.33984C8.43353 6.77491 8.30475 6.4407 8.125 5.72168ZM16.959 3C17.8321 3 18.5 3.6679 18.5 4.54102C18.4999 5.38834 17.832 6.08203 16.959 6.08203C16.1117 6.08191 15.4181 5.38827 15.418 4.54102C15.418 3.66798 16.1117 3.00012 16.959 3Z" fill="#1D1C1D"/>
</svg>
