<svg width="20" height="20" viewBox="0 0 20 20" fill="none" xmlns="http://www.w3.org/2000/svg">
<path fill-rule="evenodd" clip-rule="evenodd" d="M11.2846 2.36283H13.4395C13.6472 3.4588 14.3128 4.39922 15.235 4.98677L15.2359 4.9879C15.8779 5.39676 16.6433 5.6353 17.4649 5.6353V6.27564L17.465 8.51142C15.9388 8.51142 14.5244 8.03425 13.37 7.22444V13.0702C13.37 15.9897 10.9398 18.3649 7.95241 18.3649C6.7981 18.3649 5.72764 18.0091 4.84772 17.4053L4.84622 17.4037C3.44998 16.4451 2.53497 14.8604 2.53497 13.0697C2.53497 10.1502 4.96525 7.77501 7.9526 7.77501C8.20046 7.77501 8.44342 7.79496 8.68262 7.82667V8.50813L8.68252 10.7639C8.45142 10.6932 8.20714 10.6521 7.95241 10.6521C6.58817 10.6521 5.47828 11.7369 5.47828 13.0702C5.47828 13.9987 6.01727 14.8054 6.80479 15.2104C7.14815 15.387 7.53819 15.4883 7.95232 15.4883C9.28513 15.4883 10.3723 14.4522 10.4218 13.1612L10.4265 1.63281H13.37C13.37 1.88217 13.3946 2.12589 13.4395 2.36283H11.2846Z" fill="#1D1C1D"/>
</svg>
