<svg width="20" height="20" viewBox="0 0 20 20" fill="none" xmlns="http://www.w3.org/2000/svg">
<path d="M15.3125 1.45117C17.0729 1.45117 18.5 2.87826 18.5 4.63867V15.2637C18.5 17.0241 17.0729 18.4512 15.3125 18.4512H4.6875C2.92709 18.4512 1.5 17.0241 1.5 15.2637V4.63867C1.5 2.87826 2.92709 1.45117 4.6875 1.45117H15.3125ZM7.07812 7.82617C5.90452 7.82617 4.95313 8.77757 4.95312 9.95117C4.95313 11.1248 5.90452 12.0762 7.07812 12.0762C8.25173 12.0762 9.20312 11.1248 9.20312 9.95117C9.20312 8.77757 8.25173 7.82617 7.07812 7.82617ZM12.9219 7.82617C11.7483 7.82617 10.7969 8.77757 10.7969 9.95117C10.7969 11.1248 11.7483 12.0762 12.9219 12.0762C14.0955 12.0762 15.0469 11.1248 15.0469 9.95117C15.0469 8.77757 14.0955 7.82617 12.9219 7.82617Z" fill="#1D1C1D"/>
</svg>
