<svg width="20" height="20" viewBox="0 0 20 20" fill="none" xmlns="http://www.w3.org/2000/svg">
<path d="M9.99902 1C14.9696 1 19 5.02983 19 10.001C18.9998 13.9757 16.4236 17.3466 12.8506 18.5391C12.394 18.6269 12.2316 18.3471 12.2314 18.1064C12.2314 17.8114 12.2422 16.8407 12.2422 15.6377C12.2422 14.7983 11.9549 14.2486 11.6318 13.9707C13.6367 13.7479 15.7412 12.9866 15.7412 9.5293C15.7412 8.54692 15.3922 7.74333 14.8154 7.11426C14.908 6.88633 15.2175 5.97136 14.7266 4.73242C14.7266 4.73242 13.972 4.49081 12.2539 5.65527C11.5351 5.45576 10.7651 5.35597 10.001 5.35254C9.23557 5.35593 8.46493 5.45572 7.74707 5.65527C6.0379 4.49761 5.28117 4.72969 5.27246 4.73242C4.78289 5.97139 5.09198 6.88636 5.18457 7.11426C4.60893 7.74333 4.25787 8.54692 4.25781 9.5293C4.25781 12.9781 6.35895 13.7504 8.35742 13.9775C8.10032 14.2025 7.86791 14.5991 7.78613 15.1807C7.27332 15.411 5.96985 15.808 5.16699 14.4326C5.16024 14.4204 4.6848 13.5691 3.78809 13.5059C3.78006 13.5058 2.9132 13.4968 3.72656 14.0527C3.73997 14.0591 4.32108 14.3415 4.72559 15.3691C4.72846 15.3786 5.26113 17.1176 7.75781 16.5752C7.76216 17.3263 7.76953 17.8928 7.76953 18.1064C7.76942 18.3449 7.60509 18.6225 7.15527 18.54C3.57873 17.3498 1.00018 13.9768 1 10.001C1 5.02998 5.02968 1.00023 9.99902 1Z" fill="#1D1C1D"/>
</svg>
