<svg width="20" height="20" viewBox="0 0 20 20" fill="none" xmlns="http://www.w3.org/2000/svg">
<path d="M14.9541 6.71797V13.7619C14.9541 14.5194 14.3535 15.1301 13.6074 15.1301H13.5547V17.9162C13.5547 18.5148 13.0677 19.0002 12.4678 19.0002C11.8681 19 11.3818 18.5147 11.3818 17.9162V15.1301H8.6543V17.9162C8.6543 18.5148 8.16726 19.0002 7.56738 19.0002C6.96777 19 6.48145 18.5147 6.48145 17.9162V15.1301H6.42871C5.68269 15.1301 5.08105 14.5195 5.08105 13.7619V6.71797C5.08106 6.67618 5.08433 6.63483 5.08789 6.59394H14.9492C14.9527 6.63469 14.9541 6.67617 14.9541 6.71797ZM3.33594 7.21992C3.93563 7.21992 4.4217 7.70547 4.42188 8.3039V12.9533C4.42188 13.5519 3.93574 14.0373 3.33594 14.0373C2.73617 14.0372 2.25 13.5517 2.25 12.9533V8.3039C2.25014 7.70559 2.73623 7.22006 3.33594 7.21992ZM16.7002 7.21992C17.2997 7.22014 17.786 7.70561 17.7861 8.3039V12.9533C17.7861 13.5518 17.2998 14.0371 16.7002 14.0373C16.1003 14.0373 15.6133 13.5518 15.6133 12.9533V8.3039C15.6135 7.70551 16.1004 7.21992 16.7002 7.21992ZM13.8896 1.37422C14.0972 1.01624 14.5558 0.893756 14.9141 1.10078C15.2723 1.30825 15.3956 1.76778 15.1885 2.12617L14.1553 3.9084C14.6268 4.55255 14.9046 5.31379 14.916 6.13105H5.12012C5.13153 5.31366 5.40841 4.55162 5.87988 3.90742L4.84863 2.12617C4.64123 1.7677 4.76368 1.30827 5.12207 1.10078C5.48048 0.893679 5.94005 1.01595 6.14746 1.37422L6.99414 2.83906C7.69198 2.36334 8.54259 2.04866 9.47168 1.95918H10.5635C11.4928 2.04863 12.343 2.36425 13.041 2.84004L13.8896 1.37422ZM7.99512 3.64277C7.68485 3.6437 7.43374 3.88914 7.43457 4.1916V4.19453C7.43549 4.49686 7.68794 4.74099 7.99805 4.74043C8.30848 4.73959 8.55951 4.49405 8.55859 4.1916V4.18867C8.55768 3.88607 8.30539 3.64193 7.99512 3.64277ZM12.1904 3.64277C11.8801 3.64361 11.6291 3.88908 11.6299 4.1916V4.19453C11.6308 4.49698 11.8831 4.74119 12.1934 4.74043C12.5037 4.73945 12.7548 4.49396 12.7539 4.1916V4.18867C12.7538 4.15861 12.749 4.1295 12.7441 4.10078C12.7069 4.03524 12.6783 3.96593 12.6621 3.89277C12.5615 3.74235 12.3883 3.64239 12.1904 3.64277Z" fill="#1D1C1D"/>
</svg>
