<svg width="20" height="20" viewBox="0 0 20 20" fill="none" xmlns="http://www.w3.org/2000/svg">
<path d="M17.2422 1.5C17.9333 1.5001 18.4998 2.04387 18.5 2.72363V17.2764C18.4998 17.9448 17.9333 18.4999 17.2422 18.5H2.75781C2.06669 18.4999 1.50021 17.9448 1.5 17.2764V2.72363C1.5002 2.04387 2.06669 1.5001 2.75781 1.5H17.2422ZM4.01562 15.9844H6.54297V7.86914H4.01562V15.9844ZM12.958 7.67676C11.734 7.67676 10.9181 8.3458 10.5781 8.98047H10.5439V7.86914H8.12988V15.9844H10.6465V11.9717C10.6465 10.9178 10.8388 9.88673 12.1533 9.88672C13.4453 9.88672 13.4678 11.0994 13.4678 12.04V15.9844H15.9844V11.541C15.9843 9.35384 15.5192 7.67676 12.958 7.67676ZM5.28516 3.83496C4.46924 3.83506 3.82324 4.49227 3.82324 5.29688C3.82335 6.11272 4.46931 6.76944 5.28516 6.76953C6.08975 6.76953 6.74696 6.11278 6.74707 5.29688C6.74707 4.49221 6.08982 3.83496 5.28516 3.83496Z" fill="#1D1C1D"/>
</svg>
