<svg width="20" height="20" viewBox="0 0 20 20" fill="none" xmlns="http://www.w3.org/2000/svg">
<path d="M3.46582 7.60449C4.24239 7.60449 4.96098 7.85403 5.46582 8.39551L5.07812 9.04199C5.01992 9.10445 4.96125 9.24978 4.74805 9.25C4.49562 9.25 4.02904 8.89551 3.48535 8.89551C3.21358 8.89553 2.80589 8.99998 2.80566 9.39551C2.80566 9.83301 3.44659 10.0003 4.16504 10.2295C4.84462 10.417 5.48535 10.9792 5.48535 11.875C5.48535 13.2498 4.39831 13.9998 3.07812 14C2.45684 14 1.44668 13.7086 1 13.2295L1.38867 12.542C1.5828 12.2504 1.87334 12.2088 2.08691 12.3545C2.55291 12.7086 2.63106 12.75 3.15527 12.75C3.54362 12.75 3.89355 12.5413 3.89355 12.208C3.89324 11.6667 3.11655 11.6043 2.53418 11.3545C1.71873 11.0004 1.17491 10.6251 1.1748 9.54199C1.1748 8.33372 2.10671 7.60456 3.46582 7.60449ZM7.19434 7.66699C7.40788 7.66704 7.64086 7.77089 7.67969 8L8.24316 10.792C8.32083 11.1253 8.43676 11.646 8.47559 12C8.55317 11.6254 8.7858 10.8974 8.80566 10.792L9.54395 8C9.60222 7.79173 9.83491 7.66702 9.99023 7.66699H10.748C10.9808 7.66716 11.1937 7.79188 11.252 8L11.9512 10.792C12.0676 11.2917 12.2043 11.7913 12.2432 12.0205C12.2626 11.8328 12.3398 11.3748 12.4756 10.792L13.1162 8C13.155 7.83333 13.3692 7.66699 13.5439 7.66699H14.8838L13.0781 13.8955H11.6602C11.4854 13.8955 11.408 13.7497 11.3691 13.583L10.5537 10.5C10.4955 10.3334 10.3594 9.83398 10.3398 9.66699C10.2816 9.91693 10.2426 10.2085 10.1455 10.5L9.31055 13.583C9.2523 13.7913 9.13558 13.8955 8.94141 13.8955H7.62109L5.81543 7.66699H7.19434ZM18.2432 5C18.418 5.00004 18.7478 5.02092 19 5.125L18.9805 6.02051C18.9805 6.16631 18.8641 6.35442 18.5342 6.35449C17.777 6.35449 17.6016 6.70826 17.6016 7.70801H18.9609V8.97949H17.6602V13.8955H15.9316V8.95801L15.5244 8.875C15.3691 8.85417 15.1164 8.75007 15.1162 8.41699V7.70801H15.9316C15.9317 6.04153 16.5345 5 18.2432 5Z" fill="#1D1C1D"/>
</svg>
