<svg width="20" height="20" viewBox="0 0 20 20" fill="none" xmlns="http://www.w3.org/2000/svg">
<path d="M13.4444 5.92543C12.5035 5.0418 11.3254 4.58362 9.9999 4.58362C7.65998 4.58362 5.67185 6.16262 4.95998 8.2898C4.77998 8.8298 4.67362 9.40255 4.67362 9.99982C4.67362 10.5971 4.77998 11.1698 4.95998 11.7098L4.949 11.7182H4.95993C5.67174 13.8455 7.65991 15.4246 9.9999 15.4246C11.2108 15.4246 12.2335 15.0973 13.0353 14.5573C13.9926 13.9191 14.6308 12.9699 14.8436 11.849H9.99996V8.3636H18.4763C18.5826 8.95269 18.6399 9.56633 18.6399 10.2045C18.6399 12.9454 17.6581 15.2527 15.9563 16.8236C14.4672 18.1981 12.4299 19 9.9999 19C6.48174 19 3.4463 16.9791 1.96539 14.0418V14.0333C1.3518 12.8224 1 11.4561 1 9.99982C1 8.54346 1.35182 7.1771 1.96545 5.9662C3.44638 3.02083 6.48179 1 9.9999 1C12.4299 1 14.459 1.89181 16.0217 3.34817L13.4444 5.92543Z" fill="#1D1C1D"/>
</svg>
