<svg width="20" height="20" viewBox="0 0 20 20" fill="none" xmlns="http://www.w3.org/2000/svg">
<path d="M9.61015 1.11131C9.75083 1.04098 9.91672 1.04107 10.0574 1.11131L11.1971 1.68065C11.3664 1.7653 11.4733 1.93863 11.4734 2.12791V7.27537L16.1307 4.63084C16.2953 4.53732 16.4988 4.54494 16.6561 4.65037L17.7146 5.35936C17.8452 5.44699 17.927 5.59104 17.9354 5.74803L18.0027 7.02049C18.0126 7.20947 17.9144 7.38796 17.7498 7.48143L13.2771 10.0205L17.5271 12.4746C17.6911 12.5692 17.7874 12.7485 17.7762 12.9375L17.7 14.209C17.6906 14.3661 17.6077 14.5099 17.4764 14.5967L16.4139 15.2978C16.2559 15.4021 16.0524 15.4089 15.8885 15.3144L11.4734 12.7646V17.9023C11.4734 18.0917 11.3664 18.2649 11.1971 18.3496L10.0574 18.9189C9.91669 18.9892 9.75087 18.9893 9.61015 18.9189L8.47148 18.3496C8.30209 18.2649 8.19512 18.0917 8.19512 17.9023V12.9072L4.03398 15.2715C3.86941 15.3649 3.66585 15.3572 3.50859 15.2519L2.45 14.543C2.31929 14.4553 2.23761 14.3105 2.2293 14.1533L2.16191 12.8818C2.15191 12.6927 2.25016 12.5144 2.41484 12.4209L6.68047 9.99705L2.22734 7.42674C2.06338 7.33204 1.96697 7.15287 1.97832 6.96385L2.05449 5.69237C2.06397 5.53542 2.14696 5.39234 2.27812 5.30565L3.34062 4.6035C3.49867 4.49915 3.70298 4.49318 3.86699 4.58787L8.19512 7.08592V2.12791C8.19522 1.93863 8.30217 1.7653 8.47148 1.68065L9.61015 1.11131Z" fill="#1D1C1D"/>
</svg>
