<svg width="20" height="20" viewBox="0 0 20 20" fill="none" xmlns="http://www.w3.org/2000/svg">
<path d="M3.0459 6.13184C3.89923 6.13207 4.59082 6.82435 4.59082 7.67773C4.59087 8.29024 4.75895 9.73166 5.25293 10.9668C5.78322 12.2925 6.37857 12.7002 6.90918 12.7002C7.14052 12.7002 7.33462 12.6457 7.62207 12.1465C7.75053 11.9234 7.86427 11.6626 7.97363 11.3643C8.25274 12.3509 8.67339 13.7006 9.48145 14.7539C8.85796 15.3582 8.02104 15.791 6.90918 15.791C4.34888 15.791 3.01161 13.6872 2.38281 12.1152C1.71795 10.4531 1.50004 8.61086 1.5 7.67773C1.5 6.8242 2.19237 6.13184 3.0459 6.13184ZM6.90918 4.2002C8.60951 4.20024 9.67073 5.20844 10.3008 6.30273C10.8604 7.27474 11.1949 8.50179 11.4639 9.48926C11.473 9.52276 11.4822 9.55594 11.4912 9.58887C11.797 10.7102 12.039 11.5579 12.3779 12.1465C12.6654 12.6457 12.8595 12.7002 13.0908 12.7002C13.6214 12.7002 14.2168 12.2925 14.7471 10.9668C14.925 10.5218 15.0594 10.0497 15.1602 9.59961C15.615 9.63739 16.0857 9.54361 16.5107 9.29785C17.5982 8.66882 17.9804 7.29287 17.3887 6.19434C18.0308 6.38199 18.5 6.97499 18.5 7.67773C18.5 8.61086 18.282 10.4531 17.6172 12.1152C16.9884 13.6872 15.6511 15.791 13.0908 15.791C11.3905 15.791 10.3293 14.7828 9.69922 13.6885C9.13959 12.7165 8.80509 11.4894 8.53613 10.502C8.52701 10.4685 8.51777 10.4353 8.50879 10.4023C8.20297 9.28101 7.96096 8.43333 7.62207 7.84473C7.33465 7.34562 7.1405 7.29103 6.90918 7.29102C6.65352 7.29103 6.27973 7.46691 5.87695 8.27246C5.73441 8.55758 5.62077 8.8648 5.53613 9.1543C5.41471 8.53249 5.36331 7.98155 5.36328 7.67773C5.36328 6.73744 4.80356 5.92811 3.99902 5.56445C4.66189 4.82248 5.60819 4.20021 6.90918 4.2002ZM13.0908 4.2002C14.9423 4.2002 16.0832 5.47265 16.6875 6.51758C17.1147 7.25633 16.8626 8.20152 16.124 8.62891C15.3851 9.05618 14.439 8.80334 14.0117 8.06445C13.8359 7.76042 13.6574 7.5566 13.499 7.4375C13.3598 7.3328 13.237 7.29102 13.0908 7.29102C12.8595 7.29103 12.6654 7.3456 12.3779 7.84473C12.2497 8.0674 12.1355 8.32743 12.0264 8.625C11.7978 7.82781 11.5108 6.94413 11.125 6.19922C10.9456 5.85296 10.69 5.57239 10.3906 5.36426C11.0257 4.69361 11.9018 4.20022 13.0908 4.2002Z" fill="#1D1C1D"/>
</svg>
