<svg width="20" height="20" viewBox="0 0 20 20" fill="none" xmlns="http://www.w3.org/2000/svg">
<path d="M9.97363 1.46973C13.7478 1.46996 17.2461 4.36455 17.2461 8.6582C17.2459 14.6163 11.9979 17.4362 9.99414 18.4434V16.1221C9.99414 16.0374 9.97324 16.0157 9.88867 16.0156C5.86001 16.0156 2.70036 12.708 2.7002 8.73242C2.7002 4.88389 5.87065 1.46973 9.97363 1.46973ZM6.46387 6.4209C6.18825 6.42092 6.125 6.58011 6.125 6.87695V9.52734C6.12504 9.67574 6.24127 9.85543 6.38965 9.85547H8.2666C8.19239 10.1629 8.11759 10.3652 7.77832 10.5879C7.58755 10.7148 7.354 10.6939 7.24805 10.7998C7.21655 10.8315 7.20607 10.8738 7.20605 10.916V11.8594C7.20605 11.9547 7.30127 12.0182 7.40723 11.9971C8.06431 11.8699 8.39305 11.6794 8.64746 11.4463C9.11395 11.0222 9.3584 10.481 9.3584 9.85547V6.77051C9.35827 6.5799 9.19938 6.42111 9.00879 6.4209H6.46387ZM10.959 6.4209C10.6835 6.42097 10.6201 6.58016 10.6201 6.87695V9.52734C10.6202 9.67569 10.7365 9.85531 10.8848 9.85547H12.7617C12.6875 10.1629 12.6127 10.3652 12.2734 10.5879C12.0827 10.7147 11.8501 10.6939 11.7441 10.7998C11.7124 10.8316 11.7012 10.8736 11.7012 10.916V11.8594C11.7012 11.9547 11.7964 12.0181 11.9023 11.9971C12.5597 11.8698 12.8891 11.6795 13.1436 11.4463C13.6099 11.0222 13.8535 10.4809 13.8535 9.85547V6.77051C13.8534 6.57986 13.6946 6.42104 13.5039 6.4209H10.959Z" fill="#1D1C1D"/>
</svg>
