<svg width="20" height="20" viewBox="0 0 20 20" fill="none" xmlns="http://www.w3.org/2000/svg">
<path d="M14.334 5.49902V14.5017H14.7841V5.49902H14.334Z" fill="#1D1C1D"/>
<path d="M1.00211 12.8453L1 7.14633L3.32459 7.14637L3.33359 12.8453H1.00211Z" fill="#1D1C1D"/>
<path d="M4.36878 7.14677L4.36881 12.845L7.84353 12.8436L7.84375 7.14633L4.36878 7.14677Z" fill="#1D1C1D"/>
<path d="M8.08007 7.14636L8.08008 12.8446H13.3528L13.3527 7.14633L8.08007 7.14636Z" fill="#1D1C1D"/>
<path d="M13.9873 7.15171V12.8412H14.0773V7.15171H13.9873Z" fill="#1D1C1D"/>
<path d="M15.0978 12.8412V7.15171H15.1878V12.8412H15.0978Z" fill="#1D1C1D"/>
<path d="M15.7665 7.1464L15.7664 12.8446H19V7.14633L15.7665 7.1464Z" fill="#1D1C1D"/>
<path d="M3.58671 12.8412L3.58671 7.15501H4.13583L4.13583 12.8412L3.58671 12.8412Z" fill="#1D1C1D"/>
</svg>
