<svg width="20" height="20" viewBox="0 0 20 20" fill="none" xmlns="http://www.w3.org/2000/svg">
<path d="M10.8164 9.69629C10.9864 9.5335 11.2757 9.2334 11.8789 9.2334C12.4307 9.23356 12.499 9.5676 12.499 9.86719C12.499 10.1841 12.2269 11.2725 12.0654 11.5723C11.9209 11.8806 11.6657 12.2148 11.1133 12.2148C10.527 12.2148 10.3826 11.9315 10.2891 11.7773L9.94043 12.9512H8.86914L9.69434 9.79883L9.01367 9.2168H10.9346L10.8164 9.69629ZM16.8428 8.95996H17.3779L17.1992 9.62793H16.6475C16.6135 9.78199 16.2645 11.2188 16.2471 11.3662V11.3838C16.2471 11.495 16.3238 11.5724 16.4512 11.6152H16.4688L16.3154 12.2314H15.6523C15.4654 12.2314 15.2865 12.1548 15.1846 12.0264C15.0996 11.9322 15.0664 11.8116 15.0664 11.666C15.0664 11.6233 15.0657 11.5805 15.0742 11.5293L15.499 9.61035H14.9551L15.126 8.95996H15.7119C15.7374 8.83148 15.7714 8.71967 15.7969 8.64258L15.8145 8.57422C15.823 8.55726 15.84 8.54844 15.9414 8.50586C16.0604 8.4459 16.2306 8.36863 16.3496 8.27441C16.4431 8.19733 16.5365 8.08562 16.6045 8L16.6729 7.93164H17.1318C17.0808 8.09438 16.8513 8.91713 16.8428 8.95996ZM4.56836 8.9082H3.67578L2.80078 12.2148H1.56836L2.45215 8.9082H1.5L1.74609 7.96582H4.82324L4.56836 8.9082ZM6.66797 9.20801C7.23747 9.20801 6.957 10.0907 6.8125 10.5361H5.99609C6.20009 9.97082 5.99609 9.9707 5.99609 9.9707C5.81757 9.97121 5.53788 10.3049 5.50391 10.459L5.06152 12.2148H4.00781L4.64453 9.74805L4.04102 9.2168H5.80957L5.74121 9.58496C5.91971 9.43079 6.31098 9.20802 6.66797 9.20801ZM8.04492 12.2148H6.91406L7.58594 9.66211L7.12695 9.2168H8.83594L8.04492 12.2148ZM13.876 12.2148H12.7119C12.7799 11.9322 13.4512 9.44757 13.4512 9.42188L12.9746 8.95996H14.752L13.876 12.2148ZM11.1562 9.90234C10.9778 9.89378 10.6804 10.2015 10.6377 10.3643L10.4844 11.0322C10.4419 11.1863 10.5269 11.529 10.7051 11.5381C10.9767 11.5637 11.1129 11.162 11.1387 11.0586L11.2832 10.4248C11.3087 10.3221 11.4364 9.91972 11.1562 9.90234ZM13.1709 8.06934C13.1793 8.07777 13.1879 8.08629 13.1963 8.09473C13.1963 8.10213 13.2024 8.10949 13.2041 8.11133C13.2125 8.12835 13.2297 8.13738 13.2383 8.1543L13.2471 8.16309C13.2555 8.17163 13.264 8.18023 13.2725 8.19727C13.2808 8.19727 13.281 8.20577 13.2891 8.20605C13.2975 8.21457 13.3064 8.22293 13.3232 8.23145V8.24023C13.2299 8.30007 13.1366 8.35982 13.0518 8.41113C12.8911 8.50486 12.7723 8.56517 12.7627 8.57422C12.7712 8.59991 12.7793 8.62568 12.7793 8.65137V8.66016C12.7792 8.87416 12.618 9.03632 12.4141 9.04492C12.2016 9.05349 12.0231 8.89089 12.0146 8.67676C12.0063 8.57424 12.0484 8.48027 12.1162 8.40332C12.1842 8.32626 12.2779 8.28324 12.3799 8.2832C12.4819 8.27464 12.5758 8.31722 12.6523 8.38574C12.7968 8.29156 12.967 8.18038 13.1709 8.06055V8.06934ZM14.8281 8.12012C14.8876 8.16294 14.9558 8.22302 15.0068 8.27441C15.0491 8.24889 15.083 8.24026 15.1338 8.24023C15.2697 8.24023 15.3807 8.3514 15.3809 8.48828C15.3809 8.62533 15.2698 8.7373 15.1338 8.7373C14.9979 8.73719 14.8877 8.62525 14.8877 8.48828C14.8877 8.46268 14.8881 8.42888 14.8965 8.40332L14.666 8.26562C14.6745 8.25708 14.6752 8.25753 14.6836 8.24902C14.7005 8.24052 14.7088 8.23174 14.7256 8.21484C14.7341 8.20628 14.7513 8.19704 14.7598 8.18848C14.7599 8.18684 14.7611 8.18066 14.7686 8.18066L14.8027 8.14648C14.8112 8.13797 14.811 8.12902 14.8193 8.12891C14.8193 8.12034 14.8281 8.12012 14.8281 8.12012ZM14.2158 6.89551C14.5897 6.94688 14.8537 7.23789 14.8369 7.58887C14.8199 7.96574 14.4452 8.2832 14.0117 8.2832C13.5699 8.28307 13.2382 7.96566 13.2637 7.58887C13.2894 7.24653 13.5785 6.95557 13.9521 6.89551C13.9946 6.88696 14.0458 6.87797 14.0967 6.87793C14.1391 6.87793 14.1818 6.88696 14.2158 6.89551ZM18.0156 7.13574C18.2791 7.13581 18.5 7.35854 18.5 7.62402C18.4997 7.8893 18.2789 8.11126 18.0156 8.11133C17.7861 8.11133 17.5901 7.94025 17.5391 7.70898C16.9696 7.73466 16.0094 7.74339 15.0322 7.75195C15.0492 7.70059 15.0576 7.64021 15.0576 7.58887V7.49512C16.0263 7.49512 16.9695 7.51217 17.5391 7.5293C17.5901 7.3066 17.7861 7.13574 18.0156 7.13574ZM8.65723 7.0752C8.95461 7.07529 9.18416 7.27241 9.20117 7.5293C9.94922 7.51217 12.1923 7.47755 13.0596 7.47754C13.0511 7.51169 13.0514 7.54623 13.043 7.58887C13.043 7.64882 13.0433 7.70957 13.0518 7.76953C12.1934 7.76097 9.90709 7.7349 9.17578 7.71777C9.0993 7.93186 8.86109 8.09466 8.59766 8.09473C8.28316 8.09473 8.03671 7.86296 8.05371 7.58887C8.07096 7.30641 8.34289 7.0752 8.65723 7.0752ZM11.9463 5.87598C12.1078 5.84171 12.2697 5.95347 12.3037 6.11621V6.17578C12.3037 6.19284 12.3033 6.21856 12.2949 6.24414C12.4734 6.35548 12.7967 6.56966 13.332 6.98926C13.332 6.99775 13.3239 6.99849 13.3154 7.00684C13.3154 7.00684 13.315 7.01553 13.3066 7.01562L13.2891 7.04102C13.2807 7.0413 13.2725 7.05017 13.2725 7.05859L13.2559 7.0752C13.2474 7.08372 13.2466 7.09206 13.2383 7.10059L13.2217 7.11816C13.2132 7.13516 13.2047 7.14385 13.1963 7.15234C13.1963 7.16089 13.1872 7.16919 13.1787 7.17773C13.1787 7.18616 13.179 7.18652 13.1709 7.18652L12.5674 6.72461C12.5674 6.72461 12.2031 6.43435 12.1846 6.41602C12.1421 6.45025 12.0991 6.46702 12.0566 6.47559C11.9802 6.49261 11.8951 6.47539 11.8271 6.43262C11.7595 6.38134 11.7172 6.31311 11.7002 6.23633V6.17578C11.7002 6.11595 11.7171 6.05618 11.751 6.00488C11.7934 5.93641 11.8614 5.8846 11.9463 5.87598ZM16.5107 5.60254C16.7232 5.60254 16.8934 5.7733 16.8936 5.9873C16.8936 6.19287 16.7232 6.37305 16.5107 6.37305C16.4089 6.37297 16.3238 6.33039 16.2559 6.27051C15.9244 6.50173 15.559 6.75031 15.2275 6.94727C15.1764 6.98158 15.0322 7.06706 14.9473 7.12695L14.9219 7.10059V7.09277C14.8879 7.03282 14.8362 6.98108 14.7852 6.92969C14.8616 6.88688 15.04 6.7753 15.0996 6.73242C15.4226 6.52685 15.7973 6.30442 16.1543 6.10742C16.1373 6.07316 16.1289 6.03013 16.1289 5.9873C16.129 5.77339 16.2985 5.60268 16.5107 5.60254ZM14.1055 4.95117C14.3945 4.95117 14.6328 5.1912 14.6328 5.48242C14.6327 5.73929 14.4538 5.9535 14.2158 6.00488C14.2243 6.22737 14.2334 6.46695 14.2334 6.68945C14.1909 6.68945 14.148 6.68164 14.1055 6.68164C14.0546 6.68164 13.9952 6.6897 13.9443 6.69824C13.9528 6.46712 13.9781 6.236 13.9951 6.00488C13.7572 5.9535 13.5704 5.73929 13.5703 5.48242C13.5703 5.19121 13.808 4.95119 14.1055 4.95117Z" fill="#1D1C1D"/>
</svg>
