<svg width="20" height="20" viewBox="0 0 20 20" fill="none" xmlns="http://www.w3.org/2000/svg">
<path d="M6.35563 1.5C3.67945 1.5 1.5 3.65023 1.5 6.29187C1.5 7.10203 1.71117 7.89227 2.10563 8.5975C2.01266 9.08625 1.9675 9.58961 1.9675 10.085C1.9675 14.505 5.60523 18.0963 10.085 18.0963C10.5445 18.0963 11.0041 18.0657 11.4556 17.99C12.1277 18.326 12.8834 18.5 13.6444 18.5C16.3205 18.5 18.5 16.3498 18.5 13.7081C18.5 12.9989 18.3433 12.3216 18.0431 11.6894C18.152 11.1674 18.2131 10.6282 18.2131 10.085C18.2131 5.66633 14.5648 2.07375 10.085 2.07375C9.66398 2.07375 9.23898 2.10563 8.82063 2.16938C8.07422 1.73242 7.2282 1.5 6.35563 1.5ZM10.0319 4.6875C10.7278 4.6875 11.3374 4.7632 11.8488 4.92125C12.3614 5.07797 12.7957 5.28648 13.1344 5.54813C13.477 5.81242 13.7387 6.09398 13.8994 6.3875C14.0614 6.68367 14.1438 6.98516 14.1438 7.26937C14.1438 7.5443 14.0269 7.78469 13.8144 8.0025C13.6019 8.22031 13.3349 8.33187 13.0175 8.33187C12.7293 8.33187 12.5048 8.26547 12.3481 8.13C12.202 8.0025 12.048 7.80859 11.8806 7.52437C11.6867 7.16047 11.4596 6.8643 11.19 6.66375C10.9284 6.46852 10.4834 6.37687 9.88313 6.37687C9.32531 6.37687 8.86977 6.47781 8.53375 6.69562C8.20836 6.90547 8.05562 7.15383 8.05562 7.43937C8.05562 7.61469 8.11008 7.75945 8.215 7.88562C8.32656 8.01844 8.47398 8.12867 8.67188 8.22563C8.87641 8.32656 9.08758 8.41289 9.29875 8.47C9.51523 8.52844 9.88445 8.62141 10.3825 8.73563C11.012 8.86977 11.5911 9.01055 12.1038 9.17125C12.6217 9.33594 13.0666 9.5418 13.4319 9.77688C13.8038 10.0159 14.1039 10.3227 14.3138 10.6906C14.5236 11.0585 14.6219 11.5101 14.6219 12.04C14.6205 12.6722 14.4426 13.2459 14.08 13.7506C13.7187 14.254 13.1862 14.6591 12.4969 14.9406C11.8142 15.2195 10.9948 15.355 10.0638 15.355C8.94547 15.355 8.01047 15.1651 7.28 14.7812C6.75672 14.5037 6.31977 14.1198 5.99438 13.655C5.66234 13.1848 5.495 12.724 5.495 12.2738C5.495 11.9935 5.60922 11.7518 5.82438 11.5513C6.0382 11.3547 6.30648 11.2537 6.63188 11.2537C6.89883 11.2537 7.13523 11.3308 7.3225 11.4875C7.50313 11.6376 7.65586 11.8607 7.77938 12.1462C7.9175 12.4584 8.06492 12.7134 8.22563 12.9219C8.37703 13.1198 8.59352 13.2911 8.87375 13.4213C9.15531 13.5541 9.5418 13.6231 10.0106 13.6231C10.6548 13.6231 11.1767 13.4863 11.5725 13.2194C11.9603 12.9591 12.1569 12.647 12.1569 12.2631C12.1569 11.9603 12.0506 11.7159 11.8488 11.53C11.6363 11.3348 11.3573 11.1873 11.02 11.0837C10.6654 10.9762 10.1899 10.8566 9.59625 10.7331C8.78875 10.5618 8.10211 10.3559 7.55625 10.1275C6.99711 9.89242 6.54688 9.5657 6.2175 9.16062C5.88281 8.74758 5.7075 8.23891 5.7075 7.63063C5.7075 7.05023 5.8868 6.51898 6.23875 6.06875C6.58539 5.6225 7.09273 5.27586 7.7475 5.03813C8.39297 4.80172 9.16328 4.6875 10.0319 4.6875Z" fill="#1D1C1D"/>
</svg>
