<svg width="20" height="20" viewBox="0 0 20 20" fill="none" xmlns="http://www.w3.org/2000/svg">
<path d="M12.4681 1.5C14.1215 1.50016 15.4622 2.84069 15.4622 4.49414C15.4622 6.14766 14.1216 7.48812 12.4681 7.48828H9.99936V15.7607L9.98471 16.041C9.84461 17.4225 8.6793 18.501 7.26205 18.501C5.75036 18.501 4.52475 17.2737 4.52475 15.7607C4.52493 14.3726 5.55708 13.2285 6.89487 13.0488C5.52339 12.8538 4.4683 11.6782 4.46811 10.2529C4.46811 8.7917 5.57649 7.58919 6.99838 7.44043C5.59859 7.18938 4.53647 5.96617 4.53647 4.49414C4.53654 2.84059 5.87704 1.5 7.53061 1.5H12.4681ZM12.766 7.48438C14.2937 7.48453 15.5326 8.72386 15.5326 10.2529C15.5325 11.7819 14.2936 13.0213 12.766 13.0215C11.2382 13.0215 9.99942 11.782 9.99936 10.2529C9.99936 8.72377 11.2381 7.48438 12.766 7.48438Z" fill="#1D1C1D"/>
</svg>
