<svg width="20" height="20" viewBox="0 0 20 20" fill="none" xmlns="http://www.w3.org/2000/svg">
<path d="M17.5 17.6338H15.7725C15.427 17.6338 15.1963 17.4895 15.1387 17.1729L14.9092 16.1074C14.0167 17.1439 12.778 17.8057 11.4248 17.8057C8.80507 17.8054 7.45215 15.3012 7.45215 12.2783C7.45215 9.14027 9.15051 6.63598 12.0869 6.63574C13.1809 6.63574 14.0166 6.95167 14.7939 7.7002V2H17.5V17.6338ZM5.26367 17.6338H2.5V2.43164H5.26367V17.6338ZM12.6631 8.62207C10.9357 8.62211 10.1299 10.0615 10.1299 12.2783C10.1299 14.3799 10.6765 15.7332 12.3174 15.7334C13.2387 15.7334 14.0166 15.33 14.7939 14.4375V9.60059C14.2181 8.96719 13.5268 8.62207 12.6631 8.62207Z" fill="#1D1C1D"/>
</svg>
