<svg width="20" height="20" viewBox="0 0 20 20" fill="none" xmlns="http://www.w3.org/2000/svg">
<path d="M16.0953 1.47754C16.7648 1.47815 17.3127 2.02673 17.3121 2.69629C17.3113 3.36572 16.7628 3.91272 16.0933 3.91211L7.57184 3.9043C6.23276 3.90308 5.13562 4.99785 5.13434 6.33692C5.13312 7.67592 6.228 8.77301 7.56696 8.77442L12.4371 8.77832C15.1152 8.78091 17.3047 10.9742 17.3023 13.6523C17.2999 16.3305 15.1064 18.5198 12.4283 18.5176L3.90582 18.5098C3.23647 18.5089 2.68939 17.9604 2.69 17.291C2.69072 16.6215 3.23926 16.0746 3.90875 16.0752L12.4302 16.083C13.7692 16.0842 14.8654 14.9894 14.8668 13.6504C14.868 12.3113 13.7733 11.2141 12.4341 11.2129L7.565 11.209C4.88686 11.2065 2.69741 9.0131 2.69977 6.33496C2.70221 3.65679 4.89564 1.46738 7.57379 1.46973L16.0953 1.47754Z" fill="#1D1C1D"/>
</svg>
