<svg width="20" height="20" viewBox="0 0 20 20" fill="none" xmlns="http://www.w3.org/2000/svg">
<path d="M18.3501 12.9925C18.5623 13.2839 18.5199 13.6586 18.2652 13.8667C17.9681 14.0749 17.5437 14.0332 17.3315 13.7835L15.8459 11.9102L14.4029 13.7418C14.1906 14.0332 13.7662 14.0332 13.4691 13.8251C13.172 13.617 13.1296 13.2423 13.3418 12.9509L15.0395 10.7863L13.3418 8.62162C13.1296 8.33023 13.2144 7.91395 13.4691 7.70581C13.7662 7.49767 14.1906 7.58093 14.4029 7.83069L15.8459 9.70395L17.3315 7.91395C17.5437 7.62255 17.9257 7.58093 18.2652 7.78907C18.5623 7.99721 18.5623 8.41348 18.3501 8.70488L16.6948 10.8279L18.3501 12.9925ZM10.6254 12.7428C9.52184 12.7428 8.63053 11.9102 8.63053 10.8279C8.63053 9.7872 9.52184 8.91302 10.6254 8.91302C11.7289 8.91302 12.6202 9.7872 12.6202 10.8279C12.5778 11.9102 11.6865 12.7428 10.6254 12.7428ZM4.76816 12.7428C3.66462 12.7428 2.77331 11.9102 2.77331 10.8279C2.77331 9.7872 3.66462 8.91302 4.76816 8.91302C5.87169 8.91302 6.76301 9.7872 6.76301 10.8279C6.76301 11.9102 5.87169 12.7428 4.76816 12.7428ZM10.6254 7.66418C9.39451 7.66418 8.29098 8.33023 7.73921 9.3293C7.18744 8.33023 6.08391 7.66418 4.8106 7.66418C4.04662 7.66418 3.36752 7.91395 2.81575 8.2886V5.62442C2.81575 5.29139 2.51865 5 2.1791 5C1.79711 5 1.5 5.29139 1.5 5.62442V10.8695C1.54244 12.6179 2.98553 13.9916 4.76816 13.9916C6.04147 13.9916 7.145 13.2839 7.69677 12.2849C8.24853 13.2839 9.35207 13.9916 10.5829 13.9916C12.408 13.9916 13.8935 12.5763 13.8935 10.7863C13.936 9.07953 12.4505 7.66418 10.6254 7.66418Z" fill="#1D1C1D"/>
</svg>
