<svg width="20" height="20" viewBox="0 0 20 20" fill="none" xmlns="http://www.w3.org/2000/svg">
<path d="M12.5 3.45117C15.3165 3.45117 16.7251 3.45125 17.6826 4.21484C17.8873 4.37811 18.0731 4.56387 18.2363 4.76855C18.9999 5.72607 19 7.1347 19 9.95117C19 12.7676 18.9999 14.1763 18.2363 15.1338C18.0731 15.3385 17.8873 15.5242 17.6826 15.6875C16.7251 16.4511 15.3165 16.4512 12.5 16.4512H7.5C4.68353 16.4512 3.27489 16.4511 2.31738 15.6875C2.11269 15.5242 1.92694 15.3385 1.76367 15.1338C1.00008 14.1763 1 12.7676 1 9.95117C1 7.1347 1.00008 5.72607 1.76367 4.76855C1.92694 4.56387 2.11269 4.37811 2.31738 4.21484C3.27489 3.45125 4.68353 3.45117 7.5 3.45117H12.5ZM8.44141 6.19043C8.04172 5.9423 7.52539 6.22975 7.52539 6.7002V13.2021C7.52539 13.6726 8.04172 13.96 8.44141 13.7119L13.6787 10.4609C14.0568 10.2262 14.0568 9.6761 13.6787 9.44141L8.44141 6.19043Z" fill="#1D1C1D"/>
</svg>
