<svg width="20" height="20" viewBox="0 0 20 20" fill="none" xmlns="http://www.w3.org/2000/svg">
<path d="M8.03213 5.05814C8.96399 4.65141 9.99411 4.5244 10.997 4.69193C11.9998 4.85949 12.9325 5.3149 13.6815 6.00248C14.4305 6.69006 14.9641 7.58011 15.2167 8.56498C15.7862 8.60355 16.3368 8.78482 16.8183 9.09134C17.2997 9.39789 17.6966 9.8202 17.9726 10.3199C18.2484 10.8194 18.3943 11.3801 18.3974 11.9507C18.4003 12.5215 18.2609 13.0849 17.9901 13.5874C17.698 14.1295 17.264 14.5824 16.7353 14.898C16.2065 15.2136 15.602 15.3796 14.9862 15.3794H5.80069C5.1241 15.3797 4.45706 15.217 3.85733 14.9038C3.25757 14.5906 2.74271 14.1361 2.35635 13.5806C1.92019 12.955 1.66236 12.2224 1.61123 11.4615C1.56011 10.7005 1.71766 9.93964 2.06631 9.26126C2.41497 8.58296 2.94222 8.01225 3.59072 7.61087C4.2391 7.20966 4.98456 6.99246 5.74697 6.98294C6.306 6.13359 7.10023 5.46493 8.03213 5.05814ZM12.1415 10.0845H12.1425H12.1415ZM14.1269 8.66556C14.0149 8.69463 13.9045 8.72959 13.7958 8.77005C13.9044 8.72957 14.015 8.69468 14.1269 8.66556Z" fill="#1D1C1D"/>
</svg>
