<svg width="20" height="20" viewBox="0 0 20 20" fill="none" xmlns="http://www.w3.org/2000/svg">
<path d="M4.75 1.5C6.28672 1.5 7.57345 2.56675 7.91211 4H12.25C14.3211 4 16 5.67893 16 7.75V12.0879C17.4332 12.4265 18.5 13.7133 18.5 15.25C18.5 17.0449 17.0449 18.5 15.25 18.5C13.4551 18.5 12 17.0449 12 15.25C12 13.7133 13.0668 12.4265 14.5 12.0879V7.75C14.5 6.50736 13.4926 5.5 12.25 5.5H7.91211C7.63037 6.69235 6.69232 7.62932 5.5 7.91113V12.0879C6.93325 12.4265 8 13.7133 8 15.25C8 17.0449 6.54493 18.5 4.75 18.5C2.95507 18.5 1.5 17.0449 1.5 15.25C1.5 13.7133 2.56675 12.4265 4 12.0879V7.91113C2.56686 7.5724 1.5 6.28664 1.5 4.75C1.5 2.95507 2.95507 1.5 4.75 1.5ZM4.75 13.5C3.7835 13.5 3 14.2835 3 15.25C3 16.2165 3.7835 17 4.75 17C5.7165 17 6.5 16.2165 6.5 15.25C6.5 14.2835 5.7165 13.5 4.75 13.5ZM15.25 13.5C14.2835 13.5 13.5 14.2835 13.5 15.25C13.5 16.2165 14.2835 17 15.25 17C16.2165 17 17 16.2165 17 15.25C17 14.2835 16.2165 13.5 15.25 13.5ZM4.75 3C3.7835 3 3 3.7835 3 4.75C3 5.7165 3.7835 6.5 4.75 6.5C5.7165 6.5 6.5 5.7165 6.5 4.75C6.5 3.7835 5.7165 3 4.75 3Z" fill="#1D1C1D"/>
</svg>
