<svg width="20" height="20" viewBox="0 0 20 20" fill="none" xmlns="http://www.w3.org/2000/svg">
<path d="M10 1C14.97 1 19 5.03 19 10C19 14.97 14.97 19 10 19C5.03 19 1 14.97 1 10C1 5.03 5.03 1 10 1ZM10 3.86035C6.60008 3.86035 3.84974 6.60987 3.84961 10.0098C3.84961 13.4098 6.6 16.1602 10 16.1602V14.46C7.54 14.46 5.5498 12.4698 5.5498 10.0098C5.54993 7.54987 7.54008 5.55957 10 5.55957C12.46 5.55957 14.4502 7.55 14.4502 10H16.1504C16.1504 6.61 13.4 3.86035 10 3.86035ZM10 6.36035C7.98008 6.36035 6.34974 7.98987 6.34961 10.0098C6.34961 12.0298 7.98 13.6602 10 13.6602V12.4102C8.67 12.4102 7.59961 11.3398 7.59961 10.0098C7.59973 8.67987 8.67008 7.61035 10 7.61035C11.33 7.61035 12.4004 8.68 12.4004 10H13.6504C13.6504 7.99 12.02 6.36035 10 6.36035Z" fill="#1D1C1D"/>
</svg>
