<svg width="20" height="20" viewBox="0 0 20 20" fill="none" xmlns="http://www.w3.org/2000/svg">
<path d="M16.6699 2.5C17.1299 2.5 17.5 2.87008 17.5 3.33008V16.6699C17.5 17.1299 17.1299 17.5 16.6699 17.5H12.8496V11.6904H14.79L15.0801 9.44043H12.8496V7.99023C12.8496 7.33024 13.02 6.88966 13.96 6.88965H15.1699V4.87012C14.9599 4.83012 14.2399 4.78027 13.4199 4.78027C11.7001 4.78031 10.51 5.82986 10.5098 7.76953V9.44043H8.5498V11.6904H10.5098V17.5H3.33008C2.87008 17.5 2.5 17.1299 2.5 16.6699V3.33008C2.5 2.87008 2.87008 2.5 3.33008 2.5H16.6699Z" fill="#1D1C1D"/>
</svg>
