<svg width="20" height="20" viewBox="0 0 20 20" fill="none" xmlns="http://www.w3.org/2000/svg">
<path d="M17.7308 10.647C18.1243 11.2504 18.3553 11.9817 18.3553 12.8907C18.3281 16.2353 15.5904 18.5 9.69536 18.5C6.01166 18.5 1.96176 17.3638 1.625 13.0396V12.8267H7.14837L5.92665 16.4692L9.95474 13.6364L13.9839 16.4692L12.9377 13.3375C12.7764 13.0187 12.3557 12.8411 12.3557 12.8411C10.152 11.6056 2.12306 12.273 2.12306 6.81147C2.12306 2.70018 6.39747 1.5 9.7444 1.5C13.2472 1.5 17.3592 2.30196 17.7243 6.56327V6.72653H11.5067L9.96891 2.14642L8.42568 6.72653H3.44287L6.22854 8.66469C7.04266 8.33817 7.91345 8.19697 8.78315 8.09659C9.71716 7.99731 10.6566 7.97635 11.5972 8.04033C12.3829 8.08997 13.1698 8.20359 13.9414 8.38781C14.6368 8.55107 15.3452 8.73639 15.9762 9.08387C16.6857 9.48209 17.3025 9.97849 17.7308 10.647Z" fill="#1D1C1D"/>
</svg>
