<svg width="20" height="20" viewBox="0 0 20 20" fill="none" xmlns="http://www.w3.org/2000/svg">
<path d="M7.60826 2.69699C8.51296 0.661697 11.3891 0.627406 12.3426 2.64035L12.5711 3.12278C12.6969 3.38827 12.8313 3.64964 12.9696 3.90793C13.3315 3.83079 13.692 3.74052 14.0487 3.63547C16.3264 2.96514 18.3413 5.27755 17.3651 7.44211L17.036 8.17063C16.9467 8.3686 16.8618 8.56844 16.7801 8.76926C17.1628 9.11309 17.5617 9.44085 17.9745 9.75168C19.6309 10.9997 19.1007 13.6116 17.0887 14.115L16.6229 14.2312C16.253 14.3237 15.8856 14.427 15.5223 14.5398C15.5098 14.8269 15.502 15.115 15.5038 15.403L15.5067 15.8572C15.5209 18.2427 12.7644 19.5815 10.8983 18.0954L10.7245 17.9558C10.4461 17.734 10.161 17.5203 9.87193 17.3142C9.63868 17.4777 9.40813 17.6456 9.1815 17.8191L8.62095 18.2478C6.77636 19.6596 4.12191 18.2826 4.21275 15.9616L4.22838 15.5486C4.24193 15.2037 4.24393 14.8584 4.23619 14.5144C3.86908 14.3996 3.49802 14.2945 3.12388 14.2009L2.95005 14.1579C0.862402 13.6357 0.300432 10.9332 2.0067 9.6218L2.38658 9.32981C2.62256 9.14844 2.85143 8.95816 3.07701 8.76535C2.97757 8.51268 2.87446 8.26059 2.76255 8.01242L2.50474 7.44211C1.52841 5.27736 3.54316 2.96454 5.82115 3.63547C6.21026 3.75006 6.60363 3.84706 6.99888 3.92844C7.21738 3.52691 7.42181 3.11649 7.60826 2.69699ZM5.7274 15.6072L5.7108 16.0202C5.66972 17.072 6.87288 17.696 7.70884 17.0564L8.26939 16.6277C8.35403 16.5629 8.44072 16.5007 8.52623 16.4372C7.6345 15.9041 6.70276 15.4406 5.73912 15.0525C5.73748 15.2371 5.73466 15.4223 5.7274 15.6072ZM14.0077 15.0788C13.0461 15.463 12.1149 15.9192 11.2225 16.445C11.369 16.5557 11.5152 16.6683 11.659 16.7829L11.8329 16.9216C12.7131 17.6224 14.0134 16.9911 14.0067 15.8659L14.0038 15.4118C14.0031 15.3009 14.0064 15.1897 14.0077 15.0788ZM12.1913 5.56613C10.725 5.77425 9.23748 5.77933 7.77037 5.57981C6.94584 6.90549 5.95789 8.12241 4.82896 9.20285C5.27835 10.5712 5.56356 11.9876 5.67955 13.4226C7.1508 13.9629 8.5587 14.6626 9.87779 15.5095C11.2063 14.6697 12.6209 13.9756 14.0975 13.4392C14.2415 11.9858 14.5541 10.5542 15.0292 9.17258C13.9442 8.08773 12.9916 6.87696 12.1913 5.56613ZM16.244 10.2888C15.9828 11.1543 15.79 12.0389 15.6669 12.9343C15.8632 12.8793 16.0605 12.8256 16.2586 12.7761L16.7254 12.6599C17.5134 12.4625 17.7207 11.4389 17.0721 10.9499C16.7896 10.7372 16.5137 10.516 16.244 10.2888ZM3.30064 10.5193L2.92076 10.8113C2.20943 11.3581 2.44388 12.4841 3.31431 12.7019L3.48716 12.7458C3.69996 12.799 3.91217 12.8561 4.12291 12.9157C4.01724 12.0272 3.83988 11.1483 3.59361 10.2878C3.49666 10.3655 3.39924 10.4435 3.30064 10.5193ZM5.39732 5.07492C4.3497 4.76637 3.42303 5.82938 3.87193 6.82492L4.12974 7.39621C4.17027 7.48612 4.20691 7.57821 4.24595 7.66867C4.96038 6.93194 5.60639 6.13283 6.17759 5.28098C5.91659 5.21817 5.6557 5.15101 5.39732 5.07492ZM15.9969 6.82492C16.4459 5.8295 15.52 4.76684 14.4725 5.07492C14.2409 5.14314 14.007 5.2039 13.7733 5.26145C14.3252 6.10441 14.9475 6.89883 15.6327 7.63645C15.6449 7.60901 15.6565 7.58083 15.6688 7.55344L15.9969 6.82492ZM10.9872 3.28195C10.5827 2.42813 9.36208 2.44303 8.97838 3.30637C8.84986 3.59552 8.71281 3.8804 8.57017 4.16184C9.51289 4.25056 10.4619 4.24669 11.4042 4.1511C11.3401 4.02319 11.277 3.89384 11.2157 3.76438L10.9872 3.28195Z" fill="#1D1C1D"/>
</svg>
