<svg width="20" height="20" viewBox="0 0 20 20" fill="none" xmlns="http://www.w3.org/2000/svg">
<path d="M11.9192 1.07707C12.2908 0.894561 12.7403 1.04741 12.9231 1.41886C13.1056 1.79055 12.9528 2.24105 12.5813 2.42375C12.3003 2.56173 12.0476 2.79962 11.8576 3.08195C12.2554 3.52465 12.5002 4.10792 12.5002 4.74992C12.5002 5.01928 12.456 5.27831 12.3772 5.5214C13.2376 5.81739 13.9908 6.34228 14.5666 7.02238C14.5691 7.02175 14.5719 7.02102 14.5744 7.02042C15.3561 6.83206 16.0002 6.06001 16.0002 5.24992C16.0002 4.83578 16.3361 4.49999 16.7502 4.49992C17.1642 4.50012 17.5002 4.83586 17.5002 5.24992C17.5002 6.63096 16.5726 7.84666 15.3684 8.3339C15.6135 8.9241 15.7502 9.57097 15.7502 10.2499V10.5009C17.0332 10.46 18.3421 11.2867 18.9006 12.4179C19.0837 12.7892 18.9309 13.2394 18.5598 13.4228C18.1885 13.6058 17.7383 13.453 17.5549 13.0819C17.241 12.4467 16.4515 11.97 15.7824 11.9989C15.7717 11.9994 15.7609 11.9989 15.7502 11.9989V12.2499L15.7434 12.5068C15.702 13.3244 15.4634 14.09 15.0754 14.7577C16.1772 15.2949 17.0002 16.4492 17.0002 17.7499C17.0002 18.164 16.6643 18.4998 16.2502 18.4999C15.836 18.4999 15.5002 18.1641 15.5002 17.7499C15.5002 16.9404 14.8572 16.1685 14.0764 15.9794C13.2521 16.7151 12.1841 17.1835 11.007 17.2431L10.7502 17.2499H9.25021C7.97167 17.2499 6.80519 16.7699 5.92111 15.9804C5.1414 16.1705 4.50025 16.9413 4.50021 17.7499C4.50021 18.164 4.16431 18.4998 3.75021 18.4999C3.33599 18.4999 3.00021 18.1641 3.00021 17.7499C3.00024 16.4492 3.82226 15.2939 4.92404 14.7568C4.49599 14.0197 4.25021 13.1636 4.25021 12.2499V11.9989C4.23952 11.9989 4.22876 12.0004 4.21798 11.9999C3.54226 11.9706 2.73293 12.4524 2.42208 13.0819C2.23867 13.4531 1.78944 13.6059 1.41818 13.4228C1.04684 13.2395 0.894222 12.7893 1.07736 12.4179C1.63889 11.2807 2.97309 10.4591 4.25021 10.4999V10.2499C4.25022 9.57118 4.38508 8.92398 4.63009 8.3339C3.42642 7.84634 2.50021 6.63048 2.50021 5.24992C2.50024 4.83573 2.83601 4.49992 3.25021 4.49992C3.66429 4.50005 4.00017 4.83581 4.00021 5.24992C4.00021 6.06019 4.64418 6.83222 5.42599 7.02042C5.42791 7.02089 5.42993 7.02092 5.43185 7.0214C6.00755 6.34126 6.76193 5.81749 7.62228 5.5214C7.54347 5.27834 7.50021 5.01924 7.50021 4.74992C7.50021 4.10825 7.74344 3.52458 8.14083 3.08195C7.95095 2.80001 7.6998 2.56164 7.41915 2.42375C7.04753 2.24108 6.89384 1.79058 7.07638 1.41886C7.25905 1.04727 7.70956 0.894531 8.08126 1.07707C8.62469 1.3441 9.09308 1.78787 9.43185 2.31632C9.61444 2.27387 9.80469 2.24992 10.0002 2.24992C10.1955 2.24994 10.3852 2.27394 10.5676 2.31632C10.9065 1.78764 11.3755 1.34412 11.9192 1.07707ZM9.25021 6.74992C7.31724 6.74992 5.75025 8.31696 5.75021 10.2499V12.2499C5.75021 14.1829 7.31721 15.7499 9.25021 15.7499H10.7502C12.6831 15.7498 14.2502 14.1828 14.2502 12.2499V10.2499C14.2502 8.31704 12.6831 6.75005 10.7502 6.74992H9.25021Z" fill="#1D1C1D"/>
</svg>
