<svg width="20" height="20" viewBox="0 0 20 20" fill="none" xmlns="http://www.w3.org/2000/svg">
<path d="M10.25 1C12.3211 1 14 2.67893 14 4.75V7.25H15.25C17.3211 7.25 19 8.92893 19 11V17.25C19 18.2165 18.2165 19 17.25 19H2.75C1.7835 19 1 18.2165 1 17.25V4.75C1 2.67893 2.67893 1 4.75 1H10.25ZM4.75 2.5C3.50736 2.5 2.5 3.50736 2.5 4.75V17.25C2.5 17.3881 2.61193 17.5 2.75 17.5H4.5V15.75C4.5 14.7835 5.2835 14 6.25 14H8.75C9.7165 14 10.5 14.7835 10.5 15.75V17.5H12.5V4.75C12.5 3.50736 11.4926 2.5 10.25 2.5H4.75ZM6.25 15.5C6.11193 15.5 6 15.6119 6 15.75V17.5H9V15.75C9 15.6119 8.88807 15.5 8.75 15.5H6.25ZM14 17.5H17.25C17.3881 17.5 17.5 17.3881 17.5 17.25V11C17.5 9.75736 16.4926 8.75 15.25 8.75H14V17.5ZM6 10.5C6.55228 10.5 7 10.9477 7 11.5C7 12.0523 6.55228 12.5 6 12.5C5.44772 12.5 5 12.0523 5 11.5C5 10.9477 5.44772 10.5 6 10.5ZM9 10.5C9.55228 10.5 10 10.9477 10 11.5C10 12.0523 9.55228 12.5 9 12.5C8.44772 12.5 8 12.0523 8 11.5C8 10.9477 8.44772 10.5 9 10.5ZM6 7.5C6.55228 7.5 7 7.94772 7 8.5C7 9.05228 6.55228 9.5 6 9.5C5.44772 9.5 5 9.05228 5 8.5C5 7.94772 5.44772 7.5 6 7.5ZM9 7.5C9.55228 7.5 10 7.94772 10 8.5C10 9.05228 9.55228 9.5 9 9.5C8.44772 9.5 8 9.05228 8 8.5C8 7.94772 8.44772 7.5 9 7.5ZM6 4.5C6.55228 4.5 7 4.94772 7 5.5C7 6.05228 6.55228 6.5 6 6.5C5.44772 6.5 5 6.05228 5 5.5C5 4.94772 5.44772 4.5 6 4.5ZM9 4.5C9.55228 4.5 10 4.94772 10 5.5C10 6.05228 9.55228 6.5 9 6.5C8.44772 6.5 8 6.05228 8 5.5C8 4.94772 8.44772 4.5 9 4.5Z" fill="#1D1C1D"/>
</svg>
