<svg width="20" height="20" viewBox="0 0 20 20" fill="none" xmlns="http://www.w3.org/2000/svg">
<path d="M10.25 1C12.3211 1 14 2.67893 14 4.75V18.5C14 18.7761 13.7761 19 13.5 19H10.5C10.2239 19 10 18.7761 10 18.5V16.3496C9.99979 15.6043 9.39567 15.0002 8.65039 15H6.34961C5.60434 15.0002 5.00021 15.6043 5 16.3496V18.5C5 18.7761 4.77614 19 4.5 19H2.75C1.7835 19 1 18.2165 1 17.25V4.75C1 2.67893 2.67893 1 4.75 1H10.25ZM15.999 7.2832C17.7971 7.52931 19 9.09977 19 11V17.25C19 18.2165 18.2165 19 17.25 19H16C15.724 19 15.5002 18.776 15.5 18.5V7.75C15.5 7.47386 15.7254 7.24576 15.999 7.2832ZM6 10.5C5.44772 10.5 5 10.9477 5 11.5C5 12.0523 5.44772 12.5 6 12.5C6.55228 12.5 7 12.0523 7 11.5C7 10.9477 6.55228 10.5 6 10.5ZM9 10.5C8.44772 10.5 8 10.9477 8 11.5C8 12.0523 8.44772 12.5 9 12.5C9.55229 12.5 10 12.0523 10 11.5C10 10.9477 9.55228 10.5 9 10.5ZM6 7.5C5.44772 7.5 5 7.94772 5 8.5C5 9.05228 5.44772 9.5 6 9.5C6.55228 9.5 7 9.05229 7 8.5C7 7.94772 6.55228 7.5 6 7.5ZM9 7.5C8.44772 7.5 8 7.94772 8 8.5C8 9.05228 8.44772 9.5 9 9.5C9.55229 9.5 10 9.05229 10 8.5C10 7.94772 9.55228 7.5 9 7.5ZM6 4.5C5.44772 4.5 5 4.94772 5 5.5C5 6.05228 5.44772 6.5 6 6.5C6.55228 6.5 7 6.05229 7 5.5C7 4.94772 6.55228 4.5 6 4.5ZM9 4.5C8.44772 4.5 8 4.94772 8 5.5C8 6.05228 8.44772 6.5 9 6.5C9.55229 6.5 10 6.05228 10 5.5C10 4.94772 9.55228 4.5 9 4.5Z" fill="#1D1C1D"/>
</svg>
