<svg width="20" height="20" viewBox="0 0 20 20" fill="none" xmlns="http://www.w3.org/2000/svg">
<path d="M13.5 1.5C15.0188 1.5 16.25 2.73122 16.25 4.25V17.25C16.25 17.9404 15.6904 18.5 15 18.5H5.5C4.80964 18.5 4.25 17.9404 4.25 17.25V4.25C4.25 2.73122 5.48122 1.5 7 1.5H13.5ZM7 3C6.30964 3 5.75 3.55964 5.75 4.25V17H7.5V15C7.5 14.0335 8.2835 13.25 9.25 13.25H11.25C12.2165 13.25 13 14.0335 13 15V17H14.75V4.25C14.75 3.55964 14.1904 3 13.5 3H7ZM9.25 14.75C9.11193 14.75 9 14.8619 9 15V17H11.5V15C11.5 14.8619 11.3881 14.75 11.25 14.75H9.25ZM8.75 10.5C9.30229 10.5 9.75 10.9477 9.75 11.5C9.75 12.0523 9.30229 12.5 8.75 12.5C8.19771 12.5 7.75 12.0523 7.75 11.5C7.75 10.9477 8.19771 10.5 8.75 10.5ZM11.75 10.5C12.3023 10.5 12.75 10.9477 12.75 11.5C12.75 12.0523 12.3023 12.5 11.75 12.5C11.1977 12.5 10.75 12.0523 10.75 11.5C10.75 10.9477 11.1977 10.5 11.75 10.5ZM8.75 7.5C9.30229 7.5 9.75 7.94772 9.75 8.5C9.75 9.05229 9.30229 9.5 8.75 9.5C8.19771 9.5 7.75 9.05229 7.75 8.5C7.75 7.94772 8.19771 7.5 8.75 7.5ZM11.75 7.5C12.3023 7.5 12.75 7.94772 12.75 8.5C12.75 9.05229 12.3023 9.5 11.75 9.5C11.1977 9.5 10.75 9.05229 10.75 8.5C10.75 7.94772 11.1977 7.5 11.75 7.5ZM8.75 4.5C9.30229 4.5 9.75 4.94772 9.75 5.5C9.75 6.05228 9.30229 6.5 8.75 6.5C8.19771 6.5 7.75 6.05228 7.75 5.5C7.75 4.94772 8.19771 4.5 8.75 4.5ZM11.75 4.5C12.3023 4.5 12.75 4.94772 12.75 5.5C12.75 6.05228 12.3023 6.5 11.75 6.5C11.1977 6.5 10.75 6.05228 10.75 5.5C10.75 4.94772 11.1977 4.5 11.75 4.5Z" fill="#1D1C1D"/>
</svg>
