<svg width="20" height="20" viewBox="0 0 20 20" fill="none" xmlns="http://www.w3.org/2000/svg">
<path d="M3 16C3.55228 16 4 16.4477 4 17C4 17.5523 3.55228 18 3 18C2.44772 18 2 17.5523 2 17C2 16.4477 2.44772 16 3 16ZM17.75 16.25C18.1642 16.25 18.5 16.5858 18.5 17C18.5 17.4142 18.1642 17.75 17.75 17.75H7.75C7.33579 17.75 7 17.4142 7 17C7 16.5858 7.33579 16.25 7.75 16.25H17.75ZM3 9C3.55228 9 4 9.44772 4 10C4 10.5523 3.55228 11 3 11C2.44772 11 2 10.5523 2 10C2 9.44772 2.44772 9 3 9ZM17.75 9.25C18.1642 9.25 18.5 9.58579 18.5 10C18.5 10.4142 18.1642 10.75 17.75 10.75H7.75C7.33579 10.75 7 10.4142 7 10C7 9.58579 7.33579 9.25 7.75 9.25H17.75ZM3 2C3.55228 2 4 2.44772 4 3C4 3.55228 3.55228 4 3 4C2.44772 4 2 3.55228 2 3C2 2.44772 2.44772 2 3 2ZM17.75 2.25C18.1642 2.25 18.5 2.58579 18.5 3C18.5 3.41421 18.1642 3.75 17.75 3.75H7.75C7.33579 3.75 7 3.41421 7 3C7 2.58579 7.33579 2.25 7.75 2.25H17.75Z" fill="#1D1C1D"/>
</svg>
