<svg width="20" height="20" viewBox="0 0 20 20" fill="none" xmlns="http://www.w3.org/2000/svg">
<path fill-rule="evenodd" clip-rule="evenodd" d="M14 3.5H6C5.17157 3.5 4.5 4.17157 4.5 5V6H15.5V5C15.5 4.17157 14.8284 3.5 14 3.5ZM6 2C4.34315 2 3 3.34315 3 5V16C3 17.6569 4.34315 19 6 19H14C15.6569 19 17 17.6569 17 16V5C17 3.34315 15.6569 2 14 2H6ZM6 10C6.55228 10 7 9.55229 7 9C7 8.44772 6.55228 8 6 8C5.44772 8 5 8.44772 5 9C5 9.55229 5.44772 10 6 10ZM7 12.5C7 13.0523 6.55228 13.5 6 13.5C5.44772 13.5 5 13.0523 5 12.5C5 11.9477 5.44772 11.5 6 11.5C6.55228 11.5 7 11.9477 7 12.5ZM6 17C6.55228 17 7 16.5523 7 16C7 15.4477 6.55228 15 6 15C5.44772 15 5 15.4477 5 16C5 16.5523 5.44772 17 6 17ZM11 9C11 9.55229 10.5523 10 10 10C9.44772 10 9 9.55229 9 9C9 8.44772 9.44772 8 10 8C10.5523 8 11 8.44772 11 9ZM10 13.5C10.5523 13.5 11 13.0523 11 12.5C11 11.9477 10.5523 11.5 10 11.5C9.44772 11.5 9 11.9477 9 12.5C9 13.0523 9.44772 13.5 10 13.5ZM11 16C11 16.5523 10.5523 17 10 17C9.44772 17 9 16.5523 9 16C9 15.4477 9.44772 15 10 15C10.5523 15 11 15.4477 11 16ZM14 10C14.5523 10 15 9.55229 15 9C15 8.44772 14.5523 8 14 8C13.4477 8 13 8.44772 13 9C13 9.55229 13.4477 10 14 10ZM15 12.6V15.9C15 16.5075 14.5523 17 14 17C13.4477 17 13 16.5075 13 15.9V12.6C13 11.9925 13.4477 11.5 14 11.5C14.5523 11.5 15 11.9925 15 12.6Z" fill="#1D1C1D"/>
</svg>
