<svg width="20" height="20" viewBox="0 0 20 20" fill="none" xmlns="http://www.w3.org/2000/svg">
<path d="M14.1543 2.00391C15.7394 2.08421 17 3.39489 17 5V16C17 17.6051 15.7394 18.9158 14.1543 18.9961L14 19H6C4.39489 19 3.08421 17.7394 3.00391 16.1543L3 16V5C3 3.34315 4.34315 2 6 2H14L14.1543 2.00391ZM4.5 16C4.5 16.8284 5.17157 17.5 6 17.5H14C14.8284 17.5 15.5 16.8284 15.5 16V7.5H4.5V16ZM7 14.5C7.55228 14.5 8 14.9477 8 15.5C8 16.0523 7.55228 16.5 7 16.5C6.44772 16.5 6 16.0523 6 15.5C6 14.9477 6.44772 14.5 7 14.5ZM10 14.5C10.5523 14.5 11 14.9477 11 15.5C11 16.0523 10.5523 16.5 10 16.5C9.44772 16.5 9 16.0523 9 15.5C9 14.9477 9.44772 14.5 10 14.5ZM13 11.5C13.5523 11.5 14 11.9477 14 12.5V15.5C14 16.0523 13.5523 16.5 13 16.5C12.4477 16.5 12 16.0523 12 15.5V12.5C12 11.9477 12.4477 11.5 13 11.5ZM7 11.5C7.55228 11.5 8 11.9477 8 12.5C8 13.0523 7.55228 13.5 7 13.5C6.44772 13.5 6 13.0523 6 12.5C6 11.9477 6.44772 11.5 7 11.5ZM10 11.5C10.5523 11.5 11 11.9477 11 12.5C11 13.0523 10.5523 13.5 10 13.5C9.44772 13.5 9 13.0523 9 12.5C9 11.9477 9.44772 11.5 10 11.5ZM7 8.5C7.55228 8.5 8 8.94772 8 9.5C8 10.0523 7.55228 10.5 7 10.5C6.44772 10.5 6 10.0523 6 9.5C6 8.94772 6.44772 8.5 7 8.5ZM10 8.5C10.5523 8.5 11 8.94772 11 9.5C11 10.0523 10.5523 10.5 10 10.5C9.44772 10.5 9 10.0523 9 9.5C9 8.94772 9.44772 8.5 10 8.5ZM13 8.5C13.5523 8.5 14 8.94772 14 9.5C14 10.0523 13.5523 10.5 13 10.5C12.4477 10.5 12 10.0523 12 9.5C12 8.94772 12.4477 8.5 13 8.5ZM6 3.5C5.17157 3.5 4.5 4.17157 4.5 5V6H15.5V5C15.5 4.17157 14.8284 3.5 14 3.5H6Z" fill="#1D1C1D"/>
</svg>
