<svg width="20" height="20" viewBox="0 0 20 20" fill="none" xmlns="http://www.w3.org/2000/svg">
<path d="M15.5 2.5C16.6046 2.5 17.5 3.39543 17.5 4.5V15.5C17.5 16.5357 16.7128 17.387 15.7041 17.4893L15.5 17.5H4.5L4.2959 17.4893C3.35435 17.3938 2.6062 16.6457 2.51074 15.7041L2.5 15.5V4.5C2.5 3.39543 3.39543 2.5 4.5 2.5H15.5ZM4 7.5V15.5C4 15.7761 4.22386 16 4.5 16H15.5C15.7761 16 16 15.7761 16 15.5V7.5H4ZM6.75 13.5C7.16421 13.5 7.5 13.8358 7.5 14.25C7.5 14.6642 7.16421 15 6.75 15C6.33579 15 6 14.6642 6 14.25C6 13.8358 6.33579 13.5 6.75 13.5ZM10 13.5C10.4142 13.5 10.75 13.8358 10.75 14.25C10.75 14.6642 10.4142 15 10 15C9.58579 15 9.25 14.6642 9.25 14.25C9.25 13.8358 9.58579 13.5 10 13.5ZM13.25 13.5C13.6642 13.5 14 13.8358 14 14.25C14 14.6642 13.6642 15 13.25 15C12.8358 15 12.5 14.6642 12.5 14.25C12.5 13.8358 12.8358 13.5 13.25 13.5ZM6.75 11C7.16421 11 7.5 11.3358 7.5 11.75C7.5 12.1642 7.16421 12.5 6.75 12.5C6.33579 12.5 6 12.1642 6 11.75C6 11.3358 6.33579 11 6.75 11ZM10 11C10.4142 11 10.75 11.3358 10.75 11.75C10.75 12.1642 10.4142 12.5 10 12.5C9.58579 12.5 9.25 12.1642 9.25 11.75C9.25 11.3358 9.58579 11 10 11ZM13.25 11C13.6642 11 14 11.3358 14 11.75C14 12.1642 13.6642 12.5 13.25 12.5C12.8358 12.5 12.5 12.1642 12.5 11.75C12.5 11.3358 12.8358 11 13.25 11ZM10 8.5C10.4142 8.5 10.75 8.83579 10.75 9.25C10.75 9.66421 10.4142 10 10 10C9.58579 10 9.25 9.66421 9.25 9.25C9.25 8.83579 9.58579 8.5 10 8.5ZM13.25 8.5C13.6642 8.5 14 8.83579 14 9.25C14 9.66421 13.6642 10 13.25 10C12.8358 10 12.5 9.66421 12.5 9.25C12.5 8.83579 12.8358 8.5 13.25 8.5Z" fill="#1D1C1D"/>
</svg>
