<svg width="20" height="20" viewBox="0 0 20 20" fill="none" xmlns="http://www.w3.org/2000/svg">
<path d="M4.16917 2.72902C4.80905 2.07565 5.85123 1.87238 6.66526 2.43117C7.7534 3.17812 8.79626 4.26818 9.54905 5.44875C9.86813 5.94914 9.98522 6.65448 9.63109 7.28566C9.34752 7.79078 8.93853 8.22543 8.48265 8.68215C8.77561 9.06906 9.23079 9.63145 9.78929 10.19C10.3478 10.7485 10.9102 11.2036 11.2971 11.4966C11.7538 11.0408 12.1885 10.6327 12.6936 10.3491C13.3248 9.99479 14.03 10.1111 14.5305 10.4302C15.7111 11.183 16.8021 12.2258 17.5491 13.314C18.1076 14.128 17.9035 15.1703 17.2502 15.8101C16.6345 16.4129 15.6267 17.296 14.553 17.7534C13.9852 17.9953 13.3961 18.0007 12.8879 17.9136C11.3335 17.6472 9.32239 16.8832 6.20921 13.77C3.09596 10.6568 2.33205 8.64577 2.06566 7.09133C1.97857 6.58309 1.98394 5.99412 2.22581 5.42629C2.68322 4.35259 3.5663 3.34476 4.16917 2.72902ZM5.81663 3.6675C5.68801 3.57921 5.44602 3.56888 5.24046 3.77883C4.66359 4.36804 3.94813 5.21038 3.60569 6.01418C3.50904 6.24116 3.48978 6.51972 3.54417 6.83742C3.74595 8.01497 4.31857 9.75828 7.26976 12.7095C10.221 15.6608 11.9643 16.2333 13.1418 16.4351C13.4596 16.4895 13.7381 16.4702 13.9651 16.3736C14.7689 16.0311 15.6112 15.3157 16.2004 14.7388C16.4104 14.5332 16.4 14.2912 16.3117 14.1626C15.6855 13.2504 14.7447 12.3468 13.7239 11.6958C13.5924 11.612 13.484 11.6254 13.428 11.6568C13.0349 11.8774 12.6852 12.2277 12.0549 12.8609C11.7434 13.1738 11.2112 13.2812 10.7854 12.981C10.4314 12.7312 9.58074 12.1025 8.72874 11.2505C7.87679 10.3985 7.248 9.54786 6.99827 9.19387C6.69824 8.76813 6.80553 8.23578 7.11839 7.92434C7.75158 7.29402 8.10186 6.9443 8.32249 6.55129C8.35384 6.49527 8.36812 6.38676 8.28441 6.25539C7.63341 5.23445 6.72896 4.29377 5.81663 3.6675Z" fill="#1D1C1D"/>
</svg>
