<svg width="12" height="12" viewBox="0 0 12 12" fill="none" xmlns="http://www.w3.org/2000/svg">
<path d="M2.50113 1.63726C2.88506 1.24514 3.51071 1.12324 3.99918 1.45855C4.65205 1.90672 5.27799 2.56076 5.72965 3.2691C5.92106 3.56938 5.99108 3.99293 5.77848 4.37163C5.60834 4.67461 5.36347 4.93556 5.09 5.20953C5.2658 5.44167 5.53923 5.77888 5.87418 6.11382C6.20921 6.44881 6.54638 6.72227 6.77848 6.898C7.05252 6.62446 7.31329 6.3787 7.61637 6.20855C7.99498 5.9962 8.41774 6.067 8.71793 6.25835C9.42627 6.71002 10.0813 7.33497 10.5295 7.98785C10.8648 8.47632 10.7419 9.10197 10.3498 9.48589C9.98031 9.84761 9.37574 10.3775 8.7316 10.6519C8.39098 10.7969 8.03744 10.8008 7.73258 10.7486C6.79998 10.5887 5.59344 10.1299 3.72574 8.26226C1.85769 6.39421 1.39924 5.18713 1.23941 4.25445C1.18716 3.94948 1.19094 3.59615 1.33609 3.25542C1.61053 2.61136 2.13945 2.00668 2.50113 1.63726ZM3.49039 2.19976C3.41322 2.14679 3.26802 2.14117 3.14469 2.26714C2.79856 2.62066 2.36874 3.12564 2.16324 3.60796C2.10523 3.74414 2.09352 3.9115 2.12613 4.1021C2.2472 4.80861 2.59089 5.85489 4.36149 7.62554C6.13216 9.39622 7.17839 9.73981 7.88492 9.86089C8.07561 9.89357 8.24283 9.88178 8.37906 9.82378C8.86141 9.6183 9.36732 9.18946 9.72086 8.84331C9.84674 8.72006 9.84014 8.57482 9.78727 8.49761C9.41154 7.95026 8.84704 7.40773 8.23453 7.01714C8.15568 6.96687 8.09042 6.97489 8.0568 6.9937C7.82104 7.12606 7.61159 7.3366 7.23356 7.71636C7.04663 7.90414 6.72634 7.96886 6.47086 7.78863C6.25846 7.63879 5.74866 7.26076 5.23746 6.74956C4.72638 6.23845 4.34921 5.72855 4.19938 5.51617C4.01922 5.26079 4.08307 4.9414 4.27066 4.75445C4.65059 4.37625 4.86094 4.16604 4.99332 3.93023C5.01204 3.89664 5.02071 3.83199 4.97086 3.75347C4.58028 3.14093 4.03777 2.57552 3.49039 2.19976Z" fill="#1D1C1D"/>
</svg>
