<svg width="20" height="20" viewBox="0 0 20 20" fill="none" xmlns="http://www.w3.org/2000/svg">
<path d="M4.70485 3.25276C5.12754 2.82111 5.76965 2.72519 6.24099 3.04866C7.24122 3.73527 8.21487 4.75063 8.91677 5.8514C9.11821 6.16731 9.17 6.57424 8.97731 6.9178C8.69408 7.42232 8.25228 7.85261 7.64724 8.45491C7.56244 8.53944 7.54678 8.66899 7.61208 8.76155C7.8489 9.09722 8.4496 9.90962 9.25954 10.7196C10.0696 11.5296 10.882 12.1303 11.2175 12.367C11.3102 12.4324 11.4397 12.4158 11.5242 12.3309C12.1263 11.726 12.5569 11.285 13.0613 11.0018C13.4048 10.8091 13.8118 10.8609 14.1277 11.0623C15.2283 11.7641 16.2439 12.7371 16.9304 13.7371C17.254 14.2085 17.1571 14.8515 16.7254 15.2742C16.1229 15.8641 15.1981 16.6625 14.2595 17.0623C13.8621 17.2317 13.4285 17.2444 13.0154 17.1737C11.6494 16.9396 9.77234 16.2714 6.74001 13.2391C3.70763 10.2067 3.03854 8.32972 2.80446 6.9637C2.7337 6.55064 2.74745 6.11701 2.91677 5.71956C3.31672 4.78077 4.11497 3.85523 4.70485 3.25276Z" fill="#1D1C1D"/>
</svg>
