<svg width="20" height="20" viewBox="0 0 20 20" fill="none" xmlns="http://www.w3.org/2000/svg">
<path d="M4.16826 2.7286C4.80803 2.07518 5.85127 1.87126 6.66533 2.42977C7.75343 3.17673 8.79637 4.2678 9.54912 5.44833C9.86799 5.9486 9.98495 6.6533 9.63115 7.28426C9.34769 7.7892 8.93839 8.22421 8.48272 8.68075C8.77563 9.06762 9.23083 9.62999 9.78936 10.1886C10.3483 10.7475 10.9112 11.2032 11.2981 11.4962C11.7546 11.0406 12.1889 10.6312 12.6937 10.3477C13.3248 9.99369 14.0302 10.1108 14.5306 10.4298C15.7109 11.1824 16.8012 12.2247 17.5481 13.3126C18.107 14.1266 17.9037 15.1698 17.2503 15.8097C16.6347 16.4124 15.6273 17.2946 14.554 17.752C13.9864 17.9939 13.3971 18.0002 12.889 17.9132C11.3345 17.6468 9.32267 16.883 6.20928 13.7696C3.09593 10.6563 2.33212 8.64439 2.06572 7.08993C1.97872 6.58179 1.98408 5.99256 2.22588 5.42489C2.68321 4.35166 3.56548 3.3443 4.16826 2.7286ZM5.8167 3.66708C5.68805 3.57886 5.44603 3.56852 5.24053 3.77841C4.66377 4.36753 3.94821 5.20918 3.60576 6.01278C3.50905 6.23984 3.48979 6.51915 3.54424 6.837C3.74605 8.01455 4.31875 9.75799 7.26982 12.7091C10.2208 15.66 11.9644 16.2319 13.1419 16.4337C13.4597 16.4881 13.7381 16.4689 13.9651 16.3722C14.7688 16.0298 15.6113 15.3152 16.2005 14.7384C16.4104 14.5328 16.4001 14.2898 16.3118 14.1612C15.6856 13.2491 14.7446 12.3453 13.7239 11.6944C13.5925 11.6107 13.484 11.6249 13.428 11.6563C13.035 11.877 12.6853 12.2273 12.055 12.8604C11.7435 13.1732 11.2111 13.2797 10.7854 12.9796L10.4339 12.7237C10.0055 12.4016 9.36756 11.8879 8.72881 11.2491C7.87706 10.3973 7.24809 9.54746 6.99834 9.19344C6.69814 8.76771 6.80561 8.23445 7.11846 7.92294C7.75132 7.29295 8.10196 6.94373 8.32256 6.55087C8.35398 6.49488 8.36835 6.38553 8.28447 6.25399C7.63357 5.23327 6.72884 4.2933 5.8167 3.66708ZM10.5433 4.49911C10.6814 4.10879 11.1099 3.90408 11.5003 4.04208C13.5777 4.77642 15.223 6.42173 15.9573 8.49911C16.0953 8.88951 15.8906 9.31795 15.5003 9.45614C15.1098 9.59416 14.6813 9.38959 14.5433 8.99911C13.96 7.34893 12.6505 6.03946 11.0003 5.45614C10.6098 5.31807 10.4052 4.88962 10.5433 4.49911ZM11.5433 1.49911C11.6814 1.10879 12.1099 0.904083 12.5003 1.04208C15.5096 2.10582 17.8936 4.48977 18.9573 7.49911C19.0953 7.88951 18.8906 8.31795 18.5003 8.45614C18.1098 8.59416 17.6813 8.38959 17.5433 7.99911C16.6306 5.41697 14.5824 3.36886 12.0003 2.45614C11.6098 2.31807 11.4052 1.88962 11.5433 1.49911Z" fill="#1D1C1D"/>
</svg>
