<svg width="12" height="12" viewBox="0 0 12 12" fill="none" xmlns="http://www.w3.org/2000/svg">
<path d="M2.82264 1.95199C3.07622 1.69301 3.46171 1.63496 3.74452 1.82895C4.34461 2.24087 4.92886 2.8502 5.34999 3.51059C5.47089 3.7002 5.50187 3.94503 5.38612 4.15121C5.21617 4.4538 4.95118 4.71183 4.58827 5.07309C4.53749 5.12378 4.5277 5.20118 4.56678 5.25668C4.70875 5.45792 5.06987 5.94531 5.55604 6.43149C6.04218 6.91761 6.52962 7.27879 6.73085 7.42074C6.78633 7.45962 6.86383 7.44996 6.91444 7.39926C7.27573 7.03632 7.5337 6.77135 7.83631 6.60141C8.04241 6.48571 8.28638 6.51676 8.47596 6.63754C9.13643 7.05868 9.74661 7.64286 10.1586 8.24301C10.3523 8.5257 10.2942 8.91041 10.0355 9.16391C9.67415 9.51774 9.11916 9.99711 8.55604 10.2371C8.31755 10.3387 8.05683 10.347 7.80897 10.3045C6.98936 10.1641 5.86271 9.76257 4.04335 7.9432C2.22449 6.12425 1.82348 4.99809 1.68299 4.17856C1.64052 3.9307 1.6478 3.66998 1.7494 3.43149C1.98932 2.86834 2.46874 2.31348 2.82264 1.95199Z" fill="#1D1C1D"/>
</svg>
