<svg width="20" height="20" viewBox="0 0 20 20" fill="none" xmlns="http://www.w3.org/2000/svg">
<path d="M9.99431 6.06055C14.019 6.06055 15.8231 6.86683 17.0109 7.70703C17.4017 7.98351 17.7878 8.37679 18.0041 8.91406C18.4061 9.91318 18.487 11.1424 18.4953 11.9297C18.5042 12.7908 17.9447 13.6256 17.0236 13.7969C15.8313 14.0185 14.4471 13.9875 13.1925 13.71C12.6453 13.5889 12.0928 13.1947 11.9064 12.5312C11.766 12.0312 11.745 11.4987 11.7433 10.9316C11.3083 10.8734 10.6804 10.8096 9.99431 10.8096C9.30792 10.8096 8.6802 10.8734 8.24528 10.9316C8.24362 11.4987 8.22363 12.0312 8.08317 12.5312C7.89677 13.1947 7.34432 13.5889 6.79704 13.71C5.54244 13.9875 4.15833 14.0185 2.96599 13.7969C2.04487 13.6256 1.4854 12.7908 1.49431 11.9297C1.50262 11.1424 1.58346 9.91318 1.98552 8.91406C2.20177 8.37679 2.58786 7.98351 2.97868 7.70703C4.16641 6.86687 5.96997 6.06061 9.99431 6.06055ZM9.99431 7.56055C6.19936 7.56061 4.72045 8.31229 3.84489 8.93164C3.6118 9.09653 3.45508 9.28004 3.37712 9.47363C3.08443 10.2008 3.00223 11.1951 2.99431 11.9453C2.99185 12.1857 3.13662 12.303 3.2404 12.3223C4.22301 12.5049 5.4032 12.4818 6.47282 12.2451C6.52784 12.2329 6.57146 12.209 6.5988 12.1855C6.62319 12.1645 6.63441 12.1451 6.63981 12.126C6.7479 11.7412 6.74715 11.3004 6.74528 10.4824C6.7443 10.0514 7.03851 9.60749 7.54216 9.52051L7.93474 9.45898C8.42075 9.39015 9.1664 9.3096 9.99431 9.30957C11.0981 9.30957 12.0561 9.45293 12.4474 9.52051C12.9511 9.60749 13.2453 10.0514 13.2443 10.4824C13.2424 11.3004 13.2417 11.7412 13.3498 12.126C13.3552 12.1451 13.3664 12.1645 13.3908 12.1855C13.4181 12.209 13.4617 12.2329 13.5168 12.2451C14.5864 12.4817 15.7666 12.5049 16.7492 12.3223C16.853 12.303 16.9977 12.1857 16.9953 11.9453C16.9874 11.1951 16.9052 10.2008 16.6125 9.47363C16.5345 9.28004 16.3778 9.09654 16.1447 8.93164C15.2691 8.31226 13.7896 7.56055 9.99431 7.56055Z" fill="#1D1C1D"/>
</svg>
