<svg width="20" height="20" viewBox="0 0 20 20" fill="none" xmlns="http://www.w3.org/2000/svg">
<path d="M4.70484 3.25276C5.12752 2.82111 5.76963 2.72519 6.24097 3.04866C7.24121 3.73527 8.21485 4.75063 8.91675 5.8514C9.11819 6.16731 9.16998 6.57424 8.9773 6.9178C8.69407 7.42232 8.25227 7.85261 7.64722 8.45491C7.56243 8.53944 7.54676 8.66899 7.61206 8.76155C7.84889 9.09722 8.44959 9.90962 9.25952 10.7196C10.0696 11.5296 10.882 12.1303 11.2175 12.367C11.3101 12.4324 11.4397 12.4158 11.5242 12.3309C12.1263 11.726 12.5569 11.285 13.0613 11.0018C13.4048 10.8091 13.8118 10.8609 14.1277 11.0623C15.2282 11.7641 16.2439 12.7371 16.9304 13.7371C17.254 14.2085 17.1571 14.8515 16.7253 15.2742C16.1229 15.8641 15.1981 16.6625 14.2595 17.0623C13.8621 17.2317 13.4284 17.2444 13.0154 17.1737C11.6494 16.9396 9.77232 16.2714 6.73999 13.2391C3.70762 10.2067 3.03852 8.32972 2.80445 6.9637C2.73368 6.55064 2.74743 6.11701 2.91675 5.71956C3.31671 4.78077 4.11496 3.85523 4.70484 3.25276ZM11.4998 3.21272C11.9138 3.21272 12.2495 3.5487 12.2498 3.96272C12.2498 4.37694 11.914 4.71272 11.4998 4.71272C11.0857 4.71248 10.7498 4.37679 10.7498 3.96272C10.75 3.54885 11.0859 3.21296 11.4998 3.21272ZM13.9998 3.21272C14.4138 3.21272 14.7495 3.5487 14.7498 3.96272C14.7498 4.37694 14.414 4.71272 13.9998 4.71272C13.5857 4.71248 13.2498 4.37679 13.2498 3.96272C13.25 3.54885 13.5859 3.21296 13.9998 3.21272ZM16.4998 3.21272C16.9138 3.21272 17.2495 3.5487 17.2498 3.96272C17.2498 4.37694 16.914 4.71272 16.4998 4.71272C16.0857 4.71248 15.7498 4.37679 15.7498 3.96272C15.75 3.54885 16.0859 3.21296 16.4998 3.21272Z" fill="#1D1C1D"/>
</svg>
