<svg width="20" height="20" viewBox="0 0 20 20" fill="none" xmlns="http://www.w3.org/2000/svg">
<path d="M11.25 17C11.6642 17 12 17.3358 12 17.75C12 18.1642 11.6642 18.5 11.25 18.5H3.25C2.83579 18.5 2.5 18.1642 2.5 17.75C2.5 17.3358 2.83579 17 3.25 17H11.25ZM15.25 13C15.6642 13 16 13.3358 16 13.75C16 14.1642 15.6642 14.5 15.25 14.5H3.25C2.83579 14.5 2.5 14.1642 2.5 13.75C2.5 13.3358 2.83579 13 3.25 13H15.25ZM15.75 5C16.7165 5 17.5 5.7835 17.5 6.75V8.79883C17.5 9.76533 16.7165 10.5488 15.75 10.5488H4.25C3.2835 10.5488 2.5 9.76533 2.5 8.79883V6.75C2.5 5.7835 3.2835 5 4.25 5H15.75ZM4.25 6.5C4.11193 6.5 4 6.61193 4 6.75V8.79883C4 8.9369 4.11193 9.04883 4.25 9.04883H15.75C15.8881 9.04883 16 8.9369 16 8.79883V6.75C16 6.61193 15.8881 6.5 15.75 6.5H4.25ZM6.25 1.5C6.66421 1.5 7 1.83579 7 2.25C7 2.66421 6.66421 3 6.25 3H3.25C2.83579 3 2.5 2.66421 2.5 2.25C2.5 1.83579 2.83579 1.5 3.25 1.5H6.25Z" fill="#1D1C1D"/>
</svg>
