<svg width="20" height="20" viewBox="0 0 20 20" fill="none" xmlns="http://www.w3.org/2000/svg">
<path d="M4.16828 2.72941C4.80806 2.07598 5.85128 1.87202 6.66535 2.43059C7.75344 3.17754 8.79638 4.26861 9.54914 5.44914C9.86798 5.94943 9.985 6.65413 9.63117 7.28508C9.3477 7.79001 8.93841 8.22503 8.48273 8.68156C8.77566 9.06844 9.23082 9.63078 9.78937 10.1894C10.3484 10.7484 10.9112 11.204 11.2982 11.497C11.7546 11.0414 12.1889 10.632 12.6937 10.3486C13.3248 9.9945 14.0302 10.1116 14.5306 10.4306C15.7109 11.1833 16.8013 12.2255 17.5482 13.3134C18.107 14.1275 17.9038 15.1706 17.2503 15.8105C16.6347 16.4132 15.6273 17.2954 14.554 17.7529C13.9864 17.9947 13.3971 18.001 12.889 17.914C11.3345 17.6476 9.32265 16.8837 6.2093 13.7704C3.09602 10.6572 2.33216 8.64519 2.06574 7.09074C1.97874 6.58263 1.98414 5.99334 2.2259 5.4257C2.68322 4.35251 3.5655 3.34512 4.16828 2.72941ZM5.81672 3.66789C5.68814 3.57967 5.44602 3.56861 5.24055 3.77824C4.66374 4.3674 3.94824 5.20989 3.60578 6.01359C3.50905 6.24067 3.48979 6.51992 3.54426 6.83781C3.74607 8.01533 4.31902 9.75801 7.26984 12.7089C10.2209 15.66 11.9644 16.2327 13.1419 16.4345C13.4597 16.4889 13.7382 16.4697 13.9652 16.373C14.7688 16.0306 15.6113 15.316 16.2005 14.7392C16.4105 14.5336 16.4001 14.2907 16.3118 14.162C15.6856 13.2499 14.7447 12.3461 13.7239 11.6952C13.5925 11.6115 13.484 11.6257 13.428 11.6571C13.0351 11.8778 12.6853 12.2281 12.055 12.8613C11.7435 13.174 11.2111 13.2805 10.7855 12.9804L10.4339 12.7245C10.0055 12.4024 9.36761 11.8887 8.72883 11.2499C7.87711 10.3982 7.24815 9.54833 6.99836 9.19426C6.69816 8.76853 6.80563 8.23526 7.11848 7.92375C7.75146 7.29364 8.10198 6.94365 8.32258 6.5507C8.35381 6.49457 8.36813 6.38597 8.28449 6.2548C7.63359 5.23405 6.72888 4.29413 5.81672 3.66789ZM17.4954 1.63859C17.7883 1.34578 18.2631 1.34577 18.556 1.63859C18.8488 1.93147 18.8488 2.40626 18.556 2.69914L16.5599 4.69426L18.556 6.69035C18.8485 6.98327 18.8488 7.45811 18.556 7.7509C18.2632 8.04352 17.7883 8.04342 17.4954 7.7509L15.4993 5.7548L13.5042 7.7509C13.2113 8.04329 12.7364 8.04357 12.4437 7.7509C12.151 7.45816 12.1513 6.98327 12.4437 6.69035L14.4388 4.69426L12.4437 2.69914C12.1509 2.4063 12.151 1.93149 12.4437 1.63859C12.7366 1.34571 13.2113 1.34574 13.5042 1.63859L15.4993 3.63371L17.4954 1.63859Z" fill="#1D1C1D"/>
</svg>
