<svg width="20" height="20" viewBox="0 0 20 20" fill="none" xmlns="http://www.w3.org/2000/svg">
<path d="M4.16828 2.72958C4.80807 2.07614 5.85129 1.87219 6.66535 2.43075C7.75345 3.17771 8.79639 4.26877 9.54914 5.4493C9.86798 5.94958 9.98499 6.6543 9.63117 7.28524C9.34771 7.79018 8.93842 8.22519 8.48274 8.68173C8.77566 9.06861 9.23082 9.63095 9.78938 10.1895C10.3484 10.7485 10.9112 11.2042 11.2982 11.4972C11.7546 11.0416 12.1889 10.6322 12.6937 10.3487C13.3248 9.99467 14.0302 10.1118 14.5306 10.4307C15.7109 11.1834 16.8013 12.2257 17.5482 13.3136C18.107 14.1276 17.9038 15.1708 17.2503 15.8106C16.6347 16.4133 15.6273 17.2955 14.554 17.753C13.9864 17.9948 13.3971 18.0011 12.889 17.9141C11.3345 17.6478 9.32266 16.8839 6.2093 13.7706C3.09601 10.6573 2.33216 8.64536 2.06574 7.09091C1.97874 6.58279 1.98413 5.99351 2.2259 5.42587C2.68323 4.35266 3.56551 3.34528 4.16828 2.72958ZM5.81672 3.66805C5.68815 3.57984 5.44602 3.56879 5.24055 3.77841C4.66375 4.36756 3.94825 5.21006 3.60578 6.01376C3.50906 6.24084 3.48979 6.52009 3.54426 6.83798C3.74607 8.01549 4.31901 9.75816 7.26985 12.7091C10.2209 15.6601 11.9644 16.2328 13.1419 16.4347C13.4597 16.4891 13.7382 16.4698 13.9652 16.3731C14.7688 16.0307 15.6113 15.3162 16.2005 14.7393C16.4105 14.5338 16.4001 14.2908 16.3118 14.1622C15.6856 13.2501 14.7447 12.3463 13.7239 11.6954C13.5925 11.6116 13.484 11.6259 13.428 11.6573C13.0351 11.878 12.6853 12.2283 12.055 12.8614C11.7435 13.1742 11.2111 13.2807 10.7855 12.9806L10.4339 12.7247C10.0055 12.4026 9.36761 11.8889 8.72883 11.2501C7.87711 10.3983 7.24815 9.54849 6.99836 9.19442C6.69816 8.76869 6.80563 8.23543 7.11848 7.92391C7.75133 7.29394 8.10198 6.94469 8.32258 6.55184C8.354 6.49586 8.36837 6.38651 8.28449 6.25497C7.63359 5.23422 6.72888 4.29429 5.81672 3.66805ZM11.556 3.21493C11.9701 3.21504 12.306 3.55078 12.306 3.96493C12.3058 4.37889 11.97 4.71482 11.556 4.71493C11.1419 4.71493 10.8062 4.37896 10.806 3.96493C10.806 3.55072 11.1418 3.21493 11.556 3.21493ZM14.056 3.21493C14.4701 3.21504 14.806 3.55078 14.806 3.96493C14.8058 4.37889 14.47 4.71482 14.056 4.71493C13.6419 4.71493 13.3062 4.37896 13.306 3.96493C13.306 3.55072 13.6418 3.21493 14.056 3.21493ZM16.556 3.21493C16.9701 3.21504 17.306 3.55078 17.306 3.96493C17.3058 4.37889 16.97 4.71482 16.556 4.71493C16.1419 4.71493 15.8062 4.37896 15.806 3.96493C15.806 3.55072 16.1418 3.21493 16.556 3.21493Z" fill="#1D1C1D"/>
</svg>
