<svg width="20" height="20" viewBox="0 0 20 20" fill="none" xmlns="http://www.w3.org/2000/svg">
<path d="M12 2C12.2603 2 12.5021 2.13486 12.6387 2.35645L13.6494 4H14.75C16.8211 4 18.5 5.67893 18.5 7.75V13.75C18.5 15.8211 16.8211 17.5 14.75 17.5H5.25C3.17893 17.5 1.5 15.8211 1.5 13.75V7.75C1.5 5.67893 3.17893 4 5.25 4H6.22559L7.08984 2.39453L7.14453 2.30762C7.28449 2.116 7.50866 2 7.75 2H12ZM7.33301 5.10547C7.20218 5.34835 6.94873 5.5 6.67285 5.5H5.25C4.00736 5.5 3 6.50736 3 7.75V13.75C3 14.9926 4.00736 16 5.25 16H14.75C15.9926 16 17 14.9926 17 13.75V7.75C17 6.50736 15.9926 5.5 14.75 5.5H13.2305C12.9702 5.4999 12.7283 5.36513 12.5918 5.14355L11.5811 3.5H8.19727L7.33301 5.10547ZM10 6.5C12.2091 6.5 14 8.29086 14 10.5C14 12.7091 12.2091 14.5 10 14.5C7.79086 14.5 6 12.7091 6 10.5C6 8.29086 7.79086 6.5 10 6.5ZM10 8C8.61929 8 7.5 9.11929 7.5 10.5C7.5 11.8807 8.61929 13 10 13C11.3807 13 12.5 11.8807 12.5 10.5C12.5 9.11929 11.3807 8 10 8Z" fill="#1D1C1D"/>
</svg>
