<svg width="20" height="20" viewBox="0 0 20 20" fill="none" xmlns="http://www.w3.org/2000/svg">
<path d="M12 2C12.2603 2 12.5021 2.13486 12.6387 2.35645L13.6494 4H14.75C16.8211 4 18.5 5.67893 18.5 7.75V13.75C18.5 15.8211 16.8211 17.5 14.75 17.5H5.25C3.17893 17.5 1.5 15.8211 1.5 13.75V7.75C1.5 5.67893 3.17893 4 5.25 4H6.22559L7.08984 2.39453C7.22065 2.1516 7.47409 2 7.75 2H12ZM10 6.5C7.79086 6.5 6 8.29086 6 10.5C6 12.7091 7.79086 14.5 10 14.5C12.2091 14.5 14 12.7091 14 10.5C14 8.29086 12.2091 6.5 10 6.5ZM10 8C11.3807 8 12.5 9.11929 12.5 10.5C12.5 11.8807 11.3807 13 10 13C8.61929 13 7.5 11.8807 7.5 10.5C7.5 9.11929 8.61929 8 10 8Z" fill="#1D1C1D"/>
</svg>
