<svg width="20" height="20" viewBox="0 0 20 20" fill="none" xmlns="http://www.w3.org/2000/svg">
<path d="M12.2217 2.5C12.5523 2.50006 12.8616 2.66339 13.0479 2.93652L13.9658 4.28223C14.059 4.41847 14.2138 4.5 14.3789 4.5H15.75C17.2688 4.5 18.5 5.73122 18.5 7.25V14.75C18.5 16.2688 17.2688 17.5 15.75 17.5H4.25C2.73122 17.5 1.5 16.2688 1.5 14.75V7.25C1.5 5.73122 2.73122 4.5 4.25 4.5H5.62109C5.78618 4.5 5.941 4.41847 6.03418 4.28223L6.95215 2.93652C7.13839 2.66339 7.44774 2.50006 7.77832 2.5H12.2217ZM12.7295 10.5977C12.4548 10.5728 12.2118 10.7761 12.1865 11.0508L12.1543 11.4092C12.0723 12.3104 11.3161 13.0008 10.4111 13.001H8.20605L9.10254 12.1055C9.29778 11.9102 9.29778 11.5937 9.10254 11.3984C8.90728 11.2032 8.59077 11.2032 8.39551 11.3984L6.64648 13.1475C6.45124 13.3427 6.45123 13.6592 6.64648 13.8545L8.39551 15.6035C8.59077 15.7987 8.90729 15.7987 9.10254 15.6035C9.29778 15.4083 9.29775 15.0918 9.10254 14.8965L8.20703 14.001H10.4111C11.8332 14.0008 13.0204 12.9161 13.1494 11.5L13.1826 11.1406C13.2071 10.866 13.0041 10.6227 12.7295 10.5977ZM11.2891 5.39648C11.0938 5.20132 10.7773 5.20138 10.582 5.39648C10.3868 5.59173 10.3868 5.90825 10.582 6.10352L11.4775 6.99902H9.27344C7.85131 6.99904 6.66416 8.08378 6.53516 9.5L6.50195 9.85938C6.4774 10.1341 6.68033 10.3774 6.95508 10.4023C7.22979 10.4271 7.47285 10.2239 7.49805 9.94922L7.53027 9.59082C7.61228 8.68951 8.36839 7.99904 9.27344 7.99902H11.4775L10.582 8.89453C10.3868 9.08979 10.3868 9.4063 10.582 9.60156C10.7773 9.79658 11.0939 9.79673 11.2891 9.60156L13.0381 7.85254C13.2331 7.65734 13.2331 7.34074 13.0381 7.14551L11.2891 5.39648Z" fill="#1D1C1D"/>
</svg>
