<svg width="20" height="20" viewBox="0 0 20 20" fill="none" xmlns="http://www.w3.org/2000/svg">
<path d="M12.868 6.45294C13.3783 6.45305 13.8637 6.6761 14.1961 7.06329L15.1727 8.20001H15.7479C17.2664 8.20022 18.4977 9.43149 18.4979 10.95V15.2498C18.4976 16.7682 17.2663 17.9996 15.7479 17.9998H8.39044C6.87182 17.9998 5.6407 16.7684 5.64044 15.2498V10.95C5.6406 9.43136 6.87175 8.20001 8.39044 8.20001H8.98321L9.95977 7.06329C10.2922 6.67601 10.7775 6.45294 11.2879 6.45294H12.868ZM11.2879 7.95294C11.215 7.95294 11.145 7.98454 11.0975 8.03986L9.89727 9.43927C9.75488 9.60502 9.54645 9.6999 9.32794 9.70001H8.39044C7.70018 9.70001 7.1406 10.2598 7.14044 10.95V15.2498C7.1407 15.9399 7.70024 16.4998 8.39044 16.4998H15.7479C16.4379 16.4996 16.9976 15.9398 16.9979 15.2498V10.95C16.9977 10.2599 16.4379 9.70022 15.7479 9.70001H14.8279C14.6095 9.70001 14.4011 9.60488 14.2586 9.43927L13.0584 8.03986C13.011 7.98463 12.9407 7.95305 12.868 7.95294H11.2879ZM12.0545 10.0008C13.6748 10.001 14.9881 11.315 14.9881 12.9354C14.9876 14.5554 13.6746 15.8688 12.0545 15.869C10.4343 15.8689 9.12039 14.5554 9.11993 12.9354C9.11993 11.3149 10.434 10.0009 12.0545 10.0008ZM12.0545 11.5008C11.2625 11.5009 10.6199 12.1433 10.6199 12.9354C10.6204 13.727 11.2628 14.3689 12.0545 14.369C12.8461 14.3688 13.4876 13.7269 13.4881 12.9354C13.4881 12.1434 12.8464 11.501 12.0545 11.5008ZM11.2732 1.78595C12.6329 1.55405 13.9232 2.46834 14.1551 3.82794L14.2684 4.49493C14.338 4.90325 14.0634 5.2915 13.6551 5.36115C13.2471 5.43036 12.8596 5.15577 12.7899 4.74786L12.6766 4.0799C12.5839 3.53692 12.0682 3.17185 11.5252 3.26447L3.32989 4.66193C2.78698 4.7546 2.42186 5.27035 2.51446 5.81329L3.47052 11.4188C3.50744 11.6352 3.61059 11.8219 3.75567 11.9637C4.05164 12.2532 4.05681 12.7281 3.76739 13.0242C3.47786 13.3202 3.003 13.3254 2.70684 13.036C2.34304 12.6803 2.08389 12.2094 1.992 11.6707L1.03595 6.06525C0.80406 4.70568 1.71839 3.41537 3.07794 3.18341L11.2732 1.78595Z" fill="#1D1C1D"/>
</svg>
