<svg width="20" height="20" viewBox="0 0 20 20" fill="none" xmlns="http://www.w3.org/2000/svg">
<path d="M12.867 6.45294C13.3774 6.45294 13.8626 6.676 14.1951 7.06329L15.1717 8.20001H15.7469C17.2655 8.20001 18.4967 9.43136 18.4969 10.95V15.2498C18.4967 16.7684 17.2655 17.9998 15.7469 17.9998H8.38944C6.87095 17.9996 5.63964 16.7683 5.63944 15.2498V10.95C5.6396 9.43148 6.87093 8.20021 8.38944 8.20001H8.98222L9.95878 7.06329C10.2912 6.6761 10.7766 6.45305 11.2869 6.45294H12.867ZM12.0613 10.0008C10.4411 10.0011 9.12675 11.315 9.12675 12.9354C9.12741 14.5551 10.4415 15.8686 12.0613 15.869C13.6813 15.8688 14.9943 14.5552 14.9949 12.9354C14.9949 11.315 13.6817 10.001 12.0613 10.0008ZM12.0613 11.5008C12.8532 11.501 13.4949 12.1434 13.4949 12.9354C13.4943 13.7268 12.8528 14.3688 12.0613 14.369C11.2699 14.3686 10.6274 13.7267 10.6267 12.9354C10.6267 12.1435 11.2695 11.5011 12.0613 11.5008ZM11.2732 1.78595C12.6328 1.55405 13.9231 2.4684 14.1551 3.82794L14.2683 4.49493C14.338 4.90325 14.0634 5.2915 13.6551 5.36114C13.2471 5.43037 12.8596 5.15577 12.7898 4.74786L12.6766 4.07989C12.5839 3.53698 12.0681 3.17186 11.5252 3.26446L3.32987 4.66192C2.78699 4.75458 2.42192 5.27038 2.51444 5.81329L3.4705 11.4188C3.50741 11.6352 3.6106 11.8219 3.75565 11.9637C4.05162 12.2532 4.05679 12.7281 3.76737 13.0242C3.47784 13.3203 3.003 13.3254 2.70682 13.0359C2.34305 12.6803 2.08387 12.2094 1.99198 11.6707L1.03593 6.06524C0.804113 4.70571 1.7184 3.41535 3.07792 3.18341L11.2732 1.78595Z" fill="#1D1C1D"/>
</svg>
