<svg width="20" height="20" viewBox="0 0 20 20" fill="none" xmlns="http://www.w3.org/2000/svg">
<path d="M14.75 1.5C16.8211 1.5 18.5 3.17893 18.5 5.25V10.9854C18.5 11.7147 18.21 12.414 17.6943 12.9297L12.9297 17.6943C12.414 18.21 11.7147 18.5 10.9854 18.5H5.25C3.17893 18.5 1.5 16.8211 1.5 14.75V5.25C1.5 3.17893 3.17893 1.5 5.25 1.5H14.75ZM12.25 10.75C11.4216 10.75 10.75 11.4216 10.75 12.25V15.5C10.75 15.9142 11.0858 16.25 11.5 16.25C11.9142 16.25 12.25 15.9142 12.25 15.5V12.75C12.25 12.4739 12.4739 12.25 12.75 12.25H15.5C15.9142 12.25 16.25 11.9142 16.25 11.5C16.25 11.0858 15.9142 10.75 15.5 10.75H12.25ZM6.25 8.09961C5.83592 8.09961 5.50021 8.43558 5.5 8.84961C5.5 9.26382 5.83579 9.59961 6.25 9.59961H8.25C8.66421 9.59961 9 9.26382 9 8.84961C8.99979 8.43558 8.66408 8.09961 8.25 8.09961H6.25ZM6.25 5.09961C5.83592 5.09961 5.50021 5.43558 5.5 5.84961C5.5 6.26382 5.83579 6.59961 6.25 6.59961H13.75C14.1642 6.59961 14.5 6.26382 14.5 5.84961C14.4998 5.43558 14.1641 5.09961 13.75 5.09961H6.25Z" fill="#1D1C1D"/>
</svg>
