<svg width="12" height="12" viewBox="0 0 12 12" fill="none" xmlns="http://www.w3.org/2000/svg">
<path d="M8.85022 0.900391C10.0928 0.900496 11.1002 1.90782 11.1002 3.15039V6.5918C11.1002 7.02936 10.9262 7.44938 10.6168 7.75879L7.75842 10.6172C7.44902 10.9266 7.02899 11.1006 6.59143 11.1006H3.15002C1.90745 11.1006 0.90013 10.0931 0.900024 8.85059V3.15039C0.900024 1.90775 1.90738 0.900391 3.15002 0.900391H8.85022ZM7.35022 6.4502C6.85316 6.4502 6.44983 6.85353 6.44983 7.35059V9.30078C6.45004 9.54913 6.65163 9.75 6.90002 9.75C7.14842 9.75 7.35001 9.54913 7.35022 9.30078V7.85059C7.35022 7.57444 7.57408 7.35059 7.85022 7.35059H9.30042C9.54876 7.35037 9.74963 7.14879 9.74963 6.90039C9.74963 6.65199 9.54876 6.45041 9.30042 6.4502H7.35022Z" fill="#1D1C1D"/>
</svg>
