<svg width="20" height="20" viewBox="0 0 20 20" fill="none" xmlns="http://www.w3.org/2000/svg">
<path d="M12.1641 1.5C13.8983 1.50014 15.322 2.82364 15.4834 4.51562C17.1759 4.67651 18.4999 6.10135 18.5 7.83594V11.8047C18.4999 12.5339 18.21 13.2334 17.6943 13.749L13.749 17.6943C13.2334 18.21 12.5339 18.4999 11.8047 18.5H7.83594C6.10135 18.4999 4.67651 17.1759 4.51562 15.4834C2.82364 15.322 1.50014 13.8983 1.5 12.1641V4.83594C1.50015 2.99361 2.99361 1.50015 4.83594 1.5H12.1641ZM13 11.5C12.1716 11.5 11.5 12.1716 11.5 13V15.75C11.5 16.1642 11.8358 16.5 12.25 16.5C12.6642 16.5 13 16.1642 13 15.75V13H15.75C16.1642 13 16.5 12.6642 16.5 12.25C16.5 11.8358 16.1642 11.5 15.75 11.5H13ZM4.83594 3C3.82204 3.00015 3.00015 3.82204 3 4.83594V12.1641C3.00013 13.0631 3.64667 13.8097 4.5 13.9678V7.83594C4.50015 5.99362 5.99361 4.50015 7.83594 4.5H13.9678C13.8097 3.64667 13.0631 3.00013 12.1641 3H4.83594Z" fill="#1D1C1D"/>
</svg>
