<svg width="20" height="20" viewBox="0 0 20 20" fill="none" xmlns="http://www.w3.org/2000/svg">
<path d="M14.75 1.5C16.8211 1.5 18.5 3.17893 18.5 5.25V10.9854C18.5 11.7147 18.21 12.414 17.6943 12.9297L12.9297 17.6943C12.414 18.21 11.7147 18.5 10.9854 18.5H5.25C3.17893 18.5 1.5 16.8211 1.5 14.75V5.25C1.5 3.17893 3.17893 1.5 5.25 1.5H14.75ZM5.25 3C4.00736 3 3 4.00736 3 5.25V14.75C3 15.9926 4.00736 17 5.25 17H10.75V12.25C10.75 11.4216 11.4216 10.75 12.25 10.75H17V5.25C17 4.00736 15.9926 3 14.75 3H5.25ZM12.25 16.2529L16.2529 12.25H12.25V16.2529Z" fill="#1D1C1D"/>
</svg>
