<svg width="12" height="12" viewBox="0 0 12 12" fill="none" xmlns="http://www.w3.org/2000/svg">
<path d="M8.84998 0.849609C10.1202 0.849609 11.1497 1.87925 11.1498 3.14941V6.25977C11.1497 6.92272 10.8861 7.55856 10.4174 8.02734L8.02771 10.417C7.55893 10.8858 6.92308 11.1493 6.26013 11.1494H3.14978C1.87962 11.1493 0.849976 10.1198 0.849976 8.84961V3.14941C0.850081 1.87931 1.87968 0.849715 3.14978 0.849609H8.84998ZM3.14978 1.84961C2.43196 1.84971 1.85008 2.4316 1.84998 3.14941V8.84961C1.84998 9.56751 2.4319 10.1493 3.14978 10.1494H6.26013C6.30699 10.1494 6.35351 10.1459 6.39978 10.1416V7.64941C6.39989 6.95921 6.95958 6.39952 7.64978 6.39941H10.142C10.1463 6.35314 10.1498 6.30662 10.1498 6.25977V3.14941C10.1497 2.43153 9.56788 1.84961 8.84998 1.84961H3.14978ZM7.64978 7.39941C7.51186 7.39952 7.39989 7.5115 7.39978 7.64941V9.63086L9.63123 7.39941H7.64978Z" fill="#1D1C1D"/>
</svg>
