<svg width="20" height="20" viewBox="0 0 20 20" fill="none" xmlns="http://www.w3.org/2000/svg">
<path d="M14.75 1.5C16.8211 1.5 18.5 3.17893 18.5 5.25V10.9854C18.5 11.7147 18.21 12.414 17.6943 12.9297L12.9297 17.6943C12.414 18.21 11.7147 18.5 10.9854 18.5H5.25C3.17893 18.5 1.5 16.8211 1.5 14.75V5.25C1.5 3.17893 3.17893 1.5 5.25 1.5H14.75ZM5.25 3C4.00736 3 3 4.00736 3 5.25V14.75C3 15.9926 4.00736 17 5.25 17H10.75V12.25C10.75 11.4216 11.4216 10.75 12.25 10.75H17V5.25C17 4.00736 15.9926 3 14.75 3H5.25ZM12.25 16.2529L16.2529 12.25H12.25V16.2529ZM8.25 8.5C8.66421 8.5 9 8.83579 9 9.25C9 9.66421 8.66421 10 8.25 10H6.25C5.83579 10 5.5 9.66421 5.5 9.25C5.5 8.83579 5.83579 8.5 6.25 8.5H8.25ZM13.75 5.5C14.1642 5.5 14.5 5.83579 14.5 6.25C14.5 6.66421 14.1642 7 13.75 7H6.25C5.83579 7 5.5 6.66421 5.5 6.25C5.5 5.83579 5.83579 5.5 6.25 5.5H13.75Z" fill="#1D1C1D"/>
</svg>
