<svg width="20" height="20" viewBox="0 0 20 20" fill="none" xmlns="http://www.w3.org/2000/svg">
<path d="M15.5 1.5C17.1569 1.5 18.5 2.84315 18.5 4.5V15.5C18.5 17.1569 17.1569 18.5 15.5 18.5H4.5C2.84315 18.5 1.5 17.1569 1.5 15.5V4.5C1.5 2.84315 2.84315 1.5 4.5 1.5H15.5ZM13.5303 8.21973C13.2374 7.92683 12.7626 7.92683 12.4697 8.21973L10 10.6895L7.53027 8.21973C7.23738 7.92683 6.76262 7.92683 6.46973 8.21973C6.17684 8.51262 6.17684 8.98738 6.46973 9.28027L9.46973 12.2803C9.61038 12.4209 9.80109 12.5 10 12.5C10.1989 12.5 10.3896 12.4209 10.5303 12.2803L13.5303 9.28027C13.8232 8.98738 13.8232 8.51262 13.5303 8.21973Z" fill="#1D1C1D"/>
</svg>
