<svg width="20" height="20" viewBox="0 0 20 20" fill="none" xmlns="http://www.w3.org/2000/svg">
<path d="M15.5 1.5C17.1569 1.5 18.5 2.84315 18.5 4.5V15.5C18.5 17.1569 17.1569 18.5 15.5 18.5H4.5C2.84315 18.5 1.5 17.1569 1.5 15.5V4.5C1.5 2.89489 2.76055 1.58421 4.3457 1.50391L4.5 1.5H15.5ZM4.5 3C3.67157 3 3 3.67157 3 4.5V15.5C3 16.3284 3.67157 17 4.5 17H15.5C16.3284 17 17 16.3284 17 15.5V4.5C17 3.67157 16.3284 3 15.5 3H4.5ZM12.4697 8.21973C12.7626 7.92683 13.2374 7.92683 13.5303 8.21973C13.8232 8.51262 13.8232 8.98738 13.5303 9.28027L10.5303 12.2803C10.3896 12.4209 10.1989 12.5 10 12.5C9.80109 12.5 9.61038 12.4209 9.46973 12.2803L6.46973 9.28027C6.17683 8.98738 6.17683 8.51262 6.46973 8.21973C6.76262 7.92683 7.23738 7.92683 7.53027 8.21973L10 10.6895L12.4697 8.21973Z" fill="#1D1C1D"/>
</svg>
