<svg width="20" height="20" viewBox="0 0 20 20" fill="none" xmlns="http://www.w3.org/2000/svg">
<path d="M2.71967 1.71967C3.01256 1.42678 3.48732 1.42678 3.78021 1.71967L11.5302 9.46967C11.6708 9.61031 11.7499 9.80106 11.7499 9.99994C11.7499 10.1988 11.6708 10.3896 11.5302 10.5302L3.78021 18.2802C3.48732 18.5731 3.01256 18.5731 2.71967 18.2802C2.42678 17.9873 2.42678 17.5126 2.71967 17.2197L9.93939 9.99994L2.71967 2.78021C2.42678 2.48732 2.42678 2.01256 2.71967 1.71967ZM8.96967 1.71967C9.26256 1.42678 9.73732 1.42678 10.0302 1.71967L17.7802 9.46967C17.9208 9.61031 17.9999 9.80106 17.9999 9.99994C17.9999 10.1988 17.9208 10.3896 17.7802 10.5302L10.0302 18.2802C9.73732 18.5731 9.26256 18.5731 8.96967 18.2802C8.67678 17.9873 8.67678 17.5126 8.96967 17.2197L16.1894 9.99994L8.96967 2.78021C8.67678 2.48732 8.67678 2.01256 8.96967 1.71967Z" fill="#1D1C1D"/>
</svg>
