<svg width="20" height="20" viewBox="0 0 20 20" fill="none" xmlns="http://www.w3.org/2000/svg">
<path d="M9.96973 1.71967C10.2626 1.42678 10.7374 1.42678 11.0303 1.71967C11.3232 2.01256 11.3232 2.48732 11.0303 2.78021L3.81055 9.99994L11.0303 17.2197C11.3232 17.5126 11.3232 17.9873 11.0303 18.2802C10.7374 18.5731 10.2626 18.5731 9.96973 18.2802L2.21973 10.5302C2.0791 10.3896 2.00003 10.1988 2 9.99994C2 9.80106 2.07911 9.61031 2.21973 9.46967L9.96973 1.71967ZM16.2197 1.71967C16.5126 1.42678 16.9874 1.42678 17.2803 1.71967C17.5732 2.01256 17.5732 2.48732 17.2803 2.78021L10.0605 9.99994L17.2803 17.2197C17.5732 17.5126 17.5732 17.9873 17.2803 18.2802C16.9874 18.5731 16.5126 18.5731 16.2197 18.2802L8.46973 10.5302C8.3291 10.3896 8.25003 10.1988 8.25 9.99994C8.25 9.80106 8.32911 9.61031 8.46973 9.46967L16.2197 1.71967Z" fill="#1D1C1D"/>
</svg>
