<svg width="20" height="20" viewBox="0 0 20 20" fill="none" xmlns="http://www.w3.org/2000/svg">
<path d="M14.0527 12.3867C14.3455 12.0939 14.8203 12.094 15.1132 12.3867C15.4061 12.6796 15.4061 13.1544 15.1132 13.4473L10.9472 17.6143C10.8067 17.7548 10.6157 17.8339 10.4169 17.834C10.2182 17.834 10.0273 17.7547 9.88666 17.6143L5.71967 13.4473C5.42678 13.1544 5.42678 12.6796 5.71967 12.3867C6.01256 12.0938 6.48732 12.0938 6.78021 12.3867L10.416 16.0225L14.0527 12.3867ZM10.416 2.16699C10.6147 2.16699 10.8056 2.24633 10.9462 2.38672L15.1132 6.55371C15.4061 6.8466 15.4061 7.32137 15.1132 7.61426C14.8203 7.90682 14.3455 7.90704 14.0527 7.61426L10.4169 3.97852L6.78021 7.61426C6.48735 7.90677 6.01246 7.90688 5.71967 7.61426C5.42694 7.32147 5.42712 6.84661 5.71967 6.55371L9.88568 2.38672C10.0262 2.24625 10.2173 2.16719 10.416 2.16699Z" fill="#1D1C1D"/>
</svg>
