<svg width="20" height="20" viewBox="0 0 20 20" fill="none" xmlns="http://www.w3.org/2000/svg">
<path d="M3.59375 1.5C4.41684 1.5 5.12867 2.07368 5.30371 2.87793L5.54785 4H16.6035C17.6132 4.00026 18.3858 4.89918 18.2344 5.89746L17.6494 9.75293C17.5367 10.4952 16.9629 11.0833 16.2236 11.2139L7.45312 12.7607L7.63184 13.583C8.37736 13.7774 8.98638 14.3056 9.29004 15H12.71C13.0959 14.1174 13.9751 13.5 15 13.5C16.3807 13.5 17.5 14.6193 17.5 16C17.5 17.3807 16.3807 18.5 15 18.5C13.7905 18.5 12.7814 17.6411 12.5498 16.5H9.4502C9.21858 17.6411 8.20949 18.5 7 18.5C5.61929 18.5 4.5 17.3807 4.5 16C4.5 14.9307 5.17208 14.0203 6.11621 13.6631L3.83887 3.19727C3.81387 3.08236 3.71134 3 3.59375 3H2.25C1.83579 3 1.5 2.66421 1.5 2.25C1.5 1.83579 1.83579 1.5 2.25 1.5H3.59375ZM7 15C6.44772 15 6 15.4477 6 16C6 16.5523 6.44772 17 7 17C7.55228 17 8 16.5523 8 16C8 15.4477 7.55228 15 7 15ZM15 15C14.4477 15 14 15.4477 14 16C14 16.5523 14.4477 17 15 17C15.5523 17 16 16.5523 16 16C16 15.4477 15.5523 15 15 15ZM7.13477 11.2939L15.9629 9.73633C16.0684 9.71756 16.1499 9.63329 16.166 9.52734L16.751 5.67285C16.7647 5.58222 16.6951 5.50026 16.6035 5.5H5.87402L7.13477 11.2939Z" fill="#1D1C1D"/>
</svg>
