<svg width="20" height="20" viewBox="0 0 20 20" fill="none" xmlns="http://www.w3.org/2000/svg">
<path d="M9.76465 3.60259C9.84613 3.19675 10.2415 2.93353 10.6475 3.0147C11.0534 3.09609 11.3164 3.49153 11.2354 3.89751L10.7148 6.50005H12.25C12.6641 6.50005 12.9999 6.83593 13 7.25005C13 7.66426 12.6642 8.00005 12.25 8.00005H10.415L9.61523 12H11.25C11.6641 12 11.9999 12.3359 12 12.75C12 13.1643 11.6642 13.5 11.25 13.5H9.31445L8.73535 16.3975C8.65395 16.8035 8.25858 17.0666 7.85254 16.9854C7.4466 16.904 7.18344 16.5086 7.26465 16.1026L7.78516 13.5H4.81445L4.23535 16.3975C4.15395 16.8035 3.75858 17.0666 3.35254 16.9854C2.9466 16.904 2.68344 16.5086 2.76465 16.1026L3.28516 13.5H1.75C1.33579 13.5 1 13.1643 1 12.75C1.00011 12.3359 1.33585 12 1.75 12H3.58496L4.38477 8.00005H2.75C2.33579 8.00005 2 7.66426 2 7.25005C2.00011 6.83593 2.33585 6.50005 2.75 6.50005H4.68555L5.26465 3.60259C5.34613 3.19675 5.74149 2.93353 6.14746 3.0147C6.55335 3.09609 6.81644 3.49153 6.73535 3.89751L6.21484 6.50005H9.18555L9.76465 3.60259ZM15.75 6.75005C16.1642 6.75005 16.5 7.08584 16.5 7.50005V9.25005H18.25C18.6642 9.25005 19 9.58584 19 10C19 10.4143 18.6642 10.75 18.25 10.75H16.5V12.5C16.5 12.9143 16.1642 13.25 15.75 13.25C15.3358 13.25 15 12.9143 15 12.5V10.75H13.25C12.8358 10.75 12.5 10.4143 12.5 10C12.5 9.58584 12.8358 9.25005 13.25 9.25005H15V7.50005C15 7.08584 15.3358 6.75005 15.75 6.75005ZM5.11523 12H8.08496L8.88477 8.00005H5.91504L5.11523 12Z" fill="#1D1C1D"/>
</svg>
