<svg width="12" height="12" viewBox="0 0 12 12" fill="none" xmlns="http://www.w3.org/2000/svg">
<path d="M7.5119 2.26766C7.58479 1.85999 7.97431 1.58841 8.38202 1.66122C8.78963 1.7341 9.06117 2.12369 8.98846 2.53133L8.71698 4.04989H10.1994C10.6136 4.04989 10.9494 4.38567 10.9494 4.79989C10.9492 5.21397 10.6135 5.54989 10.1994 5.54989H8.4494L8.02069 7.9493H9.59979C10.0139 7.9493 10.3496 8.28527 10.3498 8.6993C10.3498 9.11352 10.014 9.4493 9.59979 9.4493H7.75311L7.48846 10.9317C7.41549 11.3392 7.0259 11.6108 6.61835 11.5382C6.21071 11.4654 5.93932 11.0757 6.0119 10.6681L6.22968 9.4493H4.90253L4.63788 10.9317C4.56489 11.3393 4.17537 11.6109 3.76776 11.5382C3.36033 11.4652 3.08876 11.0756 3.16132 10.6681L3.37909 9.4493H1.79999C1.38577 9.4493 1.04999 9.11352 1.04999 8.6993C1.0502 8.28527 1.3859 7.9493 1.79999 7.9493H3.64667L4.07538 5.54989H2.3996C1.98564 5.5497 1.64975 5.21385 1.6496 4.79989C1.6496 4.38579 1.98555 4.05008 2.3996 4.04989H4.34296L4.66132 2.26766C4.73414 1.86006 5.12382 1.58863 5.53143 1.66122C5.93918 1.73403 6.21065 2.12359 6.13788 2.53133L5.86639 4.04989H7.19354L7.5119 2.26766ZM5.1701 7.9493H6.49725L6.92596 5.54989H5.59882L5.1701 7.9493Z" fill="#1D1C1D"/>
</svg>
