<svg width="20" height="20" viewBox="0 0 20 20" fill="none" xmlns="http://www.w3.org/2000/svg">
<path d="M1.75 5.5C1.75 3.42893 3.42893 1.75 5.5 1.75L14.5 1.75C16.571 1.75003 18.25 3.42895 18.25 5.5L18.25 14.5C18.2499 16.571 16.571 18.25 14.5 18.25L5.5 18.25C3.42898 18.25 1.75008 16.571 1.75 14.5L1.75 5.5ZM4.84375 12.2803C4.84402 12.6942 5.17972 13.0303 5.59375 13.0303L7.34668 13.0303L7.13184 14.2764C7.06162 14.6842 7.33552 15.0718 7.74316 15.1426C8.15112 15.2127 8.53989 14.9392 8.61035 14.5312L8.86914 13.0303L10.2344 13.0303L10.0195 14.2783C9.94937 14.6861 10.2232 15.0738 10.6309 15.1445C11.0388 15.2146 11.4275 14.9411 11.498 14.5332L11.7578 13.0303L13.7988 13.0303C14.2125 13.0299 14.5485 12.694 14.5488 12.2803C14.5488 11.8663 14.2127 11.5306 13.7988 11.5303L12.0166 11.5303L12.4912 8.77734L14.4062 8.77734C14.8202 8.77712 15.1562 8.44135 15.1562 8.02734C15.1561 7.61337 14.8202 7.27753 14.4062 7.27734L12.749 7.27734L13.0176 5.72266C13.088 5.31449 12.8134 4.92589 12.4053 4.85547C11.9975 4.78554 11.6096 5.0591 11.5391 5.4668L11.2266 7.27734L9.86133 7.27734L10.1299 5.7207C10.2001 5.31266 9.92562 4.92392 9.51758 4.85352C9.10994 4.78365 8.72209 5.05735 8.65137 5.46484L8.33887 7.27734L6.20117 7.27734C5.78719 7.27751 5.45134 7.61336 5.45117 8.02734C5.45123 8.44139 5.78715 8.77718 6.20117 8.77734L8.08008 8.77734L7.60547 11.5303L5.59375 11.5303C5.17954 11.5303 4.84377 11.8661 4.84375 12.2803ZM9.60254 8.77734L10.9678 8.77734L10.4932 11.5303L9.12793 11.5303L9.60254 8.77734Z" fill="#1D1C1D"/>
</svg>
