<svg width="20" height="20" viewBox="0 0 20 20" fill="none" xmlns="http://www.w3.org/2000/svg">
<path d="M13.0107 3.62322C13.0811 3.21527 13.469 2.94086 13.877 3.01092C14.2849 3.08126 14.5593 3.46916 14.4893 3.87713L13.9512 7.00018H17.25C17.6642 7.00018 17.9999 7.33602 18 7.75018C18 8.16439 17.6642 8.50018 17.25 8.50018H13.6924L12.7441 14.0002H16.25C16.6642 14.0002 16.9999 14.336 17 14.7502C17 15.1644 16.6642 15.5002 16.25 15.5002H12.4854L11.9893 18.3771C11.9189 18.7852 11.5311 19.0595 11.123 18.9894C10.715 18.9191 10.4407 18.5312 10.5107 18.1232L10.9629 15.5002H7.73535L7.23926 18.3771C7.16891 18.7852 6.78106 19.0595 6.37305 18.9894C5.96503 18.9191 5.69067 18.5312 5.76074 18.1232L6.21289 15.5002H2.75C2.33579 15.5002 2 15.1644 2 14.7502C2.00007 14.336 2.33583 14.0002 2.75 14.0002H6.47168L7.41992 8.50018H3.75C3.33579 8.50018 3 8.16439 3 7.75018C3.00007 7.33602 3.33583 7.00018 3.75 7.00018H7.67871L8.26074 3.62322C8.33115 3.21527 8.71899 2.94086 9.12695 3.01092C9.53494 3.08126 9.80926 3.46916 9.73926 3.87713L9.20117 7.00018H12.4287L13.0107 3.62322ZM7.99414 14.0002H11.2217L12.1699 8.50018H8.94238L7.99414 14.0002Z" fill="#1D1C1D"/>
</svg>
