<svg width="12" height="12" viewBox="0 0 12 12" fill="none" xmlns="http://www.w3.org/2000/svg">
<g clip-path="url(#clip0_1308_29388)">
<path d="M6.39767 1.75971C6.6683 1.81384 6.84411 2.07699 6.79025 2.3476L6.48947 3.84956H7.34982C7.62572 3.84966 7.84957 4.07369 7.84982 4.34956C7.84982 4.62563 7.62588 4.84945 7.34982 4.84956H6.29025L5.83029 7.15034H6.75021C7.02627 7.15044 7.25021 7.37426 7.25021 7.65034C7.25007 7.92629 7.02618 8.15023 6.75021 8.15034H5.6301L5.29025 9.8476C5.23612 10.1183 4.97301 10.2941 4.70236 10.2402C4.43172 10.186 4.25587 9.92293 4.30978 9.65229L4.61057 8.15034H2.9299L2.59006 9.8476C2.53593 10.1183 2.27281 10.2941 2.00217 10.2402C1.73162 10.186 1.55568 9.92287 1.60959 9.65229L1.91037 8.15034H1.05002C0.773966 8.15034 0.550164 7.92636 0.550018 7.65034C0.550018 7.3742 0.773876 7.15034 1.05002 7.15034H2.11057L2.57053 4.84956H1.64963C1.37365 4.84936 1.14963 4.62558 1.14963 4.34956C1.14988 4.07375 1.37381 3.84975 1.64963 3.84956H2.76974L3.10959 2.15229C3.16373 1.88173 3.42692 1.70592 3.69748 1.75971C3.96811 1.81384 4.14394 2.07698 4.09006 2.3476L3.78928 3.84956H5.46994L5.80978 2.15229C5.86396 1.88169 6.12706 1.70581 6.39767 1.75971ZM9.3967 3.99702C9.59196 3.80176 9.90847 3.80176 10.1037 3.99702L11.6037 5.49702C11.6973 5.59075 11.7502 5.71809 11.7502 5.85053C11.7501 5.98296 11.6974 6.1104 11.6037 6.20405L10.1037 7.70405C9.90857 7.89904 9.59194 7.89892 9.3967 7.70405C9.20149 7.50884 9.20159 7.19229 9.3967 6.99702L10.0432 6.35053H8.25021C7.97423 6.35053 7.75048 6.12645 7.75021 5.85053C7.75021 5.57439 7.97407 5.35053 8.25021 5.35053H10.0432L9.3967 4.70405C9.20149 4.50884 9.20159 4.19229 9.3967 3.99702ZM3.1301 7.15034H4.81076L5.27072 4.84956H3.59006L3.1301 7.15034Z" fill="#1D1C1D"/>
</g>
<defs>
<clipPath id="clip0_1308_29388">
<rect width="12" height="12" fill="white"/>
</clipPath>
</defs>
</svg>
