<svg width="12" height="12" viewBox="0 0 12 12" fill="none" xmlns="http://www.w3.org/2000/svg">
<path d="M8.33456 1.75733C8.60667 1.80424 8.78965 2.06335 8.74277 2.33545L8.43027 4.14991H10.3492C10.6253 4.14991 10.8491 4.37384 10.8492 4.64991C10.8492 4.92605 10.6254 5.14991 10.3492 5.14991H8.25742L7.70566 8.3501H9.7496C10.0257 8.3501 10.2496 8.57396 10.2496 8.8501C10.2496 9.12623 10.0257 9.3501 9.7496 9.3501H7.53378L7.24277 11.0356C7.19558 11.3074 6.93657 11.4898 6.66464 11.4429C6.39296 11.3958 6.20999 11.1375 6.25644 10.8657L6.51816 9.3501H4.68417L4.39316 11.0356C4.346 11.3075 4.08696 11.4897 3.81503 11.4429C3.54316 11.396 3.36032 11.1376 3.40683 10.8657L3.66855 9.3501H1.64999C1.37386 9.3501 1.15 9.12623 1.14999 8.8501C1.14999 8.57396 1.37385 8.3501 1.64999 8.3501H3.84042L4.39218 5.14991H2.2496C1.97364 5.14969 1.7496 4.92592 1.7496 4.64991C1.7497 4.37397 1.9737 4.15012 2.2496 4.14991H4.56503L4.90683 2.16553C4.95374 1.89342 5.21285 1.71045 5.48495 1.75733C5.75702 1.80427 5.94003 2.06337 5.89316 2.33545L5.58066 4.14991H7.41464L7.75644 2.16553C7.80334 1.89353 8.06257 1.71064 8.33456 1.75733ZM4.85605 8.3501H6.69003L7.24179 5.14991H5.40781L4.85605 8.3501Z" fill="#1D1C1D"/>
</svg>
