<svg width="20" height="20" viewBox="0 0 20 20" fill="none" xmlns="http://www.w3.org/2000/svg">
<path d="M9.76462 3.60259C9.84608 3.19672 10.2414 2.93352 10.6474 3.0147C11.0533 3.09609 11.3164 3.49152 11.2353 3.89751L10.7148 6.50005H12.25C12.6641 6.50005 12.9999 6.83591 13 7.25005C13 7.66427 12.6642 8.00005 12.25 8.00005H10.415L9.6152 12.0001H11.25C11.6641 12.0001 11.9999 12.3359 12 12.7501C12 13.1643 11.6642 13.5001 11.25 13.5001H9.31442L8.73532 16.3975C8.65392 16.8035 8.25855 17.0666 7.85251 16.9854C7.44657 16.904 7.18341 16.5086 7.26462 16.1026L7.78513 13.5001H4.81442L4.23532 16.3975C4.15392 16.8035 3.75855 17.0666 3.35251 16.9854C2.94657 16.904 2.68341 16.5086 2.76462 16.1026L3.28513 13.5001H1.74997C1.33576 13.5001 0.999969 13.1643 0.999969 12.7501C1.00005 12.3359 1.3358 12.0001 1.74997 12.0001H3.58493L4.38474 8.00005H2.74997C2.33576 8.00005 1.99997 7.66427 1.99997 7.25005C2.00005 6.83591 2.3358 6.50005 2.74997 6.50005H4.68552L5.26462 3.60259C5.34608 3.19672 5.74144 2.93352 6.14743 3.0147C6.55334 3.09609 6.81644 3.49152 6.73532 3.89751L6.21481 6.50005H9.18552L9.76462 3.60259ZM15.2197 6.71978C15.5126 6.42698 15.9874 6.42699 16.2802 6.71978C16.5731 7.01265 16.5731 7.48743 16.2802 7.78033L15.0605 9.00005H18.25C18.6641 9.00005 18.9999 9.33591 19 9.75005C19 10.1643 18.6642 10.5001 18.25 10.5001H15.0605L16.2802 11.7198C16.5731 12.0126 16.5731 12.4874 16.2802 12.7803C15.9874 13.0732 15.5126 13.0732 15.2197 12.7803L12.7197 10.2803C12.5791 10.1397 12.5 9.94892 12.5 9.75005C12.5 9.5512 12.5791 9.36039 12.7197 9.21978L15.2197 6.71978ZM5.1152 12.0001H8.08493L8.88474 8.00005H5.91501L5.1152 12.0001Z" fill="#1D1C1D"/>
</svg>
