<svg width="20" height="20" viewBox="0 0 20 20" fill="none" xmlns="http://www.w3.org/2000/svg">
<path d="M12.7656 3.82433C12.8628 3.28074 13.3822 2.91867 13.9258 3.01573C14.4694 3.11281 14.8314 3.63226 14.7344 4.17589L14.2305 7.00011H17C17.5522 7.00011 17.9999 7.4479 18 8.00011C18 8.55239 17.5523 9.00011 17 9.00011H13.873L13.0693 13.5001H16C16.5522 13.5001 16.9999 13.9479 17 14.5001C17 15.0524 16.5523 15.5001 16 15.5001H12.7119L12.2344 18.1759C12.1373 18.7196 11.6179 19.0816 11.0742 18.9845C10.5306 18.8874 10.1685 18.368 10.2656 17.8243L10.6807 15.5001H7.96191L7.48438 18.1759C7.38729 18.7196 6.8679 19.0816 6.32422 18.9845C5.78055 18.8874 5.41854 18.368 5.51562 17.8243L5.93066 15.5001H3C2.44772 15.5001 2 15.0524 2 14.5001C2.00009 13.9479 2.44777 13.5001 3 13.5001H6.28809L7.0918 9.00011H4C3.44772 9.00011 3 8.55239 3 8.00011C3.00009 7.4479 3.44777 7.00011 4 7.00011H7.44824L8.01562 3.82433C8.11279 3.28074 8.63216 2.91867 9.17578 3.01573C9.71941 3.11281 10.0814 3.63226 9.98438 4.17589L9.48047 7.00011H12.1982L12.7656 3.82433ZM8.31934 13.5001H11.0381L11.8418 9.00011H9.12305L8.31934 13.5001Z" fill="#1D1C1D"/>
</svg>
