<svg width="20" height="20" viewBox="0 0 20 20" fill="none" xmlns="http://www.w3.org/2000/svg">
<path d="M13.5576 8.94045C16.011 8.94058 18 10.9295 18 13.3828C17.9997 15.836 16.0108 17.8251 13.5576 17.8252C11.1043 17.8252 9.11549 15.8361 9.11523 13.3828C9.11525 10.9294 11.1042 8.94047 13.5576 8.94045ZM12.8701 2.61526C12.9397 2.21265 13.3229 1.94164 13.7256 2.01077C14.128 2.08038 14.3989 2.46282 14.3301 2.86526L13.7988 5.94827H17.0547C17.4633 5.94827 17.7955 6.27995 17.7959 6.6885C17.7959 7.09741 17.4636 7.42971 17.0547 7.42971H8.85352L8.00586 12.3477L7.66211 14.3399L7.17285 17.1797C7.1034 17.5825 6.72017 17.8534 6.31738 17.7842C5.91475 17.7148 5.64399 17.3323 5.71289 16.9297L6.15918 14.3399H2.74023C2.3316 14.3396 2.00014 14.0083 2 13.5996C2.00019 13.191 2.33163 12.8596 2.74023 12.8594H6.41504L7.35059 7.42971H3.72754C3.31877 7.42954 2.9873 7.09731 2.9873 6.6885C2.98773 6.28005 3.31903 5.94843 3.72754 5.94827H7.60645L8.18066 2.61526C8.25026 2.21265 8.63348 1.94164 9.03613 2.01077C9.43865 2.08028 9.70945 2.46273 9.64062 2.86526L9.10938 5.94827H12.2959L12.8701 2.61526ZM13.5576 14.6172C13.2169 14.6172 12.9404 14.8936 12.9404 15.2344C12.9409 15.5748 13.2172 15.8506 13.5576 15.8506C13.8979 15.8504 14.1743 15.5746 14.1748 15.2344C14.1748 14.8938 13.8982 14.6174 13.5576 14.6172ZM13.5459 10.9151C13.2736 10.9153 13.053 11.136 13.0527 11.4082V13.3828C13.053 13.655 13.2737 13.8767 13.5459 13.877C13.818 13.8766 14.0397 13.655 14.04 13.3828V11.4082C14.0398 11.136 13.8181 10.9154 13.5459 10.9151Z" fill="#1D1C1D"/>
</svg>
