<svg width="20" height="20" viewBox="0 0 20 20" fill="none" xmlns="http://www.w3.org/2000/svg">
<path d="M5.26953 3.55371C5.37793 3.01226 5.90479 2.66123 6.44629 2.76953C6.98774 2.87793 7.33877 3.40479 7.23047 3.94629L6.76953 6.25H7.5C8.05228 6.25 8.5 6.69772 8.5 7.25C8.5 7.80228 8.05228 8.25 7.5 8.25H6.37012L5.66992 11.75H7.58887L7.76758 10.8125C7.87108 10.2702 8.39509 9.91426 8.9375 10.0176C9.47983 10.1211 9.83574 10.6451 9.73242 11.1875L9.625 11.75H11.25C11.8023 11.75 12.25 12.1977 12.25 12.75C12.25 13.3023 11.8023 13.75 11.25 13.75H9.24414L8.73242 16.4375C8.62892 16.9798 8.10491 17.3357 7.5625 17.2324C7.02017 17.1289 6.66426 16.6049 6.76758 16.0625L7.20801 13.75H5.26953L4.73047 16.4463C4.62207 16.9877 4.09521 17.3388 3.55371 17.2305C3.01226 17.1221 2.66123 16.5952 2.76953 16.0537L3.23047 13.75H1.75C1.19772 13.75 0.75 13.3023 0.75 12.75C0.75 12.1977 1.19772 11.75 1.75 11.75H3.62988L4.33008 8.25H2.75C2.19772 8.25 1.75 7.80228 1.75 7.25C1.75 6.69772 2.19772 6.25 2.75 6.25H4.73047L5.26953 3.55371ZM13.75 2C16.0972 2 18 3.90279 18 6.25C18 7.0612 17.7723 7.81903 17.3779 8.46387L18.707 9.79297C19.0976 10.1835 19.0976 10.8165 18.707 11.207C18.3165 11.5976 17.6835 11.5976 17.293 11.207L15.9639 9.87793C15.319 10.2723 14.5612 10.5 13.75 10.5C11.4028 10.5 9.5 8.59721 9.5 6.25C9.5 3.90279 11.4028 2 13.75 2ZM13.75 4C12.5074 4 11.5 5.00736 11.5 6.25C11.5 7.49264 12.5074 8.5 13.75 8.5C14.9926 8.5 16 7.49264 16 6.25C16 5.00736 14.9926 4 13.75 4Z" fill="#1D1C1D"/>
</svg>
