<svg width="12" height="12" viewBox="0 0 12 12" fill="none" xmlns="http://www.w3.org/2000/svg">
<g clip-path="url(#clip0_1308_29390)">
<path d="M6.39771 1.75971C6.66833 1.81384 6.84414 2.07699 6.79028 2.3476L6.4895 3.84956H7.34985C7.62575 3.84966 7.8496 4.07369 7.84985 4.34956C7.84985 4.62563 7.62591 4.84945 7.34985 4.84956H6.29028L5.83032 7.15034H6.75024C7.0263 7.15044 7.25024 7.37426 7.25024 7.65034C7.2501 7.92629 7.02621 8.15023 6.75024 8.15034H5.63013L5.29028 9.8476C5.23615 10.1183 4.97304 10.2941 4.70239 10.2402C4.43175 10.186 4.2559 9.92293 4.30981 9.65229L4.6106 8.15034H2.92993L2.59009 9.8476C2.53596 10.1183 2.27285 10.2941 2.0022 10.2402C1.73165 10.186 1.55571 9.92287 1.60962 9.65229L1.9104 8.15034H1.05005C0.773996 8.15034 0.550195 7.92636 0.550049 7.65034C0.550049 7.3742 0.773906 7.15034 1.05005 7.15034H2.1106L2.57056 4.84956H1.64966C1.37368 4.84936 1.14966 4.62558 1.14966 4.34956C1.14991 4.07375 1.37384 3.84975 1.64966 3.84956H2.76978L3.10962 2.15229C3.16376 1.88173 3.42695 1.70592 3.69751 1.75971C3.96815 1.81384 4.14397 2.07698 4.09009 2.3476L3.78931 3.84956H5.46997L5.80981 2.15229C5.86399 1.88169 6.12709 1.70581 6.39771 1.75971ZM9.39673 3.99702C9.59199 3.80176 9.9085 3.80176 10.1038 3.99702C10.2987 4.19231 10.2989 4.5089 10.1038 4.70405L9.45728 5.35053H11.2502C11.5263 5.35063 11.7502 5.57445 11.7502 5.85053C11.75 6.12639 11.5261 6.35043 11.2502 6.35053H9.45728L10.1038 6.99702C10.2987 7.19231 10.2989 7.5089 10.1038 7.70405C9.9086 7.89905 9.59197 7.89892 9.39673 7.70405L7.89673 6.20405C7.80308 6.1104 7.75037 5.98296 7.75024 5.85053C7.75025 5.718 7.80306 5.59077 7.89673 5.49702L9.39673 3.99702ZM3.13013 7.15034H4.81079L5.27075 4.84956H3.59009L3.13013 7.15034Z" fill="#1D1C1D"/>
</g>
<defs>
<clipPath id="clip0_1308_29390">
<rect width="12" height="12" fill="white"/>
</clipPath>
</defs>
</svg>
