<svg width="20" height="20" viewBox="0 0 20 20" fill="none" xmlns="http://www.w3.org/2000/svg">
<path d="M14.5005 1.75C16.5712 1.75024 18.2502 3.42929 18.2505 5.5L18.2495 14.5C18.2494 16.571 16.5705 18.25 14.4995 18.25H5.49951C3.42873 18.2497 1.74958 16.5708 1.74951 14.5L1.75049 5.5C1.75073 3.42914 3.42957 1.75 5.50049 1.75H14.5005ZM5.50049 3.25C4.258 3.25 3.25073 4.25757 3.25049 5.5L3.24951 14.5C3.24958 15.7424 4.25716 16.7497 5.49951 16.75H14.4995C15.7421 16.75 16.7494 15.7426 16.7495 14.5L16.7505 5.5C16.7502 4.25771 15.7428 3.25024 14.5005 3.25H5.50049ZM8.65186 5.46484C8.72282 5.05761 9.11058 4.78365 9.51807 4.85352C9.92581 4.924 10.2002 5.31292 10.1304 5.7207L9.86182 7.27734H11.2271L11.5396 5.4668C11.6104 5.05936 11.9981 4.78554 12.4058 4.85547C12.8136 4.92597 13.0881 5.31475 13.0181 5.72266L12.7495 7.27734H14.4067C14.8204 7.27775 15.1564 7.61372 15.1567 8.02734C15.1567 8.44128 14.8206 8.7769 14.4067 8.77734H12.4917L12.0171 11.5303H13.7993C14.2129 11.5309 14.5481 11.8666 14.5483 12.2803C14.5481 12.6941 14.2121 13.0299 13.7983 13.0303H11.7573L11.4976 14.5332C11.4271 14.9413 11.0384 15.2148 10.6304 15.1445C10.2229 15.0736 9.94883 14.6861 10.019 14.2783L10.2339 13.0303H8.86865L8.60986 14.5312C8.53945 14.9394 8.15077 15.2128 7.74268 15.1426C7.3352 15.0716 7.06108 14.6841 7.13135 14.2764L7.34619 13.0303H5.59326C5.17938 13.03 4.84346 12.6942 4.84326 12.2803C4.84353 11.8663 5.18018 11.5303 5.59424 11.5303H7.60596L8.08057 8.77734H6.20166C5.78759 8.77718 5.45164 8.44146 5.45166 8.02734C5.45208 7.61357 5.78783 7.27751 6.20166 7.27734H8.33936L8.65186 5.46484ZM9.12842 11.5303H10.4937L10.9683 8.77734H9.60303L9.12842 11.5303Z" fill="#1D1C1D"/>
</svg>
