<svg width="20" height="20" viewBox="0 0 20 20" fill="none" xmlns="http://www.w3.org/2000/svg">
<path d="M5.51465 3.60259C5.59611 3.19672 5.99147 2.93352 6.39746 3.0147C6.80337 3.09609 7.06647 3.49152 6.98535 3.89751L6.46484 6.50005H6.75C7.16417 6.50005 7.49992 6.83591 7.5 7.25005C7.5 7.66427 7.16421 8.00005 6.75 8.00005H6.16504L5.36523 12.0001H7.83496L7.96484 11.3526C8.0463 10.9469 8.44084 10.6838 8.84668 10.7647C9.2528 10.8459 9.51669 11.2414 9.43555 11.6475L9.36523 12.0001H11.25C11.6642 12.0001 11.9999 12.3359 12 12.7501C12 13.1643 11.6642 13.5001 11.25 13.5001H9.06543L8.48535 16.3975C8.40395 16.8035 8.00858 17.0666 7.60254 16.9854C7.1966 16.904 6.93344 16.5086 7.01465 16.1026L7.53516 13.5001H5.06445L4.48535 16.3975C4.40395 16.8035 4.00858 17.0666 3.60254 16.9854C3.1966 16.904 2.93344 16.5086 3.01465 16.1026L3.53516 13.5001H1.75C1.33579 13.5001 1 13.1643 1 12.7501C1.00008 12.3359 1.33583 12.0001 1.75 12.0001H3.83496L4.63477 8.00005H2.75C2.33579 8.00005 2 7.66427 2 7.25005C2.00008 6.83591 2.33583 6.50005 2.75 6.50005H4.93555L5.51465 3.60259ZM13 3.00005C15.2091 3.00005 16.9999 4.79098 17 7.00005C17 7.83345 16.7437 8.60647 16.3076 9.24712L17.7803 10.7198C18.0731 11.0126 18.0731 11.4874 17.7803 11.7803C17.4874 12.0732 17.0126 12.0732 16.7197 11.7803L15.248 10.3086C14.6073 10.7449 13.8336 11.0001 13 11.0001C10.7909 11.0001 9 9.20919 9 7.00005C9.00008 4.79098 10.7909 3.00005 13 3.00005ZM13 4.50005C11.6193 4.50005 10.5001 5.61941 10.5 7.00005C10.5 8.38077 11.6193 9.50005 13 9.50005C14.3807 9.50005 15.5 8.38077 15.5 7.00005C15.4999 5.61941 14.3807 4.50005 13 4.50005Z" fill="#1D1C1D"/>
</svg>
