<svg width="20" height="20" viewBox="0 0 20 20" fill="none" xmlns="http://www.w3.org/2000/svg">
<path d="M10 1C14.9706 1 19 5.02944 19 10C19 14.9706 14.9706 19 10 19C5.02944 19 1 14.9706 1 10C1 5.02944 5.02944 1 10 1ZM13.6348 6.62793C13.3189 6.36042 12.846 6.39923 12.5781 6.71484L8.45312 11.5781L7.3125 9.9668C7.0731 9.62882 6.6046 9.54874 6.2666 9.78809C5.92859 10.0275 5.84847 10.496 6.08789 10.834L7.78809 13.2334C7.92201 13.4225 8.13572 13.5397 8.36719 13.5498C8.59869 13.5599 8.82177 13.4618 8.97168 13.2852L13.7217 7.68555C13.9896 7.36966 13.9506 6.89587 13.6348 6.62793Z" fill="#1D1C1D"/>
</svg>
