<svg width="20" height="20" viewBox="0 0 20 20" fill="none" xmlns="http://www.w3.org/2000/svg">
<path d="M9 3C9.27601 3 9.54912 3.01363 9.81836 3.04102C10.2304 3.08297 10.5301 3.45127 10.4883 3.86328C10.4464 4.27537 10.0781 4.57511 9.66602 4.5332C9.44727 4.51097 9.22507 4.5 9 4.5C5.41015 4.5 2.5 7.41015 2.5 11C2.5 14.5899 5.41015 17.5 9 17.5C12.5899 17.5 15.5 14.5899 15.5 11C15.5 10.849 15.4945 10.699 15.4844 10.5508C15.4794 10.4776 15.4732 10.4045 15.4658 10.332C15.4241 9.92011 15.7248 9.55174 16.1367 9.50977C16.5486 9.46805 16.916 9.76874 16.958 10.1807C16.9671 10.2697 16.9753 10.3594 16.9814 10.4492C16.9938 10.6313 17 10.815 17 11C17 15.4183 13.4183 19 9 19C4.58172 19 1 15.4183 1 11C1 6.58172 4.58172 3 9 3ZM11.7021 7.74707C11.9701 7.43142 12.4439 7.39245 12.7598 7.66016C13.0756 7.92803 13.1144 8.40189 12.8467 8.71777L8.97266 13.2852C8.82275 13.4619 8.59872 13.5589 8.36719 13.5488C8.13581 13.5386 7.92197 13.4224 7.78809 13.2334L6.08789 10.833C5.84899 10.4951 5.92894 10.0274 6.2666 9.78809C6.60447 9.54888 7.07303 9.62819 7.3125 9.96582L8.45312 11.5762L11.7021 7.74707ZM15.5 1C15.9142 1 16.25 1.33579 16.25 1.75V3.75H18.25C18.6642 3.75 19 4.08579 19 4.5C19 4.91421 18.6642 5.25 18.25 5.25H16.25V7.25C16.25 7.66421 15.9142 8 15.5 8C15.0858 8 14.75 7.66421 14.75 7.25V5.25H12.75C12.3358 5.25 12 4.91421 12 4.5C12 4.08579 12.3358 3.75 12.75 3.75H14.75V1.75C14.75 1.33579 15.0858 1 15.5 1Z" fill="#1D1C1D"/>
</svg>
