<svg width="12" height="12" viewBox="0 0 12 12" fill="none" xmlns="http://www.w3.org/2000/svg">
<path d="M6 1C8.76142 1 11 3.23858 11 6C11 8.76142 8.76142 11 6 11C3.23858 11 1 8.76142 1 6C1 3.23858 3.23858 1 6 1ZM8.07324 4.06348C7.86267 3.88486 7.54777 3.91054 7.36914 4.12109L5.14648 6.74023L4.5752 5.93262C4.41555 5.70738 4.10323 5.65487 3.87793 5.81445C3.65273 5.97403 3.59939 6.28545 3.75879 6.51074L4.70312 7.84473C4.79243 7.97072 4.93555 8.04796 5.08984 8.05469C5.24398 8.0613 5.39233 7.9965 5.49219 7.87891L8.13184 4.76758C8.31017 4.557 8.28371 4.24202 8.07324 4.06348Z" fill="#1D1C1D"/>
</svg>
