<svg width="20" height="20" viewBox="0 0 20 20" fill="none" xmlns="http://www.w3.org/2000/svg">
<path d="M10 1C14.9706 1 19 5.02944 19 10C19 14.9706 14.9706 19 10 19C5.02944 19 1 14.9706 1 10C1 5.02944 5.02944 1 10 1ZM10 2.5C5.85786 2.5 2.5 5.85786 2.5 10C2.5 14.1421 5.85786 17.5 10 17.5C14.1421 17.5 17.5 14.1421 17.5 10C17.5 5.85786 14.1421 2.5 10 2.5ZM12.5781 6.71484C12.8461 6.39904 13.3199 6.36002 13.6357 6.62793C13.9513 6.89586 13.9904 7.36975 13.7227 7.68555L8.97266 13.2852C8.8228 13.4618 8.59863 13.5598 8.36719 13.5498C8.13587 13.5396 7.92198 13.4223 7.78809 13.2334L6.08789 10.834C5.84848 10.496 5.92863 10.0275 6.2666 9.78809C6.6046 9.54875 7.0731 9.62882 7.3125 9.9668L8.45312 11.5771L12.5781 6.71484Z" fill="#1D1C1D"/>
</svg>
