<svg width="20" height="20" viewBox="0 0 20 20" fill="none" xmlns="http://www.w3.org/2000/svg">
<path d="M15.5 1.5C17.1569 1.5 18.5 2.84315 18.5 4.5V15.5C18.5 17.1569 17.1569 18.5 15.5 18.5H4.5C2.84315 18.5 1.5 17.1569 1.5 15.5V4.5C1.5 2.84315 2.84315 1.5 4.5 1.5H15.5ZM13.7246 6.66992C13.404 6.40763 12.9322 6.45482 12.6699 6.77539L8.78516 11.5225L7.35645 9.55859C7.11277 9.2238 6.64351 9.14998 6.30859 9.39355C5.97379 9.63723 5.89998 10.1065 6.14355 10.4414L8.14355 13.1914C8.28025 13.3792 8.49631 13.4934 8.72852 13.5C8.96086 13.5066 9.18289 13.4045 9.33008 13.2246L13.8301 7.72461C14.0924 7.40403 14.0452 6.93222 13.7246 6.66992Z" fill="#1D1C1D"/>
</svg>
