<svg width="20" height="20" viewBox="0 0 20 20" fill="none" xmlns="http://www.w3.org/2000/svg">
<path d="M6.4334 13.008C6.70511 12.6955 7.17938 12.6622 7.492 12.9338C7.80457 13.2055 7.83787 13.6798 7.56621 13.9924L4.08867 17.9924C3.94013 18.1632 3.72213 18.2583 3.4959 18.2502C3.2697 18.2421 3.05965 18.1313 2.92364 17.9504L1.4002 15.925C1.15142 15.5939 1.21859 15.1241 1.54961 14.8752C1.88068 14.6265 2.35055 14.6927 2.59942 15.0237L3.56426 16.3078L6.4334 13.008ZM17.9998 14.5002C18.414 14.5002 18.7498 14.836 18.7498 15.2502C18.7498 15.6644 18.414 16.0002 17.9998 16.0002H9.99981C9.58561 16.0002 9.24981 15.6644 9.24981 15.2502C9.24981 14.836 9.58561 14.5002 9.99981 14.5002H17.9998ZM6.4334 7.50803C6.70511 7.19546 7.17938 7.16219 7.492 7.43381C7.80457 7.70553 7.83787 8.17979 7.56621 8.49241L4.08867 12.4924C3.94013 12.6632 3.72213 12.7583 3.4959 12.7502C3.2697 12.7421 3.05965 12.6313 2.92364 12.4504L1.4002 10.425C1.15142 10.0939 1.21859 9.62409 1.54961 9.37522C1.88068 9.12649 2.35055 9.19266 2.59942 9.52366L3.56426 10.8078L6.4334 7.50803ZM17.9998 9.75022C18.414 9.75022 18.7498 10.086 18.7498 10.5002C18.7498 10.9144 18.414 11.2502 17.9998 11.2502H9.99981C9.58561 11.2502 9.24981 10.9144 9.24981 10.5002C9.24981 10.086 9.58561 9.75024 9.99981 9.75022H17.9998ZM6.4334 2.00803C6.70511 1.69546 7.17938 1.66219 7.492 1.93381C7.80457 2.20553 7.83787 2.67979 7.56621 2.99241L4.08867 6.99241C3.94013 7.16322 3.72213 7.25825 3.4959 7.25022C3.2697 7.24213 3.05965 7.13135 2.92364 6.95042L1.4002 4.92503C1.15143 4.59395 1.21859 4.12409 1.54961 3.87522C1.88068 3.62649 2.35055 3.69266 2.59942 4.02366L3.56426 5.30784L6.4334 2.00803ZM17.9998 5.00022C18.414 5.00022 18.7498 5.33601 18.7498 5.75022C18.7498 6.16443 18.414 6.50022 17.9998 6.50022H9.99981C9.58561 6.5002 9.24981 6.16442 9.24981 5.75022C9.24981 5.33602 9.58561 5.00024 9.99981 5.00022H17.9998Z" fill="#1D1C1D"/>
</svg>
