<svg width="20" height="20" viewBox="0 0 20 20" fill="none" xmlns="http://www.w3.org/2000/svg">
<path d="M15.5 1.5C17.1569 1.5 18.5 2.84315 18.5 4.5V15.5C18.5 17.1569 17.1569 18.5 15.5 18.5H4.5C2.84315 18.5 1.5 17.1569 1.5 15.5V4.5C1.5 2.89489 2.76055 1.58421 4.3457 1.50391L4.5 1.5H15.5ZM4.5 3C3.67157 3 3 3.67157 3 4.5V15.5C3 16.3284 3.67157 17 4.5 17H15.5C16.3284 17 17 16.3284 17 15.5V4.5C17 3.67157 16.3284 3 15.5 3H4.5ZM12.6699 6.77539C12.9322 6.45481 13.404 6.40763 13.7246 6.66992C14.0452 6.93222 14.0924 7.40403 13.8301 7.72461L9.33008 13.2246C9.18289 13.4045 8.96086 13.5066 8.72852 13.5C8.49632 13.4933 8.28025 13.3792 8.14355 13.1914L6.14355 10.4414C5.89998 10.1065 5.9738 9.63723 6.30859 9.39355C6.64351 9.14998 7.11277 9.2238 7.35645 9.55859L8.78516 11.5225L12.6699 6.77539Z" fill="#1D1C1D"/>
</svg>
