<svg width="20" height="20" viewBox="0 0 20 20" fill="none" xmlns="http://www.w3.org/2000/svg">
<path d="M12.1363 1.36241C12.358 1.0127 12.8217 0.908549 13.1715 1.12999C13.5212 1.35178 13.6256 1.81632 13.4039 2.16612L9.19786 8.79796C9.26259 8.86413 9.32353 8.9331 9.3795 9.00597C9.64894 9.35676 9.78011 9.74022 9.83849 10.1183C9.89497 10.4843 9.88453 10.8599 9.8629 11.2052C9.83878 11.59 9.80656 11.879 9.78868 12.2648C9.75604 12.9695 9.79582 13.6975 10.1217 14.4825C10.448 15.2682 11.0887 16.1748 12.359 17.1798C12.6093 17.3779 12.707 17.7133 12.6022 18.0148C12.4972 18.316 12.2123 18.5177 11.8932 18.5177H2.31993C1.98524 18.5175 1.69117 18.2956 1.59923 17.9737C0.815261 15.2264 1.55224 12.4308 2.87852 10.504C3.54275 9.53915 4.38201 8.75138 5.30528 8.30089C6.12074 7.90312 7.02897 7.75957 7.90782 8.03331L12.1363 1.36241ZM17.7496 16.0001C18.1637 16.0001 18.4994 16.3361 18.4996 16.7501C18.4996 17.1643 18.1638 17.5001 17.7496 17.5001H14.7496C14.3356 17.4999 13.9996 17.1642 13.9996 16.7501C13.9999 16.3362 14.3357 16.0003 14.7496 16.0001H17.7496ZM4.7838 10.5323C4.55019 10.7724 4.32493 11.048 4.11388 11.3546C3.09029 12.8417 2.50122 14.9385 2.9127 17.0177H4.37071C4.1634 16.332 4.09197 15.4416 4.25548 14.3282C4.29561 14.055 4.54965 13.8662 4.82286 13.9064C5.09578 13.9466 5.28458 14.1998 5.24474 14.4728C5.06747 15.6795 5.21107 16.4984 5.43321 17.0177H6.97618C6.57162 16.2769 6.3004 15.2838 6.3004 14.0001C6.30063 13.7242 6.5244 13.5001 6.8004 13.5001C7.07622 13.5003 7.30017 13.7243 7.3004 14.0001C7.3004 15.4979 7.71002 16.4493 8.17345 17.0177H9.99571C9.40702 16.3531 9.00268 15.6992 8.73595 15.0567C8.32099 14.0569 8.26014 13.1397 8.28477 12.3575C6.65083 12.1618 5.44888 11.3213 4.7838 10.5323ZM17.7496 13.0001C18.1637 13.0001 18.4994 13.3361 18.4996 13.7501C18.4996 14.1643 18.1638 14.5001 17.7496 14.5001H12.7496C12.3356 14.4999 11.9996 14.1642 11.9996 13.7501C11.9999 13.3362 12.3357 13.0003 12.7496 13.0001H17.7496ZM17.7496 10.0001C18.1637 10.0001 18.4994 10.3361 18.4996 10.7501C18.4996 11.1643 18.1638 11.5001 17.7496 11.5001H12.7496C12.3356 11.4999 11.9996 11.1642 11.9996 10.7501C11.9999 10.3362 12.3357 10.0003 12.7496 10.0001H17.7496ZM7.66075 9.5421C7.16714 9.31646 6.59224 9.34285 5.96349 9.64952C5.82561 9.71679 5.6878 9.79826 5.54942 9.89073C6.05883 10.4948 7.01708 11.184 8.34727 11.3595C8.35418 11.2692 8.3612 11.1853 8.36583 11.1114C8.38595 10.7902 8.38691 10.5468 8.35606 10.3468C8.32701 10.1589 8.27279 10.0279 8.19005 9.92003C8.10505 9.80938 7.95372 9.67608 7.66075 9.5421Z" fill="#1D1C1D"/>
</svg>
