<svg width="20" height="20" viewBox="0 0 20 20" fill="none" xmlns="http://www.w3.org/2000/svg">
<path d="M10 1C14.9706 1 19 5.02944 19 10C19 14.9706 14.9706 19 10 19C5.02944 19 1 14.9706 1 10C1 5.02944 5.02944 1 10 1ZM10 2.5C5.85786 2.5 2.5 5.85786 2.5 10C2.5 14.1421 5.85786 17.5 10 17.5C14.1421 17.5 17.5 14.1421 17.5 10C17.5 5.85786 14.1421 2.5 10 2.5ZM10 5C10.4142 5 10.75 5.33579 10.75 5.75V9.75H13.75C14.1642 9.75 14.5 10.0858 14.5 10.5C14.5 10.9142 14.1642 11.25 13.75 11.25H10C9.58579 11.25 9.25 10.9142 9.25 10.5V5.75C9.25 5.33579 9.58579 5 10 5Z" fill="#1D1C1D"/>
</svg>
