<svg width="20" height="20" viewBox="0 0 20 20" fill="none" xmlns="http://www.w3.org/2000/svg">
<path d="M10 1C14.9706 1 19 5.02944 19 10C19 14.9706 14.9706 19 10 19C5.02944 19 1 14.9706 1 10C1 5.02944 5.02944 1 10 1ZM10 2.5C5.85786 2.5 2.5 5.85786 2.5 10C2.5 14.1421 5.85786 17.5 10 17.5C14.1421 17.5 17.5 14.1421 17.5 10C17.5 5.85786 14.1421 2.5 10 2.5ZM12.7197 6.21973C13.0126 5.92684 13.4874 5.92684 13.7803 6.21973C14.0731 6.51262 14.0731 6.9874 13.7803 7.28027L11.0605 10L13.7803 12.7197C14.0731 13.0126 14.0731 13.4874 13.7803 13.7803C13.4874 14.0731 13.0126 14.0731 12.7197 13.7803L10 11.0605L7.28027 13.7803C6.9874 14.0731 6.51262 14.0731 6.21973 13.7803C5.92684 13.4874 5.92685 13.0126 6.21973 12.7197L8.93945 10L6.21973 7.28027C5.92685 6.98738 5.92684 6.51262 6.21973 6.21973C6.51262 5.92686 6.98738 5.92685 7.28027 6.21973L10 8.93945L12.7197 6.21973Z" fill="#1D1C1D"/>
</svg>
