<svg width="20" height="20" viewBox="0 0 20 20" fill="none" xmlns="http://www.w3.org/2000/svg">
<path d="M15.4697 3.46967C15.7626 3.17678 16.2373 3.17678 16.5302 3.46967C16.8231 3.76256 16.8231 4.23732 16.5302 4.53022L11.0605 9.99994L16.5302 15.4697C16.8231 15.7626 16.8231 16.2373 16.5302 16.5302C16.2373 16.8231 15.7626 16.8231 15.4697 16.5302L9.99994 11.0605L4.53022 16.5302C4.23732 16.8231 3.76256 16.8231 3.46967 16.5302C3.17678 16.2373 3.17678 15.7626 3.46967 15.4697L8.9394 9.99994L3.46967 4.53022C3.1768 4.23732 3.17679 3.76255 3.46967 3.46967C3.76256 3.17681 4.23733 3.17681 4.53022 3.46967L9.99994 8.9394L15.4697 3.46967Z" fill="#1D1C1D"/>
</svg>
