<svg width="12" height="12" viewBox="0 0 12 12" fill="none" xmlns="http://www.w3.org/2000/svg">
<path d="M9.46966 1.46967C9.76255 1.17678 10.2373 1.17678 10.5302 1.46967C10.8231 1.76256 10.8231 2.23732 10.5302 2.53022L7.06048 5.99994L10.5302 9.46967C10.8231 9.76256 10.8231 10.2373 10.5302 10.5302C10.2373 10.8231 9.76255 10.8231 9.46966 10.5302L5.99993 7.06049L2.5302 10.5302C2.23731 10.8231 1.76255 10.8231 1.46966 10.5302C1.17676 10.2373 1.17677 9.76256 1.46966 9.46967L4.93938 5.99994L1.46966 2.53022C1.17677 2.23732 1.17676 1.76256 1.46966 1.46967C1.76255 1.17678 2.23731 1.17678 2.5302 1.46967L5.99993 4.9394L9.46966 1.46967Z" fill="#1D1C1D"/>
</svg>
