<svg width="20" height="20" viewBox="0 0 20 20" fill="none" xmlns="http://www.w3.org/2000/svg">
<path d="M16.5 2.5C17.6046 2.5 18.5 3.39543 18.5 4.5V15.5C18.5 16.6046 17.6046 17.5 16.5 17.5H3.5C2.39543 17.5 1.5 16.6046 1.5 15.5V4.5C1.5 3.39543 2.39543 2.5 3.5 2.5H16.5ZM7.19727 6.62988C6.4453 6.62988 5.73952 6.93798 5.2373 7.55859C4.74654 8.16517 4.50002 9.00573 4.5 10.0049C4.5 11.0042 4.74642 11.8455 5.2373 12.4521C5.7395 13.0726 6.44541 13.3799 7.19727 13.3799C7.81124 13.3799 8.27462 13.2236 8.64648 12.9473C8.90446 12.7555 9.11736 12.4914 9.24609 12.332C9.27476 12.2966 9.29947 12.2663 9.31934 12.2432C9.58888 11.9287 9.55268 11.4551 9.23828 11.1855C8.92386 10.916 8.45027 10.9523 8.18066 11.2666C8.10478 11.3551 8.04703 11.4258 8 11.4834C7.89877 11.6075 7.84479 11.6741 7.75195 11.7432C7.67218 11.8025 7.53323 11.8799 7.19727 11.8799C6.87383 11.8799 6.60585 11.7581 6.40332 11.5078C6.18952 11.2435 6 10.7718 6 10.0049C6.00002 9.23787 6.18949 8.76623 6.40332 8.50195C6.60585 8.25167 6.87383 8.12988 7.19727 8.12988C7.53323 8.12989 7.67218 8.2073 7.75195 8.2666C7.84496 8.33575 7.89852 8.40298 8 8.52734C8.04702 8.58496 8.10482 8.65468 8.18066 8.74316C8.45025 9.05757 8.92382 9.09376 9.23828 8.82422C9.55258 8.55462 9.58884 8.08102 9.31934 7.7666C9.29949 7.74344 9.2747 7.71314 9.24609 7.67773C9.11738 7.51842 8.90431 7.25519 8.64648 7.06348C8.27459 6.78701 7.81135 6.6299 7.19727 6.62988ZM13.1973 6.62988C12.4453 6.62988 11.7395 6.93798 11.2373 7.55859C10.7465 8.16517 10.5 9.00574 10.5 10.0049C10.5 11.0042 10.7464 11.8455 11.2373 12.4521C11.7395 13.0726 12.4454 13.3799 13.1973 13.3799C13.8112 13.3799 14.2746 13.2236 14.6465 12.9473C14.9045 12.7555 15.1174 12.4914 15.2461 12.332C15.2748 12.2966 15.2995 12.2663 15.3193 12.2432C15.5889 11.9287 15.5527 11.4551 15.2383 11.1855C14.9239 10.916 14.4503 10.9523 14.1807 11.2666C14.1048 11.3551 14.047 11.4258 14 11.4834C13.8988 11.6075 13.8448 11.6741 13.752 11.7432C13.6722 11.8025 13.5332 11.8799 13.1973 11.8799C12.8738 11.8799 12.6059 11.7581 12.4033 11.5078C12.1895 11.2435 12 10.7718 12 10.0049C12 9.23787 12.1895 8.76623 12.4033 8.50195C12.6059 8.25167 12.8738 8.12988 13.1973 8.12988C13.5332 8.12989 13.6722 8.2073 13.752 8.2666C13.845 8.33576 13.8985 8.40298 14 8.52734C14.047 8.58497 14.1048 8.65466 14.1807 8.74316C14.4502 9.05758 14.9238 9.09376 15.2383 8.82422C15.5526 8.55462 15.5888 8.08102 15.3193 7.7666C15.2995 7.74344 15.2747 7.71313 15.2461 7.67773C15.1174 7.51841 14.9043 7.25518 14.6465 7.06348C14.2746 6.78701 13.8114 6.6299 13.1973 6.62988Z" fill="#1D1C1D"/>
</svg>
