<svg width="20" height="20" viewBox="0 0 20 20" fill="none" xmlns="http://www.w3.org/2000/svg">
<path d="M15.1161 3.11612C15.6043 2.62796 16.3955 2.62796 16.8837 3.11612C17.3718 3.60427 17.3718 4.39554 16.8837 4.88369L11.7675 9.99991L16.8837 15.1161C17.3718 15.6043 17.3718 16.3955 16.8837 16.8837C16.3955 17.3718 15.6043 17.3718 15.1161 16.8837L9.9999 11.7675L4.88369 16.8837C4.39554 17.3718 3.60427 17.3718 3.11612 16.8837C2.62796 16.3955 2.62796 15.6043 3.11612 15.1161L8.23233 9.99991L3.11612 4.88369C2.62796 4.39554 2.62796 3.60427 3.11612 3.11612C3.60427 2.62797 4.39554 2.62797 4.88369 3.11612L9.9999 8.23233L15.1161 3.11612Z" fill="#1D1C1D"/>
</svg>
