<svg width="20" height="20" viewBox="0 0 20 20" fill="none" xmlns="http://www.w3.org/2000/svg">
<path d="M10 1C14.9706 1 19 5.02944 19 10C19 14.9706 14.9706 19 10 19C5.02944 19 1 14.9706 1 10C1 5.02944 5.02944 1 10 1ZM13.957 6.04297C13.5665 5.65244 12.9335 5.65244 12.543 6.04297L10 8.58594L7.45703 6.04297C7.06651 5.65245 6.43349 5.65245 6.04297 6.04297C5.65248 6.4335 5.65246 7.06652 6.04297 7.45703L8.58594 10L6.04297 12.543C5.65248 12.9335 5.65246 13.5665 6.04297 13.957C6.43349 14.3474 7.06654 14.3475 7.45703 13.957L10 11.4141L12.543 13.957C12.9335 14.3474 13.5665 14.3475 13.957 13.957C14.3475 13.5665 14.3474 12.9335 13.957 12.543L11.4141 10L13.957 7.45703C14.3475 7.06654 14.3474 6.4335 13.957 6.04297Z" fill="#1D1C1D"/>
</svg>
