<svg width="12" height="12" viewBox="0 0 12 12" fill="none" xmlns="http://www.w3.org/2000/svg">
<path d="M9.64645 1.64645C9.84171 1.45118 10.1582 1.45118 10.3535 1.64645C10.5487 1.84171 10.5487 2.15822 10.3535 2.35348L6.707 5.99996L10.3535 9.64645C10.5487 9.84171 10.5487 10.1582 10.3535 10.3535C10.1582 10.5487 9.84171 10.5487 9.64645 10.3535L5.99996 6.70699L2.35348 10.3535C2.15822 10.5487 1.84171 10.5487 1.64645 10.3535C1.45119 10.1582 1.4512 9.84171 1.64645 9.64645L5.29293 5.99996L1.64645 2.35348C1.4512 2.15821 1.45119 1.8417 1.64645 1.64645C1.84171 1.45121 2.15822 1.45121 2.35348 1.64645L5.99996 5.29293L9.64645 1.64645Z" fill="#1D1C1D"/>
</svg>
