<svg width="12" height="12" viewBox="0 0 12 12" fill="none" xmlns="http://www.w3.org/2000/svg">
<path d="M6 1C8.76142 1 11 3.23858 11 6C11 8.76142 8.76142 11 6 11C3.23858 11 1 8.76142 1 6C1 3.23858 3.23858 1 6 1ZM6 2C3.79086 2 2 3.79086 2 6C2 8.20914 3.79086 10 6 10C8.20914 10 10 8.20914 10 6C10 3.79086 8.20914 2 6 2ZM7.39648 3.89648C7.59175 3.70122 7.90825 3.70122 8.10352 3.89648C8.29874 4.09175 8.29876 4.40827 8.10352 4.60352L6.70703 6L8.10352 7.39648C8.29874 7.59175 8.29876 7.90827 8.10352 8.10352C7.90827 8.29877 7.59175 8.29874 7.39648 8.10352L6 6.70703L4.60352 8.10352C4.40827 8.29876 4.09175 8.29874 3.89648 8.10352C3.70122 7.90825 3.70122 7.59175 3.89648 7.39648L5.29297 6L3.89648 4.60352C3.70122 4.40825 3.70122 4.09175 3.89648 3.89648C4.09175 3.70122 4.40825 3.70122 4.60352 3.89648L6 5.29297L7.39648 3.89648Z" fill="#1D1C1D"/>
</svg>
