<svg width="20" height="20" viewBox="0 0 20 20" fill="none" xmlns="http://www.w3.org/2000/svg">
<path d="M15.75 2.5C17.2688 2.5 18.5 3.73122 18.5 5.25V14.75C18.5 16.2688 17.2688 17.5 15.75 17.5H4.25C2.73122 17.5 1.5 16.2688 1.5 14.75V5.25C1.5 3.73122 2.73122 2.5 4.25 2.5H15.75ZM4.25 4C3.55964 4 3 4.55964 3 5.25V14.75C3 15.4404 3.55964 16 4.25 16H15.75C16.4404 16 17 15.4404 17 14.75V5.25C17 4.55964 16.4404 4 15.75 4H4.25ZM7.19727 6.62988C7.81121 6.6299 8.27463 6.78615 8.64648 7.0625C8.96189 7.29697 9.21021 7.63925 9.31934 7.7666C9.58886 8.08104 9.55263 8.55463 9.23828 8.82422C8.92384 9.09374 8.45026 9.05751 8.18066 8.74316C7.94107 8.46364 7.88802 8.36779 7.75195 8.2666C7.67218 8.2073 7.53323 8.12989 7.19727 8.12988C6.87383 8.12988 6.60585 8.25167 6.40332 8.50195C6.1895 8.76626 6 9.23787 6 10.0049C6 10.7719 6.1895 11.2435 6.40332 11.5078C6.60585 11.7581 6.87383 11.8799 7.19727 11.8799C7.53323 11.8799 7.67218 11.8025 7.75195 11.7432C7.88802 11.642 7.94107 11.5461 8.18066 11.2666C8.45026 10.9523 8.92384 10.916 9.23828 11.1855C9.55263 11.4551 9.58886 11.9287 9.31934 12.2432C9.21021 12.3705 8.96189 12.7128 8.64648 12.9473C8.27463 13.2236 7.81121 13.3799 7.19727 13.3799C6.4453 13.3799 5.73952 13.0718 5.2373 12.4512C4.74656 11.8446 4.5 11.004 4.5 10.0049C4.5 9.00572 4.74656 8.16518 5.2373 7.55859C5.73952 6.93798 6.4453 6.62988 7.19727 6.62988ZM13.1973 6.62988C13.8112 6.6299 14.2746 6.78615 14.6465 7.0625C14.9619 7.29697 15.2102 7.63925 15.3193 7.7666C15.5889 8.08104 15.5526 8.55463 15.2383 8.82422C14.9238 9.09374 14.4503 9.05751 14.1807 8.74316C13.9411 8.46364 13.888 8.36779 13.752 8.2666C13.6722 8.2073 13.5332 8.12989 13.1973 8.12988C12.8738 8.12988 12.6059 8.25167 12.4033 8.50195C12.1895 8.76626 12 9.23787 12 10.0049C12 10.7719 12.1895 11.2435 12.4033 11.5078C12.6059 11.7581 12.8738 11.8799 13.1973 11.8799C13.5332 11.8799 13.6722 11.8025 13.752 11.7432C13.888 11.642 13.9411 11.5461 14.1807 11.2666C14.4503 10.9523 14.9238 10.916 15.2383 11.1855C15.5526 11.4551 15.5889 11.9287 15.3193 12.2432C15.2102 12.3705 14.9619 12.7128 14.6465 12.9473C14.2746 13.2236 13.8112 13.3799 13.1973 13.3799C12.4453 13.3799 11.7395 13.0718 11.2373 12.4512C10.7466 11.8446 10.5 11.004 10.5 10.0049C10.5 9.00572 10.7466 8.16518 11.2373 7.55859C11.7395 6.93798 12.4453 6.62988 13.1973 6.62988Z" fill="#1D1C1D"/>
</svg>
