<svg width="20" height="20" viewBox="0 0 20 20" fill="none" xmlns="http://www.w3.org/2000/svg">
<path d="M11.6406 2.49609C14.3894 2.4962 16.6181 4.72473 16.6181 7.47363C16.6181 7.80437 16.5843 8.12787 16.5224 8.44141C17.7132 9.25189 18.497 10.6196 18.497 12.1709C18.4969 14.6603 16.4786 16.6786 13.9892 16.6787H5.06439C3.09375 16.6787 1.49615 15.081 1.49603 13.1104C1.49603 11.859 2.13907 10.7579 3.11224 10.1211C2.97842 9.73245 2.90523 9.3158 2.90521 8.88281C2.90521 6.78252 4.6077 5.07931 6.70795 5.0791C6.89332 5.0791 7.07606 5.09434 7.25482 5.12012C8.09421 3.55913 9.74217 2.49609 11.6406 2.49609ZM11.6406 3.99609C10.1513 3.99609 8.87887 4.93313 8.38373 6.25195C8.24161 6.62994 7.82516 6.82785 7.44232 6.69922C7.21271 6.62208 6.96589 6.5791 6.70795 6.5791C5.43613 6.57931 4.40521 7.61095 4.40521 8.88281C4.40523 9.32026 4.52693 9.72719 4.73724 10.0742C4.8533 10.2659 4.87684 10.4995 4.80267 10.7109C4.72845 10.9224 4.5639 11.0899 4.35345 11.167C3.56037 11.4574 2.99603 12.2191 2.99603 13.1104C2.99615 14.2525 3.92217 15.1787 5.06439 15.1787H13.9892C15.6501 15.1786 16.9969 13.8319 16.997 12.1709C16.997 10.9898 16.3161 9.9661 15.3222 9.47363C14.9875 9.3078 14.8261 8.92107 14.9433 8.56641C15.0566 8.2238 15.1181 7.85653 15.1181 7.47363C15.1181 5.55316 13.561 3.9962 11.6406 3.99609ZM10.2314 7.19336C10.4302 7.19341 10.6211 7.27253 10.7617 7.41309L13.1103 9.76172C13.403 10.0546 13.4031 10.5294 13.1103 10.8223C12.8175 11.1151 12.3426 11.115 12.0497 10.8223L10.9814 9.75391V13.1104C10.9813 13.5244 10.6454 13.8603 10.2314 13.8604C9.81727 13.8603 9.4815 13.5244 9.48138 13.1104V9.75391L8.41302 10.8223C8.12019 11.1151 7.64537 11.1149 7.35248 10.8223C7.05968 10.5294 7.05965 10.0546 7.35248 9.76172L9.70111 7.41309C9.84175 7.27246 10.0325 7.19337 10.2314 7.19336Z" fill="#1D1C1D"/>
</svg>
