<svg width="20" height="20" viewBox="0 0 20 20" fill="none" xmlns="http://www.w3.org/2000/svg">
<path d="M16.4414 2.99902C16.7179 2.6907 17.1926 2.66493 17.501 2.94141C17.8093 3.21792 17.8351 3.6926 17.5586 4.00098L4.55859 18.501C4.28208 18.8093 3.8074 18.8351 3.49902 18.5586C3.1907 18.2821 3.16493 17.8074 3.44141 17.499L16.4414 2.99902ZM17.2168 6.5166C17.4289 7.16435 17.5286 7.85637 17.4912 8.56641C18.4235 9.51336 19 10.8149 19 12.25C19 15.1495 16.6495 17.5 13.75 17.5H7.45508L17.2168 6.5166ZM11.75 2.5C12.6456 2.5 13.4912 2.713 14.2451 3.08594L2.31836 16.5049C2.30185 16.5235 2.28727 16.5435 2.27148 16.5625C1.49233 15.8753 1 14.8705 1 13.75C1 12.4769 1.63454 11.3532 2.60254 10.6758C2.05236 8.14032 4.04532 5.54088 6.69922 5.50098C7.67368 3.71425 9.56914 2.5 11.75 2.5Z" fill="#1D1C1D"/>
</svg>
