<svg width="20" height="20" viewBox="0 0 20 20" fill="none" xmlns="http://www.w3.org/2000/svg">
<path d="M16.4414 2.99902C16.7179 2.6907 17.1926 2.66493 17.501 2.94141C17.8093 3.21792 17.8351 3.6926 17.5586 4.00098L4.55859 18.501C4.28208 18.8093 3.8074 18.8351 3.49902 18.5586C3.1907 18.2821 3.16493 17.8074 3.44141 17.499L16.4414 2.99902ZM17.2158 6.51758C17.4276 7.16532 17.5268 7.85738 17.4893 8.56738C18.4219 9.51438 19 10.8146 19 12.25C19 15.1495 16.6495 17.5 13.75 17.5H7.45508L8.78809 16H13.75C15.8211 16 17.5 14.3211 17.5 12.25C17.5 11.1246 17.0052 10.1152 16.2188 9.42676C16.0321 9.26323 15.9386 9.01779 15.9688 8.77148C16.0044 8.47957 16.0068 8.19041 15.9814 7.90723L17.2158 6.51758ZM11.75 2.5C12.6457 2.5 13.4913 2.71293 14.2451 3.08594L13.1973 4.26465C12.7453 4.09467 12.2581 4 11.75 4C10.0007 4 8.49665 5.05719 7.84473 6.57031C7.71372 6.87412 7.39899 7.05632 7.07031 7.01855C5.06562 6.78702 3.46621 8.90996 4.18848 10.7529C4.33315 11.1221 4.16538 11.5402 3.80566 11.707C3.03338 12.0649 2.5 12.846 2.5 13.75C2.5 14.4233 2.79696 15.0261 3.26562 15.4385L2.31836 16.5049C2.30185 16.5235 2.28727 16.5435 2.27148 16.5625C1.49233 15.8753 1 14.8705 1 13.75C1 12.4765 1.63601 11.3541 2.60449 10.6768C2.05301 8.14033 4.04502 5.54095 6.7002 5.50195C7.6746 3.71504 9.569 2.5 11.75 2.5Z" fill="#1D1C1D"/>
</svg>
