<svg width="20" height="20" viewBox="0 0 20 20" fill="none" xmlns="http://www.w3.org/2000/svg">
<path d="M11.1221 3.71213C11.2426 3.31604 11.6615 3.09197 12.0577 3.21213C12.4537 3.33248 12.6776 3.75154 12.5577 4.14767L8.87116 16.2903C8.75084 16.6866 8.33197 16.9106 7.93562 16.7903C7.53938 16.6699 7.31531 16.251 7.43562 15.8547L11.1221 3.71213ZM4.41218 6.24338C4.70387 5.94961 5.17872 5.94793 5.47272 6.23947C5.76635 6.53114 5.76805 7.00604 5.47663 7.30002L2.80573 9.9924L5.47663 12.6838C5.76807 12.9778 5.76653 13.4527 5.47272 13.7444C5.17885 14.0359 4.70395 14.034 4.41218 13.7404L1.21784 10.5217C0.927714 10.2294 0.927831 9.75752 1.21784 9.46506L4.41218 6.24338ZM14.5196 6.23947C14.8136 5.94793 15.2885 5.94962 15.5801 6.24338L18.7745 9.46506C19.0645 9.75752 19.0646 10.2294 18.7745 10.5217L15.5801 13.7404C15.2884 14.034 14.8135 14.0359 14.5196 13.7444C14.2258 13.4527 14.2243 12.9778 14.5157 12.6838L17.1866 9.9924L14.5157 7.30002C14.2243 7.00605 14.226 6.53114 14.5196 6.23947Z" fill="#1D1C1D"/>
</svg>
