<svg width="20" height="20" viewBox="0 0 20 20" fill="none" xmlns="http://www.w3.org/2000/svg">
<path d="M17.2502 3.00253C18.2166 3.00262 19.0002 3.78609 19.0002 4.75253V16.2525C18.9999 17.2188 18.2164 18.0024 17.2502 18.0025H4.25017C3.28383 18.0025 2.50042 17.2188 2.50017 16.2525V12.7525C2.50017 12.3383 2.83595 12.0025 3.25017 12.0025C3.6643 12.0026 4.00017 12.3384 4.00017 12.7525V16.2525C4.00042 16.3904 4.11225 16.5025 4.25017 16.5025H17.2502C17.388 16.5024 17.4999 16.3903 17.5002 16.2525V4.75253C17.5002 4.61452 17.3882 4.50262 17.2502 4.50253H15.2502C14.8361 4.50253 14.5004 4.16652 14.5002 3.75253C14.5002 3.33832 14.836 3.00253 15.2502 3.00253H17.2502ZM7.78825 2.26327C7.91924 1.87032 8.34451 1.65768 8.73747 1.78866C9.13029 1.91973 9.34304 2.345 9.21208 2.73788L6.71208 10.2379C6.58106 10.6307 6.1557 10.8433 5.76286 10.7125C5.36996 10.5815 5.15738 10.1562 5.28825 9.76327L7.78825 2.26327ZM2.93962 3.50253C3.2147 3.19292 3.68855 3.16499 3.99821 3.44003C4.30762 3.71514 4.3357 4.18903 4.06071 4.49862L2.50407 6.25253L4.06071 8.00253C4.3355 8.31202 4.30751 8.78598 3.99821 9.06112C3.68879 9.33603 3.21485 9.30779 2.93962 8.99862L0.93962 6.75058C0.687124 6.46654 0.687277 6.03868 0.93962 5.75448L2.93962 3.50253ZM10.5021 3.44003C10.8118 3.16499 11.2856 3.19292 11.5607 3.50253L13.5607 5.75448C13.8129 6.03868 13.8132 6.46659 13.5607 6.75058L11.5607 8.99862C11.2856 9.30788 10.8116 9.3359 10.5021 9.06112C10.1928 8.78593 10.1647 8.31202 10.4396 8.00253L11.9963 6.25155L10.4396 4.49862C10.1646 4.18897 10.1925 3.71512 10.5021 3.44003Z" fill="#1D1C1D"/>
</svg>
