<svg width="20" height="20" viewBox="0 0 20 20" fill="none" xmlns="http://www.w3.org/2000/svg">
<path d="M5.57616 1.25214C6.13755 1.08507 6.74035 1.33128 7.02537 1.84296L7.60057 2.87714C7.67178 3.00493 7.83858 3.04461 7.95995 2.96308L8.94139 2.29902C9.4267 1.97139 10.0746 2.02549 10.5 2.42792L11.1494 3.0412L11.2246 3.11933C11.584 3.5237 11.6442 4.11961 11.3623 4.59101L10.7549 5.60761C10.68 5.73317 10.7281 5.89688 10.8594 5.96112L11.9248 6.4787C12.4514 6.73513 12.7297 7.32396 12.5937 7.89374L12.4941 8.30683L12.7021 7.88202C12.9585 7.35552 13.5466 7.07738 14.1162 7.21308L14.9844 7.42011C15.5185 7.54773 15.9031 8.00749 15.9414 8.54706L15.9453 8.65546L15.9267 9.84101C15.9251 9.98707 16.0485 10.1033 16.1943 10.093L17.376 10.01L17.4844 10.007C17.989 10.0152 18.4406 10.3276 18.626 10.7971L18.6611 10.8996L18.917 11.756C19.0838 12.3174 18.8378 12.9194 18.3262 13.2043L17.291 13.7805C17.1634 13.8518 17.1244 14.0176 17.206 14.1389L17.8691 15.1203C18.1968 15.6055 18.1445 16.2545 17.7422 16.6799L17.1279 17.3293C16.7254 17.7542 16.0806 17.8423 15.5781 17.5422L14.5625 16.9338C14.4367 16.8585 14.2731 16.9075 14.209 17.0392L13.6904 18.1037C13.4341 18.6302 12.846 18.9083 12.2764 18.7726L11.4082 18.5656C10.8384 18.4297 10.4383 17.9159 10.4472 17.3303L10.4658 16.1457C10.4679 15.9994 10.3442 15.8826 10.1982 15.8928L9.01659 15.9767C8.43253 16.0179 7.89777 15.6472 7.73045 15.0861L7.47557 14.2307C7.30839 13.6691 7.55448 13.0664 8.06639 12.7814L8.42381 12.5822L8.05077 12.6935C7.48958 12.8603 6.8875 12.6151 6.60252 12.1037L6.02635 11.0685C5.95509 10.9409 5.78927 10.9011 5.66795 10.9826L4.68651 11.6467C4.20115 11.9743 3.55134 11.9213 3.12596 11.5187L2.47752 10.9045C2.05272 10.502 1.96459 9.85806 2.26463 9.35566L2.87303 8.33905C2.94826 8.21329 2.89933 8.04968 2.76756 7.98554L1.70311 7.46796C1.17652 7.21162 0.898414 6.62262 1.03416 6.05292L1.2412 5.18476C1.37716 4.61502 1.89091 4.21585 2.47655 4.2248L3.66112 4.24335C3.80727 4.24542 3.92397 4.12155 3.91405 3.97577L3.83006 2.79316C3.78909 2.20925 4.15973 1.6743 4.72069 1.50702L5.57616 1.25214ZM13.5322 9.6037C13.0832 10.5258 11.9408 10.8654 11.0605 10.3391L10.2168 9.83319L9.87791 10.1906L10.4297 11.007C11.0035 11.857 10.727 13.0177 9.83104 13.5168L8.96971 13.9943L9.11034 14.465L10.0928 14.3967C11.1159 14.3245 11.9816 15.1436 11.9658 16.1691L11.9512 17.1525L12.4297 17.2668L12.8594 16.383C13.3083 15.4604 14.4516 15.1199 15.332 15.6467L16.1767 16.1516L16.5137 15.7941L15.9629 14.9787C15.3889 14.1287 15.6655 12.969 16.5615 12.4699L17.4209 11.9914L17.2812 11.5197L16.2998 11.5891C15.2767 11.6613 14.4101 10.8421 14.4258 9.81659L14.4414 8.83319L13.9629 8.71894L13.5322 9.6037ZM11.7949 12.6682C11.9657 11.953 12.6842 11.5115 13.3994 11.6818C14.1148 11.8525 14.5571 12.571 14.3867 13.2863C14.216 14.0018 13.4968 14.4434 12.7812 14.2726C12.0661 14.1017 11.6243 13.3834 11.7949 12.6682ZM5.34178 2.88691L5.41014 3.86933C5.48247 4.89253 4.6633 5.75813 3.63768 5.74237L2.65428 5.72773L2.54002 6.20624L3.42381 6.63593C4.34639 7.08488 4.68694 8.22911 4.16014 9.10956L3.65526 9.95331L4.01268 10.2912L4.82811 9.74042C5.67816 9.16623 6.83785 9.44278 7.3369 10.3391L7.81541 11.1984L8.28709 11.0578L8.21678 10.0773C8.14429 9.05419 8.96378 8.18788 9.98924 8.20331L10.9736 8.21796L11.0879 7.74042L10.2031 7.30878C9.28102 6.85973 8.94137 5.71735 9.46776 4.8371L9.97264 3.99335L9.6162 3.65546L8.79979 4.20624C7.94975 4.78034 6.78904 4.50385 6.29002 3.60761L5.81248 2.74628L5.34178 2.88691ZM5.53416 6.55878C5.70503 5.84345 6.42324 5.40175 7.13866 5.57245C7.85389 5.74329 8.29548 6.46163 8.12498 7.17694C7.95419 7.89224 7.23584 8.33377 6.52049 8.16327C5.80505 7.99256 5.36358 7.27423 5.53416 6.55878Z" fill="#1D1C1D"/>
</svg>
