<svg width="20" height="20" viewBox="0 0 20 20" fill="none" xmlns="http://www.w3.org/2000/svg">
<path d="M14.7512 1.49805C16.8221 1.49815 18.5012 3.17704 18.5012 5.24805V14.7529C18.5011 16.8238 16.8221 18.5028 14.7512 18.5029H5.26483C3.19383 18.5029 1.51494 16.8239 1.51483 14.7529V5.24805C1.51483 3.17698 3.19376 1.49805 5.26483 1.49805H14.7512ZM8.17987 17.0029H11.7805V2.99805H8.17987V17.0029ZM13.2805 17.0029H14.7512C15.9936 17.0028 17.0011 15.9954 17.0012 14.7529V5.24805C17.0012 4.00547 15.9937 2.99815 14.7512 2.99805H13.2805V17.0029ZM5.26483 2.99805C4.02219 2.99805 3.01483 4.00541 3.01483 5.24805V14.7529C3.01494 15.9955 4.02226 17.0029 5.26483 17.0029H6.67987V2.99805H5.26483Z" fill="#1D1C1D"/>
</svg>
