<svg width="20" height="20" viewBox="0 0 20 20" fill="none" xmlns="http://www.w3.org/2000/svg">
<path d="M14.7518 1.49707C16.8228 1.49707 18.5018 3.176 18.5018 5.24707V14.751C18.5018 16.822 16.8228 18.501 14.7518 18.501H5.24689C3.17582 18.501 1.49689 16.822 1.49689 14.751V5.24707C1.49689 3.176 3.17582 1.49707 5.24689 1.49707H14.7518ZM10.7498 17.001H14.7518C15.9944 17.001 17.0018 15.9936 17.0018 14.751V5.24707C17.0018 4.00443 15.9944 2.99707 14.7518 2.99707H10.7498V17.001ZM5.24689 2.99707C4.00425 2.99707 2.99689 4.00443 2.99689 5.24707V14.751C2.99689 15.9936 4.00425 17.001 5.24689 17.001H9.24982V2.99707H5.24689Z" fill="#1D1C1D"/>
</svg>
