<svg width="20" height="20" viewBox="0 0 20 20" fill="none" xmlns="http://www.w3.org/2000/svg">
<path d="M7.99316 3C11.8551 3.00016 14.9854 6.1312 14.9854 9.99316C14.9853 11.1141 14.7182 12.1737 14.248 13.1143L14.9648 16.0586C15.0266 16.3129 14.9507 16.5806 14.7656 16.7656C14.5806 16.9507 14.3129 17.0266 14.0586 16.9648L11.1143 16.248C10.1737 16.7182 9.11414 16.9853 7.99316 16.9854C4.1312 16.9854 1.00016 13.8551 1 9.99316C1 6.1311 4.1311 3 7.99316 3ZM14.0039 4.02832C14.1817 3.65446 14.6299 3.49523 15.0039 3.67285C17.3645 4.79438 18.999 7.20264 18.999 9.99316C18.9989 11.1142 18.731 12.1737 18.2607 13.1143L18.9775 16.0586C19.0393 16.3128 18.9642 16.5806 18.7793 16.7656C18.5942 16.9507 18.3256 17.0257 18.0713 16.9639L17.0957 16.7266L16.3994 16.5576C15.997 16.4597 15.7498 16.0538 15.8477 15.6514C15.9456 15.249 16.3515 15.0018 16.7539 15.0996L17.2285 15.2148L16.7383 13.1973C16.6939 13.0141 16.72 12.821 16.8115 12.6562C17.2494 11.8682 17.4989 10.9609 17.499 9.99316C17.499 7.80317 16.2168 5.91071 14.3594 5.02832C13.9855 4.85048 13.8262 4.40235 14.0039 4.02832ZM7.99316 4.5C4.95953 4.5 2.5 6.95953 2.5 9.99316C2.50016 13.0267 4.95963 15.4854 7.99316 15.4854C8.96098 15.4853 9.86814 15.2358 10.6562 14.7979C10.8211 14.7062 11.015 14.68 11.1982 14.7246L13.2148 15.2148L12.7246 13.1982C12.68 13.015 12.7062 12.8211 12.7979 12.6562C13.2358 11.8681 13.4853 10.961 13.4854 9.99316C13.4854 6.95963 11.0267 4.50016 7.99316 4.5Z" fill="#1D1C1D"/>
</svg>
