<svg width="20" height="20" viewBox="0 0 20 20" fill="none" xmlns="http://www.w3.org/2000/svg">
<path fill-rule="evenodd" clip-rule="evenodd" d="M14.9854 9.99316C14.9853 11.1141 14.7182 12.1737 14.248 13.1143L14.9648 16.0586C15.0266 16.3129 14.9507 16.5806 14.7656 16.7656C14.5806 16.9507 14.3129 17.0266 14.0586 16.9648L11.1143 16.248C10.1737 16.7182 9.11414 16.9853 7.99316 16.9854C4.1312 16.9854 1.00016 13.8551 1 9.99316C1 6.1311 4.1311 3 7.99316 3C11.8551 3.00016 14.9854 6.1312 14.9854 9.99316ZM17.4991 9.9933C17.4991 7.80325 16.2169 5.91086 14.3594 5.02846C13.9854 4.85064 13.8262 4.40252 14.0039 4.02846C14.1818 3.6545 14.6299 3.49529 15.0039 3.67299C17.3646 4.79453 18.9991 7.20272 18.9991 9.9933C18.999 11.1144 18.731 12.1738 18.2608 13.1144L18.9776 16.0587C19.0393 16.3129 18.9643 16.5807 18.7793 16.7658C18.5942 16.9508 18.3256 17.0259 18.0713 16.964L17.0957 16.7267L16.3994 16.5578C15.997 16.4599 15.7498 16.054 15.8477 15.6515C15.9456 15.2491 16.3515 15.0019 16.7539 15.0997L17.2285 15.215L16.7383 13.1974C16.6939 13.0142 16.72 12.8212 16.8116 12.6564C17.2494 11.8683 17.499 10.961 17.4991 9.9933Z" fill="#1D1C1D"/>
</svg>
