<svg width="12" height="12" viewBox="0 0 12 12" fill="none" xmlns="http://www.w3.org/2000/svg">
<path d="M7.43003 4.59226L7.43004 3.15996C7.43005 2.38125 8.06132 1.74999 8.84003 1.75C9.61874 1.75001 10.25 2.38683 10.25 3.16554C10.25 3.9504 9.61373 4.59226 8.82886 4.59226H7.43003ZM7.43003 4.59226L7.43 7.42781M7.43003 4.59226H4.59002M7.43 7.42781L7.42998 8.83999C7.42998 9.6187 8.06124 10.25 8.83996 10.25C9.61866 10.25 10.2499 9.61819 10.25 8.83949C10.25 8.06015 9.6182 7.42781 8.83886 7.42781H7.43ZM7.43 7.42781H4.58999M4.58999 7.42781H3.16111C2.38179 7.42781 1.75002 8.05956 1.75 8.83887C1.74998 9.61821 2.38619 10.25 3.16553 10.25C3.94977 10.25 4.58997 9.61426 4.58998 8.83003L4.58999 7.42781ZM4.58999 7.42781L4.59002 4.59226M4.59002 4.59226L4.59003 3.17002C4.59004 2.38577 3.95429 1.75001 3.17004 1.75001C2.3858 1.75001 1.75005 2.38633 1.75004 3.17056C1.75004 3.95543 2.3863 4.59226 3.17117 4.59226H4.59002Z" stroke="#1D1C1D"/>
</svg>
