<svg width="20" height="20" viewBox="0 0 20 20" fill="none" xmlns="http://www.w3.org/2000/svg">
<path d="M12.6077 7.43294L12.6077 4.8211C12.6077 3.40111 13.7589 2.24999 15.1789 2.25C16.5989 2.25001 17.75 3.41128 17.75 4.83128C17.75 6.2625 16.5898 7.43294 15.1585 7.43294H12.6077ZM12.6077 7.43294L12.6076 12.6037M12.6077 7.43294H7.42886M12.6076 12.6037L12.6076 15.1788C12.6076 16.5988 13.7587 17.75 15.1787 17.75C16.5987 17.75 17.7499 16.5979 17.7499 15.1779C17.75 13.7567 16.5979 12.6037 15.1768 12.6037H12.6076ZM12.6076 12.6037H7.42881M7.42881 12.6037H4.82318C3.40208 12.6037 2.25003 13.7557 2.25 15.1768C2.24997 16.5979 3.41011 17.75 4.83126 17.75C6.26133 17.75 7.42877 16.5907 7.42878 15.1606L7.42881 12.6037ZM7.42881 12.6037L7.42886 7.43294M7.42886 7.43294L7.42889 4.83945C7.4289 3.40936 6.26958 2.25003 4.83948 2.25003C3.4094 2.25003 2.25009 3.41036 2.25008 4.84044C2.25007 6.27166 3.41031 7.43294 4.84154 7.43294H7.42886Z" stroke="#1D1C1D" stroke-width="1.5"/>
</svg>
