<svg width="20" height="20" viewBox="0 0 20 20" fill="none" xmlns="http://www.w3.org/2000/svg">
<path d="M9.75 2.49948C10.1641 2.49948 10.4998 2.83545 10.5 3.24948C10.5 3.6637 10.1642 3.99948 9.75 3.99948H5.25C4.00749 3.99948 3.00021 5.00702 3 6.24948V14.7495C3 15.9921 4.00736 16.9995 5.25 16.9995H13.75C14.9926 16.9995 16 15.9921 16 14.7495V10.2495C16.0002 9.83545 16.3359 9.49948 16.75 9.49948C17.1641 9.49948 17.4998 9.83545 17.5 10.2495V14.7495C17.5 16.8206 15.8211 18.4995 13.75 18.4995H5.25C3.17893 18.4995 1.5 16.8206 1.5 14.7495V6.24948C1.50021 4.1786 3.17906 2.49948 5.25 2.49948H9.75ZM14.2324 2.20651C15.2087 1.23064 16.7914 1.23064 17.7676 2.20651L17.793 2.23191C18.769 3.20812 18.7689 4.79077 17.793 5.76706L11.0303 12.5298C10.931 12.629 10.8057 12.6983 10.6689 12.73L7.41895 13.48C7.16698 13.5381 6.90258 13.4626 6.71973 13.2798C6.53702 13.0969 6.46141 12.8324 6.51953 12.5805L7.26953 9.33054L7.2998 9.23093C7.33733 9.13322 7.39517 9.04377 7.46973 8.96921L14.2324 2.20651ZM8.68164 9.87741L8.25 11.7485L10.1211 11.3169L15.1885 6.24851L13.749 4.80905L8.68164 9.87741ZM16.707 3.26706C16.3166 2.87697 15.6834 2.87697 15.293 3.26706L14.8096 3.74851L16.249 5.18796L16.7324 4.70651C17.1226 4.31601 17.1227 3.68288 16.7324 3.29245L16.707 3.26706Z" fill="#1D1C1D"/>
</svg>
