<svg width="20" height="20" viewBox="0 0 20 20" fill="none" xmlns="http://www.w3.org/2000/svg">
<path d="M7.75 1.5C6.50736 1.5 5.5 2.50736 5.5 3.75V12.25C5.5 13.4926 6.50736 14.5 7.75 14.5H16.25C17.4926 14.5 18.5 13.4926 18.5 12.25V3.75C18.5 2.50736 17.4926 1.5 16.25 1.5H7.75Z" fill="#1D1C1D"/>
<path d="M3.75 5.5C2.50736 5.5 1.5 6.50736 1.5 7.75V16.25C1.5 17.4926 2.50736 18.5 3.75 18.5H12.25C13.4926 18.5 14.5 17.4926 14.5 16.25V16H13V16.25C13 16.6642 12.6642 17 12.25 17H3.75C3.33579 17 3 16.6642 3 16.25V7.75C3 7.33579 3.33579 7 3.75 7H4V5.5H3.75Z" fill="#1D1C1D"/>
</svg>
