<svg width="20" height="20" viewBox="0 0 20 20" fill="none" xmlns="http://www.w3.org/2000/svg">
<path d="M4 7H3.75C3.33579 7 3 7.33579 3 7.75V16.25C3 16.6642 3.33579 17 3.75 17H12.25C12.6642 17 13 16.6642 13 16.25V16H14.5V16.25C14.5 17.4926 13.4926 18.5 12.25 18.5H3.75C2.50736 18.5 1.5 17.4926 1.5 16.25V7.75C1.5 6.50736 2.50736 5.5 3.75 5.5H4V7ZM16.25 1.5C17.4926 1.5 18.5 2.50736 18.5 3.75V12.25C18.5 13.4926 17.4926 14.5 16.25 14.5H7.75C6.50736 14.5 5.5 13.4926 5.5 12.25V3.75C5.5 2.50736 6.50736 1.5 7.75 1.5H16.25ZM7.75 3C7.33579 3 7 3.33579 7 3.75V12.25C7 12.6642 7.33579 13 7.75 13H16.25C16.6642 13 17 12.6642 17 12.25V3.75C17 3.33579 16.6642 3 16.25 3H7.75Z" fill="#1D1C1D"/>
</svg>
