<svg width="20" height="20" viewBox="0 0 20 20" fill="none" xmlns="http://www.w3.org/2000/svg">
<path d="M15.5 3.5C17.1569 3.5 18.5 4.84315 18.5 6.5V13.5C18.5 15.1051 17.2394 16.4158 15.6543 16.4961L15.5 16.5H4.5L4.3457 16.4961C2.81166 16.4184 1.58163 15.1883 1.50391 13.6543L1.5 13.5V6.5C1.5 4.84315 2.84315 3.5 4.5 3.5H15.5ZM3 13.5C3 14.3284 3.67157 15 4.5 15H15.5C16.3284 15 17 14.3284 17 13.5V10H3V13.5ZM7 12C7.27614 12 7.5 12.2239 7.5 12.5C7.5 12.7761 7.27614 13 7 13H5C4.72386 13 4.5 12.7761 4.5 12.5C4.5 12.2239 4.72386 12 5 12H7ZM12.5 12C12.7761 12 13 12.2239 13 12.5C13 12.7761 12.7761 13 12.5 13H9.5C9.22386 13 9 12.7761 9 12.5C9 12.2239 9.22386 12 9.5 12H12.5ZM4.5 5C3.67157 5 3 5.67157 3 6.5V7H17V6.5C17 5.67157 16.3284 5 15.5 5H4.5Z" fill="#1D1C1D"/>
</svg>
