<svg width="20" height="20" viewBox="0 0 20 20" fill="none" xmlns="http://www.w3.org/2000/svg">
<path d="M6.47362 1.49609C6.88779 1.49614 7.22362 1.83191 7.22362 2.24609C7.22362 2.66028 6.88779 2.99605 6.47362 2.99609H6.12499C5.43463 2.99609 4.87499 3.55574 4.87499 4.24609V7.29688C4.87499 7.69425 4.73944 8.08033 4.4912 8.39062L3.20604 9.99609L4.4912 11.6025C4.73934 11.9127 4.87488 12.2981 4.87499 12.6953V15.7471C4.87517 16.4373 5.43474 16.9971 6.12499 16.9971H6.47362C6.88779 16.9971 7.22362 17.3329 7.22362 17.7471C7.22344 18.1611 6.88768 18.497 6.47362 18.4971H6.12499C4.60631 18.4971 3.37517 17.2657 3.37499 15.7471V12.6953C3.37488 12.6389 3.3555 12.5842 3.3203 12.54L1.66014 10.4648C1.44128 10.1911 1.44138 9.80215 1.66014 9.52832L3.3203 7.45312C3.3557 7.40882 3.37499 7.35359 3.37499 7.29688V4.24609C3.37499 2.72731 4.6062 1.49609 6.12499 1.49609H6.47362ZM13.8682 1.49609C15.3868 1.49627 16.6182 2.72742 16.6182 4.24609V7.29688C16.6182 7.35359 16.6374 7.40882 16.6728 7.45312L18.333 9.52832C18.5516 9.80208 18.5517 10.1911 18.333 10.4648L16.6728 12.54C16.6376 12.5842 16.6183 12.6389 16.6182 12.6953V15.7471C16.618 17.2656 15.3867 18.4969 13.8682 18.4971H13.5195C13.1055 18.497 12.7697 18.1611 12.7695 17.7471C12.7695 17.3329 13.1053 16.9971 13.5195 16.9971H13.8682C14.5582 16.9969 15.118 16.4372 15.1182 15.7471V12.6953C15.1183 12.2981 15.2538 11.9127 15.5019 11.6025L16.7871 9.99609L15.5019 8.39062C15.2537 8.08033 15.1182 7.69425 15.1182 7.29688V4.24609C15.1182 3.55585 14.5584 2.99627 13.8682 2.99609H13.5195C13.1053 2.99605 12.7695 2.66028 12.7695 2.24609C12.7695 1.83191 13.1053 1.49614 13.5195 1.49609H13.8682Z" fill="#1D1C1D"/>
</svg>
