<svg width="20" height="20" viewBox="0 0 20 20" fill="none" xmlns="http://www.w3.org/2000/svg">
<path d="M12.9645 2.5498C13.6525 2.5498 14.3026 2.84116 14.774 3.34277C15.244 3.8428 15.5006 4.51188 15.5006 5.2002V6.48145H15.9469C16.635 6.48145 17.285 6.77281 17.7565 7.27441C18.2264 7.77443 18.483 8.44356 18.483 9.13184V14.8311C18.4829 15.5192 18.2263 16.1886 17.7565 16.6885C17.2851 17.1898 16.6348 17.4814 15.9469 17.4814H7.01917C6.33128 17.4813 5.68094 17.1899 5.20959 16.6885C4.73977 16.1886 4.48315 15.5192 4.48303 14.8311V13.5498H4.03674C3.34869 13.5498 2.69861 13.2584 2.22717 12.7568C1.75724 12.2568 1.50061 11.5877 1.50061 10.8994V5.2002C1.50061 4.51188 1.75724 3.8428 2.22717 3.34277C2.69861 2.84116 3.34869 2.5498 4.03674 2.5498H12.9645ZM7.01917 7.98145C6.76014 7.98155 6.50061 8.09083 6.30237 8.30176C6.10291 8.51432 5.98303 8.81266 5.98303 9.13184V14.8311C5.98315 15.1503 6.10276 15.4486 6.30237 15.6611C6.5006 15.872 6.76017 15.9813 7.01917 15.9814H15.9469C16.2059 15.9814 16.4654 15.8719 16.6637 15.6611C16.8633 15.4486 16.9829 15.1503 16.983 14.8311V9.13184C16.983 8.81248 16.8634 8.51435 16.6637 8.30176C16.4654 8.09073 16.206 7.98145 15.9469 7.98145H7.01917ZM11.484 9.21973C12.2161 9.21988 12.9185 9.5107 13.4362 10.0283C13.9539 10.5462 14.2448 11.2492 14.2448 11.9814C14.2446 12.7136 13.9539 13.4158 13.4362 13.9336C12.9184 14.4513 12.2162 14.742 11.484 14.7422C10.7517 14.7422 10.0487 14.4513 9.53088 13.9336C9.01323 13.4159 8.72241 12.7136 8.72229 11.9814C8.72229 11.2491 9.01302 10.5462 9.53088 10.0283C10.0487 9.5105 10.7517 9.21973 11.484 9.21973ZM11.484 10.7197C11.1495 10.7197 10.828 10.8523 10.5914 11.0889C10.3549 11.3254 10.2223 11.6469 10.2223 11.9814C10.2224 12.3157 10.3551 12.6366 10.5914 12.873C10.828 13.1095 11.1496 13.2422 11.484 13.2422C11.8183 13.242 12.1392 13.1095 12.3756 12.873C12.612 12.6366 12.7446 12.3158 12.7448 11.9814C12.7448 11.647 12.612 11.3254 12.3756 11.0889C12.1392 10.8525 11.8183 10.7199 11.484 10.7197ZM4.03674 4.0498C3.7776 4.0498 3.51828 4.15909 3.31995 4.37012C3.12024 4.58271 3.00061 4.8808 3.00061 5.2002V10.8994C3.00061 11.2188 3.12024 11.5169 3.31995 11.7295C3.51828 11.9405 3.7776 12.0498 4.03674 12.0498H4.48303V9.13184C4.48303 8.44373 4.73992 7.7744 5.20959 7.27441C5.68095 6.77289 6.33124 6.48155 7.01917 6.48145H14.0006V5.2002C14.0006 4.8808 13.881 4.58271 13.6813 4.37012C13.4829 4.15909 13.2236 4.0498 12.9645 4.0498H4.03674Z" fill="#1D1C1D"/>
</svg>
