<svg width="20" height="20" viewBox="0 0 20 20" fill="none" xmlns="http://www.w3.org/2000/svg">
<path d="M10.085 1C13.9981 1 17.1709 2.84128 17.1709 5.1123L17.1611 5.32324V15.2881C17.1611 15.3441 17.1542 15.3986 17.1426 15.4512C17.0014 16.6006 16.0059 17.4551 14.8828 17.9941C13.6162 18.602 11.9188 18.957 10.085 18.957C8.25112 18.957 6.5537 18.6021 5.28711 17.9941C4.07463 17.4121 3.00889 16.4625 3.00879 15.1709C3.00879 15.1479 3.0097 15.125 3.01172 15.1025C3.00974 15.0804 3.00879 15.0579 3.00879 15.0352V5.32324L3 5.1123C3 2.84137 6.17201 1.00013 10.085 1ZM4.50879 15.0352C4.50879 15.0579 4.50687 15.0803 4.50488 15.1025C4.50691 15.125 4.50879 15.1479 4.50879 15.1709C4.5089 15.5561 4.85984 16.1247 5.93652 16.6416C6.95941 17.1326 8.42528 17.457 10.085 17.457C11.7446 17.457 13.2105 17.1325 14.2334 16.6416C15.243 16.157 15.6147 15.6269 15.6572 15.2451L15.6611 15.1709V12.7412C15.4156 12.9072 15.1531 13.0568 14.8828 13.1865C13.6162 13.7944 11.9187 14.1494 10.085 14.1494C8.25112 14.1494 6.5537 13.7945 5.28711 13.1865C5.01652 13.0566 4.75453 12.9064 4.50879 12.7402V15.0352ZM15.6611 7.64844C14.364 8.6073 12.3486 9.22363 10.085 9.22363C7.82142 9.22356 5.80596 8.60727 4.50879 7.64844V10.3633L4.51367 10.4375C4.55634 10.8192 4.92722 11.3495 5.93652 11.834C6.95941 12.3249 8.42528 12.6494 10.085 12.6494C11.7445 12.6494 13.2105 12.3248 14.2334 11.834C15.2428 11.3495 15.6146 10.8193 15.6572 10.4375L15.6611 10.3633V7.64844ZM10.085 2.5C8.34511 2.50007 6.84337 2.91275 5.82812 3.50195C4.85151 4.06878 4.54645 4.64523 4.50684 5.02637C4.50705 5.03382 4.50879 5.04132 4.50879 5.04883V5.20996C4.55358 5.59117 4.86166 6.16176 5.82812 6.72266C6.84337 7.31184 8.34516 7.72357 10.085 7.72363C11.825 7.72363 13.3274 7.31191 14.3428 6.72266C15.396 6.11139 15.6708 5.48899 15.6709 5.1123C15.6709 4.73567 15.3961 4.11332 14.3428 3.50195C13.3274 2.9127 11.825 2.5 10.085 2.5Z" fill="#1D1C1D"/>
</svg>
