<svg width="20" height="20" viewBox="0 0 20 20" fill="none" xmlns="http://www.w3.org/2000/svg">
<path d="M14.7504 1.5C15.9929 1.50022 17.0004 2.50749 17.0004 3.75V10.1514L18.6391 16.2988C18.9353 17.4097 18.0983 18.4998 16.9487 18.5H3.0512C1.90161 18.4997 1.06454 17.4097 1.36077 16.2988L3.00042 10.1514V3.75C3.00042 2.50736 4.00778 1.5 5.25042 1.5H14.7504ZM5.00042 14.5C4.5862 14.5 4.25042 14.8358 4.25042 15.25C4.25042 15.6642 4.5862 16 5.00042 16C5.41444 15.9998 5.75042 15.6641 5.75042 15.25C5.75042 14.8359 5.41444 14.5002 5.00042 14.5ZM7.50042 14.5C7.0862 14.5 6.75042 14.8358 6.75042 15.25C6.75042 15.6642 7.0862 16 7.50042 16C7.91444 15.9998 8.25042 15.6641 8.25042 15.25C8.25042 14.8359 7.91444 14.5002 7.50042 14.5ZM10.0004 14.5C9.5862 14.5 9.25042 14.8358 9.25042 15.25C9.25042 15.6642 9.5862 16 10.0004 16C10.4144 15.9998 10.7504 15.6641 10.7504 15.25C10.7504 14.8359 10.4144 14.5002 10.0004 14.5ZM12.5004 14.5C12.0862 14.5 11.7504 14.8358 11.7504 15.25C11.7504 15.6642 12.0862 16 12.5004 16C12.9144 15.9998 13.2504 15.6641 13.2504 15.25C13.2504 14.8359 12.9144 14.5002 12.5004 14.5ZM15.0004 14.5C14.5862 14.5 14.2504 14.8358 14.2504 15.25C14.2504 15.6642 14.5862 16 15.0004 16C15.4144 15.9998 15.7504 15.6641 15.7504 15.25C15.7504 14.8359 15.4144 14.5002 15.0004 14.5ZM6.25042 12C5.8362 12 5.50042 12.3358 5.50042 12.75C5.50042 13.1642 5.8362 13.5 6.25042 13.5C6.66444 13.4998 7.00042 13.1641 7.00042 12.75C7.00042 12.3359 6.66444 12.0002 6.25042 12ZM8.75042 12C8.3362 12 8.00042 12.3358 8.00042 12.75C8.00042 13.1642 8.3362 13.5 8.75042 13.5C9.16444 13.4998 9.50042 13.1641 9.50042 12.75C9.50042 12.3359 9.16444 12.0002 8.75042 12ZM11.2504 12C10.8362 12 10.5004 12.3358 10.5004 12.75C10.5004 13.1642 10.8362 13.5 11.2504 13.5C11.6644 13.4998 12.0004 13.1641 12.0004 12.75C12.0004 12.3359 11.6644 12.0002 11.2504 12ZM13.7504 12C13.3362 12 13.0004 12.3358 13.0004 12.75C13.0004 13.1642 13.3362 13.5 13.7504 13.5C14.1644 13.4998 14.5004 13.1641 14.5004 12.75C14.5004 12.3359 14.1644 12.0002 13.7504 12ZM5.25042 3C4.8362 3 4.50042 3.33579 4.50042 3.75V9.5H15.5004V3.75C15.5004 3.33592 15.1644 3.00022 14.7504 3H5.25042ZM13.7504 4.5C14.1644 4.50022 14.5004 4.83592 14.5004 5.25C14.5004 5.66408 14.1644 5.99978 13.7504 6H11.2504C10.8362 6 10.5004 5.66421 10.5004 5.25C10.5004 4.83579 10.8362 4.5 11.2504 4.5H13.7504Z" fill="#1D1C1D"/>
</svg>
