<svg width="20" height="20" viewBox="0 0 20 20" fill="none" xmlns="http://www.w3.org/2000/svg">
<path d="M14.7504 1.5C15.9929 1.50023 17.0004 2.5075 17.0004 3.75V10.1514L18.6401 16.2988C18.9362 17.4096 18.0982 18.4997 16.9487 18.5H3.05221C1.9024 18.5 1.06454 17.4098 1.3608 16.2988L3.00045 10.1514V3.75C3.00045 2.50736 4.00781 1.5 5.25045 1.5H14.7504ZM2.81002 16.6855C2.76776 16.8442 2.88798 17 3.05221 17H16.9487C17.1127 16.9997 17.233 16.8441 17.1909 16.6855L15.6743 11H4.32662L2.81002 16.6855ZM5.00045 14.5C5.41447 14.5002 5.75045 14.8359 5.75045 15.25C5.75045 15.6641 5.41447 15.9998 5.00045 16C4.58624 16 4.25045 15.6642 4.25045 15.25C4.25045 14.8358 4.58624 14.5 5.00045 14.5ZM7.50045 14.5C7.91447 14.5002 8.25045 14.8359 8.25045 15.25C8.25045 15.6641 7.91447 15.9998 7.50045 16C7.08624 16 6.75045 15.6642 6.75045 15.25C6.75045 14.8358 7.08624 14.5 7.50045 14.5ZM10.0004 14.5C10.4145 14.5002 10.7504 14.8359 10.7504 15.25C10.7504 15.6641 10.4145 15.9998 10.0004 16C9.58624 16 9.25045 15.6642 9.25045 15.25C9.25045 14.8358 9.58624 14.5 10.0004 14.5ZM12.5004 14.5C12.9145 14.5002 13.2504 14.8359 13.2504 15.25C13.2504 15.6641 12.9145 15.9998 12.5004 16C12.0862 16 11.7504 15.6642 11.7504 15.25C11.7504 14.8358 12.0862 14.5 12.5004 14.5ZM15.0004 14.5C15.4145 14.5002 15.7504 14.8359 15.7504 15.25C15.7504 15.6641 15.4145 15.9998 15.0004 16C14.5862 16 14.2504 15.6642 14.2504 15.25C14.2504 14.8358 14.5862 14.5 15.0004 14.5ZM6.25045 12C6.66447 12.0002 7.00045 12.3359 7.00045 12.75C7.00045 13.1641 6.66447 13.4998 6.25045 13.5C5.83624 13.5 5.50045 13.1642 5.50045 12.75C5.50045 12.3358 5.83624 12 6.25045 12ZM8.75045 12C9.16447 12.0002 9.50045 12.3359 9.50045 12.75C9.50045 13.1641 9.16447 13.4998 8.75045 13.5C8.33624 13.5 8.00045 13.1642 8.00045 12.75C8.00045 12.3358 8.33624 12 8.75045 12ZM11.2504 12C11.6645 12.0002 12.0004 12.3359 12.0004 12.75C12.0004 13.1641 11.6645 13.4998 11.2504 13.5C10.8362 13.5 10.5004 13.1642 10.5004 12.75C10.5004 12.3358 10.8362 12 11.2504 12ZM13.7504 12C14.1645 12.0002 14.5004 12.3359 14.5004 12.75C14.5004 13.1641 14.1645 13.4998 13.7504 13.5C13.3362 13.5 13.0004 13.1642 13.0004 12.75C13.0004 12.3358 13.3362 12 13.7504 12ZM5.25045 3C4.83624 3 4.50045 3.33579 4.50045 3.75V9.5H15.5004V3.75C15.5004 3.33593 15.1645 3.00023 14.7504 3H5.25045ZM13.7504 4.5C14.1645 4.50023 14.5004 4.83593 14.5004 5.25C14.5004 5.66407 14.1645 5.99977 13.7504 6H11.2504C10.8362 6 10.5004 5.66421 10.5004 5.25C10.5004 4.83579 10.8362 4.5 11.2504 4.5H13.7504Z" fill="#1D1C1D"/>
</svg>
