<svg width="20" height="20" viewBox="0 0 20 20" fill="none" xmlns="http://www.w3.org/2000/svg">
<path d="M6.5 8.5C9.26142 8.5 11.5 10.7386 11.5 13.5C11.5 16.2614 9.26142 18.5 6.5 18.5C5.7787 18.5 5.09167 18.3464 4.4707 18.0703L2.39746 18.4854C2.15157 18.5345 1.89704 18.4576 1.71973 18.2803C1.54241 18.103 1.46547 17.8484 1.51465 17.6025L1.92969 15.5293C1.65362 14.9083 1.5 14.2213 1.5 13.5C1.5 10.7386 3.73858 8.50001 6.5 8.5ZM12.25 1.5C15.7018 1.5 18.5 4.29822 18.5 7.75C18.5 8.67797 18.2974 9.55876 17.9346 10.3506L18.4854 13.1025C18.5345 13.3484 18.4576 13.603 18.2803 13.7803C18.103 13.9576 17.8484 14.0345 17.6025 13.9854L14.8506 13.4346C14.2708 13.7002 13.6432 13.8799 12.9844 13.957C12.9949 13.8061 13 13.6536 13 13.5C13 9.91015 10.0899 7 6.5 7C6.34636 7 6.19395 7.00514 6.04297 7.01562C6.40649 3.90993 9.04668 1.5 12.25 1.5Z" fill="#1D1C1D"/>
</svg>
