<svg width="20" height="20" viewBox="0 0 20 20" fill="none" xmlns="http://www.w3.org/2000/svg">
<path d="M6.5 8.5C9.26142 8.5 11.5 10.7386 11.5 13.5C11.5 16.2614 9.26142 18.5 6.5 18.5C5.77839 18.5 5.09091 18.3466 4.46973 18.0703L2.39746 18.4854C2.15157 18.5345 1.89704 18.4576 1.71973 18.2803C1.54241 18.103 1.46547 17.8484 1.51465 17.6025L1.92969 15.5293C1.65362 14.9083 1.5 14.2213 1.5 13.5C1.5 10.7386 3.73858 8.50001 6.5 8.5ZM6.5 10C4.56701 10 3 11.567 3 13.5C3 14.0743 3.13824 14.6144 3.38184 15.0908C3.45867 15.2413 3.48231 15.4134 3.44922 15.5791L3.20605 16.793L4.4209 16.5508L4.5459 16.5371C4.67121 16.5334 4.79634 16.5605 4.90918 16.6182C5.38561 16.8618 5.92569 17 6.5 17C8.433 17 10 15.433 10 13.5C10 11.567 8.433 10 6.5 10ZM12.25 1.5C15.7016 1.50023 18.5 4.29836 18.5 7.75C18.5 8.67569 18.295 9.55473 17.9326 10.3467L18.4854 13.1025C18.5345 13.3483 18.4574 13.603 18.2803 13.7803C18.103 13.9574 17.8483 14.0345 17.6025 13.9854L14.8477 13.4346C14.6498 13.5251 14.4466 13.6069 14.2383 13.6768C13.8457 13.8082 13.4198 13.5967 13.2881 13.2041C13.1567 12.8117 13.3686 12.3869 13.7607 12.2549C13.9841 12.18 14.2009 12.0884 14.4082 11.9824L14.5254 11.9346C14.6449 11.8971 14.7733 11.8903 14.8975 11.915L16.793 12.2939L16.4141 10.3975C16.381 10.2319 16.4047 10.0596 16.4814 9.90918C16.8122 9.26226 17 8.52895 17 7.75C17 5.12679 14.8732 3.00023 12.25 3C10.0721 3.0002 8.23426 4.46689 7.6748 6.46777C7.56323 6.86662 7.14888 7.0998 6.75 6.98828C6.35147 6.87653 6.11809 6.46217 6.22949 6.06348C6.96545 3.43162 9.38183 1.5002 12.25 1.5Z" fill="#1D1C1D"/>
</svg>
