<svg width="20" height="20" viewBox="0 0 20 20" fill="none" xmlns="http://www.w3.org/2000/svg">
<path d="M17 1C18.1046 1 19 1.89543 19 3V17C19 18.0357 18.2128 18.887 17.2041 18.9893L17 19H3L2.7959 18.9893C1.85435 18.8938 1.1062 18.1457 1.01074 17.2041L1 17V3C1 1.89543 1.89543 1 3 1H17ZM17.5 12.582C17.4038 12.6068 17.3053 12.6265 17.2041 12.6367L17 12.6475H3L2.7959 12.6367C2.69468 12.6265 2.59618 12.6068 2.5 12.582V17C2.5 17.2761 2.72386 17.5 3 17.5H17C17.2761 17.5 17.5 17.2761 17.5 17V12.582ZM13.375 13.7061C13.9963 13.7061 14.5 14.2097 14.5 14.8311C14.4999 15.4523 13.9963 15.9561 13.375 15.9561C12.7537 15.9561 12.2501 15.4523 12.25 14.8311C12.25 14.2097 12.7537 13.7061 13.375 13.7061ZM3 2.5C2.72386 2.5 2.5 2.72386 2.5 3V10.6475C2.50022 10.9234 2.72399 11.1475 3 11.1475H17C17.276 11.1475 17.4998 10.9234 17.5 10.6475V3C17.5 2.72386 17.2761 2.5 17 2.5H3Z" fill="#1D1C1D"/>
</svg>
