<svg width="20" height="20" viewBox="0 0 20 20" fill="none" xmlns="http://www.w3.org/2000/svg">
<path d="M15.25 13.5C15.6642 13.5 16 13.8358 16 14.25V16.75C16 17.1642 15.6642 17.5 15.25 17.5H4.75C4.33579 17.5 4 17.1642 4 16.75V14.25C4 13.8358 4.33579 13.5 4.75 13.5C5.16421 13.5 5.5 13.8358 5.5 14.25V16H14.5V14.25C14.5 13.8358 14.8358 13.5 15.25 13.5ZM17.75 9.2002C18.1642 9.2002 18.5 9.53598 18.5 9.9502C18.4999 10.3643 18.1641 10.7002 17.75 10.7002H2.25C1.83585 10.7002 1.50011 10.3643 1.5 9.9502C1.5 9.53598 1.83579 9.2002 2.25 9.2002H17.75ZM15.25 2.5C15.6642 2.5 16 2.83579 16 3.25V5.75C16 6.16421 15.6642 6.5 15.25 6.5C14.8358 6.5 14.5 6.16421 14.5 5.75V4H5.5V5.75C5.5 6.16421 5.16421 6.5 4.75 6.5C4.33579 6.5 4 6.16421 4 5.75V3.25C4 2.83579 4.33579 2.5 4.75 2.5H15.25Z" fill="#1D1C1D"/>
</svg>
