<svg width="20" height="20" viewBox="0 0 20 20" fill="none" xmlns="http://www.w3.org/2000/svg">
<path d="M13.5 16.5C13.9142 16.5 14.25 16.8358 14.25 17.25C14.25 17.6642 13.9142 18 13.5 18H3C2.58579 18 2.25 17.6642 2.25 17.25C2.25 16.8358 2.58579 16.5 3 16.5H13.5ZM17.25 11.75C17.6642 11.75 18 12.0858 18 12.5C18 12.9142 17.6642 13.25 17.25 13.25H2.75C2.33579 13.25 2 12.9142 2 12.5C2 12.0858 2.33579 11.75 2.75 11.75H17.25ZM17.5 7C17.9142 7 18.25 7.33579 18.25 7.75C18.25 8.16421 17.9142 8.5 17.5 8.5H3C2.58579 8.5 2.25 8.16421 2.25 7.75C2.25 7.33579 2.58579 7 3 7H17.5ZM17.5 2.25C17.9142 2.25 18.25 2.58579 18.25 3C18.25 3.41421 17.9142 3.75 17.5 3.75H3C2.58579 3.75 2.25 3.41421 2.25 3C2.25 2.58579 2.58579 2.25 3 2.25H17.5Z" fill="#1D1C1D"/>
</svg>
