<svg width="20" height="20" viewBox="0 0 20 20" fill="none" xmlns="http://www.w3.org/2000/svg">
<path d="M11.75 2.5C14.6495 2.5 17 4.8505 17 7.75C17 8.11042 16.9631 8.46282 16.8936 8.80371C18.1627 9.65556 19 11.1043 19 12.75C19 15.3734 16.8734 17.5 14.25 17.5H4.75C2.67893 17.5 1 15.8211 1 13.75C1 12.4219 1.69058 11.2569 2.73047 10.5908C2.58121 10.1712 2.5 9.71966 2.5 9.25C2.5 7.04086 4.29086 5.25 6.5 5.25C6.70697 5.25 6.91034 5.26737 7.10938 5.29785C7.98974 3.63515 9.7357 2.5 11.75 2.5ZM11.75 4C10.1439 4 8.7722 5.01052 8.23828 6.43262C8.0962 6.81061 7.6797 7.00844 7.29688 6.87988C7.04756 6.79612 6.77988 6.75 6.5 6.75C5.11929 6.75 4 7.86929 4 9.25C4 9.72475 4.13204 10.1662 4.36035 10.543C4.47657 10.7347 4.50003 10.9691 4.42578 11.1807C4.35146 11.3921 4.18699 11.5597 3.97656 11.6367C3.1139 11.9526 2.5 12.7803 2.5 13.75C2.5 14.9926 3.50736 16 4.75 16H14.25C16.0449 16 17.5 14.5449 17.5 12.75C17.5 11.4737 16.7643 10.368 15.6904 9.83594C15.3558 9.67015 15.1945 9.2833 15.3115 8.92871C15.4337 8.55915 15.5 8.16284 15.5 7.75C15.5 5.67893 13.8211 4 11.75 4ZM10.25 7.5C10.6642 7.5 11 7.83579 11 8.25V11.9395L12.2197 10.7197C12.5126 10.4268 12.9874 10.4268 13.2803 10.7197C13.5732 11.0126 13.5732 11.4874 13.2803 11.7803L10.7803 14.2803C10.4874 14.5732 10.0126 14.5732 9.71973 14.2803L7.21973 11.7803C6.92683 11.4874 6.92683 11.0126 7.21973 10.7197C7.51262 10.4268 7.98738 10.4268 8.28027 10.7197L9.5 11.9395V8.25C9.5 7.83579 9.83579 7.5 10.25 7.5Z" fill="#1D1C1D"/>
</svg>
