<svg width="20" height="20" viewBox="0 0 20 20" fill="none" xmlns="http://www.w3.org/2000/svg">
<path d="M1.56445 11.625C1.24721 10.6527 2.16738 9.73259 3.13965 10.0498L5.12695 10.6982C5.38826 10.7837 5.62587 10.9297 5.82031 11.124L9.92578 15.2295C10.6092 15.9129 10.6092 17.0207 9.92578 17.7041L9.21875 18.4111C8.53534 19.0945 7.42756 19.0945 6.74414 18.4111L2.63867 14.3057C2.44431 14.1112 2.29835 13.8736 2.21289 13.6123L1.56445 11.625ZM7.17871 16.7246L7.80469 17.3506C7.90232 17.4482 8.06057 17.4482 8.1582 17.3506L8.86523 16.6436C8.96286 16.5459 8.96286 16.3877 8.86523 16.29L8.23926 15.6641L7.17871 16.7246ZM3.63867 13.1455C3.65085 13.1828 3.67154 13.2174 3.69922 13.2451L6.11816 15.6641L7.17871 14.6025L4.75977 12.1846C4.73212 12.157 4.69822 12.1362 4.66113 12.124L3.14258 11.6279L3.63867 13.1455ZM5.80664 7.38281C5.48909 6.41034 6.41033 5.48909 7.38281 5.80664L9.36914 6.45508C9.63065 6.54056 9.86893 6.68729 10.0635 6.88184L14.1689 10.9863C14.8524 11.6697 14.8524 12.7785 14.1689 13.4619L13.4619 14.1689C12.7785 14.8524 11.6697 14.8524 10.9863 14.1689L6.88184 10.0635C6.68729 9.86893 6.54056 9.63065 6.45508 9.36914L5.80664 7.38281ZM11.4209 12.4814L12.0469 13.1084C12.1444 13.2059 12.3027 13.2056 12.4004 13.1084L13.1084 12.4004C13.2056 12.3027 13.2059 12.1444 13.1084 12.0469L12.4814 11.4209L11.4209 12.4814ZM7.88086 8.90332C7.89307 8.94069 7.91459 8.97513 7.94238 9.00293L10.3604 11.4209L11.4209 10.3604L9.00293 7.94238C8.97513 7.91459 8.94069 7.89307 8.90332 7.88086L7.38477 7.38477L7.88086 8.90332ZM10.0498 3.13965C9.73259 2.16738 10.6527 1.2472 11.625 1.56445L13.6123 2.21289C13.8736 2.29835 14.1112 2.44431 14.3057 2.63867L18.4111 6.74414C19.0945 7.42756 19.0945 8.53534 18.4111 9.21875L17.7041 9.92578C17.0207 10.6092 15.9129 10.6092 15.2295 9.92578L11.124 5.82031C10.9297 5.62587 10.7837 5.38826 10.6982 5.12695L10.0498 3.13965ZM15.6641 8.23926L16.29 8.86523C16.3877 8.96285 16.5459 8.96286 16.6436 8.86523L17.3506 8.1582C17.4482 8.06058 17.4482 7.90232 17.3506 7.80469L16.7246 7.17871L15.6641 8.23926ZM3.75 5.75C4.16421 5.75 4.5 6.08579 4.5 6.5C4.5 6.91421 4.16421 7.25 3.75 7.25H1.75C1.33579 7.25 1 6.91421 1 6.5C1 6.08579 1.33579 5.75 1.75 5.75H3.75ZM12.124 4.66113C12.1362 4.69822 12.157 4.73212 12.1846 4.75977L14.6025 7.17871L15.6641 6.11816L13.2451 3.69922C13.2174 3.67154 13.1828 3.65085 13.1455 3.63867L11.6279 3.14258L12.124 4.66113ZM7.75 1.5C8.16421 1.5 8.5 1.83579 8.5 2.25C8.5 2.66421 8.16421 3 7.75 3H1.75C1.33579 3 1 2.66421 1 2.25C1 1.83579 1.33579 1.5 1.75 1.5H7.75Z" fill="#1D1C1D"/>
</svg>
