<svg width="20" height="20" viewBox="0 0 20 20" fill="none" xmlns="http://www.w3.org/2000/svg">
<path d="M9.92578 15.2295C10.6092 15.9129 10.6092 17.0207 9.92578 17.7041L9.21875 18.4111C8.53534 19.0945 7.42756 19.0945 6.74414 18.4111L5.34766 17.0146L8.5293 13.833L9.92578 15.2295ZM7.17871 16.7246L7.80469 17.3506C7.90232 17.4482 8.06057 17.4482 8.1582 17.3506L8.86523 16.6436C8.96286 16.5459 8.96286 16.3877 8.86523 16.29L8.23926 15.6641L7.17871 16.7246ZM16.0693 2.06934C16.3621 1.77658 16.837 1.77683 17.1299 2.06934C17.4228 2.36223 17.4228 2.83699 17.1299 3.12988L3.13086 17.1299C2.83797 17.4228 2.36223 17.4228 2.06934 17.1299C1.77686 16.837 1.77667 16.3621 2.06934 16.0693L16.0693 2.06934ZM14.1689 10.9863C14.8524 11.6697 14.8524 12.7785 14.1689 13.4619L13.4619 14.1689C12.7785 14.8524 11.6697 14.8524 10.9863 14.1689L9.58984 12.7725L12.7725 9.58984L14.1689 10.9863ZM1.56445 11.625C1.24721 10.6527 2.16738 9.73259 3.13965 10.0498L5.12695 10.6982C5.16959 10.7122 5.21067 10.73 5.25195 10.7471L4.06836 11.9307L3.14258 11.6279L3.44531 12.5537L2.26172 13.7373C2.24461 13.696 2.22683 13.6549 2.21289 13.6123L1.56445 11.625ZM11.4209 12.4814L12.0469 13.1084C12.1444 13.2059 12.3027 13.2056 12.4004 13.1084L13.1084 12.4004C13.2056 12.3027 13.2059 12.1444 13.1084 12.0469L12.4814 11.4209L11.4209 12.4814ZM18.4111 6.74414C19.0945 7.42756 19.0945 8.53534 18.4111 9.21875L17.7041 9.92578C17.0207 10.6092 15.9129 10.6092 15.2295 9.92578L13.833 8.5293L17.0146 5.34766L18.4111 6.74414ZM5.80664 7.38281C5.48909 6.41034 6.41033 5.48909 7.38281 5.80664L9.36914 6.45508C9.41205 6.4691 9.45355 6.48664 9.49512 6.50391L8.31152 7.6875L7.38477 7.38477L7.6875 8.31152L6.50391 9.49512C6.48664 9.45355 6.4691 9.41205 6.45508 9.36914L5.80664 7.38281ZM15.6641 8.23926L16.29 8.86523C16.3877 8.96285 16.5459 8.96286 16.6436 8.86523L17.3506 8.1582C17.4482 8.06058 17.4482 7.90232 17.3506 7.80469L16.7246 7.17871L15.6641 8.23926ZM3.75 5.75C4.16421 5.75 4.5 6.08579 4.5 6.5C4.5 6.91421 4.16421 7.25 3.75 7.25H1.75C1.33579 7.25 1 6.91421 1 6.5C1 6.08579 1.33579 5.75 1.75 5.75H3.75ZM10.0498 3.13965C9.73259 2.16738 10.6527 1.2472 11.625 1.56445L13.6123 2.21289C13.6549 2.22683 13.696 2.24461 13.7373 2.26172L12.5537 3.44531L11.6279 3.14258L11.9307 4.06836L10.7471 5.25195C10.73 5.21067 10.7122 5.16959 10.6982 5.12695L10.0498 3.13965ZM7.75 1.5C8.16421 1.5 8.5 1.83579 8.5 2.25C8.5 2.66421 8.16421 3 7.75 3H1.75C1.33579 3 1 2.66421 1 2.25C1 1.83579 1.33579 1.5 1.75 1.5H7.75Z" fill="#1D1C1D"/>
</svg>
