<svg width="20" height="20" viewBox="0 0 20 20" fill="none" xmlns="http://www.w3.org/2000/svg">
<path d="M12.5557 2.38327C13.6295 1.30975 15.3705 1.30974 16.4444 2.38327L17.6162 3.55515C18.6899 4.629 18.6898 6.3699 17.6162 7.44382L8.28029 16.7798C8.18802 16.872 8.07317 16.9388 7.94728 16.9731L2.44728 18.4731C2.18765 18.5439 1.91003 18.47 1.71974 18.2798C1.52956 18.0895 1.45562 17.8118 1.52638 17.5522L3.02638 12.0522L3.05861 11.9604C3.09616 11.8707 3.15054 11.7884 3.21974 11.7192L12.5557 2.38327ZM4.42091 12.6382L3.31838 16.6801L7.36037 15.5776L14.4385 8.49851L11.499 5.55905L4.42091 12.6382ZM15.3838 3.44382C14.8957 2.95607 14.1043 2.95608 13.6162 3.44382L12.5596 4.49851L15.499 7.43796L16.5557 6.38327C17.0435 5.89514 17.0436 5.10376 16.5557 4.61569L15.3838 3.44382Z" fill="#1D1C1D"/>
</svg>
