<svg width="12" height="12" viewBox="0 0 12 12" fill="none" xmlns="http://www.w3.org/2000/svg">
<path d="M7.3475 1.19806C8.01136 0.534206 9.0879 0.534274 9.7518 1.19806L10.4549 1.90119C11.1187 2.56508 11.1188 3.64162 10.4549 4.30548L4.85336 9.90607C4.79187 9.96756 4.71556 10.0121 4.63168 10.035L1.33187 10.9354C1.15877 10.9826 0.973396 10.9333 0.846522 10.8065C0.719657 10.6796 0.670407 10.4942 0.717616 10.3211L1.61801 7.0213L1.63851 6.95978C1.66355 6.89998 1.70078 6.84576 1.74691 6.79962L7.3475 1.19806ZM2.54769 7.41193L1.91293 9.73908L4.24008 9.10431L8.44125 4.90216L6.74887 3.20978L2.54769 7.41193ZM9.04476 1.90509C8.77145 1.63189 8.32885 1.63195 8.05551 1.90509L7.4559 2.50275L9.14828 4.19513L9.74789 3.59748C10.021 3.32412 10.0211 2.88153 9.74789 2.60822L9.04476 1.90509Z" fill="#1D1C1D"/>
</svg>
