<svg width="20" height="20" viewBox="0 0 20 20" fill="none" xmlns="http://www.w3.org/2000/svg">
<path d="M9.96977 4.9695C10.2627 4.67662 10.7374 4.67663 11.0303 4.9695L15.0303 8.9695C15.3232 9.2624 15.3232 9.73716 15.0303 10.0301L8.28031 16.7801C8.18802 16.8723 8.07323 16.9391 7.94731 16.9734L2.44731 18.4734C2.18767 18.5442 1.91006 18.4703 1.71977 18.2801C1.52949 18.0898 1.45562 17.8121 1.52641 17.5525L3.02641 12.0525C3.06075 11.9266 3.12748 11.8118 3.21977 11.7195L9.96977 4.9695ZM12.5977 2.16775C13.6873 1.21438 15.3298 1.26901 16.3536 2.29275L17.5186 3.45779C18.6434 4.58263 18.582 6.4249 17.3848 7.47243L16.9942 7.81423C16.697 8.07424 16.249 8.05925 15.9698 7.78005L11.9698 3.78005C11.823 3.63327 11.7431 3.43184 11.75 3.22439C11.7571 3.01715 11.8499 2.82191 12.0059 2.68532L12.5977 2.16775Z" fill="#1D1C1D"/>
</svg>
