<svg width="20" height="20" viewBox="0 0 20 20" fill="none" xmlns="http://www.w3.org/2000/svg">
<g clip-path="url(#clip0_1308_29456)">
<path d="M9.35127 15.126C9.47312 15.3697 9.83922 15.5322 10.2048 15.5322C10.5702 15.5322 10.8548 15.37 11.0173 15.167C11.0218 15.1505 11.0299 15.1344 11.0407 15.1211C11.0515 15.1081 11.0647 15.0974 11.0798 15.0898C11.0951 15.0822 11.1125 15.0779 11.1296 15.0771C11.1466 15.0764 11.1636 15.0787 11.1794 15.085C12.2761 15.3693 13.1294 16.02 13.4138 16.2637C13.6165 16.426 13.6978 16.6287 13.6979 16.8721C13.6979 17.197 13.6169 17.4416 13.4138 17.5635C13.0482 17.8477 12.4387 17.7259 11.7077 17.5635C11.1762 17.4256 10.6313 17.3434 10.0827 17.3193C9.60443 17.2826 9.09274 17.412 8.63838 17.5273C8.59124 17.5393 8.54454 17.552 8.49873 17.5635C8.09279 17.6853 7.7273 17.7665 7.44307 17.7666C7.24022 17.7666 7.07757 17.7256 6.95576 17.6445C6.75269 17.4821 6.67062 17.2381 6.6706 16.832C6.6706 16.5477 6.79311 16.3037 7.03682 16.1006C7.66613 15.5919 8.4017 15.2312 9.18916 15.0449L9.35127 15.126ZM4.03096 17.4414H3.98994L4.01728 17.4404L4.03096 17.4414ZM7.11787 2.25C8.04042 2.60874 8.80375 3.28613 9.27021 4.15918C10.0013 3.54993 11.4231 3.02147 12.2761 2.81836C12.3157 2.80589 12.3585 2.8059 12.3981 2.81836C12.8042 3.02139 13.0882 3.4278 13.2507 3.91504C13.3319 4.23994 13.3327 4.84939 13.3327 5.41797C16.1349 4.40289 17.6374 6.02755 18.0437 6.55566C18.0615 6.58654 18.071 6.62158 18.071 6.65723C18.071 6.69282 18.0615 6.72796 18.0437 6.75879C17.8419 7.05246 17.5955 7.31291 17.3132 7.53027C18.2879 8.13952 18.7755 8.79004 19.0192 9.68359C19.0321 9.70975 19.0389 9.73843 19.0397 9.76758C19.0406 9.79695 19.0357 9.82651 19.0241 9.85352C19.0125 9.88054 18.9952 9.90513 18.9733 9.9248C18.9515 9.94448 18.9253 9.95907 18.8972 9.96777L18.3288 10.0889L17.5163 10.333C17.76 10.4954 18.0446 10.617 18.3288 10.6982L18.653 10.8613C18.7748 10.9019 18.8156 10.9828 18.7751 11.1045C18.5063 11.9876 17.9832 12.0363 17.5837 12.0732C17.5752 12.074 17.5667 12.0744 17.5583 12.0752C17.5441 12.0765 17.5301 12.0787 17.5163 12.0801C18.0849 12.9732 18.7347 13.0955 19.3845 13.1768L19.5876 13.2168L19.7097 13.3389L19.7497 13.501C19.5309 14.1314 19.1419 14.6893 18.6257 15.1123C18.1097 15.5351 17.4868 15.8068 16.8259 15.8975C16.9477 16.1006 17.1099 16.2637 17.1911 16.2637C17.2722 16.2637 17.353 16.3038 17.3532 16.3848C17.3653 16.4191 17.3682 16.4565 17.361 16.4922C17.3539 16.5278 17.3374 16.5609 17.3132 16.5879C16.5009 17.4814 15.7697 17.4003 14.8356 17.1973L14.6726 17.1162V16.9131C16.0128 14.4357 15.12 11.8365 14.6325 10.8613C14.4701 11.0644 14.2666 11.227 13.9011 11.2676C13.863 11.2748 13.8238 11.2702 13.7878 11.2559C13.7518 11.2415 13.7205 11.2171 13.6979 11.1855C13.0479 10.1296 11.3419 9.19561 10.0017 8.83008C9.96548 9.38741 10.1393 9.93854 10.489 10.374C10.57 10.4551 10.5705 10.5361 10.53 10.6172C10.516 10.65 10.4931 10.6788 10.4645 10.7002C10.4361 10.7215 10.4022 10.735 10.3669 10.7393C9.63572 10.6985 8.13357 10.2109 7.44307 9.72363C5.53406 11.1858 3.99019 12.8919 5.49287 16.791C5.50949 16.8348 5.5106 16.8833 5.4958 16.9277C5.48099 16.9721 5.45134 17.0101 5.41182 17.0352C4.99058 17.2906 4.50951 17.4301 4.01728 17.4404C3.34752 17.4179 2.70047 17.1914 2.16279 16.791C2.13008 16.777 2.10116 16.755 2.07978 16.7266C2.05842 16.6981 2.045 16.6643 2.04072 16.6289C2.04499 16.5935 2.05839 16.5598 2.07978 16.5312C2.10117 16.5028 2.13004 16.4808 2.16279 16.4668C2.69076 16.1013 2.97454 15.8974 3.09639 15.6943C2.08101 15.6943 1.26843 15.4504 0.293652 13.7852C0.27595 13.7627 0.263529 13.7367 0.256542 13.709C0.249538 13.681 0.248442 13.6515 0.253612 13.623C0.267621 13.5903 0.28959 13.5614 0.318066 13.54C0.346566 13.5187 0.380365 13.5052 0.415722 13.501L1.30928 13.0947L2.44697 12.5264H2.36494C1.91833 12.4857 1.30944 12.4046 1.0251 12.0801C0.999877 12.0612 0.979626 12.036 0.965527 12.0078C0.951426 11.9796 0.944042 11.9485 0.944042 11.917C0.955054 11.8678 0.983855 11.824 1.0251 11.7949C1.15723 11.6957 1.31619 11.4355 1.48017 11.167C1.51778 11.1054 1.55559 11.043 1.59346 10.9824C1.71524 10.7388 1.83734 10.4954 1.99971 10.333H0.780956C0.749551 10.333 0.718229 10.3256 0.690136 10.3115C0.662105 10.2974 0.637685 10.277 0.618847 10.252C0.59459 10.225 0.578195 10.1918 0.570995 10.1562C0.563866 10.1206 0.565833 10.0831 0.577831 10.0488C0.862158 9.07399 1.71591 8.01824 2.85322 7.28711L2.52803 7.08398L2.24385 6.9209C2.21862 6.90198 2.1974 6.87781 2.1833 6.84961C2.16924 6.82148 2.16282 6.79024 2.16279 6.75879L2.20283 6.5957C2.89342 5.94588 4.47807 5.41864 5.45283 5.78418C5.49345 4.89065 5.89881 4.32138 6.26435 3.83398C6.29539 3.78743 6.32607 3.74184 6.35615 3.69727C6.64101 3.27514 6.87372 2.9307 6.87373 2.45312C6.87373 2.37189 6.87452 2.33163 6.95576 2.29102L7.11787 2.25ZM8.05244 12.4453C8.41776 12.4457 8.70183 12.8516 8.70185 13.4199C8.70185 13.9883 8.41778 14.3942 8.05244 14.3945C7.68688 14.3945 7.36103 13.948 7.36103 13.4199C7.36106 12.8919 7.68689 12.4453 8.05244 12.4453ZM12.154 12.4453C12.5602 12.4453 12.8444 12.8513 12.8444 13.4199C12.8444 13.9886 12.5196 14.3945 12.154 14.3945C11.7886 14.3942 11.5046 13.9478 11.5046 13.4199C11.5046 12.8921 11.7481 12.4456 12.154 12.4453Z" fill="#1D1C1D"/>
</g>
<defs>
<clipPath id="clip0_1308_29456">
<rect width="20" height="20" fill="white"/>
</clipPath>
</defs>
</svg>
