<svg width="20" height="20" viewBox="0 0 20 20" fill="none" xmlns="http://www.w3.org/2000/svg">
<path d="M10 1C14.9688 1 19 5.03125 19 10C19 14.9688 14.9688 19 10 19C5.03125 19 1 14.9688 1 10C1 5.03125 5.03125 1 10 1ZM9.4375 13.1348C8.92379 13.2473 8.42512 13.4913 7.94141 13.8662C7.78391 13.9862 7.69336 14.1738 7.69336 14.3613C7.69337 14.6312 7.76143 14.8071 7.89258 14.9121C7.98633 14.9834 8.09922 15.0137 8.23047 15.0137C8.42913 15.0136 8.67291 14.9538 8.9502 14.8789C9.29516 14.7889 9.68509 14.6839 10.0713 14.6914C10.45 14.6989 10.8367 14.7845 11.1816 14.8633C11.6878 14.9758 12.1303 15.0776 12.374 14.8789C12.5014 14.7814 12.5615 14.6164 12.5615 14.3916C12.569 14.2343 12.5014 14.0804 12.3779 13.9717C12.1679 13.7879 11.5896 13.3408 10.8096 13.1533C10.7685 13.1424 10.7275 13.1617 10.7051 13.1953C10.6001 13.3601 10.3789 13.4647 10.1279 13.4648C9.87668 13.4648 9.64797 13.3522 9.54297 13.1797C9.52047 13.1422 9.47873 13.1273 9.4375 13.1348ZM8.00488 4.23242C7.96378 4.22125 7.91535 4.22515 7.87793 4.25488C7.84047 4.28485 7.82133 4.32615 7.82129 4.37109C7.82504 4.73859 7.63043 5.00906 7.40918 5.32031C7.15424 5.67648 6.87289 6.07357 6.84277 6.68457C6.17902 6.43707 5.06461 6.80848 4.59961 7.25098C4.56978 7.27714 4.5548 7.3222 4.55469 7.36328C4.55844 7.40828 4.58148 7.44641 4.61523 7.47266C4.6752 7.51759 4.75045 7.55857 4.8291 7.60352C4.89276 7.64096 4.96369 7.68245 5.02734 7.72363C4.24375 8.25604 3.66255 8.96849 3.45996 9.66211C3.44496 9.7071 3.45243 9.75254 3.48242 9.79004C3.51239 9.8275 3.55741 9.84664 3.59863 9.84668L4.44629 9.83496C4.34504 9.96996 4.25082 10.1351 4.15332 10.3076C4.02586 10.5363 3.89093 10.7728 3.78223 10.8516C3.7524 10.8778 3.72665 10.915 3.72656 10.9561C3.72282 10.9972 3.73768 11.0384 3.76758 11.0684C3.98508 11.2896 4.38258 11.3385 4.70508 11.376C4.72748 11.376 4.74617 11.3837 4.76855 11.3838C4.35259 11.5374 4.15013 11.6574 3.98145 11.7549C3.80521 11.8561 3.6662 11.9347 3.34375 12.0322C3.3025 12.0435 3.26875 12.0779 3.25 12.1191C3.23144 12.1566 3.23542 12.2048 3.25781 12.2422C3.94781 13.4122 4.51785 13.5771 5.2041 13.5771C5.12535 13.7084 4.94078 13.8402 4.55078 14.1064C4.5098 14.1327 4.4873 14.1778 4.4873 14.2227C4.48735 14.2713 4.51039 14.3128 4.54785 14.3428C4.72744 14.4737 5.21165 14.7857 5.83398 14.7881V14.7773C6.13767 14.7773 6.47556 14.7024 6.82422 14.5C6.88755 14.4662 6.91357 14.3878 6.8877 14.3242C5.8378 11.6207 6.90608 10.4503 8.2334 9.42285C8.7059 9.7641 9.76039 10.1087 10.2441 10.1162C10.3001 10.1161 10.3525 10.0863 10.375 10.0342C10.4012 9.98169 10.3939 9.92113 10.3564 9.87988C10.1053 9.58375 9.97373 9.18656 9.99609 8.79297C10.9259 9.04416 12.1256 9.71101 12.5684 10.4346C12.5983 10.4832 12.6547 10.5102 12.707 10.5029C12.9658 10.4729 13.1161 10.3523 13.2061 10.2061C13.5698 10.8998 14.1733 12.6892 13.2471 14.418C13.2286 14.459 13.2285 14.5039 13.2471 14.5449C13.2658 14.5824 13.3037 14.6165 13.3486 14.624C14.0048 14.759 14.5111 14.8074 15.0811 14.1963C15.1186 14.1625 15.1301 14.1062 15.1113 14.0537C15.0926 14.005 15.0476 13.9675 14.9951 13.96C14.9389 13.9525 14.8335 13.8475 14.751 13.7275H14.7666C15.6326 13.6374 16.4499 12.9626 16.7725 12.0479C16.7874 12.0067 16.7803 11.9651 16.7617 11.9277C16.7393 11.8941 16.7051 11.8679 16.6641 11.8604C16.6191 11.8529 16.5735 11.8454 16.5322 11.8379C16.0785 11.7554 15.6136 11.6763 15.2236 11.0576C15.5199 11.0426 15.9175 11.02 16.1162 10.375C16.1387 10.3039 16.1013 10.2294 16.0342 10.1992C15.9629 10.1692 15.8873 10.1423 15.8086 10.1123C15.6099 10.0373 15.3887 9.95832 15.2275 9.84961C15.4262 9.78214 15.5988 9.73706 15.79 9.68457C15.91 9.65084 16.0375 9.61739 16.1836 9.57617C16.2585 9.55371 16.2998 9.47528 16.2812 9.40039C16.105 8.75545 15.7566 8.31219 15.0967 7.90723C15.2729 7.75723 15.4971 7.53581 15.5908 7.36719C15.6208 7.31848 15.6137 7.25884 15.5801 7.21387C15.2988 6.84637 14.2564 5.73278 12.3252 6.41895C12.3289 6.03649 12.3139 5.60506 12.2539 5.38379C12.1602 5.03504 11.9497 4.76113 11.6797 4.62988C11.6497 4.61503 11.6119 4.6146 11.582 4.62207C10.9972 4.76833 9.99294 5.13606 9.49414 5.55957C9.23531 4.99338 8.52232 4.39365 8.00488 4.23242ZM8.64258 11.3311C8.38392 11.3311 8.17397 11.631 8.17383 12.0059C8.17383 12.3809 8.38383 12.6816 8.64258 12.6816C8.90129 12.6816 9.11133 12.3808 9.11133 12.0059C9.11118 11.6311 8.9012 11.3311 8.64258 11.3311ZM11.5078 11.3311C11.2492 11.3311 11.0392 11.631 11.0391 12.0059C11.0391 12.3809 11.2491 12.6816 11.5078 12.6816C11.7664 12.6814 11.9766 12.3807 11.9766 12.0059C11.9764 11.6312 11.7663 11.3313 11.5078 11.3311Z" fill="#1D1C1D"/>
</svg>
