<svg width="20" height="20" viewBox="0 0 20 20" fill="none" xmlns="http://www.w3.org/2000/svg">
<path d="M10 14.5C10.9665 14.5 11.75 15.2835 11.75 16.25C11.75 17.2165 10.9665 18 10 18C9.0335 18 8.25 17.2165 8.25 16.25C8.25 15.2835 9.0335 14.5 10 14.5ZM10 8.25C10.9665 8.25 11.75 9.0335 11.75 10C11.75 10.9665 10.9665 11.75 10 11.75C9.0335 11.75 8.25 10.9665 8.25 10C8.25 9.0335 9.0335 8.25 10 8.25ZM10 2C10.9665 2 11.75 2.7835 11.75 3.75C11.75 4.7165 10.9665 5.5 10 5.5C9.0335 5.5 8.25 4.7165 8.25 3.75C8.25 2.7835 9.0335 2 10 2Z" fill="#1D1C1D"/>
</svg>
