<svg width="20" height="20" viewBox="0 0 20 20" fill="none" xmlns="http://www.w3.org/2000/svg">
<path d="M3.71967 11.2197C4.01256 10.9268 4.48732 10.9268 4.78022 11.2197L7.28022 13.7197C7.57311 14.0126 7.57311 14.4874 7.28022 14.7803C6.98732 15.0732 6.51256 15.0732 6.21967 14.7803L4.99994 13.5605V16.75C4.99994 17.1642 4.66416 17.5 4.24994 17.5C3.83573 17.5 3.49994 17.1642 3.49994 16.75V13.5605L2.28022 14.7803C1.98732 15.0732 1.51256 15.0732 1.21967 14.7803C0.926778 14.4874 0.926777 14.0126 1.21967 13.7197L3.71967 11.2197ZM15.7499 2.5C17.2687 2.5 18.4999 3.73122 18.4999 5.25V14.75C18.4999 16.2688 17.2687 17.5 15.7499 17.5H7.74994C7.33573 17.5 6.99994 17.1642 6.99994 16.75C6.99994 16.3358 7.33573 16 7.74994 16H15.7499C16.4403 16 16.9999 15.4404 16.9999 14.75V5.25C16.9999 4.55964 16.4403 4 15.7499 4H4.24994C3.55959 4 2.99994 4.55964 2.99994 5.25V9.25C2.99994 9.66421 2.66416 10 2.24994 10C1.83573 10 1.49994 9.66421 1.49994 9.25V5.25C1.49994 3.73122 2.73116 2.5 4.24994 2.5H15.7499ZM14.2343 6.20508C14.535 5.92052 15.0101 5.93378 15.2949 6.23438C15.5794 6.53509 15.5662 7.01015 15.2656 7.29492L10.5156 11.7949C10.2264 12.0686 9.77349 12.0686 9.48432 11.7949L4.73432 7.29492C4.43373 7.01015 4.42046 6.53509 4.70502 6.23438C4.98979 5.93378 5.46485 5.92052 5.76557 6.20508L9.99994 10.2158L14.2343 6.20508Z" fill="#1D1C1D"/>
</svg>
