<svg width="20" height="20" viewBox="0 0 20 20" fill="none" xmlns="http://www.w3.org/2000/svg">
<path d="M16.9967 15.5C16.9967 15.9143 17.3324 16.25 17.7467 16.25C18.1609 16.25 18.4967 15.9143 18.4967 15.5H17.7467H16.9967ZM8.76021 7.59567H8.01021C8.01021 7.80524 8.09789 8.00525 8.25202 8.14725C8.40614 8.28925 8.61265 8.36029 8.82152 8.34316L8.76021 7.59567ZM9.36987 11.6536H8.61987V13.1536H9.36987V12.4036V11.6536ZM14.1534 12.4036L14.1575 11.6536H14.1534V12.4036ZM16.9967 15.2883C16.9967 15.7025 17.3324 16.0383 17.7467 16.0383C18.1609 16.0383 18.4967 15.7025 18.4967 15.2883H17.7467H16.9967ZM2.31529 9.82904L2.85031 10.3546V10.3546L2.31529 9.82904ZM8.76021 3.26855H9.51021C9.51021 2.96399 9.32603 2.68968 9.04414 2.57438C8.76225 2.45908 8.43862 2.5257 8.22519 2.74296L8.76021 3.26855ZM8.76021 16.7307L8.22519 17.2563C8.43862 17.4736 8.76225 17.5402 9.04414 17.4249C9.32603 17.3096 9.51021 17.0353 9.51021 16.7307H8.76021ZM2.31529 10.1702L1.78027 10.6958L1.78027 10.6958L2.31529 10.1702ZM8.76021 12.4036V11.6536C8.346 11.6536 8.01021 11.9894 8.01021 12.4036H8.76021ZM5.53775 6.5488L5.00273 6.0232L5.53775 6.5488ZM17.7467 15.5H18.4967C18.4967 12.9671 17.66 10.6589 15.9693 9.0467C14.2718 7.42805 11.8002 6.59383 8.6989 6.84818L8.76021 7.59567L8.82152 8.34316C11.5824 8.11673 13.604 8.86393 14.9342 10.1323C16.2711 11.4071 16.9967 13.2914 16.9967 15.5H17.7467ZM14.1534 12.4036L14.1493 13.1536C15.3127 13.1599 16.0098 13.5215 16.4142 13.927C16.8301 14.3439 16.9967 14.8661 16.9967 15.2883H17.7467H18.4967C18.4967 14.4996 18.1935 13.5867 17.4762 12.8676C16.7474 12.137 15.6479 11.6617 14.1575 11.6536L14.1534 12.4036ZM8.76021 16.7307L9.29523 16.2051L2.85031 9.64463L2.31529 10.1702L1.78027 10.6958L8.22519 17.2563L8.76021 16.7307ZM2.31529 9.82904L1.78027 9.30345C1.40127 9.68924 1.40127 10.31 1.78027 10.6958L2.31529 10.1702L2.85031 9.64463C3.04459 9.84239 3.04459 10.1569 2.85031 10.3546L2.31529 9.82904ZM8.76021 3.26855H8.01021V7.59567H8.76021H9.51021V3.26855H8.76021ZM8.76021 12.4036H8.01021V16.7307H8.76021H9.51021V12.4036H8.76021ZM9.36987 12.4036V13.1536H9.46367V12.4036V11.6536H9.36987V12.4036ZM9.46367 12.4036V13.1536H13.4968V12.4036V11.6536H9.46367V12.4036ZM9.46367 12.4036V11.6536H8.76021V12.4036V13.1536H9.46367V12.4036ZM14.1534 12.4036V11.6536H13.4968V12.4036V13.1536H14.1534V12.4036ZM2.31529 9.82904L2.85031 10.3546L6.07277 7.0744L5.53775 6.5488L5.00273 6.0232L1.78027 9.30345L2.31529 9.82904ZM5.53775 6.5488L6.07277 7.0744L9.29523 3.79415L8.76021 3.26855L8.22519 2.74296L5.00273 6.0232L5.53775 6.5488Z" fill="#1D1C1D"/>
</svg>
