<svg width="20" height="20" viewBox="0 0 20 20" fill="none" xmlns="http://www.w3.org/2000/svg">
<path d="M15.75 2.5C17.2688 2.5 18.5 3.73122 18.5 5.25V14.75C18.5 16.2688 17.2688 17.5 15.75 17.5H4.25C2.73122 17.5 1.5 16.2688 1.5 14.75V5.25C1.5 3.73122 2.73122 2.5 4.25 2.5H15.75ZM15.2949 6.23438C15.0102 5.93378 14.5351 5.92052 14.2344 6.20508L10 10.2168L5.76562 6.20508C5.46491 5.92052 4.98985 5.93378 4.70508 6.23438C4.42052 6.53509 4.43378 7.01015 4.73438 7.29492L9.48438 11.7949C9.77355 12.0686 10.2264 12.0686 10.5156 11.7949L15.2656 7.29492C15.5662 7.01015 15.5795 6.53509 15.2949 6.23438Z" fill="#1D1C1D"/>
</svg>
