<svg width="20" height="20" viewBox="0 0 20 20" fill="none" xmlns="http://www.w3.org/2000/svg">
<path d="M10 3.75C10.4142 3.75 10.75 4.08579 10.75 4.5C10.75 4.91421 10.4142 5.25 10 5.25H4.25C3.55964 5.25 3 5.80964 3 6.5V13.75C3 14.4404 3.55964 15 4.25 15H13.75C14.4404 15 15 14.4404 15 13.75V10.25C15 9.83579 15.3358 9.5 15.75 9.5C16.1642 9.5 16.5 9.83579 16.5 10.25V13.75C16.5 15.2688 15.2688 16.5 13.75 16.5H4.25C2.73122 16.5 1.5 15.2688 1.5 13.75V6.5C1.5 4.98122 2.73122 3.75 4.25 3.75H10ZM12.7715 7.53418C13.0983 7.28003 13.5699 7.33843 13.8242 7.66504C14.0785 7.99198 14.0193 8.46346 13.6924 8.71777L10.0654 11.5391C9.43354 12.0305 8.54892 12.0304 7.91699 11.5391L4.28906 8.71777C3.96251 8.46339 3.90402 7.99184 4.1582 7.66504C4.41258 7.33852 4.88414 7.28006 5.21094 7.53418L8.83789 10.3555C8.92807 10.4253 9.05439 10.4254 9.14453 10.3555L12.7715 7.53418ZM15.75 1.25C16.1642 1.25002 16.5 1.5858 16.5 2V3.75H18.1836C18.5978 3.75002 18.9336 4.0858 18.9336 4.5C18.9336 4.9142 18.5978 5.24998 18.1836 5.25H16.5V7.18359C16.5 7.59778 16.1642 7.93358 15.75 7.93359C15.3358 7.93359 15 7.59779 15 7.18359V5.25H13C12.5858 5.24998 12.25 4.9142 12.25 4.5C12.25 4.0858 12.5858 3.75002 13 3.75H15V2C15 1.58579 15.3358 1.25 15.75 1.25Z" fill="#1D1C1D"/>
</svg>
