<svg width="20" height="20" viewBox="0 0 20 20" fill="none" xmlns="http://www.w3.org/2000/svg">
<path d="M15.75 2.5C17.2688 2.5 18.5 3.73122 18.5 5.25V14.75C18.5 16.2688 17.2688 17.5 15.75 17.5H4.25C2.73122 17.5 1.5 16.2688 1.5 14.75V5.25C1.5 3.73122 2.73122 2.5 4.25 2.5H15.75ZM4.25 4C3.55964 4 3 4.55964 3 5.25V14.75C3 15.4404 3.55964 16 4.25 16H15.75C16.4404 16 17 15.4404 17 14.75V5.25C17 4.55964 16.4404 4 15.75 4H4.25ZM14.2344 6.20508C14.5351 5.92052 15.0102 5.93378 15.2949 6.23438C15.5795 6.53509 15.5662 7.01015 15.2656 7.29492L10.5156 11.7949C10.2264 12.0686 9.77355 12.0686 9.48438 11.7949L4.73438 7.29492C4.43378 7.01015 4.42052 6.53509 4.70508 6.23438C4.98985 5.93378 5.46491 5.92052 5.76562 6.20508L10 10.2158L14.2344 6.20508Z" fill="#1D1C1D"/>
</svg>
