<svg width="20" height="20" viewBox="0 0 20 20" fill="none" xmlns="http://www.w3.org/2000/svg">
<path d="M11.25 17.5C11.6642 17.5 12 17.8358 12 18.25C12 18.6642 11.6642 19 11.25 19H8.75C8.33579 19 8 18.6642 8 18.25C8 17.8358 8.33579 17.5 8.75 17.5H11.25ZM10 1C13.3137 1 16 3.68629 16 7C16 9.29753 14.7907 10.9511 13.0439 12.4629C12.8527 12.6285 12.75 12.8536 12.75 13.0752V14.25C12.75 15.2165 11.9665 16 11 16H9C8.0335 16 7.25 15.2165 7.25 14.25V13.0752C7.25 12.8536 7.1473 12.6285 6.95605 12.4629C5.20931 10.9511 4 9.29753 4 7C4 3.68629 6.68629 1 10 1ZM10 2.5C7.51472 2.5 5.5 4.51472 5.5 7C5.5 8.66572 6.33498 9.94106 7.9375 11.3281C8.43392 11.7578 8.75 12.3873 8.75 13.0752V14.25C8.75 14.3881 8.86193 14.5 9 14.5H11C11.1381 14.5 11.25 14.3881 11.25 14.25V13.0752C11.25 12.3873 11.5661 11.7578 12.0625 11.3281C13.665 9.94106 14.5 8.66572 14.5 7C14.5 4.51472 12.4853 2.5 10 2.5Z" fill="#1D1C1D"/>
</svg>
