<svg width="20" height="20" viewBox="0 0 20 20" fill="none" xmlns="http://www.w3.org/2000/svg">
<path d="M5.10547 1.46546C5.82371 1.02097 6.58968 0.90046 7.32422 1.08264C8.04033 1.26039 8.66021 1.70852 9.15527 2.28479C9.61006 2.81428 9.98409 3.47952 10.2559 4.22815C10.4652 3.96114 10.6982 3.72191 10.9463 3.51624C11.8788 2.7435 13.2202 2.3059 14.3672 2.94886C14.9264 3.26248 15.3132 3.77275 15.3975 4.39612C15.4801 5.00962 15.254 5.61362 14.834 6.10901C14.793 6.15732 14.749 6.2039 14.7041 6.25061H16.25C17.2165 6.25061 18 7.03412 18 8.00061V11.5006H17.25V16.7506C17.2498 17.717 16.4664 18.5006 15.5 18.5006H4.5C3.53361 18.5006 2.75017 17.717 2.75 16.7506V11.5006H2V8.00061C2 7.03412 2.7835 6.25061 3.75 6.25061H5.35352C5.08205 6.02836 4.84249 5.79008 4.64062 5.53772C4.13795 4.90919 3.8314 4.16113 3.88086 3.40198C3.93238 2.61339 4.36216 1.92552 5.10547 1.46546ZM10.75 17.0006H15.5C15.638 17.0006 15.7498 16.8885 15.75 16.7506V11.5006H10.75V17.0006ZM4.25 16.7506C4.25017 16.8885 4.36204 17.0006 4.5 17.0006H9.25V11.5006H4.25V16.7506ZM10.75 10.0006H16.5V8.00061C16.5 7.86254 16.3881 7.75061 16.25 7.75061H10.75V10.0006ZM3.75 7.75061C3.61193 7.75061 3.5 7.86254 3.5 8.00061V10.0006H9.25V7.75061H3.75ZM13.6338 4.25745C13.248 4.04117 12.5886 4.10451 11.9043 4.67151C11.4518 5.04656 11.0742 5.58413 10.8838 6.21057C12.4567 6.07084 13.3258 5.56921 13.6904 5.13929C13.899 4.89335 13.925 4.70136 13.9111 4.59729C13.8985 4.50347 13.8403 4.37335 13.6338 4.25745ZM6.96387 2.53772C6.64571 2.45877 6.29121 2.49534 5.89453 2.74085C5.52299 2.97085 5.39486 3.24067 5.37793 3.49964C5.3592 3.78785 5.47332 4.1783 5.81152 4.6012C6.39413 5.32945 7.55632 6.02976 9.19434 6.20667C9.04226 4.97952 8.59009 3.929 8.01758 3.26233C7.66662 2.85381 7.30036 2.62137 6.96387 2.53772Z" fill="#1D1C1D"/>
</svg>
