<svg width="20" height="20" viewBox="0 0 20 20" fill="none" xmlns="http://www.w3.org/2000/svg">
<path d="M10 1.5C11.0661 1.5 12.9055 1.696 14.5049 2.63477C16.159 3.60581 17.5 5.34485 17.5 8.25V10.209C18.3828 10.5948 19 11.475 19 12.5C19 13.5249 18.3826 14.4041 17.5 14.79V15.25C17.5 16.7688 16.2688 18 14.75 18H5.25C3.73122 18 2.5 16.7688 2.5 15.25V14.79C1.61743 14.4041 1 13.5249 1 12.5C1 11.475 1.61724 10.5948 2.5 10.209V8.25C2.5 5.34485 3.84095 3.60581 5.49512 2.63477C7.0945 1.696 8.93389 1.5 10 1.5ZM4 15V15.25C4 15.9404 4.55964 16.5 5.25 16.5H14.75C15.4404 16.5 16 15.9404 16 15.25V15H4ZM3.5 11.5C2.94772 11.5 2.5 11.9477 2.5 12.5C2.5 13.0523 2.94772 13.5 3.5 13.5H8.96191C8.76309 13.3688 8.58161 13.2138 8.41992 13.0352C8.02785 12.6019 7.78186 12.0682 7.64355 11.5H3.5ZM13.8564 11.5C13.7181 12.0682 13.4722 12.6019 13.0801 13.0352C12.9184 13.2138 12.7369 13.3688 12.5381 13.5H16.5C17.0523 13.5 17.5 13.0523 17.5 12.5C17.5 11.9477 17.0523 11.5 16.5 11.5H13.8564ZM4 10H8.95312L9.02051 10.6758C9.0805 11.2806 9.26701 11.7352 9.53223 12.0283C9.78033 12.3025 10.1537 12.5 10.75 12.5C11.3463 12.5 11.7197 12.3025 11.9678 12.0283C12.233 11.7352 12.4195 11.2806 12.4795 10.6758L12.5469 10H16V9H4V10ZM10 3C9.06619 3 7.53044 3.17916 6.25488 3.92773C5.17138 4.5637 4.23687 5.62898 4.04004 7.5H15.96C15.7631 5.62898 14.8286 4.5637 13.7451 3.92773C12.4696 3.17916 10.9338 3 10 3ZM7.25 5C7.66421 5 8 5.33579 8 5.75C8 6.16421 7.66421 6.5 7.25 6.5C6.83579 6.5 6.5 6.16421 6.5 5.75C6.5 5.33579 6.83579 5 7.25 5ZM10 5C10.4142 5 10.75 5.33579 10.75 5.75C10.75 6.16421 10.4142 6.5 10 6.5C9.58579 6.5 9.25 6.16421 9.25 5.75C9.25 5.33579 9.58579 5 10 5ZM12.75 5C13.1642 5 13.5 5.33579 13.5 5.75C13.5 6.16421 13.1642 6.5 12.75 6.5C12.3358 6.5 12 6.16421 12 5.75C12 5.33579 12.3358 5 12.75 5Z" fill="#1D1C1D"/>
</svg>
