<svg width="20" height="20" viewBox="0 0 20 20" fill="none" xmlns="http://www.w3.org/2000/svg">
<path d="M8.30435 1.70248C9.241 0.765839 10.7593 0.765839 11.696 1.70248L18.2975 8.30405C19.234 9.2407 19.2341 10.7591 18.2975 11.6956L11.696 18.2972C10.7594 19.2338 9.24101 19.2337 8.30435 18.2972L1.70279 11.6956C0.766144 10.759 0.766144 9.24069 1.70279 8.30405L8.30435 1.70248ZM9.99966 12.9994C9.44765 12.9995 8.99985 13.4473 8.99966 13.9994C8.99966 14.5515 9.44753 14.9992 9.99966 14.9994C10.5519 14.9994 10.9997 14.5516 10.9997 13.9994C10.9995 13.4472 10.5518 12.9994 9.99966 12.9994ZM9.99966 5.49936C9.21918 5.49942 8.47281 5.72902 7.90884 6.2103C7.33253 6.70214 6.99975 7.41391 6.99966 8.24936C6.99966 8.66346 7.33561 8.99918 7.74966 8.99936C8.16388 8.99936 8.49966 8.66357 8.49966 8.24936C8.49975 7.83518 8.65337 7.54645 8.88248 7.35092C9.124 7.14487 9.50299 6.99942 9.99966 6.99936C10.501 6.99936 10.9507 7.14803 11.2585 7.39584C11.547 7.62845 11.7496 7.97662 11.7497 8.49936C11.7497 8.99305 11.6038 9.23838 11.442 9.38315C11.2793 9.52866 11.0144 9.64852 10.611 9.70834L10.4284 9.7308C9.81596 9.78891 9.24984 10.291 9.24966 10.9994V11.9994H10.7497V11.2015C11.3632 11.1212 11.9705 10.9232 12.443 10.5003C12.9859 10.0143 13.2497 9.32641 13.2497 8.49936C13.2496 7.52258 12.8407 6.74516 12.1989 6.22787C11.5761 5.72624 10.7754 5.49936 9.99966 5.49936Z" fill="#1D1C1D"/>
</svg>
