<svg width="20" height="20" viewBox="0 0 20 20" fill="none" xmlns="http://www.w3.org/2000/svg">
<path fill-rule="evenodd" clip-rule="evenodd" d="M16 7C16 9.29753 14.7907 10.9511 13.0439 12.4629C12.8527 12.6285 12.75 12.8536 12.75 13.0752V14.25C12.75 15.2165 11.9665 16 11 16H9C8.0335 16 7.25 15.2165 7.25 14.25V13.0752C7.25 12.8536 7.1473 12.6285 6.95605 12.4629C5.20931 10.9511 4 9.29753 4 7C4 3.68629 6.68629 1 10 1C13.3137 1 16 3.68629 16 7ZM12 18.25C12 17.8358 11.6642 17.5 11.25 17.5H8.75C8.33579 17.5 8 17.8358 8 18.25C8 18.6642 8.33579 19 8.75 19H11.25C11.6642 19 12 18.6642 12 18.25Z" fill="#1D1C1D"/>
</svg>
