<svg width="20" height="20" viewBox="0 0 20 20" fill="none" xmlns="http://www.w3.org/2000/svg">
<path d="M13.4695 2.97018C14.7495 1.69022 15.9433 1.42329 16.8221 1.51705C17.6983 1.61069 18.3896 2.30194 18.4832 3.17819C18.5769 4.05695 18.3099 5.25093 17.0301 6.53073L15.5564 8.00338L17.4842 14.9419C17.6926 15.6926 17.5734 16.4974 17.1551 17.1547L16.7713 17.7573C16.0668 18.8638 14.4273 18.7891 13.826 17.6235L11.1434 12.4165L11.0301 12.5307L11.0193 12.5415L11.0086 12.5512L8.75273 14.6333C8.96749 15.6474 8.79936 16.736 8.21855 17.6655C7.44618 18.9007 5.5927 18.715 5.08085 17.351L4.77616 16.5405C4.54799 15.9322 4.06803 15.4523 3.45976 15.2241L2.64921 14.9194C1.28484 14.4078 1.09924 12.5541 2.33476 11.7817C3.26403 11.201 4.35212 11.0321 5.36601 11.2465L7.44901 8.99166L7.45878 8.98092L7.46952 8.97018L7.5828 8.85592L2.37773 6.17526C1.21122 5.57433 1.13605 3.93356 2.24296 3.22897L2.84648 2.84616C3.50388 2.42783 4.30759 2.30758 5.05839 2.51608L11.9959 4.44284L13.4695 2.97018ZM16.6629 3.00924C16.2815 2.96854 15.5242 3.03664 14.5301 4.03073L12.4383 6.12252L12.0164 6.00534L4.65702 3.96139C4.31574 3.86661 3.94999 3.92064 3.65116 4.1108L3.04862 4.49459C2.9186 4.57753 2.92716 4.77057 3.06425 4.84127L9.18339 7.99362L10.0965 8.46432L9.36991 9.19088L8.53886 10.021L6.16093 12.5991L5.82792 12.9585L5.36503 12.7993C4.63717 12.5489 3.81528 12.6257 3.12968 13.0542C2.94824 13.1678 2.9752 13.4398 3.17558 13.5151L3.98612 13.8198C5.00012 14.2001 5.80118 15.0001 6.18144 16.0141L6.48515 16.8247C6.56059 17.0248 6.83248 17.0518 6.94608 16.8706C7.37448 16.1851 7.45128 15.363 7.20097 14.6352L7.04179 14.1723L7.40116 13.8403L9.97929 11.4604L11.5359 9.90377L12.0066 10.8169L15.159 16.936C15.2298 17.0727 15.4227 17.0814 15.5057 16.9516L15.8894 16.3491C16.0795 16.0504 16.1335 15.6844 16.0389 15.3432L13.9949 7.98385L13.8777 7.56198L15.9695 5.47018C16.9633 4.47639 17.0316 3.71881 16.991 3.33737C16.9724 3.16349 16.8368 3.02786 16.6629 3.00924Z" fill="#1D1C1D"/>
</svg>
