<svg width="20" height="20" viewBox="0 0 20 20" fill="none" xmlns="http://www.w3.org/2000/svg">
<path d="M10 1C14.9706 1 19 5.02944 19 10C19 14.9706 14.9706 19 10 19C5.02944 19 1 14.9706 1 10C1 5.02944 5.02944 1 10 1ZM4.72656 15.333C5.91454 16.5078 7.49315 17.2875 9.25 17.4619V10.8105L4.72656 15.333ZM10.75 17.4619C12.5066 17.2875 14.0845 16.5075 15.2725 15.333L10.75 10.8105V17.4619ZM9.25 2.53711C5.46001 2.91341 2.5 6.11099 2.5 10C2.5 11.5441 2.96671 12.9791 3.7666 14.1719L9.25 8.68945V2.53711ZM10.75 8.68945L16.2324 14.1719C17.0325 12.979 17.5 11.5443 17.5 10C17.5 6.11099 14.54 2.91341 10.75 2.53711V8.68945Z" fill="#1D1C1D"/>
</svg>
