<svg width="20" height="20" viewBox="0 0 20 20" fill="none" xmlns="http://www.w3.org/2000/svg">
<path d="M10 1C14.9706 1 19 5.02944 19 10C19 14.9706 14.9706 19 10 19C5.02944 19 1 14.9706 1 10C1 5.02944 5.02944 1 10 1ZM10 2.5C5.85786 2.5 2.5 5.85786 2.5 10C2.5 14.1421 5.85786 17.5 10 17.5C14.1421 17.5 17.5 14.1421 17.5 10C17.5 5.85786 14.1421 2.5 10 2.5ZM12.4395 11.7656C12.5689 11.3722 12.9933 11.1578 13.3867 11.2871C13.78 11.4166 13.9945 11.841 13.8652 12.2344C13.2584 14.0791 11.6261 14.9999 10.0273 15C8.4285 15 6.79631 14.0791 6.18945 12.2344C6.0601 11.8409 6.27454 11.4165 6.66797 11.2871C7.06135 11.1579 7.48584 11.3723 7.61523 11.7656C7.99528 12.9207 8.99468 13.5 10.0273 13.5C11.0599 13.4999 12.0595 12.9207 12.4395 11.7656ZM7.5 6.5C8.32843 6.5 9 7.17157 9 8C9 8.82843 8.32843 9.5 7.5 9.5C6.67157 9.5 6 8.82843 6 8C6 7.17157 6.67157 6.5 7.5 6.5ZM12.5 6.5C13.3284 6.5 14 7.17157 14 8C14 8.82843 13.3284 9.5 12.5 9.5C11.6716 9.5 11 8.82843 11 8C11 7.17157 11.6716 6.5 12.5 6.5Z" fill="#1D1C1D"/>
</svg>
