<svg width="20" height="20" viewBox="0 0 20 20" fill="none" xmlns="http://www.w3.org/2000/svg">
<path d="M11.3964 2.58403C13.7853 2.30636 16.0212 2.57198 17.2968 2.79106C18.4368 2.98686 18.7579 4.2283 18.3203 5.04008C17.4695 6.61766 17.372 8.16153 17.0751 9.96684C16.7818 11.7502 16.2951 13.6394 14.5478 15.5118C13.2475 16.905 11.3671 17.5481 9.52631 17.5372C7.93176 17.5277 6.30486 17.027 5.03217 16.0274L2.78021 18.2803C2.48732 18.5732 2.01256 18.5732 1.71967 18.2803C1.42678 17.9874 1.42678 17.5127 1.71967 17.2198L3.97064 14.9678C1.84621 12.2846 2.0866 8.23451 4.45502 5.73442C6.39197 3.69002 9.01193 2.86123 11.3964 2.58403ZM17.0117 4.26274C15.8049 4.05748 13.7428 3.8218 11.5703 4.07426C9.37412 4.32953 7.14684 5.07379 5.54388 6.76567C3.70413 8.70756 3.51501 11.8191 5.04095 13.8975L5.99994 12.9395V9.75004C5.99994 9.33583 6.33573 9.00005 6.74994 9.00004C7.16415 9.00004 7.49994 9.33583 7.49994 9.75004V11.4395L8.99994 9.9395V7.75004C8.99994 7.33583 9.33573 7.00005 9.74994 7.00004C10.1642 7.00004 10.4999 7.33583 10.4999 7.75004V8.4395L11.9697 6.96977C12.2626 6.67688 12.7373 6.67688 13.0302 6.96977C13.3231 7.26267 13.3231 7.73743 13.0302 8.03032L11.5605 9.50004H12.2499C12.6642 9.50004 12.9999 9.83583 12.9999 10.25C12.9999 10.6643 12.6641 11 12.2499 11H10.0605L8.56049 12.5H10.2499C10.6642 12.5 10.9999 12.8358 10.9999 13.25C10.9999 13.6643 10.6641 14 10.2499 14H7.06049L6.10345 14.9561C7.06313 15.6545 8.29054 16.0298 9.5351 16.0372C11.0431 16.0461 12.4906 15.5175 13.4511 14.4883C14.9063 12.929 15.3232 11.3802 15.5956 9.72368C15.8645 8.08897 15.9958 6.19022 16.9999 4.32817C17.0091 4.31123 17.0138 4.29443 17.0146 4.27934C17.0149 4.27296 17.0123 4.26753 17.0117 4.26274Z" fill="#1D1C1D"/>
</svg>
