<svg width="20" height="20" viewBox="0 0 20 20" fill="none" xmlns="http://www.w3.org/2000/svg">
<path d="M4.588 4.58774C7.90784 1.2679 12.6584 0.253032 16.8517 1.53891C17.6216 1.77508 18.2248 2.37743 18.461 3.14731C19.7471 7.34063 18.7321 12.092 15.4122 15.412C12.0924 18.7317 7.34173 19.7466 3.14854 18.4608C2.37862 18.2247 1.77546 17.6222 1.53917 16.8524C0.253039 12.659 1.26801 7.90772 4.588 4.58774ZM2.50401 13.5643C2.53205 14.5257 2.6892 15.4842 2.97374 16.412C3.06401 16.7061 3.29382 16.936 3.588 17.0262C4.51512 17.3105 5.47297 17.4658 6.4337 17.494L2.50401 13.5643ZM11.5714 2.63169C9.40281 2.97251 7.31903 3.9778 5.64854 5.64829C3.97803 7.3188 2.97277 9.40257 2.63194 11.5711L8.42784 17.367C10.5966 17.0263 12.681 16.0221 14.3517 14.3514C16.0223 12.6808 17.0266 10.5964 17.3673 8.42759L11.5714 2.63169ZM10.4698 6.46958C10.7627 6.17669 11.2375 6.17669 11.5304 6.46958L13.5304 8.46958C13.8229 8.7625 13.8232 9.23734 13.5304 9.53013C13.2376 9.82291 12.7628 9.82269 12.4698 9.53013L12.0001 9.0604L11.0607 9.99985L11.5304 10.4696C11.8229 10.7625 11.8232 11.2373 11.5304 11.5301C11.2376 11.8229 10.7628 11.8227 10.4698 11.5301L10.0001 11.0604L9.06065 11.9999L9.53038 12.4696C9.82295 12.7625 9.82316 13.2373 9.53038 13.5301C9.23759 13.8229 8.76275 13.8227 8.46983 13.5301L6.46983 11.5301C6.17694 11.2372 6.17694 10.7625 6.46983 10.4696C6.76272 10.1767 7.23749 10.1767 7.53038 10.4696L8.0001 10.9393L8.93956 9.99985L8.46983 9.53013C8.17694 9.23723 8.17694 8.76247 8.46983 8.46958C8.76272 8.17669 9.23749 8.17669 9.53038 8.46958L10.0001 8.93931L10.9396 7.99985L10.4698 7.53013C10.1769 7.23723 10.1769 6.76247 10.4698 6.46958ZM17.4942 6.43345C17.4661 5.47272 17.3108 4.51487 17.0265 3.58774C16.9363 3.2936 16.7063 3.06379 16.4122 2.97348C15.4845 2.68896 14.5259 2.53179 13.5646 2.50376L17.4942 6.43345Z" fill="#1D1C1D"/>
</svg>
