<svg width="20" height="20" viewBox="0 0 20 20" fill="none" xmlns="http://www.w3.org/2000/svg">
<path d="M18.2499 3.5C18.6642 3.5 18.9999 3.83579 18.9999 4.25V11.75C18.9999 12.1642 18.6642 12.5 18.2499 12.5H3.56049L6.28022 15.2197C6.57311 15.5126 6.57311 15.9874 6.28022 16.2803C5.98732 16.5732 5.51256 16.5732 5.21967 16.2803L1.21967 12.2803C0.926777 11.9874 0.926777 11.5126 1.21967 11.2197L5.21967 7.21973C5.51256 6.92683 5.98732 6.92683 6.28022 7.21973C6.57311 7.51262 6.57311 7.98738 6.28022 8.28027L3.56049 11H17.4999V4.25C17.4999 3.83579 17.8357 3.5 18.2499 3.5Z" fill="#1D1C1D"/>
</svg>
