<svg width="20" height="20" viewBox="0 0 20 20" fill="none" xmlns="http://www.w3.org/2000/svg">
<path d="M17.4999 15.7215C17.914 15.7217 18.2499 16.0574 18.2499 16.4715C18.2497 16.8854 17.9138 17.2213 17.4999 17.2215H15.745C15.3309 17.2215 14.9952 16.8855 14.995 16.4715C14.995 16.0573 15.3308 15.7215 15.745 15.7215H17.4999ZM11.4999 16.0144L11.0233 16.492C10.5747 16.9406 9.96541 17.193 9.33096 17.1931H6.5087C5.87429 17.1931 5.26507 16.9404 4.81631 16.492L2.45108 14.1267C1.51644 13.1921 1.5165 11.6767 2.45108 10.742L4.33878 8.8533L11.4999 16.0144ZM17.1308 12.9158C17.5193 12.7723 17.9511 12.9706 18.0946 13.3592C18.2381 13.7477 18.0388 14.1795 17.6503 14.323L16.0048 14.9305C15.6162 15.074 15.1845 14.8756 15.0409 14.4871C14.8974 14.0986 15.0959 13.6668 15.4843 13.5232L17.1308 12.9158ZM9.71378 3.47928C10.6485 2.5447 12.1639 2.54464 13.0985 3.47928L16.8749 7.25565C17.8089 8.19034 17.8093 9.70595 16.8749 10.6404L12.5605 14.9539L5.39932 7.79276L9.71378 3.47928Z" fill="#1D1C1D"/>
</svg>
