<svg width="20" height="20" viewBox="0 0 20 20" fill="none" xmlns="http://www.w3.org/2000/svg">
<path d="M17.4999 15.7215C17.914 15.7216 18.2499 16.0573 18.2499 16.4715C18.2498 16.8855 17.914 17.2214 17.4999 17.2215H15.745C15.3309 17.2215 14.9951 16.8856 14.995 16.4715C14.995 16.0573 15.3308 15.7215 15.745 15.7215H17.4999ZM9.71378 3.47928C10.6485 2.5447 12.1639 2.54464 13.0985 3.47928L16.8749 7.25564C17.8093 8.1903 17.8094 9.7058 16.8749 10.6404L11.0233 16.492C10.5746 16.9407 9.96556 17.1931 9.33096 17.1931H6.5087C5.87408 17.1931 5.26511 16.9407 4.81631 16.492L2.45108 14.1267C1.51644 13.1921 1.5165 11.6766 2.45108 10.742L9.71378 3.47928ZM3.51163 11.8025C3.16283 12.1514 3.16277 12.7173 3.51163 13.0662L5.87686 15.4314C6.04435 15.5988 6.27191 15.6931 6.5087 15.6931H9.33096C9.56774 15.6931 9.79533 15.5988 9.9628 15.4314L10.4394 14.9539L5.39932 9.91385L3.51163 11.8025ZM17.1308 12.9158C17.5193 12.7723 17.951 12.9707 18.0946 13.3592C18.2382 13.7477 18.0388 14.1795 17.6503 14.323L16.0048 14.9314C15.6162 15.075 15.1845 14.8756 15.0409 14.4871C14.8976 14.0986 15.0968 13.6677 15.4853 13.5242L17.1308 12.9158ZM12.038 4.53982C11.6891 4.19097 11.1232 4.19103 10.7743 4.53982L6.45987 8.8533L11.4999 13.8933L15.8144 9.57986C16.1631 9.23104 16.163 8.66506 15.8144 8.31619L12.038 4.53982Z" fill="#1D1C1D"/>
</svg>
