<svg width="12" height="12" viewBox="0 0 12 12" fill="none" xmlns="http://www.w3.org/2000/svg">
<path d="M5.9705 2.30864C6.52407 1.75513 7.42174 1.75526 7.97538 2.30864L10.0848 4.41801C10.6382 4.97165 10.6383 5.8693 10.0848 6.42289L6.81718 9.69047C6.55131 9.95633 6.19024 10.1055 5.81425 10.1055H4.23808C3.86232 10.1054 3.50187 9.95614 3.23613 9.69047L1.91484 8.36918C1.36146 7.81554 1.36133 6.91787 1.91484 6.3643L5.9705 2.30864ZM2.62187 7.07133C2.45888 7.23437 2.45902 7.49903 2.62187 7.66215L3.94316 8.98344C4.02136 9.06157 4.12754 9.10538 4.23808 9.10551H5.81425C5.92502 9.10551 6.03182 9.06176 6.11015 8.98344L6.37675 8.71684L3.67656 6.01664L2.62187 7.07133ZM7.26835 3.01567C7.10523 2.85282 6.84057 2.85268 6.67753 3.01567L4.38359 5.30961L7.08378 8.00981L9.37773 5.71586C9.54074 5.55279 9.54067 5.28816 9.37773 5.12504L7.26835 3.01567Z" fill="#1D1C1D"/>
</svg>
