<svg width="20" height="20" viewBox="0 0 20 20" fill="none" xmlns="http://www.w3.org/2000/svg">
<path d="M7.71973 11.2197C8.01262 10.9268 8.48738 10.9268 8.78027 11.2197C9.07317 11.5126 9.07317 11.9874 8.78027 12.2803L4.06055 17H6.75C7.16421 17 7.5 17.3358 7.5 17.75C7.5 18.1642 7.16421 18.5 6.75 18.5H2.25C2.20462 18.5 2.16035 18.495 2.11719 18.4873C2.11165 18.4863 2.1061 18.4855 2.10059 18.4844C2.0872 18.4817 2.07464 18.4761 2.06152 18.4727C2.02828 18.464 1.99492 18.4557 1.96289 18.4424C1.93375 18.4303 1.90703 18.414 1.87988 18.3984C1.8232 18.366 1.76812 18.3287 1.71973 18.2803C1.671 18.2316 1.6331 18.1763 1.60059 18.1191C1.58512 18.092 1.56868 18.0653 1.55664 18.0361C1.53603 17.9861 1.52106 17.9344 1.51172 17.8818C1.50413 17.839 1.5 17.795 1.5 17.75V13.25C1.5 12.8358 1.83579 12.5 2.25 12.5C2.66421 12.5 3 12.8358 3 13.25V15.9395L7.71973 11.2197ZM17.75 1.5C17.795 1.5 17.839 1.50413 17.8818 1.51172C17.8874 1.5127 17.8929 1.51354 17.8984 1.51465C17.9118 1.51733 17.9244 1.52298 17.9375 1.52637C17.9707 1.53495 18.0041 1.54344 18.0361 1.55664C18.0653 1.56868 18.092 1.58512 18.1191 1.60059C18.1763 1.6331 18.2316 1.671 18.2803 1.71973C18.3287 1.76812 18.366 1.8232 18.3984 1.87988C18.414 1.90703 18.4303 1.93375 18.4424 1.96289C18.4631 2.01289 18.4779 2.06459 18.4873 2.11719C18.495 2.16035 18.5 2.20462 18.5 2.25V6.75C18.5 7.16421 18.1642 7.5 17.75 7.5C17.3358 7.5 17 7.16421 17 6.75V4.06055L12.2803 8.78027C11.9874 9.07317 11.5126 9.07317 11.2197 8.78027C10.9268 8.48738 10.9268 8.01262 11.2197 7.71973L15.9395 3H13.25C12.8358 3 12.5 2.66421 12.5 2.25C12.5 1.83579 12.8358 1.5 13.25 1.5H17.75Z" fill="#1D1C1D"/>
</svg>
