<svg width="20" height="20" viewBox="0 0 20 20" fill="none" xmlns="http://www.w3.org/2000/svg">
<path d="M10 1C14.9706 1 19 5.02944 19 10C19 14.9706 14.9706 19 10 19C5.02944 19 1 14.9706 1 10C1 5.02944 5.02944 1 10 1ZM10 15C9.44772 15 9 15.4477 9 16C9 16.5523 9.44772 17 10 17C10.5523 17 11 16.5523 11 16C11 15.4477 10.5523 15 10 15ZM13.5742 7.50977C13.8938 6.91945 13.1642 6.02465 12.6084 6.3252L8.70703 8.43945L8.65137 8.47559C8.59758 8.51617 8.55181 8.56978 8.51758 8.63281L6.42676 12.4912C6.10752 13.0816 6.83686 13.9757 7.39258 13.6748L11.293 11.5596C11.3719 11.5166 11.4379 11.4511 11.4834 11.3672L13.5742 7.50977ZM10.5049 10.7012L7.81348 12.1611L9.27344 9.46875L10.5049 10.7012ZM4 9C3.44772 9 3 9.44772 3 10C3 10.5523 3.44772 11 4 11C4.55228 11 5 10.5523 5 10C5 9.44772 4.55228 9 4 9ZM16 9C15.4477 9 15 9.44772 15 10C15 10.5523 15.4477 11 16 11C16.5523 11 17 10.5523 17 10C17 9.44772 16.5523 9 16 9ZM10 3C9.44772 3 9 3.44772 9 4C9 4.55228 9.44772 5 10 5C10.5523 5 11 4.55228 11 4C11 3.44772 10.5523 3 10 3Z" fill="#1D1C1D"/>
</svg>
