<svg width="20" height="20" viewBox="0 0 20 20" fill="none" xmlns="http://www.w3.org/2000/svg">
<path d="M10 1C14.9706 1 19 5.02944 19 10C19 14.9706 14.9706 19 10 19C5.02944 19 1 14.9706 1 10C1 5.02944 5.02944 1 10 1ZM10 2.5C5.85786 2.5 2.5 5.85786 2.5 10C2.5 14.1421 5.85786 17.5 10 17.5C14.1421 17.5 17.5 14.1421 17.5 10C17.5 5.85786 14.1421 2.5 10 2.5ZM10 14.5C10.5523 14.5 11 14.9477 11 15.5C11 16.0523 10.5523 16.5 10 16.5C9.44772 16.5 9 16.0523 9 15.5C9 14.9477 9.44772 14.5 10 14.5ZM12.3691 6.54199C12.9057 6.26618 13.6372 7.18925 13.3408 7.76758L11.4814 11.3848C11.4384 11.4684 11.3745 11.5323 11.2969 11.5723L7.63086 13.458C7.12766 13.7168 6.45257 12.9207 6.61523 12.3438L6.65918 12.2324L8.51855 8.61523C8.55079 8.55261 8.59514 8.50073 8.64746 8.46191L8.70312 8.42773L12.3691 6.54199ZM9.31543 9.41211L8.00098 11.9688L10.6201 10.6201L9.37891 9.37891L9.31543 9.41211ZM4.5 9C5.05228 9 5.5 9.44772 5.5 10C5.5 10.5523 5.05228 11 4.5 11C3.94772 11 3.5 10.5523 3.5 10C3.5 9.44772 3.94772 9 4.5 9ZM15.5 9C16.0523 9 16.5 9.44772 16.5 10C16.5 10.5523 16.0523 11 15.5 11C14.9477 11 14.5 10.5523 14.5 10C14.5 9.44772 14.9477 9 15.5 9ZM10 3.5C10.5523 3.5 11 3.94772 11 4.5C11 5.05228 10.5523 5.5 10 5.5C9.44772 5.5 9 5.05228 9 4.5C9 3.94772 9.44772 3.5 10 3.5Z" fill="#1D1C1D"/>
</svg>
