<svg width="20" height="20" viewBox="0 0 20 20" fill="none" xmlns="http://www.w3.org/2000/svg">
<path d="M10 3C12.7472 3 14.9861 4.30471 16.5186 5.77051C17.2865 6.50505 17.8925 7.2945 18.3115 8.0127C18.7119 8.69906 19 9.42013 19 10C19 10.5799 18.7119 11.3009 18.3115 11.9873C17.8925 12.7055 17.2865 13.4949 16.5186 14.2295C14.9861 15.6953 12.7472 17 10 17C7.25283 17 5.01387 15.6953 3.48145 14.2295C2.71352 13.4949 2.10745 12.7055 1.68848 11.9873C1.2881 11.3009 1 10.5799 1 10C1 9.42013 1.2881 8.69906 1.68848 8.0127C2.10745 7.2945 2.71352 6.50505 3.48145 5.77051C5.01387 4.30471 7.25283 3 10 3ZM10 4.5C7.7472 4.5 5.86112 5.57032 4.51855 6.85449C3.84907 7.49487 3.33003 8.17432 2.9834 8.76855C2.61824 9.39459 2.5 9.82989 2.5 10C2.5 10.1701 2.61824 10.6054 2.9834 11.2314C3.33003 11.8257 3.84907 12.5051 4.51855 13.1455C5.86112 14.4297 7.7472 15.5 10 15.5C12.2528 15.5 14.1389 14.4297 15.4814 13.1455C16.1509 12.5051 16.67 11.8257 17.0166 11.2314C17.3818 10.6054 17.5 10.1701 17.5 10C17.5 9.82989 17.3818 9.39459 17.0166 8.76855C16.67 8.17432 16.1509 7.49487 15.4814 6.85449C14.1389 5.57032 12.2528 4.5 10 4.5ZM10 6C12.2091 6 14 7.79086 14 10C14 12.2091 12.2091 14 10 14C7.79086 14 6 12.2091 6 10C6 7.79086 7.79086 6 10 6ZM10 7.5C8.61929 7.5 7.5 8.61929 7.5 10C7.5 11.3807 8.61929 12.5 10 12.5C11.3807 12.5 12.5 11.3807 12.5 10C12.5 8.61929 11.3807 7.5 10 7.5Z" fill="#1D1C1D"/>
</svg>
