<svg width="12" height="12" viewBox="0 0 12 12" fill="none" xmlns="http://www.w3.org/2000/svg">
<path d="M6.00018 1.75C7.66472 1.75006 9.01975 2.54038 9.9455 3.42578C10.4096 3.86967 10.7767 4.34716 11.0305 4.78223C11.2719 5.19605 11.4504 5.63842 11.4504 6C11.4504 6.36158 11.2719 6.80395 11.0305 7.21777C10.7767 7.65284 10.4096 8.13033 9.9455 8.57422C9.01975 9.45962 7.66472 10.2499 6.00018 10.25C4.33541 10.25 2.97968 9.45975 2.05389 8.57422C1.58992 8.13041 1.2237 7.65278 0.96991 7.21777C0.728511 6.80395 0.549988 6.36158 0.549988 6C0.549988 5.63842 0.728511 5.19605 0.96991 4.78223C1.2237 4.34722 1.58992 3.86959 2.05389 3.42578C2.97968 2.54025 4.33541 1.75 6.00018 1.75ZM6.00018 2.75C4.66498 2.75 3.54451 3.38399 2.7453 4.14844C2.3469 4.52951 2.03876 4.93373 1.83319 5.28613C1.61522 5.65981 1.54999 5.91158 1.54999 6C1.54999 6.08842 1.61522 6.34019 1.83319 6.71387C2.03876 7.06627 2.3469 7.47049 2.7453 7.85156C3.54451 8.61601 4.66498 9.25 6.00018 9.25C7.33513 9.24994 8.45494 8.61585 9.25409 7.85156C9.65239 7.47058 9.96063 7.06621 10.1662 6.71387C10.3842 6.34019 10.4504 6.08842 10.4504 6C10.4504 5.91158 10.3842 5.65981 10.1662 5.28613C9.96063 4.93379 9.65239 4.52942 9.25409 4.14844C8.45494 3.38415 7.33513 2.75006 6.00018 2.75ZM6.00018 3.5498C7.35311 3.54991 8.45025 4.64708 8.45038 6C8.45027 7.35294 7.35313 8.45009 6.00018 8.4502C4.64715 8.4502 3.55009 7.35301 3.54999 6C3.55012 4.64701 4.64717 3.5498 6.00018 3.5498ZM6.00018 4.5498C5.19945 4.5498 4.55012 5.1993 4.54999 6C4.55009 6.80072 5.19944 7.4502 6.00018 7.4502C6.80084 7.45009 7.45027 6.80066 7.45038 6C7.45025 5.19936 6.80082 4.54991 6.00018 4.5498Z" fill="#1D1C1D"/>
</svg>
