<svg width="20" height="20" viewBox="0 0 20 20" fill="none" xmlns="http://www.w3.org/2000/svg">
<path d="M10 3C13.3936 3 16.6211 5.11504 18.3115 8.0127C18.7119 8.69906 19 9.42013 19 10C19 10.5799 18.7119 11.3009 18.3115 11.9873C16.6211 14.885 13.3936 17 10 17C6.60641 17 3.37886 14.885 1.68848 11.9873C1.2881 11.3009 1 10.5799 1 10C1 9.42013 1.2881 8.69906 1.68848 8.0127C3.37886 5.11504 6.60641 3 10 3ZM10 6C7.79086 6 6 7.79086 6 10C6 12.2091 7.79086 14 10 14C12.2091 14 14 12.2091 14 10C14 7.79086 12.2091 6 10 6ZM10 7.5C11.3807 7.5 12.5 8.61929 12.5 10C12.5 11.3807 11.3807 12.5 10 12.5C8.61929 12.5 7.5 11.3807 7.5 10C7.5 8.61929 8.61929 7.5 10 7.5Z" fill="#1D1C1D"/>
</svg>
