<svg width="20" height="20" viewBox="0 0 20 20" fill="none" xmlns="http://www.w3.org/2000/svg">
<path d="M17.0434 7.44555C17.2119 7.06742 17.6555 6.89664 18.0337 7.06469C18.412 7.23315 18.5819 7.6766 18.4136 8.05492C18.0318 8.91216 17.3257 10.0121 16.3159 11.0168L17.3999 12.2805C17.6693 12.5949 17.6331 13.0685 17.3188 13.3381C17.0045 13.6077 16.5309 13.5712 16.2612 13.2571L15.1792 11.9954C14.773 12.2964 14.3338 12.5736 13.8618 12.8147L14.3999 14.1467C14.555 14.5308 14.3698 14.9681 13.9858 15.1233C13.6018 15.2784 13.1644 15.0923 13.0093 14.7082L12.4722 13.3791C11.9309 13.5455 11.3571 13.6618 10.7505 13.7151V15.2502C10.7505 15.6643 10.4146 16.0001 10.0005 16.0002C9.58627 16.0002 9.25048 15.6644 9.25048 15.2502V13.7151C8.69626 13.6665 8.16922 13.566 7.66942 13.4221L7.15087 14.7082C6.9958 15.0922 6.55925 15.2781 6.17528 15.1233C5.79122 14.9682 5.60513 14.5308 5.76024 14.1467L6.27001 12.8821C5.78578 12.6448 5.33532 12.3686 4.91845 12.0676L3.89989 13.2571C3.63032 13.5714 3.15669 13.6075 2.84228 13.3381C2.52786 13.0685 2.49156 12.5949 2.76122 12.2805L3.77099 11.1018C2.71465 10.0744 1.97805 8.93654 1.58544 8.05492C1.41749 7.67672 1.58822 7.23312 1.9663 7.06469C2.3445 6.89659 2.78802 7.06748 2.95653 7.44555C3.77096 9.27387 6.26076 12.2499 9.9995 12.2502C13.7386 12.2502 16.229 9.27397 17.0434 7.44555Z" fill="#1D1C1D"/>
</svg>
