<svg width="12" height="12" viewBox="0 0 12 12" fill="none" xmlns="http://www.w3.org/2000/svg">
<path d="M6.00037 1.7998C8.0364 1.79997 9.97254 3.06911 10.9867 4.80762C11.2269 5.21944 11.3998 5.65208 11.3998 6C11.3997 6.34789 11.2269 6.78064 10.9867 7.19238C9.97249 8.93075 8.03629 10.2 6.00037 10.2002C3.96427 10.2002 2.02731 8.9309 1.01306 7.19238C0.772879 6.78064 0.60004 6.34789 0.599976 6C0.599976 5.65209 0.772845 5.21943 1.01306 4.80762C2.02727 3.06897 3.96417 1.7998 6.00037 1.7998ZM6.00037 3.5498C4.64727 3.5498 3.55017 4.6469 3.55017 6C3.5503 7.35299 4.64735 8.4502 6.00037 8.4502C7.35321 8.45 8.45043 7.35286 8.45056 6C8.45056 4.64702 7.3533 3.55 6.00037 3.5498ZM6.00037 4.5498C6.80101 4.55 7.45056 5.19931 7.45056 6C7.45043 6.80058 6.80093 7.45 6.00037 7.4502C5.19963 7.4502 4.5503 6.8007 4.55017 6C4.55017 5.19919 5.19955 4.5498 6.00037 4.5498Z" fill="#1D1C1D"/>
</svg>
