<svg width="20" height="20" viewBox="0 0 20 20" fill="none" xmlns="http://www.w3.org/2000/svg">
<path d="M3.43164 5.57196C3.69518 5.44852 4.00691 5.48819 4.23047 5.67449L8.73047 9.42449C8.90125 9.56699 9 9.77823 9 10.0007C8.99991 10.2231 8.90127 10.4344 8.73047 10.5768L4.23047 14.3268C4.00695 14.513 3.6951 14.5527 3.43164 14.4294C3.16841 14.3059 3.00012 14.0414 3 13.7507V6.25067C3 5.95984 3.16839 5.69549 3.43164 5.57196ZM11.4316 5.57196C11.6952 5.44852 12.0069 5.48819 12.2305 5.67449L16.7305 9.42449C16.9013 9.56699 17 9.77823 17 10.0007C16.9999 10.2231 16.9013 10.4344 16.7305 10.5768L12.2305 14.3268C12.0069 14.513 11.6951 14.5527 11.4316 14.4294C11.1684 14.3059 11.0001 14.0414 11 13.7507V6.25067C11 5.95984 11.1684 5.69549 11.4316 5.57196ZM4.5 12.1491L7.07812 10.0007L4.5 7.85223V12.1491ZM12.5 12.1491L15.0781 10.0007L12.5 7.85223V12.1491Z" fill="#1D1C1D"/>
</svg>
