<svg width="20" height="20" viewBox="0 0 20 20" fill="none" xmlns="http://www.w3.org/2000/svg">
<path d="M3.43164 5.57066C3.69518 5.44722 4.00691 5.48787 4.23047 5.67417L8.73047 9.42417C8.90125 9.56666 9 9.77791 9 10.0003C8.99991 10.2228 8.90136 10.4341 8.73047 10.5765L4.23047 14.3265C4.00691 14.5128 3.69518 14.5525 3.43164 14.4291C3.16835 14.3056 3.00012 14.0411 3 13.7503V6.25034C3 5.95938 3.16817 5.69412 3.43164 5.57066ZM11.4316 5.57066C11.6952 5.44722 12.0069 5.48787 12.2305 5.67417L16.7305 9.42417C16.9013 9.56666 17 9.77791 17 10.0003C16.9999 10.2228 16.9014 10.4341 16.7305 10.5765L12.2305 14.3265C12.0069 14.5128 11.6952 14.5525 11.4316 14.4291C11.1683 14.3056 11.0001 14.0411 11 13.7503V6.25034C11 5.95938 11.1682 5.69412 11.4316 5.57066Z" fill="#1D1C1D"/>
</svg>
