<svg width="20" height="20" viewBox="0 0 20 20" fill="none" xmlns="http://www.w3.org/2000/svg">
<path d="M17.4245 1.48242C17.5011 1.48242 17.5396 1.52832 17.5397 1.62012V16.1104C17.5397 16.4936 17.555 16.8846 17.5856 17.2832C17.601 17.3598 17.5632 17.4218 17.4714 17.4678C16.2142 18.1424 14.8109 18.4794 13.2624 18.4795C11.5759 18.4795 10.2032 17.989 9.1452 17.0078C8.08728 16.0266 7.55837 14.6233 7.55829 12.7988C7.55829 11.0815 8.12577 9.67851 9.26044 8.58984C10.3951 7.48586 11.8671 6.93359 13.6765 6.93359C14.4582 6.93362 15.0565 7.00978 15.4704 7.16309V1.62012C15.4705 1.52832 15.5162 1.48242 15.6081 1.48242H17.4245ZM4.54462 2.77051C4.65195 2.77051 4.70575 2.82431 4.70575 2.93164V18.0654C4.70575 18.1881 4.65195 18.249 4.54462 18.249H2.79657C2.67417 18.2489 2.61298 18.188 2.61298 18.0654V2.93164C2.61298 2.82431 2.66678 2.77051 2.77411 2.77051H4.54462ZM13.653 8.45117C12.4265 8.45117 11.4528 8.84221 10.7321 9.62402C10.0269 10.4059 9.67359 11.4336 9.67352 12.7061C9.67352 14.1013 10.0421 15.144 10.778 15.834C11.5293 16.524 12.4268 16.8691 13.4694 16.8691C14.3585 16.8691 15.0258 16.7463 15.4704 16.501V8.84277C15.0257 8.58211 14.4197 8.45118 13.653 8.45117Z" fill="#1D1C1D"/>
</svg>
