<svg width="20" height="20" viewBox="0 0 20 20" fill="none" xmlns="http://www.w3.org/2000/svg">
<path fill-rule="evenodd" clip-rule="evenodd" d="M1 2.5V8.5C1 10.433 2.567 12 4.5 12C6.433 12 8 10.433 8 8.5V3.125C8 1.95139 7.0486 1 5.875 1C4.70139 1 3.75 1.95139 3.75 3.125V8.5C3.75 8.91421 4.08579 9.25 4.5 9.25C4.91421 9.25 5.25 8.91421 5.25 8.5V3.125C5.25 2.77982 5.52982 2.5 5.875 2.5C6.22018 2.5 6.5 2.77982 6.5 3.125V8.5C6.5 9.60457 5.60457 10.5 4.5 10.5C3.39543 10.5 2.5 9.60457 2.5 8.5V2.5C2.5 2.08579 2.16421 1.75 1.75 1.75C1.33579 1.75 1 2.08579 1 2.5ZM15.75 19C17.2688 19 18.5 17.7688 18.5 16.25V4.25C18.5 2.73122 17.2688 1.5 15.75 1.5H10.3408C9.73851 1.5 9.25 1.98851 9.25 2.59082V8.90234C9.24991 11.2284 7.42315 13.1277 5.12598 13.2441L4.90234 13.25C4.40409 13.25 4 13.6541 4 14.1523V16.25C4 17.7688 5.23122 19 6.75 19H15.75ZM15.5 7.75C15.9142 7.75 16.25 8.08579 16.25 8.5C16.25 8.91421 15.9142 9.25 15.5 9.25H12.5C12.0858 9.25 11.75 8.91421 11.75 8.5C11.75 8.08579 12.0858 7.75 12.5 7.75H15.5ZM16.25 11.5C16.25 11.0858 15.9142 10.75 15.5 10.75H12C11.5858 10.75 11.25 11.0858 11.25 11.5C11.25 11.9142 11.5858 12.25 12 12.25H15.5C15.9142 12.25 16.25 11.9142 16.25 11.5ZM15 13.75C15.4142 13.75 15.75 14.0858 15.75 14.5C15.75 14.9142 15.4142 15.25 15 15.25H10C9.58579 15.25 9.25 14.9142 9.25 14.5C9.25 14.0858 9.58579 13.75 10 13.75H15Z" fill="#1D1C1D"/>
</svg>
