<svg width="20" height="20" viewBox="0 0 20 20" fill="none" xmlns="http://www.w3.org/2000/svg">
<path d="M2.09919 13.5621C2.31875 13.2109 2.78117 13.1043 3.1324 13.3238L9.65583 17.401C9.86757 17.533 10.133 17.5327 10.3424 17.402C11.792 16.4959 15.0247 14.476 16.8619 13.3277C17.2131 13.1082 17.6756 13.2148 17.8951 13.566C18.1144 13.9172 18.0079 14.3797 17.6568 14.5992C15.8196 15.7475 12.587 17.7674 11.1373 18.6734C10.4391 19.1097 9.55683 19.1072 8.86091 18.6725L2.33748 14.5953C1.98632 14.3758 1.87975 13.9133 2.09919 13.5621ZM2.09919 10.0621C2.31875 9.71094 2.78117 9.60432 3.1324 9.82384L9.65583 13.901C9.86757 14.033 10.133 14.0327 10.3424 13.902C11.792 12.9959 15.0247 10.976 16.8619 9.82774C17.2131 9.60821 17.6756 9.71477 17.8951 10.066C18.1144 10.4172 18.0079 10.8797 17.6568 11.0992C15.8196 12.2475 12.587 14.2674 11.1373 15.1734C10.4391 15.6097 9.55683 15.6072 8.86091 15.1725L2.33748 11.0953C1.98632 10.8758 1.87975 10.4133 2.09919 10.0621ZM8.85994 1.32872C9.55708 0.893006 10.4421 0.893055 11.1392 1.32872L17.2574 5.15196C18.2538 5.77472 18.2538 7.22648 17.2574 7.84923L11.1392 11.6725C10.4421 12.1079 9.55696 12.1081 8.85994 11.6725L2.74177 7.84923C1.74564 7.22654 1.74589 5.77486 2.74177 5.15196L8.85994 1.32872ZM10.3443 2.60021C10.1336 2.46854 9.8656 2.46849 9.65486 2.60021L3.53669 6.42442C3.48099 6.45983 3.48075 6.54156 3.53669 6.57677L9.65486 10.401C9.86547 10.5326 10.1336 10.5324 10.3443 10.401L16.4625 6.57677C16.5187 6.5415 16.5187 6.45969 16.4625 6.42442L10.3443 2.60021Z" fill="#1D1C1D"/>
</svg>
