<svg width="20" height="20" viewBox="0 0 20 20" fill="none" xmlns="http://www.w3.org/2000/svg">
<path d="M5.24994 12C5.66416 12 5.99994 12.3358 5.99994 12.75V15.9395L7.21967 14.7197C7.51256 14.4268 7.98732 14.4268 8.28022 14.7197C8.57311 15.0126 8.57311 15.4874 8.28022 15.7803L5.78022 18.2803C5.48732 18.5732 5.01256 18.5732 4.71967 18.2803L2.21967 15.7803C1.92678 15.4874 1.92678 15.0126 2.21967 14.7197C2.51256 14.4268 2.98732 14.4268 3.28022 14.7197L4.49994 15.9395V12.75C4.49994 12.3358 4.83573 12 5.24994 12ZM12.7499 1.5C13.6155 1.5 14.4308 1.90724 14.9501 2.59961L16.9501 5.2666C17.3071 5.74261 17.4999 6.322 17.4999 6.91699V14.75C17.4999 16.8211 15.821 18.5 13.7499 18.5H9.74994C9.33573 18.5 8.99994 18.1642 8.99994 17.75C8.99994 17.3358 9.33573 17 9.74994 17H13.7499C14.9926 17 15.9999 15.9926 15.9999 14.75V6.91699C15.9999 6.64662 15.9121 6.38332 15.7499 6.16699L13.7499 3.5C13.5139 3.18524 13.1434 3 12.7499 3H6.24994C5.0073 3 3.99994 4.00736 3.99994 5.25V10.25C3.99994 10.6642 3.66416 11 3.24994 11C2.83573 11 2.49994 10.6642 2.49994 10.25V5.25C2.49994 3.17893 4.17887 1.5 6.24994 1.5H12.7499ZM11.7499 4C12.1642 4 12.4999 4.33579 12.4999 4.75V6.5H14.2499C14.6642 6.5 14.9999 6.83579 14.9999 7.25C14.9999 7.66421 14.6642 8 14.2499 8H11.7499C11.3357 8 10.9999 7.66421 10.9999 7.25V4.75C10.9999 4.33579 11.3357 4 11.7499 4Z" fill="#1D1C1D"/>
</svg>
