<svg width="20" height="20" viewBox="0 0 20 20" fill="none" xmlns="http://www.w3.org/2000/svg">
<path d="M3.13379 5.41309C3.36454 5.06923 3.83085 4.97735 4.1748 5.20801C4.51862 5.43877 4.61053 5.90509 4.37988 6.24902C4.14018 6.60645 4 7.03571 4 7.5V14.75C4.00007 15.9926 5.0074 17 6.25 17H10.75C11.211 17 11.6373 16.8616 11.9932 16.625C12.3381 16.3957 12.8039 16.49 13.0332 16.835C13.2624 17.1798 13.1689 17.6447 12.8242 17.874C12.2299 18.2692 11.5156 18.5 10.75 18.5H6.25C4.17898 18.5 2.50007 16.821 2.5 14.75V7.5C2.5 6.72901 2.73355 6.0099 3.13379 5.41309ZM13.4521 1.5C14.3545 1.50002 15.1992 1.94275 15.7129 2.68457L17.0107 4.55957C17.3291 5.01947 17.5 5.56564 17.5 6.125V11.75C17.5 13.8211 15.8211 15.5 13.75 15.5H9.25C7.17893 15.5 5.5 13.8211 5.5 11.75V5.25C5.5 3.17893 7.17893 1.5 9.25 1.5H13.4521ZM11.75 4C11.3358 4 11 4.33579 11 4.75V7.25C11 7.66421 11.3358 8 11.75 8H14.25C14.6642 8 15 7.66421 15 7.25C15 6.83579 14.6642 6.5 14.25 6.5H12.5V4.75C12.5 4.33579 12.1642 4 11.75 4Z" fill="#1D1C1D"/>
</svg>
