<svg width="20" height="20" viewBox="0 0 20 20" fill="none" xmlns="http://www.w3.org/2000/svg">
<path d="M10 1C12.071 1.00006 13.75 2.67897 13.75 4.75C13.75 5.71368 13.3855 6.59162 12.7881 7.25586L15.1221 11.4648C15.4173 11.2306 15.6976 10.9779 15.958 10.7061C16.2444 10.4073 16.7195 10.3966 17.0186 10.6826C17.3175 10.969 17.328 11.444 17.042 11.7432C15.43 13.426 13.2177 14.5307 10.75 14.7188V16.25C10.75 16.6642 10.4142 16.9999 10 17C9.5858 17 9.25002 16.6642 9.25002 16.25V14.7188C7.85254 14.6123 6.53812 14.2118 5.3672 13.5781L2.9092 18.1191C2.7119 18.4833 2.2568 18.6182 1.8926 18.4209C1.52883 18.2236 1.39307 17.7693 1.58986 17.4053L4.10353 12.7637C3.6955 12.4534 3.31189 12.1126 2.95802 11.7432C2.67195 11.444 2.6825 10.969 2.98146 10.6826C3.28057 10.3967 3.75564 10.4073 4.04201 10.7061C4.28779 10.9626 4.55137 11.2017 4.82814 11.4248L7.13478 7.16797C6.58318 6.51503 6.25002 5.67167 6.25002 4.75C6.25002 2.67893 7.92895 1 10 1ZM16.3858 13.7441L16.8799 14.6357L18.4053 17.3857C18.606 17.7479 18.4753 18.2043 18.1133 18.4053C17.7511 18.6059 17.2946 18.4744 17.0938 18.1123L15.5694 15.3633L15.0772 14.4766C15.5197 14.2408 15.9435 13.9744 16.3457 13.6807C16.3597 13.7009 16.3736 13.7222 16.3858 13.7441ZM6.08205 12.2598C7.04003 12.778 8.11112 13.1112 9.25002 13.2139V11.75C9.25002 11.3358 9.5858 11 10 11C10.4142 11.0001 10.75 11.3358 10.75 11.75V13.2139C11.8674 13.1132 12.9192 12.7898 13.8633 12.2881L11.5703 8.1543C11.0925 8.37511 10.561 8.49998 10 8.5C9.4002 8.5 8.83384 8.35781 8.33107 8.10742L6.08205 12.2598ZM10 2.5C8.75738 2.5 7.75002 3.50736 7.75002 4.75C7.75002 5.99264 8.75738 7 10 7C11.2426 6.99994 12.25 5.9926 12.25 4.75C12.25 3.5074 11.2426 2.50006 10 2.5ZM10 3.75C10.5522 3.75006 11 4.19775 11 4.75C11 5.30225 10.5522 5.74994 10 5.75C9.44773 5.75 9.00002 5.30228 9.00002 4.75C9.00002 4.19772 9.44773 3.75 10 3.75Z" fill="#1D1C1D"/>
</svg>
