<svg width="12" height="12" viewBox="0 0 12 12" fill="none" xmlns="http://www.w3.org/2000/svg">
<path d="M10.2544 1.09082C10.2983 1.0909 10.3207 1.11727 10.3208 1.16992V9.51758C10.3208 9.73835 10.3295 9.96376 10.3472 10.1934C10.356 10.2375 10.3338 10.2733 10.2808 10.2998C9.55644 10.6885 8.7481 10.8828 7.85596 10.8828C6.88429 10.8828 6.09339 10.5995 5.48389 10.0342C4.87463 9.46886 4.56982 8.66033 4.56982 7.60938C4.56992 6.6204 4.89694 5.81258 5.55029 5.18555C6.20392 4.54959 7.052 4.23149 8.09424 4.23145C8.54474 4.23145 8.88992 4.27495 9.12842 4.36328V1.16992C9.12855 1.11719 9.15465 1.09082 9.20752 1.09082H10.2544ZM2.80713 1.83301C2.86885 1.8331 2.89975 1.86337 2.8999 1.9248V10.6436C2.8999 10.7141 2.869 10.7499 2.80713 10.75H1.79639C1.72547 10.75 1.68994 10.7142 1.68994 10.6436V1.9248C1.6901 1.86338 1.72102 1.83311 1.78271 1.83301H2.80713ZM8.08154 5.10547C7.37502 5.10547 6.81407 5.33093 6.39893 5.78125C5.99263 6.23171 5.78861 6.82356 5.78857 7.55664C5.78857 8.36046 6.00131 8.9609 6.42529 9.3584C6.8581 9.75588 7.37447 9.95506 7.9751 9.95508C8.48743 9.95508 8.87225 9.8845 9.12842 9.74316V5.33105C8.87232 5.18093 8.52305 5.10551 8.08154 5.10547Z" fill="#1D1C1D"/>
</svg>
