<svg width="20" height="20" viewBox="0 0 20 20" fill="none" xmlns="http://www.w3.org/2000/svg">
<path d="M10.0002 1.54785C10.2191 1.54795 10.4272 1.64342 10.5696 1.80957L15.7034 7.7998C15.8199 7.93574 15.884 8.10905 15.884 8.28809V15.1338C15.884 15.2819 15.8402 15.4266 15.7581 15.5498L14.0471 18.1172C13.9081 18.3258 13.6738 18.4511 13.4231 18.4512H6.57739C6.32671 18.4512 6.09248 18.3257 5.95337 18.1172L4.24146 15.5498C4.15937 15.4266 4.11548 15.2818 4.11548 15.1338V8.28809C4.11548 8.10905 4.17963 7.93574 4.29614 7.7998L9.43091 1.80957L9.48657 1.75098C9.62487 1.62115 9.80855 1.54785 10.0002 1.54785ZM10.7502 9.76562C11.205 10.0263 11.5119 10.5155 11.512 11.0771C11.512 11.9121 10.8352 12.5897 10.0002 12.5898C9.1652 12.5898 8.48853 11.9122 8.48853 11.0771C8.48862 10.5153 8.79531 10.0262 9.25024 9.76562V4.3252L5.61548 8.56543V14.9062L6.97876 16.9512H13.0217L14.384 14.9062V8.56543L10.7502 4.3252V9.76562Z" fill="#1D1C1D"/>
</svg>
