<svg width="20" height="20" viewBox="0 0 20 20" fill="none" xmlns="http://www.w3.org/2000/svg">
<path d="M15.75 1.5C17.2688 1.5 18.5 2.73122 18.5 4.25V16.25C18.5 17.7688 17.2688 19 15.75 19H6.75C5.23122 19 4 17.7688 4 16.25V14.25C4 13.8358 4.33579 13.5 4.75 13.5C5.16421 13.5 5.5 13.8358 5.5 14.25V16.25C5.5 16.9404 6.05964 17.5 6.75 17.5H15.75C16.4404 17.5 17 16.9404 17 16.25V4.25C17 3.55964 16.4404 3 15.75 3H10.5C10.0858 3 9.75 2.66421 9.75 2.25C9.75 1.83579 10.0858 1.5 10.5 1.5H15.75ZM14 13.75C14.4142 13.75 14.75 14.0858 14.75 14.5C14.75 14.9142 14.4142 15.25 14 15.25H9C8.58579 15.25 8.25 14.9142 8.25 14.5C8.25 14.0858 8.58579 13.75 9 13.75H14ZM14 10.75C14.4142 10.75 14.75 11.0858 14.75 11.5C14.75 11.9142 14.4142 12.25 14 12.25H10C9.58579 12.25 9.25 11.9142 9.25 11.5C9.25 11.0858 9.58579 10.75 10 10.75H14ZM5.875 1C7.0486 1 8 1.95139 8 3.125V8.5C8 10.433 6.433 12 4.5 12C2.567 12 1 10.433 1 8.5V2.5C1 2.08579 1.33579 1.75 1.75 1.75C2.16421 1.75 2.5 2.08579 2.5 2.5V8.5C2.5 9.60457 3.39543 10.5 4.5 10.5C5.60457 10.5 6.5 9.60457 6.5 8.5V3.125C6.5 2.77982 6.22018 2.5 5.875 2.5C5.52982 2.5 5.25 2.77982 5.25 3.125V8.5C5.25 8.91421 4.91421 9.25 4.5 9.25C4.08579 9.25 3.75 8.91421 3.75 8.5V3.125C3.75 1.95139 4.70139 1 5.875 1ZM14 7.75C14.4142 7.75 14.75 8.08579 14.75 8.5C14.75 8.91421 14.4142 9.25 14 9.25H11C10.5858 9.25 10.25 8.91421 10.25 8.5C10.25 8.08579 10.5858 7.75 11 7.75H14Z" fill="#1D1C1D"/>
</svg>
