<svg width="12" height="12" viewBox="0 0 12 12" fill="none" xmlns="http://www.w3.org/2000/svg">
<path d="M6 1.00781C6.14579 1.00795 6.28402 1.07192 6.37891 1.18262L9.37891 4.68164C9.45649 4.77215 9.49892 4.88763 9.49902 5.00684V9.00684C9.49898 9.10548 9.46976 9.2021 9.41504 9.28418L8.41504 10.7842C8.32227 10.923 8.16604 11.0068 7.99902 11.0068H4C3.83298 11.0068 3.67675 10.9231 3.58398 10.7842L2.58398 9.28418C2.52927 9.2021 2.50004 9.10548 2.5 9.00684V5.00684C2.5001 4.88763 2.54253 4.77215 2.62012 4.68164L5.62012 1.18262L5.69922 1.1084C5.78509 1.04384 5.89065 1.00781 6 1.00781ZM3.5 5.19238V8.85547L4.26758 10.0068H7.73145L8.49902 8.85547V5.19238L6.5 2.85938V5.85449C6.80735 6.02908 7.01559 6.35858 7.01562 6.7373C7.01562 7.29807 6.56071 7.75269 6 7.75293C5.43909 7.75293 4.98438 7.29821 4.98438 6.7373C4.98441 6.35813 5.19205 6.02794 5.5 5.85352V2.8584L3.5 5.19238Z" fill="#1D1C1D"/>
</svg>
