<svg width="20" height="20" viewBox="0 0 20 20" fill="none" xmlns="http://www.w3.org/2000/svg">
<path d="M12.75 1.5C13.6155 1.5 14.4308 1.90724 14.9502 2.59961L16.9502 5.2666C17.3072 5.74261 17.5 6.322 17.5 6.91699V14.75C17.5 16.8211 15.8211 18.5 13.75 18.5H6.25C4.17893 18.5 2.5 16.8211 2.5 14.75V5.25C2.5 3.17893 4.17893 1.5 6.25 1.5H12.75ZM6.25 3C5.00736 3 4 4.00736 4 5.25V14.75C4 15.9926 5.00736 17 6.25 17H13.75C14.9926 17 16 15.9926 16 14.75V6.91699C16 6.64662 15.9122 6.38332 15.75 6.16699L13.75 3.5C13.5139 3.18524 13.1434 3 12.75 3H6.25ZM11.75 4C12.1642 4 12.5 4.33579 12.5 4.75V6.5H14.25C14.6642 6.5 15 6.83579 15 7.25C15 7.66421 14.6642 8 14.25 8H11.75C11.3358 8 11 7.66421 11 7.25V4.75C11 4.33579 11.3358 4 11.75 4Z" fill="#1D1C1D"/>
</svg>
