<svg width="20" height="20" viewBox="0 0 20 20" fill="none" xmlns="http://www.w3.org/2000/svg">
<path d="M13.4521 1.5C14.3545 1.50002 15.1992 1.94275 15.7129 2.68457L17.0107 4.55957C17.3291 5.01947 17.5 5.56564 17.5 6.125V11.75C17.5 13.5868 16.1791 15.1133 14.4355 15.4355C14.1133 17.1791 12.5868 18.5 10.75 18.5H6.25C4.17893 18.5 2.5 16.8211 2.5 14.75V7.5C2.5 5.58131 3.94103 3.99977 5.7998 3.77734C6.37211 2.43825 7.70164 1.5 9.25 1.5H13.4521ZM5.5 5.38086C4.62657 5.68999 4 6.52067 4 7.5V14.75C4 15.9926 5.00736 17 6.25 17H10.75C11.7293 17 12.56 16.3734 12.8691 15.5H9.25C7.17893 15.5 5.5 13.8211 5.5 11.75V5.38086ZM9.25 3C8.00736 3 7 4.00736 7 5.25V11.75C7 12.9926 8.00736 14 9.25 14H13.75C14.9926 14 16 12.9926 16 11.75V6.125C16 5.87074 15.9221 5.62213 15.7773 5.41309L14.4795 3.53809C14.246 3.20111 13.8621 3.00002 13.4521 3H9.25ZM11.75 4C12.1642 4 12.5 4.33579 12.5 4.75V6.5H14.25C14.6642 6.5 15 6.83579 15 7.25C15 7.66421 14.6642 8 14.25 8H11.75C11.3358 8 11 7.66421 11 7.25V4.75C11 4.33579 11.3358 4 11.75 4Z" fill="#1D1C1D"/>
</svg>
