<svg width="20" height="20" viewBox="0 0 20 20" fill="none" xmlns="http://www.w3.org/2000/svg">
<path d="M12.75 1.5C13.6155 1.5 14.4308 1.90724 14.9502 2.59961L16.9502 5.2666C17.3072 5.74261 17.5 6.322 17.5 6.91699V14.75C17.5 16.8211 15.8211 18.5 13.75 18.5H6.25C4.17893 18.5 2.5 16.8211 2.5 14.75V5.25C2.5 3.17893 4.17893 1.5 6.25 1.5H12.75ZM11.75 4C11.3358 4 11 4.33579 11 4.75V7.25C11 7.66421 11.3358 8 11.75 8H14.25C14.6642 8 15 7.66421 15 7.25C15 6.83579 14.6642 6.5 14.25 6.5H12.5V4.75C12.5 4.33579 12.1642 4 11.75 4Z" fill="#1D1C1D"/>
</svg>
