<svg width="20" height="20" viewBox="0 0 20 20" fill="none" xmlns="http://www.w3.org/2000/svg">
<path d="M9.94751 1.5C12.0078 1.50006 13.6176 1.9635 14.7766 2.89062C15.9615 3.79214 16.554 5.13191 16.554 6.90918C16.5539 8.73792 15.9614 10.129 14.7766 11.082C13.5919 12.0349 11.9821 12.5117 9.94751 12.5117H7.51294V18.5H4.42212V1.5H9.94751ZM7.51294 10.0391H9.94751C11.0034 10.039 11.8401 9.78071 12.4583 9.26562C13.0764 8.72473 13.386 7.93943 13.386 6.90918C13.386 5.90463 13.0764 5.15736 12.4583 4.66797C11.8659 4.17877 11.029 3.93463 9.94751 3.93457H7.51294V10.0391Z" fill="#1D1C1D"/>
</svg>
