<svg width="20" height="20" viewBox="0 0 20 20" fill="none" xmlns="http://www.w3.org/2000/svg">
<path d="M12.5 13.25C13.6193 13.25 14.5661 13.9858 14.8848 15H17.75C18.1642 15 18.5 15.3358 18.5 15.75C18.5 16.1642 18.1642 16.5 17.75 16.5H14.8848C14.5661 17.5142 13.6193 18.25 12.5 18.25C11.3807 18.25 10.4339 17.5142 10.1152 16.5H2.25C1.8358 16.5 1.5 16.1642 1.5 15.75C1.5 15.3358 1.8358 15 2.25 15H10.1152C10.4339 13.9858 11.3807 13.25 12.5 13.25ZM12.5 14.75C11.9477 14.75 11.5 15.1977 11.5 15.75C11.5 16.3023 11.9477 16.75 12.5 16.75C13.0523 16.75 13.5 16.3023 13.5 15.75C13.5 15.1977 13.0523 14.75 12.5 14.75ZM6.5 7.5C7.61932 7.5 8.56613 8.23584 8.88477 9.25H17.75C18.1642 9.25 18.5 9.58579 18.5 10C18.5 10.4142 18.1642 10.75 17.75 10.75H8.88477C8.56613 11.7642 7.61932 12.5 6.5 12.5C5.38068 12.5 4.43386 11.7642 4.11523 10.75H2.25C1.8358 10.75 1.5 10.4142 1.5 10C1.5 9.5858 1.8358 9.25002 2.25 9.25H4.11523C4.43386 8.23584 5.38068 7.50001 6.5 7.5ZM6.5 9C5.94773 9.00002 5.5 9.44773 5.5 10C5.5 10.5523 5.94773 11 6.5 11C7.05228 11 7.5 10.5523 7.5 10C7.5 9.44772 7.05228 9 6.5 9ZM13.5 1.75C14.6193 1.75 15.5661 2.48584 15.8848 3.5H17.75C18.1642 3.5 18.5 3.83579 18.5 4.25C18.5 4.66421 18.1642 5 17.75 5H15.8848C15.5661 6.01416 14.6193 6.75 13.5 6.75C12.3807 6.74999 11.4339 6.01416 11.1152 5H2.25C1.83579 5 1.5 4.66421 1.5 4.25C1.5 3.83579 1.83579 3.5 2.25 3.5H11.1152C11.4339 2.48584 12.3807 1.75001 13.5 1.75ZM13.5 3.25C12.9477 3.25002 12.5 3.69773 12.5 4.25C12.5 4.80227 12.9477 5.24998 13.5 5.25C14.0523 5.25 14.5 4.80228 14.5 4.25C14.5 3.69772 14.0523 3.25 13.5 3.25Z" fill="#1D1C1D"/>
</svg>
