<svg width="20" height="20" viewBox="0 0 20 20" fill="none" xmlns="http://www.w3.org/2000/svg">
<path d="M7 1.5C8.31625 1.5 9.59093 2.0818 10.6553 2.56836C11.8038 3.0934 12.6995 3.5 13.5 3.5C14.3738 3.5 15.0821 3.28143 15.5703 3.06445C15.8141 2.9561 16.0011 2.84947 16.123 2.77246C16.1839 2.73402 16.228 2.70286 16.2549 2.68359C16.2679 2.67427 16.2766 2.66755 16.2812 2.66406C16.5064 2.48396 16.8153 2.44933 17.0752 2.57422C17.3349 2.69917 17.5 2.96182 17.5 3.25V13.25C17.5 13.4778 17.3967 13.6936 17.2188 13.8359L16.75 13.25L17.2178 13.8359L17.2168 13.8369C17.2161 13.8375 17.2147 13.8382 17.2139 13.8389C17.2121 13.8403 17.2104 13.8428 17.208 13.8447C17.2032 13.8485 17.1967 13.8529 17.1895 13.8584C17.1746 13.8697 17.1546 13.8846 17.1299 13.9023C17.0806 13.9378 17.0114 13.9847 16.9238 14.04C16.7489 14.1505 16.4983 14.2939 16.1797 14.4355C15.5429 14.7186 14.6262 15 13.5 15C12.3006 15 11.0712 14.4066 10.0322 13.9316C8.90908 13.4182 7.93372 13 7 13C5.98578 13 5.13922 13.2259 4.54785 13.4512C4.32595 13.5357 4.14234 13.6216 4 13.6924V17.7783C4 18.1925 3.66421 18.5283 3.25 18.5283C2.83579 18.5283 2.5 18.1925 2.5 17.7783V3.25C2.5 2.99924 2.62534 2.76508 2.83398 2.62598L2.83496 2.625H2.83594C2.83669 2.6245 2.83793 2.62366 2.83887 2.62305C2.84069 2.62184 2.84319 2.6198 2.8457 2.61816C2.85086 2.61481 2.85733 2.61049 2.86523 2.60547C2.88158 2.59509 2.9038 2.58122 2.93164 2.56445C2.98749 2.53082 3.06692 2.48501 3.16699 2.43164C3.36692 2.32503 3.65375 2.18631 4.01465 2.04883C4.73576 1.77417 5.76448 1.5 7 1.5Z" fill="#1D1C1D"/>
</svg>
