<svg width="20" height="20" viewBox="0 0 20 20" fill="none" xmlns="http://www.w3.org/2000/svg">
<path d="M7.30664 1.5C7.96661 1.50009 8.59307 1.7901 9.02051 2.29297L10.2471 3.73535C10.3895 3.90292 10.5984 3.99991 10.8184 4H14.5C16.0188 4 17.25 5.23122 17.25 6.75V7.5H17.3301C18.4051 7.5002 19.226 8.46059 19.0586 9.52246L18.1406 15.335C17.8528 17.1575 16.2816 18.4999 14.4365 18.5H5.25C3.17893 18.5 1.5 16.8211 1.5 14.75V5.25C1.5 3.17893 3.17893 1.5 5.25 1.5H7.30664ZM6.59961 9C6.01521 9.00003 5.50842 9.4055 5.37988 9.97559L3.91992 16.4551L3.89844 16.5459C4.27501 16.8297 4.74211 17 5.25 17H14.4365C15.5436 16.9999 16.4865 16.1941 16.6592 15.1006L17.5771 9.28906C17.6011 9.13745 17.4835 9.0002 17.3301 9H6.59961ZM5.25 3C4.00736 3 3 4.00736 3 5.25V13.7119L3.91699 9.64551C4.19976 8.39125 5.31387 7.50003 6.59961 7.5H15.75V6.75C15.75 6.05964 15.1904 5.5 14.5 5.5H10.8184C10.1584 5.49991 9.53193 5.20989 9.10449 4.70703L7.87793 3.26465C7.73549 3.09708 7.52656 3.00009 7.30664 3H5.25Z" fill="#1D1C1D"/>
</svg>
