<svg width="20" height="20" viewBox="0 0 20 20" fill="none" xmlns="http://www.w3.org/2000/svg">
<path d="M7.30664 1.5C7.96661 1.50009 8.59307 1.7901 9.02051 2.29297L10.2471 3.73535C10.3895 3.90292 10.5984 3.99991 10.8184 4H14.75C16.8211 4 18.5 5.67893 18.5 7.75V14.75C18.5 16.8211 16.8211 18.5 14.75 18.5H5.25C3.17893 18.5 1.5 16.8211 1.5 14.75V5.25C1.5 3.17893 3.17893 1.5 5.25 1.5H7.30664ZM5.25 9C4.00736 9 3 10.0074 3 11.25V14.75C3 15.9926 4.00736 17 5.25 17H14.75C15.9926 17 17 15.9926 17 14.75V11.25C17 10.0074 15.9926 9 14.75 9H5.25ZM5.25 3C4.00736 3 3 4.00736 3 5.25V8.24902C3.62669 7.77841 4.40595 7.5 5.25 7.5H14.75C15.5941 7.5 16.3733 7.77841 17 8.24902V7.75C17 6.50736 15.9926 5.5 14.75 5.5H10.8184C10.1584 5.49991 9.53193 5.20989 9.10449 4.70703L7.87793 3.26465C7.73549 3.09708 7.52656 3.00009 7.30664 3H5.25Z" fill="#1D1C1D"/>
</svg>
