<svg width="20" height="20" viewBox="0 0 20 20" fill="none" xmlns="http://www.w3.org/2000/svg">
<path d="M16.25 9C17.4926 9 18.5 10.0074 18.5 11.25V14.75C18.5 16.8211 16.8211 18.5 14.75 18.5H5.25C3.17893 18.5 1.5 16.8211 1.5 14.75V11.25C1.5 10.0074 2.50736 9 3.75 9H16.25ZM7.30664 1.5C7.96661 1.50009 8.59307 1.7901 9.02051 2.29297L10.2471 3.73535C10.3895 3.90292 10.5984 3.99991 10.8184 4H14.75C16.8211 4 18.5 5.67893 18.5 7.75V8.25C17.8733 7.77923 17.0942 7.5 16.25 7.5H3.75C2.9058 7.5 2.12675 7.77923 1.5 8.25V5.25C1.5 3.17893 3.17893 1.5 5.25 1.5H7.30664Z" fill="#1D1C1D"/>
</svg>
