<svg width="20" height="20" viewBox="0 0 20 20" fill="none" xmlns="http://www.w3.org/2000/svg">
<path d="M1.5 5.25C1.5 3.17893 3.17893 1.5 5.25 1.5H7.30634C7.96642 1.5 8.5932 1.78985 9.0207 2.29279L10.2472 3.73574C10.3897 3.90338 10.5986 4 10.8187 4H14.5C16.0188 4 17.25 5.23122 17.25 6.75C17.25 7.16421 16.9142 7.5 16.5 7.5H6.59943C5.31365 7.5 4.19949 8.39096 3.91675 9.64527L2.45834 16.115C2.37003 16.4631 1.93349 16.5384 1.79382 16.2076C1.60461 15.7595 1.5 15.267 1.5 14.75V5.25Z" fill="#1D1C1D"/>
<path d="M3.70323 17.3077C3.58945 17.7561 3.79546 18.2385 4.24109 18.3627C4.5621 18.4522 4.90046 18.5 5.25 18.5H14.4365C16.2818 18.5 17.8528 17.1576 18.1406 15.3349L19.0583 9.52293C19.1053 9.22539 18.8389 9 18.5377 9H6.59943C6.01498 9 5.50855 9.40498 5.38003 9.97512L3.91942 16.4547L3.91474 16.4742L3.70323 17.3077Z" fill="#1D1C1D"/>
</svg>
