<svg width="18" height="18" viewBox="0 0 18 18" fill="none" xmlns="http://www.w3.org/2000/svg">
<path d="M12.892 6.04235C13.7704 5.71882 14.731 5.69294 15.6254 5.96911C17.037 6.40525 18.0004 7.71042 18.0004 9.18786V15.3002C18.0004 15.6727 17.6981 15.9747 17.3256 15.975C16.9529 15.975 16.6509 15.6729 16.6508 15.3002V14.6263C15.8869 15.1994 15.0154 15.6171 14.0883 15.849C13.0238 16.1151 11.9001 15.7095 11.2534 14.8207C9.76421 12.7729 11.2272 9.90075 13.7592 9.90075H16.6508V9.18786C16.6508 8.30256 16.0728 7.52056 15.227 7.25915C14.6157 7.07043 13.9592 7.0879 13.3588 7.30895L13.1401 7.38903C12.5701 7.59904 12.1261 8.05689 11.934 8.63317L11.891 8.76403C11.7731 9.11744 11.39 9.30837 11.0366 9.19079C10.6833 9.07283 10.4923 8.69069 10.6098 8.33727L10.6537 8.20641C10.9755 7.24109 11.7185 6.47422 12.6733 6.12243L12.892 6.04235ZM3.68011 3.57653C4.075 2.33008 5.8339 2.3166 6.24749 3.557L10.0903 15.0863C10.2081 15.4399 10.017 15.8228 9.66351 15.9408C9.31007 16.0585 8.92804 15.8673 8.80999 15.514L7.7641 12.3754H2.30902L1.31878 15.5043C1.20615 15.8594 0.826374 16.0561 0.471128 15.9437C0.115906 15.8311 -0.0808386 15.4514 0.0316746 15.0961L3.68011 3.57653ZM13.7592 11.2504C12.3305 11.2504 11.5049 12.8713 12.3452 14.0267C12.667 14.4688 13.2287 14.6725 13.7612 14.5394C14.5719 14.3366 15.3317 13.9605 15.9838 13.4388L16.6508 12.9047V11.2504H13.7592ZM2.73675 11.0257H7.3139L4.96624 3.98376L2.73675 11.0257Z" fill="#454447"/>
</svg>
