<svg width="20" height="20" viewBox="0 0 20 20" fill="none" xmlns="http://www.w3.org/2000/svg">
<path fill-rule="evenodd" clip-rule="evenodd" d="M17.5 6.25C17.5 4.21998 15.887 2.5667 13.8727 2.50197C13.5643 1.62705 12.7304 1 11.75 1H8.25C7.2696 1 6.43566 1.62705 6.12733 2.50197C4.11304 2.5667 2.5 4.21998 2.5 6.25V14.75C2.5 16.8211 4.17893 18.5 6.25 18.5H6.61392C6.58347 18.2284 6.6023 17.9496 6.67405 17.6769L7.55791 14.3182C7.65929 13.9329 7.86114 13.5815 8.14282 13.2998L13.8352 7.60727C14.439 7.0036 15.2108 6.67044 16 6.6078C16.5061 6.56764 17.0193 6.63869 17.5 6.82097V6.25ZM7.5 3.25C7.5 2.83579 7.83579 2.5 8.25 2.5H11.75C12.1642 2.5 12.5 2.83579 12.5 3.25C12.5 3.66421 12.1642 4 11.75 4H8.25C7.83579 4 7.5 3.66421 7.5 3.25Z" fill="#1D1C1D"/>
<path d="M14.8958 8.66799C15.6574 7.90654 16.892 7.90657 17.6535 8.66806L18.4313 9.44587C19.1929 10.2074 19.1928 11.4421 18.4313 12.2036L18.2191 12.4158C17.9262 12.7087 17.4514 12.7086 17.1585 12.4158L14.6836 9.94087C14.5429 9.80021 14.4639 9.60944 14.4639 9.41052C14.4639 9.2116 14.543 9.02083 14.6836 8.88018L14.8958 8.66799Z" fill="#1D1C1D"/>
<path d="M13.0926 10.782C13.2915 10.782 13.4823 10.861 13.6229 11.0017L16.0978 13.4765C16.3907 13.7694 16.3907 14.2443 16.0978 14.5372L12.7391 17.896C12.6452 17.9899 12.528 18.0572 12.3996 18.091L9.04085 18.9748C8.78289 19.0427 8.50828 18.9685 8.31966 18.7798C8.13104 18.5912 8.0568 18.3166 8.12469 18.0587L9.00855 14.6999C9.04234 14.5715 9.10963 14.4544 9.20352 14.3605L12.5622 11.0017C12.7029 10.861 12.8937 10.782 13.0926 10.782Z" fill="#1D1C1D"/>
</svg>
