<svg width="20" height="20" viewBox="0 0 20 20" fill="none" xmlns="http://www.w3.org/2000/svg">
<path d="M14.3233 6.71298C15.2994 6.35334 16.3674 6.32505 17.3614 6.63192C18.9299 7.11634 19.9999 8.5665 20 10.2081V17.0001C20 17.4143 19.6642 17.7501 19.25 17.7501C18.8359 17.75 18.5001 17.4142 18.5 17.0001V16.252C17.6514 16.8884 16.6832 17.352 15.6533 17.6095C14.4704 17.9051 13.2214 17.4548 12.503 16.4669C10.8488 14.1917 12.4741 11.0003 15.2871 11.0001H18.5V10.2081C18.4999 9.22445 17.8588 8.35581 16.919 8.06552C16.2395 7.8557 15.5091 7.87532 14.8418 8.12118L14.5996 8.21005C13.9664 8.44343 13.4732 8.95258 13.2598 9.59286L13.2119 9.73739C13.0809 10.1303 12.6556 10.343 12.2627 10.212C11.87 10.0809 11.6572 9.65563 11.7881 9.26278L11.8369 9.11825C12.1945 8.04569 13.0202 7.19373 14.0811 6.80282L14.3233 6.71298ZM4.08792 3.97372C4.52661 2.58871 6.4818 2.57411 6.94143 3.95223L11.2119 16.7628C11.3429 17.1557 11.1303 17.581 10.7373 17.712C10.3444 17.8429 9.91909 17.6303 9.78811 17.2374L8.626 13.7501H2.56546L1.46487 17.2266C1.33975 17.6214 0.918294 17.84 0.523466 17.7149C0.128839 17.5897 -0.0898197 17.1683 0.0351844 16.7735L4.08792 3.97372ZM15.2871 12.5001C13.7 12.5003 12.7826 14.3013 13.7158 15.585C14.0733 16.0766 14.6973 16.3022 15.2891 16.1544C16.1902 15.9291 17.0349 15.5116 17.7598 14.9317L18.5 14.339V12.5001H15.2871ZM3.04104 12.2501H8.126L5.51858 4.42684L3.04104 12.2501Z" fill="#1D1C1D"/>
</svg>
