<svg width="20" height="20" viewBox="0 0 20 20" fill="none" xmlns="http://www.w3.org/2000/svg">
<path fill-rule="evenodd" clip-rule="evenodd" d="M6.12916 4.00319C4.9427 4.06598 4 5.0479 4 6.25V14.75C4 15.9926 5.00736 17 6.25 17C6.66421 17 7 17.3358 7 17.75C7 18.1642 6.66421 18.5 6.25 18.5C4.17893 18.5 2.5 16.8211 2.5 14.75V6.25C2.5 4.21998 4.11304 2.5667 6.12733 2.50197C6.43566 1.62705 7.2696 1 8.25 1H11.75C12.7304 1 13.5643 1.62705 13.8727 2.50197C15.887 2.5667 17.5 4.21998 17.5 6.25C17.5 6.66421 17.1642 7 16.75 7C16.3358 7 16 6.66421 16 6.25C16 5.0479 15.0573 4.06598 13.8708 4.00319C13.5611 4.87542 12.7285 5.5 11.75 5.5H8.25C7.27153 5.5 6.43894 4.87542 6.12916 4.00319ZM7.5 3.25C7.5 2.83579 7.83579 2.5 8.25 2.5H11.75C12.1642 2.5 12.5 2.83579 12.5 3.25C12.5 3.66421 12.1642 4 11.75 4H8.25C7.83579 4 7.5 3.66421 7.5 3.25Z" fill="#1D1C1D"/>
<path fill-rule="evenodd" clip-rule="evenodd" d="M14.8963 8.66856C15.6578 7.90703 16.8925 7.90702 17.654 8.66854L18.4319 9.44637C19.1934 10.2079 19.1934 11.4426 18.4319 12.2041L12.7396 17.8965C12.6457 17.9904 12.5286 18.0576 12.4001 18.0914L9.04139 18.9753C8.78342 19.0432 8.50881 18.9689 8.32019 18.7803C8.13157 18.5917 8.05733 18.3171 8.12522 18.0591L9.00908 14.7004C9.04288 14.572 9.11016 14.4548 9.20405 14.3609L14.8963 8.66856ZM16.5934 9.72921C16.4176 9.55347 16.1327 9.55347 15.957 9.72921L15.2132 10.4729L16.6275 11.8872L17.3712 11.1434C17.5469 10.9677 17.5469 10.6828 17.3712 10.507L16.5934 9.72921ZM15.5668 12.9479L14.1526 11.5336L10.4081 15.2782L9.90303 17.1975L11.8223 16.6924L15.5668 12.9479Z" fill="#1D1C1D"/>
</svg>
