<svg width="20" height="20" viewBox="0 0 20 20" fill="none" xmlns="http://www.w3.org/2000/svg">
<path d="M18.2217 11.085C18.2216 11.2779 18.1604 11.4345 18.0381 11.5547C17.9158 11.6747 17.7085 11.7353 17.416 11.7354H15.208L14.9248 13.3799C15.1027 13.3435 15.2735 13.3183 15.4365 13.3037C15.5995 13.2855 15.7573 13.2764 15.9092 13.2764C16.3316 13.2764 16.704 13.3381 17.0264 13.4619C17.3488 13.5858 17.6192 13.7571 17.8379 13.9756C18.0566 14.1942 18.2218 14.451 18.333 14.7461C18.4442 15.0375 18.5 15.3526 18.5 15.6914C18.5 16.1103 18.4244 16.4928 18.2725 16.8389C18.1242 17.1849 17.9163 17.4818 17.6494 17.7295C17.3825 17.9736 17.0652 18.1631 16.6982 18.2979C16.3351 18.4326 15.9386 18.5 15.5088 18.5C15.2567 18.5 15.0171 18.4748 14.791 18.4238C14.5649 18.3728 14.3515 18.3055 14.1514 18.2217C13.955 18.1343 13.772 18.035 13.6016 17.9258C13.4347 17.8128 13.2838 17.6952 13.1504 17.5713L13.5732 16.9971C13.6622 16.8732 13.7793 16.8115 13.9238 16.8115C14.0163 16.8115 14.1108 16.8403 14.207 16.8984C14.3033 16.9567 14.413 17.0207 14.5352 17.0898C14.6612 17.159 14.8078 17.223 14.9746 17.2812C15.145 17.3395 15.3489 17.3691 15.5859 17.3691C15.838 17.3691 16.0611 17.3292 16.2539 17.249C16.4466 17.1689 16.6054 17.0571 16.7314 16.915C16.8612 16.7693 16.9575 16.5981 17.0205 16.4014C17.0872 16.201 17.1211 15.9841 17.1211 15.751C17.121 15.3213 16.993 14.9865 16.7373 14.7461C16.4852 14.502 16.1109 14.3799 15.6143 14.3799C15.2324 14.3799 14.8408 14.4495 14.4404 14.5879L13.585 14.3467L14.252 10.5107H18.2217V11.085ZM10.5254 17.4014H11.9707V18.4121H7.52246V17.4014H9.15234V12.7949C9.15235 12.6129 9.15783 12.4254 9.16895 12.2324L8.01172 13.1826C7.945 13.2336 7.87824 13.2667 7.81152 13.2812C7.74863 13.2921 7.68713 13.2922 7.62793 13.2812C7.57256 13.2703 7.52285 13.252 7.47852 13.2266C7.43403 13.1974 7.40017 13.1666 7.37793 13.1338L6.94434 12.5488L9.39648 10.5H10.5254V17.4014ZM10 1C13.1313 1 15.888 2.5988 17.5 5.02344V2.5C17.5 2.0858 17.8358 1.75002 18.25 1.75C18.6642 1.75 19 2.08579 19 2.5V7.5C19 7.91421 18.6642 8.25 18.25 8.25H13.25C12.8358 8.24998 12.5 7.9142 12.5 7.5C12.5 7.0858 12.8358 6.75002 13.25 6.75H16.7617C15.5504 4.2346 12.9768 2.5 10 2.5C5.85786 2.5 2.5 5.85786 2.5 10C2.5 12.1492 3.4031 14.0867 4.85254 15.4551C5.15346 15.7394 5.16704 16.2135 4.88281 16.5146C4.59846 16.8158 4.12346 16.8293 3.82227 16.5449C2.08546 14.905 1 12.5787 1 10C1 5.02944 5.02944 1 10 1Z" fill="#1D1C1D"/>
</svg>
