<svg width="20" height="20" viewBox="0 0 20 20" fill="none" xmlns="http://www.w3.org/2000/svg">
<path d="M10 2.25C14.9706 2.25 19 6.27944 19 11.25C19 13.5546 18.1327 15.6582 16.708 17.25L16.4844 17.5H3.51562L3.29199 17.25C1.86734 15.6582 1 13.5546 1 11.25C1 6.27944 5.02944 2.25 10 2.25ZM4.75 13.25C4.33579 13.25 4 13.5858 4 14C4 14.4142 4.33579 14.75 4.75 14.75C5.16421 14.75 5.5 14.4142 5.5 14C5.5 13.5858 5.16421 13.25 4.75 13.25ZM15.25 13.25C14.8358 13.25 14.5 13.5858 14.5 14C14.5 14.4142 14.8358 14.75 15.25 14.75C15.6642 14.75 16 14.4142 16 14C16 13.5858 15.6642 13.25 15.25 13.25ZM12.3936 7.36133C12.0409 7.14432 11.5785 7.25398 11.3613 7.60645L10.04 9.75195C10.0267 9.7516 10.0134 9.75 10 9.75C9.17157 9.75 8.5 10.4216 8.5 11.25C8.5 12.0784 9.17157 12.75 10 12.75C10.8284 12.75 11.5 12.0784 11.5 11.25C11.5 10.9915 11.4344 10.7484 11.3193 10.5361L12.6387 8.39355C12.8557 8.04091 12.746 7.57851 12.3936 7.36133ZM4 10.25C3.58579 10.25 3.25 10.5858 3.25 11C3.25 11.4142 3.58579 11.75 4 11.75C4.41421 11.75 4.75 11.4142 4.75 11C4.75 10.5858 4.41421 10.25 4 10.25ZM16 10.25C15.5858 10.25 15.25 10.5858 15.25 11C15.25 11.4142 15.5858 11.75 16 11.75C16.4142 11.75 16.75 11.4142 16.75 11C16.75 10.5858 16.4142 10.25 16 10.25ZM15.25 7.25C14.8358 7.25 14.5 7.58579 14.5 8C14.5 8.41421 14.8358 8.75 15.25 8.75C15.6642 8.75 16 8.41421 16 8C16 7.58579 15.6642 7.25 15.25 7.25ZM4.75 7C4.33579 7 4 7.33579 4 7.75C4 8.16421 4.33579 8.5 4.75 8.5C5.16421 8.5 5.5 8.16421 5.5 7.75C5.5 7.33579 5.16421 7 4.75 7ZM6.75 5C6.33579 5 6 5.33579 6 5.75C6 6.16421 6.33579 6.5 6.75 6.5C7.16421 6.5 7.5 6.16421 7.5 5.75C7.5 5.33579 7.16421 5 6.75 5ZM13.25 5C12.8358 5 12.5 5.33579 12.5 5.75C12.5 6.16421 12.8358 6.5 13.25 6.5C13.6642 6.5 14 6.16421 14 5.75C14 5.33579 13.6642 5 13.25 5ZM10 4C9.58579 4 9.25 4.33579 9.25 4.75C9.25 5.16421 9.58579 5.5 10 5.5C10.4142 5.5 10.75 5.16421 10.75 4.75C10.75 4.33579 10.4142 4 10 4Z" fill="#1D1C1D"/>
</svg>
