<svg width="20" height="20" viewBox="0 0 20 20" fill="none" xmlns="http://www.w3.org/2000/svg">
<path d="M10 2.25C14.9706 2.25 19 6.27944 19 11.25C19 13.5546 18.1327 15.6582 16.708 17.25L16.4844 17.5H3.51562L3.29199 17.25C1.86734 15.6582 1 13.5546 1 11.25C1 6.27944 5.02944 2.25 10 2.25ZM10 3.75C5.85786 3.75 2.5 7.10786 2.5 11.25C2.5 13.0531 3.13524 14.7063 4.19531 16H15.8047C16.8648 14.7063 17.5 13.0531 17.5 11.25C17.5 7.10786 14.1421 3.75 10 3.75ZM5 13.25C5.41421 13.25 5.75 13.5858 5.75 14C5.75 14.4142 5.41421 14.75 5 14.75C4.58579 14.75 4.25 14.4142 4.25 14C4.25 13.5858 4.58579 13.25 5 13.25ZM15 13.25C15.4142 13.25 15.75 13.5858 15.75 14C15.75 14.4142 15.4142 14.75 15 14.75C14.5858 14.75 14.25 14.4142 14.25 14C14.25 13.5858 14.5858 13.25 15 13.25ZM11.3613 7.60645C11.5785 7.25398 12.0409 7.14432 12.3936 7.36133C12.746 7.57851 12.8557 8.04091 12.6387 8.39355L11.3193 10.5361C11.4344 10.7484 11.5 10.9915 11.5 11.25C11.5 12.0784 10.8284 12.75 10 12.75C9.17157 12.75 8.5 12.0784 8.5 11.25C8.5 10.4216 9.17157 9.75 10 9.75C10.0134 9.75 10.0267 9.7516 10.04 9.75195L11.3613 7.60645ZM4.25 10.25C4.66421 10.25 5 10.5858 5 11C5 11.4142 4.66421 11.75 4.25 11.75C3.83579 11.75 3.5 11.4142 3.5 11C3.5 10.5858 3.83579 10.25 4.25 10.25ZM15.75 10.25C16.1642 10.25 16.5 10.5858 16.5 11C16.5 11.4142 16.1642 11.75 15.75 11.75C15.3358 11.75 15 11.4142 15 11C15 10.5858 15.3358 10.25 15.75 10.25ZM5 7.25C5.41421 7.25 5.75 7.58579 5.75 8C5.75 8.41421 5.41421 8.75 5 8.75C4.58579 8.75 4.25 8.41421 4.25 8C4.25 7.58579 4.58579 7.25 5 7.25ZM15 7.25C15.4142 7.25 15.75 7.58579 15.75 8C15.75 8.41421 15.4142 8.75 15 8.75C14.5858 8.75 14.25 8.41421 14.25 8C14.25 7.58579 14.5858 7.25 15 7.25ZM7 5.25C7.41421 5.25 7.75 5.58579 7.75 6C7.75 6.41421 7.41421 6.75 7 6.75C6.58579 6.75 6.25 6.41421 6.25 6C6.25 5.58579 6.58579 5.25 7 5.25ZM13 5.25C13.4142 5.25 13.75 5.58579 13.75 6C13.75 6.41421 13.4142 6.75 13 6.75C12.5858 6.75 12.25 6.41421 12.25 6C12.25 5.58579 12.5858 5.25 13 5.25ZM10 4.5C10.4142 4.5 10.75 4.83579 10.75 5.25C10.75 5.66421 10.4142 6 10 6C9.58579 6 9.25 5.66421 9.25 5.25C9.25 4.83579 9.58579 4.5 10 4.5Z" fill="#1D1C1D"/>
</svg>
