<svg width="20" height="20" viewBox="0 0 20 20" fill="none" xmlns="http://www.w3.org/2000/svg">
<path d="M14.75 1.5C16.8211 1.5 18.5 3.17893 18.5 5.25V14.75C18.5 16.8211 16.8211 18.5 14.75 18.5H5.25C3.17893 18.5 1.5 16.8211 1.5 14.75V5.25C1.5 3.17893 3.17893 1.5 5.25 1.5H14.75ZM5.25 3C4.00736 3 3 4.00736 3 5.25V14.75C3 15.9926 4.00736 17 5.25 17H14.75C15.9926 17 17 15.9926 17 14.75V5.25C17 4.00736 15.9926 3 14.75 3H5.25ZM12.0381 11.5215C12.1667 11.1277 12.5906 10.9124 12.9844 11.041C13.3776 11.1699 13.5922 11.5929 13.4639 11.9863C12.8859 13.7554 11.3294 14.6434 9.80078 14.6436C8.2722 14.6435 6.7157 13.7553 6.1377 11.9863C6.00935 11.5927 6.22455 11.1696 6.61816 11.041C7.01173 10.9128 7.43494 11.1279 7.56348 11.5215C7.91744 12.604 8.84534 13.1435 9.80078 13.1436C10.7562 13.1434 11.6842 12.604 12.0381 11.5215ZM12.1357 6.77441C12.9176 6.77463 13.5516 7.41274 13.5518 8.2002C13.5518 8.98774 12.9177 9.62673 12.1357 9.62695C11.3536 9.62695 10.7188 8.98788 10.7188 8.2002C10.7189 7.4126 11.3537 6.77441 12.1357 6.77441ZM6.06543 6.75195C6.20239 6.51226 6.50832 6.42859 6.74805 6.56543L8.74805 7.70898C8.91268 7.80311 9.00985 7.98254 8.99902 8.17188C8.98803 8.36097 8.87134 8.52784 8.69727 8.60254L6.69727 9.45996C6.44349 9.56872 6.14886 9.451 6.04004 9.19727C5.93128 8.94349 6.049 8.64886 6.30273 8.54004L7.37891 8.07812L6.25195 7.43457C6.01226 7.29761 5.92859 6.99168 6.06543 6.75195Z" fill="#1D1C1D"/>
</svg>
