<svg width="20" height="20" viewBox="0 0 20 20" fill="none" xmlns="http://www.w3.org/2000/svg">
<path d="M12.2256 1.5C13.3502 1.50005 14.4157 2.00462 15.1279 2.875L17.6523 5.96094C18.2005 6.63092 18.5 7.47028 18.5 8.33594V14.75C18.5 16.8211 16.8211 18.5 14.75 18.5H5.25C3.17893 18.5 1.5 16.8211 1.5 14.75V5.25C1.5 3.17893 3.17893 1.5 5.25 1.5H12.2256ZM5.25 3C4.00736 3 3 4.00736 3 5.25V14.75C3 15.9926 4.00736 17 5.25 17H14.75C15.9926 17 17 15.9926 17 14.75V8.75H16C15.0345 8.75 14.1549 8.38449 13.4902 7.78516C13.5299 7.91651 13.5517 8.0558 13.5518 8.2002C13.5518 8.98774 12.9177 9.62673 12.1357 9.62695C11.3536 9.62695 10.7188 8.98788 10.7188 8.2002C10.7189 7.4126 11.3537 6.77441 12.1357 6.77441C12.3707 6.77448 12.5921 6.8325 12.7871 6.93457C12.4463 6.36973 12.25 5.70782 12.25 5V3.00098C12.2419 3.00089 12.2337 3 12.2256 3H5.25ZM12.0381 11.5215C12.1667 11.1277 12.5906 10.9124 12.9844 11.041C13.3776 11.1699 13.5922 11.5929 13.4639 11.9863C12.8859 13.7554 11.3294 14.6434 9.80078 14.6436C8.2722 14.6435 6.7157 13.7553 6.1377 11.9863C6.00935 11.5927 6.22455 11.1696 6.61816 11.041C7.01173 10.9128 7.43494 11.1279 7.56348 11.5215C7.91744 12.604 8.84534 13.1435 9.80078 13.1436C10.7562 13.1434 11.6842 12.604 12.0381 11.5215ZM7.41504 6.77441C8.19691 6.77463 8.83095 7.41274 8.83105 8.2002C8.83105 8.98774 8.19698 9.62673 7.41504 9.62695C6.63292 9.62695 5.99805 8.98788 5.99805 8.2002C5.99815 7.4126 6.63298 6.77441 7.41504 6.77441ZM13.75 5C13.75 6.24264 14.7574 7.25 16 7.25H16.7188C16.6532 7.13125 16.5781 7.0173 16.4912 6.91113L13.9668 3.8252C13.9 3.74361 13.8264 3.6692 13.75 3.59863V5Z" fill="#1D1C1D"/>
</svg>
