<svg width="20" height="20" viewBox="0 0 20 20" fill="none" xmlns="http://www.w3.org/2000/svg">
<path d="M16.25 4C17.7688 4 19 5.23122 19 6.75V12.75C19 13.0782 18.7878 13.3534 18.4941 13.4551C18.3877 15.4308 16.7523 17 14.75 17C12.6789 17 11 15.3211 11 13.25C11 12.6977 10.5523 12.25 10 12.25C9.44772 12.25 9 12.6977 9 13.25C9 15.3211 7.32107 17 5.25 17C3.24773 17 1.61135 15.4308 1.50488 13.4551C1.21168 13.3532 1 13.0779 1 12.75V6.75C1 5.23122 2.23122 4 3.75 4C5.26878 4 6.5 5.23122 6.5 6.75C6.5 7.16421 6.16421 7.5 5.75 7.5C5.33579 7.5 5 7.16421 5 6.75C5 6.05964 4.44036 5.5 3.75 5.5C3.05964 5.5 2.5 6.05964 2.5 6.75V10.7012C3.18489 9.96257 4.16329 9.5 5.25 9.5C6.60337 9.5 7.78884 10.2172 8.44824 11.292C8.87474 10.9535 9.41322 10.75 10 10.75C10.5865 10.75 11.1244 10.9538 11.5508 11.292C12.2101 10.217 13.3965 9.5 14.75 9.5C15.8367 9.5 16.8151 9.96257 17.5 10.7012V6.75C17.5 6.05964 16.9404 5.5 16.25 5.5C15.5596 5.5 15 6.05964 15 6.75C15 7.16421 14.6642 7.5 14.25 7.5C13.8358 7.5 13.5 7.16421 13.5 6.75C13.5 5.23122 14.7312 4 16.25 4ZM5.25 11C4.00736 11 3 12.0074 3 13.25C3 14.4926 4.00736 15.5 5.25 15.5C6.49264 15.5 7.5 14.4926 7.5 13.25C7.5 12.0074 6.49264 11 5.25 11ZM14.75 11C13.5074 11 12.5 12.0074 12.5 13.25C12.5 14.4926 13.5074 15.5 14.75 15.5C15.9926 15.5 17 14.4926 17 13.25C17 12.0074 15.9926 11 14.75 11Z" fill="#1D1C1D"/>
</svg>
