<svg width="20" height="20" viewBox="0 0 20 20" fill="none" xmlns="http://www.w3.org/2000/svg">
<path d="M10 1C14.9706 1 19 5.02944 19 10C19 14.9706 14.9706 19 10 19C5.02944 19 1 14.9706 1 10C1 5.02944 5.02944 1 10 1ZM13.7275 10.75C13.5698 13.4496 12.5874 15.7311 11.6768 17.3086C14.7745 16.6008 17.1414 13.978 17.4619 10.75H13.7275ZM2.53809 10.75C2.85859 13.9776 5.22493 16.6005 8.32227 17.3086C7.41166 15.7311 6.43018 13.4494 6.27246 10.75H2.53809ZM7.77539 10.75C7.95684 13.4931 9.09506 15.7741 10 17.1836C10.9049 15.7741 12.0432 13.4931 12.2246 10.75H7.77539ZM8.32227 2.69043C5.22483 3.39844 2.8586 6.02229 2.53809 9.25H6.27246C6.4302 6.55019 7.41154 4.26795 8.32227 2.69043ZM11.6768 2.69043C12.5876 4.26797 13.5698 6.54995 13.7275 9.25H17.4619C17.1414 6.02197 14.7747 3.39813 11.6768 2.69043ZM10 2.81543C9.09499 4.2249 7.95687 6.50646 7.77539 9.25H12.2246C12.0431 6.50646 10.905 4.2249 10 2.81543Z" fill="#1D1C1D"/>
</svg>
