<svg width="12" height="12" viewBox="0 0 12 12" fill="none" xmlns="http://www.w3.org/2000/svg">
<path d="M7.49963 0.900391C7.66525 0.900391 7.80031 1.0346 7.80042 1.2002V1.80078C7.80026 1.96633 7.66522 2.10059 7.49963 2.10059H6.49963V3.61523C8.79613 3.76839 9.74617 5.09537 9.98889 6.30078H10.4996C10.831 6.30078 11.1002 6.56902 11.1002 6.90039C11.1002 7.23176 10.831 7.5 10.4996 7.5H10.1002V10.2002H10.4996C10.831 10.2002 11.1002 10.4694 11.1002 10.8008C11.1 11.132 10.8309 11.4004 10.4996 11.4004H1.49963C1.16857 11.4002 0.900235 11.1318 0.900024 10.8008C0.900024 10.4695 1.16844 10.2004 1.49963 10.2002H1.90002V7.5H1.49963C1.16844 7.49979 0.900024 7.23163 0.900024 6.90039C0.900024 6.56915 1.16844 6.30099 1.49963 6.30078H2.03772C2.3214 5.2436 3.27931 3.79109 5.49963 3.61719V0.900391H7.49963ZM2.90002 7.5V10.2002H4.30042V7.5H2.90002ZM5.30042 10.2002H6.69983V7.5H5.30042V10.2002ZM7.69983 7.5V10.2002H9.10022V7.5H7.69983Z" fill="#1D1C1D"/>
</svg>
