<svg width="20" height="20" viewBox="0 0 20 20" fill="none" xmlns="http://www.w3.org/2000/svg">
<path d="M16.2197 4.21973C16.5126 3.92683 16.9874 3.92683 17.2803 4.21973C17.5732 4.51262 17.5732 4.98738 17.2803 5.28027L3.78027 18.7803C3.48738 19.0732 3.01262 19.0732 2.71973 18.7803C2.42683 18.4874 2.42683 18.0126 2.71973 17.7197L16.2197 4.21973ZM15.9375 8.74316C16.3486 9.39113 16.5886 10.0855 16.6904 10.75H17.75C18.1642 10.75 18.5 11.0858 18.5 11.5C18.5 11.9142 18.1642 12.25 17.75 12.25H16.75V17.5H17.75C18.1642 17.5 18.5 17.8358 18.5 18.25C18.5 18.6642 18.1642 19 17.75 19H5.68164L7.18164 17.5H7.25V17.4316L8.75 15.9316V17.5H11.25V13.4316L13.9316 10.75H15.167C15.1012 10.4488 14.993 10.1417 14.8389 9.8418L15.9375 8.74316ZM12.75 17.5H15.25V12.25H12.75V17.5ZM12.5 1.5C12.7761 1.5 13 1.72386 13 2V3C13 3.27614 12.7761 3.5 12.5 3.5H10.75V6.02637C11.2311 6.05924 11.6804 6.12517 12.0996 6.21777L10.7852 7.53223C10.5368 7.51137 10.2753 7.5 10 7.5C6.68419 7.5 5.27686 9.43151 4.87793 10.75H7.56836L6.06836 12.25H4.75V13.5684L3.25 15.0684V12.25H2.25C1.83579 12.25 1.5 11.9142 1.5 11.5C1.5 11.0858 1.83579 10.75 2.25 10.75H3.33301C3.70982 8.91808 5.42261 6.33111 9.25 6.03027V1.5H12.5Z" fill="#1D1C1D"/>
</svg>
