<svg width="12" height="12" viewBox="0 0 12 12" fill="none" xmlns="http://www.w3.org/2000/svg">
<path d="M9.6969 2.49707C9.89218 2.30201 10.2087 2.30188 10.4039 2.49707C10.5989 2.69228 10.5989 3.00889 10.4039 3.2041L2.30334 11.3037C2.10808 11.499 1.79158 11.499 1.59631 11.3037C1.40134 11.1084 1.40115 10.7918 1.59631 10.5967L9.6969 2.49707ZM9.56702 5.24219C9.78168 5.58361 9.91778 5.94763 9.98889 6.30078H10.4996C10.831 6.30078 11.1002 6.56902 11.1002 6.90039C11.1002 7.23176 10.831 7.5 10.4996 7.5H10.1002V10.2002H10.4996C10.831 10.2002 11.1002 10.4694 11.1002 10.8008C11.1 11.132 10.8309 11.4004 10.4996 11.4004H3.40881L5.30042 9.51074V10.2002H6.69983V8.05957L9.56702 5.24219ZM7.69983 10.2002H9.10022V7.5H7.69983V10.2002ZM7.49963 0.900391C7.66525 0.900391 7.80031 1.0346 7.80042 1.2002V1.80078C7.8002 1.96629 7.66519 2.10059 7.49963 2.10059H6.49963V3.61523C6.79127 3.63468 7.01243 3.67289 7.26331 3.72754L3.49084 7.5H2.90002V8.1416L1.90002 9.04102V7.5H1.49963C1.16844 7.49979 0.900024 7.23163 0.900024 6.90039C0.900024 6.56915 1.16844 6.30099 1.49963 6.30078H2.03772C2.3214 5.2436 3.27931 3.79109 5.49963 3.61719V0.900391H7.49963Z" fill="#1D1C1D"/>
</svg>
