<svg width="12" height="12" viewBox="0 0 12 12" fill="none" xmlns="http://www.w3.org/2000/svg">
<path d="M9.69666 2.49707C9.89193 2.30192 10.2085 2.30184 10.4037 2.49707C10.5988 2.6923 10.5988 3.00887 10.4037 3.2041L2.3031 11.3037C2.10784 11.499 1.79133 11.499 1.59607 11.3037C1.40119 11.1084 1.40093 10.7918 1.59607 10.5967L9.69666 2.49707ZM9.599 5.20996C9.84463 5.59373 9.99185 6.00499 10.058 6.40039H10.6498C10.9259 6.40039 11.1498 6.62425 11.1498 6.90039C11.1498 7.17653 10.9259 7.40039 10.6498 7.40039H10.1V10.4502H10.6498C10.9259 10.4502 11.1497 10.6741 11.1498 10.9502C11.1498 11.2263 10.9259 11.4502 10.6498 11.4502H3.35876L5.30017 9.50977V10.4502H6.69958V8.10938L8.40955 6.40039H9.03748C8.9996 6.24817 8.94389 6.0936 8.86755 5.94238L9.599 5.20996ZM7.69958 10.4502H9.09998V7.40039H7.69958V10.4502ZM7.50037 0.900391C7.66581 0.900601 7.80007 1.03473 7.80017 1.2002V1.80078C7.79996 1.96616 7.66574 2.10038 7.50037 2.10059H6.50037V3.56934C6.78609 3.59104 7.05345 3.63149 7.3031 3.68848L6.42517 4.56641C6.29021 4.55618 6.14871 4.55079 6.00037 4.55078C4.08867 4.55078 3.25251 5.63143 2.99353 6.40039H4.59119L3.59119 7.40039H2.89978V8.09082L1.89978 9.09082V7.40039H1.34998C1.07383 7.40039 0.849976 7.17653 0.849976 6.90039C0.849976 6.62425 1.07383 6.40039 1.34998 6.40039H1.95837C2.20343 5.29148 3.23923 3.76822 5.50037 3.57129V0.900391H7.50037Z" fill="#1D1C1D"/>
</svg>
