<svg width="20" height="20" viewBox="0 0 20 20" fill="none" xmlns="http://www.w3.org/2000/svg">
<path d="M16.2197 4.21973C16.5126 3.92683 16.9874 3.92683 17.2803 4.21973C17.5732 4.51262 17.5732 4.98738 17.2803 5.28027L3.78027 18.7803C3.48738 19.0732 3.01262 19.0732 2.71973 18.7803C2.42683 18.4874 2.42683 18.0126 2.71973 17.7197L16.2197 4.21973ZM15.9453 8.73633C16.3031 9.30535 16.5299 9.91143 16.6484 10.5H17.5C18.0523 10.5 18.5 10.9477 18.5 11.5C18.5 12.0523 18.0523 12.5 17.5 12.5H16.75V17H17.5C18.0523 17 18.5 17.4477 18.5 18C18.5 18.5523 18.0523 19 17.5 19H5.68164L8.75 15.9316V17H11.25V13.4316L15.9453 8.73633ZM12.75 17H15.25V12.5H12.75V17ZM12.5 1.5C12.7761 1.5 13 1.72386 13 2V3C13 3.27614 12.7761 3.5 12.5 3.5H10.75V6.02441C11.2363 6.05684 11.6881 6.12077 12.1064 6.21191L5.81836 12.5H4.75V13.5684L3.25 15.0684V12.5H2.5C1.94772 12.5 1.5 12.0523 1.5 11.5C1.5 10.9477 1.94772 10.5 2.5 10.5H3.39551C3.86833 8.73795 5.54907 6.31796 9.25 6.02832V1.5H12.5Z" fill="#1D1C1D"/>
</svg>
