<svg width="12" height="12" viewBox="0 0 12 12" fill="none" xmlns="http://www.w3.org/2000/svg">
<path d="M7.49963 0.900391C7.66525 0.900391 7.80031 1.0346 7.80042 1.2002V1.80078C7.80026 1.96633 7.66522 2.10059 7.49963 2.10059H6.50061V3.61523C7.71079 3.69799 8.53922 4.11585 9.13049 4.70703C9.65106 5.2276 9.92466 5.80895 10.0153 6.40039H10.65C10.8986 6.40039 11.1002 6.65186 11.1002 6.90039C11.1002 7.14892 10.8986 7.40039 10.65 7.40039H10.0504V10.4502H10.65C10.8985 10.4502 11.1001 10.7017 11.1002 10.9502C11.1002 11.1987 10.8986 11.4502 10.65 11.4502H1.35022C1.10169 11.4502 0.900024 11.1987 0.900024 10.9502C0.90013 10.7017 1.10176 10.4502 1.35022 10.4502H1.90002V7.40039H1.35022C1.10169 7.40039 0.900024 7.14892 0.900024 6.90039C0.900024 6.65186 1.10169 6.40039 1.35022 6.40039H1.99963C2.2257 5.30123 3.2041 3.79864 5.50061 3.61816V0.900391H7.49963ZM2.90002 7.40039V10.4502H4.30042V7.40039H2.90002ZM5.30042 7.40039V10.4502H6.69983V7.40039H5.30042ZM7.69983 7.40039V10.4502H9.05042V7.40039H7.69983ZM5.99963 4.62012C4.01029 4.62025 3.23987 5.60936 3.00061 6.40039H9.02014C8.93754 6.02225 8.82774 5.79295 8.49475 5.45996C8.03205 4.99726 7.25399 4.62012 5.99963 4.62012Z" fill="#1D1C1D"/>
</svg>
