<svg width="20" height="20" viewBox="0 0 20 20" fill="none" xmlns="http://www.w3.org/2000/svg">
<path d="M12.5 1.5C12.7761 1.5 13 1.72386 13 2V3C13 3.27614 12.7761 3.5 12.5 3.5H10.75V6.02539C12.7676 6.16322 14.2322 6.85912 15.2178 7.84473C16.0854 8.71235 16.5414 9.76426 16.6924 10.75H17.75C18.1642 10.75 18.5 11.0858 18.5 11.5C18.5 11.9142 18.1642 12.25 17.75 12.25H16.75V17.5H17.75C18.1642 17.5 18.5 17.8358 18.5 18.25C18.5 18.6642 18.1642 19 17.75 19H2.25C1.83579 19 1.5 18.6642 1.5 18.25C1.5 17.8358 1.83579 17.5 2.25 17.5H3.25V12.25H2.25C1.83579 12.25 1.5 11.9142 1.5 11.5C1.5 11.0858 1.83579 10.75 2.25 10.75H3.33203C3.70876 8.91806 5.42242 6.33012 9.25 6.0293V1.5H12.5ZM4.75 12.25V17.5H7.25V12.25H4.75ZM8.75 12.25V17.5H11.25V12.25H8.75ZM12.75 12.25V17.5H15.25V12.25H12.75ZM10 7.5C6.68375 7.5 5.27469 9.4315 4.87598 10.75H15.167C15.0293 10.1198 14.7122 9.46022 14.1572 8.90527C13.3861 8.1341 12.0906 7.5 10 7.5Z" fill="#1D1C1D"/>
</svg>
