<svg width="20" height="20" viewBox="0 0 20 20" fill="none" xmlns="http://www.w3.org/2000/svg">
<path d="M12.5 1.5C12.7761 1.5 13 1.72386 13 2V3C13 3.27614 12.7761 3.5 12.5 3.5H10.75V6.02441C14.5775 6.27966 16.2439 8.491 16.6484 10.5H17.5C18.0523 10.5 18.5 10.9477 18.5 11.5C18.5 12.0523 18.0523 12.5 17.5 12.5H16.75V17H17.5C18.0523 17 18.5 17.4477 18.5 18C18.5 18.5523 18.0523 19 17.5 19H2.5C1.94772 19 1.5 18.5523 1.5 18C1.5 17.4477 1.94772 17 2.5 17H3.25V12.5H2.5C1.94772 12.5 1.5 12.0523 1.5 11.5C1.5 10.9477 1.94772 10.5 2.5 10.5H3.39551C3.86833 8.73795 5.54907 6.31796 9.25 6.02832V1.5H12.5ZM4.75 12.5V17H7.25V12.5H4.75ZM8.75 17H11.25V12.5H8.75V17ZM12.75 12.5V17H15.25V12.5H12.75Z" fill="#1D1C1D"/>
</svg>
