<svg width="20" height="20" viewBox="0 0 20 20" fill="none" xmlns="http://www.w3.org/2000/svg">
<path d="M9.9502 2.5C10.3643 2.5001 10.7002 2.83585 10.7002 3.25V16.75C10.7002 17.1642 10.3643 17.4999 9.9502 17.5C9.53598 17.5 9.2002 17.1642 9.2002 16.75V10.75H3V16.75C3 17.1642 2.66421 17.5 2.25 17.5C1.83579 17.5 1.5 17.1642 1.5 16.75V3.25C1.5 2.83579 1.83579 2.5 2.25 2.5C2.66421 2.5 3 2.83579 3 3.25V9.25H9.2002V3.25C9.2002 2.83579 9.53598 2.5 9.9502 2.5ZM17.6689 8C17.9683 8.00007 18.2389 8.17825 18.3574 8.45312C18.4759 8.72813 18.4195 9.04798 18.2139 9.26562L16.2188 11.375C16.5615 11.462 16.8831 11.6035 17.1719 11.8057C17.9776 12.3699 18.4003 13.3052 18.4004 14.4092C18.4001 16.2458 16.9903 17.2851 15.5654 17.4277C14.1415 17.5699 12.5222 16.8513 11.9385 15.1006C11.8077 14.7077 12.0203 14.2824 12.4131 14.1514C12.8058 14.0207 13.2312 14.2334 13.3623 14.626C13.6877 15.6019 14.5684 16.0194 15.417 15.9346C16.2643 15.8496 16.9004 15.2979 16.9004 14.4082C16.9002 13.6949 16.6415 13.2653 16.3115 13.0342C15.9671 12.7931 15.4094 12.6736 14.6504 12.8633C14.6474 12.864 14.6436 12.8635 14.6406 12.8643C14.6331 12.866 14.6257 12.8676 14.6182 12.8691C14.5759 12.8778 14.534 12.8834 14.4922 12.8848C14.4657 12.8856 14.4395 12.8818 14.4131 12.8799C14.3918 12.8783 14.3705 12.8793 14.3496 12.876C14.318 12.871 14.2877 12.8607 14.2568 12.8516C14.2414 12.847 14.2251 12.8454 14.21 12.8398C14.1839 12.8303 14.1599 12.8163 14.1348 12.8037C14.1164 12.7945 14.0967 12.788 14.0791 12.7773C14.0348 12.7504 13.9924 12.7187 13.9531 12.6816C13.8963 12.628 13.8527 12.5658 13.8164 12.501C13.8066 12.4834 13.7946 12.4668 13.7861 12.4482C13.7818 12.4387 13.7784 12.4287 13.7744 12.4189C13.7612 12.3865 13.75 12.3524 13.7412 12.3174C13.7408 12.3158 13.7406 12.3141 13.7402 12.3125C13.7379 12.3027 13.7354 12.293 13.7334 12.2832C13.7257 12.2446 13.7204 12.2062 13.7188 12.168V12.1572C13.7151 12.0268 13.7463 11.8963 13.8105 11.7783C13.8161 11.7681 13.8201 11.757 13.8262 11.7471C13.8481 11.7109 13.8737 11.6764 13.9023 11.6436C13.9063 11.639 13.91 11.6343 13.9141 11.6299C13.9168 11.6269 13.92 11.6241 13.9229 11.6211L15.9277 9.5H12.9502C12.536 9.5 12.2002 9.16421 12.2002 8.75C12.2002 8.33579 12.536 8 12.9502 8H17.6689Z" fill="#1D1C1D"/>
</svg>
