<svg width="20" height="20" viewBox="0 0 20 20" fill="none" xmlns="http://www.w3.org/2000/svg">
<path fill-rule="evenodd" clip-rule="evenodd" d="M17 8.96582C17 7.4441 16.2151 5.82517 14.9062 4.57129C13.6026 3.32248 11.844 2.5 10 2.5C8.15595 2.5 6.39745 3.32248 5.09375 4.57129C3.78489 5.82517 3 7.4441 3 8.96582V10.3371C3.61483 9.81615 4.38584 9.5 5.25 9.5H5.75C6.81366 9.5 7.5 10.4572 7.5 11.4043V16.5957C7.5 17.5428 6.81366 18.5 5.75 18.5H5.25C3.08177 18.5 1.5 16.5097 1.5 14.2881V13.7119C1.5 13.641 1.50161 13.5704 1.5048 13.5H1.5V8.96582C1.5 6.94548 2.52391 4.95654 4.05664 3.48828C5.59479 2.01489 7.71144 1 10 1C12.2886 1 14.4052 2.01489 15.9434 3.48828C17.4761 4.95654 18.5 6.94548 18.5 8.96582V13.5H18.4952C18.4984 13.5704 18.5 13.641 18.5 13.7119V14.2881C18.5 16.5097 16.9182 18.5 14.75 18.5H14.25C13.1863 18.5 12.5 17.5428 12.5 16.5957V11.4043C12.5 10.4572 13.1863 9.5 14.25 9.5H14.75C15.6142 9.5 16.3852 9.81615 17 10.3371V8.96582Z" fill="#1D1C1D"/>
</svg>
