<svg width="20" height="20" viewBox="0 0 20 20" fill="none" xmlns="http://www.w3.org/2000/svg">
<path d="M9.9502 2.5C10.3643 2.5001 10.7002 2.83585 10.7002 3.25V16.75C10.7002 17.1642 10.3643 17.4999 9.9502 17.5C9.53598 17.5 9.2002 17.1642 9.2002 16.75V10.75H3V16.75C3 17.1642 2.66421 17.5 2.25 17.5C1.83579 17.5 1.5 17.1642 1.5 16.75V3.25C1.5 2.83579 1.83579 2.5 2.25 2.5C2.66421 2.5 3 2.83579 3 3.25V9.25H9.2002V3.25C9.2002 2.83579 9.53598 2.5 9.9502 2.5ZM16.2588 7.89355C16.4869 7.72771 16.7897 7.70405 17.041 7.83203C17.292 7.96016 17.4502 8.21816 17.4502 8.5V16.75C17.4502 17.1642 17.1143 17.4999 16.7002 17.5C16.286 17.5 15.9502 17.1642 15.9502 16.75V9.97266L14.3916 11.1064C14.0567 11.35 13.5874 11.2761 13.3438 10.9414C13.1002 10.6065 13.174 10.1372 13.5088 9.89355L16.2588 7.89355Z" fill="#1D1C1D"/>
</svg>
