<svg width="12" height="12" viewBox="0 0 12 12" fill="none" xmlns="http://www.w3.org/2000/svg">
<path d="M5.99958 1.15039C7.30732 1.15039 8.51455 1.72977 9.39021 2.56836C10.2623 3.40373 10.8501 4.53996 10.8502 5.7002V8.55078C10.8499 9.82068 9.82028 10.8514 8.55037 10.8516H8.24958C7.64244 10.8513 7.15024 10.3581 7.14997 9.75098V7.05078C7.15019 6.4436 7.64241 5.95142 8.24958 5.95117H8.55037C9.03277 5.95125 9.48037 6.09964 9.85017 6.35352V5.7002C9.8501 4.87232 9.42171 3.98348 8.6988 3.29102C7.97941 2.60192 7.01119 2.15039 5.99958 2.15039C4.98817 2.15052 4.02063 2.60206 3.30134 3.29102C2.57845 3.98348 2.15004 4.87233 2.14997 5.7002V6.35352C2.51978 6.09962 2.96732 5.95121 3.44978 5.95117H3.74958C4.35697 5.95117 4.84996 6.44345 4.85017 7.05078V9.75098C4.84991 10.3583 4.35693 10.8516 3.74958 10.8516H3.44978C2.17978 10.8515 1.15024 9.82074 1.14997 8.55078V5.7002C1.15004 4.53998 1.73688 3.40373 2.60896 2.56836C3.48456 1.72964 4.6918 1.15052 5.99958 1.15039Z" fill="#1D1C1D"/>
</svg>
