<svg width="20" height="20" viewBox="0 0 20 20" fill="none" xmlns="http://www.w3.org/2000/svg">
<path d="M9.9502 2.5C10.3643 2.5001 10.7002 2.83585 10.7002 3.25V16.75C10.7002 17.1642 10.3643 17.4999 9.9502 17.5C9.53598 17.5 9.2002 17.1642 9.2002 16.75V10.75H3V16.75C3 17.1642 2.66421 17.5 2.25 17.5C1.83579 17.5 1.5 17.1642 1.5 16.75V3.25C1.5 2.83579 1.83579 2.5 2.25 2.5C2.66421 2.5 3 2.83579 3 3.25V9.25H9.2002V3.25C9.2002 2.83579 9.53598 2.5 9.9502 2.5ZM15.4629 8.00391C16.1624 8.03886 16.8844 8.30182 17.4385 8.82812C18.0046 9.36602 18.3516 10.1387 18.3516 11.0928C18.3515 11.5937 18.2887 12.0329 18.0967 12.4648C17.9104 12.8838 17.6261 13.2417 17.2822 13.6143C16.9446 13.9799 16.4847 14.4257 15.9316 14.9854C15.6416 15.2788 15.3172 15.6135 14.9531 16H17.6016C18.0158 16 18.3516 16.3358 18.3516 16.75C18.3516 17.1642 18.0158 17.5 17.6016 17.5H13.25C13.2179 17.5 13.1863 17.4971 13.1553 17.4932C13.1507 17.4926 13.1462 17.4919 13.1416 17.4912C13.1104 17.4867 13.0806 17.478 13.0508 17.4697C13.0294 17.4638 13.0082 17.458 12.9873 17.4502C12.9606 17.4402 12.9353 17.4279 12.9102 17.415C12.8868 17.4031 12.8632 17.3916 12.8408 17.377C12.8354 17.3734 12.8295 17.3708 12.8242 17.3672C12.7992 17.3499 12.7743 17.3313 12.751 17.3105C12.7062 17.2707 12.6686 17.2258 12.6357 17.1787C12.6238 17.1616 12.6141 17.1431 12.6035 17.125C12.5904 17.1024 12.577 17.0803 12.5664 17.0566C12.5568 17.0352 12.5496 17.0127 12.542 16.9902C12.5337 16.9656 12.5252 16.9412 12.5195 16.916C12.5113 16.8798 12.5047 16.8427 12.502 16.8047C12.5014 16.7966 12.5013 16.7884 12.501 16.7803C12.5006 16.7702 12.5 16.7601 12.5 16.75C12.5 16.7179 12.5019 16.6863 12.5059 16.6553C12.5064 16.6507 12.5071 16.6462 12.5078 16.6416C12.5123 16.6105 12.5211 16.5806 12.5293 16.5508C12.5352 16.5295 12.541 16.5082 12.5488 16.4873C12.5588 16.4606 12.5711 16.4353 12.584 16.4102C12.5959 16.3868 12.6075 16.3631 12.6221 16.3408C12.6256 16.3355 12.6282 16.3295 12.6318 16.3242C12.6491 16.2992 12.6687 16.2753 12.6895 16.252C13.5706 15.2607 14.2874 14.5164 14.8652 13.9316C15.4541 13.3358 15.8646 12.938 16.1797 12.5967C16.4884 12.2623 16.6398 12.0483 16.7256 11.8555C16.8055 11.6756 16.8515 11.4619 16.8516 11.0928C16.8516 10.524 16.6549 10.1533 16.4053 9.91602C16.1434 9.66739 15.776 9.52136 15.3877 9.50195C14.9968 9.48261 14.637 9.59292 14.3916 9.78516C14.1647 9.96309 14 10.2359 14 10.6572C14 11.0713 13.664 11.407 13.25 11.4072C12.836 11.407 12.5 11.0713 12.5 10.6572C12.5 9.77327 12.8781 9.0658 13.4668 8.60449C14.0371 8.15773 14.7663 7.96921 15.4629 8.00391Z" fill="#1D1C1D"/>
</svg>
