<svg width="20" height="20" viewBox="0 0 20 20" fill="none" xmlns="http://www.w3.org/2000/svg">
<path d="M14 2C15.7769 2 16.9425 2.8365 17.6309 3.90723C18.2924 4.93635 18.5 6.15157 18.5 7C18.5 7.82699 18.4259 9.34238 17.3418 11.2734C16.2658 13.19 14.2268 15.461 10.4014 17.8838C10.1564 18.039 9.84364 18.039 9.59863 17.8838C5.77324 15.461 3.73417 13.19 2.6582 11.2734C1.57413 9.34238 1.5 7.82699 1.5 7C1.5 6.15157 1.70763 4.93635 2.36914 3.90723C3.05747 2.8365 4.22308 2 6 2C7.57634 2 8.77444 2.94749 9.54199 3.99414C9.71035 4.22372 9.86375 4.46494 10 4.71191C10.1363 4.46494 10.2896 4.22373 10.458 3.99414C11.2256 2.94749 12.4237 2 14 2Z" fill="#1D1C1D"/>
</svg>
