<svg width="20" height="20" viewBox="0 0 20 20" fill="none" xmlns="http://www.w3.org/2000/svg">
<path d="M14 2C15.7769 2 16.9425 2.8365 17.6309 3.90723C18.2924 4.93635 18.5 6.15157 18.5 7C18.5 7.82699 18.4259 9.34238 17.3418 11.2734C16.2658 13.19 14.2268 15.461 10.4014 17.8838C10.1564 18.039 9.84364 18.039 9.59863 17.8838C5.77324 15.461 3.73417 13.19 2.6582 11.2734C1.57413 9.34238 1.5 7.82699 1.5 7C1.5 6.15157 1.70763 4.93635 2.36914 3.90723C3.05747 2.8365 4.22308 2 6 2C7.57634 2 8.77444 2.94749 9.54199 3.99414C9.71069 4.22419 9.86354 4.46637 10 4.71387C10.1365 4.46637 10.2893 4.22419 10.458 3.99414C11.2256 2.94749 12.4237 2 14 2ZM14 3.5C13.0764 3.5 12.2744 4.05253 11.667 4.88086C11.0518 5.71975 10.75 6.69313 10.75 7.25C10.75 7.66421 10.4142 8 10 8C9.58579 8 9.25 7.66421 9.25 7.25C9.25 6.69313 8.94818 5.71975 8.33301 4.88086C7.72556 4.05253 6.92364 3.5 6 3.5C4.77704 3.5 4.06754 4.0386 3.63086 4.71777C3.16747 5.43861 3 6.34848 3 7C3 7.673 3.05092 8.90767 3.9668 10.5391C4.85646 12.1237 6.59271 14.1312 10 16.3555C13.4073 14.1312 15.1435 12.1237 16.0332 10.5391C16.9491 8.90767 17 7.673 17 7C17 6.34848 16.8325 5.43861 16.3691 4.71777C15.9325 4.0386 15.223 3.5 14 3.5Z" fill="#1D1C1D"/>
</svg>
