<svg width="20" height="20" viewBox="0 0 20 20" fill="none" xmlns="http://www.w3.org/2000/svg">
<path d="M10 1C14.9706 1 19 5.02944 19 10C19 14.9706 14.9706 19 10 19C5.02944 19 1 14.9706 1 10C1 5.02944 5.02944 1 10 1ZM10 13C9.44772 13 9 13.4477 9 14C9 14.5523 9.44772 15 10 15C10.5523 15 11 14.5523 11 14C11 13.4477 10.5523 13 10 13ZM10 5.5C9.2194 5.5 8.47323 5.72959 7.90918 6.21094C7.33277 6.70285 7 7.41439 7 8.25C7 8.66421 7.33579 9 7.75 9C8.16421 9 8.5 8.66421 8.5 8.25C8.5 7.83562 8.65362 7.54715 8.88281 7.35156C9.12439 7.14546 9.50316 7 10 7C10.5015 7 10.9511 7.14849 11.2588 7.39648C11.5474 7.62914 11.75 7.97707 11.75 8.5C11.75 8.9937 11.6041 9.23903 11.4424 9.38379C11.2563 9.55017 10.9363 9.68358 10.4287 9.73145C9.81608 9.78943 9.25 10.2913 9.25 11V12H10.75V11.2041C11.3636 11.1239 11.9708 10.9239 12.4434 10.501C12.9862 10.015 13.25 9.32705 13.25 8.5C13.25 7.52306 12.8412 6.74586 12.1992 6.22852C11.5764 5.72668 10.7759 5.5 10 5.5Z" fill="#1D1C1D"/>
</svg>
