<svg width="20" height="20" viewBox="0 0 20 20" fill="none" xmlns="http://www.w3.org/2000/svg">
<path d="M10 1C14.9706 1 19 5.02944 19 10C19 14.9706 14.9706 19 10 19C5.02944 19 1 14.9706 1 10C1 5.02944 5.02944 1 10 1ZM10 2.5C5.85786 2.5 2.5 5.85786 2.5 10C2.5 14.1421 5.85786 17.5 10 17.5C14.1421 17.5 17.5 14.1421 17.5 10C17.5 5.85786 14.1421 2.5 10 2.5ZM10 13C10.5523 13 11 13.4477 11 14C11 14.5523 10.5523 15 10 15C9.44772 15 9 14.5523 9 14C9 13.4477 9.44772 13 10 13ZM10 5.5C10.7759 5.5 11.5764 5.72668 12.1992 6.22852C12.8412 6.74586 13.25 7.52306 13.25 8.5C13.25 9.32705 12.9862 10.015 12.4434 10.501C11.9709 10.9239 11.3636 11.1219 10.75 11.2021V12H9.25V11C9.25 10.2913 9.81608 9.78943 10.4287 9.73145L10.6113 9.70898C11.0148 9.64916 11.2796 9.52931 11.4424 9.38379C11.6041 9.23903 11.75 8.9937 11.75 8.5C11.75 7.97707 11.5474 7.62914 11.2588 7.39648C10.9511 7.14849 10.5015 7 10 7C9.50316 7 9.12439 7.14546 8.88281 7.35156C8.65362 7.54715 8.5 7.83562 8.5 8.25C8.5 8.66421 8.16421 9 7.75 9C7.33579 9 7 8.66421 7 8.25C7 7.41439 7.33277 6.70285 7.90918 6.21094C8.47323 5.72959 9.2194 5.5 10 5.5Z" fill="#1D1C1D"/>
</svg>
