<svg width="20" height="20" viewBox="0 0 20 20" fill="none" xmlns="http://www.w3.org/2000/svg">
<path d="M10 2.25C7.65279 2.25 5.75 4.15279 5.75 6.5C5.75 8.5913 7.26049 10.3298 9.25 10.684V12.8645C8.47248 13.1087 7.85865 13.7225 7.61445 14.5H6.38555C6.06698 13.4857 5.11941 12.75 4 12.75C2.61929 12.75 1.5 13.8693 1.5 15.25C1.5 16.6307 2.61929 17.75 4 17.75C5.11941 17.75 6.06698 17.0143 6.38555 16H7.61445C7.93302 17.0143 8.88059 17.75 10 17.75C11.1194 17.75 12.067 17.0143 12.3855 16H13.6145C13.933 17.0143 14.8806 17.75 16 17.75C17.3807 17.75 18.5 16.6307 18.5 15.25C18.5 13.8693 17.3807 12.75 16 12.75C14.8806 12.75 13.933 13.4857 13.6145 14.5H12.3855C12.1413 13.7225 11.5275 13.1087 10.75 12.8645V10.684C12.7395 10.3298 14.25 8.5913 14.25 6.5C14.25 4.15279 12.3472 2.25 10 2.25Z" fill="#1D1C1D"/>
</svg>
