<svg width="20" height="20" viewBox="0 0 20 20" fill="none" xmlns="http://www.w3.org/2000/svg">
<path d="M10 2.25C12.3472 2.25 14.25 4.15279 14.25 6.5C14.25 8.59121 12.7394 10.3283 10.75 10.6826V12.8643C11.5275 13.1084 12.1405 13.7226 12.3848 14.5H13.6152C13.9339 13.4858 14.8807 12.75 16 12.75C17.3807 12.75 18.5 13.8693 18.5 15.25C18.5 16.6307 17.3807 17.75 16 17.75C14.8807 17.75 13.9339 17.0142 13.6152 16H12.3848C12.0661 17.0142 11.1193 17.75 10 17.75C8.88067 17.75 7.93387 17.0142 7.61523 16H6.38477C6.06613 17.0142 5.11933 17.75 4 17.75C2.61929 17.75 1.5 16.6307 1.5 15.25C1.5 13.8693 2.61929 12.75 4 12.75C5.11933 12.75 6.06613 13.4858 6.38477 14.5H7.61523C7.85949 13.7226 8.47253 13.1084 9.25 12.8643V10.6826C7.26061 10.3283 5.75 8.59121 5.75 6.5C5.75 4.15279 7.65279 2.25 10 2.25ZM4 14.25C3.44772 14.25 3 14.6977 3 15.25C3 15.8023 3.44772 16.25 4 16.25C4.55228 16.25 5 15.8023 5 15.25C5 14.6977 4.55228 14.25 4 14.25ZM10 14.25C9.44772 14.25 9 14.6977 9 15.25C9 15.8023 9.44772 16.25 10 16.25C10.5523 16.25 11 15.8023 11 15.25C11 14.6977 10.5523 14.25 10 14.25ZM16 14.25C15.4477 14.25 15 14.6977 15 15.25C15 15.8023 15.4477 16.25 16 16.25C16.5523 16.25 17 15.8023 17 15.25C17 14.6977 16.5523 14.25 16 14.25ZM10 3.75C8.48122 3.75 7.25 4.98122 7.25 6.5C7.25 8.01878 8.48122 9.25 10 9.25C11.5188 9.25 12.75 8.01878 12.75 6.5C12.75 4.98122 11.5188 3.75 10 3.75Z" fill="#1D1C1D"/>
</svg>
