<svg width="20" height="20" viewBox="0 0 20 20" fill="none" xmlns="http://www.w3.org/2000/svg">
<path d="M12.8395 1.13508L14.6794 1.2718C16.2734 1.38973 17.2476 2.89085 16.696 4.37922L14.2526 10.9691C13.8619 12.0228 12.815 12.7323 11.7038 12.7464C11.6809 12.8116 11.6522 12.8758 11.6101 12.9349L10.3601 14.6849C10.2193 14.882 9.99192 14.9993 9.7497 14.9993H7.2497C7.00873 14.9992 6.78221 14.8833 6.6413 14.6878C6.50056 14.4923 6.4616 14.2406 6.53779 14.012L7.28779 11.762C7.29536 11.7393 7.3037 11.7171 7.31318 11.6956C6.7159 11.0618 6.51615 10.1053 6.90791 9.19367L6.97334 9.05402L10.1735 2.65266C10.6661 1.66792 11.7437 1.05407 12.8395 1.13508ZM8.29072 13.4993H9.36396L10.03 12.5648L8.74775 12.4056C8.71787 12.4018 8.68825 12.3966 8.65888 12.3919L8.29072 13.4993ZM8.31513 9.72492C8.15754 10.0402 8.18971 10.3151 8.29169 10.5081C8.39346 10.7003 8.59716 10.8752 8.93427 10.9173L11.5319 11.2415C12.0818 11.3101 12.6569 10.9587 12.8464 10.4476L13.1569 9.60773L8.77314 8.80793L8.31513 9.72492ZM12.7292 2.63117C12.2415 2.59512 11.7366 2.8814 11.5153 3.32356L9.47138 7.41047L13.6872 8.17902L15.2897 3.85773C15.4015 3.55608 15.3488 3.30505 15.2341 3.12824C15.1187 2.95055 14.9041 2.79173 14.569 2.76691L12.7292 2.63117Z" fill="#1D1C1D"/>
</svg>
