<svg width="20" height="20" viewBox="0 0 20 20" fill="none" xmlns="http://www.w3.org/2000/svg">
<path d="M10 1C14.9704 1.00022 19 5.02957 19 10C19 14.9704 14.9704 18.9998 10 19C9.58598 18.9998 9.25 18.6641 9.25 18.25C9.25 17.8359 9.58598 17.5002 10 17.5C14.142 17.4998 17.5 14.142 17.5 10C17.5 5.858 14.142 2.50022 10 2.5C7.02361 2.50017 4.45162 4.23502 3.24023 6.75H6.75C7.16421 6.75 7.5 7.08579 7.5 7.5C7.5 7.91421 7.16421 8.25 6.75 8.25H1.75C1.33579 8.25 1 7.91421 1 7.5V2.5C1 2.08579 1.33579 1.75 1.75 1.75C2.16421 1.75 2.5 2.08579 2.5 2.5V5.02539C4.11199 2.60016 6.86834 1.00015 10 1ZM5.75 16.25C6.16421 16.25 6.5 16.5858 6.5 17C6.5 17.4142 6.16421 17.75 5.75 17.75C5.33579 17.75 5 17.4142 5 17C5 16.5858 5.33579 16.25 5.75 16.25ZM3 13.75C3.41421 13.75 3.75 14.0858 3.75 14.5C3.75 14.9142 3.41421 15.25 3 15.25C2.58579 15.25 2.25 14.9142 2.25 14.5C2.25 14.0858 2.58579 13.75 3 13.75ZM12.6377 4.96777C12.8767 4.62948 13.3443 4.54907 13.6826 4.78809C14.0208 5.02714 14.1013 5.49477 13.8623 5.83301L10.9766 9.91602L13.5303 12.4697C13.8229 12.7626 13.8229 13.2374 13.5303 13.5303C13.2374 13.8229 12.7626 13.8229 12.4697 13.5303L9.46973 10.5303C9.21177 10.2721 9.17724 9.86552 9.3877 9.56738L12.6377 4.96777ZM1.875 10.5C2.28921 10.5 2.625 10.8358 2.625 11.25C2.625 11.6642 2.28921 12 1.875 12C1.46079 12 1.125 11.6642 1.125 11.25C1.125 10.8358 1.46079 10.5 1.875 10.5Z" fill="#1D1C1D"/>
</svg>
