<svg width="20" height="20" viewBox="0 0 20 20" fill="none" xmlns="http://www.w3.org/2000/svg">
<path d="M9.02124 1.77573C9.61262 1.37679 10.3869 1.37689 10.9783 1.77573L18.1697 6.62827C18.5127 6.85998 18.6032 7.32606 18.3718 7.66929C18.1401 8.01257 17.6732 8.10312 17.3298 7.87143L16.9998 7.6478V14.6595C16.9998 16.7306 15.3208 18.5003 13.2498 18.5003H6.74976C4.67881 18.5002 2.99976 16.7305 2.99976 14.6595V7.6478L2.66968 7.87143C2.32635 8.10301 1.85936 8.01258 1.62769 7.66929C1.39645 7.32613 1.487 6.85998 1.82984 6.62827L9.02124 1.77573ZM11.9998 10.0003C11.4476 10.0005 10.9998 10.4481 10.9998 11.0003V12.0003C11 12.5523 11.4477 13.0002 11.9998 13.0003H12.9998C13.5519 13.0003 13.9995 12.5524 13.9998 12.0003V11.0003C13.9998 10.4481 13.552 10.0003 12.9998 10.0003H11.9998Z" fill="#1D1C1D"/>
</svg>
