<svg width="20" height="20" viewBox="0 0 20 20" fill="none" xmlns="http://www.w3.org/2000/svg">
<path d="M9.01866 1.75902C9.61129 1.35765 10.3889 1.35769 10.9816 1.75902L18.171 6.62914C18.5138 6.86145 18.6034 7.32823 18.3712 7.67113C18.1389 8.01399 17.6721 8.10361 17.3292 7.87132L17.0001 7.64769V14.7502C17.0001 16.8213 15.3212 18.5002 13.2501 18.5002H6.75011C4.67907 18.5002 3.00011 16.8213 3.00011 14.7502V7.64769L2.671 7.87132C2.3281 8.10361 1.86134 8.01399 1.62901 7.67113C1.39684 7.32824 1.4864 6.86144 1.82921 6.62914L9.01866 1.75902ZM10.1407 3.00121C10.0561 2.94393 9.94411 2.94389 9.85948 3.00121L4.50011 6.63207V14.7502C4.50011 15.9928 5.5075 17.0002 6.75011 17.0002H13.2501C14.4927 17.0002 15.5001 15.9929 15.5001 14.7502V6.63207L10.1407 3.00121ZM13.0001 10.0002C13.5523 10.0002 14 10.448 14.0001 11.0002V12.0002C14.0001 12.5525 13.5524 13.0002 13.0001 13.0002H12.0001C11.4479 13.0002 11.0001 12.5525 11.0001 12.0002V11.0002C11.0002 10.448 11.4479 10.0003 12.0001 10.0002H13.0001Z" fill="#1D1C1D"/>
</svg>
