<svg width="20" height="20" viewBox="0 0 20 20" fill="none" xmlns="http://www.w3.org/2000/svg">
<path d="M13.1014 1.5C15.1023 1.5 16.6833 3.19756 16.5408 5.19336C16.5008 5.7537 16.2764 6.28521 15.9031 6.70508L12.9363 10.0439C12.8485 10.1429 12.8526 10.2932 12.9461 10.3867L15.8133 13.2529C16.2417 13.6814 16.5006 14.2502 16.5438 14.8545C16.6845 16.8243 15.125 18.4999 13.1502 18.5H6.87482C4.88569 18.5 3.31416 16.8122 3.45588 14.8281C3.49735 14.2478 3.73768 13.6998 4.13556 13.2754L6.84748 10.3818C6.93366 10.2898 6.938 10.1477 6.85724 10.0508L4.04767 6.67969C3.70364 6.26684 3.49807 5.75577 3.45978 5.21973C3.31638 3.20967 4.90845 1.50002 6.92365 1.5H13.1014ZM6.92365 3C5.77886 3.00002 4.87432 3.97139 4.95588 5.11328C4.97179 5.33577 5.05725 5.54737 5.20002 5.71875L8.00959 9.09082C8.57505 9.76956 8.54546 10.7637 7.94123 11.4082L5.22931 14.3008C5.06686 14.4741 4.96889 14.6986 4.95197 14.9355C4.87254 16.0511 5.75635 17 6.87482 17H13.1502C14.2543 16.9999 15.1261 16.0632 15.0477 14.9619C15.0302 14.7175 14.926 14.4868 14.7528 14.3135L11.8856 11.4473C11.2304 10.7921 11.1997 9.73941 11.8153 9.04688L14.782 5.70898C14.9356 5.53627 15.0282 5.3174 15.0447 5.08691C15.1253 3.95931 14.2319 3 13.1014 3H6.92365Z" fill="#1D1C1D"/>
</svg>
