<svg width="20" height="20" viewBox="0 0 20 20" fill="none" xmlns="http://www.w3.org/2000/svg">
<path d="M13.1023 1.5C15.1032 1.50004 16.6842 3.19759 16.5418 5.19336C16.5017 5.75367 16.2772 6.28522 15.9041 6.70508L12.9363 10.0439C12.849 10.1428 12.8538 10.2933 12.947 10.3867L15.8132 13.2529C16.2417 13.6814 16.5015 14.2501 16.5447 14.8545C16.6854 16.8243 15.125 18.5 13.1501 18.5H6.87573C4.88675 18.4998 3.31509 16.8121 3.45679 14.8281C3.49825 14.2481 3.73787 13.6997 4.1355 13.2754L6.84839 10.3818C6.93444 10.2897 6.93789 10.1476 6.85718 10.0508L4.04761 6.67969C3.70368 6.26687 3.498 5.75568 3.45972 5.21973C3.31637 3.20988 4.90866 1.50032 6.92359 1.5H13.1023ZM6.92359 3C5.77906 3.00032 4.87428 3.97158 4.95581 5.11328C4.9717 5.33558 5.05741 5.54745 5.19995 5.71875L8.00952 9.09082C8.57515 9.76957 8.54642 10.7636 7.94214 11.4082L5.23023 14.3008C5.06785 14.4741 4.9698 14.6987 4.95288 14.9355C4.87346 16.051 5.7574 16.9998 6.87573 17H13.1501C14.2544 17 15.127 16.0633 15.0486 14.9619C15.0311 14.7175 14.926 14.4868 14.7527 14.3135L11.8865 11.4473C11.2316 10.7922 11.2 9.73936 11.8152 9.04688L14.783 5.70898C14.9365 5.53627 15.0292 5.3174 15.0457 5.08691C15.1262 3.95934 14.2327 3.00004 13.1023 3H6.92359ZM9.99976 12.5C11.1898 12.5 13.4998 14.7287 13.4998 15.6504C13.4991 16 12.6121 16 9.99976 16C7.38766 16 6.50042 16 6.49976 15.6504C6.49976 14.7171 8.84464 12.5004 9.99976 12.5ZM9.99976 6C11.8748 6 12.4998 6 12.4998 6.625C12.4998 7.075 10.6248 9.125 9.99976 9.125C9.37442 9.12423 7.49976 7.02493 7.49976 6.625C7.49976 6.00004 8.12503 6 9.99976 6Z" fill="#1D1C1D"/>
</svg>
