<svg width="20" height="20" viewBox="0 0 20 20" fill="none" xmlns="http://www.w3.org/2000/svg">
<path d="M13.1023 1.5C15.1032 1.5 16.6842 3.19756 16.5418 5.19336C16.5017 5.7537 16.2773 6.28521 15.9041 6.70508L12.9373 10.0439C12.8496 10.1428 12.8536 10.2932 12.947 10.3867L15.8142 13.2529C16.2426 13.6814 16.5025 14.2501 16.5457 14.8545C16.6864 16.8243 15.1259 18.4999 13.1511 18.5H6.87574C4.88668 18.4999 3.31508 16.8122 3.45679 14.8281C3.49826 14.2479 3.73863 13.6998 4.13648 13.2754L6.84839 10.3818C6.93459 10.2898 6.93892 10.1477 6.85816 10.0508L4.04859 6.67969C3.70459 6.26685 3.49898 5.75573 3.4607 5.21973C3.31731 3.20973 4.90944 1.50011 6.92456 1.5H13.1023ZM9.99976 12.5C8.67977 12.5006 6.00041 15.0328 5.99976 16.0996C5.99976 16.4996 7.01343 16.5 9.99976 16.5C12.9864 16.5 13.9998 16.4996 13.9998 16.0996C13.9991 15.046 11.3596 12.5 9.99976 12.5ZM9.99976 6C7.7501 6 6.99976 6.00005 6.99976 6.75C6.99976 7.22991 9.24932 9.74902 9.99976 9.75C10.7498 9.75 12.9998 7.29 12.9998 6.75C12.9998 6 12.2498 6 9.99976 6Z" fill="#1D1C1D"/>
</svg>
