<svg width="20" height="20" viewBox="0 0 20 20" fill="none" xmlns="http://www.w3.org/2000/svg">
<path d="M16 2C17.6569 2 19 3.34315 19 5V15C19 16.6569 17.6569 18 16 18H4C2.34315 18 1 16.6569 1 15V5C1 3.34315 2.34315 2 4 2H16ZM4 3.5C3.17157 3.5 2.5 4.17157 2.5 5V12.2861L4.16406 10.751C4.62995 10.3209 5.34478 10.3071 5.82617 10.7197L7.93359 12.5264C8.23115 12.7814 8.67503 12.7644 8.95215 12.4873L12.6074 8.83203C13.1045 8.33545 13.9135 8.34601 14.3975 8.85547L17.5 12.1211V5C17.5 4.17157 16.8284 3.5 16 3.5H4ZM8 5C9.10457 5 10 5.89543 10 7C10 8.10457 9.10457 9 8 9C6.89543 9 6 8.10457 6 7C6 5.89543 6.89543 5 8 5Z" fill="#1D1C1D"/>
</svg>
