<svg width="20" height="20" viewBox="0 0 20 20" fill="none" xmlns="http://www.w3.org/2000/svg">
<path d="M16.1543 2.00391C17.7394 2.08421 19 3.39489 19 5V15C19 16.6051 17.7394 17.9158 16.1543 17.9961L16 18H4C2.34315 18 1 16.6569 1 15V5C1 3.34315 2.34315 2 4 2H16L16.1543 2.00391ZM9.35742 14.2031C8.89557 14.6647 8.15599 14.6935 7.66016 14.2686L5.01758 12.0029L2.99316 13.873C2.67876 14.1634 2.5 14.572 2.5 15C2.5 15.8284 3.17157 16.5 4 16.5H16C16.8284 16.5 17.5 15.8284 17.5 15C17.5 14.5504 17.3272 14.118 17.0176 13.792L13.4854 10.0742L9.35742 14.2031ZM4 3.5C3.17157 3.5 2.5 4.17157 2.5 5V12.2871L4.16406 10.751L4.25488 10.6748C4.68809 10.3442 5.28842 10.3328 5.7334 10.6475L5.82617 10.7197L8.46094 12.9775L12.6074 8.83203L12.7041 8.74512C13.1709 8.36593 13.8459 8.3744 14.3027 8.76562L14.3975 8.85547L17.5 12.1211V5C17.5 4.17157 16.8284 3.5 16 3.5H4ZM8 4.5C9.38071 4.5 10.5 5.61929 10.5 7C10.5 8.38071 9.38071 9.5 8 9.5C6.61929 9.5 5.5 8.38071 5.5 7C5.5 5.61929 6.61929 4.5 8 4.5ZM8 6C7.44772 6 7 6.44772 7 7C7 7.55228 7.44772 8 8 8C8.55228 8 9 7.55228 9 7C9 6.44772 8.55228 6 8 6Z" fill="#1D1C1D"/>
</svg>
