<svg width="20" height="20" viewBox="0 0 20 20" fill="none" xmlns="http://www.w3.org/2000/svg">
<path d="M16.1541 6.75398C17.7392 6.83429 18.9998 8.14497 18.9998 9.75007V15.7501C18.9996 17.355 17.7391 18.6659 16.1541 18.7462L15.9998 18.7501H7.99978C6.34324 18.7499 4.99998 17.4066 4.99978 15.7501V9.75007C4.99978 8.09336 6.34311 6.75029 7.99978 6.75007H15.9998L16.1541 6.75398ZM11.659 15.1593C11.2195 15.5316 10.582 15.5553 10.116 15.2169L8.26247 13.8712L6.49978 15.2501V15.7501C6.49998 16.5782 7.17166 17.2499 7.99978 17.2501H15.9998C16.8281 17.2501 17.4996 16.5783 17.4998 15.7501V15.2266L14.614 12.6534L11.659 15.1593ZM7.99978 8.25007C7.17154 8.25029 6.49978 8.92178 6.49978 9.75007V13.3468L7.48806 12.5733L7.57204 12.5128C8.00327 12.2294 8.56972 12.2395 8.99294 12.5469L10.8377 13.8868L13.8103 11.3682L13.9021 11.2979C14.3726 10.9682 15.0149 11.0005 15.4509 11.3897L17.4998 13.2178V9.75007C17.4998 8.92165 16.8282 8.25007 15.9998 8.25007H7.99978ZM10.6472 1.45418C12.3829 0.989379 14.1664 2.02155 14.6287 3.75789L14.9422 4.93562C15.0487 5.3359 14.8102 5.74707 14.4099 5.85359C14.0099 5.95986 13.5996 5.72224 13.4929 5.32234L13.1795 4.14363C12.9306 3.20866 11.9695 2.65318 11.0349 2.90339L3.7947 4.84285C2.86119 5.09298 2.30737 6.0529 2.55739 6.9864L4.05837 12.5899C4.16545 12.99 3.92813 13.4007 3.5281 13.5079C3.12806 13.615 2.71737 13.3776 2.61013 12.9776L1.10817 7.37507C0.643656 5.64147 1.67255 3.85937 3.40603 3.39461L10.6472 1.45418ZM10.2498 9.25007C10.9401 9.25007 11.4998 9.80972 11.4998 10.5001C11.4996 11.1903 10.94 11.7501 10.2498 11.7501C9.55973 11.7499 8.99998 11.1901 8.99978 10.5001C8.99978 9.80985 9.55961 9.25029 10.2498 9.25007Z" fill="#1D1C1D"/>
</svg>
