<svg width="20" height="20" viewBox="0 0 20 20" fill="none" xmlns="http://www.w3.org/2000/svg">
<path d="M17.6902 15.4008L18.8943 16.5141C18.5562 17.8004 17.3892 18.7502 15.9968 18.7504H7.99684C6.55269 18.7504 5.3471 17.7297 5.06129 16.3706L6.26539 15.4331L6.26637 15.4321L8.25953 13.8715L10.1121 15.2172C10.5782 15.5557 11.2166 15.5322 11.656 15.1596L14.6111 12.6538L17.6902 15.4008ZM15.9968 6.75043C17.6535 6.75069 18.9968 8.09374 18.9968 9.75043V14.5659L18.698 14.2905L18.6882 14.2817L15.448 11.3901L15.3582 11.3168C14.9272 10.998 14.3383 10.9908 13.8992 11.2983L13.8074 11.3686L10.8347 13.8872L8.99 12.5473L8.90309 12.4897C8.49166 12.24 7.97142 12.2491 7.5691 12.5131L7.48512 12.5737L5.34352 14.2495L4.99684 14.519V9.75043C4.99684 8.09358 6.33998 6.75043 7.99684 6.75043H15.9968ZM10.8718 1.40375C12.4722 0.974957 14.1168 1.92446 14.5457 3.52485L15.0076 5.25043H8.49586C5.73467 5.25069 3.49587 7.48918 3.49586 10.2504V14.4223C3.06424 14.0444 2.73556 13.5395 2.57594 12.9438L1.0232 7.14789C0.594555 5.54758 1.544 3.90288 3.1443 3.47407L10.8718 1.40375ZM10.2468 9.25043C9.55648 9.25043 8.99684 9.81008 8.99684 10.5004C8.99693 11.1907 9.55654 11.7504 10.2468 11.7504C10.9369 11.7502 11.4967 11.1906 11.4968 10.5004C11.4968 9.81024 10.937 9.25069 10.2468 9.25043Z" fill="#1D1C1D"/>
</svg>
