<svg width="12" height="12" viewBox="0 0 12 12" fill="none" xmlns="http://www.w3.org/2000/svg">
<path d="M9.59998 1.2002C10.594 1.2002 11.3997 2.00598 11.3998 3V9C11.3998 9.99411 10.5941 10.7998 9.59998 10.7998H2.39978C1.40576 10.7997 0.599976 9.99405 0.599976 9V3C0.600081 2.00604 1.40582 1.2003 2.39978 1.2002H9.59998ZM2.39978 2.2002C1.95811 2.2003 1.60008 2.55833 1.59998 3V7.2793L2.49841 6.4502C2.77792 6.19219 3.20665 6.18414 3.49548 6.43164L4.76013 7.51562C4.93866 7.66865 5.20519 7.65846 5.37146 7.49219L7.56384 5.29883C7.86207 5.00068 8.34761 5.00774 8.63806 5.31348L10.3998 7.16699V3C10.3997 2.55826 10.0417 2.2002 9.59998 2.2002H2.39978ZM4.80017 3C5.46282 3.00011 6.00037 3.53752 6.00037 4.2002C6.00026 4.86278 5.46276 5.40029 4.80017 5.40039C4.13749 5.40039 3.60008 4.86285 3.59998 4.2002C3.59998 3.53745 4.13743 3 4.80017 3Z" fill="#1D1C1D"/>
</svg>
