<svg width="12" height="12" viewBox="0 0 12 12" fill="none" xmlns="http://www.w3.org/2000/svg">
<path d="M9.78357 1.20996C10.6914 1.30195 11.3997 2.06797 11.3998 3V8.55957C11.4322 8.70301 11.4505 8.85076 11.4506 9H11.3998C11.3998 9.99411 10.5941 10.7998 9.59998 10.7998H2.39978C1.40576 10.7997 0.599976 9.99405 0.599976 9V3C0.600081 2.00604 1.40582 1.2003 2.39978 1.2002H9.59998L9.78357 1.20996ZM5.64978 8.55762C5.35433 8.85266 4.88109 8.87106 4.56384 8.59961L3.01208 7.26855L1.59998 8.57227V9C1.59998 9.44176 1.95804 9.7997 2.39978 9.7998H9.59998C10.0418 9.7998 10.3998 9.44183 10.3998 9V8.68848C10.3538 8.54822 10.2775 8.41844 10.1742 8.30957L8.09021 6.11621L5.64978 8.55762ZM2.39978 2.2002C1.95811 2.2003 1.60008 2.55833 1.59998 3V7.21191L2.46521 6.41406L2.58337 6.32324C2.83334 6.16675 3.15112 6.16128 3.40662 6.30859L3.52771 6.39453L5.07361 7.71875L7.52869 5.26465C7.84673 4.9466 8.36434 4.95331 8.67419 5.2793L10.3998 7.09473V3C10.3997 2.55826 10.0417 2.2002 9.59998 2.2002H2.39978ZM4.80017 2.7002C5.62851 2.70029 6.30017 3.37183 6.30017 4.2002C6.30017 5.02856 5.62851 5.7001 4.80017 5.7002C3.97174 5.7002 3.30017 5.02862 3.30017 4.2002C3.30017 3.37177 3.97174 2.7002 4.80017 2.7002ZM4.80017 3.7002C4.52403 3.7002 4.30017 3.92405 4.30017 4.2002C4.30017 4.47634 4.52403 4.7002 4.80017 4.7002C5.07623 4.7001 5.30017 4.47628 5.30017 4.2002C5.30017 3.92411 5.07623 3.70029 4.80017 3.7002Z" fill="#1D1C1D"/>
</svg>
