<svg width="12" height="12" viewBox="0 0 12 12" fill="none" xmlns="http://www.w3.org/2000/svg">
<path d="M5.99988 1C8.7613 1 10.9999 3.23858 10.9999 6C10.9999 7.11012 10.6374 8.13519 10.0253 8.96484L10.0302 8.96973L9.9989 9C9.71465 9.37831 9.37819 9.71477 8.99988 9.99902L8.9696 10.0303L8.96472 10.0254C8.13507 10.6375 7.11 11 5.99988 11C3.23845 11 0.999878 8.76142 0.999878 6C0.999878 4.88981 1.36135 3.86386 1.97351 3.03418L1.9696 3.03027L1.99988 2.99902C2.28407 2.62083 2.62071 2.28419 2.9989 2L3.03015 1.96973L3.03406 1.97363C3.86374 1.36147 4.88969 1 5.99988 1ZM3.05261 4.11328C2.70329 4.65784 2.49988 5.30499 2.49988 6C2.49988 7.933 4.06688 9.5 5.99988 9.5C6.69478 9.5 7.34112 9.29552 7.88562 8.94629L3.05261 4.11328ZM5.99988 2.5C5.30487 2.5 4.65771 2.70341 4.11316 3.05273L8.94617 7.88574C9.29539 7.34124 9.49988 6.6949 9.49988 6C9.49988 4.067 7.93287 2.5 5.99988 2.5Z" fill="#1D1C1D"/>
</svg>
