<svg width="12" height="12" viewBox="0 0 12 12" fill="none" xmlns="http://www.w3.org/2000/svg">
<path d="M6.02527 1C8.78669 1 11.0253 3.23858 11.0253 6C11.0253 8.76142 8.78669 11 6.02527 11C3.26385 11 1.02527 8.76142 1.02527 6C1.02527 3.23858 3.26384 1 6.02527 1ZM2.86609 3.54785C2.33959 4.22518 2.02527 5.07567 2.02527 6C2.02527 8.20914 3.81613 10 6.02527 10C6.94954 10 7.79913 9.68464 8.47644 9.1582L2.86609 3.54785ZM6.02527 2C5.10094 2 4.25045 2.31432 3.57312 2.84082L9.18347 8.45117C9.70991 7.77386 10.0253 6.92427 10.0253 6C10.0253 3.79086 8.23441 2 6.02527 2Z" fill="#1D1C1D"/>
</svg>
