<svg width="20" height="20" viewBox="0 0 20 20" fill="none" xmlns="http://www.w3.org/2000/svg">
<path d="M13.3861 2.50098C13.951 2.50098 14.4814 2.77388 14.8099 3.2334L18.3597 8.19824C18.4507 8.32549 18.4994 8.47833 18.4994 8.63477V15.75C18.4992 16.7164 17.7158 17.5 16.7494 17.5H3.25037C2.28397 17.5 1.50053 16.7164 1.50037 15.75V8.63477C1.50037 8.4767 1.55019 8.32233 1.64294 8.19434L5.24841 3.22363C5.57761 2.76978 6.10474 2.50098 6.66541 2.50098H13.3861ZM3.00037 15.75C3.00053 15.8879 3.1124 16 3.25037 16H16.7494C16.8874 16 16.9992 15.8879 16.9994 15.75V9.94531H13.3324C13.2253 11.152 12.2124 12.0984 10.9779 12.0986H9.05115C7.81656 12.0986 6.80378 11.1521 6.69666 9.94531H3.00037V15.75ZM6.66541 4.00098C6.58531 4.00098 6.51028 4.03966 6.46326 4.10449L3.31384 8.44531H6.89783C7.60914 8.44531 8.18663 9.02214 8.18689 9.7334C8.18689 10.211 8.5736 10.5986 9.05115 10.5986H10.9779C11.4553 10.5984 11.8422 10.2109 11.8422 9.7334C11.8424 9.02223 12.4191 8.44546 13.1302 8.44531H16.6927L13.5892 4.10547C13.5423 4.03999 13.4667 4.00098 13.3861 4.00098H6.66541Z" fill="#1D1C1D"/>
</svg>
