<svg width="20" height="20" viewBox="0 0 20 20" fill="none" xmlns="http://www.w3.org/2000/svg">
<path fill-rule="evenodd" clip-rule="evenodd" d="M16.693 8.44564L13.5892 4.10547C13.5423 4.03999 13.4667 4.00098 13.3861 4.00098H6.66541C6.58531 4.00098 6.51028 4.03966 6.46326 4.10449L3.31397 8.44564H6.89783C7.60925 8.44564 8.1868 9.02232 8.18689 9.73372C8.18689 10.2113 8.5736 10.5989 9.05115 10.599H10.9779C11.4553 10.5988 11.8422 10.2112 11.8422 9.73372C11.8422 9.02241 12.4189 8.44578 13.1302 8.44564H16.693ZM1.50037 9.19564V15.75C1.50053 16.7164 2.28397 17.5 3.25037 17.5H16.7494C17.7158 17.5 18.4992 16.7164 18.4994 15.75V9.19564V8.63477C18.4994 8.47833 18.4507 8.3255 18.3597 8.19824L14.8099 3.2334C14.4814 2.77388 13.951 2.50098 13.3861 2.50098H6.66541C6.10474 2.50098 5.57761 2.76978 5.24841 3.22363L1.64294 8.19434C1.55019 8.32233 1.50037 8.4767 1.50037 8.63477V9.19564Z" fill="#1D1C1D"/>
</svg>
