<svg width="20" height="20" viewBox="0 0 20 20" fill="none" xmlns="http://www.w3.org/2000/svg">
<path d="M17.75 16.25C18.1642 16.25 18.5 16.5858 18.5 17C18.5 17.4142 18.1642 17.75 17.75 17.75H2.25C1.83579 17.75 1.5 17.4142 1.5 17C1.5 16.5858 1.83579 16.25 2.25 16.25H17.75ZM1.93164 6.82129C2.19518 6.69785 2.50691 6.73753 2.73047 6.92383L5.73047 9.42383C5.90134 9.56632 6 9.7775 6 10C6 10.2225 5.90135 10.4337 5.73047 10.5762L2.73047 13.0762C2.50691 13.2625 2.19518 13.3021 1.93164 13.1787C1.66832 13.0552 1.5 12.7909 1.5 12.5V7.5C1.5 7.20913 1.66832 6.9448 1.93164 6.82129ZM17.75 9.25C18.1642 9.25 18.5 9.58579 18.5 10C18.5 10.4142 18.1642 10.75 17.75 10.75H10.25C9.83579 10.75 9.5 10.4142 9.5 10C9.5 9.58579 9.83579 9.25 10.25 9.25H17.75ZM17.75 2.25C18.1642 2.25 18.5 2.58579 18.5 3C18.5 3.41421 18.1642 3.75 17.75 3.75H2.25C1.83579 3.75 1.5 3.41421 1.5 3C1.5 2.58579 1.83579 2.25 2.25 2.25H17.75Z" fill="#1D1C1D"/>
</svg>
