<svg width="20" height="20" viewBox="0 0 20 20" fill="none" xmlns="http://www.w3.org/2000/svg">
<path d="M17.75 16.25C18.1642 16.25 18.5 16.5858 18.5 17C18.5 17.4142 18.1642 17.75 17.75 17.75H2.25C1.83579 17.75 1.5 17.4142 1.5 17C1.5 16.5858 1.83579 16.25 2.25 16.25H17.75ZM4.76953 6.92383C4.99309 6.73753 5.30482 6.69785 5.56836 6.82129C5.83168 6.9448 6 7.20913 6 7.5V12.5C6 12.7909 5.83168 13.0552 5.56836 13.1787C5.30482 13.3021 4.99309 13.2625 4.76953 13.0762L1.76953 10.5762C1.59866 10.4337 1.5 10.2225 1.5 10C1.5 9.7775 1.59865 9.56632 1.76953 9.42383L4.76953 6.92383ZM17.75 9.25C18.1642 9.25 18.5 9.58579 18.5 10C18.5 10.4142 18.1642 10.75 17.75 10.75H10.25C9.83579 10.75 9.5 10.4142 9.5 10C9.5 9.58579 9.83579 9.25 10.25 9.25H17.75ZM17.75 2.25C18.1642 2.25 18.5 2.58579 18.5 3C18.5 3.41421 18.1642 3.75 17.75 3.75H2.25C1.83579 3.75 1.5 3.41421 1.5 3C1.5 2.58579 1.83579 2.25 2.25 2.25H17.75Z" fill="#1D1C1D"/>
</svg>
