<svg width="20" height="20" viewBox="0 0 20 20" fill="none" xmlns="http://www.w3.org/2000/svg">
<path d="M14.25 1.5C16.0449 1.5 17.5 2.95507 17.5 4.75V17.8047C17.5 18.6243 16.5316 19.0592 15.9189 18.5146L14.5 17.2539L12.8809 18.6924C12.521 19.0122 11.979 19.0122 11.6191 18.6924L10 17.2539L8.38086 18.6924C8.02096 19.0122 7.47904 19.0122 7.11914 18.6924L5.5 17.2539L4.08105 18.5146C3.46841 19.0592 2.50005 18.6243 2.5 17.8047V4.75C2.5 2.95507 3.95507 1.5 5.75 1.5H14.25ZM5.36719 16.3682L5.375 16.377V16.3623C5.37248 16.3643 5.36963 16.366 5.36719 16.3682ZM5.75 11C5.33579 11 5 11.3358 5 11.75C5 12.1642 5.33579 12.5 5.75 12.5H10.25C10.6642 12.5 11 12.1642 11 11.75C11 11.3358 10.6642 11 10.25 11H5.75ZM5.75 8C5.33579 8 5 8.33579 5 8.75C5 9.16421 5.33579 9.5 5.75 9.5H14.25C14.6642 9.5 15 9.16421 15 8.75C15 8.33579 14.6642 8 14.25 8H5.75ZM5.75 5C5.33579 5 5 5.33579 5 5.75C5 6.16421 5.33579 6.5 5.75 6.5H14.25C14.6642 6.5 15 6.16421 15 5.75C15 5.33579 14.6642 5 14.25 5H5.75Z" fill="#1D1C1D"/>
</svg>
