<svg width="20" height="20" viewBox="0 0 20 20" fill="none" xmlns="http://www.w3.org/2000/svg">
<path d="M14.25 1.5C16.0449 1.5 17.5 2.95507 17.5 4.75V17.8047C17.5 18.6243 16.5316 19.0592 15.9189 18.5146L14.499 17.2529L12.8809 18.6924C12.521 19.0122 11.979 19.0122 11.6191 18.6924L10 17.2529L8.38086 18.6924C8.02096 19.0122 7.47904 19.0122 7.11914 18.6924L5.5 17.2529L4.08105 18.5146C3.46841 19.0592 2.50004 18.6243 2.5 17.8047V4.75C2.5 2.95507 3.95507 1.5 5.75 1.5H14.25ZM5.75 3C4.7835 3 4 3.7835 4 4.75V16.5801L4.86914 15.8076L4.93848 15.751C5.27205 15.5062 5.72796 15.5062 6.06152 15.751L6.13086 15.8076L7.75 17.2461L9.36914 15.8076L9.43848 15.751C9.77204 15.5062 10.228 15.5062 10.5615 15.751L10.6309 15.8076L12.25 17.2461L13.8691 15.8076L13.9385 15.751C14.272 15.5062 14.728 15.5062 15.0615 15.751L15.1309 15.8076L16 16.5801V4.75C16 3.7835 15.2165 3 14.25 3H5.75ZM10.5 11C10.9142 11 11.25 11.3358 11.25 11.75C11.25 12.1642 10.9142 12.5 10.5 12.5H6.5C6.08579 12.5 5.75 12.1642 5.75 11.75C5.75 11.3358 6.08579 11 6.5 11H10.5ZM13.5 8C13.9142 8 14.25 8.33579 14.25 8.75C14.25 9.16421 13.9142 9.5 13.5 9.5H6.5C6.08579 9.5 5.75 9.16421 5.75 8.75C5.75 8.33579 6.08579 8 6.5 8H13.5ZM13.5 5C13.9142 5 14.25 5.33579 14.25 5.75C14.25 6.16421 13.9142 6.5 13.5 6.5H6.5C6.08579 6.5 5.75 6.16421 5.75 5.75C5.75 5.33579 6.08579 5 6.5 5H13.5Z" fill="#1D1C1D"/>
</svg>
