<svg width="20" height="20" viewBox="0 0 20 20" fill="none" xmlns="http://www.w3.org/2000/svg">
<path d="M16 11.5C17.3807 11.5 18.5 12.6193 18.5 14V16C18.5 17.3807 17.3807 18.5 16 18.5H13.25C11.8693 18.5 10.75 17.3807 10.75 16V14C10.75 12.6193 11.8693 11.5 13.25 11.5H16ZM13.25 13C12.6977 13 12.25 13.4477 12.25 14V16C12.25 16.5177 12.6433 16.9438 13.1475 16.9951L13.25 17H16L16.1025 16.9951C16.573 16.9472 16.9472 16.573 16.9951 16.1025L17 16V14C17 13.4477 16.5523 13 16 13H13.25ZM6.75 1.5C8.13071 1.5 9.25 2.61929 9.25 4L9.25 13C9.25 14.3807 8.13071 15.5 6.75 15.5H4C2.61929 15.5 1.5 14.3807 1.5 13L1.5 4C1.5 2.61929 2.61929 1.5 4 1.5L6.75 1.5ZM3.89746 3.00488C3.42703 3.05278 3.05278 3.42703 3.00488 3.89746L3 4L3 13C3 13.5523 3.44772 14 4 14H6.75C7.30228 14 7.75 13.5523 7.75 13L7.75 4C7.75 3.48232 7.35667 3.05621 6.85254 3.00488L6.75 3L4 3L3.89746 3.00488ZM16 1.5C17.3807 1.5 18.5 2.61929 18.5 4V7.5C18.5 8.88071 17.3807 10 16 10H13.25C11.8693 10 10.75 8.88071 10.75 7.5L10.75 4C10.75 2.61929 11.8693 1.5 13.25 1.5L16 1.5ZM13.25 3C12.6977 3 12.25 3.44772 12.25 4L12.25 7.5L12.2549 7.60254C12.3028 8.07297 12.677 8.44722 13.1475 8.49512L13.25 8.5L16 8.5L16.1025 8.49512C16.573 8.44722 16.9472 8.07297 16.9951 7.60254L17 7.5V4C17 3.44772 16.5523 3 16 3L13.25 3Z" fill="#1D1C1D"/>
</svg>
