<svg width="20" height="20" viewBox="0 0 20 20" fill="none" xmlns="http://www.w3.org/2000/svg">
<path d="M15.2059 1.99298C15.9012 1.29764 17.0745 1.34332 17.827 2.09552C18.5792 2.848 18.6258 4.02219 17.9305 4.71759L16.8963 5.75177L18.1688 7.02423C18.6101 7.4658 18.6102 8.18234 18.1688 8.62384L17.8787 8.9129C17.4372 9.3544 16.7217 9.35428 16.2801 8.9129L15.0076 7.64044L11.7566 10.8914C12.6623 12.8729 12.2988 15.2927 10.6678 16.9236C8.57047 19.0206 5.17038 19.0206 3.07305 16.9236C0.97565 14.8262 0.97565 11.4253 3.07305 9.32794C4.67629 7.72486 7.04078 7.34738 9.00274 8.19513L9.26934 7.92853L15.2059 1.99298ZM8.33379 11.8035C7.56111 11.031 6.30864 11.031 5.53594 11.8035C4.76325 12.5762 4.76333 13.8286 5.53594 14.6014C6.30868 15.3739 7.56113 15.374 8.33379 14.6014C9.1063 13.8287 9.10628 12.5762 8.33379 11.8035Z" fill="#1D1C1D"/>
</svg>
