<svg width="20" height="20" viewBox="0 0 20 20" fill="none" xmlns="http://www.w3.org/2000/svg">
<path d="M14.181 2.16805C15.1448 1.20432 16.6893 1.3251 17.6263 2.2618C18.5633 3.19879 18.6839 4.7433 17.7201 5.70711L17.3099 6.11727L17.9369 6.74325C18.6312 7.43754 18.631 8.56347 17.9369 9.25789L17.6732 9.52157C16.9788 10.2159 15.8529 10.2159 15.1586 9.52157L14.5326 8.89559L12.4554 10.9727C13.1398 12.9469 12.6946 15.2266 11.1166 16.8048C8.9166 19.0046 5.34978 19.0055 3.14978 16.8057C0.949883 14.6058 0.949935 11.038 3.14978 8.83797C4.70156 7.28634 6.9324 6.83124 8.88318 7.46688L14.181 2.16805ZM16.5658 3.32235C16.1345 2.89139 15.5435 2.92809 15.2426 3.2286L9.60291 8.86825C9.38549 9.08559 9.057 9.14836 8.77478 9.02645C7.26368 8.37364 5.44431 8.66595 4.21131 9.89852C2.59707 11.5128 2.59707 14.131 4.21131 15.7452C5.82555 17.3588 8.44198 17.3581 10.056 15.7442C11.3104 14.4897 11.5915 12.6277 10.8939 11.1016L10.8549 10.9932C10.7823 10.7353 10.8519 10.4546 11.0453 10.2608L14.0023 7.30477C14.2952 7.01189 14.77 7.01188 15.0629 7.30477L16.2191 8.46102C16.3277 8.5696 16.5041 8.56956 16.6127 8.46102L16.8763 8.19735C16.9845 8.08885 16.9845 7.91331 16.8763 7.80477L15.7191 6.64754C15.4265 6.35473 15.4266 5.87985 15.7191 5.587L16.6595 4.64657C16.9604 4.34569 16.9972 3.75379 16.5658 3.32235ZM5.38904 11.0889C6.38449 10.0937 7.99903 10.0937 8.99451 11.0889C9.98983 12.0844 9.98981 13.6989 8.99451 14.6944C7.99902 15.6896 6.38449 15.6897 5.38904 14.6944C4.39386 13.699 4.39386 12.0844 5.38904 11.0889ZM7.93396 12.1495C7.52421 11.74 6.85924 11.7408 6.44959 12.1505C6.04063 12.5601 6.04065 13.2233 6.44959 13.6329C6.85924 14.0425 7.52421 14.0433 7.93396 13.6339C8.34348 13.2242 8.3435 12.5592 7.93396 12.1495Z" fill="#1D1C1D"/>
</svg>
