<svg width="20" height="20" viewBox="0 0 20 20" fill="none" xmlns="http://www.w3.org/2000/svg">
<path d="M15.75 3.5C17.2688 3.5 18.5 4.73122 18.5 6.25V13.75C18.5 15.2688 17.2688 16.5 15.75 16.5H4.25C2.73122 16.5 1.5 15.2688 1.5 13.75V6.25C1.5 4.73122 2.73122 3.5 4.25 3.5H15.75ZM4.25 5C3.55964 5 3 5.55964 3 6.25V13.75C3 14.4404 3.55964 15 4.25 15H15.75C16.4404 15 17 14.4404 17 13.75V6.25C17 5.55964 16.4404 5 15.75 5H4.25ZM5.5 12C6.05228 12 6.5 12.4477 6.5 13C6.5 13.5523 6.05228 14 5.5 14C4.94772 14 4.5 13.5523 4.5 13C4.5 12.4477 4.94772 12 5.5 12ZM11.5 12C12.0523 12 12.5 12.4477 12.5 13C12.5 13.5523 12.0523 14 11.5 14H8.75C8.19772 14 7.75 13.5523 7.75 13C7.75 12.4477 8.19772 12 8.75 12H11.5ZM14.5 12C15.0523 12 15.5 12.4477 15.5 13C15.5 13.5523 15.0523 14 14.5 14C13.9477 14 13.5 13.5523 13.5 13C13.5 12.4477 13.9477 12 14.5 12ZM5.5 9C6.05228 9 6.5 9.44772 6.5 10C6.5 10.5523 6.05228 11 5.5 11C4.94772 11 4.5 10.5523 4.5 10C4.5 9.44772 4.94772 9 5.5 9ZM8.5 9C9.05228 9 9.5 9.44772 9.5 10C9.5 10.5523 9.05228 11 8.5 11C7.94772 11 7.5 10.5523 7.5 10C7.5 9.44772 7.94772 9 8.5 9ZM11.5 9C12.0523 9 12.5 9.44772 12.5 10C12.5 10.5523 12.0523 11 11.5 11C10.9477 11 10.5 10.5523 10.5 10C10.5 9.44772 10.9477 9 11.5 9ZM14.5 9C15.0523 9 15.5 9.44772 15.5 10C15.5 10.5523 15.0523 11 14.5 11C13.9477 11 13.5 10.5523 13.5 10C13.5 9.44772 13.9477 9 14.5 9ZM5.5 6C6.05228 6 6.5 6.44772 6.5 7C6.5 7.55228 6.05228 8 5.5 8C4.94772 8 4.5 7.55228 4.5 7C4.5 6.44772 4.94772 6 5.5 6ZM8.5 6C9.05228 6 9.5 6.44772 9.5 7C9.5 7.55228 9.05228 8 8.5 8C7.94772 8 7.5 7.55228 7.5 7C7.5 6.44772 7.94772 6 8.5 6ZM11.5 6C12.0523 6 12.5 6.44772 12.5 7C12.5 7.55228 12.0523 8 11.5 8C10.9477 8 10.5 7.55228 10.5 7C10.5 6.44772 10.9477 6 11.5 6ZM14.5 6C15.0523 6 15.5 6.44772 15.5 7C15.5 7.55228 15.0523 8 14.5 8C13.9477 8 13.5 7.55228 13.5 7C13.5 6.44772 13.9477 6 14.5 6Z" fill="#1D1C1D"/>
</svg>
