<svg width="20" height="20" viewBox="0 0 20 20" fill="none" xmlns="http://www.w3.org/2000/svg">
<path d="M12.665 16.0791C13.0354 15.8942 13.4857 16.0447 13.6709 16.415C13.8558 16.7854 13.7053 17.2357 13.335 17.4209L10.335 18.9209C10.124 19.0262 9.87597 19.0262 9.66504 18.9209L6.66504 17.4209C6.29469 17.2357 6.14416 16.7854 6.3291 16.415C6.51428 16.0447 6.96455 15.8942 7.33496 16.0791L10 17.4111L12.665 16.0791ZM15.75 1.5C17.2688 1.5 18.5 2.73122 18.5 4.25V11.75C18.5 13.2688 17.2688 14.5 15.75 14.5H4.25C2.73122 14.5 1.5 13.2688 1.5 11.75V4.25C1.5 2.73122 2.73122 1.5 4.25 1.5H15.75ZM4.25 3C3.55964 3 3 3.55964 3 4.25V11.75C3 12.4404 3.55964 13 4.25 13H15.75C16.4404 13 17 12.4404 17 11.75V4.25C17 3.55964 16.4404 3 15.75 3H4.25ZM5.5 10C6.05228 10 6.5 10.4477 6.5 11C6.5 11.5523 6.05228 12 5.5 12C4.94772 12 4.5 11.5523 4.5 11C4.5 10.4477 4.94772 10 5.5 10ZM11.5 10C12.0523 10 12.5 10.4477 12.5 11C12.5 11.5523 12.0523 12 11.5 12H8.75C8.19772 12 7.75 11.5523 7.75 11C7.75 10.4477 8.19772 10 8.75 10H11.5ZM14.5 10C15.0523 10 15.5 10.4477 15.5 11C15.5 11.5523 15.0523 12 14.5 12C13.9477 12 13.5 11.5523 13.5 11C13.5 10.4477 13.9477 10 14.5 10ZM5.5 7C6.05228 7 6.5 7.44772 6.5 8C6.5 8.55228 6.05228 9 5.5 9C4.94772 9 4.5 8.55228 4.5 8C4.5 7.44772 4.94772 7 5.5 7ZM8.5 7C9.05228 7 9.5 7.44772 9.5 8C9.5 8.55228 9.05228 9 8.5 9C7.94772 9 7.5 8.55228 7.5 8C7.5 7.44772 7.94772 7 8.5 7ZM11.5 7C12.0523 7 12.5 7.44772 12.5 8C12.5 8.55228 12.0523 9 11.5 9C10.9477 9 10.5 8.55228 10.5 8C10.5 7.44772 10.9477 7 11.5 7ZM14.5 7C15.0523 7 15.5 7.44772 15.5 8C15.5 8.55228 15.0523 9 14.5 9C13.9477 9 13.5 8.55228 13.5 8C13.5 7.44772 13.9477 7 14.5 7ZM5.5 4C6.05228 4 6.5 4.44772 6.5 5C6.5 5.55228 6.05228 6 5.5 6C4.94772 6 4.5 5.55228 4.5 5C4.5 4.44772 4.94772 4 5.5 4ZM8.5 4C9.05228 4 9.5 4.44772 9.5 5C9.5 5.55228 9.05228 6 8.5 6C7.94772 6 7.5 5.55228 7.5 5C7.5 4.44772 7.94772 4 8.5 4ZM11.5 4C12.0523 4 12.5 4.44772 12.5 5C12.5 5.55228 12.0523 6 11.5 6C10.9477 6 10.5 5.55228 10.5 5C10.5 4.44772 10.9477 4 11.5 4ZM14.5 4C15.0523 4 15.5 4.44772 15.5 5C15.5 5.55228 15.0523 6 14.5 6C13.9477 6 13.5 5.55228 13.5 5C13.5 4.44772 13.9477 4 14.5 4Z" fill="#1D1C1D"/>
</svg>
