<svg width="20" height="20" viewBox="0 0 20 20" fill="none" xmlns="http://www.w3.org/2000/svg">
<path d="M12.665 16.0791C13.0354 15.8942 13.4857 16.0447 13.6709 16.415C13.8558 16.7854 13.7053 17.2357 13.335 17.4209L10.335 18.9209C10.124 19.0262 9.87597 19.0262 9.66504 18.9209L6.66504 17.4209C6.29469 17.2357 6.14416 16.7854 6.3291 16.415C6.51428 16.0447 6.96455 15.8942 7.33496 16.0791L10 17.4111L12.665 16.0791ZM15.75 1.5C17.2688 1.5 18.5 2.73122 18.5 4.25V11.75C18.5 13.2688 17.2688 14.5 15.75 14.5H4.25C2.73122 14.5 1.5 13.2688 1.5 11.75V4.25C1.5 2.73122 2.73122 1.5 4.25 1.5H15.75ZM4.75 10.5C4.19772 10.5 3.75 10.9477 3.75 11.5C3.75 12.0523 4.19772 12.5 4.75 12.5C5.30228 12.5 5.75 12.0523 5.75 11.5C5.75 10.9477 5.30228 10.5 4.75 10.5ZM8.25 10.5C7.69772 10.5 7.25 10.9477 7.25 11.5C7.25 12.0523 7.69772 12.5 8.25 12.5H11.75C12.3023 12.5 12.75 12.0523 12.75 11.5C12.75 10.9477 12.3023 10.5 11.75 10.5H8.25ZM15.25 10.5C14.6977 10.5 14.25 10.9477 14.25 11.5C14.25 12.0523 14.6977 12.5 15.25 12.5C15.8023 12.5 16.25 12.0523 16.25 11.5C16.25 10.9477 15.8023 10.5 15.25 10.5ZM4.75 7C4.19772 7 3.75 7.44772 3.75 8C3.75 8.55228 4.19772 9 4.75 9C5.30228 9 5.75 8.55228 5.75 8C5.75 7.44772 5.30228 7 4.75 7ZM8.25 7C7.69772 7 7.25 7.44772 7.25 8C7.25 8.55228 7.69772 9 8.25 9C8.80228 9 9.25 8.55228 9.25 8C9.25 7.44772 8.80228 7 8.25 7ZM11.75 7C11.1977 7 10.75 7.44772 10.75 8C10.75 8.55228 11.1977 9 11.75 9C12.3023 9 12.75 8.55228 12.75 8C12.75 7.44772 12.3023 7 11.75 7ZM15.25 7C14.6977 7 14.25 7.44772 14.25 8C14.25 8.55228 14.6977 9 15.25 9C15.8023 9 16.25 8.55228 16.25 8C16.25 7.44772 15.8023 7 15.25 7ZM4.75 3.5C4.19772 3.5 3.75 3.94772 3.75 4.5C3.75 5.05228 4.19772 5.5 4.75 5.5C5.30228 5.5 5.75 5.05228 5.75 4.5C5.75 3.94772 5.30228 3.5 4.75 3.5ZM8.25 3.5C7.69772 3.5 7.25 3.94772 7.25 4.5C7.25 5.05228 7.69772 5.5 8.25 5.5C8.80228 5.5 9.25 5.05228 9.25 4.5C9.25 3.94772 8.80228 3.5 8.25 3.5ZM11.75 3.5C11.1977 3.5 10.75 3.94772 10.75 4.5C10.75 5.05228 11.1977 5.5 11.75 5.5C12.3023 5.5 12.75 5.05228 12.75 4.5C12.75 3.94772 12.3023 3.5 11.75 3.5ZM15.25 3.5C14.6977 3.5 14.25 3.94772 14.25 4.5C14.25 5.05228 14.6977 5.5 15.25 5.5C15.8023 5.5 16.25 5.05228 16.25 4.5C16.25 3.94772 15.8023 3.5 15.25 3.5Z" fill="#1D1C1D"/>
</svg>
