<svg width="20" height="20" viewBox="0 0 20 20" fill="none" xmlns="http://www.w3.org/2000/svg">
<path d="M15.75 3.5C17.2688 3.5 18.5 4.73122 18.5 6.25V13.75C18.5 15.2688 17.2688 16.5 15.75 16.5H4.25C2.73122 16.5 1.5 15.2688 1.5 13.75V6.25C1.5 4.73122 2.73122 3.5 4.25 3.5H15.75ZM4.75 12.5C4.19772 12.5 3.75 12.9477 3.75 13.5C3.75 14.0523 4.19772 14.5 4.75 14.5C5.30228 14.5 5.75 14.0523 5.75 13.5C5.75 12.9477 5.30228 12.5 4.75 12.5ZM8.25 12.5C7.69772 12.5 7.25 12.9477 7.25 13.5C7.25 14.0523 7.69772 14.5 8.25 14.5H11.75C12.3023 14.5 12.75 14.0523 12.75 13.5C12.75 12.9477 12.3023 12.5 11.75 12.5H8.25ZM15.25 12.5C14.6977 12.5 14.25 12.9477 14.25 13.5C14.25 14.0523 14.6977 14.5 15.25 14.5C15.8023 14.5 16.25 14.0523 16.25 13.5C16.25 12.9477 15.8023 12.5 15.25 12.5ZM4.75 9C4.19772 9 3.75 9.44772 3.75 10C3.75 10.5523 4.19772 11 4.75 11C5.30228 11 5.75 10.5523 5.75 10C5.75 9.44772 5.30228 9 4.75 9ZM8.25 9C7.69772 9 7.25 9.44772 7.25 10C7.25 10.5523 7.69772 11 8.25 11C8.80228 11 9.25 10.5523 9.25 10C9.25 9.44772 8.80228 9 8.25 9ZM11.75 9C11.1977 9 10.75 9.44772 10.75 10C10.75 10.5523 11.1977 11 11.75 11C12.3023 11 12.75 10.5523 12.75 10C12.75 9.44772 12.3023 9 11.75 9ZM15.25 9C14.6977 9 14.25 9.44772 14.25 10C14.25 10.5523 14.6977 11 15.25 11C15.8023 11 16.25 10.5523 16.25 10C16.25 9.44772 15.8023 9 15.25 9ZM4.75 5.5C4.19772 5.5 3.75 5.94772 3.75 6.5C3.75 7.05228 4.19772 7.5 4.75 7.5C5.30228 7.5 5.75 7.05228 5.75 6.5C5.75 5.94772 5.30228 5.5 4.75 5.5ZM8.25 5.5C7.69772 5.5 7.25 5.94772 7.25 6.5C7.25 7.05228 7.69772 7.5 8.25 7.5C8.80228 7.5 9.25 7.05228 9.25 6.5C9.25 5.94772 8.80228 5.5 8.25 5.5ZM11.75 5.5C11.1977 5.5 10.75 5.94772 10.75 6.5C10.75 7.05228 11.1977 7.5 11.75 7.5C12.3023 7.5 12.75 7.05228 12.75 6.5C12.75 5.94772 12.3023 5.5 11.75 5.5ZM15.25 5.5C14.6977 5.5 14.25 5.94772 14.25 6.5C14.25 7.05228 14.6977 7.5 15.25 7.5C15.8023 7.5 16.25 7.05228 16.25 6.5C16.25 5.94772 15.8023 5.5 15.25 5.5Z" fill="#1D1C1D"/>
</svg>
