<svg width="20" height="20" viewBox="0 0 20 20" fill="none" xmlns="http://www.w3.org/2000/svg">
<path d="M15.2504 1.5C16.4929 1.50023 17.5004 2.5075 17.5004 3.75V10.1514L19.1401 16.2988C19.4362 17.4096 18.5982 18.4997 17.4487 18.5H2.55217C1.40237 18.5 0.564506 17.4098 0.860768 16.2988L2.50042 10.1514V3.75C2.50042 2.50736 3.50778 1.5 4.75042 1.5H15.2504ZM2.30999 16.6855C2.26773 16.8442 2.38795 17 2.55217 17H17.4487C17.6126 16.9997 17.733 16.8441 17.6908 16.6855L16.1742 11H3.82659L2.30999 16.6855ZM5.00042 14.5C5.41444 14.5002 5.75042 14.8359 5.75042 15.25C5.75042 15.6641 5.41444 15.9998 5.00042 16C4.5862 16 4.25042 15.6642 4.25042 15.25C4.25042 14.8358 4.5862 14.5 5.00042 14.5ZM7.50042 14.5C7.91444 14.5002 8.25042 14.8359 8.25042 15.25C8.25042 15.6641 7.91444 15.9998 7.50042 16C7.0862 16 6.75042 15.6642 6.75042 15.25C6.75042 14.8358 7.0862 14.5 7.50042 14.5ZM10.0004 14.5C10.4144 14.5002 10.7504 14.8359 10.7504 15.25C10.7504 15.6641 10.4144 15.9998 10.0004 16C9.5862 16 9.25042 15.6642 9.25042 15.25C9.25042 14.8358 9.5862 14.5 10.0004 14.5ZM12.5004 14.5C12.9144 14.5002 13.2504 14.8359 13.2504 15.25C13.2504 15.6641 12.9144 15.9998 12.5004 16C12.0862 16 11.7504 15.6642 11.7504 15.25C11.7504 14.8358 12.0862 14.5 12.5004 14.5ZM15.0004 14.5C15.4144 14.5002 15.7504 14.8359 15.7504 15.25C15.7504 15.6641 15.4144 15.9998 15.0004 16C14.5862 16 14.2504 15.6642 14.2504 15.25C14.2504 14.8358 14.5862 14.5 15.0004 14.5ZM6.25042 12C6.66444 12.0002 7.00042 12.3359 7.00042 12.75C7.00042 13.1641 6.66444 13.4998 6.25042 13.5C5.8362 13.5 5.50042 13.1642 5.50042 12.75C5.50042 12.3358 5.8362 12 6.25042 12ZM8.75042 12C9.16444 12.0002 9.50042 12.3359 9.50042 12.75C9.50042 13.1641 9.16444 13.4998 8.75042 13.5C8.3362 13.5 8.00042 13.1642 8.00042 12.75C8.00042 12.3358 8.3362 12 8.75042 12ZM11.2504 12C11.6644 12.0002 12.0004 12.3359 12.0004 12.75C12.0004 13.1641 11.6644 13.4998 11.2504 13.5C10.8362 13.5 10.5004 13.1642 10.5004 12.75C10.5004 12.3358 10.8362 12 11.2504 12ZM13.7504 12C14.1644 12.0002 14.5004 12.3359 14.5004 12.75C14.5004 13.1641 14.1644 13.4998 13.7504 13.5C13.3362 13.5 13.0004 13.1642 13.0004 12.75C13.0004 12.3358 13.3362 12 13.7504 12ZM4.75042 3C4.3362 3 4.00042 3.33579 4.00042 3.75V9.5H16.0004V3.75C16.0004 3.33593 15.6644 3.00023 15.2504 3H4.75042Z" fill="#1D1C1D"/>
</svg>
