<svg width="20" height="20" viewBox="0 0 20 20" fill="none" xmlns="http://www.w3.org/2000/svg">
<path d="M15.2504 1.5C16.4929 1.50022 17.5004 2.50749 17.5004 3.75V10.1514L19.1391 16.2988C19.4353 17.4097 18.5983 18.4998 17.4486 18.5H2.55119C1.4016 18.4997 0.564532 17.4097 0.860757 16.2988L2.50041 10.1514V3.75C2.50041 2.50736 3.50776 1.5 4.75041 1.5H15.2504ZM5.00041 14.5C4.58619 14.5 4.25041 14.8358 4.25041 15.25C4.25041 15.6642 4.58619 16 5.00041 16C5.41443 15.9998 5.75041 15.6641 5.75041 15.25C5.75041 14.8359 5.41443 14.5002 5.00041 14.5ZM7.50041 14.5C7.08619 14.5 6.75041 14.8358 6.75041 15.25C6.75041 15.6642 7.08619 16 7.50041 16C7.91443 15.9998 8.25041 15.6641 8.25041 15.25C8.25041 14.8359 7.91443 14.5002 7.50041 14.5ZM10.0004 14.5C9.58619 14.5 9.25041 14.8358 9.25041 15.25C9.25041 15.6642 9.58619 16 10.0004 16C10.4144 15.9998 10.7504 15.6641 10.7504 15.25C10.7504 14.8359 10.4144 14.5002 10.0004 14.5ZM12.5004 14.5C12.0862 14.5 11.7504 14.8358 11.7504 15.25C11.7504 15.6642 12.0862 16 12.5004 16C12.9144 15.9998 13.2504 15.6641 13.2504 15.25C13.2504 14.8359 12.9144 14.5002 12.5004 14.5ZM15.0004 14.5C14.5862 14.5 14.2504 14.8358 14.2504 15.25C14.2504 15.6642 14.5862 16 15.0004 16C15.4144 15.9998 15.7504 15.6641 15.7504 15.25C15.7504 14.8359 15.4144 14.5002 15.0004 14.5ZM6.25041 12C5.83619 12 5.50041 12.3358 5.50041 12.75C5.50041 13.1642 5.83619 13.5 6.25041 13.5C6.66443 13.4998 7.00041 13.1641 7.00041 12.75C7.00041 12.3359 6.66443 12.0002 6.25041 12ZM8.75041 12C8.33619 12 8.00041 12.3358 8.00041 12.75C8.00041 13.1642 8.33619 13.5 8.75041 13.5C9.16443 13.4998 9.50041 13.1641 9.50041 12.75C9.50041 12.3359 9.16443 12.0002 8.75041 12ZM11.2504 12C10.8362 12 10.5004 12.3358 10.5004 12.75C10.5004 13.1642 10.8362 13.5 11.2504 13.5C11.6644 13.4998 12.0004 13.1641 12.0004 12.75C12.0004 12.3359 11.6644 12.0002 11.2504 12ZM13.7504 12C13.3362 12 13.0004 12.3358 13.0004 12.75C13.0004 13.1642 13.3362 13.5 13.7504 13.5C14.1644 13.4998 14.5004 13.1641 14.5004 12.75C14.5004 12.3359 14.1644 12.0002 13.7504 12ZM4.75041 3C4.33619 3 4.00041 3.33579 4.00041 3.75V9.5H16.0004V3.75C16.0004 3.33592 15.6644 3.00022 15.2504 3H4.75041Z" fill="#1D1C1D"/>
</svg>
