<svg width="20" height="20" viewBox="0 0 20 20" fill="none" xmlns="http://www.w3.org/2000/svg">
<path d="M5.70924 1.92865C5.61066 1.52634 5.8569 1.12029 6.25921 1.02172C6.66153 0.92315 7.06757 1.16938 7.16614 1.5717L7.40411 2.54297C7.50269 2.94528 7.25645 3.35133 6.85414 3.4499C6.45182 3.54847 6.04578 3.30224 5.94721 2.89993L5.70924 1.92865Z" fill="#1D1C1D"/>
<path d="M3.20734 3.93474C2.91444 3.64185 2.91444 3.16697 3.20734 2.87408C3.50023 2.58119 3.9751 2.58119 4.268 2.87408L4.9751 3.58119C5.268 3.87408 5.268 4.34895 4.9751 4.64185C4.68221 4.93474 4.20734 4.93474 3.91444 4.64185L3.20734 3.93474Z" fill="#1D1C1D"/>
<path fill-rule="evenodd" clip-rule="evenodd" d="M14.9877 9.34364C14.9877 6.58221 12.7491 4.34364 9.98767 4.34364C7.22624 4.34364 4.98767 6.58221 4.98767 9.34364V13.3436C4.98767 16.1051 7.22624 18.3436 9.98767 18.3436C12.7491 18.3436 14.9877 16.1051 14.9877 13.3436V9.34364ZM6.48767 10.8436V13.3436C6.48767 15.2766 8.05467 16.8436 9.98767 16.8436C11.9207 16.8436 13.4877 15.2766 13.4877 13.3436V10.8436H6.48767ZM13.4877 9.34364C13.4877 7.41064 11.9207 5.84364 9.98767 5.84364V9.34364H13.4877Z" fill="#1D1C1D"/>
<path d="M1.52963 6.06432C1.41473 6.46228 1.6442 6.87803 2.04215 6.99293L3.00291 7.27031C3.40087 7.38521 3.81662 7.15575 3.93152 6.75779C4.04642 6.35983 3.81695 5.94407 3.41899 5.82918L2.45823 5.55179C2.06028 5.43689 1.64452 5.66636 1.52963 6.06432Z" fill="#1D1C1D"/>
</svg>
