<svg width="20" height="20" viewBox="0 0 20 20" fill="none" xmlns="http://www.w3.org/2000/svg">
<path d="M10 1C14.9706 1 19 5.02944 19 10C19 14.9706 14.9706 19 10 19C5.02944 19 1 14.9706 1 10C1 5.02944 5.02944 1 10 1ZM4.08129 10.957C3.54505 10.957 3.12827 11.4332 3.27722 11.9483C3.93504 14.2233 5.71522 16.0204 7.98006 16.7018C8.50827 16.8607 9 16.4332 9 15.8816C9 15.4452 8.68549 15.0789 8.27255 14.9379C6.73786 14.4139 5.52363 13.1995 5.00036 11.6645C4.86329 11.2624 4.5061 10.957 4.08129 10.957ZM15.8835 10.957C15.444 10.957 15.0747 11.2731 14.9309 11.6885C14.4098 13.1932 13.2241 14.3871 11.7244 14.9188C11.3125 15.0649 11 15.433 11 15.8701C11 16.4277 11.4972 16.86 12.0309 16.6985C14.2793 16.018 16.0484 14.2374 16.7129 11.9821C16.8697 11.4499 16.4384 10.957 15.8835 10.957ZM9.96973 6.71973C8.17489 6.71983 6.71973 8.17486 6.71973 9.96973C6.71973 11.7646 8.17489 13.2196 9.96973 13.2197C11.7647 13.2197 13.2197 11.7647 13.2197 9.96973C13.2197 8.1748 11.7647 6.71973 9.96973 6.71973ZM11 4.09355C11 4.51603 11.3019 4.87205 11.7007 5.01132C13.2067 5.53717 14.3993 6.73026 14.9257 8.23614C15.069 8.64597 15.4344 8.95703 15.8685 8.95703C16.4232 8.95703 16.8519 8.46073 16.6882 7.93074C16.0005 5.70522 14.2328 3.95461 11.997 3.29037C11.4804 3.13687 11 3.55456 11 4.09355ZM9 4.08224C9 3.54922 8.525 3.13619 8.0138 3.28714C5.76136 3.95227 3.98187 5.71933 3.30051 7.96462C3.14485 8.47757 3.55901 8.95703 4.09505 8.95703C4.51463 8.95703 4.86794 8.65654 5.00455 8.25983C5.53347 6.72376 6.75528 5.51035 8.29652 4.99248C8.69621 4.85818 9 4.5039 9 4.08224Z" fill="#1D1C1D"/>
</svg>
