<svg width="20" height="20" viewBox="0 0 20 20" fill="none" xmlns="http://www.w3.org/2000/svg">
<path d="M10 1C14.9706 1 19 5.02944 19 10C19 14.9706 14.9706 19 10 19C5.02944 19 1 14.9706 1 10C1 5.02944 5.02944 1 10 1ZM6.03449 15.0245C5.61604 15.4428 5.64846 16.1368 6.15613 16.4405C7.28019 17.1131 8.5948 17.5 10 17.5C11.4049 17.5 12.719 17.113 13.8428 16.4406C14.3505 16.1368 14.3829 15.4427 13.9645 15.0245L13.5722 14.6324C13.2224 14.2828 12.6737 14.252 12.2316 14.4735C11.5599 14.81 10.8023 15 10 15C9.19744 15 8.43945 14.8101 7.76757 14.4736C7.32535 14.2521 6.77653 14.2829 6.42671 14.6325L6.03449 15.0245ZM4.97463 6.03475C4.55628 5.61663 3.86249 5.64929 3.55886 6.15689C2.8866 7.28078 2.5 8.59514 2.5 10C2.5 11.4042 2.88617 12.718 3.55781 13.8416C3.86138 14.3494 4.55543 14.3821 4.9738 13.9637L5.36534 13.5722C5.71507 13.2224 5.74597 12.6736 5.52483 12.2312C5.18911 11.5596 5.00008 10.8019 5 10C5 9.19749 5.18875 8.43866 5.52459 7.76631C5.7457 7.32365 5.7148 6.77451 5.36482 6.42472L4.97463 6.03475ZM14.6338 6.42572C14.284 6.77552 14.2532 7.3245 14.4745 7.76694C14.8107 8.43906 15 9.19748 15 10C14.9999 10.8021 14.8105 11.5597 14.4744 12.2312C14.2531 12.6736 14.284 13.2225 14.6338 13.5722L15.0253 13.9638C15.4436 14.3821 16.1376 14.3495 16.4413 13.8418C17.1133 12.7182 17.5 11.4044 17.5 10C17.5 8.595 17.113 7.28081 16.4404 6.15697C16.1367 5.64936 15.4427 5.61683 15.0245 6.03512L14.6338 6.42572ZM10 6.5C8.067 6.5 6.5 8.067 6.5 10C6.50026 11.9328 8.06717 13.5 10 13.5C11.9328 13.5 13.4997 11.9328 13.5 10C13.5 8.067 11.933 6.5 10 6.5ZM10 2.5C8.59536 2.5 7.28119 2.88648 6.15741 3.55855C5.6496 3.86225 5.6171 4.55636 6.03561 4.97464L6.42679 5.3656C6.77657 5.71519 7.32534 5.74596 7.76768 5.52484C8.43958 5.18896 9.19764 5 10 5C10.8022 5 11.5601 5.18888 12.2319 5.52463C12.6744 5.7458 13.2235 5.71486 13.5732 5.36492L13.9641 4.9738C14.3823 4.5554 14.3496 3.8615 13.8418 3.55796C12.7182 2.88623 11.4043 2.5 10 2.5Z" fill="#1D1C1D"/>
</svg>
