<svg width="20" height="20" viewBox="0 0 20 20" fill="none" xmlns="http://www.w3.org/2000/svg">
<path d="M5.87374 8.0656C7.58944 6.34989 10.3918 6.41702 12.0241 8.21208L12.0544 8.24528C12.3329 8.55166 12.3108 9.02618 12.0046 9.30485C11.6982 9.58336 11.2237 9.56121 10.945 9.25505L10.9138 9.22087C9.85753 8.05952 8.04439 8.01604 6.93429 9.12614L3.7546 12.3058C2.68116 13.3796 2.68146 15.1206 3.7546 16.1945L3.80538 16.2453C4.87926 17.3189 6.62018 17.3189 7.69405 16.2453L9.46944 14.4699C9.76219 14.1772 10.2371 14.1774 10.53 14.4699C10.8229 14.7628 10.8229 15.2375 10.53 15.5304L8.7546 17.3058C7.09494 18.9652 4.4045 18.9652 2.74483 17.3058L2.69405 17.255C1.03512 15.5954 1.03483 12.9048 2.69405 11.2453L5.87374 8.0656ZM11.2448 2.6945C12.9043 1.03528 15.5949 1.03558 17.2546 2.6945L17.3054 2.74528C18.9648 4.40495 18.9648 7.09539 17.3054 8.75505L14.1257 11.9347C12.4098 13.6506 9.6076 13.5838 7.9753 11.7883L7.94503 11.755C7.66696 11.4487 7.68884 10.974 7.99483 10.6955C8.30106 10.4171 8.77568 10.4396 9.05441 10.7453L9.08566 10.7795C10.1418 11.9413 11.9549 11.9844 13.0651 10.8742L16.2448 7.6945C17.3184 6.62063 17.3184 4.8797 16.2448 3.80583L16.1941 3.75505C15.1201 2.68191 13.3791 2.68161 12.3054 3.75505L10.53 5.53044C10.2371 5.82333 9.76234 5.82333 9.46944 5.53044C9.177 5.23751 9.1767 4.76264 9.46944 4.46989L11.2448 2.6945Z" fill="#1D1C1D"/>
</svg>
