<svg width="12" height="12" viewBox="0 0 12 12" fill="none" xmlns="http://www.w3.org/2000/svg">
<path d="M3.4891 4.80342C4.5388 3.75379 6.25324 3.79485 7.2518 4.89326L7.27035 4.91279C7.45595 5.1171 7.44037 5.4341 7.23617 5.61982C7.03188 5.80516 6.71577 5.78971 6.53012 5.58564L6.51156 5.56514C5.89704 4.88947 4.84202 4.86464 4.19613 5.51045L2.2889 7.41767C1.66407 8.04251 1.66407 9.05651 2.2889 9.68135L2.31918 9.71064C2.94403 10.3353 3.95708 10.3354 4.58187 9.71064L5.64633 8.64619C5.84156 8.45103 6.15811 8.45105 6.35336 8.64619C6.54846 8.84144 6.5485 9.158 6.35336 9.35322L5.2889 10.4177C4.27359 11.433 2.62752 11.4329 1.61215 10.4177L1.58187 10.3884C0.56651 9.37301 0.566509 7.72601 1.58187 6.71064L3.4891 4.80342ZM6.71176 1.58174C7.72714 0.566569 9.37322 0.566439 10.3885 1.58174L10.4188 1.61103C11.4338 2.62635 11.4339 4.27348 10.4188 5.28877L8.51156 7.19599C7.46195 8.24561 5.74748 8.20434 4.74887 7.10615L4.73031 7.08662C4.54456 6.88229 4.56016 6.56534 4.76449 6.37959C4.96884 6.19442 5.28498 6.20964 5.47055 6.41377L5.4891 6.43428C6.10368 7.10971 7.15873 7.13476 7.80453 6.48896L9.71176 4.58174C10.3363 3.95697 10.3363 2.94286 9.71176 2.31807L9.68148 2.28877C9.05671 1.66399 8.04364 1.66413 7.41879 2.28877L6.35433 3.35322C6.15919 3.54837 5.84259 3.54813 5.6473 3.35322C5.45204 3.15796 5.45204 2.84145 5.6473 2.64619L6.71176 1.58174Z" fill="#1D1C1D"/>
</svg>
