<svg width="20" height="20" viewBox="0 0 20 20" fill="none" xmlns="http://www.w3.org/2000/svg">
<path d="M14.75 1.5C16.8211 1.5 18.5 3.17893 18.5 5.25V14.75C18.5 16.8211 16.8211 18.5 14.75 18.5H5.25C3.17893 18.5 1.5 16.8211 1.5 14.75V5.25C1.5 3.17893 3.17893 1.5 5.25 1.5H14.75ZM5.25 3C4.00736 3 3 4.00736 3 5.25V14.75C3 15.9926 4.00736 17 5.25 17H14.75C15.9926 17 17 15.9926 17 14.75V5.25C17 4.00736 15.9926 3 14.75 3H5.25ZM7.86035 11.126C8.15792 10.8381 8.63284 10.8461 8.9209 11.1436C9.20871 11.4411 9.20072 11.916 8.90332 12.2041L6.58008 14.4541C6.28937 14.7354 5.82788 14.7353 5.53711 14.4541L4.36035 13.3145C4.06287 13.0264 4.05482 12.5515 4.34277 12.2539C4.63082 11.9565 5.10575 11.9485 5.40332 12.2363L6.05762 12.8701L7.86035 11.126ZM15.1182 12.9863C15.5323 12.9864 15.8682 13.3221 15.8682 13.7363C15.8681 14.1505 15.5323 14.4863 15.1182 14.4863H10.6182C10.204 14.4863 9.86823 14.1505 9.86816 13.7363C9.86816 13.3221 10.204 12.9864 10.6182 12.9863H15.1182ZM15.1182 9.29883C15.5323 9.29887 15.8682 9.63464 15.8682 10.0488C15.8681 10.4629 15.5323 10.7988 15.1182 10.7988H10.6182C10.204 10.7988 9.86824 10.463 9.86816 10.0488C9.86816 9.63463 10.204 9.29885 10.6182 9.29883H15.1182ZM7.66992 5.34277C8.35223 5.34294 8.83789 5.82275 8.83789 6.41797C8.83782 7.18329 8.17506 7.91345 7.3252 8.5C6.9903 8.7289 6.78783 8.8427 6.58789 8.84277C6.38789 8.84277 6.18516 8.72725 5.84766 8.49609C4.99771 7.91606 4.33796 7.18334 4.33789 6.41797C4.33789 5.82269 4.82594 5.34285 5.50586 5.34277C6.32967 5.34277 6.58789 6.10059 6.58789 6.10059C6.58789 6.10059 6.83883 5.34277 7.66992 5.34277ZM15.1182 5.61133C15.5323 5.61137 15.8682 5.94714 15.8682 6.36133C15.8681 6.77544 15.5323 7.11128 15.1182 7.11133H10.6182C10.204 7.1113 9.86825 6.77545 9.86816 6.36133C9.86816 5.94713 10.204 5.61135 10.6182 5.61133H15.1182Z" fill="#1D1C1D"/>
</svg>
