<svg width="12" height="12" viewBox="0 0 12 12" fill="none" xmlns="http://www.w3.org/2000/svg">
<path d="M8.70038 0.999023C9.97084 0.999228 11.0011 2.02932 11.0012 3.2998V8.7002C11.0011 9.97068 9.97084 11.0008 8.70038 11.001H3.29999C2.02945 11.0009 0.999312 9.97074 0.999207 8.7002V3.2998C0.999312 2.02926 2.02945 0.999129 3.29999 0.999023H8.70038ZM3.29999 2.00098C2.58261 2.00108 2.00127 2.58243 2.00116 3.2998V8.7002C2.00127 9.41757 2.58261 9.99892 3.29999 9.99902H8.70038C9.41767 9.99882 9.9991 9.41751 9.99921 8.7002V3.2998C9.9991 2.58249 9.41767 2.00118 8.70038 2.00098H3.29999ZM4.61737 6.64453C4.81258 6.44962 5.12921 6.44959 5.3244 6.64453C5.51955 6.8397 5.51938 7.15628 5.3244 7.35156L3.97186 8.7041C3.77658 8.89907 3.46 8.89925 3.26483 8.7041L2.58026 8.01855C2.38543 7.82326 2.38515 7.50664 2.58026 7.31152C2.77542 7.11687 3.09215 7.11685 3.28729 7.31152L3.61835 7.64258L4.61737 6.64453ZM9.06561 7.73926C9.34161 7.73935 9.56551 7.96326 9.56561 8.23926C9.56548 8.51522 9.34159 8.73916 9.06561 8.73926H6.3703C6.09424 8.73926 5.87044 8.51528 5.8703 8.23926C5.8704 7.9632 6.09422 7.73926 6.3703 7.73926H9.06561ZM9.06561 5.53027C9.34158 5.53037 9.56547 5.75431 9.56561 6.03027C9.56548 6.30624 9.34159 6.53018 9.06561 6.53027H6.3703C6.09424 6.53027 5.87044 6.3063 5.8703 6.03027C5.87044 5.75425 6.09425 5.53027 6.3703 5.53027H9.06561ZM4.6037 3.21094C5.01243 3.21094 5.30373 3.50637 5.30389 3.87305C5.30389 4.34465 4.9068 4.79482 4.39764 5.15625C4.19711 5.29723 4.07596 5.36708 3.95624 5.36719C3.8365 5.36719 3.71485 5.29656 3.51288 5.1543C3.00369 4.79689 2.60858 4.34467 2.60858 3.87305C2.60875 3.50643 2.90067 3.21103 3.3078 3.21094C3.8013 3.21094 3.95624 3.67773 3.95624 3.67773C3.95624 3.67773 4.10612 3.21115 4.6037 3.21094ZM9.06561 3.32129C9.3416 3.32139 9.5655 3.5453 9.56561 3.82129C9.56548 4.09726 9.34159 4.32119 9.06561 4.32129H6.3703C6.09424 4.32129 5.87044 4.09732 5.8703 3.82129C5.87041 3.54524 6.09423 3.32129 6.3703 3.32129H9.06561Z" fill="#1D1C1D"/>
</svg>
