<svg width="12" height="12" viewBox="0 0 12 12" fill="none" xmlns="http://www.w3.org/2000/svg">
<path d="M8.70038 0.999023C9.97084 0.999225 11.0011 2.02932 11.0012 3.2998V8.7002C11.001 9.9706 9.97078 11.0008 8.70038 11.001H3.29999C2.02951 11.0009 0.999408 9.97066 0.999207 8.7002V3.2998C0.999312 2.02926 2.02945 0.999129 3.29999 0.999023H8.70038ZM5.3244 6.64355C5.1289 6.44818 4.81094 6.44822 4.61542 6.64355L3.61542 7.64355L3.28436 7.3125C3.08886 7.11713 2.77089 7.11715 2.57538 7.3125C2.38031 7.50797 2.38028 7.82506 2.57538 8.02051L3.2619 8.70605C3.45745 8.90119 3.77449 8.90139 3.96991 8.70605L5.3244 7.35254C5.51965 7.15711 5.51951 6.83908 5.3244 6.64355ZM6.37128 7.73926C6.09492 7.73928 5.87057 7.96393 5.8703 8.24023C5.87052 8.51657 6.09489 8.74119 6.37128 8.74121H9.0705C9.3467 8.74098 9.57125 8.51644 9.57147 8.24023C9.57121 7.96406 9.34667 7.73949 9.0705 7.73926H6.37128ZM6.37128 5.52734C6.09486 5.52737 5.87047 5.75194 5.8703 6.02832C5.87052 6.30466 6.09489 6.52927 6.37128 6.5293H9.0705C9.3467 6.52906 9.57125 6.30453 9.57147 6.02832C9.5713 5.75207 9.34673 5.52758 9.0705 5.52734H6.37128ZM4.60175 3.20508C4.1132 3.20531 3.95914 3.65434 3.95331 3.67188C3.94803 3.65639 3.78962 3.20508 3.30389 3.20508C2.89621 3.20523 2.60382 3.50102 2.6037 3.86816C2.6037 4.34037 2.9992 4.7925 3.50897 5.15039C3.71142 5.29301 3.83334 5.36424 3.95331 5.36426C4.07321 5.36417 4.19485 5.29451 4.39569 5.15332C4.90554 4.79138 5.30292 4.34042 5.30292 3.86816C5.30279 3.50093 5.01109 3.20508 4.60175 3.20508ZM6.37128 3.31543C6.09483 3.31545 5.87043 3.53999 5.8703 3.81641C5.87066 4.09263 6.09497 4.31736 6.37128 4.31738H9.0705C9.34662 4.31715 9.57112 4.0925 9.57147 3.81641C9.57134 3.54012 9.34676 3.31566 9.0705 3.31543H6.37128Z" fill="#1D1C1D"/>
</svg>
