<svg width="20" height="20" viewBox="0 0 20 20" fill="none" xmlns="http://www.w3.org/2000/svg">
<path d="M14.75 1.5C16.8211 1.5 18.5 3.17893 18.5 5.25V14.75C18.5 16.8211 16.8211 18.5 14.75 18.5H5.25C3.17893 18.5 1.5 16.8211 1.5 14.75V5.25C1.5 3.17893 3.17893 1.5 5.25 1.5H14.75ZM8.9209 11.1436C8.63285 10.8461 8.15793 10.8382 7.86035 11.126L6.05762 12.8701L5.40332 12.2363C5.10576 11.9485 4.63082 11.9565 4.34277 12.2539C4.05482 12.5515 4.06287 13.0264 4.36035 13.3145L5.53711 14.4541C5.82788 14.7353 6.28937 14.7354 6.58008 14.4541L8.90332 12.2041C9.2007 11.9161 9.20869 11.4411 8.9209 11.1436ZM10.6182 12.9863C10.204 12.9864 9.86816 13.3221 9.86816 13.7363C9.86824 14.1505 10.204 14.4863 10.6182 14.4863H15.1182C15.5323 14.4863 15.8681 14.1504 15.8682 13.7363C15.8682 13.3222 15.5323 12.9864 15.1182 12.9863H10.6182ZM10.6182 9.29883C10.204 9.29886 9.86816 9.63463 9.86816 10.0488C9.86825 10.463 10.204 10.7988 10.6182 10.7988H15.1182C15.5323 10.7988 15.8681 10.4629 15.8682 10.0488C15.8682 9.63465 15.5323 9.29889 15.1182 9.29883H10.6182ZM7.66992 5.34277C6.85108 5.34277 6.59525 6.07793 6.58789 6.09961C6.58129 6.08061 6.31897 5.34284 5.50586 5.34277C4.82596 5.34286 4.33789 5.8227 4.33789 6.41797C4.33804 7.1833 4.99775 7.9161 5.84766 8.49609C6.18509 8.7272 6.38791 8.84277 6.58789 8.84277C6.7878 8.84267 6.99034 8.72887 7.3252 8.5C8.17502 7.91348 8.83774 7.18324 8.83789 6.41797C8.83789 5.82277 8.35219 5.34298 7.66992 5.34277ZM10.6182 5.61133C10.204 5.61136 9.86816 5.94713 9.86816 6.36133C9.86826 6.77545 10.204 7.1113 10.6182 7.11133H15.1182C15.5323 7.11127 15.8681 6.77543 15.8682 6.36133C15.8682 5.94715 15.5323 5.61139 15.1182 5.61133H10.6182Z" fill="#1D1C1D"/>
</svg>
