<svg width="20" height="20" viewBox="0 0 20 20" fill="none" xmlns="http://www.w3.org/2000/svg">
<path d="M13.25 14.5C13.6642 14.5 14 14.8358 14 15.25C14 15.6642 13.6642 16 13.25 16H2.25C1.83579 16 1.5 15.6642 1.5 15.25C1.5 14.8358 1.83579 14.5 2.25 14.5H13.25ZM17.75 9.25C18.1642 9.25 18.5 9.58579 18.5 10C18.5 10.4142 18.1642 10.75 17.75 10.75H2.25C1.83579 10.75 1.5 10.4142 1.5 10C1.5 9.58579 1.83579 9.25 2.25 9.25H17.75ZM17.75 4C18.1642 4 18.5 4.33579 18.5 4.75C18.5 5.16421 18.1642 5.5 17.75 5.5H2.25C1.83579 5.5 1.5 5.16421 1.5 4.75C1.5 4.33579 1.83579 4 2.25 4H17.75Z" fill="#1D1C1D"/>
</svg>
