<svg width="20" height="20" viewBox="0 0 20 20" fill="none" xmlns="http://www.w3.org/2000/svg">
<path d="M14.75 1.5C16.8211 1.5 18.5 3.17893 18.5 5.25V14.75C18.5 16.8211 16.8211 18.5 14.75 18.5H9.28125C9.03928 18.5 8.90818 18.153 9.06836 17.9717C9.5883 17.3829 10.2861 16.3106 10.2861 14.7988C10.2861 12.1756 8.15942 10.0489 5.53613 10.0488C3.83728 10.0488 2.70937 10.8838 2.08789 11.5352C1.90993 11.7216 1.50011 11.5888 1.5 11.3311V5.25C1.5 3.17893 3.17893 1.5 5.25 1.5H14.75ZM5.53613 11.1367C7.55846 11.1368 9.19811 12.7765 9.19824 14.7988C9.19818 16.8212 7.5585 18.4609 5.53613 18.4609C3.51374 18.4609 1.87409 16.8212 1.87402 14.7988C1.87416 12.7765 3.51378 11.1368 5.53613 11.1367ZM7.53418 13.4121C7.24349 13.1174 6.76858 13.1139 6.47363 13.4043L5.0625 14.7939L4.65332 14.3848C4.36052 14.0922 3.88564 14.0922 3.59277 14.3848C3.29992 14.6776 3.30004 15.1524 3.59277 15.4453L4.5293 16.3818C4.82069 16.6732 5.29247 16.675 5.58594 16.3857L7.52637 14.4727C7.82097 14.1819 7.8247 13.707 7.53418 13.4121ZM12.1182 12.9863C11.7041 12.9864 11.3682 13.3222 11.3682 13.7363C11.3682 14.1505 11.704 14.4862 12.1182 14.4863H15.1182C15.5324 14.4863 15.8682 14.1505 15.8682 13.7363C15.8681 13.3222 15.5323 12.9863 15.1182 12.9863H12.1182ZM11.1182 9.29883C10.704 9.29883 10.3682 9.63467 10.3682 10.0488C10.3682 10.463 10.704 10.7988 11.1182 10.7988H15.1182C15.5324 10.7988 15.8682 10.463 15.8682 10.0488C15.8681 9.63467 15.5323 9.29883 15.1182 9.29883H11.1182ZM7.66992 5.34277C6.83883 5.34277 6.58789 6.10059 6.58789 6.10059C6.58789 6.10059 6.32967 5.34277 5.50586 5.34277C4.82604 5.34294 4.33789 5.82274 4.33789 6.41797C4.33789 7.18333 4.99775 7.91605 5.84766 8.49609C6.18516 8.72725 6.38789 8.84277 6.58789 8.84277C6.78782 8.84277 6.9904 8.72979 7.3252 8.50098C8.1752 7.91437 8.83789 7.18339 8.83789 6.41797C8.83789 5.82269 8.35233 5.34286 7.66992 5.34277ZM10.6182 5.61133C10.204 5.61133 9.86823 5.94717 9.86816 6.36133C9.86816 6.77554 10.204 7.11133 10.6182 7.11133H15.1182C15.5324 7.11133 15.8682 6.77554 15.8682 6.36133C15.8681 5.94717 15.5323 5.61133 15.1182 5.61133H10.6182Z" fill="#1D1C1D"/>
</svg>
