<svg width="20" height="20" viewBox="0 0 20 20" fill="none" xmlns="http://www.w3.org/2000/svg">
<path d="M14.75 1.5C16.8211 1.5 18.5 3.17893 18.5 5.25V14.75C18.5 16.8211 16.8211 18.5 14.75 18.5H11.75C11.3358 18.5 11 18.1642 11 17.75C11 17.3358 11.3358 17 11.75 17H14.75C15.9926 17 17 15.9926 17 14.75V5.25C17 4.00736 15.9926 3 14.75 3H5.25C4.00736 3 3 4.00736 3 5.25V8.25C3 8.66421 2.66421 9 2.25 9C1.83579 9 1.5 8.66421 1.5 8.25V5.25C1.5 3.17893 3.17893 1.5 5.25 1.5H14.75ZM6 9.6416C8.40704 9.64167 10.3583 11.593 10.3584 14C10.3583 16.407 8.40704 18.3583 6 18.3584C3.59295 18.3583 1.64167 16.407 1.6416 14C1.64167 11.593 3.59295 9.64167 6 9.6416ZM8.05273 12.6318C7.7648 12.3344 7.28987 12.3265 6.99219 12.6143L5.34668 14.2051L4.85938 13.7334C4.56183 13.4455 4.08691 13.4526 3.79883 13.75C3.51075 14.0475 3.51905 14.5224 3.81641 14.8105L4.82422 15.7871C5.11488 16.0685 5.57732 16.0693 5.86816 15.7881L8.03516 13.6924C8.33268 13.4045 8.34045 12.9296 8.05273 12.6318ZM15.1182 12.9863C15.5323 12.9863 15.8681 13.3222 15.8682 13.7363C15.8682 14.1505 15.5324 14.4863 15.1182 14.4863H12.6182C12.204 14.4862 11.8682 14.1505 11.8682 13.7363C11.8682 13.3222 12.2041 12.9864 12.6182 12.9863H15.1182ZM15.1182 9.29883C15.5323 9.29883 15.8681 9.63467 15.8682 10.0488C15.8682 10.463 15.5324 10.7988 15.1182 10.7988H11.1182C10.704 10.7988 10.3682 10.463 10.3682 10.0488C10.3682 9.63467 10.704 9.29883 11.1182 9.29883H15.1182ZM7.66992 4.83984C8.35233 4.83993 8.83789 5.31976 8.83789 5.91504C8.83768 6.68033 8.17506 7.41056 7.3252 7.99707C6.99023 8.22602 6.78788 8.33984 6.58789 8.33984C6.38789 8.33984 6.18516 8.22432 5.84766 7.99316C4.9978 7.4132 4.3381 6.68032 4.33789 5.91504C4.33789 5.31981 4.82604 4.84 5.50586 4.83984C6.32 4.83984 6.58187 5.57932 6.58789 5.59668C6.59378 5.57923 6.84863 4.83984 7.66992 4.83984ZM15.1182 5.61133C15.5323 5.61133 15.8681 5.94717 15.8682 6.36133C15.8682 6.77554 15.5324 7.11133 15.1182 7.11133H10.6182C10.204 7.11133 9.86816 6.77554 9.86816 6.36133C9.86823 5.94717 10.204 5.61133 10.6182 5.61133H15.1182Z" fill="#1D1C1D"/>
</svg>
