<svg width="20" height="20" viewBox="0 0 20 20" fill="none" xmlns="http://www.w3.org/2000/svg">
<path d="M10 1C13.866 1 17 4.13401 17 8C17 11.5876 14.0214 15.6776 11.9502 18.0879L11.8506 18.1982C10.828 19.2662 9.17202 19.2662 8.14941 18.1982L8.0498 18.0879C5.97859 15.6776 3 11.5876 3 8C3 4.13401 6.13401 1 10 1ZM10 2.5C6.96243 2.5 4.5 4.96243 4.5 8C4.5 9.41371 5.10084 11.0633 6.05371 12.7461C6.99146 14.4021 8.18671 15.9447 9.1875 17.1094C9.63327 17.6281 10.3667 17.6281 10.8125 17.1094C11.8133 15.9447 13.0085 14.4021 13.9463 12.7461C14.8992 11.0633 15.5 9.41371 15.5 8C15.5 4.96243 13.0376 2.5 10 2.5ZM10 4.5C11.933 4.5 13.5 6.067 13.5 8C13.5 9.933 11.933 11.5 10 11.5C8.067 11.5 6.5 9.933 6.5 8C6.5 6.067 8.067 4.5 10 4.5ZM10 6C8.89543 6 8 6.89543 8 8C8 9.10457 8.89543 10 10 10C11.1046 10 12 9.10457 12 8C12 6.89543 11.1046 6 10 6Z" fill="#1D1C1D"/>
</svg>
