<svg width="20" height="20" viewBox="0 0 20 20" fill="none" xmlns="http://www.w3.org/2000/svg">
<path d="M10 1.5C12.4853 1.5 14.5 3.51472 14.5 6V7.5H14.75C15.9926 7.5 17 8.50736 17 9.75V16.25C17 17.2165 16.2165 18 15.25 18H4.75C3.7835 18 3 17.2165 3 16.25V9.75C3 8.50736 4.00736 7.5 5.25 7.5H5.5V6C5.5 3.51472 7.51472 1.5 10 1.5ZM5.25 9C4.83579 9 4.5 9.33579 4.5 9.75V16.25C4.5 16.3881 4.61193 16.5 4.75 16.5H15.25C15.3881 16.5 15.5 16.3881 15.5 16.25V9.75C15.5 9.33579 15.1642 9 14.75 9H5.25ZM10 3C8.34315 3 7 4.34315 7 6V7.5H13V6C13 4.34315 11.6569 3 10 3Z" fill="#1D1C1D"/>
</svg>
