<svg width="12" height="12" viewBox="0 0 12 12" fill="none" xmlns="http://www.w3.org/2000/svg">
<path fill-rule="evenodd" clip-rule="evenodd" d="M6 1.84961C6.9665 1.84961 7.75 2.63311 7.75 3.59961V4.44922H4.25V3.59961C4.25 2.63311 5.0335 1.84961 6 1.84961ZM3.25 4.44922V3.59961C3.25 2.08083 4.48122 0.849609 6 0.849609C7.51878 0.849609 8.75 2.08083 8.75 3.59961V4.44922H8.84961C9.62281 4.44922 10.25 5.07641 10.25 5.84961V9.74902C10.25 10.3564 9.75772 10.8494 9.15039 10.8496H2.84961C2.24228 10.8494 1.75 10.3564 1.75 9.74902V5.84961C1.75 5.07641 2.37719 4.44922 3.15039 4.44922H3.25Z" fill="#1D1C1D"/>
</svg>
