<svg width="12" height="12" viewBox="0 0 12 12" fill="none" xmlns="http://www.w3.org/2000/svg">
<path d="M6 0.849609C7.51878 0.849609 8.75 2.08083 8.75 3.59961V4.4502H8.84961C9.62281 4.4502 10.25 5.07739 10.25 5.85059V9.75C10.2497 10.3572 9.75756 10.8504 9.15039 10.8506H2.84961C2.24244 10.8504 1.75026 10.3572 1.75 9.75V5.85059C1.75 5.07739 2.37719 4.4502 3.15039 4.4502H3.25V3.59961C3.25 2.08083 4.48122 0.849609 6 0.849609ZM3.15039 5.4502C2.92948 5.4502 2.75 5.62967 2.75 5.85059V9.75C2.75026 9.80488 2.79472 9.85038 2.84961 9.85059H9.15039C9.20528 9.85038 9.24974 9.80488 9.25 9.75V5.85059C9.25 5.62967 9.07052 5.4502 8.84961 5.4502H3.15039ZM6 1.84961C5.0335 1.84961 4.25 2.63311 4.25 3.59961V4.4502H7.75V3.59961C7.75 2.63311 6.9665 1.84961 6 1.84961Z" fill="#1D1C1D"/>
</svg>
