<svg width="20" height="20" viewBox="0 0 20 20" fill="none" xmlns="http://www.w3.org/2000/svg">
<path d="M9.22012 7.37109C9.98141 6.61012 11.2158 6.60992 11.977 7.37109L12.6791 8.07324C13.4402 8.83442 13.44 10.0688 12.6791 10.8301L5.03067 18.4785C4.26943 19.2397 3.03511 19.2397 2.27383 18.4785L1.57168 17.7764C0.810415 17.0151 0.810417 15.7808 1.57168 15.0195L9.22012 7.37109ZM2.63223 16.0801C2.45675 16.2556 2.45675 16.5403 2.63223 16.7158L3.33438 17.418C3.50986 17.5934 3.79467 17.5934 3.97012 17.418L9.16348 12.2236L7.82559 10.8857L2.63223 16.0801ZM15.7504 10.25C15.9654 10.2502 16.156 10.3878 16.224 10.5918L16.4867 11.3809C16.5863 11.6793 16.8211 11.9132 17.1195 12.0127L17.9086 12.2754C18.1126 12.3435 18.2504 12.5349 18.2504 12.75C18.2504 12.9651 18.1126 13.1565 17.9086 13.2246L17.1195 13.4873C16.8211 13.5868 16.5863 13.8207 16.4867 14.1191L16.224 14.9082C16.156 15.1122 15.9654 15.2498 15.7504 15.25C15.5352 15.25 15.3439 15.1123 15.2758 14.9082L15.0131 14.1191C14.9135 13.8207 14.6788 13.5868 14.3803 13.4873L13.5922 13.2246C13.388 13.1566 13.2504 12.9652 13.2504 12.75C13.2504 12.5348 13.388 12.3434 13.5922 12.2754L14.3803 12.0127C14.6788 11.9132 14.9135 11.6793 15.0131 11.3809L15.2758 10.5918C15.3439 10.3877 15.5352 10.25 15.7504 10.25ZM10.9164 8.43164C10.741 8.25626 10.4562 8.25645 10.2807 8.43164L8.88614 9.8252L10.224 11.1631L11.6186 9.76953C11.7937 9.59406 11.7938 9.30918 11.6186 9.13379L10.9164 8.43164ZM16.2504 3.25C16.4654 3.25017 16.656 3.38785 16.724 3.5918L16.9867 4.38086C17.0863 4.67928 17.3211 4.91317 17.6195 5.0127L18.4086 5.27539C18.6126 5.34355 18.7504 5.53491 18.7504 5.75C18.7504 5.96509 18.6126 6.15645 18.4086 6.22461L17.6195 6.4873C17.3211 6.58683 17.0863 6.82072 16.9867 7.11914L16.724 7.9082C16.656 8.11215 16.4654 8.24983 16.2504 8.25C16.0352 8.25 15.8439 8.11231 15.7758 7.9082L15.5131 7.11914C15.4135 6.82071 15.1788 6.5868 14.8803 6.4873L14.0922 6.22461C13.888 6.15655 13.7504 5.96522 13.7504 5.75C13.7504 5.53478 13.888 5.34345 14.0922 5.27539L14.8803 5.0127C15.1788 4.9132 15.4135 4.67929 15.5131 4.38086L15.7758 3.5918C15.8439 3.38769 16.0352 3.25 16.2504 3.25ZM7.75039 1.25C7.96539 1.25017 8.15596 1.38785 8.22403 1.5918L8.48672 2.38086C8.5863 2.67928 8.82109 2.91317 9.11953 3.0127L9.9086 3.27539C10.1126 3.34355 10.2504 3.53491 10.2504 3.75C10.2504 3.96509 10.1126 4.15645 9.9086 4.22461L9.11953 4.4873C8.82109 4.58683 8.5863 4.82072 8.48672 5.11914L8.22403 5.9082C8.15596 6.11215 7.96539 6.24983 7.75039 6.25C7.53522 6.25 7.34387 6.11231 7.27578 5.9082L7.01309 5.11914C6.91348 4.82071 6.67876 4.5868 6.38028 4.4873L5.59219 4.22461C5.38802 4.15655 5.25039 3.96522 5.25039 3.75C5.25039 3.53478 5.38802 3.34345 5.59219 3.27539L6.38028 3.0127C6.67876 2.9132 6.91348 2.67929 7.01309 2.38086L7.27578 1.5918C7.34387 1.38769 7.53522 1.25 7.75039 1.25Z" fill="#1D1C1D"/>
</svg>
