<svg width="20" height="20" viewBox="0 0 20 20" fill="none" xmlns="http://www.w3.org/2000/svg">
<path d="M6.94071 10.71C7.13585 10.5148 7.45245 10.5151 7.64775 10.71L9.34013 12.4014C9.5354 12.5966 9.53532 12.9131 9.34013 13.1084L4.50028 17.9482C4.03191 18.4166 3.27237 18.4166 2.804 17.9482L2.10087 17.2461C1.63277 16.7777 1.63267 16.0181 2.10087 15.5498L6.94071 10.71ZM15.7503 10.25C15.9653 10.2501 16.1558 10.3878 16.2239 10.5918L16.4876 11.3809C16.5872 11.6791 16.8211 11.9132 17.1194 12.0127L17.9085 12.2754C18.1125 12.3435 18.2503 12.5349 18.2503 12.75C18.2503 12.9651 18.1125 13.1565 17.9085 13.2246L17.1194 13.4873C16.8211 13.5868 16.5872 13.8209 16.4876 14.1191L16.2239 14.9082C16.1558 15.1122 15.9653 15.2499 15.7503 15.25C15.5351 15.25 15.3438 15.1123 15.2757 14.9082L15.013 14.1191C14.9134 13.8207 14.6786 13.5868 14.3802 13.4873L13.5921 13.2246C13.3879 13.1566 13.2503 12.9652 13.2503 12.75C13.2503 12.5348 13.3879 12.3434 13.5921 12.2754L14.3802 12.0127C14.6786 11.9132 14.9134 11.6793 15.013 11.3809L15.2757 10.5918C15.3438 10.3877 15.5351 10.25 15.7503 10.25ZM9.75028 7.90137C10.2187 7.43308 10.9782 7.43302 11.4466 7.90137L12.1487 8.60352C12.6171 9.07186 12.617 9.83143 12.1487 10.2998L11.1126 11.3359C10.9169 11.5316 10.5997 11.5312 10.4046 11.335L8.71806 9.63867C8.5238 9.44324 8.52419 9.12746 8.71903 8.93262L9.75028 7.90137ZM16.2503 3.25C16.4653 3.25012 16.6558 3.38783 16.7239 3.5918L16.9876 4.38086C17.0872 4.67912 17.3211 4.91318 17.6194 5.0127L18.4085 5.27539C18.6125 5.34352 18.7503 5.53487 18.7503 5.75C18.7503 5.96513 18.6125 6.15648 18.4085 6.22461L17.6194 6.4873C17.3211 6.58682 17.0872 6.82088 16.9876 7.11914L16.7239 7.9082C16.6558 8.11217 16.4653 8.24988 16.2503 8.25C16.0351 8.25 15.8438 8.11233 15.7757 7.9082L15.513 7.11914C15.4134 6.82072 15.1786 6.5868 14.8802 6.4873L14.0921 6.22461C13.8879 6.15655 13.7503 5.96522 13.7503 5.75C13.7503 5.53478 13.8879 5.34345 14.0921 5.27539L14.8802 5.0127C15.1786 4.9132 15.4134 4.67928 15.513 4.38086L15.7757 3.5918C15.8438 3.38767 16.0351 3.25 16.2503 3.25ZM7.75028 1.25C7.96531 1.25012 8.15583 1.38783 8.22392 1.5918L8.48759 2.38086C8.58721 2.67912 8.82111 2.91318 9.11943 3.0127L9.90849 3.27539C10.1125 3.34352 10.2503 3.53487 10.2503 3.75C10.2503 3.96513 10.1125 4.15648 9.90849 4.22461L9.11943 4.4873C8.82111 4.58682 8.58721 4.82088 8.48759 5.11914L8.22392 5.9082C8.15583 6.11217 7.96531 6.24988 7.75028 6.25C7.5351 6.25 7.34376 6.11233 7.27568 5.9082L7.01298 5.11914C6.91337 4.82072 6.67864 4.5868 6.38017 4.4873L5.59208 4.22461C5.38791 4.15655 5.25028 3.96522 5.25028 3.75C5.25028 3.53478 5.38791 3.34345 5.59208 3.27539L6.38017 3.0127C6.67864 2.9132 6.91337 2.67928 7.01298 2.38086L7.27568 1.5918C7.34376 1.38767 7.5351 1.25 7.75028 1.25Z" fill="#1D1C1D"/>
</svg>
