<svg width="12" height="12" viewBox="0 0 12 12" fill="none" xmlns="http://www.w3.org/2000/svg">
<path d="M7.11816 1.6053C7.39725 1.46581 7.72573 1.46498 8.00586 1.60237L10.7246 2.93538C10.8956 3.01946 11.0039 3.19399 11.0039 3.3846V9.99202C11.0038 10.1668 10.9123 10.3292 10.7627 10.4198C10.613 10.5102 10.4264 10.5165 10.2715 10.4354L7.5625 9.01546L4.95898 10.3807C4.6787 10.5275 4.34554 10.5328 4.06055 10.3953L1.28711 9.05745C1.11461 8.974 1.005 8.79889 1.00488 8.60725V2.02522C1.00499 1.85339 1.09377 1.69381 1.23926 1.60237C1.3848 1.51101 1.56684 1.50051 1.72168 1.57503L4.5 2.91389L7.11816 1.6053ZM2.00488 8.2928L4.03516 9.27229V3.79963L2.00488 2.82112V8.2928ZM5.03516 3.76448V9.21077L7.00879 8.17659V2.77815L5.03516 3.76448ZM8.00879 8.11995L10.0039 9.16487V3.69612L8.00879 2.71663V8.11995Z" fill="#1D1C1D"/>
</svg>
