<svg width="20" height="20" viewBox="0 0 20 20" fill="none" xmlns="http://www.w3.org/2000/svg">
<path d="M11.9352 2.67012C12.4099 2.444 12.9619 2.44324 13.4371 2.66817L17.9323 4.79707C18.2811 4.96249 18.5033 5.31436 18.5035 5.70039V16.4943C18.5032 17.2422 17.7119 17.7247 17.0465 17.383L12.6744 15.1369L8.07874 17.3273C7.6088 17.5513 7.06289 17.5547 6.59045 17.3361L2.08459 15.2512C1.7311 15.0875 1.50458 14.7335 1.50452 14.3439V3.50117C1.50485 2.75377 2.29531 2.27073 2.96057 2.61153L7.34338 4.85762L11.9352 2.67012ZM3.00452 14.0236L6.63538 15.7033V6.17891L3.00452 4.31953V14.0236ZM13.3405 13.7932L17.0035 15.674V6.0168L13.3405 4.28145V13.7932ZM8.13538 6.1418V15.6389L11.8405 13.8732V4.37617L8.13538 6.1418Z" fill="#1D1C1D"/>
</svg>
