<svg width="20" height="20" viewBox="0 0 20 20" fill="none" xmlns="http://www.w3.org/2000/svg">
<path fill-rule="evenodd" clip-rule="evenodd" d="M10.0996 1.84961C14.6559 1.84961 18.3495 5.54337 18.3496 10.0996C18.3496 14.656 14.656 18.3496 10.0996 18.3496C5.54337 18.3495 1.84961 14.6559 1.84961 10.0996C1.84974 5.54345 5.54345 1.84974 10.0996 1.84961ZM13.6807 10.5195C13.3879 10.2268 12.913 10.227 12.6201 10.5195L10.0498 13.0889L7.48047 10.5195C7.18768 10.2267 6.71284 10.2269 6.41992 10.5195C6.12703 10.8124 6.12703 11.2872 6.41992 11.5801L9.51953 14.6797C9.81243 14.9725 10.2872 14.9726 10.5801 14.6797L13.6807 11.5801C13.9731 11.2872 13.9733 10.8123 13.6807 10.5195ZM13.6807 6.31934C13.3879 6.02658 12.913 6.02685 12.6201 6.31934L10.0498 8.88867L7.48047 6.31934C7.18768 6.02654 6.71284 6.02675 6.41992 6.31934C6.12703 6.61223 6.12703 7.08699 6.41992 7.37988L9.51953 10.4795C9.81243 10.7723 10.2872 10.7724 10.5801 10.4795L13.6807 7.37988C13.9731 7.08701 13.9733 6.61211 13.6807 6.31934Z" fill="#1D1C1D"/>
</svg>
