<svg width="20" height="20" viewBox="0 0 20 20" fill="none" xmlns="http://www.w3.org/2000/svg">
<path d="M9.71619 2.59277C10.1795 2.59277 10.4335 3.21617 10.1869 3.6084C9.75143 4.30121 9.50037 5.12129 9.50037 6C9.50037 8.48528 11.5151 10.5 14.0004 10.5C14.8902 10.4999 15.7201 10.2417 16.4183 9.7959C16.8115 9.5451 17.4447 9.8002 17.4447 10.2666V15.1123C17.4447 16.3825 16.4151 17.4121 15.1449 17.4121H4.85486C3.58469 17.412 2.55505 16.3825 2.55505 15.1123V4.89258C2.55516 3.62241 3.58272 2.59277 4.85291 2.59277H9.71619ZM14.0004 3C15.657 3.00026 17.0004 4.34331 17.0004 6C17.0004 7.65669 15.657 8.99974 14.0004 9C12.3435 9 11.0004 7.65685 11.0004 6C11.0004 4.34315 12.3435 3 14.0004 3Z" fill="#1D1C1D"/>
</svg>
