<svg width="20" height="20" viewBox="0 0 20 20" fill="none" xmlns="http://www.w3.org/2000/svg">
<path d="M10 9.35059C10.1988 9.35067 10.3897 9.42973 10.5303 9.57031L13.6309 12.6699C13.9233 12.9628 13.9235 13.4377 13.6309 13.7305C13.3381 14.0232 12.8632 14.023 12.5703 13.7305L10 11.1611L7.43066 13.7305C7.13786 14.0233 6.66303 14.0231 6.37012 13.7305C6.07723 13.4376 6.07723 12.9628 6.37012 12.6699L9.46973 9.57031C9.61029 9.42976 9.80123 9.35068 10 9.35059Z" fill="#1D1C1D"/>
<path d="M9.46973 5.37012C9.76263 5.07741 10.2374 5.07729 10.5303 5.37012L13.6309 8.46973C13.9234 8.76255 13.9234 9.23745 13.6309 9.53027C13.3381 9.82308 12.8632 9.82289 12.5703 9.53027L10 6.96094L7.43066 9.53027C7.13783 9.8231 6.66303 9.82298 6.37012 9.53027C6.07723 9.23738 6.07723 8.76262 6.37012 8.46973L9.46973 5.37012Z" fill="#1D1C1D"/>
<path fill-rule="evenodd" clip-rule="evenodd" d="M10 1C14.9706 1 19 5.02944 19 10C19 14.9706 14.9706 19 10 19C5.02944 19 1 14.9706 1 10C1 5.02944 5.02944 1 10 1ZM10 2.5C5.85786 2.5 2.5 5.85786 2.5 10C2.5 14.1421 5.85786 17.5 10 17.5C14.1421 17.5 17.5 14.1421 17.5 10C17.5 5.85786 14.1421 2.5 10 2.5Z" fill="#1D1C1D"/>
</svg>
