<svg width="20" height="20" viewBox="0 0 20 20" fill="none" xmlns="http://www.w3.org/2000/svg">
<path d="M12.6201 10.5195C12.913 10.227 13.3879 10.2268 13.6807 10.5195C13.9733 10.8123 13.9731 11.2872 13.6807 11.5801L10.5801 14.6797C10.2872 14.9726 9.81243 14.9725 9.51953 14.6797L6.41992 11.5801C6.12703 11.2872 6.12703 10.8124 6.41992 10.5195C6.71284 10.2269 7.18768 10.2267 7.48047 10.5195L10.0498 13.0889L12.6201 10.5195Z" fill="#1D1C1D"/>
<path d="M12.6201 6.31934C12.913 6.02685 13.3879 6.02658 13.6807 6.31934C13.9733 6.61211 13.9731 7.08701 13.6807 7.37988L10.5801 10.4795C10.2872 10.7724 9.81243 10.7723 9.51953 10.4795L6.41992 7.37988C6.12703 7.08699 6.12703 6.61223 6.41992 6.31934C6.71284 6.02675 7.18768 6.02654 7.48047 6.31934L10.0498 8.88867L12.6201 6.31934Z" fill="#1D1C1D"/>
<path fill-rule="evenodd" clip-rule="evenodd" d="M10.0996 1.09961C15.0701 1.09961 19.0995 5.12916 19.0996 10.0996C19.0996 15.0702 15.0702 19.0996 10.0996 19.0996C5.12916 19.0995 1.09961 15.0701 1.09961 10.0996C1.09974 5.12924 5.12924 1.09974 10.0996 1.09961ZM10.0996 2.59961C5.95767 2.59974 2.59974 5.95767 2.59961 10.0996C2.59961 14.2417 5.95759 17.5995 10.0996 17.5996C14.2417 17.5996 17.5996 14.2417 17.5996 10.0996C17.5995 5.95759 14.2417 2.59961 10.0996 2.59961Z" fill="#1D1C1D"/>
</svg>
