<svg width="20" height="20" viewBox="0 0 20 20" fill="none" xmlns="http://www.w3.org/2000/svg">
<path d="M13.0776 2.59375C13.4946 2.59376 13.7284 3.07427 13.4711 3.40234L12.3657 4.80957C11.3847 3.83915 9.80309 3.8475 8.83246 4.82812C7.86184 5.80916 7.86997 7.39168 8.85101 8.3623L10.8432 10.333C11.3496 10.8341 12.0463 11.0953 12.7573 11.0508C13.468 11.0062 14.126 10.6606 14.5659 10.1006L16.5434 7.58203C16.8367 7.2085 17.437 7.4157 17.437 7.89062V15.1074C17.437 16.377 16.4077 17.4061 15.1381 17.4062H4.85297C3.58335 17.4062 2.55414 16.377 2.55414 15.1074V4.89258C2.55418 3.62296 3.58139 2.59375 4.85101 2.59375H13.0776ZM16.1059 2.88379C16.3616 2.55813 16.8329 2.50134 17.1586 2.75684C17.4843 3.01257 17.5411 3.48381 17.2856 3.80957L13.1948 9.01953C13.0627 9.18748 12.865 9.29133 12.6518 9.30469C12.4386 9.31788 12.2294 9.23912 12.0776 9.08887L10.0844 7.11719C9.79034 6.82593 9.78759 6.35102 10.0786 6.05664C10.3698 5.76231 10.8446 5.75981 11.1391 6.05078L12.5336 7.43066L16.1059 2.88379Z" fill="#1D1C1D"/>
</svg>
