<svg width="20" height="20" viewBox="0 0 20 20" fill="none" xmlns="http://www.w3.org/2000/svg">
<path d="M9.20569 2.65527C9.6199 2.65527 9.95569 2.99106 9.95569 3.40527C9.95569 3.81949 9.6199 4.15527 9.20569 4.15527H4.78479C4.37121 4.15527 4.03577 4.49042 4.03577 4.90527V15.1992C4.03577 15.6134 4.37155 15.9492 4.78577 15.9492H15.1432C15.5573 15.9491 15.8932 15.6134 15.8932 15.1992V10.8486C15.8932 10.4345 16.229 10.0986 16.6432 10.0986C17.0573 10.0987 17.3931 10.4345 17.3932 10.8486V15.1992C17.3932 16.4418 16.3858 17.4491 15.1432 17.4492H4.78577C3.54313 17.4492 2.53577 16.4419 2.53577 15.1992V4.90527C2.53577 3.66327 3.54151 2.65527 4.78479 2.65527H9.20569ZM13.9645 2.5498C15.8974 2.5499 17.4645 4.11687 17.4645 6.0498C17.4645 7.98274 15.8974 9.54971 13.9645 9.5498C12.0315 9.5498 10.4645 7.9828 10.4645 6.0498C10.4645 4.11681 12.0315 2.5498 13.9645 2.5498ZM13.9645 4.0498C12.8599 4.0498 11.9645 4.94524 11.9645 6.0498C11.9645 7.15437 12.8599 8.0498 13.9645 8.0498C15.069 8.04971 15.9645 7.15431 15.9645 6.0498C15.9645 4.9453 15.069 4.0499 13.9645 4.0498Z" fill="#1D1C1D"/>
</svg>
