<svg width="20" height="20" viewBox="0 0 20 20" fill="none" xmlns="http://www.w3.org/2000/svg">
<path fill-rule="evenodd" clip-rule="evenodd" d="M10 1C14.9706 1 19 5.02944 19 10C19 14.9706 14.9706 19 10 19C5.02944 19 1 14.9706 1 10C1 5.02944 5.02944 1 10 1ZM10 9.35059C9.85086 9.35067 9.70624 9.39497 9.58398 9.47656L9.46973 9.57031L6.37012 12.6699C6.07727 12.9628 6.07733 13.4376 6.37012 13.7305C6.66304 14.023 7.1379 14.0232 7.43066 13.7305L10 11.1602L12.5703 13.7305C12.8632 14.023 13.3381 14.0232 13.6309 13.7305C13.9235 13.4377 13.9233 12.9628 13.6309 12.6699L10.5303 9.57031C10.3897 9.4298 10.1987 9.35068 10 9.35059ZM10 5.15039C9.80121 5.15048 9.6103 5.22955 9.46973 5.37012L6.37012 8.46973C6.0773 8.76256 6.07743 9.23737 6.37012 9.53027C6.66304 9.82278 7.1379 9.82303 7.43066 9.53027L10 6.95996L12.5703 9.53027C12.8632 9.82278 13.3381 9.82303 13.6309 9.53027C13.9233 9.23748 13.9233 8.76255 13.6309 8.46973L10.5303 5.37012C10.3897 5.22966 10.1987 5.15049 10 5.15039Z" fill="#1D1C1D"/>
</svg>
