<svg width="20" height="20" viewBox="0 0 20 20" fill="none" xmlns="http://www.w3.org/2000/svg">
<path d="M12.2293 2.6053C12.6435 2.6053 12.9793 2.94111 12.9793 3.3553C12.9793 3.76952 12.6435 4.1053 12.2293 4.1053H4.81134C4.39789 4.1053 4.06233 4.44035 4.06232 4.8553V15.1493C4.06232 15.5635 4.3981 15.8993 4.81232 15.8993H15.1697C15.5839 15.8992 15.9197 15.5634 15.9197 15.1493V8.76644C15.9198 8.35224 16.2555 8.01644 16.6697 8.01644C17.0839 8.01652 17.4197 8.35229 17.4197 8.76644V15.1493C17.4197 16.3918 16.4123 17.3992 15.1697 17.3993H4.81232C3.56968 17.3993 2.56232 16.3919 2.56232 15.1493V4.8553C2.56233 3.61343 3.56796 2.6053 4.81134 2.6053H12.2293ZM16.0984 2.88655C16.3543 2.5609 16.8254 2.50384 17.1512 2.7596C17.4766 3.01532 17.5335 3.48663 17.2781 3.81234L13.1873 9.0223C13.0553 9.19024 12.8575 9.29403 12.6443 9.30745C12.431 9.32077 12.2221 9.24191 12.0701 9.09163L10.077 7.11995C9.78256 6.82867 9.77992 6.35387 10.0711 6.05941C10.3624 5.76511 10.8372 5.76233 11.1317 6.05355L12.5262 7.43343L16.0984 2.88655Z" fill="#1D1C1D"/>
</svg>
