<svg width="20" height="20" viewBox="0 0 20 20" fill="none" xmlns="http://www.w3.org/2000/svg">
<path d="M14.8994 1.81236C16.4486 0.932343 18.5 1.99943 18.5 3.78111V11.7186C18.5 13.5003 16.4486 14.5674 14.8994 13.6874C13.3402 12.8017 11.6193 11.9999 10.5 11.9999H10.376L11.8184 15.3631C12.3079 16.5053 11.7779 17.8287 10.6357 18.3182C9.49385 18.8072 8.17117 18.2783 7.68164 17.1366L5.5752 12.2215C5.54422 12.1492 5.52987 12.0742 5.52246 11.9999H4.49902L4.34473 11.996C2.75953 11.9158 1.5 10.6051 1.5 8.99986V6.49986C1.50007 4.89472 2.75957 3.58394 4.34473 3.50377L4.49902 3.49986H10.5C11.4794 3.49986 12.9194 2.88632 14.3086 2.13951L14.8994 1.81236ZM9.06055 16.5448C9.22364 16.9253 9.66432 17.1021 10.0449 16.9393C10.4256 16.7761 10.6026 16.3347 10.4395 15.954L8.83887 12.2215C8.80789 12.1492 8.79351 12.0742 8.78613 11.9999H7.1123L9.06055 16.5448ZM16.5713 3.11998C16.2744 2.96048 15.9241 2.95515 15.6406 3.11607C14.8304 3.5763 13.9476 4.03284 13.0996 4.37779C12.2874 4.70815 11.3578 4.99986 10.5 4.99986H9V10.4999H10.5C11.3577 10.4999 12.2874 10.7916 13.0996 11.1219C13.9476 11.4669 14.8304 11.9234 15.6406 12.3837C15.9241 12.5446 16.2743 12.5393 16.5713 12.3797C16.859 12.225 17 11.9837 17 11.7186V3.78111C17 3.51601 16.8591 3.27469 16.5713 3.11998ZM4.49902 4.99986C3.67145 4.99986 3.00007 5.67068 3 6.49986V8.99986C3 9.8291 3.67141 10.4999 4.49902 10.4999H7.5V4.99986H4.49902Z" fill="#1D1C1D"/>
</svg>
