<svg width="20" height="20" viewBox="0 0 20 20" fill="none" xmlns="http://www.w3.org/2000/svg">
<path d="M10.8027 13.4999C10.9026 13.5 10.9928 13.5595 11.0322 13.6512L11.6904 15.1874C12.1799 16.3295 11.651 17.6529 10.5088 18.1424C9.36683 18.6317 8.04433 18.1026 7.55469 16.9608L6.2207 13.8485C6.15005 13.6836 6.27091 13.5001 6.4502 13.4999H10.8027ZM14.8994 1.81236C16.4486 0.932343 18.5 1.99943 18.5 3.78111V11.7186C18.5 13.5003 16.4486 14.5674 14.8994 13.6874C13.3402 12.8017 11.6193 11.9999 10.5 11.9999H4.49902C2.84217 11.9999 1.5 10.6567 1.5 8.99986V6.49986C1.50007 4.84307 2.84221 3.49986 4.49902 3.49986H10.5C11.6194 3.49986 13.3402 2.69808 14.8994 1.81236ZM8.25 4.99986C7.83583 4.99986 7.50007 5.33571 7.5 5.74986V9.74986C7.5 10.1641 7.83579 10.4999 8.25 10.4999C8.66421 10.4999 9 10.1641 9 9.74986V5.74986C8.99993 5.33571 8.66417 4.99986 8.25 4.99986Z" fill="#1D1C1D"/>
</svg>
