<svg width="12" height="12" viewBox="0 0 12 12" fill="none" xmlns="http://www.w3.org/2000/svg">
<path d="M6.00018 1.0498C8.68692 1.04991 10.8721 3.19059 10.9465 5.85938L10.9182 5.96777C10.7108 6.74537 10.0061 7.28688 9.20135 7.28711C8.8488 7.28711 8.56268 7.00099 8.56268 6.64844V4.21191C8.56247 3.93602 8.33861 3.71202 8.06268 3.71191C7.83707 3.71191 7.64739 3.8621 7.58514 4.06738C7.15373 3.71312 6.60196 3.50004 6.00018 3.5C4.61947 3.5 3.50018 4.61929 3.50018 6C3.50018 7.38071 4.61947 8.5 6.00018 8.5C6.75671 8.49995 7.4324 8.16185 7.89081 7.63086C8.18978 8.02911 8.66517 8.28711 9.20135 8.28711C9.68966 8.28702 10.1531 8.15782 10.5578 7.93066C9.80528 9.70478 8.04868 10.9501 6.00018 10.9502C3.26644 10.9502 1.05009 8.73372 1.04999 6C1.04999 3.26619 3.26637 1.0498 6.00018 1.0498ZM6.00018 4.5C6.82853 4.50009 7.50018 5.17163 7.50018 6C7.50018 6.82837 6.82853 7.49991 6.00018 7.5C5.17176 7.5 4.50018 6.82843 4.50018 6C4.50018 5.17157 5.17176 4.5 6.00018 4.5Z" fill="#1D1C1D"/>
</svg>
