<svg width="20" height="20" viewBox="0 0 20 20" fill="none" xmlns="http://www.w3.org/2000/svg">
<path d="M10 1C14.7826 1 18.6915 4.73058 18.9805 9.44043L18.8252 10.0234C18.4748 11.3364 17.2857 12.25 15.9268 12.25H15.75C15.1977 12.25 14.75 11.8023 14.75 11.25V6.75C14.75 6.19772 14.3023 5.75 13.75 5.75C13.3864 5.75 13.0686 5.94425 12.8936 6.23438C12.0922 5.6177 11.0893 5.25 10 5.25C7.37665 5.25 5.25 7.37665 5.25 10C5.25 12.6234 7.37665 14.75 10 14.75C11.3808 14.75 12.6223 14.1594 13.4902 13.2188C14.0402 13.8495 14.8474 14.25 15.75 14.25H15.9268C16.7394 14.25 17.5149 14.0526 18.2031 13.7002C16.7916 16.8245 13.6512 19 10 19C5.02944 19 1 14.9706 1 10C1 5.02944 5.02944 1 10 1ZM10 7.25C11.5188 7.25 12.75 8.48122 12.75 10C12.75 11.5188 11.5188 12.75 10 12.75C8.48122 12.75 7.25 11.5188 7.25 10C7.25 8.48122 8.48122 7.25 10 7.25Z" fill="#1D1C1D"/>
</svg>
