<svg width="20" height="20" viewBox="0 0 20 20" fill="none" xmlns="http://www.w3.org/2000/svg">
<path d="M10 1C14.9706 1 19 5.02944 19 10V10.6445C19 12.4976 17.4976 14 15.6445 14C14.7441 13.9999 13.9502 13.5488 13.4727 12.8613C12.6473 13.8619 11.3983 14.5 10 14.5C7.51472 14.5 5.5 12.4853 5.5 10C5.5 7.51472 7.51472 5.5 10 5.5C11.1559 5.5 12.2099 5.93604 13.0068 6.65234C13.0547 6.2843 13.3689 6 13.75 6C14.1642 6 14.5 6.33579 14.5 6.75V11.3555C14.5001 11.9875 15.0125 12.4999 15.6445 12.5C16.6692 12.5 17.5 11.6692 17.5 10.6445V10C17.5 5.85786 14.1421 2.5 10 2.5C5.85786 2.5 2.5 5.85786 2.5 10C2.5 14.1421 5.85786 17.5 10 17.5C11.6097 17.5 13.0992 16.9939 14.3203 16.1318C14.6586 15.893 15.1263 15.9733 15.3652 16.3115C15.6041 16.6499 15.5239 17.1185 15.1855 17.3574C13.7196 18.3923 11.9295 19 10 19C5.02944 19 1 14.9706 1 10C1 5.02944 5.02944 1 10 1ZM10 7C8.34315 7 7 8.34315 7 10C7 11.6569 8.34315 13 10 13C11.6569 13 13 11.6569 13 10C13 8.34315 11.6569 7 10 7Z" fill="#1D1C1D"/>
</svg>
