<svg width="12" height="12" viewBox="0 0 12 12" fill="none" xmlns="http://www.w3.org/2000/svg">
<path d="M5.99963 0.962891C8.78164 0.962891 11.0375 3.21805 11.0377 6C11.0377 6.00327 11.0368 6.00651 11.0367 6.00977V6.35547C11.0365 7.42276 10.1715 8.28809 9.10413 8.28809C8.58661 8.28792 8.12981 8.03195 7.85022 7.64062C7.39662 8.15175 6.73658 8.47559 5.99963 8.47559L5.7467 8.46289C4.49878 8.33604 3.52502 7.28139 3.52502 6C3.52524 4.63341 4.63304 3.5256 5.99963 3.52539C6.59959 3.52539 7.1492 3.73959 7.57776 4.09473C7.63092 3.87587 7.82697 3.71307 8.06213 3.71289C8.33828 3.71289 8.56213 3.93675 8.56213 4.21289V6.74609C8.5623 7.04518 8.80507 7.28781 9.10413 7.28809C9.61919 7.28809 10.0365 6.87047 10.0367 6.35547V5.99219C10.0323 3.76611 8.22675 1.96289 5.99963 1.96289C3.77009 1.9631 1.96274 3.77046 1.96252 6C1.96252 8.22972 3.76996 10.0379 5.99963 10.0381C6.8663 10.0381 7.66849 9.76578 8.32581 9.30176C8.55139 9.1425 8.86283 9.19629 9.02209 9.42188C9.18123 9.64745 9.12752 9.95894 8.90198 10.1182C8.08149 10.6974 7.07944 11.0381 5.99963 11.0381C3.21768 11.0379 0.962524 8.782 0.962524 6C0.962735 3.21818 3.21781 0.963102 5.99963 0.962891ZM5.99963 4.52539C5.18532 4.5256 4.52524 5.18569 4.52502 6C4.52502 6.81449 5.18519 7.47537 5.99963 7.47559C6.81425 7.47559 7.47522 6.81462 7.47522 6C7.47501 5.18556 6.81412 4.52539 5.99963 4.52539Z" fill="#1D1C1D"/>
</svg>
