<svg width="20" height="20" viewBox="0 0 20 20" fill="none" xmlns="http://www.w3.org/2000/svg">
<path d="M18.25 14C18.6642 14 19 14.3358 19 14.75C19 15.1642 18.6642 15.5 18.25 15.5H1.75C1.33579 15.5 1 15.1642 1 14.75C1 14.3358 1.33579 14 1.75 14H18.25ZM18.25 9.25C18.6642 9.25 19 9.58579 19 10C19 10.4142 18.6642 10.75 18.25 10.75H1.75C1.33579 10.75 1 10.4142 1 10C1 9.58579 1.33579 9.25 1.75 9.25H18.25ZM18.25 4.5C18.6642 4.5 19 4.83579 19 5.25C19 5.66421 18.6642 6 18.25 6H1.75C1.33579 6 1 5.66421 1 5.25C1 4.83579 1.33579 4.5 1.75 4.5H18.25Z" fill="#1D1C1D"/>
</svg>
