<svg width="20" height="20" viewBox="0 0 20 20" fill="none" xmlns="http://www.w3.org/2000/svg">
<path d="M1.5 10C1.5 5.30558 5.30558 1.5 10 1.5C10.7573 1.5 11.4929 1.59956 12.1934 1.78613C12.5933 1.89287 12.8309 2.30311 12.7246 2.70312C12.618 3.10337 12.2069 3.34196 11.8066 3.23535C11.2311 3.08208 10.6257 3 10 3C6.13401 3 3 6.13401 3 10C3.00001 13.866 6.13401 17 10 17C11.2331 17 12.3899 16.6822 13.3945 16.124L13.5225 16.0674C13.655 16.0234 13.798 16.0174 13.9355 16.0508L16.7295 16.7295L16.0508 13.9355C16.0063 13.7523 16.0325 13.5593 16.124 13.3945C16.6822 12.3899 17 11.2331 17 10C17 9.03813 16.8067 8.12326 16.457 7.29101C16.2966 6.90916 16.4756 6.46907 16.8574 6.30859C17.2392 6.14817 17.6793 6.32729 17.8398 6.70898C18.2655 7.72207 18.5 8.8348 18.5 10C18.5 11.3876 18.1662 12.699 17.5752 13.8574L18.4785 17.5723C18.5404 17.8266 18.4654 18.0952 18.2803 18.2803C18.0952 18.4653 17.8266 18.5404 17.5723 18.4785L13.8574 17.5752C12.699 18.1662 11.3876 18.5 10 18.5C5.30558 18.5 1.50001 14.6944 1.5 10ZM6.5 8.73145C6.50014 8.31735 6.83587 7.98145 7.25 7.98145L12.75 7.98144C13.1641 7.98145 13.4999 8.31735 13.5 8.73144C13.5 9.14566 13.1642 9.48144 12.75 9.48144L7.25 9.48145C6.83579 9.48145 6.5 9.14566 6.5 8.73145ZM6.5 11.7314C6.50014 11.3174 6.83587 10.9814 7.25 10.9814L11.833 10.9814C12.2471 10.9814 12.5829 11.3174 12.583 11.7314C12.583 12.1457 12.2472 12.4814 11.833 12.4814L7.25 12.4814C6.83579 12.4814 6.5 12.1457 6.5 11.7314Z" fill="#1D1C1D"/>
</svg>
