<svg width="12" height="12" viewBox="0 0 12 12" fill="none" xmlns="http://www.w3.org/2000/svg">
<path d="M6.00037 0.849609C8.84445 0.84982 11.1498 3.15586 11.1498 6C11.1497 6.83316 10.9492 7.62008 10.597 8.31738L11.1361 10.5312C11.1774 10.7008 11.1267 10.8795 11.0033 11.0029C10.8799 11.1263 10.7012 11.177 10.5316 11.1357L8.31775 10.5967C7.62044 10.9489 6.83353 11.1494 6.00037 11.1494C3.15623 11.1494 0.850187 8.84409 0.849976 6C0.849976 3.15573 3.1561 0.849609 6.00037 0.849609ZM6.00037 1.84961C3.70838 1.84961 1.84998 3.70802 1.84998 6C1.85019 8.2918 3.70851 10.1494 6.00037 10.1494C6.73135 10.1493 7.41665 9.9607 8.01208 9.62988C8.12201 9.5688 8.25122 9.55133 8.37341 9.58105L9.97009 9.96973L9.58142 8.37305C9.5517 8.25085 9.56917 8.12164 9.63025 8.01172C9.96106 7.41628 10.1497 6.73098 10.1498 6C10.1498 3.70815 8.29217 1.84982 6.00037 1.84961Z" fill="#1D1C1D"/>
</svg>
