<svg width="20" height="20" viewBox="0 0 20 20" fill="none" xmlns="http://www.w3.org/2000/svg">
<path d="M15.7498 7.49986C16.164 7.49986 16.4998 7.83566 16.4998 8.24986V8.49986C16.4998 11.836 13.9863 14.583 10.7498 14.9549V16.4999H12.2498C12.664 16.4999 12.9998 16.8357 12.9998 17.2499C12.9998 17.6641 12.6641 17.9999 12.2498 17.9999H7.74984C7.33563 17.9999 6.99984 17.6641 6.99984 17.2499C6.99986 16.8357 7.33564 16.4999 7.74984 16.4999H9.24984V14.9549C8.68464 14.8893 8.14149 14.7522 7.62972 14.5516L8.71371 13.3319C9.12416 13.4409 9.5551 13.4999 9.99984 13.4999C12.7613 13.4999 14.9998 11.2613 14.9998 8.49986V8.24986C14.9999 7.83566 15.3356 7.49986 15.7498 7.49986ZM14.9383 1.75279C15.2128 1.44272 15.6867 1.41395 15.9969 1.68833C16.307 1.96281 16.3358 2.43675 16.0614 2.74693L4.56137 15.7469C4.28689 16.057 3.81295 16.0858 3.50277 15.8114C3.19271 15.5369 3.16393 15.063 3.43832 14.7528L14.9383 1.75279ZM13.4998 8.49986C13.4998 10.4328 11.9328 11.9998 9.99984 11.9999C9.96685 11.9999 9.93399 11.9978 9.90121 11.9969L13.4998 7.94908V8.49986ZM4.24984 7.49986C4.66404 7.49986 4.99982 7.83566 4.99984 8.24986V8.49986C4.99984 9.15044 5.12533 9.77155 5.3514 10.3417L4.26547 11.5633C3.77684 10.6506 3.49984 9.60755 3.49984 8.49986V8.24986C3.49986 7.83566 3.83564 7.49986 4.24984 7.49986ZM9.99984 1.99986C10.7997 1.99986 11.5364 2.26899 12.1258 2.72056L6.53597 9.00865C6.51179 8.84257 6.49984 8.67263 6.49984 8.49986V5.49986C6.49985 3.56686 8.06685 1.99986 9.99984 1.99986Z" fill="#1D1C1D"/>
</svg>
