<svg width="12" height="12" viewBox="0 0 12 12" fill="none" xmlns="http://www.w3.org/2000/svg">
<path fill-rule="evenodd" clip-rule="evenodd" d="M5.99998 1.65039C5.08871 1.65039 4.34998 2.38912 4.34998 3.30039V5.10039C4.34998 6.01166 5.08871 6.75039 5.99998 6.75039C6.91125 6.75039 7.64998 6.01166 7.64998 5.10039V3.30039C7.64998 2.38912 6.91125 1.65039 5.99998 1.65039ZM2.04999 4.95068V5.10107C2.05018 7.11299 3.55472 8.77318 5.5 9.01893V9.85059H4.64978C4.37373 9.85069 4.14978 10.0745 4.14978 10.3506C4.14978 10.6267 4.37373 10.8505 4.64978 10.8506H7.34998C7.62612 10.8506 7.84998 10.6267 7.84998 10.3506C7.84998 10.0744 7.62612 9.85059 7.34998 9.85059H6.5V9.01895C8.44539 8.77327 9.95018 7.11305 9.95038 5.10107V4.95068C9.95038 4.67467 9.72634 4.45089 9.45038 4.45068C9.17424 4.45068 8.95038 4.67454 8.95038 4.95068V5.10107C8.95017 6.73007 7.6292 8.05019 6.00018 8.05029C4.37107 8.05029 3.0502 6.73013 3.04999 5.10107V4.95068C3.04999 4.67454 2.82613 4.45068 2.54999 4.45068C2.27385 4.45068 2.04999 4.67454 2.04999 4.95068Z" fill="#1D1C1D"/>
</svg>
