<svg width="20" height="20" viewBox="0 0 20 20" fill="none" xmlns="http://www.w3.org/2000/svg">
<path d="M15.75 7.5C16.1642 7.5 16.5 7.83579 16.5 8.25V8.5C16.5 11.8361 13.9865 14.5831 10.75 14.9551V16.5H12.25C12.6642 16.5 13 16.8358 13 17.25C13 17.6642 12.6642 18 12.25 18H7.75C7.33579 18 7 17.6642 7 17.25C7 16.8358 7.33579 16.5 7.75 16.5H9.25V14.9551C6.01354 14.5831 3.5 11.8361 3.5 8.5V8.25C3.5 7.83579 3.83579 7.5 4.25 7.5C4.66421 7.5 5 7.83579 5 8.25V8.5C5 11.2614 7.23858 13.5 10 13.5C12.7614 13.5 15 11.2614 15 8.5V8.25C15 7.83579 15.3358 7.5 15.75 7.5ZM10 2C11.933 2 13.5 3.567 13.5 5.5V8.5C13.5 10.433 11.933 12 10 12C8.067 12 6.5 10.433 6.5 8.5V5.5C6.5 3.567 8.067 2 10 2Z" fill="#1D1C1D"/>
</svg>
