<svg width="20" height="20" viewBox="0 0 20 20" fill="none" xmlns="http://www.w3.org/2000/svg">
<path d="M15.7498 7.49986C16.1641 7.49986 16.4998 7.83565 16.4998 8.24986V8.49986C16.4998 11.836 13.9863 14.583 10.7498 14.9549V16.4999H12.2498C12.6641 16.4999 12.9998 16.8356 12.9998 17.2499C12.9998 17.6641 12.6641 17.9999 12.2498 17.9999H7.74985C7.33564 17.9999 6.99985 17.6641 6.99985 17.2499C6.99985 16.8356 7.33564 16.4999 7.74985 16.4999H9.24985V14.9549C8.68465 14.8893 8.1415 14.7522 7.62973 14.5516L8.71372 13.3319C9.12417 13.4409 9.55511 13.4999 9.99985 13.4999C12.7613 13.4999 14.9998 11.2613 14.9998 8.49986V8.24986C14.9999 7.83565 15.3356 7.49986 15.7498 7.49986ZM14.9383 1.75279C15.2128 1.44272 15.6867 1.41395 15.9969 1.68833C16.307 1.96281 16.3358 2.43675 16.0614 2.74693L4.56137 15.7469C4.2869 16.057 3.81296 16.0858 3.50278 15.8114C3.19272 15.5369 3.16394 15.063 3.43833 14.7528L14.9383 1.75279ZM13.4998 8.49986C13.4998 10.4329 11.9328 11.9999 9.99985 11.9999C9.96685 11.9999 9.934 11.9978 9.90122 11.9969L13.4998 7.94908V8.49986ZM4.24985 7.49986C4.66406 7.49986 4.99985 7.83565 4.99985 8.24986V8.49986C4.99985 9.15045 5.12533 9.77154 5.35141 10.3417L4.26547 11.5633C3.77684 10.6506 3.49985 9.60755 3.49985 8.49986V8.24986C3.49985 7.83565 3.83564 7.49986 4.24985 7.49986ZM9.99985 1.99986C10.7997 1.99986 11.5364 2.26899 12.1258 2.72056L11.1248 3.84654C10.8043 3.62798 10.4171 3.49986 9.99985 3.49986C8.89529 3.49986 7.99985 4.39529 7.99985 5.49986V7.36216L6.53598 9.00865C6.5118 8.84258 6.49985 8.67263 6.49985 8.49986V5.49986C6.49985 3.56687 8.06686 1.99986 9.99985 1.99986Z" fill="#1D1C1D"/>
</svg>
