<svg width="12" height="12" viewBox="0 0 12 12" fill="none" xmlns="http://www.w3.org/2000/svg">
<path d="M9.45019 4.44983C9.72615 4.45004 9.95019 4.67382 9.95019 4.94983V5.10022C9.94996 7.11212 8.44529 8.7705 6.49999 9.01624V9.84925H7.3496C7.6257 9.84925 7.84953 10.0732 7.8496 10.3492C7.8496 10.6254 7.62574 10.8492 7.3496 10.8492H4.64941C4.37355 10.8489 4.14941 10.6252 4.14941 10.3492C4.14948 10.0734 4.3736 9.84959 4.64941 9.84925H5.49999V9.01624C5.18393 8.976 4.87912 8.89981 4.59081 8.78968L5.32128 7.96741C5.53936 8.01881 5.76623 8.04942 5.99999 8.04944C7.62899 8.04934 8.94994 6.72919 8.95019 5.10022V4.94983C8.95019 4.67378 9.17417 4.44998 9.45019 4.44983ZM8.92577 1.01917C9.10874 0.812339 9.425 0.793236 9.63183 0.9762C9.83797 1.15923 9.85747 1.47468 9.6748 1.68128L2.77441 9.48108C2.59163 9.68767 2.27616 9.70736 2.06933 9.52503C1.86251 9.34207 1.84342 9.0258 2.02636 8.81897L8.92577 1.01917ZM8.10058 5.10022C8.10017 6.25773 7.16272 7.19571 6.00585 7.19886L8.10058 4.84339V5.10022ZM2.5498 4.44983C2.82594 4.44983 3.0498 4.67369 3.0498 4.94983V5.10022C3.04985 5.45431 3.11602 5.79255 3.23046 6.10706L2.49902 6.92933C2.21259 6.38245 2.04987 5.76038 2.0498 5.10022V4.94983C2.0498 4.67378 2.27378 4.44998 2.5498 4.44983ZM5.99999 1.19983C6.46157 1.19991 6.88781 1.35067 7.23437 1.60315L3.91405 5.3385C3.90522 5.26041 3.90041 5.18068 3.90038 5.10022V3.29944C3.90059 2.13995 4.8405 1.20004 5.99999 1.19983Z" fill="#1D1C1D"/>
</svg>
