<svg width="12" height="12" viewBox="0 0 12 12" fill="none" xmlns="http://www.w3.org/2000/svg">
<path d="M9.45038 4.45117C9.72634 4.45138 9.95038 4.67516 9.95038 4.95117V5.10156C9.94994 7.1132 8.44524 8.77176 6.50018 9.01758V9.85059H7.34979C7.62593 9.85059 7.84979 10.0744 7.84979 10.3506C7.84979 10.6267 7.62593 10.8506 7.34979 10.8506H4.6496C4.37363 10.8504 4.1496 10.6266 4.1496 10.3506C4.1496 10.0746 4.37363 9.85079 4.6496 9.85059H5.50018V9.01758C3.55506 8.77185 2.05043 7.11327 2.04999 5.10156V4.95117C2.04999 4.67503 2.27385 4.45117 2.54999 4.45117C2.82613 4.45117 3.04999 4.67503 3.04999 4.95117V5.10156C3.05046 6.7304 4.37124 8.05078 6.00018 8.05078C7.62904 8.05068 8.9499 6.73033 8.95038 5.10156V4.95117C8.95038 4.67503 9.17424 4.45117 9.45038 4.45117ZM6.00018 1.15039C7.18742 1.1506 8.1496 2.1135 8.1496 3.30078V5.10059C8.14949 6.28778 7.18735 7.24979 6.00018 7.25C4.81292 7.2499 3.8499 6.28785 3.84979 5.10059V3.30078C3.84979 2.11343 4.81285 1.15049 6.00018 1.15039ZM6.00018 2.15039C5.36514 2.15049 4.84979 2.66571 4.84979 3.30078V5.10059C4.8499 5.73556 5.36521 6.2499 6.00018 6.25C6.63507 6.24979 7.14949 5.73549 7.1496 5.10059V3.30078C7.1496 2.66578 6.63513 2.1506 6.00018 2.15039Z" fill="#1D1C1D"/>
</svg>
