<svg width="12" height="12" viewBox="0 0 12 12" fill="none" xmlns="http://www.w3.org/2000/svg">
<path d="M9.45019 4.49964C9.69841 4.49994 9.89934 4.70155 9.89941 4.94983V5.10022C9.89911 7.0844 8.41746 8.72095 6.49999 8.96643V9.85022H7.3496C7.62574 9.85022 7.8496 10.0741 7.8496 10.3502C7.84935 10.6262 7.62559 10.8502 7.3496 10.8502H4.64941C4.37369 10.8499 4.14965 10.626 4.14941 10.3502C4.14941 10.0743 4.37354 9.85054 4.64941 9.85022H5.49999V8.96643C5.19656 8.92724 4.90349 8.85412 4.62597 8.74964L5.28417 8.01038C5.45074 8.05121 5.62284 8.07963 5.79882 8.09241C5.86043 8.06527 5.92835 8.04944 5.99999 8.04944C6.07131 8.04944 6.1388 8.0655 6.20019 8.09241C7.76351 7.98934 8.99969 6.68952 8.99999 5.10022V4.94983C9.00006 4.7015 9.20189 4.49985 9.45019 4.49964ZM8.92577 1.01917C9.10874 0.812339 9.425 0.793236 9.63183 0.9762C9.83797 1.15923 9.85747 1.47468 9.6748 1.68128L2.77441 9.48108C2.59163 9.68767 2.27616 9.70736 2.06933 9.52503C1.86251 9.34207 1.84342 9.0258 2.02636 8.81897L8.92577 1.01917ZM8.14941 5.10022C8.14905 6.28721 7.18701 7.24943 5.99999 7.24964C5.98771 7.2496 5.97511 7.24789 5.96288 7.24768L8.14941 4.78772V5.10022ZM2.5498 4.49964C2.7982 4.49973 2.99992 4.70142 2.99999 4.94983V5.10022C3.00006 5.46988 3.07002 5.82302 3.19238 6.15003L2.53515 6.88929C2.25772 6.35337 2.0997 5.74531 2.0996 5.10022V4.94983C2.09967 4.7015 2.30149 4.49985 2.5498 4.49964ZM5.99999 1.15003C6.47452 1.15011 6.91202 1.30552 7.26757 1.56604L6.59765 2.31897C6.42341 2.21247 6.21912 2.1501 5.99999 2.15003C5.36504 2.15023 4.8496 2.66542 4.8496 3.30042V4.28675L3.87011 5.38733C3.85756 5.2935 3.84964 5.19749 3.8496 5.10022V3.30042C3.8496 2.11313 4.81275 1.15023 5.99999 1.15003Z" fill="#1D1C1D"/>
</svg>
