<svg width="20" height="20" viewBox="0 0 20 20" fill="none" xmlns="http://www.w3.org/2000/svg">
<path d="M16 16.25C16 17.7688 14.7688 19 13.25 19H6.75C5.23122 19 4 17.7688 4 16.25H16ZM9.50586 5.25C9.63656 8.17153 12.0462 10.5 15 10.5C15.3416 10.5 15.6756 10.4668 16 10.4072V14.75H4V5.25H9.50586ZM11.2275 1C10.4545 1.72931 9.89247 2.67912 9.64355 3.75H4C4 2.23122 5.23122 1 6.75 1H11.2275Z" fill="#1D1C1D"/>
<path d="M15 1C17.2091 1 19 2.79086 19 5C19 7.20914 17.2091 9 15 9C12.7909 9 11 7.20914 11 5C11 2.79086 12.7909 1 15 1ZM15 3.25C14.5858 3.25 14.25 3.58579 14.25 4V6C14.25 6.41421 14.5858 6.75 15 6.75C15.4142 6.75 15.75 6.41421 15.75 6V4C15.75 3.58579 15.4142 3.25 15 3.25Z" fill="#1D1C1D"/>
</svg>
