<svg width="20" height="20" viewBox="0 0 20 20" fill="none" xmlns="http://www.w3.org/2000/svg">
<path d="M11.2275 1C10.7717 1.43006 10.3896 1.93668 10.1016 2.5H6.75C6.05964 2.5 5.5 3.05964 5.5 3.75H9.64355C9.5502 4.15163 9.5 4.56996 9.5 5C9.5 5.08379 9.50215 5.16713 9.50586 5.25H5.5V14.75H14.5V10.4756C14.6647 10.4904 14.8314 10.5 15 10.5C15.3416 10.5 15.6756 10.4668 16 10.4072V16.25C16 17.7688 14.7688 19 13.25 19H6.75C5.23122 19 4 17.7688 4 16.25V3.75C4 2.23122 5.23122 1 6.75 1H11.2275ZM5.5 16.25C5.5 16.9404 6.05964 17.5 6.75 17.5H13.25C13.9404 17.5 14.5 16.9404 14.5 16.25H5.5ZM15 1C17.2091 1 19 2.79086 19 5C19 7.20914 17.2091 9 15 9C12.7909 9 11 7.20914 11 5C11 2.79086 12.7909 1 15 1ZM15 2.5C13.6193 2.5 12.5 3.61929 12.5 5C12.5 6.38071 13.6193 7.5 15 7.5C16.3807 7.5 17.5 6.38071 17.5 5C17.5 3.61929 16.3807 2.5 15 2.5ZM15 3.5C15.4142 3.5 15.75 3.83579 15.75 4.25V5.75C15.75 6.16421 15.4142 6.5 15 6.5C14.5858 6.5 14.25 6.16421 14.25 5.75V4.25C14.25 3.83579 14.5858 3.5 15 3.5Z" fill="#1D1C1D"/>
</svg>
