<svg width="20" height="20" viewBox="0 0 20 20" fill="none" xmlns="http://www.w3.org/2000/svg">
<path d="M13.25 1C14.6845 1 15.8609 2.09844 15.9873 3.5H16V16.25C16 17.7688 14.7688 19 13.25 19H6.75C5.23122 19 4 17.7688 4 16.25V3.5H4.0127C4.13906 2.09844 5.31553 1 6.75 1H13.25ZM5.5 16V16.25C5.5 16.9404 6.05964 17.5 6.75 17.5H13.25C13.9404 17.5 14.5 16.9404 14.5 16.25V16H5.5ZM5.5 14.5H14.5V5H5.5V14.5ZM6.75 2.5C6.14529 2.5 5.64124 2.92948 5.52539 3.5H14.4746C14.3588 2.92948 13.8547 2.5 13.25 2.5H6.75Z" fill="#1D1C1D"/>
</svg>
