<svg width="20" height="20" viewBox="0 0 20 20" fill="none" xmlns="http://www.w3.org/2000/svg">
<path d="M17.2732 13.3503C17.3018 13.2873 17.32 13.221 17.328 13.1539L17.3282 13.1527C17.3516 12.9539 17.2858 12.7482 17.1371 12.6013C16.9403 12.4022 16.6479 12.3517 16.3881 12.4652C16.2412 12.5338 16.093 12.5958 15.9437 12.6511C15.319 12.8824 14.6736 12.9973 14.0102 12.9973C10.8833 12.9973 8.33905 10.4529 8.33905 7.32615C8.33905 5.72 8.99462 4.23993 10.1849 3.15561C10.3816 2.96898 10.4547 2.66636 10.3412 2.40663C10.2354 2.15452 9.99573 1.98802 9.70324 2.00067C5.38901 2.1547 2 5.66948 2 9.99405C2 14.4043 5.59828 18 10.006 18C13.1151 18 15.9695 16.1769 17.2732 13.3503Z" fill="#1D1C1D"/>
</svg>
