<svg width="20" height="20" viewBox="0 0 20 20" fill="none" xmlns="http://www.w3.org/2000/svg">
<path d="M9.80957 2.00488C10.0531 2.0315 10.2491 2.18564 10.3418 2.40625C10.4552 2.66592 10.3812 2.96866 10.1846 3.15527C8.99439 4.23959 8.33887 5.72007 8.33887 7.32617C8.33888 10.4529 10.8839 12.9971 14.0107 12.9971C14.8326 12.997 15.6272 12.8204 16.3887 12.4648C16.6483 12.3517 16.9411 12.4026 17.1377 12.6016C17.3366 12.7983 17.3868 13.101 17.2734 13.3506C15.9697 16.1771 13.1148 17.9999 10.0059 18C5.59835 17.9998 2.00005 14.4043 2 9.99414C2 5.66968 5.38905 2.15517 9.70312 2.00098L9.80957 2.00488ZM7.71094 3.90527C5.23819 4.8252 3.5 7.19804 3.5 9.99414C3.50005 13.5755 6.42646 16.4998 10.0059 16.5C11.7031 16.4999 13.3084 15.829 14.5 14.6924L14.7334 14.459C14.4945 14.4834 14.2535 14.4971 14.0107 14.4971C10.0554 14.4971 6.83888 11.2813 6.83887 7.32617C6.83887 6.2578 7.07231 5.23154 7.51074 4.29883L7.71094 3.90527Z" fill="#1D1C1D"/>
</svg>
