<svg width="20" height="20" viewBox="0 0 20 20" fill="none" xmlns="http://www.w3.org/2000/svg">
<path d="M8.41132 7.5C10.1413 7.5 11.5441 8.90285 11.5441 10.6328V15.8672C11.5441 17.5971 10.1412 19 8.41132 19H4.17694C2.44702 19 1.04419 17.5971 1.04413 15.8672V10.6328C1.04413 8.90285 2.44698 7.5 4.17694 7.5H8.41132ZM15.8674 7.5C17.5972 7.5001 19.0002 8.90292 19.0002 10.6328V15.8672C19.0001 17.597 17.5972 18.9999 15.8674 19H15.633C13.9031 19 12.5002 17.5971 12.5002 15.8672V10.6328C12.5002 8.90285 13.903 7.5 15.633 7.5H15.8674ZM6.61444 17.5H8.41132C9.31281 17.5 10.0441 16.7687 10.0441 15.8672V14.0703L6.61444 17.5ZM15.633 9C14.7315 9 14.0002 9.73128 14.0002 10.6328V15.8672C14.0002 16.7687 14.7315 17.5 15.633 17.5H15.8674C16.7688 17.4999 17.5001 16.7686 17.5002 15.8672V10.6328C17.5002 9.73134 16.7688 9.0001 15.8674 9H15.633ZM3.10272 17.0947C3.38998 17.3463 3.76524 17.5 4.17694 17.5H5.20038L10.0441 12.6562V10.6328C10.0441 10.4867 10.0225 10.3457 9.98651 10.2109L3.10272 17.0947ZM2.54413 13.7617V15.8672C2.54414 15.9827 2.55644 16.0954 2.57928 16.2041L9.42694 9.35645C9.14796 9.13411 8.79564 9 8.41132 9H7.30585L2.54413 13.7617ZM4.17694 9C3.27541 9 2.54413 9.73128 2.54413 10.6328V12.3477L5.89178 9H4.17694ZM10.2648 1.04395C12.3678 1.04406 14.4074 1.96666 15.3381 3.66797V2.32324C15.3381 1.90922 15.6741 1.57346 16.0881 1.57324C16.5021 1.57339 16.838 1.90917 16.8381 2.32324V5.5C16.8379 5.914 16.5021 6.24986 16.0881 6.25H12.9113C12.4974 6.24978 12.1615 5.91396 12.1613 5.5C12.1614 5.08598 12.4973 4.75022 12.9113 4.75H14.1848C13.6975 3.45686 12.1984 2.54407 10.2648 2.54395C8.09566 2.54402 6.47744 3.72069 6.24432 5.59277C6.19303 6.00354 5.81821 6.29507 5.40741 6.24414C4.99643 6.19291 4.70488 5.81822 4.75604 5.40723C5.10913 2.5716 7.57463 1.04402 10.2648 1.04395Z" fill="#1D1C1D"/>
</svg>
