<svg width="20" height="20" viewBox="0 0 20 20" fill="none" xmlns="http://www.w3.org/2000/svg">
<path d="M15 2C16.6569 2 18 3.34315 18 5V15C18 16.6569 16.6569 18 15 18H5C3.34315 18 2 16.6569 2 15V5C2 3.34315 3.34315 2 5 2H15ZM13.2256 5.56641C12.7737 5.56641 12.3537 5.65603 11.9658 5.83594C11.5818 6.01194 11.2479 6.28248 10.9639 6.64648C10.6799 7.01047 10.4578 7.47042 10.2979 8.02637C10.1379 8.58232 10.0576 9.24011 10.0576 10C10.0576 10.7559 10.1379 11.4137 10.2979 11.9736C10.4578 12.5296 10.6799 12.9895 10.9639 13.3535C11.2479 13.7175 11.5818 13.9899 11.9658 14.1699C12.3537 14.3458 12.7737 14.4336 13.2256 14.4336C13.6775 14.4336 14.0974 14.3459 14.4854 14.1699C14.8774 13.9899 15.215 13.7175 15.499 13.3535C15.787 12.9895 16.0119 12.5296 16.1719 11.9736C16.3358 11.4137 16.417 10.7558 16.417 10C16.417 9.2402 16.3358 8.58227 16.1719 8.02637C16.0119 7.47041 15.787 7.01047 15.499 6.64648C15.215 6.28248 14.8774 6.01194 14.4854 5.83594C14.0974 5.65599 13.6775 5.56642 13.2256 5.56641ZM3.58301 7.90039L4.05078 8.54199C4.07471 8.57784 4.11047 8.61167 4.1582 8.64355C4.20615 8.67153 4.26039 8.6921 4.32031 8.7041C4.38431 8.7161 4.45055 8.7161 4.51855 8.7041C4.59055 8.6881 4.66238 8.6517 4.73438 8.5957L5.98242 7.55176C5.97042 7.76373 5.96485 7.96995 5.96484 8.16992V13.2275H4.20605V14.3379H9.00684V13.2275H7.44629V5.65039H6.22852L3.58301 7.90039ZM13.2256 6.7959C13.4415 6.79592 13.6496 6.84631 13.8496 6.94629C14.0495 7.04231 14.226 7.21215 14.3779 7.45605C14.5339 7.70003 14.6571 8.02857 14.749 8.44043C14.841 8.85238 14.8877 9.37216 14.8877 10C14.8877 10.6278 14.841 11.1476 14.749 11.5596C14.6571 11.9714 14.5339 12.3 14.3779 12.5439C14.226 12.7878 14.0495 12.9595 13.8496 13.0596C13.6496 13.1556 13.4415 13.2041 13.2256 13.2041C13.0136 13.2041 12.8074 13.1556 12.6074 13.0596C12.4116 12.9596 12.2379 12.7878 12.0859 12.5439C11.9339 12.2999 11.8117 11.9716 11.7197 11.5596C11.6318 11.1476 11.5879 10.6278 11.5879 10C11.5879 9.37218 11.6318 8.85237 11.7197 8.44043C11.8117 8.02843 11.9339 7.70005 12.0859 7.45605C12.2379 7.21221 12.4115 7.04228 12.6074 6.94629C12.8074 6.84629 13.0136 6.7959 13.2256 6.7959Z" fill="#1D1C1D"/>
</svg>
