<svg width="20" height="20" viewBox="0 0 20 20" fill="none" xmlns="http://www.w3.org/2000/svg">
<path d="M15 2C16.6569 2 18 3.34315 18 5V15C18 16.6569 16.6569 18 15 18H5C3.34315 18 2 16.6569 2 15V5C2 3.34315 3.34315 2 5 2H15ZM3.70898 7.94824L4.17676 8.58984C4.20075 8.62583 4.23621 8.6604 4.28418 8.69238C4.33212 8.72035 4.38639 8.73995 4.44629 8.75195C4.51029 8.76395 4.57653 8.76395 4.64453 8.75195C4.71653 8.73595 4.78835 8.69955 4.86035 8.64355L6.1084 7.59961C6.0964 7.81153 6.09082 8.01784 6.09082 8.21777V13.2764H4.33301V14.3857H9.13281V13.2764H7.57227V5.69824H6.35449L3.70898 7.94824ZM13.4473 5.61426C13.0633 5.61428 12.7031 5.66839 12.3672 5.77637C12.0353 5.88037 11.7394 6.03808 11.4795 6.25C11.2235 6.45798 11.0099 6.72017 10.8379 7.03613C10.6659 7.34812 10.5493 7.71195 10.4893 8.12793L11.2695 8.26562C11.4735 8.29762 11.6293 8.28363 11.7373 8.22363C11.8453 8.16365 11.934 8.04227 12.002 7.8584C12.042 7.7144 12.1016 7.58191 12.1816 7.46191C12.2616 7.34201 12.3597 7.23834 12.4756 7.15039C12.5915 7.05849 12.7233 6.98843 12.8711 6.94043C13.023 6.88845 13.1874 6.86232 13.3633 6.8623C13.5553 6.8623 13.7279 6.89029 13.8799 6.94629C14.0356 6.99825 14.1675 7.07779 14.2754 7.18555C14.3873 7.29351 14.4732 7.42797 14.5332 7.58789C14.5932 7.74384 14.623 7.92588 14.623 8.13379C14.623 8.36179 14.5913 8.58009 14.5273 8.78809C14.4674 8.9919 14.3795 9.19373 14.2637 9.39355C14.1477 9.59355 14.0012 9.796 13.8252 10C13.6533 10.2039 13.4572 10.4177 13.2373 10.6416L10.6035 13.2822C10.5116 13.3702 10.4434 13.4701 10.3994 13.582C10.3595 13.6899 10.3399 13.7937 10.3398 13.8936V14.3857H16.291V13.498C16.291 13.35 16.2435 13.2316 16.1475 13.1436C16.0555 13.0517 15.9294 13.0059 15.7695 13.0059H13.5439C13.376 13.0059 13.1976 13.0217 13.0098 13.0537C12.8258 13.0817 12.6392 13.1237 12.4512 13.1797L14.4072 11.1816C14.6392 10.9417 14.8613 10.7056 15.0732 10.4736C15.2852 10.2417 15.469 10.0018 15.625 9.75391C15.785 9.50591 15.9119 9.24563 16.0039 8.97363C16.0998 8.70176 16.1475 8.40576 16.1475 8.08594C16.1475 7.71402 16.0812 7.37621 15.9492 7.07227C15.8172 6.76827 15.6335 6.50799 15.3975 6.29199C15.1615 6.07607 14.8777 5.90994 14.5459 5.79395C14.2139 5.67395 13.8473 5.61426 13.4473 5.61426Z" fill="#1D1C1D"/>
</svg>
