<svg width="20" height="20" viewBox="0 0 20 20" fill="none" xmlns="http://www.w3.org/2000/svg">
<path d="M15 2C16.6569 2 18 3.34315 18 5V15C18 16.6569 16.6569 18 15 18H5C3.34315 18 2 16.6569 2 15V5C2 3.34315 3.34315 2 5 2H15ZM10.042 5.61426C9.602 5.61426 9.19994 5.68794 8.83594 5.83594C8.47195 5.98394 8.16038 6.18639 7.90039 6.44238C7.6404 6.69837 7.43794 6.99595 7.29395 7.33594C7.14998 7.67586 7.07816 8.03983 7.07812 8.42773C7.07812 8.8436 7.14632 9.2076 7.28223 9.51953C7.42222 9.82752 7.60414 10.0878 7.82812 10.2998C8.05202 10.5077 8.30786 10.6636 8.5957 10.7676C8.88356 10.8715 9.1777 10.9238 9.47754 10.9238C9.74154 10.9238 9.99437 10.8921 10.2344 10.8281C10.4741 10.7602 10.6937 10.662 10.8936 10.5342C10.8376 10.6141 10.7796 10.6945 10.7197 10.7744C10.6599 10.8541 10.5961 10.9358 10.5283 11.0195L7.83398 14.3857H9.19629C9.36817 14.3857 9.52228 14.354 9.6582 14.29C9.79412 14.2221 9.89589 14.1399 9.96387 14.0439L11.9502 11.2119C12.0981 11.004 12.2316 10.7939 12.3516 10.582C12.4716 10.37 12.5742 10.1536 12.6582 9.93359C12.7421 9.70983 12.8056 9.47801 12.8496 9.23828C12.8976 8.99828 12.9219 8.74359 12.9219 8.47559C12.9218 8.05584 12.8537 7.67018 12.7178 7.31836C12.5858 6.96636 12.3936 6.66411 12.1416 6.41211C11.8937 6.16026 11.5921 5.96418 11.2363 5.82422C10.8843 5.68422 10.486 5.61426 10.042 5.61426ZM10.0244 6.82617C10.2403 6.82622 10.4383 6.85978 10.6182 6.92773C10.802 6.99569 10.9599 7.09382 11.0918 7.22168C11.2238 7.34968 11.3264 7.50829 11.3984 7.69629C11.4703 7.88019 11.5059 8.09034 11.5059 8.32617C11.5058 8.53411 11.4723 8.72825 11.4043 8.9082C11.3403 9.08811 11.2441 9.24402 11.1162 9.37598C10.9882 9.50798 10.8296 9.61248 10.6416 9.68848C10.4537 9.76434 10.2398 9.80176 10 9.80176C9.54 9.80176 9.18364 9.67583 8.93164 9.42383C8.68389 9.16792 8.55965 8.79806 8.55957 8.31445C8.55957 8.09845 8.59411 7.89973 8.66211 7.71973C8.7301 7.53585 8.82813 7.37802 8.95605 7.24609C9.08401 7.11414 9.23804 7.01243 9.41797 6.94043C9.59797 6.86443 9.80041 6.82617 10.0244 6.82617Z" fill="#1D1C1D"/>
</svg>
