<svg width="20" height="20" viewBox="0 0 20 20" fill="none" xmlns="http://www.w3.org/2000/svg">
<path d="M15 2C16.6569 2 18 3.34315 18 5V15C18 16.6569 16.6569 18 15 18H5C3.34315 18 2 16.6569 2 15V5C2 3.34315 3.34315 2 5 2H15ZM3.8252 7.96191L4.29297 8.60449C4.31697 8.64039 4.35349 8.67413 4.40137 8.70605C4.44931 8.73399 4.50357 8.75364 4.56348 8.76562C4.6273 8.77755 4.69294 8.77756 4.76074 8.76562C4.83274 8.74963 4.90554 8.7142 4.97754 8.6582L6.22461 7.61426C6.21262 7.82617 6.20703 8.0325 6.20703 8.23242V13.29H4.44922V14.4004H9.24902V13.29H7.68945V5.71191H6.4707L3.8252 7.96191ZM10.0479 11.208L10.2041 11.958C10.2241 12.05 10.2717 12.1284 10.3477 12.1924C10.4237 12.2524 10.5123 12.2822 10.6123 12.2822H14.2725V14.4004H15.5615V12.2822H16.3545C16.4502 12.2821 16.5243 12.2541 16.5762 12.1982C16.6281 12.1383 16.6542 12.0682 16.6543 11.9883V11.1299H15.5615V5.71777H14.1582L10.0479 11.208ZM14.3262 7.4043C14.2902 7.72819 14.2725 8.02407 14.2725 8.29199V11.1299H11.6318L14.3262 7.4043Z" fill="#1D1C1D"/>
</svg>
