<svg width="20" height="20" viewBox="0 0 20 20" fill="none" xmlns="http://www.w3.org/2000/svg">
<path d="M15 2C16.6569 2 18 3.34315 18 5V15C18 16.6569 16.6569 18 15 18H5C3.34315 18 2 16.6569 2 15V5C2 3.34315 3.34315 2 5 2H15ZM10 5.56641C9.6 5.56641 9.23151 5.62609 8.89551 5.74609C8.56369 5.86208 8.27798 6.02637 8.03809 6.23828C7.79818 6.44621 7.60961 6.69171 7.47363 6.97559C7.3417 7.25945 7.27643 7.56574 7.27637 7.89355C7.27637 8.34955 7.37989 8.74045 7.58789 9.06445C7.79989 9.38833 8.11624 9.6385 8.53613 9.81445C8.00813 9.98645 7.61821 10.2504 7.36621 10.6064C7.11429 10.9584 6.98828 11.3904 6.98828 11.9023C6.98832 12.2862 7.06014 12.6344 7.2041 12.9463C7.35209 13.2582 7.55834 13.5242 7.82227 13.7441C8.08612 13.964 8.40182 14.1339 8.76953 14.2539C9.14153 14.3739 9.552 14.4336 10 14.4336C10.4479 14.4336 10.8557 14.3738 11.2236 14.2539C11.5955 14.1339 11.9138 13.9641 12.1777 13.7441C12.4417 13.5242 12.646 13.2582 12.79 12.9463C12.938 12.6344 13.0117 12.2862 13.0117 11.9023C13.0117 11.3904 12.8857 10.9584 12.6338 10.6064C12.3818 10.2505 11.9919 9.98645 11.4639 9.81445C11.8838 9.63848 12.1982 9.38837 12.4062 9.06445C12.6182 8.74045 12.7236 8.34955 12.7236 7.89355C12.7236 7.56574 12.6555 7.25945 12.5195 6.97559C12.3876 6.69185 12.2017 6.44613 11.9619 6.23828C11.7219 6.02628 11.4337 5.86209 11.0977 5.74609C10.7657 5.62616 10.3999 5.56641 10 5.56641ZM10 10.4316C10.4639 10.4316 10.8278 10.554 11.0918 10.7979C11.3558 11.0418 11.4883 11.402 11.4883 11.8779C11.4883 12.0779 11.4556 12.2645 11.3916 12.4365C11.3276 12.6083 11.2314 12.756 11.1035 12.8799C10.9795 13.0038 10.8255 13.1019 10.6416 13.1738C10.4577 13.2418 10.2439 13.2764 10 13.2764C9.75613 13.2764 9.54233 13.2418 9.3584 13.1738C9.1744 13.1018 9.01765 13.0039 8.88965 12.8799C8.7659 12.7561 8.67235 12.6082 8.6084 12.4365C8.5444 12.2645 8.51172 12.0779 8.51172 11.8779C8.51174 11.402 8.64422 11.0418 8.9082 10.7979C9.17219 10.554 9.53613 10.4316 10 10.4316ZM10 6.68164C10.22 6.68164 10.4103 6.71618 10.5703 6.78418C10.73 6.8521 10.8619 6.94381 10.9658 7.05957C11.0698 7.17157 11.1482 7.3022 11.2002 7.4502C11.2521 7.59811 11.2783 7.75407 11.2783 7.91797C11.2783 8.08992 11.2559 8.25792 11.2119 8.42188C11.1719 8.58188 11.102 8.72649 11.002 8.85449C10.902 8.97829 10.7702 9.07837 10.6064 9.1543C10.4425 9.23029 10.24 9.26758 10 9.26758C9.76 9.26758 9.55755 9.2303 9.39355 9.1543C9.22981 9.07837 9.09797 8.97829 8.99805 8.85449C8.89805 8.72649 8.82623 8.58188 8.78223 8.42188C8.74224 8.25791 8.72168 8.08993 8.72168 7.91797C8.72169 7.75405 8.74598 7.59813 8.79395 7.4502C8.84595 7.3022 8.92432 7.17157 9.02832 7.05957C9.13619 6.94384 9.27001 6.85208 9.42969 6.78418C9.58969 6.71618 9.78 6.68164 10 6.68164Z" fill="#1D1C1D"/>
</svg>
