<svg width="20" height="20" viewBox="0 0 20 20" fill="none" xmlns="http://www.w3.org/2000/svg">
<path d="M15 2C16.6569 2 18 3.34315 18 5V15C18 16.6569 16.6569 18 15 18H5C3.34315 18 2 16.6569 2 15V5C2 3.34315 3.34315 2 5 2H15ZM10.084 5.62793C9.7001 5.62793 9.33982 5.68211 9.00391 5.79004C8.67191 5.89404 8.37523 6.05167 8.11523 6.26367C7.85929 6.47163 7.64561 6.73389 7.47363 7.0498C7.30169 7.36171 7.18599 7.72576 7.12598 8.1416L7.90527 8.28027C8.10895 8.31222 8.26507 8.29804 8.37305 8.23828C8.48103 8.17829 8.5697 8.05603 8.6377 7.87207C8.6777 7.72807 8.73738 7.59559 8.81738 7.47559C8.89732 7.35572 8.99547 7.25199 9.11133 7.16406C9.22733 7.07206 9.35981 7.0021 9.50781 6.9541C9.65975 6.90215 9.82408 6.87598 10 6.87598C10.1918 6.87602 10.3638 6.90401 10.5156 6.95996C10.6716 7.01195 10.8032 7.09225 10.9111 7.2002C11.0231 7.30815 11.1099 7.44165 11.1699 7.60156C11.2299 7.75745 11.2597 7.93966 11.2598 8.14746C11.2598 8.37545 11.2271 8.59377 11.1631 8.80176C11.1031 9.00576 11.0154 9.2082 10.8994 9.4082C10.7835 9.60801 10.6377 9.80987 10.4619 10.0137C10.2899 10.2177 10.093 10.4323 9.87305 10.6562L7.23926 13.2959C7.14734 13.3839 7.07914 13.4838 7.03516 13.5957C6.99516 13.7037 6.97559 13.8082 6.97559 13.9082V14.4004H12.9277V13.5117C12.9277 13.3638 12.8792 13.2462 12.7832 13.1582C12.6912 13.0662 12.5653 13.0195 12.4053 13.0195H10.1797C10.0117 13.0195 9.83351 13.0364 9.64551 13.0684C9.46161 13.0963 9.27579 13.1384 9.08789 13.1943L11.0439 11.1963C11.2759 10.9563 11.498 10.7203 11.71 10.4883C11.922 10.2563 12.1057 10.0156 12.2617 9.76758C12.4216 9.51976 12.5477 9.26006 12.6396 8.98828C12.7356 8.71628 12.7832 8.41961 12.7832 8.09961C12.7832 7.7278 12.7179 7.38981 12.5859 7.08594C12.4539 6.78194 12.2692 6.52166 12.0332 6.30566C11.7973 6.0898 11.5135 5.92357 11.1816 5.80762C10.8498 5.68766 10.4838 5.62798 10.084 5.62793Z" fill="#1D1C1D"/>
</svg>
