<svg width="20" height="20" viewBox="0 0 20 20" fill="none" xmlns="http://www.w3.org/2000/svg">
<path d="M15 2C16.6569 2 18 3.34315 18 5V15C18 16.6569 16.6569 18 15 18H5C3.34315 18 2 16.6569 2 15V5C2 3.34315 3.34315 2 5 2H15ZM10.9053 5.72363C10.7254 5.72367 10.5657 5.75824 10.4258 5.82617C10.2898 5.89417 10.1853 5.97627 10.1133 6.07227L8.04395 8.84961C7.69595 9.31361 7.43753 9.76234 7.26953 10.1943C7.10561 10.6222 7.02344 11.0403 7.02344 11.4482C7.02346 11.9041 7.09156 12.3204 7.22754 12.6963C7.36752 13.0681 7.56724 13.3883 7.82715 13.6562C8.08715 13.9202 8.40153 14.1264 8.76953 14.2744C9.1375 14.4224 9.55363 14.4961 10.0176 14.4961C10.4736 14.4961 10.8896 14.4196 11.2656 14.2676C11.6455 14.1156 11.9694 13.9075 12.2373 13.6436C12.5053 13.3796 12.7133 13.0717 12.8613 12.7197C13.0093 12.3638 13.084 11.984 13.084 11.5801C13.084 11.1481 13.0112 10.7703 12.8672 10.4463C12.7232 10.1223 12.5338 9.85174 12.2979 9.63574C12.0619 9.41574 11.7876 9.25155 11.4756 9.14355C11.1676 9.03558 10.8494 8.98242 10.5215 8.98242C10.2976 8.98243 10.0875 9.00573 9.8916 9.05371C9.6996 9.09771 9.51956 9.16209 9.35156 9.24609L9.65137 8.87402L12.2256 5.72363H10.9053ZM10.0117 10.0918C10.2475 10.0918 10.4633 10.1283 10.6592 10.2002C10.855 10.2721 11.0232 10.3778 11.1631 10.5176C11.3031 10.6536 11.4113 10.8225 11.4873 11.0225C11.5632 11.2184 11.6016 11.4406 11.6016 11.6885C11.6015 11.9163 11.5614 12.1284 11.4814 12.3242C11.4015 12.5161 11.2895 12.6842 11.1455 12.8281C11.0056 12.972 10.8356 13.0841 10.6357 13.1641C10.4397 13.2441 10.2233 13.2842 9.9873 13.2842C9.73541 13.2842 9.51322 13.2459 9.32129 13.1699C9.12945 13.09 8.96786 12.9797 8.83594 12.8398C8.70795 12.6999 8.60999 12.5319 8.54199 12.3359C8.47799 12.1359 8.44531 11.9158 8.44531 11.6758C8.44534 11.4519 8.4836 11.2437 8.55957 11.0518C8.63556 10.8558 8.74198 10.6878 8.87793 10.5479C9.0138 10.4041 9.1774 10.2919 9.36914 10.2119C9.56114 10.1319 9.77572 10.0918 10.0117 10.0918Z" fill="#1D1C1D"/>
</svg>
