<svg width="20" height="20" viewBox="0 0 20 20" fill="none" xmlns="http://www.w3.org/2000/svg">
<path d="M15 2C16.6569 2 18 3.34315 18 5V15C18 16.6569 16.6569 18 15 18H5C3.34315 18 2 16.6569 2 15V5C2 3.34315 3.34315 2 5 2H15ZM10.9902 9.93652L11.9141 10.2002C12.3459 10.0482 12.7678 9.97172 13.1797 9.97168C13.7155 9.97168 14.1196 10.1062 14.3916 10.374C14.6676 10.638 14.8057 11.0065 14.8057 11.4785C14.8056 11.7343 14.7702 11.9725 14.6982 12.1924C14.6302 12.4083 14.5257 12.5959 14.3857 12.7559C14.2498 12.9118 14.0781 13.0341 13.8701 13.1221C13.6622 13.21 13.4222 13.2539 13.1504 13.2539C12.8945 13.2539 12.6742 13.2221 12.4902 13.1582C12.3102 13.0942 12.1516 13.0242 12.0156 12.9482C11.8838 12.8723 11.766 12.8022 11.6621 12.7383C11.5583 12.6744 11.4563 12.6417 11.3564 12.6416C11.2004 12.6416 11.0735 12.7097 10.9775 12.8457L10.5225 13.4756C10.6664 13.6116 10.8278 13.7422 11.0078 13.8662C11.1917 13.9862 11.3896 14.0945 11.6016 14.1904C11.8176 14.2824 12.048 14.3561 12.292 14.4121C12.536 14.4681 12.7944 14.4961 13.0664 14.4961C13.5301 14.4961 13.9579 14.4223 14.3496 14.2744C14.7455 14.1264 15.088 13.9183 15.376 13.6504C15.664 13.3784 15.8879 13.0519 16.0479 12.6719C16.2118 12.2919 16.2939 11.872 16.2939 11.4121C16.2939 11.0401 16.2342 10.694 16.1143 10.374C15.9943 10.0501 15.816 9.76828 15.5801 9.52832C15.3441 9.28833 15.0521 9.09987 14.7041 8.96387C14.3561 8.82787 13.954 8.75977 13.498 8.75977C13.3341 8.75977 13.1642 8.77006 12.9883 8.79004C12.8123 8.80604 12.6275 8.83402 12.4355 8.87402L12.7422 7.06836H15.124C15.4399 7.06836 15.6639 7.00205 15.7959 6.87012C15.9278 6.73821 15.994 6.56628 15.9941 6.35449V5.72363H11.71L10.9902 9.93652ZM3.8252 7.96191L4.29297 8.60449C4.31697 8.64039 4.35349 8.67413 4.40137 8.70605C4.44931 8.73399 4.50357 8.75364 4.56348 8.76562C4.6273 8.77755 4.69294 8.77756 4.76074 8.76562C4.83274 8.74963 4.90554 8.7142 4.97754 8.6582L6.22461 7.61426C6.21262 7.82617 6.20703 8.0325 6.20703 8.23242V13.29H4.44922V14.4004H9.24902V13.29H7.68945V5.71191H6.4707L3.8252 7.96191Z" fill="#1D1C1D"/>
</svg>
