<svg width="20" height="20" viewBox="0 0 20 20" fill="none" xmlns="http://www.w3.org/2000/svg">
<path d="M15 2C16.6569 2 18 3.34315 18 5V15C18 16.6569 16.6569 18 15 18H5C3.34315 18 2 16.6569 2 15V5C2 3.34315 3.34315 2 5 2H15ZM7.58789 9.93555L8.51172 10.2002C8.94372 10.0482 9.36632 9.97168 9.77832 9.97168C10.3142 9.97173 10.7183 10.1061 10.9902 10.374C11.2661 10.6379 11.4042 11.0058 11.4043 11.4775C11.4043 11.7335 11.3679 11.9724 11.2959 12.1924C11.2279 12.4081 11.1242 12.596 10.9844 12.7559C10.8484 12.9119 10.6758 13.0341 10.4678 13.1221C10.2598 13.21 10.0199 13.2539 9.74805 13.2539C9.49205 13.2539 9.27189 13.2222 9.08789 13.1582C8.90804 13.0943 8.75018 13.0242 8.61426 12.9482C8.48226 12.8722 8.36377 12.8023 8.25977 12.7383C8.15582 12.6743 8.05405 12.6416 7.9541 12.6416C7.79821 12.6416 7.67215 12.7099 7.57617 12.8457L7.12012 13.4756C7.26412 13.6116 7.42645 13.7422 7.60645 13.8662C7.79033 13.9861 7.98835 14.0945 8.2002 14.1904C8.41601 14.2823 8.64588 14.3561 8.88965 14.4121C9.13365 14.4681 9.39206 14.4961 9.66406 14.4961C10.128 14.4961 10.5563 14.4224 10.9482 14.2744C11.344 14.1265 11.6857 13.9182 11.9736 13.6504C12.2616 13.3784 12.4865 13.0519 12.6465 12.6719C12.8104 12.292 12.8916 11.872 12.8916 11.4121C12.8916 11.0401 12.8319 10.694 12.7119 10.374C12.5919 10.05 12.4137 9.76831 12.1777 9.52832C11.9417 9.28832 11.6498 9.09987 11.3018 8.96387C10.9538 8.82793 10.5516 8.75977 10.0957 8.75977C9.9318 8.75978 9.76183 8.77005 9.58594 8.79004C9.41001 8.80604 9.2261 8.83405 9.03418 8.87402L9.33984 7.06836H11.7217C12.0375 7.06836 12.2615 7.00193 12.3936 6.87012C12.5256 6.73812 12.5918 6.56552 12.5918 6.35352V5.72363H8.30762L7.58789 9.93555Z" fill="#1D1C1D"/>
</svg>
