<svg width="20" height="20" viewBox="0 0 20 20" fill="none" xmlns="http://www.w3.org/2000/svg">
<path d="M15 2C16.6569 2 18 3.34315 18 5V15C18 16.6569 16.6569 18 15 18H5C3.34315 18 2 16.6569 2 15V5C2 3.34315 3.34315 2 5 2H15ZM3.80762 7.90625L4.27539 8.54785C4.29939 8.58385 4.33579 8.61839 4.38379 8.65039C4.4317 8.67828 4.48605 8.69799 4.5459 8.70996C4.60968 8.72188 4.67541 8.72188 4.74316 8.70996C4.81516 8.69396 4.88796 8.65756 4.95996 8.60156L6.20801 7.55762C6.19601 7.76954 6.18946 7.97585 6.18945 8.17578V13.2344H4.43164V14.3438H9.23145V13.2344H7.67188V5.65625H6.45312L3.80762 7.90625ZM10.7686 7.90625L11.2363 8.54785C11.2603 8.58385 11.2967 8.61839 11.3447 8.65039C11.3926 8.67828 11.447 8.69799 11.5068 8.70996C11.5706 8.72188 11.6363 8.72188 11.7041 8.70996C11.7761 8.69396 11.8489 8.65756 11.9209 8.60156L13.1689 7.55762C13.1569 7.76954 13.1504 7.97585 13.1504 8.17578V13.2344H11.3926V14.3438H16.1924V13.2344H14.6328V5.65625H13.4141L10.7686 7.90625Z" fill="#1D1C1D"/>
</svg>
