<svg width="20" height="20" viewBox="0 0 20 20" fill="none" xmlns="http://www.w3.org/2000/svg">
<path d="M15 2C16.6569 2 18 3.34315 18 5V15C18 16.6569 16.6569 18 15 18H5C3.34315 18 2 16.6569 2 15V5C2 3.34315 3.34315 2 5 2H15ZM7.00293 6.66406C7.00295 6.75603 7.03749 6.83632 7.10547 6.9043C7.17332 6.97197 7.25302 7.00579 7.34473 7.00586H11.4971C11.4051 7.10983 11.3211 7.21997 11.2451 7.33594C11.1731 7.44789 11.0994 7.57207 11.0234 7.70801L7.66895 14.3379H8.74316C8.95107 14.3379 9.11725 14.2903 9.24121 14.1943C9.36521 14.0943 9.4613 13.974 9.5293 13.834L12.8174 7.06641C12.8573 6.98654 12.8966 6.88821 12.9365 6.77246C12.9765 6.65246 12.9971 6.49571 12.9971 6.30371V5.66211H7.00293V6.66406Z" fill="#1D1C1D"/>
</svg>
