<svg width="20" height="20" viewBox="0 0 20 20" fill="none" xmlns="http://www.w3.org/2000/svg">
<path d="M15 2C16.6569 2 18 3.34315 18 5V15C18 16.6569 16.6569 18 15 18H5C3.34315 18 2 16.6569 2 15V5C2 3.34315 3.34315 2 5 2H15ZM10.21 5.62793C9.82598 5.62793 9.46587 5.68204 9.12988 5.79004C8.79805 5.894 8.50209 6.05182 8.24219 6.26367C7.98619 6.47167 7.77161 6.73382 7.59961 7.0498C7.42767 7.3617 7.31197 7.72578 7.25195 8.1416L8.03223 8.28027C8.2321 8.31222 8.38619 8.29826 8.49414 8.23828C8.60611 8.17829 8.69568 8.05599 8.76367 7.87207C8.80367 7.72807 8.86434 7.59559 8.94434 7.47559C9.02428 7.35579 9.12244 7.25195 9.23828 7.16406C9.35815 7.0722 9.49185 7.00208 9.63965 6.9541C9.78764 6.9021 9.94999 6.87598 10.126 6.87598C10.506 6.87598 10.8101 6.98234 11.0381 7.19434C11.266 7.40633 11.3799 7.71615 11.3799 8.12402C11.3799 8.31602 11.3519 8.49234 11.2959 8.65234C11.2399 8.81222 11.14 8.95048 10.9961 9.06641C10.8561 9.17836 10.6657 9.2661 10.4258 9.33008C10.1858 9.39404 9.88342 9.42764 9.51953 9.43164V10.4883C9.95953 10.4883 10.3103 10.5218 10.5703 10.5898C10.8341 10.6578 11.0358 10.7522 11.1758 10.8721C11.3157 10.992 11.4081 11.1378 11.4521 11.3096C11.4961 11.4776 11.5176 11.666 11.5176 11.874C11.5176 12.038 11.4859 12.2022 11.4219 12.3662C11.3619 12.5261 11.2676 12.6718 11.1396 12.8037C11.0156 12.9357 10.8599 13.0439 10.6719 13.1279C10.4839 13.2079 10.2637 13.248 10.0117 13.248C9.78784 13.248 9.59362 13.2163 9.42969 13.1523C9.2698 13.0844 9.1297 12.9985 9.00977 12.8945C8.88985 12.7866 8.7862 12.6642 8.69824 12.5283C8.61426 12.3924 8.53585 12.2542 8.46387 12.1143C8.39587 11.9863 8.28579 11.906 8.13379 11.874C7.98595 11.8381 7.82608 11.8559 7.6543 11.9277L7 12.1982C7.11992 12.57 7.26378 12.8978 7.43164 13.1816C7.59964 13.4656 7.80395 13.7063 8.04395 13.9023C8.28382 14.0982 8.56587 14.2457 8.88965 14.3457C9.21365 14.4457 9.59427 14.4961 10.0303 14.4961C10.4302 14.4961 10.8081 14.4382 11.1641 14.3223C11.524 14.2063 11.8403 14.0365 12.1123 13.8125C12.3843 13.5845 12.5998 13.3037 12.7598 12.9717C12.9197 12.6398 13 12.258 13 11.8262C13 11.3182 12.8722 10.8956 12.6162 10.5596C12.3602 10.2237 11.972 9.97354 11.4521 9.80957C11.668 9.73759 11.8623 9.64799 12.0342 9.54004C12.206 9.43215 12.3499 9.30032 12.4658 9.14453C12.5818 8.98853 12.6705 8.80566 12.7305 8.59766C12.7944 8.38581 12.8262 8.14193 12.8262 7.86621C12.8262 7.55026 12.7636 7.25634 12.6396 6.98438C12.5197 6.71247 12.346 6.47632 12.1182 6.27637C11.8902 6.07237 11.614 5.91376 11.29 5.80176C10.9701 5.68577 10.6099 5.62793 10.21 5.62793Z" fill="#1D1C1D"/>
</svg>
