<svg width="20" height="20" viewBox="0 0 20 20" fill="none" xmlns="http://www.w3.org/2000/svg">
<path d="M15 2C16.6569 2 18 3.34315 18 5V15C18 16.6569 16.6569 18 15 18H5C3.34315 18 2 16.6569 2 15V5C2 3.34315 3.34315 2 5 2H15ZM6.69531 11.208L6.85059 11.958C6.87059 12.05 6.91912 12.1284 6.99512 12.1924C7.07101 12.2522 7.15899 12.2822 7.25879 12.2822H10.9189V14.4004H12.209V12.2822H13.001C13.0968 12.2822 13.1707 12.254 13.2227 12.1982C13.2746 12.1383 13.3007 12.0682 13.3008 11.9883V11.1299H12.209V5.71777H10.8047L6.69531 11.208ZM10.9727 7.4043C10.9367 7.72816 10.9189 8.02409 10.9189 8.29199V11.1299H8.2793L10.9727 7.4043Z" fill="#1D1C1D"/>
</svg>
