<svg width="20" height="20" viewBox="0 0 20 20" fill="none" xmlns="http://www.w3.org/2000/svg">
<path d="M15 2C16.6569 2 18 3.34315 18 5V15C18 16.6569 16.6569 18 15 18H5C3.34315 18 2 16.6569 2 15V5C2 3.34315 3.34315 2 5 2H15ZM13.6064 5.62793C13.2226 5.62793 12.8623 5.68211 12.5264 5.79004C12.1944 5.89404 11.8977 6.05167 11.6377 6.26367C11.3818 6.47162 11.1681 6.73391 10.9961 7.0498C10.8242 7.36168 10.7085 7.72581 10.6484 8.1416L11.4277 8.28027C11.6275 8.31224 11.7817 8.29811 11.8896 8.23828C12.0016 8.17828 12.0922 8.05607 12.1602 7.87207C12.2002 7.72808 12.2598 7.59558 12.3398 7.47559C12.4198 7.35574 12.5179 7.25198 12.6338 7.16406C12.7538 7.07206 12.8881 7.0021 13.0361 6.9541C13.1841 6.90212 13.3465 6.87598 13.5225 6.87598C13.9022 6.87606 14.2057 6.98247 14.4336 7.19434C14.6616 7.40633 14.7764 7.71604 14.7764 8.12402C14.7764 8.31602 14.7484 8.49234 14.6924 8.65234C14.6364 8.81228 14.5356 8.95044 14.3916 9.06641C14.2517 9.17821 14.0619 9.26615 13.8223 9.33008C13.5823 9.39408 13.28 9.42764 12.916 9.43164V10.4883C13.3559 10.4883 13.7058 10.5219 13.9658 10.5898C14.2298 10.6578 14.4323 10.7521 14.5723 10.8721C14.712 10.9919 14.8036 11.1379 14.8477 11.3096C14.8917 11.4776 14.9141 11.666 14.9141 11.874C14.9141 12.038 14.8824 12.2022 14.8184 12.3662C14.7584 12.5261 14.664 12.6718 14.5361 12.8037C14.4122 12.9356 14.2562 13.044 14.0684 13.1279C13.8804 13.2079 13.6601 13.248 13.4082 13.248C13.1843 13.248 12.9901 13.2163 12.8262 13.1523C12.6663 13.0844 12.5262 12.9984 12.4062 12.8945C12.2863 12.7865 12.1817 12.6643 12.0938 12.5283C12.0098 12.3924 11.9323 12.2542 11.8604 12.1143C11.7924 11.9863 11.6821 11.9061 11.5303 11.874C11.3823 11.838 11.2218 11.8557 11.0498 11.9277L10.3965 12.1982C10.5164 12.57 10.6602 12.8978 10.8281 13.1816C10.9961 13.4656 11.2004 13.7063 11.4404 13.9023C11.6803 14.0982 11.9623 14.2458 12.2861 14.3457C12.6101 14.4457 12.9899 14.4961 13.4258 14.4961C13.8256 14.4961 14.2037 14.4382 14.5596 14.3223C14.9194 14.2063 15.2359 14.0364 15.5078 13.8125C15.7798 13.5845 15.9963 13.3037 16.1562 12.9717C16.3161 12.6398 16.3965 12.258 16.3965 11.8262C16.3965 11.3182 16.2677 10.8956 16.0117 10.5596C15.7557 10.2238 15.3674 9.9735 14.8477 9.80957C15.0636 9.7376 15.2577 9.64798 15.4297 9.54004C15.6016 9.43208 15.7463 9.30046 15.8623 9.14453C15.9783 8.98853 16.066 8.80566 16.126 8.59766C16.1899 8.38578 16.2217 8.14199 16.2217 7.86621C16.2217 7.55033 16.16 7.25629 16.0361 6.98438C15.9161 6.71238 15.7417 6.47637 15.5137 6.27637C15.2857 6.07238 15.0095 5.91375 14.6855 5.80176C14.3658 5.68592 14.0061 5.62797 13.6064 5.62793ZM3.8252 7.96191L4.29297 8.60449C4.31697 8.6404 4.35348 8.67413 4.40137 8.70605C4.44931 8.73399 4.50357 8.75364 4.56348 8.76562C4.6273 8.77755 4.69294 8.77756 4.76074 8.76562C4.83274 8.74963 4.90554 8.7142 4.97754 8.6582L6.22461 7.61426C6.21262 7.82618 6.20703 8.03249 6.20703 8.23242V13.29H4.44922V14.4004H9.24902V13.29H7.68945V5.71191H6.4707L3.8252 7.96191Z" fill="#1D1C1D"/>
</svg>
