<svg width="20" height="20" viewBox="0 0 20 20" fill="none" xmlns="http://www.w3.org/2000/svg">
<path d="M16.3682 2.1722C16.6862 2.08545 17 2.32493 17 2.65462V13.4993C17 14.8801 15.6569 15.9993 14 15.9993C12.3431 15.9993 11 14.8801 11 13.4993C11.0002 12.1188 12.3433 10.9993 14 10.9993C14.5468 10.9993 15.0585 11.1233 15.5 11.3363V4.90755L7.5 7.09016V15.9993C7.5 17.3801 6.15685 18.4993 4.5 18.4993C2.84315 18.4993 1.5 17.3801 1.5 15.9993C1.50017 14.6188 2.84325 13.4993 4.5 13.4993C5.04679 13.4993 5.55855 13.6233 6 13.8363V5.38118C6.00014 5.1559 6.15083 4.95811 6.36816 4.89876L16.3682 2.1722Z" fill="#1D1C1D"/>
</svg>
