<svg width="20" height="20" viewBox="0 0 20 20" fill="none" xmlns="http://www.w3.org/2000/svg">
<path d="M5.5 9.25C6.32838 9.25 6.99993 9.92163 7 10.75V12.75C7 13.5784 6.32843 14.25 5.5 14.25H3.5C2.67158 14.25 2 13.5784 2 12.75V10.75C2.00007 9.92164 2.67162 9.25001 3.5 9.25H5.5ZM11.5 9.25C12.3284 9.25 12.9999 9.92163 13 10.75V12.75C13 13.5784 12.3284 14.25 11.5 14.25H9.5C8.67158 14.25 8 13.5784 8 12.75V10.75C8.00007 9.92164 8.67162 9.25001 9.5 9.25H11.5ZM17.5 9.25C18.3284 9.25 18.9999 9.92163 19 10.75V12.75C19 13.5784 18.3284 14.25 17.5 14.25H15.5C14.6716 14.25 14 13.5784 14 12.75V10.75C14.0001 9.92164 14.6716 9.25001 15.5 9.25H17.5ZM18.25 5.75C18.6642 5.75 19 6.08579 19 6.5C19 6.91421 18.6642 7.25 18.25 7.25H2.75C2.33579 7.25 2 6.91421 2 6.5C2 6.08579 2.33579 5.75 2.75 5.75H18.25Z" fill="#1D1C1D"/>
</svg>
