<svg width="20" height="20" viewBox="0 0 20 20" fill="none" xmlns="http://www.w3.org/2000/svg">
<path d="M5.65332 9.25781C6.40968 9.33461 6.99993 9.97339 7 10.75V12.75L6.99219 12.9033C6.92051 13.6093 6.35931 14.1705 5.65332 14.2422L5.5 14.25H3.5C2.72334 14.25 2.08461 13.6597 2.00781 12.9033L2 12.75V10.75C2.00007 9.92164 2.67162 9.25001 3.5 9.25H5.5L5.65332 9.25781ZM11.6533 9.25781C12.4097 9.33461 12.9999 9.97339 13 10.75V12.75L12.9922 12.9033C12.9205 13.6093 12.3593 14.1705 11.6533 14.2422L11.5 14.25H9.5C8.72334 14.25 8.08461 13.6597 8.00781 12.9033L8 12.75V10.75C8.00007 9.92164 8.67162 9.25001 9.5 9.25H11.5L11.6533 9.25781ZM17.6533 9.25781C18.4097 9.33461 18.9999 9.97339 19 10.75V12.75L18.9922 12.9033C18.9205 13.6093 18.3593 14.1705 17.6533 14.2422L17.5 14.25H15.5C14.7233 14.25 14.0846 13.6597 14.0078 12.9033L14 12.75V10.75C14.0001 9.92164 14.6716 9.25001 15.5 9.25H17.5L17.6533 9.25781ZM3.5 12.75H5.5V10.75H3.5V12.75ZM9.5 12.75H11.5V10.75H9.5V12.75ZM15.5 12.75H17.5V10.75H15.5V12.75ZM18.25 5.75C18.6642 5.75 19 6.08579 19 6.5C19 6.91421 18.6642 7.25 18.25 7.25H2.75C2.33579 7.25 2 6.91421 2 6.5C2 6.08579 2.33579 5.75 2.75 5.75H18.25Z" fill="#1D1C1D"/>
</svg>
