<svg width="20" height="20" viewBox="0 0 20 20" fill="none" xmlns="http://www.w3.org/2000/svg">
<path d="M9.25 14C10.0784 14 10.75 14.6716 10.75 15.5V17.5C10.75 18.3284 10.0784 19 9.25 19H7.25C6.42157 19 5.75 18.3284 5.75 17.5V15.5C5.75 14.6716 6.42157 14 7.25 14H9.25ZM13.5 2C13.9142 2 14.25 2.33579 14.25 2.75V18.25C14.25 18.6642 13.9142 19 13.5 19C13.0858 19 12.75 18.6642 12.75 18.25V2.75C12.75 2.33579 13.0858 2 13.5 2ZM9.25 8C10.0784 8 10.75 8.67157 10.75 9.5V11.5C10.75 12.3284 10.0784 13 9.25 13H7.25C6.42157 13 5.75 12.3284 5.75 11.5V9.5C5.75 8.67157 6.42157 8 7.25 8H9.25ZM9.25 2C10.0784 2 10.75 2.67157 10.75 3.5V5.5C10.75 6.32843 10.0784 7 9.25 7H7.25C6.42157 7 5.75 6.32843 5.75 5.5V3.5C5.75 2.67157 6.42157 2 7.25 2H9.25Z" fill="#1D1C1D"/>
</svg>
