<svg width="20" height="20" viewBox="0 0 20 20" fill="none" xmlns="http://www.w3.org/2000/svg">
<path d="M9.40332 14.0078C10.1597 14.0846 10.75 14.7233 10.75 15.5V17.5L10.7422 17.6533C10.6705 18.3593 10.1093 18.9205 9.40332 18.9922L9.25 19H7.25C6.47334 19 5.83461 18.4097 5.75781 17.6533L5.75 17.5V15.5C5.75 14.6716 6.42157 14 7.25 14H9.25L9.40332 14.0078ZM13.5 2C13.9142 2 14.25 2.33579 14.25 2.75V18.25C14.25 18.6642 13.9142 19 13.5 19C13.0858 19 12.75 18.6642 12.75 18.25V2.75C12.75 2.33579 13.0858 2 13.5 2ZM7.25 17.5H9.25V15.5H7.25V17.5ZM9.40332 8.00781C10.1597 8.08461 10.75 8.72334 10.75 9.5V11.5L10.7422 11.6533C10.6705 12.3593 10.1093 12.9205 9.40332 12.9922L9.25 13H7.25C6.47334 13 5.83461 12.4097 5.75781 11.6533L5.75 11.5V9.5C5.75 8.67157 6.42157 8 7.25 8H9.25L9.40332 8.00781ZM7.25 11.5H9.25V9.5H7.25V11.5ZM9.40332 2.00781C10.1597 2.08461 10.75 2.72334 10.75 3.5V5.5L10.7422 5.65332C10.6705 6.35931 10.1093 6.92051 9.40332 6.99219L9.25 7H7.25C6.47334 7 5.83461 6.40972 5.75781 5.65332L5.75 5.5V3.5C5.75 2.67157 6.42157 2 7.25 2H9.25L9.40332 2.00781ZM7.25 5.5H9.25V3.5H7.25V5.5Z" fill="#1D1C1D"/>
</svg>
