<svg width="20" height="20" viewBox="0 0 20 20" fill="none" xmlns="http://www.w3.org/2000/svg">
<path d="M4 14C4.27614 14 4.5 14.2239 4.5 14.5V16.5C4.5 16.7761 4.27614 17 4 17H2.5C2.22386 17 2 16.7761 2 16.5V14.5C2 14.2239 2.22386 14 2.5 14H4ZM8.5 11C8.77614 11 9 11.2239 9 11.5V16.5C9 16.7761 8.77614 17 8.5 17H7C6.72386 17 6.5 16.7761 6.5 16.5V11.5C6.5 11.2239 6.72386 11 7 11H8.5ZM13 7C13.2761 7 13.5 7.22386 13.5 7.5V16.5C13.5 16.7761 13.2761 17 13 17H11.5C11.2239 17 11 16.7761 11 16.5V7.5C11 7.22386 11.2239 7 11.5 7H13ZM17.5 3C17.7761 3 18 3.22386 18 3.5V16.5C18 16.7761 17.7761 17 17.5 17H16C15.7239 17 15.5 16.7761 15.5 16.5V3.5C15.5 3.22386 15.7239 3 16 3H17.5Z" fill="#1D1C1D"/>
</svg>
