<svg width="20" height="20" viewBox="0 0 20 20" fill="none" xmlns="http://www.w3.org/2000/svg">
<path d="M8.25 4C8.66421 4 9 4.33579 9 4.75C9 5.16421 8.66421 5.5 8.25 5.5H5.75C4.50736 5.5 3.5 6.50736 3.5 7.75V14.25C3.5 15.4926 4.50736 16.5 5.75 16.5H12.25C13.4926 16.5 14.5 15.4926 14.5 14.25V11.75C14.5 11.3358 14.8358 11 15.25 11C15.6642 11 16 11.3358 16 11.75V14.25C16 16.3211 14.3211 18 12.25 18H5.75C3.67893 18 2 16.3211 2 14.25V7.75C2 5.67893 3.67893 4 5.75 4H8.25ZM17.25 2C17.6642 2 18 2.33579 18 2.75V7.25C18 7.66421 17.6642 8 17.25 8C16.8358 8 16.5 7.66421 16.5 7.25V4.56055L9.28027 11.7803C8.98738 12.0732 8.51262 12.0732 8.21973 11.7803C7.92683 11.4874 7.92683 11.0126 8.21973 10.7197L15.4395 3.5H12.75C12.3358 3.5 12 3.16421 12 2.75C12 2.33579 12.3358 2 12.75 2H17.25Z" fill="#1D1C1D"/>
</svg>
