<svg width="20" height="20" viewBox="0 0 20 20" fill="none" xmlns="http://www.w3.org/2000/svg">
<path d="M5.43164 5.57129C5.69518 5.44785 6.00691 5.48753 6.23047 5.67383L10.7305 9.42383C10.9013 9.56632 11 9.7775 11 10C11 10.2225 10.9013 10.4337 10.7305 10.5762L6.23047 14.3262C6.00691 14.5125 5.69518 14.5531 5.43164 14.4297C5.16811 14.3063 5 14.041 5 13.75V6.25C5 5.95913 5.16832 5.6948 5.43164 5.57129ZM13.75 5.5C14.1642 5.5 14.5 5.83579 14.5 6.25V13.75C14.5 14.1642 14.1642 14.5 13.75 14.5C13.3358 14.5 13 14.1642 13 13.75V6.25C13 5.83579 13.3358 5.5 13.75 5.5Z" fill="#1D1C1D"/>
</svg>
