<svg width="20" height="20" viewBox="0 0 20 20" fill="none" xmlns="http://www.w3.org/2000/svg">
<path d="M10.0001 1.5C10.6885 1.5 11.3103 1.7461 11.7667 2.26172C12.0977 2.63591 12.3064 3.11208 12.418 3.64551C13.6268 4.0143 14.5213 4.78187 15.1036 6.00195C15.7078 7.26824 15.9625 8.99111 15.9971 11.1865L17.8751 13.0732L17.8858 13.0859C18.5217 13.7854 18.692 14.6762 18.2588 15.4277C17.8525 16.1325 17.0349 16.5 16.1544 16.5H12.7715C12.6437 16.8899 12.4349 17.275 12.1329 17.6045C11.6402 18.1418 10.9253 18.5 10.0137 18.5C9.09582 18.5 8.37487 18.1444 7.87701 17.6074C7.57098 17.2773 7.35993 16.8911 7.23052 16.5H3.84283C2.96244 16.4999 2.14559 16.1324 1.73931 15.4277C1.3061 14.6762 1.4756 13.7854 2.11138 13.0859L2.1231 13.0732L4.00396 11.1865C4.03956 8.99107 4.29357 7.26818 4.89752 6.00195C5.47952 4.78188 6.37331 4.01435 7.58209 3.64551C7.69371 3.11208 7.90242 2.63591 8.23345 2.26172C8.68983 1.7461 9.31159 1.5 10.0001 1.5Z" fill="#1D1C1D"/>
</svg>
