<svg width="20" height="20" viewBox="0 0 20 20" fill="none" xmlns="http://www.w3.org/2000/svg">
<path d="M10.0001 1.5C10.6885 1.5 11.3103 1.7461 11.7667 2.26172C12.0977 2.63598 12.3054 3.11195 12.417 3.64551C13.6263 4.0142 14.5211 4.78157 15.1036 6.00195C15.7075 7.26767 15.9584 8.98961 15.9932 11.1836L17.8624 13.0615L17.8751 13.0732L17.8858 13.0859C18.5217 13.7854 18.692 14.6762 18.2588 15.4277C17.8525 16.1325 17.0349 16.5 16.1543 16.5H12.7706C12.6427 16.8898 12.4349 17.2751 12.1329 17.6045C11.6402 18.1418 10.9253 18.5 10.0137 18.5C9.09582 18.5 8.37487 18.1444 7.877 17.6074C7.57104 17.2774 7.36091 16.8911 7.2315 16.5H3.84282C2.96244 16.4999 2.14559 16.1324 1.73931 15.4277C1.3061 14.6762 1.47559 13.7854 2.11138 13.0859L2.1231 13.0732L2.13579 13.0605L4.00591 11.1836C4.04169 8.98955 4.29383 7.26761 4.89751 6.00195C5.47952 4.78189 6.37331 4.01435 7.58208 3.64551C7.69368 3.11188 7.90232 2.63603 8.23345 2.26172C8.68982 1.7461 9.31159 1.5 10.0001 1.5ZM10.0001 3C9.68878 3 9.49523 3.09908 9.3565 3.25586C9.19991 3.43286 9.04802 3.76025 8.99712 4.31836L8.94634 4.87598L8.39751 4.98535C7.37363 5.19013 6.70623 5.69542 6.252 6.64746C5.76713 7.66392 5.51603 9.21404 5.50005 11.5049L5.4981 11.8125L5.2813 12.0293L3.21294 14.1035C3.06611 14.2678 3.01823 14.3994 3.00493 14.4805C2.99218 14.5585 3.0061 14.6214 3.03911 14.6787C3.10818 14.7983 3.34347 14.9999 3.84282 15H8.50786L8.5772 15.6719C8.61124 15.9987 8.74776 16.34 8.97759 16.5879C9.19219 16.8192 9.51445 17 10.0137 17C10.5002 17 10.8157 16.8218 11.0274 16.5908C11.2545 16.3431 11.3893 16.0017 11.4229 15.6738L11.4922 15H16.1543C16.6542 15 16.8901 14.7983 16.959 14.6787C16.992 14.6215 17.006 14.5585 16.9932 14.4805C16.9798 14.3985 16.93 14.2655 16.7793 14.0986L14.7188 12.0293L14.502 11.8115L14.5001 11.5049C14.4852 9.21406 14.2342 7.66382 13.7491 6.64746C13.2946 5.6955 12.6266 5.19015 11.6026 4.98535L11.0538 4.87598L11.003 4.31836C10.9521 3.76025 10.8002 3.43286 10.6436 3.25586C10.5049 3.09908 10.3113 3 10.0001 3Z" fill="#1D1C1D"/>
</svg>
