<svg width="20" height="20" viewBox="0 0 20 20" fill="none" xmlns="http://www.w3.org/2000/svg">
<path d="M9.99982 1.5C10.6882 1.5 11.3101 1.74616 11.7664 2.26172C12.0975 2.63598 12.3052 3.11197 12.4168 3.64551C13.626 4.01419 14.5209 4.78161 15.1033 6.00195C15.7073 7.26767 15.9582 8.98961 15.993 11.1836L17.8621 13.0615L17.8748 13.0732L17.8856 13.0859C18.5214 13.7854 18.6917 14.6762 18.2586 15.4277C17.8523 16.1325 17.0346 16.5 16.1541 16.5H12.7703C12.6424 16.8898 12.4346 17.2751 12.1326 17.6045C11.64 18.1418 10.925 18.5 10.0135 18.5C9.09567 18.5 8.37461 18.1443 7.87677 17.6074C7.57085 17.2774 7.36067 16.891 7.23127 16.5H3.84259C2.96227 16.4999 2.14533 16.1324 1.73908 15.4277C1.30594 14.6762 1.47544 13.7854 2.11115 13.0859L2.12287 13.0732L2.13556 13.0605L4.00568 11.1836C4.04146 8.98958 4.29363 7.26761 4.89728 6.00195C5.47926 4.78194 6.37316 4.01437 7.58185 3.64551C7.69344 3.11191 7.90213 2.63602 8.23322 2.26172C8.68956 1.74614 9.31142 1.50004 9.99982 1.5ZM9.99982 3C9.68864 3.00004 9.49498 3.09911 9.35627 3.25586C9.19971 3.43288 9.04778 3.76033 8.99689 4.31836L8.94611 4.87598L8.39728 4.98535C7.37349 5.19015 6.70597 5.69547 6.25177 6.64746C5.76692 7.66392 5.5158 9.21409 5.49982 11.5049L5.49787 11.8125L5.28107 12.0293L3.21271 14.1035C3.06593 14.2678 3.018 14.3994 3.0047 14.4805C2.99196 14.5585 3.0059 14.6215 3.03888 14.6787C3.10794 14.7983 3.34335 14.9999 3.84259 15H8.50763L8.57697 15.6719C8.61101 15.9986 8.74757 16.34 8.97736 16.5879C9.19194 16.8191 9.51431 17 10.0135 17C10.4999 17 10.8154 16.8217 11.0272 16.5908C11.2543 16.3431 11.3891 16.0017 11.4227 15.6738L11.492 15H16.1541C16.6538 15 16.8898 14.7983 16.9588 14.6787C16.9918 14.6215 17.0057 14.5585 16.993 14.4805C16.9795 14.3985 16.9297 14.2654 16.7791 14.0986L14.7186 12.0293L14.5018 11.8115L14.4998 11.5049C14.485 9.21406 14.2339 7.66382 13.7488 6.64746C13.2944 5.69554 12.6264 5.19015 11.6024 4.98535L11.0535 4.87598L11.0028 4.31836C10.9518 3.76026 10.8 3.43286 10.6434 3.25586C10.5046 3.09913 10.311 3 9.99982 3Z" fill="#1D1C1D"/>
<path d="M16.1646 4.20312C17.1157 5.36565 17.7321 6.78504 17.9187 8.29659" stroke="#1D1C1D" stroke-width="1.5" stroke-linecap="round"/>
<path d="M2.0814 8.29676C2.26801 6.78521 2.88439 5.36582 3.83546 4.20329" stroke="#1D1C1D" stroke-width="1.5" stroke-linecap="round"/>
</svg>
