<svg width="20" height="20" viewBox="0 0 20 20" fill="none" xmlns="http://www.w3.org/2000/svg">
<path d="M10 1.5C10.6885 1.5 11.3103 1.7461 11.7666 2.26172C12.0982 2.63647 12.3065 3.11307 12.418 3.64746C13.1088 3.85818 13.7123 4.20189 14.2149 4.71094C14.8335 5.33767 15.2532 6.16462 15.5293 7.16602C15.6394 7.56533 15.4052 7.97877 15.0059 8.08887C14.6066 8.19888 14.1941 7.96373 14.084 7.56445C13.8538 6.7293 13.5351 6.15729 13.1475 5.76465C12.7664 5.37857 12.2717 5.11918 11.6026 4.98535L11.0538 4.87598L11.003 4.31836C10.9521 3.76025 10.8002 3.43286 10.6436 3.25586C10.5049 3.09908 10.3113 3 10 3C9.68877 3 9.49523 3.09908 9.35649 3.25586C9.19991 3.43286 9.04802 3.76025 8.99712 4.31836L8.94634 4.87598L8.39751 4.98535C7.37363 5.19013 6.70622 5.69542 6.252 6.64746C5.76712 7.66392 5.51603 9.21404 5.50005 11.5049L5.49809 11.8125L5.2813 12.0293L3.21294 14.1035C3.0661 14.2678 3.01823 14.3994 3.00493 14.4805C2.99218 14.5585 3.00609 14.6214 3.03911 14.6787C3.10817 14.7983 3.34347 14.9999 3.84282 15H7.83208C8.24612 15.0002 8.58208 15.3359 8.58208 15.75C8.58208 16.1641 8.24612 16.4998 7.83208 16.5H3.84282C2.96243 16.4999 2.14558 16.1324 1.73931 15.4277C1.30609 14.6762 1.47559 13.7854 2.11138 13.0859L2.12309 13.0732L2.13579 13.0605L4.00591 11.1836C4.04169 8.98955 4.29383 7.26761 4.89751 6.00195C5.47951 4.78189 6.37331 4.01435 7.58208 3.64551C7.69368 3.11188 7.90231 2.63603 8.23345 2.26172C8.68982 1.7461 9.31159 1.5 10 1.5Z" fill="#1D1C1D"/>
<path d="M14.5 10C16.9853 10 19 12.0147 19 14.5C19 16.9853 16.9853 19 14.5 19C12.0147 19 10 16.9853 10 14.5C10 12.0147 12.0147 10 14.5 10ZM16.7412 13.0703C16.4483 12.7774 15.9736 12.7775 15.6807 13.0703L14.1787 14.5713L13.6807 14.0732C13.3878 13.7804 12.913 13.7804 12.6201 14.0732C12.3273 14.3661 12.3273 14.8409 12.6201 15.1338L13.6494 16.1621C13.9423 16.4546 14.4172 16.4549 14.71 16.1621L16.7412 14.1309C17.0339 13.8381 17.0337 13.3632 16.7412 13.0703Z" fill="#007A5A"/>
</svg>
