<svg width="20" height="20" viewBox="0 0 20 20" fill="none" xmlns="http://www.w3.org/2000/svg">
<path d="M15.107 8.82227C15.5197 8.78758 15.8827 9.0942 15.9175 9.50684C15.9614 10.0285 15.9852 10.5875 15.9947 11.1846L17.8629 13.0615L17.8746 13.0732L17.8863 13.0859C18.5221 13.7854 18.6916 14.6762 18.2584 15.4277C17.8521 16.1325 17.0352 16.4999 16.1549 16.5H12.7701C12.6422 16.8897 12.4344 17.2751 12.1324 17.6045C11.6397 18.1417 10.9247 18.5 10.0133 18.5C8.7385 18.4999 7.88112 17.819 7.44001 16.9902C7.24541 16.6246 7.38394 16.1702 7.74958 15.9756C8.11515 15.781 8.56955 15.9197 8.76423 16.2852C8.97461 16.6804 9.35353 16.9999 10.0133 17C10.4997 17 10.8152 16.8217 11.0269 16.5908C11.254 16.3431 11.3888 16.0017 11.4224 15.6738L11.4918 15H16.1549C16.6542 14.9999 16.8895 14.7983 16.9586 14.6787C16.9916 14.6214 17.0055 14.5585 16.9927 14.4805C16.9793 14.3985 16.9297 14.2655 16.7789 14.0986L14.7183 12.0293L14.5015 11.8115L14.4996 11.5049C14.4951 10.8203 14.4699 10.1977 14.4224 9.63281C14.3877 9.22012 14.6943 8.85705 15.107 8.82227ZM15.9693 3.46973C16.2621 3.17689 16.7369 3.17702 17.0299 3.46973C17.3227 3.76262 17.3227 4.23738 17.0299 4.53027L4.02985 17.5303C3.73694 17.823 3.26214 17.8231 2.9693 17.5303C2.67666 17.2374 2.67666 16.7626 2.9693 16.4697L15.9693 3.46973ZM9.99958 1.5C10.6882 1.5 11.3108 1.7459 11.7672 2.26172C12.1119 2.6514 12.3213 3.15146 12.4293 3.71191C12.6509 3.88879 12.7632 4.18319 12.691 4.47656C12.5919 4.87876 12.185 5.12443 11.7828 5.02539C11.7244 5.01103 11.6645 4.99764 11.6031 4.98535L11.0543 4.87598L11.0035 4.31836C10.9526 3.76025 10.7997 3.43286 10.6431 3.25586C10.5044 3.09918 10.3107 3 9.99958 3C9.68846 3.00008 9.49471 3.09909 9.35602 3.25586C9.19947 3.43288 9.04754 3.76034 8.99665 4.31836L8.94587 4.87598L8.39704 4.98535C7.3731 5.19014 6.70576 5.69533 6.25153 6.64746C5.76665 7.66392 5.51556 9.21404 5.49958 11.5049L5.49763 11.8125L5.28083 12.0293L3.19782 14.1201C2.9055 14.4133 2.43065 14.4142 2.13727 14.1221C1.84388 13.8297 1.84292 13.3539 2.13532 13.0605L4.00544 11.1836C4.04122 8.98941 4.29426 7.26764 4.89802 6.00195C5.47997 4.782 6.37301 4.01439 7.58161 3.64551C7.6932 3.11185 7.90183 2.63605 8.23298 2.26172C8.68928 1.74607 9.31118 1.50009 9.99958 1.5Z" fill="#1D1C1D"/>
</svg>
