<svg width="20" height="20" viewBox="0 0 20 20" fill="none" xmlns="http://www.w3.org/2000/svg">
<path d="M14.0991 9.27051C16.5815 9.27062 18.5943 11.2832 18.5943 13.7656C18.5943 13.7689 18.5934 13.7721 18.5933 13.7754V14.0771C18.5933 15.0499 17.8052 15.8386 16.8325 15.8389C16.3615 15.8388 15.9449 15.6086 15.687 15.2549C15.2896 15.6787 14.7259 15.9452 14.0991 15.9453L13.8765 15.9336C12.778 15.8219 11.9207 14.8936 11.9204 13.7656C11.9206 12.5624 12.896 11.5871 14.0991 11.5869C14.6044 11.587 15.0683 11.7602 15.438 12.0488C15.4997 11.8428 15.6885 11.6916 15.9146 11.6914C16.1906 11.6914 16.4144 11.9154 16.4146 12.1914V14.4219C16.4148 14.6521 16.6023 14.8387 16.8325 14.8389C17.2529 14.8386 17.5933 14.4976 17.5933 14.0771V13.7578C17.5891 11.8313 16.0266 10.2706 14.0991 10.2705C12.169 10.2706 10.604 11.8355 10.604 13.7656C10.6041 15.6957 12.1691 17.2607 14.0991 17.2607C14.8493 17.2607 15.543 17.0246 16.1118 16.623C16.3374 16.4638 16.6498 16.5176 16.8091 16.7432C16.968 16.9686 16.9142 17.2802 16.689 17.4395C15.9569 17.9563 15.0625 18.2607 14.0991 18.2607C11.6168 18.2607 9.60415 16.248 9.60403 13.7656C9.60403 11.2832 11.6167 9.27057 14.0991 9.27051ZM10.3218 1.73828C11.0102 1.73828 11.632 1.98442 12.0884 2.5C12.4199 2.87474 12.6283 3.35136 12.7398 3.88574C13.4305 4.09645 14.0341 4.44019 14.5366 4.94922C15.1553 5.57594 15.575 6.40291 15.8511 7.4043C15.9612 7.80361 15.727 8.21705 15.3277 8.32715C14.9284 8.43711 14.5159 8.20198 14.4058 7.80273C14.1755 6.96759 13.8568 6.39557 13.4693 6.00293C13.0881 5.61688 12.5935 5.35746 11.9243 5.22363L11.3755 5.11426L11.3247 4.55664C11.2738 3.99853 11.1219 3.67114 10.9654 3.49414C10.8266 3.33739 10.633 3.23828 10.3218 3.23828C10.0106 3.2383 9.81697 3.33738 9.67825 3.49414C9.52168 3.67115 9.36977 3.99858 9.31887 4.55664L9.26809 5.11426L8.71926 5.22363C7.69543 5.42842 7.02797 5.93373 6.57376 6.88574C6.08889 7.9022 5.83779 9.45235 5.8218 11.7432L5.81985 12.0508L5.60305 12.2676L3.53469 14.3418C3.38789 14.5061 3.33999 14.6377 3.32669 14.7188C3.31394 14.7968 3.32787 14.8597 3.36087 14.917C3.42992 15.0366 3.66529 15.2382 4.16458 15.2383H8.15383C8.56788 15.2385 8.90383 15.5742 8.90383 15.9883C8.90383 16.4024 8.56788 16.7381 8.15383 16.7383H4.16458C3.28423 16.7382 2.46732 16.3707 2.06106 15.666C1.62789 14.9145 1.79739 14.0237 2.43313 13.3242L2.44485 13.3115L2.45755 13.2988L4.32766 11.4219C4.36344 9.22785 4.6156 7.50589 5.21926 6.24023C5.80126 5.0202 6.69511 4.25264 7.90383 3.88379C8.01543 3.35018 8.22409 2.8743 8.5552 2.5C9.01155 1.98441 9.63338 1.7383 10.3218 1.73828ZM14.0991 12.5869C13.4483 12.5871 12.9206 13.1147 12.9204 13.7656C12.9207 14.4164 13.4483 14.9451 14.0991 14.9453C14.7499 14.9451 15.2786 14.4164 15.2788 13.7656C15.2787 13.1148 14.75 12.5872 14.0991 12.5869Z" fill="#1D1C1D"/>
</svg>
