<svg width="20" height="20" viewBox="0 0 20 20" fill="none" xmlns="http://www.w3.org/2000/svg">
<path d="M10.0001 1.5C10.6885 1.5 11.3103 1.7461 11.7667 2.26172C12.2052 2.75743 12.4286 3.43087 12.4971 4.18164C12.5347 4.59407 12.2308 4.95934 11.8184 4.99707C11.406 5.03468 11.0407 4.73075 11.003 4.31836C10.9521 3.76025 10.8002 3.43286 10.6436 3.25586C10.5049 3.09908 10.3113 3 10.0001 3C9.68878 3 9.49524 3.09908 9.3565 3.25586C9.19992 3.43286 9.04803 3.76025 8.99713 4.31836L8.94634 4.87598L8.39752 4.98535C7.37363 5.19013 6.70623 5.69542 6.25201 6.64746C5.76713 7.66392 5.51604 9.21404 5.50005 11.5049L5.4981 11.8125L3.21099 14.1064C3.06596 14.2695 3.01817 14.3998 3.00494 14.4805C2.99218 14.5585 3.0061 14.6214 3.03912 14.6787C3.10818 14.7983 3.34347 14.9999 3.84283 15H8.50787L8.5772 15.6719C8.61124 15.9987 8.74776 16.34 8.97759 16.5879C9.19219 16.8192 9.51445 17 10.0137 17C10.5002 17 10.8157 16.8218 11.0274 16.5908C11.2545 16.3431 11.3893 16.0017 11.4229 15.6738L11.4922 15H16.1544C16.6542 15 16.8901 14.7983 16.959 14.6787C16.9921 14.6215 17.006 14.5585 16.9932 14.4805C16.98 14.3998 16.9314 14.2697 16.7862 14.1064L14.502 11.8115L14.5001 11.5049C14.4948 10.6937 14.4605 9.96979 14.3946 9.32617C14.3525 8.91434 14.6518 8.54631 15.0635 8.50391C15.4756 8.46173 15.8446 8.76177 15.8868 9.17383C15.9498 9.78965 15.9847 10.4599 15.9961 11.1865L17.8751 13.0732L17.8858 13.0859C18.5217 13.7854 18.692 14.6762 18.2588 15.4277C17.8525 16.1325 17.0349 16.5 16.1544 16.5H12.7715C12.6437 16.8899 12.4349 17.275 12.1329 17.6045C11.6402 18.1418 10.9253 18.5 10.0137 18.5C9.09582 18.5 8.37487 18.1444 7.87701 17.6074C7.57098 17.2773 7.35993 16.8911 7.23052 16.5H3.84283C2.96244 16.4999 2.14559 16.1324 1.73931 15.4277C1.3061 14.6762 1.4756 13.7854 2.11138 13.0859L2.1231 13.0732L4.00396 11.1865C4.03956 8.99107 4.29357 7.26818 4.89752 6.00195C5.47952 4.78188 6.37331 4.01435 7.58209 3.64551C7.69371 3.11208 7.90242 2.63591 8.23345 2.26172C8.68983 1.7461 9.31159 1.5 10.0001 1.5ZM11.5001 7.25C11.6941 7.25 11.8709 7.36239 11.9532 7.53809C12.0353 7.71372 12.008 7.92134 11.8838 8.07031L10.0674 10.25H11.5001C11.7762 10.25 12.0001 10.4739 12.0001 10.75C12.0001 11.0261 11.7762 11.25 11.5001 11.25H9.00005C8.80605 11.25 8.62922 11.1376 8.54693 10.9619C8.46479 10.7863 8.49213 10.5787 8.61627 10.4297L10.4327 8.25H9.00005C8.72391 8.25 8.50005 8.02614 8.50005 7.75C8.50005 7.47386 8.72391 7.25 9.00005 7.25H11.5001ZM17.0001 1.625C17.2368 1.625 17.4528 1.75896 17.5586 1.9707C17.6645 2.18244 17.6421 2.43561 17.5001 2.625L15.2501 5.625H17.0001C17.3452 5.625 17.6251 5.90482 17.6251 6.25C17.6251 6.59518 17.3452 6.875 17.0001 6.875H14.0001C13.7633 6.875 13.5473 6.74104 13.4415 6.5293C13.3356 6.31756 13.358 6.06439 13.5001 5.875L15.7501 2.875H14.0001C13.6549 2.875 13.3751 2.59518 13.3751 2.25C13.3751 1.90482 13.6549 1.625 14.0001 1.625H17.0001Z" fill="#1D1C1D"/>
</svg>
