<svg width="20" height="20" viewBox="0 0 20 20" fill="none" xmlns="http://www.w3.org/2000/svg">
<path d="M14.6392 9.04004C14.8455 8.83373 15.1532 8.76518 15.4273 8.86523C15.7014 8.96552 15.893 9.21603 15.9175 9.50684C15.9614 10.029 15.9872 10.5887 15.9966 11.1865L17.8745 13.0732L17.8863 13.0859C18.5221 13.7854 18.6916 14.6762 18.2583 15.4277C17.8521 16.1325 17.0352 16.4999 16.1548 16.5H12.771C12.6431 16.8898 12.4344 17.275 12.1324 17.6045C11.6397 18.1417 10.9247 18.5 10.0132 18.5C8.73846 18.4999 7.88109 17.819 7.43997 16.9902C7.285 16.699 7.33856 16.3407 7.57181 16.1074L14.6392 9.04004ZM15.9693 3.46973C16.2621 3.17689 16.7369 3.17702 17.0298 3.46973C17.3227 3.76262 17.3227 4.23738 17.0298 4.53027L4.02982 17.5303C3.73691 17.823 3.2621 17.8231 2.96927 17.5303C2.67662 17.2374 2.67662 16.7626 2.96927 16.4697L15.9693 3.46973ZM9.99954 1.5C10.6881 1.5 11.3107 1.7459 11.7671 2.26172C12.1119 2.65143 12.3232 3.15141 12.4312 3.71191C12.5519 3.80854 12.6421 3.94169 12.6851 4.0957C12.7578 4.35643 12.6841 4.63673 12.4927 4.82812L3.19681 14.1211C2.90373 14.4138 2.42895 14.4131 2.13626 14.1201C1.8436 13.827 1.84323 13.3523 2.13626 13.0596L4.00345 11.1953C4.03913 8.99999 4.29336 7.27496 4.897 6.00684C5.47866 4.78505 6.37278 4.01508 7.58255 3.64551C7.69417 3.11203 7.90189 2.63594 8.23294 2.26172C8.68925 1.74607 9.31115 1.50009 9.99954 1.5Z" fill="#1D1C1D"/>
</svg>
