<svg width="20" height="20" viewBox="0 0 20 20" fill="none" xmlns="http://www.w3.org/2000/svg">
<path d="M10.001 1.5C10.6895 1.5 11.3113 1.7461 11.7676 2.26172C12.0987 2.63591 12.3074 3.11208 12.419 3.64551C13.3715 3.9361 14.1284 4.47406 14.6915 5.28613L16.5001 2.875H14.7501C14.4049 2.875 14.1251 2.59518 14.1251 2.25C14.1251 1.90482 14.4049 1.625 14.7501 1.625H17.7501C17.9868 1.625 18.2028 1.75897 18.3086 1.9707C18.4145 2.18244 18.3921 2.43562 18.2501 2.625L16.0001 5.625H17.7501C18.0952 5.62501 18.3751 5.90483 18.3751 6.25C18.3751 6.59517 18.0952 6.87499 17.7501 6.875H15.4444C15.8069 8.02494 15.9709 9.45949 15.9981 11.1865L17.876 13.0732L17.8868 13.0859C18.5226 13.7854 18.693 14.6762 18.2598 15.4277C17.8535 16.1325 17.0359 16.5 16.1553 16.5H12.7725C12.6446 16.8899 12.4359 17.275 12.1338 17.6045C11.6412 18.1418 10.9262 18.5 10.0147 18.5C9.0968 18.5 8.37585 18.1444 7.87798 17.6074C7.57196 17.2773 7.3609 16.8911 7.2315 16.5H3.8438C2.96342 16.4999 2.14657 16.1324 1.74029 15.4277C1.30708 14.6762 1.47657 13.7854 2.11236 13.0859L2.12408 13.0732L4.00494 11.1865C4.04054 8.99107 4.29454 7.26818 4.89849 6.00195C5.4805 4.78188 6.37429 4.01435 7.58306 3.64551C7.69469 3.11208 7.9034 2.63591 8.23443 2.26172C8.6908 1.7461 9.31257 1.5 10.001 1.5ZM10.0001 7C9.72391 7 9.50005 7.22386 9.50005 7.5C9.50005 7.77614 9.72391 8 10.0001 8H11.4327L9.61627 10.1797C9.49212 10.3287 9.46479 10.5363 9.54693 10.7119C9.62922 10.8876 9.80605 11 10.0001 11H12.5001C12.7762 11 13.0001 10.7761 13.0001 10.5C13.0001 10.2239 12.7762 10 12.5001 10H11.0674L12.8838 7.82031C13.008 7.67135 13.0353 7.46372 12.9532 7.28809C12.8709 7.1124 12.6941 7 12.5001 7H10.0001Z" fill="#1D1C1D"/>
</svg>
