<svg width="20" height="20" viewBox="0 0 20 20" fill="none" xmlns="http://www.w3.org/2000/svg">
<path d="M3.50048 12.5C4.66785 12.5002 5.25044 13.4632 5.25048 14.25C5.25048 14.5999 5.09581 14.9272 4.91552 15.2041C4.73006 15.4888 4.47806 15.7789 4.20458 16.0635C3.9294 16.3497 3.61568 16.6477 3.30028 16.9453C3.28113 16.9634 3.26183 16.9819 3.24266 17H5.00048C5.27637 17.0002 5.50043 17.224 5.50048 17.5C5.50048 17.776 5.2764 17.9997 5.00048 18H2.00048C1.7983 18 1.61599 17.8781 1.53856 17.6914C1.46117 17.5046 1.50396 17.2895 1.64696 17.1465C1.96571 16.8277 2.30058 16.5142 2.61473 16.2178C2.93184 15.9185 3.22803 15.6363 3.48387 15.3701C3.7413 15.1022 3.94292 14.865 4.07762 14.6582C4.21719 14.4438 4.25048 14.314 4.25048 14.25C4.25044 13.8801 3.98925 13.5002 3.50048 13.5C3.17819 13.5 2.8912 13.6524 2.70751 13.8906C2.66397 13.9471 2.62588 14.0084 2.5952 14.0732C2.47737 14.3227 2.17971 14.4299 1.93016 14.3125C1.68051 14.1946 1.57304 13.8961 1.69091 13.6465C1.75259 13.5159 1.8285 13.3932 1.91552 13.2803C2.28038 12.807 2.85493 12.5 3.50048 12.5ZM17.7505 16.5C18.1644 16.5002 18.5004 16.836 18.5005 17.25C18.5005 17.664 18.1645 17.9997 17.7505 18H7.75048C7.33626 18 7.00048 17.6642 7.00048 17.25C7.00052 16.8358 7.33629 16.5 7.75048 16.5H17.7505ZM17.7505 9.99998C18.1644 10.0002 18.5004 10.336 18.5005 10.75C18.5005 11.164 18.1645 11.4997 17.7505 11.5H7.75048C7.33626 11.5 7.00048 11.1642 7.00048 10.75C7.00052 10.3358 7.33629 9.99998 7.75048 9.99998H17.7505ZM3.34227 2.02537C3.4946 1.97476 3.66223 2.00087 3.79247 2.09471C3.92266 2.18868 4.00045 2.3394 4.00048 2.49998V5.99998H5.00048C5.27637 6.00024 5.50043 6.22404 5.50048 6.49998C5.50048 6.77596 5.2764 6.99972 5.00048 6.99998H2.00048C1.72433 6.99998 1.50048 6.77612 1.50048 6.49998C1.50052 6.22388 1.72436 5.99998 2.00048 5.99998H3.00048V3.19334L2.15868 3.47459C1.89673 3.56191 1.61322 3.42011 1.52587 3.15818C1.43854 2.89621 1.5803 2.6127 1.84227 2.52537L3.34227 2.02537ZM17.7505 3.49998C18.1644 3.50024 18.5004 3.83597 18.5005 4.24998C18.5005 4.66403 18.1645 4.99972 17.7505 4.99998H7.75048C7.33626 4.99998 7.00048 4.6642 7.00048 4.24998C7.00052 3.83581 7.33629 3.49998 7.75048 3.49998H17.7505Z" fill="#1D1C1D"/>
</svg>
