<svg width="20" height="20" viewBox="0 0 20 20" fill="none" xmlns="http://www.w3.org/2000/svg">
<path d="M6.75 2.5C8.82107 2.5 10.5 4.17894 10.5 6.25V13.75C10.5 15.8211 8.82107 17.5 6.75 17.5C4.67893 17.5 3 15.8211 3 13.75V6.25C3 4.17894 4.67893 2.5 6.75 2.5ZM15.7812 2.66406C16.0064 2.48396 16.3153 2.44933 16.5752 2.57422C16.8349 2.69917 17 2.96182 17 3.25V16.75C17 17.1642 16.6642 17.5 16.25 17.5C15.8358 17.5 15.5 17.1642 15.5 16.75V4.81055L13.7188 6.23535C13.3953 6.49411 12.9228 6.44161 12.6641 6.11816C12.4057 5.79479 12.4581 5.32315 12.7812 5.06445L15.7812 2.66406ZM6.75 4C5.50736 4 4.5 5.00736 4.5 6.25V13.75C4.5 14.9926 5.50736 16 6.75 16C7.99264 16 9 14.9926 9 13.75V6.25C9 5.00736 7.99264 4 6.75 4Z" fill="#1D1C1D"/>
</svg>
