<svg width="20" height="20" viewBox="0 0 20 20" fill="none" xmlns="http://www.w3.org/2000/svg">
<path d="M1 8.50684C1 6.84638 2.34638 5.5 4.00684 5.5L5.5 5.5L5.5 4.04395C5.5 2.363 6.863 1 8.54394 1L15.9561 0.999999C17.637 1.00001 19 2.36301 19 4.04394L19 11.4561C19 13.137 17.637 14.5 15.9561 14.5L14.5 14.5L14.5 15.9561C14.5 17.637 13.137 19 11.4561 19L4.04395 19C2.363 19 1 17.637 1 15.9561L1 8.50684ZM7 6.81445C7.00751 6.8753 7.01269 6.93712 7.01269 7L7.01269 11.4766C7.0127 11.7422 7.07904 11.9926 7.19727 12.2109C7.46179 12.6817 7.96568 13 8.54395 13L15.9561 13C16.8085 13 17.5 12.3085 17.5 11.4561L17.5 4.04394C17.5 3.19144 16.8086 2.50001 15.9561 2.5L8.54394 2.5C7.69143 2.5 7 3.19143 7 4.04395L7 6.81445ZM9.58594 10.3545C9.29304 10.0616 9.29304 9.58586 9.58594 9.29297L12.9961 5.88281L10.5742 5.88281C10.1602 5.88272 9.8244 5.54682 9.82422 5.13281C9.82434 4.71876 10.1602 4.38291 10.5742 4.38281L14.8398 4.38281C15.2539 4.38294 15.5897 4.71878 15.5898 5.13281L15.5898 9.39844C15.5897 9.81242 15.2538 10.1483 14.8398 10.1484C14.4258 10.1483 14.09 9.81244 14.0898 9.39844L14.0898 6.91113L10.6465 10.3545C10.3536 10.6469 9.87869 10.6472 9.58594 10.3545ZM11.4561 17.5C12.3086 17.5 13 16.8086 13 15.9561L13 14.5205L12.1865 14.5205L9.20703 17.5L11.4561 17.5ZM7.79297 17.5L10.7725 14.5205L8.55664 14.5205C8.43839 14.5205 8.32178 14.5131 8.20703 14.5L5.20703 17.5L7.79297 17.5ZM2.51855 16.1885C2.61929 16.8548 3.14517 17.3807 3.81152 17.4814L7.12793 14.165C6.64528 13.908 6.24287 13.523 5.95898 13.0576C5.91923 12.9936 5.87974 12.9294 5.84473 12.8623L2.51855 16.1885ZM5.5166 11.7764C5.50559 11.6711 5.5 11.5642 5.5 11.4561L5.5 9.20703L2.5 12.207L2.5 14.793L5.5166 11.7764ZM5.5 7.79297L5.5 7L4.00684 7C3.17481 7 2.5 7.67481 2.5 8.50684L2.5 10.793L5.5 7.79297Z" fill="#1D1C1D"/>
</svg>
