<svg width="20" height="20" viewBox="0 0 20 20" fill="none" xmlns="http://www.w3.org/2000/svg">
<path d="M12.544 12.3828C12.544 10.6285 11.1215 9.20609 9.36725 9.20605L4.13287 9.20605C2.37855 9.20605 0.956116 10.6285 0.956116 12.3828L0.956116 15.6172C0.956116 17.3715 2.37854 18.7939 4.13287 18.7939L9.36725 18.7939C11.1215 18.7939 12.544 17.3715 12.544 15.6172L12.544 12.3828ZM12.544 4.38281C12.544 2.6285 11.1215 1.20609 9.36725 1.20605L4.13287 1.20605C2.37855 1.20605 0.956116 2.62848 0.956116 4.38281L0.956116 4.61719C0.956117 6.37152 2.37855 7.79394 4.13287 7.79394L9.36725 7.79394C11.1215 7.79391 12.544 6.3715 12.544 4.61719L12.544 4.38281ZM3.05768 16.7832C2.74295 16.4928 2.54401 16.0789 2.54401 15.6172L2.54401 14.71L6.46002 10.7939L9.04596 10.7939L3.05768 16.7832ZM2.54401 13.2959L2.54401 12.3828C2.54401 11.5056 3.25571 10.7939 4.13287 10.7939L5.04596 10.7939L2.54401 13.2959ZM10.9561 4.61719C10.9561 5.49433 10.2444 6.20602 9.36725 6.20605L4.13287 6.20605C3.25571 6.20605 2.54401 5.49435 2.54401 4.61719L2.54401 4.38281C2.54401 3.50565 3.25571 2.79394 4.13287 2.79394L9.36725 2.79394C10.2444 2.79398 10.9561 3.50567 10.9561 4.38281L10.9561 4.61719ZM6.63385 17.2061L4.13287 17.2061C4.10568 17.2061 4.07868 17.2035 4.05182 17.2021L10.2139 11.041C10.6591 11.3226 10.9561 11.8174 10.9561 12.3828L10.9561 12.8838L6.63385 17.2061ZM10.9561 15.6172C10.9561 16.4943 10.2444 17.206 9.36725 17.2061L8.04791 17.2061L10.9561 14.2979L10.9561 15.6172ZM19.0001 10.5352C19 8.48183 18.1245 6.47925 16.4981 5.50488L17.6768 5.50488C18.1153 5.50472 18.4708 5.14942 18.4708 4.71094C18.4705 4.27272 18.1151 3.91716 17.6768 3.91699L14.5001 3.91699C14.0618 3.91713 13.7064 4.27271 13.7061 4.71094L13.7061 7.8877C13.7061 8.32619 14.0616 8.6815 14.5001 8.68164C14.9385 8.68148 15.294 8.32618 15.294 7.8877L15.294 6.68262C16.5328 7.18556 17.4121 8.64378 17.4122 10.5352C17.4121 12.6888 16.2459 14.2819 14.4024 14.5117C13.9674 14.5659 13.6582 14.9625 13.712 15.3975C13.7662 15.8327 14.1635 16.1421 14.5987 16.0879C17.4623 15.731 19 13.2405 19.0001 10.5352Z" fill="#1D1C1D"/>
</svg>
