<svg width="20" height="20" viewBox="0 0 20 20" fill="none" xmlns="http://www.w3.org/2000/svg">
<path d="M11.5215 10.4609C11.5214 8.72747 10.1163 7.32228 8.38281 7.32227L4.13867 7.32226C2.40518 7.32226 1.00005 8.72746 1 10.4609L1 15.707C1 17.4406 2.40515 18.8467 4.13867 18.8467L8.38281 18.8467C10.1163 18.8467 11.5215 17.4405 11.5215 15.707L11.5215 10.4609ZM10.0195 15.707C10.0195 16.6107 9.28648 17.3437 8.38281 17.3437L4.13867 17.3437C3.235 17.3437 2.50195 16.6107 2.50195 15.707L2.50195 10.4609C2.50201 9.55731 3.23503 8.82422 4.13867 8.82422L8.38281 8.82422C9.28645 8.82423 10.0195 9.55731 10.0195 10.4609L10.0195 15.707ZM15.0264 5.37305C14.6724 2.53141 12.2009 1.00007 9.50488 1C7.39756 1.00006 5.35379 1.92511 4.4209 3.62988L4.4209 2.28223C4.42064 1.8675 4.08367 1.53053 3.66895 1.53027C3.25409 1.53039 2.91823 1.86741 2.91797 2.28223L2.91797 5.46582C2.91808 5.88076 3.254 6.21668 3.66895 6.2168L6.85254 6.2168C7.26736 6.21653 7.60438 5.88067 7.60449 5.46582C7.60423 5.05109 7.26727 4.71413 6.85254 4.71387L5.57617 4.71387C6.06489 3.41844 7.56752 2.50397 9.50488 2.50391C11.6786 2.50397 13.3004 3.68269 13.5342 5.55859C13.5855 5.97049 13.9612 6.26314 14.373 6.21191C14.7848 6.16052 15.0776 5.78489 15.0264 5.37305ZM18.9961 10.6094C18.9958 8.87606 17.5908 7.4707 15.8574 7.4707L15.6221 7.4707C13.8888 7.4708 12.4837 8.87613 12.4834 10.6094L12.4834 15.8555C12.4834 17.5889 13.8886 18.995 15.6221 18.9951L15.8574 18.9951C17.5909 18.9951 18.9961 17.589 18.9961 15.8555L18.9961 10.6094ZM13.9854 12.0498L13.9854 10.6094C13.9856 9.70597 14.7186 8.97276 15.6221 8.97266L15.8574 8.97266C16.199 8.97266 16.5159 9.0787 16.7783 9.25781L13.9854 12.0498ZM13.9893 15.9258C13.9883 15.9026 13.9854 15.8789 13.9854 15.8555L13.9854 13.4668L17.3965 10.0566C17.4587 10.2295 17.4941 10.4152 17.4941 10.6094L17.4941 12.4199L13.9893 15.9258ZM17.4941 15.8555C17.4941 16.7591 16.7611 17.4922 15.8574 17.4922L15.6221 17.4922C15.1333 17.4921 14.6964 17.2764 14.3965 16.9365L17.4941 13.8379L17.4941 15.8555Z" fill="#1D1C1D"/>
</svg>
