<svg width="20" height="20" viewBox="0 0 20 20" fill="none" xmlns="http://www.w3.org/2000/svg">
<path d="M14.75 1.5C16.821 1.50003 18.5 3.17895 18.5 5.25V10.9854C18.5 11.7147 18.21 12.414 17.6943 12.9297L12.9297 17.6943C12.414 18.21 11.7147 18.5 10.9854 18.5H6.25C5.1299 18.5 4.12354 18.0077 3.4375 17.2305C3.16363 16.9199 3.19345 16.4459 3.50391 16.1719C3.81446 15.898 4.28847 15.9278 4.5625 16.2383C4.97587 16.7065 5.57821 17 6.25 17H10.75V12.25C10.75 11.4216 11.4216 10.75 12.25 10.75H17V5.25C17 4.00738 15.9926 3.00003 14.75 3H6.25C5.57821 3 4.97587 3.2935 4.5625 3.76172C4.28847 4.07218 3.81446 4.10199 3.50391 3.82812C3.19345 3.55409 3.16363 3.08008 3.4375 2.76953C4.12354 1.99229 5.1299 1.5 6.25 1.5H14.75ZM12.25 12.25V16.2529L16.2529 12.25H12.25ZM3.21973 6.96973C3.51262 6.67684 3.98738 6.67683 4.28027 6.96973L6.78027 9.46973C6.92092 9.61037 6.99999 9.8011 7 10C7 10.1989 6.92092 10.3896 6.78027 10.5303L4.28027 13.0303C3.98738 13.3232 3.51262 13.3232 3.21973 13.0303C2.92684 12.7374 2.92683 12.2626 3.21973 11.9697L4.43945 10.75H1.25C0.835786 10.75 0.5 10.4142 0.5 10C0.5 9.58579 0.835786 9.25 1.25 9.25H4.43945L3.21973 8.03027C2.92684 7.73738 2.92683 7.26262 3.21973 6.96973Z" fill="#1D1C1D"/>
</svg>
