<svg width="20" height="20" viewBox="0 0 20 20" fill="none" xmlns="http://www.w3.org/2000/svg">
<path d="M12.5 4C15.8137 4 18.5 6.68629 18.5 10C18.5 13.3137 15.8137 16 12.5 16C9.18629 16 6.5 13.3137 6.5 10C6.5 6.68629 9.18629 4 12.5 4ZM6.3584 4.10938C6.76498 4.03118 7.15792 4.29751 7.23633 4.7041C7.31423 5.11052 7.04804 5.50365 6.6416 5.58203C4.5669 5.98237 3 7.8098 3 10.001C3.00042 12.1918 4.56715 14.0187 6.6416 14.4189C7.04827 14.4974 7.31476 14.8912 7.23633 15.2979C7.15754 15.7039 6.76468 15.9697 6.3584 15.8916C3.59118 15.3579 1.50042 12.9243 1.5 10.001C1.5 7.07727 3.59094 4.64312 6.3584 4.10938ZM12.5 5.5C10.0147 5.5 8 7.51472 8 10C8 12.4853 10.0147 14.5 12.5 14.5C14.9853 14.5 17 12.4853 17 10C17 7.51472 14.9853 5.5 12.5 5.5ZM11.7598 6.8418C12.1238 6.64428 12.5798 6.77856 12.7773 7.14258C13.2386 7.99286 13.5 8.96804 13.5 10.001C13.4999 11.0337 13.2386 12.0083 12.7773 12.8584C12.5797 13.2221 12.1237 13.3575 11.7598 13.1602C11.3959 12.9627 11.2608 12.5066 11.458 12.1426C11.803 11.5066 11.9999 10.7777 12 10.001C12 9.22403 11.8031 8.49456 11.458 7.8584C11.2606 7.49453 11.3962 7.03949 11.7598 6.8418Z" fill="#1D1C1D"/>
</svg>
