<svg width="20" height="20" viewBox="0 0 20 20" fill="none" xmlns="http://www.w3.org/2000/svg">
<path d="M17.571 1.24564C17.9608 1.20746 18.472 1.25003 18.8532 1.63117C19.2343 2.01232 19.2769 2.52354 19.2387 2.91333C19.1991 3.31772 19.0592 3.75907 18.8769 4.19671C18.5093 5.07941 17.8935 6.12353 17.2018 7.15815C15.9447 9.03857 14.3574 11.0047 13.3159 12.111C13.2751 11.9412 13.2369 11.7962 13.209 11.6966L13.2049 11.6809C13.2009 11.666 13.1953 11.6462 13.1881 11.6217C13.1738 11.5728 13.1529 11.5053 13.1245 11.4225C13.0677 11.2571 12.9803 11.029 12.8544 10.7642C12.6038 10.2375 12.192 9.54825 11.5485 8.92218C10.9138 8.30462 10.2334 7.89774 9.71622 7.64544C9.45628 7.51864 9.23363 7.42898 9.07277 7.37009C8.99222 7.3406 8.9268 7.31869 8.87953 7.3036C8.85589 7.29606 8.83675 7.2902 8.82249 7.28594L8.8152 7.2838C8.70233 7.24688 8.55399 7.20254 8.38552 7.15691C9.494 6.11528 11.4527 4.53502 13.3262 3.28251C14.3608 2.59084 15.4049 1.97496 16.2876 1.60738C16.7253 1.42514 17.1666 1.28525 17.571 1.24564Z" fill="#1D1C1D"/>
<path d="M7.22873 8.4312C6.72335 9.12546 6.44277 9.80851 6.4038 10.4957C6.39658 10.6231 6.3978 10.7475 6.40669 10.8692L6.39132 10.8668C5.64491 10.7523 4.80447 10.8978 4.13077 11.5286C3.55575 12.0669 3.28118 12.7364 3.07792 13.232L3.06072 13.2739C2.81676 13.8679 2.66674 14.1832 2.385 14.3832C2.17879 14.5295 2.03989 14.5688 1.96639 14.5812C1.89246 14.5936 1.84148 14.5874 1.75812 14.575L1.75253 14.5742C1.7286 14.5705 1.66978 14.5616 1.61242 14.5583L1.60921 14.5581C1.56372 14.5553 1.36981 14.5436 1.16789 14.6508C0.872177 14.8078 0.768373 15.0884 0.752732 15.2888C0.740871 15.4407 0.774546 15.5683 0.788055 15.6178C0.842648 15.818 0.961918 16.0326 1.08611 16.2189C1.22162 16.4223 1.40269 16.6507 1.62727 16.882C2.07555 17.3436 2.71912 17.8387 3.55415 18.1585C4.41344 18.4876 5.58897 18.5875 6.68308 18.3151C7.79464 18.0383 8.90197 17.3514 9.44158 16.041C9.7259 15.3505 9.79171 14.7215 9.70421 14.155C9.80485 14.1567 9.90744 14.1528 10.012 14.1431C10.6784 14.0809 11.3457 13.7854 12.0225 13.2868C11.9633 12.8759 11.835 12.3522 11.7628 12.0945L11.7599 12.0843L11.758 12.0766L11.757 12.0728L11.7559 12.0688C11.7543 12.0631 11.7519 12.0546 11.7486 12.0434C11.7403 12.0149 11.7263 11.9693 11.7058 11.9096C11.6647 11.7899 11.5981 11.6151 11.4999 11.4087C11.302 10.9928 10.984 10.4658 10.5025 9.99727C10.0122 9.52023 9.47635 9.19738 9.05859 8.9936C8.85105 8.89236 8.67652 8.82239 8.55709 8.77866C8.49749 8.75684 8.45197 8.74169 8.42334 8.73255C8.40904 8.72799 8.39899 8.72493 8.39355 8.72331L8.38931 8.72206L8.37463 8.71796L8.35803 8.71248C8.16913 8.65014 7.80567 8.54743 7.43268 8.47031C7.36097 8.45548 7.29287 8.44248 7.22873 8.4312Z" fill="#1D1C1D"/>
</svg>
