<svg width="20" height="20" viewBox="0 0 20 20" fill="none" xmlns="http://www.w3.org/2000/svg">
<path d="M17.5707 1.24565C17.9117 1.21225 18.346 1.24061 18.7045 1.50346L18.8529 1.63139L18.9809 1.77983C19.2433 2.13799 19.2719 2.57183 19.2387 2.91264C19.1991 3.31698 19.0586 3.75923 18.8764 4.19682C18.5088 5.07937 17.8931 6.12336 17.2016 7.15776C15.8163 9.2299 14.03 11.4064 13.015 12.4214C11.9931 13.4434 11.0016 14.0507 10.0121 14.1431C9.90725 14.1529 9.80444 14.1546 9.70352 14.1529C9.79145 14.7197 9.72632 15.3494 9.4418 16.0406C8.90225 17.3509 7.79443 18.0381 6.68301 18.315C5.58908 18.5873 4.41328 18.4877 3.5541 18.1587C2.71914 17.8389 2.07559 17.343 1.62734 16.8814C1.40289 16.6502 1.22179 16.4216 1.08633 16.2183C0.962258 16.0321 0.843054 15.8177 0.788477 15.6177C0.777162 15.5762 0.762484 15.5144 0.755274 15.4429C0.748621 15.3767 0.742403 15.2508 0.788477 15.106C0.842388 14.9371 0.956302 14.7788 1.12734 14.6744C1.27578 14.5839 1.41768 14.5645 1.48965 14.5591C1.61305 14.55 1.73664 14.5712 1.74746 14.5728C1.79181 14.5794 1.81473 14.5831 1.84219 14.5855C1.89849 14.5904 2.06941 14.6073 2.38516 14.3833C2.65453 14.192 2.80724 13.8893 3.0375 13.3296C3.24514 12.8249 3.52047 12.0997 4.13125 11.5279C4.80484 10.8977 5.64582 10.7523 6.39199 10.8667C6.39654 10.8674 6.40112 10.868 6.40566 10.8687C6.39683 10.7473 6.39651 10.6227 6.40371 10.4956C6.46062 9.49385 7.03119 8.50001 8.06289 7.4683C9.07801 6.45331 11.2539 4.66779 13.3256 3.28276C14.3602 2.59111 15.4048 1.97456 16.2875 1.60698C16.725 1.42481 17.1664 1.28528 17.5707 1.24565ZM6.16445 12.3492C5.77088 12.2888 5.42544 12.3722 5.15664 12.6236C4.82512 12.9339 4.6583 13.3343 4.4252 13.9009C4.21476 14.4124 3.92592 15.1285 3.25332 15.606C3.08105 15.7283 2.91478 15.8198 2.7582 15.8902C3.0818 16.2105 3.52902 16.5421 4.09121 16.7574C4.66095 16.9754 5.52231 17.0577 6.3207 16.8589C7.10171 16.6644 7.74339 16.2262 8.05508 15.4693C8.32089 14.8233 8.26528 14.362 8.11172 13.9976C7.94209 13.5954 7.62708 13.2465 7.25625 12.8902C6.98152 12.6262 6.57338 12.412 6.16445 12.3492ZM8.79824 8.87455C8.14085 9.61376 7.92419 10.1694 7.90078 10.5806C7.87519 11.033 8.07413 11.4884 8.56582 12.0201C9.02723 12.5188 9.44444 12.6888 9.87246 12.649C10.2903 12.61 10.8637 12.3601 11.6195 11.6792C11.5866 11.5977 11.5472 11.5062 11.5004 11.4078C11.3025 10.9919 10.9838 10.4651 10.5023 9.99662C10.0122 9.51976 9.47666 9.19648 9.05898 8.99272C8.96476 8.94676 8.87689 8.90807 8.79824 8.87455ZM17.7172 2.73783C17.5262 2.75658 17.2416 2.83436 16.8637 2.99174C16.115 3.30353 15.1657 3.85624 14.1596 4.52885C12.6171 5.56005 11.0249 6.81762 9.94668 7.76713C10.4259 8.02213 11.0048 8.39274 11.5482 8.92143C12.0967 9.45508 12.4762 10.0354 12.7318 10.521C13.6793 9.44284 14.9286 7.85834 15.9545 6.32377C16.6271 5.31759 17.1799 4.3683 17.4916 3.61967C17.6489 3.24186 17.7268 2.9581 17.7455 2.76713C17.7465 2.75623 17.7458 2.74539 17.7465 2.73588C17.7374 2.73651 17.7275 2.73683 17.7172 2.73783Z" fill="#1D1C1D"/>
</svg>
