<svg width="20" height="20" viewBox="0 0 20 20" fill="none" xmlns="http://www.w3.org/2000/svg">
<path d="M16.7499 1.74964C17.4896 1.36861 18.4029 1.93193 18.2499 2.74964L15.7499 16.7496C15.5612 17.7559 14.1449 18.2469 13.2499 17.7496L8.37098 14.9039C7.80469 14.5736 7.70345 13.7963 8.16688 13.3326L13.7499 7.74964C14.0384 7.45254 14.047 7.03823 13.7499 6.74964C13.4528 6.46129 13.0384 6.45271 12.7499 6.74964L6.2577 12.778C5.95224 13.0616 5.50261 13.1265 5.12977 12.9401L2.74989 11.7496C1.70286 11.1677 1.68495 9.79824 2.74989 9.24964L16.7499 1.74964ZM9.58289 16.6354L7.70985 17.6422C7.21036 17.9104 6.60568 17.5489 6.60535 16.9821V14.9782L9.58289 16.6354Z" fill="#1D1C1D"/>
</svg>
