<svg width="12" height="12" viewBox="0 0 12 12" fill="none" xmlns="http://www.w3.org/2000/svg">
<path d="M10.05 1.05063C10.4938 0.821986 11.0423 1.15956 10.9504 1.65024L9.4504 10.0506C9.33701 10.6541 8.48733 10.9482 7.9504 10.6502L5.47091 9.20395C4.90457 8.87358 4.80323 8.09629 5.26681 7.63266L8.25021 4.65024C8.42316 4.47208 8.42813 4.22374 8.25021 4.05063C8.07194 3.87746 7.82279 3.87236 7.64962 4.05063L3.95822 7.47836C3.6528 7.76196 3.20309 7.82679 2.83029 7.64047L1.64962 7.05063C1.02152 6.70157 1.01108 5.87994 1.64962 5.55063L10.05 1.05063ZM5.78439 10.2293L5.06759 10.6151C4.56803 10.883 3.9631 10.5209 3.9631 9.95395V9.21567L5.78439 10.2293Z" fill="#1D1C1D"/>
</svg>
