<svg width="12" height="12" viewBox="0 0 12 12" fill="none" xmlns="http://www.w3.org/2000/svg">
<path d="M10.0712 1.09493C10.5983 0.913908 11.1545 1.36941 11.0467 1.94454L9.53307 10.0188C9.37584 10.8573 8.44296 11.2954 7.69713 10.8811L5.85924 9.85958L5.08483 10.302C4.58485 10.5871 3.96279 10.2261 3.96276 9.65059V8.80587L1.73229 7.56759C0.859759 7.08271 0.879182 5.82075 1.76647 5.36348L9.96666 1.13985L10.0712 1.09493ZM5.03795 8.25997L8.18346 10.007C8.33256 10.0897 8.51913 10.0027 8.55065 9.83516L9.7528 3.4172L5.03795 8.25997ZM2.22448 6.25216C2.04706 6.3436 2.04325 6.59655 2.21764 6.69356L4.1317 7.75704L8.99303 2.76485L2.22448 6.25216Z" fill="#1D1C1D"/>
</svg>
