<svg width="20" height="20" viewBox="0 0 20 20" fill="none" xmlns="http://www.w3.org/2000/svg">
<path d="M16.75 1.5C17.1642 1.50002 17.5 1.8358 17.5 2.25C17.5 2.6642 17.1642 2.99998 16.75 3H13.75V17.75C13.75 18.1642 13.4142 18.5 13 18.5C12.5858 18.5 12.25 18.1642 12.25 17.75V3H8.75V17.75C8.75 18.1642 8.41421 18.5 8 18.5C7.58579 18.5 7.25 18.1642 7.25 17.75V10.9941C4.74976 10.8856 2.5 9.15244 2.5 6.25C2.5 3.25111 4.90175 1.5 7.5 1.5H16.75ZM7.25 3.00977C5.41927 3.11203 4 4.33526 4 6.25C4 8.16472 5.41929 9.38697 7.25 9.48926V3.00977Z" fill="#1D1C1D"/>
</svg>
