<svg width="20" height="20" viewBox="0 0 20 20" fill="none" xmlns="http://www.w3.org/2000/svg">
<path d="M9.51776 1.50684C10.4458 1.57803 11.0832 2.20148 11.0832 3.93555L11.0793 4.2041C11.0623 4.84293 10.9812 5.58044 10.756 6.60449C11.5049 8.03285 12.5104 9.43845 13.4699 10.4688C14.1718 10.3985 14.7337 10.2813 15.3185 10.2812L15.6408 10.292C17.1966 10.401 17.9162 11.304 17.9162 12.248L17.9055 12.4336C17.7972 13.3674 16.8883 14.3555 15.506 14.3555L15.3391 14.3506C14.4996 14.2985 13.6154 13.8547 12.6281 13.0205C11.0368 13.3249 9.32796 13.9107 7.80682 14.4961C6.94099 16.2522 5.72417 18.4998 4.133 18.5L3.9162 18.4873C2.92301 18.3732 2.15838 17.4901 2.06073 16.6055L2.04999 16.416C2.04999 15.1047 3.36066 13.91 6.0285 12.6689C6.89429 10.9129 7.73639 8.73536 8.2746 6.81543C7.74215 5.79085 7.44263 4.89168 7.37616 4.11816L7.36249 3.79492C7.36249 2.36655 8.01779 1.5 9.32831 1.5L9.51776 1.50684ZM6.26678 14.2178C5.21187 14.7353 4.50252 15.2014 4.06268 15.6123C3.5835 16.0599 3.54999 16.3174 3.54999 16.416C3.55 16.483 3.5925 16.6465 3.74139 16.8037C3.87979 16.9498 4.02373 17 4.133 17C4.19849 16.9999 4.51155 16.9344 5.06073 16.2324C5.49215 15.6809 5.88936 14.9629 6.26678 14.2178ZM15.3185 11.7812C15.1224 11.7813 14.9103 11.801 14.6262 11.8369C14.3824 11.8677 14.0421 11.9142 13.6916 11.9512C14.5757 12.6778 15.1448 12.8554 15.506 12.8555C15.845 12.8555 16.0773 12.7324 16.2228 12.5918C16.3889 12.4314 16.4161 12.2798 16.4162 12.248C16.4162 12.167 16.3914 12.0972 16.3088 12.0264C16.2167 11.9475 15.943 11.7812 15.3185 11.7812ZM9.65546 8.87598C9.35123 9.97652 8.90681 11.0772 8.50897 12.1543C9.4683 11.8265 10.451 11.4754 11.4338 11.2412C10.802 10.5154 10.2405 9.7189 9.65546 8.87598ZM9.32831 3C9.16586 3 9.08247 3.02683 9.05096 3.04004C9.02562 3.05072 9.01677 3.05875 9.008 3.06934C8.98156 3.10148 8.86249 3.28518 8.86249 3.79492C8.86252 4.2317 9.00532 4.86033 9.40448 5.71484C9.54519 4.95066 9.58318 4.40842 9.58319 3.93555C9.58319 3.34387 9.48934 3.0898 9.4494 3.00781C9.42393 3.00385 9.3846 3.00001 9.32831 3Z" fill="#1D1C1D"/>
</svg>
