<svg width="20" height="20" viewBox="0 0 20 20" fill="none" xmlns="http://www.w3.org/2000/svg">
<path d="M9.32831 1.5C10.3579 1.50009 11.0832 2.08583 11.0832 3.93555C11.0832 4.6379 11.0134 5.434 10.756 6.60449C11.5049 8.03285 12.5104 9.43845 13.4699 10.4688C14.1718 10.3985 14.7337 10.2813 15.3185 10.2812C17.0971 10.2812 17.9162 11.2412 17.9162 12.248C17.9161 13.2315 16.9803 14.3555 15.506 14.3555C14.6169 14.3554 13.6811 13.9102 12.6281 13.0205C11.0368 13.3249 9.32796 13.9107 7.80682 14.4961C6.94099 16.2522 5.72417 18.4998 4.133 18.5C2.9629 18.5 2.05001 17.4229 2.04999 16.416C2.04999 15.1047 3.36066 13.91 6.0285 12.6689C6.89429 10.9129 7.73639 8.73536 8.2746 6.81543C7.66623 5.64477 7.36253 4.63783 7.36249 3.79492C7.36249 2.36655 8.01779 1.5 9.32831 1.5ZM9.65546 8.87598C9.35123 9.97652 8.90681 11.0772 8.50897 12.1543C9.4683 11.8265 10.451 11.4754 11.4338 11.2412C10.802 10.5154 10.2405 9.7189 9.65546 8.87598Z" fill="#1D1C1D"/>
</svg>
