<svg width="20" height="20" viewBox="0 0 20 20" fill="none" xmlns="http://www.w3.org/2000/svg">
<path d="M16.136 2.80273C16.4289 2.5099 16.9037 2.51 17.1966 2.80273C17.4895 3.09563 17.4895 3.57039 17.1966 3.86328L3.86359 17.1963C3.57069 17.4892 3.09593 17.4892 2.80304 17.1963C2.51031 16.9034 2.5102 16.4286 2.80304 16.1357L16.136 2.80273ZM14.1663 10.916C15.0281 10.916 15.8547 11.2589 16.4642 11.8682C17.0736 12.4776 17.4163 13.3041 17.4163 14.166C17.4163 15.028 17.0737 15.8544 16.4642 16.4639C15.8547 17.0733 15.0282 17.416 14.1663 17.416C13.3045 17.4159 12.4779 17.0733 11.8685 16.4639C11.2592 15.8544 10.9163 15.0278 10.9163 14.166C10.9164 13.3042 11.2591 12.4776 11.8685 11.8682C12.4779 11.2588 13.3045 10.9161 14.1663 10.916ZM14.1663 12.416C13.7023 12.4161 13.2571 12.6006 12.929 12.9287C12.6009 13.2568 12.4164 13.702 12.4163 14.166C12.4163 14.63 12.601 15.0752 12.929 15.4033C13.2571 15.7314 13.7023 15.9159 14.1663 15.916C14.6304 15.916 15.0754 15.7315 15.4036 15.4033C15.7318 15.0751 15.9163 14.6301 15.9163 14.166C15.9163 13.702 15.7318 13.2568 15.4036 12.9287C15.0755 12.6007 14.6303 12.416 14.1663 12.416ZM5.83331 2.58301C6.69527 2.58301 7.52167 2.92566 8.13116 3.53516C8.74066 4.14465 9.08331 4.97105 9.08331 5.83301C9.08331 6.69496 8.74066 7.52137 8.13116 8.13086C7.52167 8.74035 6.69527 9.08301 5.83331 9.08301C4.97136 9.08301 4.14495 8.74035 3.53546 8.13086C2.92597 7.52137 2.58331 6.69496 2.58331 5.83301C2.58331 4.97105 2.92597 4.14465 3.53546 3.53516C4.14495 2.92566 4.97136 2.58301 5.83331 2.58301ZM5.83331 4.08301C5.36918 4.08301 4.9242 4.26751 4.59601 4.5957C4.26782 4.92389 4.08331 5.36888 4.08331 5.83301C4.08331 6.29714 4.26782 6.74212 4.59601 7.07031C4.9242 7.3985 5.36918 7.58301 5.83331 7.58301C6.29744 7.58301 6.74243 7.3985 7.07062 7.07031C7.39881 6.74212 7.58331 6.29714 7.58331 5.83301C7.58331 5.36888 7.39881 4.92389 7.07062 4.5957C6.74243 4.26751 6.29744 4.08301 5.83331 4.08301Z" fill="#1D1C1D"/>
</svg>
