<svg width="20" height="20" viewBox="0 0 20 20" fill="none" xmlns="http://www.w3.org/2000/svg">
<path d="M9.99992 13.5C10.5522 13.5 10.9999 13.9477 10.9999 14.5C10.9999 15.0523 10.5522 15.5 9.99992 15.5C9.44763 15.5 8.99992 15.0523 8.99992 14.5C8.99992 13.9477 9.44763 13.5 9.99992 13.5ZM3.96281 6.71973C4.25572 6.42701 4.73053 6.42689 5.02336 6.71973C5.31601 7.01257 5.316 7.48743 5.02336 7.78027L2.80754 9.99512L5.47648 12.6836C5.76809 12.9776 5.76652 13.4524 5.47258 13.7441C5.17856 14.0357 4.70374 14.0332 4.41203 13.7393L1.21769 10.5215C0.926695 10.2283 0.927529 9.75402 1.21965 9.46191L3.96281 6.71973ZM14.9696 6.71973C15.2625 6.42707 15.7373 6.42707 16.0302 6.71973L18.7734 9.46191C19.0652 9.75397 19.0661 10.2283 18.7753 10.5215L15.581 13.7393C15.2893 14.0331 14.8145 14.0355 14.5204 13.7441C14.2265 13.4524 14.2249 12.9776 14.5165 12.6836L17.1855 9.99512L14.9696 7.78027C14.677 7.48743 14.677 7.01257 14.9696 6.71973ZM9.99992 3.75C10.7798 3.75 11.6721 3.94275 12.3915 4.45312C13.1434 4.98656 13.6581 5.83719 13.6581 7C13.6581 7.98926 13.348 8.8233 12.7294 9.42773C12.164 9.98008 11.4097 10.2701 10.5917 10.375V11.5C10.5917 11.9142 10.2559 12.25 9.84172 12.25C9.42766 12.2498 9.09172 11.9141 9.09172 11.5V10.1738C9.09176 9.46615 9.6573 8.96211 10.2714 8.9043L10.5097 8.875C11.044 8.79029 11.4272 8.60203 11.6806 8.35449C11.9582 8.08327 12.1581 7.66474 12.1581 7C12.1581 6.33679 11.8899 5.9368 11.5234 5.67676C11.1243 5.39366 10.5621 5.25 9.99992 5.25C9.00818 5.25 8.25002 5.88832 8.24992 6.93457C8.24992 7.34878 7.91413 7.68457 7.49992 7.68457C7.08571 7.68457 6.74992 7.34878 6.74992 6.93457C6.75003 4.9376 8.30757 3.75 9.99992 3.75Z" fill="#1D1C1D"/>
</svg>
