<svg width="12" height="12" viewBox="0 0 12 12" fill="none" xmlns="http://www.w3.org/2000/svg">
<path d="M4.1923 1.12736C4.61588 0.703825 5.34045 0.923773 5.45793 1.51115L5.80363 3.23869L6.79484 4.22892C7.38083 4.09987 7.96485 4.03805 8.56144 4.11759C9.24933 4.20935 9.92319 4.48461 10.62 5.00724C10.7244 5.0855 10.7895 5.20528 10.7987 5.33537C10.808 5.46549 10.7601 5.59371 10.6679 5.68595L8.53019 7.81974L10.9804 10.2699C11.2201 10.5099 11.1756 10.8238 10.9999 10.9994C10.8243 11.1751 10.4805 11.2196 10.2704 10.9799L7.82023 8.5297L5.68644 10.6674C5.5942 10.7596 5.46598 10.8075 5.33586 10.7983C5.20576 10.789 5.08599 10.7239 5.00773 10.6195C4.4851 9.9227 4.20983 9.24884 4.11808 8.56095C4.03854 7.96436 4.10036 7.38034 4.22941 6.79435L3.23918 5.80314L1.51164 5.45744C0.924261 5.33996 0.704313 4.61539 1.12785 4.19181L4.1923 1.12736Z" fill="#1D1C1D"/>
</svg>
