<svg width="20" height="20" viewBox="0 0 20 20" fill="none" xmlns="http://www.w3.org/2000/svg">
<path d="M6.98769 1.88082C7.69363 1.17495 8.90122 1.5406 9.09707 2.51949L9.67324 5.3984L11.3246 7.04976C12.3013 6.83465 13.2746 6.73163 14.2689 6.86422C15.4153 7.0171 16.5383 7.47574 17.6996 8.34664C17.8735 8.47704 17.983 8.67674 17.9984 8.89351C18.0138 9.11035 17.9344 9.32377 17.7807 9.4775L14.1586 13.0986L18.2807 17.2207C18.5731 17.5136 18.5734 17.9885 18.2807 18.2812C17.9879 18.5739 17.513 18.5736 17.2201 18.2812L13.098 14.1591L9.47695 17.7812C9.32322 17.9349 9.1098 18.0144 8.89296 17.999C8.67619 17.9835 8.47649 17.874 8.34609 17.7002C7.47519 16.5388 7.01655 15.4159 6.86367 14.2695C6.73108 13.2751 6.83411 12.3019 7.04921 11.3252L5.39785 9.67379L2.51894 9.09762C1.54005 8.90177 1.1744 7.69418 1.88027 6.98824L6.98769 1.88082Z" fill="#1D1C1D"/>
</svg>
