<svg width="20" height="20" viewBox="0 0 20 20" fill="none" xmlns="http://www.w3.org/2000/svg">
<path d="M7.1246 1.76026C7.8395 1.22195 8.91224 1.60062 9.09628 2.51807L9.67245 5.39698L11.3228 7.04835C12.2997 6.83311 13.2736 6.7303 14.2682 6.8628C15.4146 7.01566 16.5384 7.47526 17.6998 8.3462C17.8735 8.47661 17.9822 8.67643 17.9976 8.89307C18.0129 9.10979 17.9335 9.32244 17.7799 9.47608L14.1578 13.0972L18.2799 17.2192C18.5727 17.5121 18.5727 17.9869 18.2799 18.2798C17.987 18.5725 17.5122 18.5726 17.2193 18.2798L13.0973 14.1577L9.47616 17.7798C9.32252 17.9333 9.10979 18.0129 8.89315 17.9976C8.67661 17.982 8.47663 17.8733 8.34628 17.6997C7.47531 16.5383 7.01574 15.4145 6.86288 14.2681C6.73033 13.2734 6.83317 12.2997 7.04842 11.3228L5.39706 9.67237L2.51815 9.0962C1.53999 8.89981 1.17402 7.69257 1.87948 6.98682L6.9869 1.8794L7.1246 1.76026ZM3.2701 7.71632L5.91463 8.24659L6.02108 8.27589C6.12451 8.31307 6.21905 8.37337 6.29745 8.45167L8.40487 10.5581C8.59114 10.7444 8.666 11.0154 8.60213 11.271C8.34588 12.2961 8.23387 13.197 8.35018 14.0698C8.43611 14.7143 8.6511 15.372 9.06112 16.0728L16.0728 9.06104C15.3721 8.65105 14.7143 8.43603 14.0699 8.35011C13.1972 8.23385 12.2961 8.34583 11.2711 8.60206C11.0156 8.66577 10.7444 8.59098 10.5582 8.40479L8.45174 6.29737C8.34729 6.19278 8.2757 6.0595 8.24667 5.91456L7.71639 3.27003L3.2701 7.71632Z" fill="#1D1C1D"/>
</svg>
