<svg width="20" height="20" viewBox="0 0 20 20" fill="none" xmlns="http://www.w3.org/2000/svg">
<path d="M14.2195 3.21961C14.5124 2.92676 14.9872 2.92684 15.2801 3.21961C15.573 3.5125 15.573 3.98726 15.2801 4.28016L13.0603 6.49988L14.9998 8.43934L17.2195 6.21961C17.5124 5.92676 17.9872 5.92684 18.2801 6.21961C18.573 6.5125 18.573 6.98726 18.2801 7.28016L16.0603 9.49988L17.0301 10.4696C17.1707 10.6103 17.2498 10.801 17.2498 10.9999C17.2498 11.1988 17.1707 11.3895 17.0301 11.5302L15.0301 13.5302C13.3056 15.2544 10.6346 15.4527 8.69119 14.1268L6.44803 16.5585C5.8939 17.1587 5.11355 17.4998 4.29666 17.4999C3.40749 17.4998 2.56604 17.0955 2.01053 16.4013L1.66385 15.9686C1.40525 15.6453 1.45782 15.1727 1.78104 14.9139C2.10445 14.6552 2.57695 14.7078 2.83572 15.0311L3.18143 15.4638C3.45228 15.8023 3.8631 15.9998 4.29666 15.9999C4.69486 15.9998 5.07532 15.8334 5.34549 15.5409L7.59158 13.1063C6.02982 11.1464 6.15554 8.28377 7.96951 6.46961L9.96951 4.46961L10.0262 4.41785C10.3207 4.17758 10.7554 4.19512 11.0301 4.46961L11.9998 5.43934L14.2195 3.21961ZM9.03006 7.53016C7.66632 8.89409 7.66628 11.1057 9.03006 12.4696C10.394 13.8335 12.6055 13.8334 13.9695 12.4696L15.4392 10.9999L10.4998 6.06043L9.03006 7.53016Z" fill="#1D1C1D"/>
</svg>
