<svg width="20" height="20" viewBox="0 0 20 20" fill="none" xmlns="http://www.w3.org/2000/svg">
<path d="M14.2196 3.21961C14.5125 2.92676 14.9872 2.92684 15.2801 3.21961C15.573 3.5125 15.573 3.98726 15.2801 4.28016L13.0604 6.49988L14.9999 8.43934L17.2196 6.21961C17.5125 5.92676 17.9872 5.92684 18.2801 6.21961C18.573 6.5125 18.573 6.98726 18.2801 7.28016L16.0604 9.49988L17.0301 10.4696C17.323 10.7625 17.323 11.2373 17.0301 11.5302L15.0301 13.5302C13.3057 15.2544 10.6347 15.4527 8.69128 14.1268L6.44812 16.5585C5.89398 17.1587 5.11363 17.4998 4.29675 17.4999C3.40758 17.4998 2.56612 17.0955 2.01062 16.4013L1.66394 15.9686C1.40534 15.6453 1.45791 15.1727 1.78112 14.9139C2.10453 14.6552 2.57704 14.7078 2.83581 15.0311L3.18151 15.4638C3.45236 15.8023 3.86319 15.9998 4.29675 15.9999C4.69495 15.9998 5.07541 15.8334 5.34558 15.5409L7.59167 13.1063C6.02993 11.1464 6.15564 8.28376 7.9696 6.46961L9.9696 4.46961C10.2624 4.17676 10.7372 4.17685 11.0301 4.46961L11.9999 5.43934L14.2196 3.21961Z" fill="#1D1C1D"/>
</svg>
