<svg width="12" height="12" viewBox="0 0 12 12" fill="none" xmlns="http://www.w3.org/2000/svg">
<path d="M5.99981 1.4502C6.27595 1.4502 6.49981 1.67405 6.49981 1.9502V5.5H10.0496C10.3257 5.5 10.5495 5.72395 10.5496 6C10.5496 6.27614 10.3258 6.5 10.0496 6.5H6.49981V10.0498C6.49981 10.3259 6.27595 10.5498 5.99981 10.5498C5.72375 10.5497 5.49981 10.3259 5.49981 10.0498V6.5H1.95C1.67386 6.5 1.45 6.27614 1.45 6C1.45011 5.72395 1.67392 5.5 1.95 5.5H5.49981V1.9502C5.49981 1.67412 5.72375 1.4503 5.99981 1.4502Z" fill="#1D1C1D"/>
</svg>
