<svg width="12" height="12" viewBox="0 0 12 12" fill="none" xmlns="http://www.w3.org/2000/svg">
<path d="M6.00041 1.34961C6.41444 1.34983 6.75041 1.68553 6.75041 2.09961V5.25H9.89983C10.314 5.25 10.6498 5.58579 10.6498 6C10.6497 6.41408 10.3139 6.75 9.89983 6.75H6.75041V9.89941C6.75041 10.3135 6.41444 10.6492 6.00041 10.6494C5.5862 10.6494 5.25041 10.3136 5.25041 9.89941V6.75H2.10002C1.68591 6.75 1.35018 6.41408 1.35002 6C1.35002 5.58579 1.68581 5.25 2.10002 5.25H5.25041V2.09961C5.25041 1.6854 5.5862 1.34961 6.00041 1.34961Z" fill="#1D1C1D"/>
</svg>
