<svg width="20" height="20" viewBox="0 0 20 20" fill="none" xmlns="http://www.w3.org/2000/svg">
<path d="M9.29513 1.69201C9.48214 1.55026 9.72543 1.50463 9.95138 1.56799C11.4458 1.98757 12.804 2.93958 13.676 4.07678C14.3314 4.93153 14.7731 5.98641 14.6731 7.03674C14.8184 7.08251 14.9593 7.13923 15.092 7.20568C15.5554 7.43787 15.9951 7.80928 16.3068 8.29357C16.6227 8.78432 16.8088 9.39496 16.7453 10.0778C16.7095 10.4628 16.5934 10.8511 16.3986 11.2389C17.0581 11.5409 17.5754 11.9826 17.9348 12.5221C18.4574 13.3067 18.6088 14.243 18.4387 15.1266C18.0941 16.9152 16.4575 18.4615 13.9484 18.4615H6.19845C3.492 18.4614 1.87943 16.8122 1.55489 15.0074C1.39635 14.1251 1.54854 13.1956 2.05685 12.4528C2.37819 11.9834 2.82623 11.6115 3.38106 11.3795C3.20001 10.9814 3.10091 10.5788 3.08321 10.1793C3.05125 9.45403 3.28231 8.79874 3.64474 8.276C4.0042 7.75769 4.5035 7.35218 5.04415 7.11389C5.30096 7.00076 5.58167 6.9214 5.86935 6.89025C6.02834 5.53379 6.59618 4.70458 7.342 4.22912C7.75375 3.96678 8.17297 3.84459 8.49435 3.77502C8.6527 3.74077 8.79958 3.71667 8.89864 3.69982C8.91839 3.69646 8.93569 3.69271 8.9504 3.69006C8.9517 3.68341 8.95487 3.67624 8.95626 3.66857C8.99884 3.42265 8.99825 3.02896 8.99825 2.28967C8.99825 2.05516 9.10839 1.83382 9.29513 1.69201ZM10.4846 3.37463C10.4756 3.57947 10.4625 3.76441 10.4348 3.92443C10.397 4.14272 10.3264 4.38945 10.1711 4.61096C10.0033 4.85013 9.77771 5.00272 9.53048 5.09045C9.39655 5.1379 9.23844 5.16323 9.14962 5.17834C9.03484 5.19786 8.92822 5.21542 8.81075 5.24084C8.57967 5.2909 8.35148 5.36486 8.14767 5.49475C7.79933 5.71704 7.32345 6.22927 7.32345 7.69592C7.32334 7.93738 7.2071 8.16448 7.01095 8.30529C6.81461 8.44593 6.56199 8.4833 6.33321 8.40588C6.18165 8.35463 5.94191 8.35825 5.64962 8.48693C5.36263 8.61344 5.08055 8.83958 4.87813 9.13146C4.67874 9.41912 4.56647 9.75502 4.58224 10.1129C4.5979 10.4663 4.73999 10.9004 5.14864 11.3834C5.33165 11.5997 5.37774 11.901 5.26681 12.1617C5.15574 12.4221 4.90679 12.5977 4.62423 12.6158C3.9573 12.6587 3.53848 12.9435 3.29415 13.3004C3.03846 13.6744 2.93175 14.1921 3.03048 14.7418C3.22109 15.8019 4.18696 16.9614 6.19845 16.9615H13.9484C15.7827 16.9615 16.7647 15.8824 16.965 14.8424C17.0671 14.3117 16.9725 13.7822 16.6867 13.3531C16.4052 12.9307 15.901 12.5496 15.0813 12.3805C14.8225 12.327 14.6112 12.1408 14.5246 11.8912C14.4381 11.6416 14.4893 11.3648 14.6594 11.1627C15.0725 10.6724 15.2224 10.2574 15.2522 9.93908C15.2816 9.6225 15.1979 9.34239 15.0451 9.1051C14.8882 8.86138 14.659 8.66623 14.4201 8.5465C14.1716 8.42208 13.9791 8.41037 13.8889 8.42932C13.6119 8.48792 13.3247 8.38559 13.1477 8.16467C12.9707 7.94374 12.9335 7.64192 13.051 7.38439C13.3389 6.75427 13.1776 5.89021 12.4865 4.98889C11.9941 4.34664 11.2859 3.76961 10.4846 3.37463ZM12.0002 12.5006C12.5001 12.5007 13.0002 12.9147 13.0002 13.5006C13 14.5005 12.0467 15.5005 10.0002 15.5006C7.95356 15.5006 7.00042 14.5005 7.00021 13.5006C7.00021 12.9625 7.50021 12.5006 8.00021 12.5006H12.0002ZM8.25021 9.00061C8.94047 9.00071 9.50021 9.56031 9.50021 10.2506C9.50002 10.9407 8.94036 11.5005 8.25021 11.5006C7.55996 11.5006 7.00039 10.9408 7.00021 10.2506C7.00021 9.56025 7.55985 9.00061 8.25021 9.00061ZM11.7502 9.00061C12.4405 9.00071 13.0002 9.56031 13.0002 10.2506C13 10.9407 12.4404 11.5005 11.7502 11.5006C11.06 11.5006 10.5004 10.9408 10.5002 10.2506C10.5002 9.56025 11.0598 9.00061 11.7502 9.00061Z" fill="#1D1C1D"/>
</svg>
