<svg width="20" height="20" viewBox="0 0 20 20" fill="none" xmlns="http://www.w3.org/2000/svg">
<path d="M9.29507 1.69201C9.48208 1.55026 9.72537 1.50463 9.95132 1.56799C11.4458 1.98757 12.804 2.93958 13.6759 4.07678C14.3313 4.93153 14.7731 5.98641 14.673 7.03674C14.8183 7.08251 14.9593 7.13923 15.0919 7.20568C15.5553 7.43787 15.995 7.80928 16.3068 8.29357C16.6226 8.78432 16.8088 9.39496 16.7453 10.0778C16.7094 10.4628 16.5933 10.8511 16.3986 11.2389C17.0581 11.5409 17.5753 11.9826 17.9347 12.5221C18.4573 13.3067 18.6087 14.243 18.4386 15.1266C18.0941 16.9152 16.4574 18.4615 13.9484 18.4615H6.19839C3.49194 18.4614 1.87937 16.8122 1.55483 15.0074C1.39629 14.1251 1.54848 13.1956 2.05678 12.4528C2.37813 11.9834 2.82617 11.6115 3.381 11.3795C3.19995 10.9814 3.10085 10.5788 3.08315 10.1793C3.05119 9.45403 3.28225 8.79874 3.64468 8.276C4.00414 7.75769 4.50344 7.35218 5.04409 7.11389C5.3009 7.00076 5.58161 6.9214 5.86928 6.89025C6.02828 5.53379 6.59612 4.70458 7.34194 4.22912C7.75369 3.96678 8.17291 3.84459 8.49428 3.77502C8.65264 3.74077 8.79952 3.71667 8.89858 3.69982C8.91833 3.69646 8.93563 3.69271 8.95034 3.69006C8.95164 3.68341 8.95481 3.67624 8.9562 3.66857C8.99878 3.42265 8.99819 3.02896 8.99819 2.28967C8.99819 2.05516 9.10833 1.83382 9.29507 1.69201ZM8.00014 12.5006C7.50014 12.5006 7.00014 12.9625 7.00014 13.5006C7.00036 14.5005 7.9535 15.5006 10.0001 15.5006C12.0467 15.5006 12.9999 14.5005 13.0001 13.5006C13.0001 12.9147 12.5001 12.5007 12.0001 12.5006H8.00014ZM8.25014 9.00061C7.55979 9.00061 7.00014 9.56025 7.00014 10.2506C7.00033 10.9408 7.5599 11.5006 8.25014 11.5006C8.94033 11.5005 9.49996 10.9408 9.50014 10.2506C9.50014 9.56029 8.94044 9.00068 8.25014 9.00061ZM11.7501 9.00061C11.0598 9.00061 10.5001 9.56025 10.5001 10.2506C10.5003 10.9408 11.0599 11.5006 11.7501 11.5006C12.4403 11.5005 13 10.9408 13.0001 10.2506C13.0001 9.56029 12.4404 9.00068 11.7501 9.00061Z" fill="#1D1C1D"/>
</svg>
