<svg width="20" height="20" viewBox="0 0 20 20" fill="none" xmlns="http://www.w3.org/2000/svg">
<path d="M1 8.50684C1 6.84638 2.34638 5.5 4.00684 5.5L5.5 5.5L5.5 4.04395C5.5 2.363 6.863 1 8.54394 1L15.9561 0.999999C17.637 1.00001 19 2.36301 19 4.04394L19 11.4561C19 13.137 17.637 14.5 15.9561 14.5L14.5 14.5L14.5 15.9561C14.5 17.637 13.137 19 11.4561 19L4.04395 19C2.363 19 1 17.637 1 15.9561L1 8.50684ZM7 6.81445C7.00751 6.8753 7.01269 6.93712 7.01269 7L7.01269 11.4766C7.01269 11.7422 7.07904 11.9926 7.19727 12.2109C7.46179 12.6817 7.96568 13 8.54395 13L15.9561 13C16.8085 13 17.5 12.3085 17.5 11.4561L17.5 4.04394C17.5 3.19144 16.8086 2.50001 15.9561 2.5L8.54394 2.5C7.69143 2.5 7 3.19143 7 4.04395L7 6.81445ZM9.38281 5.57422C9.3829 5.16015 9.71876 4.82434 10.1328 4.82422C10.5468 4.82441 10.8827 5.1602 10.8828 5.57422L10.8828 8.06055L14.3252 4.61816C14.618 4.3254 15.0928 4.32565 15.3857 4.61816C15.6786 4.91106 15.6786 5.38582 15.3857 5.67871L11.9746 9.08984L14.3984 9.08984C14.8124 9.09004 15.1484 9.42582 15.1484 9.83984C15.1483 10.2538 14.8124 10.5896 14.3984 10.5898L10.1328 10.5898C9.71878 10.5897 9.38294 10.2539 9.38281 9.83984L9.38281 5.57422ZM11.4561 17.5C12.3086 17.5 13 16.8086 13 15.9561L13 14.5205L12.1865 14.5205L9.20703 17.5L11.4561 17.5ZM7.79297 17.5L10.7725 14.5205L8.55664 14.5205C8.43839 14.5205 8.32178 14.5131 8.20703 14.5L5.20703 17.5L7.79297 17.5ZM2.51855 16.1885C2.61929 16.8548 3.14517 17.3807 3.81152 17.4814L7.12793 14.165C6.64528 13.908 6.24287 13.523 5.95898 13.0576C5.91923 12.9936 5.87974 12.9294 5.84473 12.8623L2.51855 16.1885ZM5.5166 11.7764C5.50559 11.6711 5.5 11.5642 5.5 11.4561L5.5 9.20703L2.5 12.207L2.5 14.793L5.5166 11.7764ZM5.5 7.79297L5.5 7L4.00684 7C3.17481 7 2.5 7.67481 2.5 8.50684L2.5 10.793L5.5 7.79297Z" fill="#1D1C1D"/>
</svg>
