<svg width="20" height="20" viewBox="0 0 20 20" fill="none" xmlns="http://www.w3.org/2000/svg">
<path d="M10.7432 1.5C11.7376 1.50009 12.6914 1.89545 13.3945 2.59863L16.4014 5.60547C17.1045 6.30865 17.4999 7.2624 17.5 8.25684V15.75C17.5 17.2688 16.2688 18.5 14.75 18.5H5.25C3.73122 18.5 2.5 17.2688 2.5 15.75V4.25C2.5 2.73122 3.73122 1.5 5.25 1.5H10.7432ZM5.25 3C4.55964 3 4 3.55964 4 4.25V15.75C4 16.4404 4.55964 17 5.25 17H14.75C15.4404 17 16 16.4404 16 15.75V8.25684C15.9999 7.66022 15.7627 7.08789 15.3408 6.66602L12.334 3.65918C11.9121 3.2373 11.3398 3.00009 10.7432 3H5.25ZM11.5 13.25C11.9142 13.25 12.25 13.5858 12.25 14C12.25 14.4142 11.9142 14.75 11.5 14.75H6.5C6.08579 14.75 5.75 14.4142 5.75 14C5.75 13.5858 6.08579 13.25 6.5 13.25H11.5ZM13.5 10.25C13.9142 10.25 14.25 10.5858 14.25 11C14.25 11.4142 13.9142 11.75 13.5 11.75H6.5C6.08579 11.75 5.75 11.4142 5.75 11C5.75 10.5858 6.08579 10.25 6.5 10.25H13.5ZM12.5 7.25C12.9142 7.25 13.25 7.58579 13.25 8C13.25 8.41421 12.9142 8.75 12.5 8.75H6.5C6.08579 8.75 5.75 8.41421 5.75 8C5.75 7.58579 6.08579 7.25 6.5 7.25H12.5Z" fill="#1D1C1D"/>
</svg>
