<svg width="20" height="20" viewBox="0 0 20 20" fill="none" xmlns="http://www.w3.org/2000/svg">
<path d="M10.7432 1.5C11.7376 1.50009 12.6914 1.89545 13.3945 2.59863L16.4014 5.60547C17.1045 6.30865 17.4999 7.2624 17.5 8.25684V15.75C17.5 17.2688 16.2688 18.5 14.75 18.5H5.25C3.73122 18.5 2.5 17.2688 2.5 15.75V4.25C2.5 2.73122 3.73122 1.5 5.25 1.5H10.7432ZM6.5 13.25C6.08579 13.25 5.75 13.5858 5.75 14C5.75 14.4142 6.08579 14.75 6.5 14.75H11.5C11.9142 14.75 12.25 14.4142 12.25 14C12.25 13.5858 11.9142 13.25 11.5 13.25H6.5ZM6.5 10.25C6.08579 10.25 5.75 10.5858 5.75 11C5.75 11.4142 6.08579 11.75 6.5 11.75H13.5C13.9142 11.75 14.25 11.4142 14.25 11C14.25 10.5858 13.9142 10.25 13.5 10.25H6.5ZM6.5 7.25C6.08579 7.25 5.75 7.58579 5.75 8C5.75 8.41421 6.08579 8.75 6.5 8.75H12.5C12.9142 8.75 13.25 8.41421 13.25 8C13.25 7.58579 12.9142 7.25 12.5 7.25H6.5Z" fill="#1D1C1D"/>
</svg>
