<svg width="20" height="20" viewBox="0 0 20 20" fill="none" xmlns="http://www.w3.org/2000/svg">
<path d="M13.7412 5.03516C13.9977 4.70996 14.4697 4.65469 14.7949 4.91113C16.5933 6.32907 17.75 8.52963 17.75 11C17.75 15.2802 14.2802 18.75 10 18.75C5.71979 18.75 2.25 15.2802 2.25 11C2.25 8.61667 3.32674 6.48395 5.01758 5.06348C5.33469 4.79715 5.80779 4.83826 6.07422 5.15527C6.34063 5.47239 6.29947 5.94546 5.98242 6.21191C4.61632 7.35958 3.75 9.07837 3.75 11C3.75 14.4518 6.54822 17.25 10 17.25C13.4518 17.25 16.25 14.4518 16.25 11C16.25 9.00844 15.3193 7.2346 13.8662 6.08887C13.541 5.83239 13.4848 5.36041 13.7412 5.03516ZM10 1.25C10.4142 1.25 10.75 1.58579 10.75 2V9C10.75 9.41421 10.4142 9.75 10 9.75C9.58579 9.75 9.25 9.41421 9.25 9V2C9.25 1.58579 9.58579 1.25 10 1.25Z" fill="#1D1C1D"/>
</svg>
