<svg width="20" height="20" viewBox="0 0 20 20" fill="none" xmlns="http://www.w3.org/2000/svg">
<path d="M6.25 5.5C6.66421 5.5 7 5.83579 7 6.25V13.75C7 14.1642 6.66421 14.5 6.25 14.5C5.83579 14.5 5.5 14.1642 5.5 13.75V6.25C5.5 5.83579 5.83579 5.5 6.25 5.5ZM13.7695 5.67383C13.9931 5.48753 14.3048 5.44785 14.5684 5.57129C14.8317 5.6948 15 5.95913 15 6.25V13.75C15 14.041 14.8319 14.3063 14.5684 14.4297C14.3048 14.5531 13.9931 14.5125 13.7695 14.3262L9.26953 10.5762C9.09866 10.4337 9 10.2225 9 10C9 9.7775 9.09865 9.56632 9.26953 9.42383L13.7695 5.67383Z" fill="#1D1C1D"/>
</svg>
