<svg width="20" height="20" viewBox="0 0 20 20" fill="none" xmlns="http://www.w3.org/2000/svg">
<path d="M15 5.5H17.25C18.2165 5.5 19 6.2835 19 7.25V13.75C19 14.7165 18.2165 15.5 17.25 15.5H15V18H5V15.5H2.75C1.7835 15.5 1 14.7165 1 13.75V7.25C1 6.2835 1.7835 5.5 2.75 5.5H5V2H15V5.5ZM6.5 16.5H13.5V12H6.5V16.5ZM2.75 7C2.61193 7 2.5 7.11193 2.5 7.25V13.75C2.5 13.8881 2.61193 14 2.75 14H5V10.5H15V14H17.25C17.3881 14 17.5 13.8881 17.5 13.75V7.25C17.5 7.11193 17.3881 7 17.25 7H2.75ZM6.5 5.5H13.5V3.5H6.5V5.5Z" fill="#1D1C1D"/>
</svg>
