<svg width="20" height="20" viewBox="0 0 20 20" fill="none" xmlns="http://www.w3.org/2000/svg">
<path d="M16.4696 2.47061C16.7625 2.17774 17.2372 2.17779 17.5301 2.47061C17.823 2.7635 17.823 3.23826 17.5301 3.53115L3.53014 17.5312C3.23724 17.8239 2.76243 17.824 2.4696 17.5312C2.17684 17.2383 2.1769 16.7635 2.4696 16.4706L16.4696 2.47061ZM18.1649 8.82217C18.6091 9.54484 18.6091 10.4569 18.1649 11.1796L14.9374 16.4296C14.528 17.0951 13.8017 17.5007 13.0204 17.5009H5.68151L16.7157 6.46572L18.1649 8.82217ZM13.0204 2.50088C13.3889 2.50095 13.7449 2.59154 14.0614 2.75674L1.50182 15.3163C1.49194 14.9841 1.55656 14.641 1.70983 14.3085L3.55065 10.3153C3.64243 10.1162 3.6424 9.8856 3.55065 9.68643L1.70983 5.69326C1.02263 4.20263 2.11145 2.50121 3.7528 2.50088H13.0204Z" fill="#1D1C1D"/>
</svg>
