<svg width="20" height="20" viewBox="0 0 20 20" fill="none" xmlns="http://www.w3.org/2000/svg">
<path d="M13.0209 2.5C13.8025 2.50002 14.5285 2.90549 14.9379 3.57129L18.1654 8.82129C18.6098 9.54406 18.6098 10.4559 18.1654 11.1787L14.9379 16.4287C14.5285 17.0945 13.8025 17.5 13.0209 17.5H3.7533C2.11162 17.5 1.02192 15.7984 1.70936 14.3076L3.55116 10.3145C3.64304 10.1152 3.64304 9.88482 3.55116 9.68555L1.70936 5.69238C1.02192 4.20156 2.11162 2.5 3.7533 2.5H13.0209ZM3.7533 4C3.20608 4 2.84252 4.56751 3.07166 5.06445L4.91346 9.05762C5.18913 9.65547 5.18913 10.3445 4.91346 10.9424L3.07166 14.9355C2.84252 15.4325 3.20608 16 3.7533 16H13.0209C13.2814 16 13.5231 15.8645 13.6596 15.6426L16.8881 10.3926C17.0359 10.1518 17.0359 9.84816 16.8881 9.60742L13.6596 4.35742C13.5231 4.13547 13.2814 4.00002 13.0209 4H3.7533Z" fill="#1D1C1D"/>
</svg>
