<svg width="20" height="20" viewBox="0 0 20 20" fill="none" xmlns="http://www.w3.org/2000/svg">
<path d="M16.469 2.46857C16.7619 2.17593 17.2367 2.17576 17.5296 2.46857C17.8223 2.76138 17.8222 3.23622 17.5296 3.52911L3.52955 17.5291C3.23668 17.822 2.76191 17.8219 2.46901 17.5291C2.17611 17.2362 2.17611 16.7615 2.46901 16.4686L16.469 2.46857ZM18.1653 8.82013C18.6096 9.54286 18.6096 10.4548 18.1653 11.1776L14.9378 16.4276C14.5283 17.0933 13.8023 17.4988 13.0208 17.4988H5.63209L7.13209 15.9988H13.0208C13.2813 15.9988 13.523 15.8633 13.6594 15.6414L16.888 10.3914C17.0357 10.1507 17.0358 9.84696 16.888 9.60626L15.6067 7.52325L16.6975 6.43243L18.1653 8.82013ZM13.0208 2.49884C13.3762 2.49884 13.7197 2.58402 14.0276 2.7381L12.7678 3.99884H3.75319C3.20628 3.99908 2.84277 4.56654 3.07155 5.06329L4.91334 9.05646C5.189 9.65426 5.18895 10.3434 4.91334 10.9412L4.13112 12.6356L1.50026 15.2664C1.4977 14.9492 1.56332 14.623 1.70924 14.3065L3.55104 10.3133C3.64286 10.114 3.64291 9.88362 3.55104 9.68439L1.70924 5.69122C1.02217 4.20058 2.11182 2.49908 3.75319 2.49884H13.0208Z" fill="#1D1C1D"/>
</svg>
