<svg width="20" height="20" viewBox="0 0 20 20" fill="none" xmlns="http://www.w3.org/2000/svg">
<path d="M13.5 7.75C15.8472 7.75 17.75 9.65279 17.75 12C17.75 12.8871 17.4775 13.7102 17.0127 14.3916L18.7119 16.0908C19.0048 16.3837 19.0048 16.8585 18.7119 17.1514C18.419 17.4442 17.9442 17.4442 17.6514 17.1514L15.9619 15.4619C15.267 15.957 14.4182 16.25 13.5 16.25C11.1528 16.25 9.25 14.3472 9.25 12C9.25 9.65279 11.1528 7.75 13.5 7.75ZM7.75 14.75C8.16421 14.75 8.5 15.0858 8.5 15.5C8.5 15.9142 8.16421 16.25 7.75 16.25H2.25C1.83579 16.25 1.5 15.9142 1.5 15.5C1.5 15.0858 1.83579 14.75 2.25 14.75H7.75ZM13.5 9.25C11.9812 9.25 10.75 10.4812 10.75 12C10.75 13.5188 11.9812 14.75 13.5 14.75C15.0188 14.75 16.25 13.5188 16.25 12C16.25 10.4812 15.0188 9.25 13.5 9.25ZM6.25 11C6.66421 11 7 11.3358 7 11.75C7 12.1642 6.66421 12.5 6.25 12.5H2.25C1.83579 12.5 1.5 12.1642 1.5 11.75C1.5 11.3358 1.83579 11 2.25 11H6.25ZM7.75 7.25C8.16421 7.25 8.5 7.58579 8.5 8C8.5 8.41421 8.16421 8.75 7.75 8.75H2.25C1.83579 8.75 1.5 8.41421 1.5 8C1.5 7.58579 1.83579 7.25 2.25 7.25H7.75ZM14.75 3.5C15.1642 3.5 15.5 3.83579 15.5 4.25C15.5 4.66421 15.1642 5 14.75 5H2.25C1.83579 5 1.5 4.66421 1.5 4.25C1.5 3.83579 1.83579 3.5 2.25 3.5H14.75Z" fill="#1D1C1D"/>
</svg>
