<svg width="20" height="20" viewBox="0 0 20 20" fill="none" xmlns="http://www.w3.org/2000/svg">
<path d="M10.2546 1.00322C15.232 1.13506 19.1606 5.27679 19.029 10.2542L19.0114 10.2532V18.0101C19.0114 18.5621 18.5634 19.0097 18.0114 19.0101H9.77803V19.0276C4.80047 18.8959 0.871877 14.7542 1.00362 9.77666C1.13552 4.79925 5.27714 0.871485 10.2546 1.00322ZM10.2146 2.50224C6.06536 2.39263 2.61256 5.66749 2.50264 9.8167C2.39592 13.8539 5.49362 17.2294 9.48311 17.5101H17.5114V9.64091C17.5114 9.61288 17.5123 9.58514 17.5153 9.55791C17.2848 5.70688 14.1429 2.60631 10.2146 2.50224ZM13.403 12.6526C13.8172 12.6526 14.153 12.9884 14.153 13.4026C14.153 13.8168 13.8172 14.1526 13.403 14.1526H6.6208C6.20664 14.1526 5.8708 13.8168 5.8708 13.4026C5.87083 12.9885 6.20665 12.6527 6.6208 12.6526H13.403ZM15.0983 9.26201C15.5125 9.26209 15.8483 9.59784 15.8483 10.012C15.8482 10.426 15.5124 10.7619 15.0983 10.762H4.92549C4.51138 10.762 4.17566 10.4261 4.17549 10.012C4.17549 9.59779 4.51128 9.26201 4.92549 9.26201H15.0983ZM13.403 5.87041C13.8172 5.87041 14.1529 6.20627 14.153 6.62041C14.153 7.03462 13.8172 7.3704 13.403 7.37041H6.6208C6.20664 7.37035 5.8708 7.03459 5.8708 6.62041C5.87089 6.2063 6.20669 5.87046 6.6208 5.87041H13.403Z" fill="#1D1C1D"/>
</svg>
