<svg width="20" height="20" viewBox="0 0 20 20" fill="none" xmlns="http://www.w3.org/2000/svg">
<path d="M15.2627 3.0396C15.6168 2.92157 16.004 3.08174 16.1709 3.41557L17.4209 5.91557C17.5144 6.10299 17.5256 6.32134 17.4512 6.51713L17.4199 6.58842C17.338 6.7507 17.1987 6.87865 17.0283 6.94682C16.4577 7.17511 15.9587 7.46551 15.6016 7.88335C15.354 8.17313 15.1496 8.55302 15.0557 9.07866C17.4507 9.75039 18.5 11.0008 18.5 13.0005C18.4997 15.0003 16.7612 17.0005 14 17.0005C12.1122 17.0005 10.8791 16.1272 10.1436 15.0093C9.41016 16.1523 8.0472 17.0005 6.25 17.0005C2.75026 17.0005 1.50018 14.0005 1.5 12.0005C1.5 9.49421 2.03135 7.80777 3.11914 6.28276L3.34375 5.98002C4.57775 4.38043 6.15229 3.49313 7.5127 3.0396C7.86678 2.92157 8.25398 3.08174 8.4209 3.41557L9.6709 5.91557C9.76438 6.10299 9.77559 6.32134 9.70117 6.51713L9.66992 6.58842C9.588 6.7507 9.44875 6.87865 9.27832 6.94682C8.70768 7.17511 8.2087 7.46551 7.85156 7.88335C7.60398 8.17313 7.3996 8.55302 7.30566 9.07866C8.168 9.32051 8.8546 9.63877 9.38184 10.0386C9.60003 8.54419 10.0919 7.37232 10.8691 6.28276L11.0938 5.98002C12.3277 4.38043 13.9023 3.49313 15.2627 3.0396ZM7.38184 4.69292C6.40492 5.11494 5.3708 5.80777 4.53125 6.89604C3.52303 8.20309 3 9.60863 3 12.0005C3.0001 12.731 3.23831 13.6508 3.7627 14.3501C4.24326 14.9908 4.99493 15.5005 6.25 15.5005C8.23837 15.5005 9.24973 14.1173 9.25 13.0005C9.24998 12.2793 9.06903 11.8417 8.79395 11.5249C8.49326 11.1789 7.93699 10.8137 6.90039 10.523C6.15709 10.3143 5.69355 9.57502 5.8291 8.81499C5.97071 8.02241 6.2929 7.39798 6.71094 6.90874C7.08606 6.4698 7.53317 6.14655 7.98535 5.89897L7.38184 4.69292ZM15.1318 4.69292C14.1549 5.11494 13.1208 5.80777 12.2812 6.89604C11.273 8.20309 10.75 9.60863 10.75 12.0005C10.7501 12.731 10.9883 13.6508 11.5127 14.3501C11.9933 14.9908 12.7449 15.5005 14 15.5005C15.9884 15.5005 16.9997 14.1173 17 13.0005C17 12.2793 16.819 11.8417 16.5439 11.5249C16.2433 11.1789 15.687 10.8137 14.6504 10.523C13.9071 10.3143 13.4436 9.57502 13.5791 8.81499C13.7207 8.02241 14.0429 7.39798 14.4609 6.90874C14.8361 6.4698 15.2832 6.14655 15.7354 5.89897L15.1318 4.69292Z" fill="#1D1C1D"/>
</svg>
