<svg width="20" height="20" viewBox="0 0 20 20" fill="none" xmlns="http://www.w3.org/2000/svg">
<path d="M2.75 2C3.16421 2 3.5 2.33579 3.5 2.75V17.25C3.5 17.6642 3.16421 18 2.75 18C2.33579 18 2 17.6642 2 17.25V2.75C2 2.33579 2.33579 2 2.75 2ZM14.25 15.5C14.6642 15.5 15 15.8358 15 16.25C15 16.6642 14.6642 17 14.25 17H6.75C6.33579 17 6 16.6642 6 16.25C6 15.8358 6.33579 15.5 6.75 15.5H14.25ZM17.25 9.5C17.6642 9.5 18 9.83579 18 10.25C18 10.6642 17.6642 11 17.25 11H6.75C6.33579 11 6 10.6642 6 10.25C6 9.83579 6.33579 9.5 6.75 9.5H17.25ZM15.25 3C15.6642 3 16 3.33579 16 3.75C16 4.16421 15.6642 4.5 15.25 4.5H6.75C6.33579 4.5 6 4.16421 6 3.75C6 3.33579 6.33579 3 6.75 3H15.25Z" fill="#1D1C1D"/>
</svg>
