<svg width="20" height="20" viewBox="0 0 20 20" fill="none" xmlns="http://www.w3.org/2000/svg">
<path d="M10.0042 1C14.9747 1 19.0042 5.02944 19.0042 10C19.0042 14.9706 14.9747 19 10.0042 19C5.03359 19 1.00415 14.9706 1.00415 10C1.00415 5.02944 5.03359 1 10.0042 1ZM7.43286 11.5342C6.83143 11.5342 6.35462 12.0707 6.57349 12.6309C7.18966 14.2072 8.61961 14.9961 10.05 14.9961C11.4805 14.9961 12.9114 14.2072 13.5276 12.6309C13.7462 12.0708 13.2686 11.5342 12.6672 11.5342H7.43286ZM7.55005 6.53418C6.72167 6.53423 6.05005 7.20579 6.05005 8.03418C6.05005 8.86257 6.72167 9.53413 7.55005 9.53418C8.37847 9.53418 9.05004 8.8626 9.05005 8.03418C9.05005 7.20575 8.37848 6.53418 7.55005 6.53418ZM12.55 6.53418C11.7217 6.53423 11.05 7.20578 11.05 8.03418C11.0501 8.86257 11.7217 9.53413 12.55 9.53418C13.3785 9.53418 14.05 8.8626 14.05 8.03418C14.05 7.20575 13.3785 6.53418 12.55 6.53418Z" fill="#1D1C1D"/>
</svg>
