<svg width="20" height="20" viewBox="0 0 20 20" fill="none" xmlns="http://www.w3.org/2000/svg">
<path d="M10 1C14.9706 1 19 5.02944 19 10C19 14.9706 14.9706 19 10 19C5.02944 19 1 14.9706 1 10C1 5.02944 5.02944 1 10 1ZM10 2.5C5.85786 2.5 2.5 5.85786 2.5 10C2.5 14.1421 5.85786 17.5 10 17.5C14.1421 17.5 17.5 14.1421 17.5 10C17.5 5.85786 14.1421 2.5 10 2.5ZM12.6172 11.5C13.2185 11.5 13.6961 12.0366 13.4775 12.5967C12.8614 14.173 11.4305 14.9619 10 14.9619C8.56953 14.9619 7.13865 14.173 6.52246 12.5967C6.30388 12.0366 6.78146 11.5 7.38281 11.5H12.6172ZM7.5 6.5C8.32843 6.5 9 7.17157 9 8C9 8.82843 8.32843 9.5 7.5 9.5C6.67157 9.5 6 8.82843 6 8C6 7.17157 6.67157 6.5 7.5 6.5ZM12.5 6.5C13.3284 6.5 14 7.17157 14 8C14 8.82843 13.3284 9.5 12.5 9.5C11.6716 9.5 11 8.82843 11 8C11 7.17157 11.6716 6.5 12.5 6.5Z" fill="#1D1C1D"/>
</svg>
