<svg width="20" height="20" viewBox="0 0 20 20" fill="none" xmlns="http://www.w3.org/2000/svg">
<path d="M7.89746 11.5379C7.90191 11.5387 7.9067 11.539 7.91113 11.5399C7.93079 11.5438 7.94968 11.551 7.96875 11.5565C7.99615 11.5642 8.02424 11.5709 8.05078 11.5818C8.10097 11.6026 8.14838 11.6293 8.19238 11.66C8.22812 11.6849 8.26303 11.713 8.29492 11.7449C8.40718 11.8574 8.4759 11.997 8.50195 12.1424C8.50963 12.1854 8.51465 12.23 8.51465 12.2752V17.2869C8.51443 17.7008 8.17854 18.0367 7.76465 18.0369C7.35057 18.0369 7.01486 17.701 7.01465 17.2869V14.0858L2.80176 18.2986C2.50897 18.591 2.03402 18.591 1.74121 18.2986C1.44844 18.0059 1.44868 17.531 1.74121 17.2381L5.9541 13.0252H2.75293C2.33885 13.0252 2.00315 12.6892 2.00293 12.2752C2.00293 11.861 2.33872 11.5252 2.75293 11.5252H7.76465C7.80996 11.5252 7.85436 11.5302 7.89746 11.5379ZM17.2871 11.5252C17.7011 11.5254 18.0371 11.8611 18.0371 12.2752C18.0369 12.6891 17.701 13.025 17.2871 13.0252H14.0859L18.2988 17.2381C18.5911 17.531 18.5915 18.006 18.2988 18.2986C18.0062 18.5913 17.5312 18.5909 17.2383 18.2986L13.0254 14.0858V17.2869C13.0252 17.7008 12.6893 18.0367 12.2754 18.0369C11.8613 18.0369 11.5256 17.701 11.5254 17.2869V12.2752C11.5254 12.23 11.5294 12.1854 11.5371 12.1424C11.5462 12.0916 11.5605 12.0414 11.5801 11.993L11.584 11.9832C11.5955 11.9559 11.6114 11.9307 11.626 11.9051C11.6584 11.8482 11.6966 11.7934 11.7451 11.7449C11.7936 11.6964 11.8484 11.6582 11.9053 11.6258C11.9308 11.6112 11.9561 11.5954 11.9834 11.5838L11.9932 11.5799C12.0236 11.5676 12.0555 11.5597 12.0869 11.5516C12.0999 11.5482 12.1127 11.5425 12.126 11.5399C12.1314 11.5388 12.1372 11.5379 12.1426 11.5369C12.1856 11.5293 12.2302 11.5252 12.2754 11.5252H17.2871ZM1.74121 1.74103C2.03402 1.44822 2.50884 1.44839 2.80176 1.74103L7.01465 5.95392V2.75275C7.01465 2.33853 7.35043 2.00275 7.76465 2.00275C8.17868 2.00296 8.51465 2.33867 8.51465 2.75275V7.76446C8.51462 7.80983 8.50872 7.85414 8.50098 7.89728C8.50018 7.90176 8.49991 7.90648 8.49902 7.91095C8.49643 7.9239 8.49152 7.93633 8.48828 7.94904C8.47922 7.98467 8.46946 8.02025 8.45508 8.0545C8.43453 8.10332 8.40885 8.14929 8.37891 8.1922C8.35397 8.2279 8.32679 8.26287 8.29492 8.29474C8.26306 8.3266 8.22809 8.35379 8.19238 8.37872C8.14947 8.40866 8.10351 8.43434 8.05469 8.45489C8.02044 8.46927 7.98486 8.47903 7.94922 8.4881C7.93651 8.49133 7.92409 8.49625 7.91113 8.49884C7.90666 8.49973 7.90195 8.5 7.89746 8.50079C7.87876 8.50415 7.85997 8.50861 7.84082 8.51056L7.76465 8.51446H2.75293C2.33885 8.51446 2.00315 8.17849 2.00293 7.76446C2.00293 7.35025 2.33872 7.01446 2.75293 7.01446H5.9541L1.74121 2.80157C1.44857 2.50866 1.4484 2.03384 1.74121 1.74103ZM17.2383 1.74103C17.5312 1.4485 18.0061 1.44826 18.2988 1.74103C18.5912 2.03383 18.5912 2.50879 18.2988 2.80157L14.0859 7.01446H17.2871C17.7011 7.01468 18.0371 7.35039 18.0371 7.76446C18.0369 8.17836 17.701 8.51425 17.2871 8.51446H12.2754L12.1982 8.51056C12.1796 8.50865 12.1608 8.50504 12.1426 8.50177C12.1372 8.5008 12.1314 8.49991 12.126 8.49884C12.1181 8.49725 12.1103 8.49389 12.1025 8.492C12.0626 8.48255 12.0226 8.47097 11.9844 8.45489C11.9723 8.44979 11.961 8.4421 11.9492 8.43634C11.8761 8.40086 11.8059 8.35537 11.7451 8.29474C11.7132 8.26285 11.6851 8.22794 11.6602 8.1922C11.6295 8.14819 11.6028 8.10079 11.582 8.0506C11.5711 8.02406 11.5644 7.99597 11.5566 7.96857C11.5512 7.94949 11.544 7.9306 11.54 7.91095C11.5392 7.90652 11.5389 7.90173 11.5381 7.89728C11.5304 7.85418 11.5254 7.80978 11.5254 7.76446V2.75275C11.5254 2.33853 11.8612 2.00275 12.2754 2.00275C12.6894 2.00296 13.0254 2.33867 13.0254 2.75275V5.95392L17.2383 1.74103Z" fill="#1D1C1D"/>
</svg>
