<svg width="20" height="20" viewBox="0 0 20 20" fill="none" xmlns="http://www.w3.org/2000/svg">
<path d="M8.24994 10.9999C8.29493 10.9999 8.33897 11.0041 8.38178 11.0117C8.38731 11.0126 8.39287 11.0135 8.39838 11.0146C8.41176 11.0173 8.42433 11.0229 8.43744 11.0263C8.47067 11.0349 8.50405 11.0434 8.53608 11.0566C8.56522 11.0686 8.59193 11.0851 8.61908 11.1005C8.6762 11.133 8.73149 11.1709 8.78022 11.2197C8.82861 11.2681 8.86598 11.3231 8.89838 11.3798C8.91391 11.407 8.93023 11.4337 8.94233 11.4628C8.96304 11.5128 8.97782 11.5645 8.98725 11.6171C8.99497 11.6603 8.99994 11.7046 8.99994 11.7499V16.2499C8.99994 16.6642 8.66416 16.9999 8.24994 16.9999C7.83573 16.9999 7.49994 16.6642 7.49994 16.2499V13.5605L2.78022 18.2802C2.48732 18.5731 2.01256 18.5731 1.71967 18.2802C1.42678 17.9873 1.42678 17.5126 1.71967 17.2197L6.4394 12.4999H3.74994C3.33573 12.4999 2.99994 12.1642 2.99994 11.7499C2.99994 11.3357 3.33573 10.9999 3.74994 10.9999H8.24994ZM17.2197 1.71967C17.5126 1.42678 17.9873 1.42678 18.2802 1.71967C18.5731 2.01256 18.5731 2.48732 18.2802 2.78022L13.5605 7.49994H16.2499C16.6642 7.49994 16.9999 7.83573 16.9999 8.24994C16.9999 8.66416 16.6642 8.99994 16.2499 8.99994H11.7499C11.7046 8.99994 11.6603 8.99497 11.6171 8.98725C11.6116 8.98626 11.606 8.98544 11.6005 8.98432C11.5871 8.98161 11.5746 8.97601 11.5615 8.9726C11.5282 8.96396 11.4949 8.9556 11.4628 8.94233C11.4337 8.93023 11.407 8.91391 11.3798 8.89838C11.3231 8.86598 11.2681 8.82861 11.2197 8.78022C11.1709 8.73149 11.133 8.6762 11.1005 8.61908C11.0851 8.59193 11.0686 8.56522 11.0566 8.53608C11.036 8.48609 11.021 8.43434 11.0117 8.38178C11.0041 8.33897 10.9999 8.29493 10.9999 8.24994V3.74994C10.9999 3.33573 11.3357 2.99994 11.7499 2.99994C12.1642 2.99994 12.4999 3.33573 12.4999 3.74994V6.4394L17.2197 1.71967Z" fill="#1D1C1D"/>
</svg>
