<svg width="20" height="20" viewBox="0 0 20 20" fill="none" xmlns="http://www.w3.org/2000/svg">
<path d="M14.2574 1.99902C16.3285 1.99902 18.0074 3.67796 18.0074 5.74902V14.249C18.0074 16.3201 16.3285 17.999 14.2574 17.999H7.75744C7.34323 17.999 7.00744 17.6632 7.00744 17.249C7.00744 16.8348 7.34323 16.499 7.75744 16.499H14.2574C15.5001 16.499 16.5074 15.4917 16.5074 14.249V5.74902C16.5074 4.50638 15.5001 3.49902 14.2574 3.49902H6.75744C5.5148 3.49902 4.50744 4.50638 4.50744 5.74902V6.24902C4.50744 6.66324 4.17165 6.99902 3.75744 6.99902C3.34323 6.99902 3.00744 6.66324 3.00744 6.24902V5.74902C3.00744 3.67796 4.68637 1.99902 6.75744 1.99902H14.2574ZM6.26135 8.99902C6.67556 8.99902 7.01135 9.33481 7.01135 9.74902V13.249C7.01135 13.6632 6.67556 13.999 6.26135 13.999C5.84713 13.999 5.51135 13.6632 5.51135 13.249V11.5811C4.91977 12.2135 4.40731 12.8373 4.0426 13.5117C3.50436 14.5071 3.28866 15.6127 3.72424 17.0283C3.84606 17.4242 3.62403 17.844 3.22814 17.9658C2.83233 18.0875 2.41248 17.8655 2.29064 17.4697C1.72627 15.6357 2.01122 14.1158 2.72326 12.7988C3.17856 11.9568 3.81009 11.2001 4.46935 10.499H2.76135C2.34713 10.499 2.01135 10.1632 2.01135 9.74902C2.01135 9.33481 2.34713 8.99902 2.76135 8.99902H6.26135ZM14.2574 12.499C14.6717 12.499 15.0074 12.8348 15.0074 13.249C15.0074 13.6632 14.6717 13.999 14.2574 13.999H9.75744C9.34323 13.999 9.00744 13.6632 9.00744 13.249C9.00744 12.8348 9.34323 12.499 9.75744 12.499H14.2574ZM14.2574 8.99902C14.6717 8.99902 15.0074 9.33481 15.0074 9.74902C15.0074 10.1632 14.6717 10.499 14.2574 10.499H9.75744C9.34323 10.499 9.00744 10.1632 9.00744 9.74902C9.00744 9.33481 9.34323 8.99902 9.75744 8.99902H14.2574ZM14.2574 5.49902C14.6717 5.49902 15.0074 5.83481 15.0074 6.24902C15.0074 6.66324 14.6717 6.99902 14.2574 6.99902H7.75744C7.34323 6.99902 7.00744 6.66324 7.00744 6.24902C7.00744 5.83481 7.34323 5.49902 7.75744 5.49902H14.2574Z" fill="#1D1C1D"/>
</svg>
