<svg width="20" height="20" viewBox="0 0 20 20" fill="none" xmlns="http://www.w3.org/2000/svg">
<path d="M12.25 13.5C12.6642 13.5 13 13.8358 13 14.25C13 14.6642 12.6642 15 12.25 15H7.75C7.33579 15 7 14.6642 7 14.25C7 13.8358 7.33579 13.5 7.75 13.5H12.25ZM14.25 9.5C14.6642 9.5 15 9.83579 15 10.25C15 10.6642 14.6642 11 14.25 11H5.75C5.33579 11 5 10.6642 5 10.25C5 9.83579 5.33579 9.5 5.75 9.5H14.25ZM16.25 5.5C16.6642 5.5 17 5.83579 17 6.25C17 6.66421 16.6642 7 16.25 7H3.75C3.33579 7 3 6.66421 3 6.25C3 5.83579 3.33579 5.5 3.75 5.5H16.25Z" fill="#1D1C1D"/>
</svg>
