<svg width="20" height="20" viewBox="0 0 20 20" fill="none" xmlns="http://www.w3.org/2000/svg">
<path d="M16.454 12.71C16.6143 12.3282 17.0537 12.1486 17.4355 12.3086C17.8174 12.4689 17.9971 12.9082 17.8369 13.29C17.5802 13.9013 17.2515 14.4849 16.8544 15.0264C15.7255 16.5658 14.111 17.6802 12.2714 18.1904C10.4318 18.7005 8.47339 18.5771 6.71283 17.8389C5.20616 17.207 3.91995 16.1556 2.99994 14.8193V17.75C2.99994 18.1641 2.66401 18.4998 2.24994 18.5C1.83587 18.4998 1.49994 18.1641 1.49994 17.75V13.25C1.49994 12.8359 1.83587 12.5002 2.24994 12.5H6.74994C7.16401 12.5002 7.49994 12.8359 7.49994 13.25C7.49994 13.6641 7.16401 13.9998 6.74994 14H4.25677C5.01291 15.0856 6.06388 15.9396 7.29291 16.4551C8.74275 17.063 10.3551 17.1652 11.8701 16.7451C13.385 16.325 14.7148 15.4073 15.6445 14.1396C15.9714 13.6938 16.2427 13.2133 16.454 12.71ZM17.7499 1.5C18.164 1.50023 18.4999 1.83593 18.4999 2.25V6.75C18.4999 7.16407 18.164 7.49977 17.7499 7.5H13.2499C12.8359 7.49974 12.4999 7.16405 12.4999 6.75C12.4999 6.33595 12.8359 6.00026 13.2499 6H15.7431C14.987 4.91445 13.9359 4.06035 12.707 3.54492C11.2572 2.93703 9.64477 2.83485 8.12982 3.25488C6.6149 3.67501 5.28512 4.59265 4.35541 5.86035C4.07769 6.23912 3.8401 6.64308 3.64545 7.06445C3.47179 7.44035 3.02628 7.60409 2.65033 7.43066C2.27432 7.25695 2.11043 6.81157 2.28412 6.43555C2.5205 5.92385 2.80824 5.43353 3.14545 4.97363C4.2743 3.4342 5.88895 2.31983 7.72845 1.80957C9.56802 1.29951 11.5266 1.42301 13.287 2.16113C14.7934 2.79288 16.08 3.8438 16.9999 5.17969V2.25C16.9999 1.83595 17.3359 1.50026 17.7499 1.5Z" fill="#1D1C1D"/>
</svg>
