<svg width="20" height="20" viewBox="0 0 20 20" fill="none" xmlns="http://www.w3.org/2000/svg">
<path d="M10 1C14.9706 1 19 5.02944 19 10C19 10.5579 18.9491 11.1048 18.8516 11.6357C18.7766 12.043 18.3858 12.3121 17.9785 12.2373C17.5711 12.1625 17.3011 11.7716 17.376 11.3643C17.4571 10.9224 17.5 10.4665 17.5 10C17.5 5.85786 14.1421 2.5 10 2.5C5.85786 2.5 2.5 5.85786 2.5 10C2.5 14.1421 5.85786 17.5 10 17.5C10.1529 17.5 10.3046 17.4953 10.4551 17.4863C10.8686 17.4616 11.2243 17.777 11.249 18.1904C11.2737 18.6038 10.9583 18.9586 10.5449 18.9834C10.3646 18.9942 10.1828 19 10 19C5.02944 19 1 14.9706 1 10C1 5.02944 5.02944 1 10 1ZM15.9756 13C16.2165 13.0001 16.4341 13.0862 16.5938 13.2666C16.7096 13.3976 16.7822 13.5643 16.8213 13.751C17.2443 13.88 17.5579 14.1483 17.7617 14.5752C17.9733 15.0184 18.0621 15.6221 18.0742 16.3906L18.7314 17.0508L18.7354 17.0547C18.9579 17.2995 19.0178 17.612 18.8662 17.875C18.7241 18.1215 18.4379 18.2499 18.1299 18.25H16.9453C16.9006 18.3864 16.8274 18.5214 16.7217 18.6367C16.5493 18.8246 16.2992 18.9501 15.9805 18.9502C15.6593 18.9502 15.4067 18.8256 15.2324 18.6377C15.1253 18.5222 15.0512 18.3869 15.0059 18.25H13.8203C13.5122 18.25 13.2262 18.1215 13.084 17.875C12.9323 17.6119 12.9923 17.2995 13.2148 17.0547L13.2188 17.0508L13.877 16.3906C13.8894 15.6222 13.978 15.0184 14.1895 14.5752C14.3931 14.1484 14.706 13.8801 15.1289 13.751C15.168 13.5643 15.2407 13.3975 15.3564 13.2666C15.5162 13.086 15.7346 13 15.9756 13ZM10 5C10.4142 5 10.75 5.33579 10.75 5.75V9.75H13.75C14.1642 9.75 14.5 10.0858 14.5 10.5C14.5 10.9142 14.1642 11.25 13.75 11.25H9.25V5.75C9.25 5.33579 9.58579 5 10 5Z" fill="#1D1C1D"/>
</svg>
