<svg width="20" height="20" viewBox="0 0 20 20" fill="none" xmlns="http://www.w3.org/2000/svg">
<path d="M9.07998 1C10.2005 1 11.1269 1.81953 11.2987 2.8916C11.5423 2.8013 11.805 2.75001 12.08 2.75C13.3226 2.75 14.33 3.75736 14.33 5C14.3299 6.24262 13.3226 7.25 12.08 7.25H11.33V8.34961L14.3935 8.78711C16.5946 9.10175 18.0402 11.252 17.5009 13.4092L16.6864 16.667C16.3804 17.8912 15.2803 18.75 14.0185 18.75H9.19619C8.23768 18.75 7.36593 18.2495 6.85537 17.4648C5.8528 15.924 4.83633 14.6358 2.96084 12.8516C2.05341 11.9882 1.99414 10.5258 2.90224 9.61719C3.49095 9.02847 4.39454 8.78651 5.21865 9.11621C5.82812 9.36018 6.33119 9.62233 6.82998 9.95703V7.25H6.07998C4.8374 7.24994 3.83001 6.24258 3.82998 5C3.82998 3.7574 4.83739 2.75006 6.07998 2.75C6.35459 2.75 6.61695 2.80154 6.86025 2.8916C7.032 1.81947 7.95946 1.00005 9.07998 1ZM8.32998 11.5C8.32998 11.7953 8.1569 12.0635 7.88759 12.1846C7.61832 12.3055 7.30269 12.2565 7.08193 12.0605C6.18345 11.2629 5.57124 10.8731 4.66103 10.5088C4.44436 10.4223 4.16667 10.4739 3.96279 10.6777C3.67351 10.9675 3.67415 11.4601 3.99404 11.7646C5.95392 13.6291 7.04544 15.0079 8.1122 16.6475C8.35831 17.0256 8.76735 17.25 9.19619 17.25H14.0185C14.592 17.25 15.0922 16.8592 15.2313 16.3027L16.0458 13.0449C16.3692 11.7506 15.5013 10.4611 14.1806 10.2725L10.4735 9.74219C10.1043 9.68918 9.82998 9.37306 9.82998 9V7.25H8.32998V11.5ZM12.08 4.25C11.6918 4.25006 11.3725 4.54489 11.3339 4.92285L11.33 5V5.75H12.08C12.4942 5.75 12.8299 5.41419 12.83 5C12.83 4.58579 12.4942 4.25 12.08 4.25ZM9.07998 2.5C8.66581 2.50006 8.32998 2.83582 8.32998 3.25V5.75H9.82998V3.25C9.82998 2.83579 9.49419 2.5 9.07998 2.5ZM6.07998 4.25C5.66581 4.25006 5.32998 4.58582 5.32998 5C5.33001 5.41415 5.66583 5.74994 6.07998 5.75H6.82998V5L6.82607 4.92285C6.78747 4.54486 6.46816 4.25 6.07998 4.25Z" fill="#1D1C1D"/>
</svg>
