<svg width="20" height="20" viewBox="0 0 20 20" fill="none" xmlns="http://www.w3.org/2000/svg">
<path d="M7.76953 5.67417C7.99309 5.48787 8.30482 5.44722 8.56836 5.57066C8.83183 5.69412 9 5.95938 9 6.25034V13.7503C8.99988 14.0411 8.83165 14.3056 8.56836 14.4291C8.30482 14.5525 7.99309 14.5128 7.76953 14.3265L3.26953 10.5765C3.09864 10.4341 3.00009 10.2228 3 10.0003C3 9.77791 3.09875 9.56666 3.26953 9.42417L7.76953 5.67417ZM15.7695 5.67417C15.9931 5.48787 16.3048 5.44722 16.5684 5.57066C16.8318 5.69412 17 5.95938 17 6.25034V13.7503C16.9999 14.0411 16.8317 14.3056 16.5684 14.4291C16.3048 14.5525 15.9931 14.5128 15.7695 14.3265L11.2695 10.5765C11.0986 10.4341 11.0001 10.2228 11 10.0003C11 9.77791 11.0987 9.56666 11.2695 9.42417L15.7695 5.67417Z" fill="#1D1C1D"/>
</svg>
