<svg width="20" height="20" viewBox="0 0 20 20" fill="none" xmlns="http://www.w3.org/2000/svg">
<path d="M7.76953 5.67449C7.99309 5.48819 8.30482 5.44852 8.56836 5.57196C8.83161 5.69549 9 5.95984 9 6.25067V13.7507C8.99988 14.0414 8.83159 14.3059 8.56836 14.4294C8.3049 14.5527 7.99305 14.513 7.76953 14.3268L3.26953 10.5768C3.09873 10.4344 3.00009 10.2231 3 10.0007C3 9.77823 3.09875 9.56699 3.26953 9.42449L7.76953 5.67449ZM15.7695 5.67449C15.9931 5.48819 16.3048 5.44852 16.5684 5.57196C16.8316 5.69549 17 5.95984 17 6.25067V13.7507C16.9999 14.0414 16.8316 14.3059 16.5684 14.4294C16.3049 14.5527 15.9931 14.513 15.7695 14.3268L11.2695 10.5768C11.0987 10.4344 11.0001 10.2231 11 10.0007C11 9.77823 11.0987 9.56699 11.2695 9.42449L15.7695 5.67449ZM4.92188 10.0007L7.5 12.1491V7.85223L4.92188 10.0007ZM12.9219 10.0007L15.5 12.1491V7.85223L12.9219 10.0007Z" fill="#1D1C1D"/>
</svg>
