<svg width="20" height="20" viewBox="0 0 20 20" fill="none" xmlns="http://www.w3.org/2000/svg">
<path d="M12.7773 11.085C12.7773 11.2779 12.716 11.4345 12.5938 11.5547C12.4715 11.6747 12.2642 11.7353 11.9717 11.7354H9.76367L9.48047 13.3799C9.65831 13.3435 9.82916 13.3183 9.99219 13.3037C10.1552 13.2855 10.313 13.2764 10.4648 13.2764C10.8872 13.2764 11.2596 13.3381 11.582 13.4619C11.9045 13.5858 12.1749 13.7571 12.3936 13.9756C12.6123 14.1942 12.7775 14.451 12.8887 14.7461C12.9998 15.0375 13.0557 15.3527 13.0557 15.6914C13.0556 16.1103 12.9791 16.4928 12.8271 16.8389C12.6789 17.1848 12.4719 17.4818 12.2051 17.7295C11.9382 17.9736 11.6209 18.1631 11.2539 18.2979C10.8908 18.4326 10.4943 18.5 10.0645 18.5C9.81239 18.5 9.57279 18.4748 9.34668 18.4238C9.12055 18.3728 8.90721 18.3055 8.70703 18.2217C8.51063 18.1343 8.3277 18.035 8.15723 17.9258C7.99041 17.8128 7.83951 17.6952 7.70605 17.5713L8.12891 16.9971C8.21786 16.8733 8.33496 16.8115 8.47949 16.8115C8.57199 16.8116 8.6665 16.8403 8.7627 16.8984C8.85902 16.9567 8.96858 17.0207 9.09082 17.0898C9.21686 17.1591 9.36346 17.223 9.53027 17.2812C9.70073 17.3395 9.90447 17.3691 10.1416 17.3691C10.3937 17.3691 10.6168 17.3292 10.8096 17.249C11.0022 17.1689 11.1611 17.0571 11.2871 16.915C11.4168 16.7693 11.5132 16.5981 11.5762 16.4014C11.6429 16.201 11.6768 15.9841 11.6768 15.751C11.6767 15.3214 11.5486 14.9864 11.293 14.7461C11.0409 14.5021 10.6665 14.3799 10.1699 14.3799C9.7881 14.3799 9.39645 14.4495 8.99609 14.5879L8.13965 14.3467L8.80762 10.5107H12.7773V11.085ZM5.08105 17.4014H6.52637V18.4121H2.07812V17.4014H3.70703V12.7949C3.70703 12.6129 3.7135 12.4254 3.72461 12.2324L2.56738 13.1826C2.50066 13.2336 2.43391 13.2667 2.36719 13.2812C2.30424 13.2921 2.24284 13.2922 2.18359 13.2812C2.12821 13.2703 2.07852 13.252 2.03418 13.2266C1.9897 13.1974 1.95584 13.1666 1.93359 13.1338L1.5 12.5488L3.95215 10.5H5.08105V17.4014ZM10 1C14.9706 1 19 5.02944 19 10C19 12.5787 17.9146 14.905 16.1777 16.5449C15.8765 16.8293 15.4015 16.8158 15.1172 16.5146C14.833 16.2135 14.8466 15.7394 15.1475 15.4551C16.5969 14.0867 17.5 12.1492 17.5 10C17.5 5.85786 14.1421 2.5 10 2.5C7.02321 2.50001 4.44959 4.2346 3.23828 6.75H6.75C7.16421 6.75 7.5 7.08579 7.5 7.5C7.5 7.91421 7.16421 8.25 6.75 8.25H1.75C1.33579 8.25 1 7.91421 1 7.5V2.5C1 2.08579 1.33579 1.75 1.75 1.75C2.16421 1.75 2.5 2.08579 2.5 2.5V5.02344C4.11198 2.5988 6.86871 1.00001 10 1Z" fill="#1D1C1D"/>
</svg>
