<svg width="20" height="20" viewBox="0 0 20 20" fill="none" xmlns="http://www.w3.org/2000/svg">
<path d="M10 4.50023C12.7614 4.50023 15 6.7388 15 9.50023V13.5002L14.9932 13.7571C14.8594 16.3991 12.6752 18.5002 10 18.5002C7.32476 18.5002 5.14058 16.3991 5.00684 13.7571L5 13.5002V9.50023C5 6.7388 7.23858 4.50023 10 4.50023ZM6.5 13.5002C6.50006 15.4332 8.06704 17.0002 10 17.0002C11.933 17.0002 13.4999 15.4332 13.5 13.5002V11.0002H6.5V13.5002ZM10 6.00023C8.067 6.00023 6.5 7.56723 6.5 9.50023H10V6.00023ZM17.5293 5.70823C17.9273 5.59334 18.3431 5.82297 18.458 6.22093C18.5728 6.61885 18.3432 7.03475 17.9453 7.14964L16.9844 7.42698C16.5865 7.54161 16.1705 7.31211 16.0557 6.91429C15.9409 6.51645 16.1706 6.10058 16.5684 5.98558L17.5293 5.70823ZM15.7197 3.0305C16.0126 2.73768 16.4874 2.73768 16.7803 3.0305C17.0731 3.32337 17.0731 3.79815 16.7803 4.09105L16.0732 4.79808C15.7803 5.09097 15.3056 5.09097 15.0127 4.79808C14.7199 4.50518 14.7198 4.03041 15.0127 3.73753L15.7197 3.0305ZM12.8213 1.72777C12.92 1.32565 13.3263 1.07942 13.7285 1.17796C14.1308 1.27653 14.3769 1.68287 14.2783 2.08519L14.04 3.05687C13.9413 3.45876 13.5358 3.70499 13.1338 3.60667C12.7315 3.5081 12.4854 3.10176 12.584 2.69945L12.8213 1.72777Z" fill="#1D1C1D"/>
</svg>
