<svg width="20" height="20" viewBox="0 0 20 20" fill="none" xmlns="http://www.w3.org/2000/svg">
<path d="M2.95129 14.217C3.5474 13.6209 4.1732 13.7321 4.90344 14.0451C4.87496 14.0664 4.84729 14.0905 4.82141 14.1164L4.01281 14.925C3.72003 15.2181 3.71989 15.6935 4.01281 15.9865C4.30598 16.2797 4.78215 16.2797 5.07531 15.9865L5.88293 15.1779C5.90881 15.152 5.9329 15.1244 5.95422 15.0959C6.26723 15.8262 6.37848 16.4519 5.78234 17.048C4.01296 18.8173 1.88977 18.1096 1.88977 18.1096C1.88295 18.089 1.19072 15.9777 2.95129 14.217ZM7.55187 7.22676C10.3332 2.79692 14.2506 1.52462 17.5294 1.78145L18.1681 1.83223L18.2179 2.4709C18.4747 5.74975 17.2016 9.66517 12.7716 12.4465C12.9728 13.4718 13.0301 14.3132 12.6945 15.0998C12.3183 15.9812 11.4954 16.6704 10.3683 17.5441C9.67916 18.0779 8.7148 17.7641 8.38781 17.0373C8.0666 16.3228 7.38611 15.0669 6.1593 13.84C4.93276 12.6136 3.6776 11.9338 2.96301 11.6125C2.23598 11.2857 1.92239 10.3213 2.45617 9.63203C3.32988 8.50503 4.0182 7.68108 4.89953 7.30488C5.68592 6.96935 6.52701 7.02572 7.55187 7.22676ZM16.7482 3.2502C14.0344 3.24236 10.8656 4.49159 8.56652 8.44746L8.29113 8.92207L7.75598 8.80195C6.45401 8.51243 5.91151 8.50428 5.4884 8.68477C5.05594 8.86942 4.6239 9.29997 3.8009 10.3479C4.64884 10.7531 5.94837 11.5081 7.21984 12.7795C8.49115 14.0508 9.24621 15.3505 9.65148 16.1984C10.699 15.3757 11.1298 14.9442 11.3146 14.5119C11.4951 14.0888 11.4869 13.5454 11.1974 12.2434L11.0773 11.7082L11.5519 11.4328C15.5083 9.13347 16.7563 5.96419 16.7482 3.2502ZM13.047 5.70039C13.7361 5.70054 14.2989 6.2642 14.2989 6.95332C14.2987 7.64225 13.7359 8.20513 13.047 8.20527C12.3579 8.20527 11.7943 7.64234 11.7941 6.95332C11.7941 6.26411 12.3578 5.70039 13.047 5.70039Z" fill="#1D1C1D"/>
</svg>
