<svg width="20" height="20" viewBox="0 0 20 20" fill="none" xmlns="http://www.w3.org/2000/svg">
<path d="M17.7497 1.5C18.1639 1.5 18.4997 1.83579 18.4997 2.25V6.75C18.4997 7.16421 18.1639 7.5 17.7497 7.5H13.2497C12.8356 7.49984 12.4997 7.16411 12.4997 6.75C12.4997 6.33589 12.8356 6.00016 13.2497 6H15.7428C14.9867 4.91435 13.9358 4.06035 12.7067 3.54492C11.2568 2.93698 9.64365 2.83472 8.12859 3.25488C6.6138 3.67515 5.28375 4.59262 4.35417 5.86035C3.42454 7.12828 2.94876 8.67289 3.00359 10.2441C3.05846 11.8153 3.64123 13.3225 4.65691 14.5225C5.67277 15.7224 7.06352 16.5459 8.60417 16.8594C10.1447 17.1728 11.7462 16.9585 13.1501 16.251C14.5541 15.5433 15.6789 14.383 16.3434 12.958C16.5185 12.5828 16.9652 12.4208 17.3405 12.5957C17.7157 12.7707 17.8784 13.2165 17.7038 13.5918C16.897 15.322 15.5305 16.7305 13.8259 17.5898C12.121 18.4491 10.1761 18.7097 8.30535 18.3291C6.43459 17.9484 4.74592 16.9492 3.51238 15.4922C2.27888 14.0351 1.57124 12.2048 1.50456 10.2969C1.43794 8.38884 2.0163 6.51332 3.14519 4.97363C4.27407 3.43417 5.88863 2.31981 7.7282 1.80957C9.56793 1.29937 11.5261 1.4229 13.2868 2.16113C14.7936 2.79298 16.0796 3.84431 16.9997 5.18066V2.25C16.9997 1.83589 17.3356 1.50016 17.7497 1.5Z" fill="#1D1C1D"/>
</svg>
