<svg width="20" height="20" viewBox="0 0 20 20" fill="none" xmlns="http://www.w3.org/2000/svg">
<path d="M17.75 7.38035C18.1642 7.38035 18.5 7.71614 18.5 8.13035V17.7505C18.4997 18.1644 18.164 18.5005 17.75 18.5005H2.25C1.83595 18.5005 1.50027 18.1644 1.5 17.7505C1.5 17.3363 1.83579 17.0005 2.25 17.0005H4.96582V16.5005C4.96582 16.0863 5.30161 15.7505 5.71582 15.7505C6.13003 15.7505 6.46582 16.0863 6.46582 16.5005V17.0005H9.25781V15.2505C9.25781 14.8363 9.5937 14.5006 10.0078 14.5005C10.422 14.5005 10.7578 14.8363 10.7578 15.2505V17.0005H13.585V12.7505C13.585 12.3364 13.921 12.0007 14.335 12.0005C14.7492 12.0005 15.085 12.3363 15.085 12.7505V17.0005H17V8.13035C17 7.71614 17.3358 7.38035 17.75 7.38035ZM4.21387 10.7124C4.6609 10.2655 5.13012 10.3488 5.67773 10.5835C5.65638 10.5995 5.63562 10.6178 5.61621 10.6372L5.00977 11.2436C4.7901 11.4635 4.79003 11.8197 5.00977 12.0395C5.22958 12.2593 5.58578 12.2592 5.80566 12.0395L6.41211 11.4331C6.43152 11.4137 6.44984 11.3929 6.46582 11.3716C6.70054 11.9192 6.78377 12.3884 6.33691 12.8354C5.01261 14.1597 3.4236 13.6345 3.41699 13.6323C3.41699 13.6323 2.8868 12.0394 4.21387 10.7124ZM7.54785 5.44578C9.65843 2.05799 12.6479 1.07753 15.1553 1.27391L15.7305 1.31883L15.7754 1.89402C15.9717 4.40133 14.9913 7.39192 11.6035 9.50242C11.5565 10.0457 11.4002 10.5062 11.04 10.9692C10.6476 11.4736 10.0203 11.9675 9.17285 12.6245C8.59434 13.0726 7.78953 12.8083 7.5166 12.2016C7.43336 12.0164 7.38183 11.8518 7.3418 11.7241C7.30049 11.5923 7.27127 11.5012 7.22754 11.4028C7.14759 11.223 6.99184 10.9611 6.54004 10.5093C6.08783 10.0571 5.82532 9.90066 5.64551 9.82078C5.54739 9.77725 5.45662 9.74868 5.3252 9.7075C5.19744 9.66747 5.03287 9.61594 4.84766 9.53269C4.24094 9.25979 3.97663 8.45497 4.4248 7.87644C5.084 7.02615 5.58232 6.40066 6.08984 6.00828C6.55244 5.65069 7.01099 5.49339 7.54785 5.44578ZM14.4463 2.60398C12.4747 2.63322 10.1929 3.56785 8.52246 6.44187L8.32715 6.77781H7.93945C7.44668 6.77782 7.19556 6.86061 6.91602 7.07664C6.6119 7.31177 6.27263 7.70765 5.71777 8.41551C5.7213 8.41664 5.72494 8.41827 5.72852 8.41941C5.85236 8.45822 6.01489 8.50767 6.19434 8.58738C6.57069 8.75458 6.96553 9.02657 7.49414 9.55516C8.02276 10.0838 8.29472 10.4796 8.46191 10.8559C8.54144 11.0351 8.59113 11.1971 8.62988 11.3208C8.63098 11.3243 8.63271 11.3281 8.63379 11.3315C9.34384 10.7759 9.73949 10.4423 9.97461 10.1401C10.1882 9.86539 10.2714 9.61629 10.2715 9.11082V8.72215L10.6074 8.52586C13.481 6.85563 14.4169 4.57536 14.4463 2.60398ZM11.7852 4.32469C12.3019 4.3248 12.7244 4.74745 12.7246 5.26414C12.7246 5.78098 12.302 6.20348 11.7852 6.20359C11.2682 6.20359 10.8457 5.78105 10.8457 5.26414C10.8459 4.74739 11.2684 4.32469 11.7852 4.32469Z" fill="#1D1C1D"/>
</svg>
