<svg width="20" height="20" viewBox="0 0 20 20" fill="none" xmlns="http://www.w3.org/2000/svg">
<path d="M9.00195 10.1094C9.00241 9.57302 9.43723 9.13795 9.97363 9.13769C10.5103 9.13769 10.9458 9.57286 10.9463 10.1094C10.9463 10.4334 10.7867 10.7198 10.543 10.8965C10.7885 11.3476 11.1164 11.6096 11.4561 11.7285C11.8169 11.8548 12.211 11.8283 12.5674 11.665C13.1894 11.3798 13.7081 10.6668 13.6465 9.62695C13.2847 9.48536 13.0283 9.13361 13.0283 8.72168C13.0288 8.18526 13.4635 7.7501 14 7.75C14.5366 7.75 14.9722 8.18519 14.9727 8.72168C14.9727 9.13219 14.7172 9.48246 14.3574 9.625C14.2957 10.6566 14.8139 11.3391 15.4336 11.6104C16.1172 11.9094 16.9659 11.7336 17.459 10.8955C17.2164 10.7187 17.0576 10.4325 17.0576 10.1094C17.0581 9.57286 17.4937 9.1377 18.0303 9.13769C18.5669 9.13774 19.0015 9.57289 19.002 10.1094C19.002 10.6462 18.5671 11.082 18.0303 11.082C18.0231 11.082 18.0159 11.0802 18.0088 11.0801L17.3311 14.7451C17.3067 14.8768 17.1915 14.9727 17.0576 14.9727L10.9473 14.9727C10.8134 14.9726 10.6992 14.8767 10.6748 14.7451L9.99512 11.0801C9.98812 11.0802 9.98067 11.082 9.97363 11.082C9.43695 11.0818 9.00195 10.6461 9.00195 10.1094ZM10.7607 16.2666C10.7134 16.0286 10.8959 15.8057 11.1387 15.8057L16.8652 15.8057C17.108 15.8057 17.2905 16.0286 17.2432 16.2666C17.1352 16.8064 16.6608 17.1953 16.1104 17.1953L11.8936 17.1953C11.3431 17.1953 10.8687 16.8064 10.7607 16.2666ZM1.5 4.25C1.50024 3.83599 1.83593 3.5 2.25 3.5L14.75 3.5C15.1641 3.5 15.4998 3.83599 15.5 4.25C15.5 4.66421 15.1642 5 14.75 5L2.25 5C1.83579 5 1.5 4.66421 1.5 4.25ZM1.5 15.5C1.50024 15.086 1.83593 14.75 2.25 14.75L8.25195 14.75C8.66602 14.75 9.00172 15.086 9.00195 15.5C9.00195 15.9142 8.66617 16.25 8.25195 16.25L2.25 16.25C1.83579 16.25 1.5 15.9142 1.5 15.5ZM1.5 8C1.50024 7.58599 1.83593 7.25 2.25 7.25L7.52734 7.25C7.94141 7.25 8.27711 7.58599 8.27734 8C8.27734 8.41421 7.94156 8.75 7.52734 8.75L2.25 8.75C1.83579 8.75 1.5 8.41421 1.5 8ZM1.5 11.75C1.50024 11.336 1.83593 11 2.25 11L7.01562 11C7.42969 11 7.76539 11.336 7.76562 11.75C7.76562 12.1642 7.42984 12.5 7.01562 12.5L2.25 12.5C1.83579 12.5 1.5 12.1642 1.5 11.75Z" fill="#1D1C1D"/>
</svg>
