<svg width="20" height="20" viewBox="0 0 20 20" fill="none" xmlns="http://www.w3.org/2000/svg">
<path fill-rule="evenodd" clip-rule="evenodd" d="M4.21384 10.7124C4.66088 10.2655 5.13009 10.3488 5.67771 10.5835C5.65636 10.5995 5.6356 10.6178 5.61619 10.6372L5.00974 11.2436C4.79007 11.4635 4.79 11.8197 5.00974 12.0395C5.22956 12.2593 5.58575 12.2592 5.80564 12.0395L6.41209 11.4331C6.4315 11.4137 6.44981 11.3929 6.4658 11.3716C6.70052 11.9192 6.78376 12.3884 6.33689 12.8354C5.00983 14.1625 3.41697 13.6323 3.41697 13.6323C3.41697 13.6323 2.88678 12.0394 4.21384 10.7124ZM15.1553 1.27391L15.7304 1.31883L15.7754 1.89402C15.9717 4.40134 14.9912 7.39192 11.6035 9.50242C11.5565 10.0457 11.4002 10.5062 11.04 10.9692C10.6475 11.4737 10.0203 11.9675 9.17283 12.6245C8.59432 13.0726 7.78951 12.8083 7.51658 12.2016C7.43344 12.0166 7.38193 11.8523 7.34193 11.7246L7.34177 11.7241C7.30047 11.5923 7.27125 11.5013 7.22752 11.4028C7.14757 11.223 6.99182 10.9611 6.54002 10.5093C6.08779 10.0571 5.82529 9.90066 5.64548 9.82078C5.54736 9.77725 5.45661 9.74869 5.32517 9.7075L5.32449 9.70728L5.32445 9.70728C5.19679 9.66727 5.03251 9.61579 4.84763 9.53269C4.24091 9.25979 3.9766 8.45497 4.42478 7.87644C5.08398 7.02614 5.58229 6.40066 6.08982 6.00828C6.55242 5.65068 7.01096 5.4934 7.54783 5.44578C9.65841 2.05798 12.6479 1.07753 15.1553 1.27391ZM17 8.13009C17 7.71588 17.3358 7.38009 17.75 7.38009C18.1642 7.38009 18.5 7.71588 18.5 8.13009V17.7502C18.4999 18.1643 18.1641 18.5002 17.75 18.5002H2.25C1.83587 18.5002 1.50013 18.1643 1.5 17.7502C1.5 17.336 1.83579 17.0002 2.25 17.0002H4.96582V16.5002C4.96582 16.086 5.30161 15.7502 5.71582 15.7502C6.13003 15.7502 6.46582 16.086 6.46582 16.5002V17.0002H9.25781V15.2502C9.25781 14.8361 9.5937 14.5003 10.0078 14.5002C10.422 14.5002 10.7578 14.836 10.7578 15.2502V17.0002H13.585V12.7502C13.585 12.3362 13.921 12.0005 14.335 12.0002C14.7492 12.0002 15.085 12.336 15.085 12.7502V17.0002H17V8.13009ZM11.7849 6.15392C11.268 6.15392 10.8456 5.73145 10.8456 5.21454C10.8456 4.69763 11.268 4.27516 11.7849 4.27516C12.3018 4.27516 12.7243 4.69763 12.7243 5.21454C12.7243 5.73145 12.3018 6.15392 11.7849 6.15392Z" fill="#1D1C1D"/>
</svg>
