<svg width="20" height="20" viewBox="0 0 20 20" fill="none" xmlns="http://www.w3.org/2000/svg">
<path d="M10.7148 11.7881C10.8748 11.6893 11.075 11.6806 11.2432 11.7646L17.2432 14.7646C17.4268 14.8567 17.543 15.0446 17.543 15.25C17.543 15.4554 17.4268 15.6433 17.2432 15.7354L11.2432 18.7354C11.075 18.8194 10.8748 18.8107 10.7148 18.7119C10.5548 18.613 10.457 18.4381 10.457 18.25V16.375C10.457 16.0958 10.6694 15.8623 10.9473 15.835L12.8213 15.6504C13.0274 15.6301 13.1846 15.4571 13.1846 15.25C13.1846 15.0429 13.0274 14.8699 12.8213 14.8496L10.9473 14.665C10.6694 14.6377 10.457 14.4042 10.457 14.125V12.25C10.457 12.0619 10.5548 11.887 10.7148 11.7881ZM10 1.5C14.1421 1.5 17.5 4.85786 17.5 9C17.5 9.97998 17.3119 10.9182 16.9688 11.7783C16.8152 12.1629 16.3788 12.3497 15.9941 12.1963C15.6094 12.0428 15.4217 11.6064 15.5752 11.2217C15.8489 10.5355 16 9.78634 16 9C16 5.68629 13.3137 3 10 3C6.68629 3 4 5.68629 4 9C4 11.6935 5.77542 13.9745 8.22168 14.7324C8.61734 14.855 8.83937 15.2752 8.7168 15.6709C8.59422 16.0665 8.17391 16.2875 7.77832 16.165C4.7218 15.2182 2.5 12.3696 2.5 9C2.5 4.85786 5.85786 1.5 10 1.5ZM10 4.77246C10.4141 4.77246 10.7499 5.10837 10.75 5.52246V8.65918H13.0684C13.4825 8.65928 13.8184 8.99503 13.8184 9.40918C13.8183 9.82329 13.4825 10.1591 13.0684 10.1592H9.25V5.52246C9.25014 5.10837 9.58587 4.77246 10 4.77246Z" fill="#1D1C1D"/>
</svg>
