<svg width="20" height="20" viewBox="0 0 20 20" fill="none" xmlns="http://www.w3.org/2000/svg">
<path d="M18.2539 3.10856C18.4092 3.3699 18.5 3.67413 18.5 4.00016V12.5002C18.5 13.4667 17.7165 14.2502 16.75 14.2502H10.75V16.2502H15C15.4142 16.2502 15.75 16.586 15.75 17.0002C15.75 17.4144 15.4142 17.7502 15 17.7502H5.07715L6.42676 16.2502H9.25V14.2502H8.22754L9.57715 12.7502H16.75C16.8881 12.7502 17 12.6382 17 12.5002V4.50212L17.6729 3.75505L18.2539 3.10856ZM15.9424 1.24821C16.2195 0.940383 16.6941 0.915472 17.002 1.19255C17.3098 1.46965 17.3347 1.94425 17.0576 2.25212L3.55762 17.2521C3.28052 17.5599 2.80591 17.5849 2.49805 17.3078C2.19022 17.0307 2.16531 16.5561 2.44238 16.2482L15.9424 1.24821ZM11.623 3.75016H3.25C3.11193 3.75016 3 3.86209 3 4.00016V12.5002C3 12.6382 3.11193 12.7502 3.25 12.7502H3.52246L2.38086 14.0177C1.85495 13.7159 1.5 13.15 1.5 12.5002V4.00016C1.5 3.03367 2.2835 2.25016 3.25 2.25016H12.9727L11.623 3.75016Z" fill="#1D1C1D"/>
</svg>
