<svg width="20" height="20" viewBox="0 0 20 20" fill="none" xmlns="http://www.w3.org/2000/svg">
<path d="M16.75 2.25C17.7165 2.25 18.5 3.0335 18.5 4V12.5C18.5 13.4665 17.7165 14.25 16.75 14.25H10.75V16.25H15C15.4142 16.25 15.75 16.5858 15.75 17C15.75 17.4142 15.4142 17.75 15 17.75H5C4.58579 17.75 4.25 17.4142 4.25 17C4.25 16.5858 4.58579 16.25 5 16.25H9.25V14.25H3.25C2.2835 14.25 1.5 13.4665 1.5 12.5V4C1.5 3.0335 2.2835 2.25 3.25 2.25H16.75ZM3.25 3.75C3.11193 3.75 3 3.86193 3 4V12.5C3 12.6381 3.11193 12.75 3.25 12.75H16.75C16.8881 12.75 17 12.6381 17 12.5V4C17 3.86193 16.8881 3.75 16.75 3.75H3.25ZM7.9873 5.57422C8.13466 5.48331 8.31875 5.47529 8.47363 5.55273L12.4736 7.55273C12.643 7.63743 12.75 7.81061 12.75 8C12.75 8.18939 12.643 8.36257 12.4736 8.44727L8.47363 10.4473C8.31875 10.5247 8.13466 10.5167 7.9873 10.4258C7.8399 10.3347 7.75 10.1733 7.75 10V6C7.75 5.82671 7.8399 5.66532 7.9873 5.57422Z" fill="#1D1C1D"/>
</svg>
