<svg width="20" height="20" viewBox="0 0 20 20" fill="none" xmlns="http://www.w3.org/2000/svg">
<path d="M8.96259 7.5752C9.24276 7.45918 9.56549 7.52392 9.77997 7.73828L16.53 14.4883C16.7444 14.7028 16.8091 15.0254 16.6931 15.3057C16.5769 15.5859 16.303 15.7686 15.9997 15.7686H12.1188L9.84442 18.7256C9.64865 18.98 9.3124 19.0818 9.00848 18.9785C8.7046 18.875 8.49969 18.5896 8.49969 18.2686V8.26855C8.49969 7.9653 8.68248 7.69134 8.96259 7.5752ZM9.99969 16.0625L11.155 14.5615L11.2116 14.4961C11.3519 14.3516 11.5459 14.2686 11.7497 14.2686H14.1891L9.99969 10.0791V16.0625ZM5.18329 11.8242C5.47618 11.5313 5.95192 11.5313 6.24481 11.8242C6.53731 12.1171 6.53741 12.592 6.24481 12.8848L4.82977 14.2988C4.53687 14.5916 4.06207 14.5917 3.76923 14.2988C3.47654 14.006 3.47654 13.5311 3.76923 13.2383L5.18329 11.8242ZM4.24872 8.01855C4.66293 8.01855 4.99872 8.35434 4.99872 8.76855C4.99872 9.18277 4.66293 9.51855 4.24872 9.51855H2.24872C1.8345 9.51855 1.49872 9.18277 1.49872 8.76855C1.49872 8.35434 1.8345 8.01855 2.24872 8.01855H4.24872ZM16.2468 8.01855C16.6609 8.01865 16.9968 8.3544 16.9968 8.76855C16.9968 9.18271 16.6609 9.51846 16.2468 9.51855H14.2468C13.8326 9.51855 13.4968 9.18277 13.4968 8.76855C13.4968 8.35434 13.8326 8.01855 14.2468 8.01855H16.2468ZM3.71942 3.23828C4.01226 2.94544 4.48706 2.94554 4.77997 3.23828L6.19501 4.65234C6.4876 4.94514 6.4875 5.42003 6.19501 5.71289C5.90211 6.00578 5.42638 6.00578 5.13348 5.71289L3.71942 4.29883C3.42673 4.00597 3.42673 3.53114 3.71942 3.23828ZM13.7194 3.23828C14.0123 2.94544 14.4871 2.94554 14.78 3.23828C15.0729 3.53117 15.0729 4.00593 14.78 4.29883L13.3659 5.71289C13.073 6.00578 12.5983 6.00578 12.3054 5.71289C12.0126 5.41999 12.0125 4.94519 12.3054 4.65234L13.7194 3.23828ZM9.25067 1.02148C9.66488 1.02148 10.0007 1.35727 10.0007 1.77148V3.77148C10.0007 4.1857 9.66488 4.52148 9.25067 4.52148C8.83651 4.52142 8.50067 4.18566 8.50067 3.77148V1.77148C8.50067 1.35731 8.83651 1.02155 9.25067 1.02148Z" fill="#1D1C1D"/>
</svg>
