<svg width="20" height="20" viewBox="0 0 20 20" fill="none" xmlns="http://www.w3.org/2000/svg">
<path d="M3.75 5.25C3.75 3.17893 5.42894 1.5 7.5 1.5L14 1.5C14.8655 1.5 15.6808 1.90724 16.2002 2.59961L18.2002 5.2666C18.5572 5.74261 18.75 6.322 18.75 6.91699L18.75 14.75C18.75 16.8211 17.0711 18.5 15 18.5L13.25 18.5C12.8358 18.5 12.5 18.1642 12.5 17.75C12.5 17.3358 12.8358 17 13.25 17L15 17C16.2426 17 17.25 15.9926 17.25 14.75L17.25 6.91699C17.25 6.64662 17.1622 6.38332 17 6.16699L15 3.5C14.7639 3.18524 14.3934 3 14 3L7.5 3C6.25735 3 5.25 4.00736 5.25 5.25L5.25 6.5C5.25 6.91421 4.91421 7.25 4.5 7.25C4.08579 7.25 3.75 6.91421 3.75 6.5L3.75 5.25ZM12.75 4.75C12.75 4.33579 13.0858 4 13.5 4C13.9142 4 14.25 4.33579 14.25 4.75L14.25 6.5L16 6.5C16.4142 6.5 16.75 6.83579 16.75 7.25C16.75 7.66421 16.4142 8 16 8L13.5 8C13.0858 8 12.75 7.66421 12.75 7.25L12.75 4.75ZM1.25 13C1.25 10.5147 3.26472 8.5 5.75 8.5C8.23528 8.5 10.25 10.5147 10.25 13C10.25 13.9721 9.94106 14.8717 9.41699 15.6074L11.0303 17.2197C11.323 17.5126 11.3231 17.9875 11.0303 18.2803C10.7375 18.5731 10.2626 18.573 9.96973 18.2803L8.35645 16.668C7.62094 17.1916 6.72161 17.5 5.75 17.5C3.26472 17.5 1.25 15.4853 1.25 13ZM2.75 13C2.75 14.6569 4.09315 16 5.75 16C7.40685 16 8.75 14.6569 8.75 13C8.75 11.3431 7.40685 10 5.75 10C4.09315 10 2.75 11.3431 2.75 13Z" fill="#1D1C1D"/>
</svg>
