<svg width="12" height="12" viewBox="0 0 12 12" fill="none" xmlns="http://www.w3.org/2000/svg">
<path d="M5.39978 0.849609C7.91261 0.849609 9.94948 2.88661 9.94958 5.39941C9.94958 6.4757 9.57529 7.46411 8.95056 8.24316L11.0033 10.2959C11.1986 10.4912 11.1986 10.8077 11.0033 11.0029C10.808 11.1982 10.4915 11.1982 10.2963 11.0029L8.24353 8.9502C7.46448 9.57492 6.47607 9.94922 5.39978 9.94922C2.88697 9.94911 0.849976 7.91224 0.849976 5.39941C0.850081 2.88667 2.88704 0.849715 5.39978 0.849609ZM5.39978 1.84961C3.43932 1.84972 1.85008 3.43896 1.84998 5.39941C1.84998 7.35996 3.43926 8.94911 5.39978 8.94922C7.36039 8.94922 8.94958 7.36002 8.94958 5.39941C8.94948 3.43889 7.36033 1.84961 5.39978 1.84961Z" fill="#1D1C1D"/>
</svg>
