<svg width="12" height="12" viewBox="0 0 12 12" fill="none" xmlns="http://www.w3.org/2000/svg">
<path d="M5.41895 0.75C7.99762 0.75 10.0886 2.84032 10.0889 5.41895C10.0889 6.43755 9.76061 7.37898 9.20703 8.14648L11.0303 9.96973C11.3232 10.2626 11.3232 10.7374 11.0303 11.0303C10.7374 11.3232 10.2626 11.3232 9.96973 11.0303L8.14648 9.20703C7.37898 9.76061 6.43755 10.0889 5.41895 10.0889C2.84032 10.0886 0.75 7.99762 0.75 5.41895C0.750221 2.84046 2.84046 0.750221 5.41895 0.75ZM5.41895 2.25C3.66888 2.25022 2.25022 3.66888 2.25 5.41895C2.25 7.1692 3.66875 8.58865 5.41895 8.58887C7.16933 8.58887 8.58887 7.16933 8.58887 5.41895C8.58865 3.66875 7.1692 2.25 5.41895 2.25Z" fill="#1D1C1D"/>
</svg>
