<svg width="20" height="20" viewBox="0 0 20 20" fill="none" xmlns="http://www.w3.org/2000/svg">
<path d="M9.03223 1.5C13.1922 1.5 16.5644 4.87229 16.5645 9.03223C16.5645 10.7517 15.9873 12.3357 15.0176 13.6035L18.207 16.793C18.5976 17.1835 18.5976 17.8165 18.207 18.207C17.8165 18.5976 17.1835 18.5976 16.793 18.207L13.6035 15.0176C12.3357 15.9873 10.7517 16.5645 9.03223 16.5645C4.87229 16.5644 1.5 13.1922 1.5 9.03223C1.50002 4.8723 4.8723 1.50002 9.03223 1.5ZM9.03223 3.5C5.97687 3.50002 3.50002 5.97687 3.5 9.03223C3.5 12.0876 5.97686 14.5644 9.03223 14.5645C12.0876 14.5645 14.5645 12.0876 14.5645 9.03223C14.5644 5.97686 12.0876 3.5 9.03223 3.5Z" fill="#1D1C1D"/>
</svg>
