<svg width="20" height="20" viewBox="0 0 20 20" fill="none" xmlns="http://www.w3.org/2000/svg">
<path d="M9.39458 1.63824C9.83245 1.45444 10.3264 1.45669 10.7627 1.6441L16.4356 4.08258C17.1106 4.37276 17.5329 5.05408 17.4922 5.78766L17.1573 11.817C17.0067 14.5288 15.2455 16.8861 12.6875 17.7994L11.3243 18.2867C10.5193 18.5741 9.63952 18.5779 8.83208 18.2974L7.35259 17.7828C4.76499 16.8837 2.97753 14.5102 2.82817 11.775L2.50103 5.79254C2.46074 5.0541 2.88949 4.3699 3.57134 4.08356L9.39458 1.63824ZM10 5.96442C8.83647 5.9646 7.89263 6.90821 7.89263 8.07184V8.71735C7.39375 8.7541 7.00019 9.17003 7.00005 9.67828V12.4644C7.00037 12.8783 7.33616 13.2143 7.75005 13.2144H12.25C12.6639 13.2142 12.9997 12.8782 13 12.4644V9.67828C12.9999 9.16986 12.6057 8.75385 12.1065 8.71735V8.07184C12.1065 6.90825 11.1636 5.96467 10 5.96442ZM10 6.96442C10.6113 6.96467 11.1065 7.46054 11.1065 8.07184V8.71442H8.89263V8.07184C8.89263 7.4605 9.38875 6.9646 10 6.96442Z" fill="#1D1C1D"/>
</svg>
