<svg width="20" height="20" viewBox="0 0 20 20" fill="none" xmlns="http://www.w3.org/2000/svg">
<path d="M9.39458 1.63824C9.83245 1.45444 10.3264 1.45669 10.7627 1.6441L16.4356 4.08258C17.1106 4.37276 17.5329 5.05408 17.4922 5.78766L17.1573 11.817C17.0067 14.5288 15.2455 16.8861 12.6875 17.7994L11.3243 18.2867C10.5193 18.5741 9.63952 18.5779 8.83208 18.2974L7.35259 17.7828C4.76499 16.8837 2.97753 14.5102 2.82817 11.775L2.50103 5.79254C2.46074 5.0541 2.88949 4.3699 3.57134 4.08356L9.39458 1.63824ZM10.1709 3.02203C10.1087 2.99527 10.0382 2.99584 9.97564 3.02203L4.15239 5.46637C4.05498 5.50727 3.99333 5.60502 3.99907 5.71051L4.32524 11.6929C4.44134 13.8204 5.83222 15.6665 7.84478 16.3658L9.32427 16.8804C9.80868 17.0487 10.3364 17.046 10.8194 16.8736L12.1836 16.3873C14.173 15.6769 15.543 13.8431 15.6602 11.7339L15.9942 5.70465C16 5.59996 15.94 5.50204 15.8438 5.46051L10.1709 3.02203ZM10 5.96539C11.1637 5.96555 12.1065 6.90917 12.1065 8.07281V8.71832C12.6057 8.75476 12.9999 9.17078 13 9.67926V12.4654C12.9997 12.8793 12.664 13.2153 12.25 13.2154H7.75005C7.33611 13.2153 7.00038 12.8793 7.00005 12.4654V9.67926C7.00019 9.17096 7.39367 8.75501 7.89263 8.71832V8.07281C7.89263 6.90914 8.8364 5.96551 10 5.96539ZM10 6.96539C9.38869 6.96551 8.89263 7.46143 8.89263 8.07281V8.71539H11.1065V8.07281C11.1065 7.46146 10.6114 6.96555 10 6.96539Z" fill="#1D1C1D"/>
</svg>
