<svg width="20" height="20" viewBox="0 0 20 20" fill="none" xmlns="http://www.w3.org/2000/svg">
<path d="M5.40192 1.51562C6.21633 1.51562 6.8765 2.17583 6.87653 2.99023C6.87653 3.54105 6.57398 4.02023 6.12653 4.27344V5.43555H13.6226C14.5888 5.43569 15.3723 6.21937 15.3726 7.18555L15.3736 15.6475C15.7925 15.9075 16.0727 16.3701 16.0728 16.8994C16.0728 17.7138 15.4126 18.374 14.5982 18.374C13.7838 18.374 13.1236 17.7138 13.1236 16.8994C13.1237 16.3487 13.4262 15.8694 13.8736 15.6162V14.4541H6.3775C5.41118 14.454 4.6276 13.6705 4.6275 12.7041L4.62653 4.24219C4.20751 3.98209 3.92731 3.51968 3.92731 2.99023C3.92734 2.17584 4.58752 1.51565 5.40192 1.51562ZM6.1275 12.7041C6.12752 12.8421 6.23955 12.954 6.3775 12.9541H13.8736L13.8726 7.18555C13.8724 7.04774 13.7604 6.93569 13.6226 6.93555H6.12653L6.1275 12.7041Z" fill="#1D1C1D"/>
</svg>
