<svg width="20" height="20" viewBox="0 0 20 20" fill="none" xmlns="http://www.w3.org/2000/svg">
<path d="M1.85547 1.61211C2.07646 1.47553 2.35255 1.46287 2.58496 1.57891L18.085 9.32891C18.339 9.45595 18.5 9.71573 18.5 9.99981C18.5 10.2839 18.339 10.5437 18.085 10.6707L2.58496 18.4207C2.35255 18.5367 2.07646 18.5241 1.85547 18.3875C1.63453 18.2508 1.5 18.0096 1.5 17.7498V11.7039C1.5 11.024 1.8024 10.413 2.28125 9.99981C1.8024 9.58663 1.5 8.97562 1.5 8.29571V2.24981C1.5 1.98999 1.63453 1.7488 1.85547 1.61211ZM3 8.29571C3 8.7008 3.32167 9.03305 3.72656 9.04571L10.2734 9.24981C10.6783 9.26246 11 9.59472 11 9.99981C11 10.4049 10.6783 10.7372 10.2734 10.7498L3.72656 10.9539C3.32167 10.9666 3 11.2988 3 11.7039V16.5359L16.0732 9.99981L3 3.4627V8.29571Z" fill="#1D1C1D"/>
</svg>
