<svg width="20" height="20" viewBox="0 0 20 20" fill="none" xmlns="http://www.w3.org/2000/svg">
<path d="M8.514 1.28609C9.46764 0.904635 10.532 0.904636 11.4857 1.28609C11.7105 1.37607 11.8784 1.56943 11.9359 1.80465L12.3079 3.32711L12.3119 3.34566C12.3864 3.68569 12.7775 3.84703 13.0706 3.65914L13.0863 3.64937L14.4261 2.8359C14.6331 2.71024 14.8881 2.69272 15.1107 2.78805C16.0547 3.19264 16.8076 3.94457 17.2122 4.88863C17.3076 5.11123 17.2891 5.3662 17.1634 5.5732L16.3499 6.91402L16.3402 6.92965C16.1526 7.22278 16.3146 7.61307 16.6546 7.68746L16.6722 7.69137L18.1956 8.06441C18.4306 8.12199 18.6232 8.28912 18.7132 8.51363C19.0947 9.46728 19.0947 10.5317 18.7132 11.4853C18.6233 11.71 18.4307 11.8779 18.1956 11.9355L16.6722 12.3076L16.6546 12.3115C16.3144 12.3859 16.1522 12.7771 16.3402 13.0703L16.3499 13.0859L17.1634 14.4257C17.289 14.6327 17.3075 14.8878 17.2122 15.1103C16.8076 16.0544 16.0547 16.8073 15.1107 17.2119C14.8882 17.3071 14.633 17.2886 14.4261 17.163L13.0863 16.3496L13.0706 16.3398C12.7775 16.1519 12.3863 16.3141 12.3119 16.6543L12.3079 16.6718L11.9359 18.1953C11.8783 18.4303 11.7104 18.6229 11.4857 18.7129C10.532 19.0943 9.46764 19.0943 8.514 18.7129C8.28948 18.6229 8.12236 18.4302 8.06478 18.1953L7.69173 16.6718L7.68783 16.6543C7.61344 16.3142 7.22315 16.1522 6.93001 16.3398L6.91439 16.3496L5.57357 17.163C5.36656 17.2887 5.11159 17.3072 4.889 17.2119C3.94494 16.8073 3.19301 16.0544 2.78841 15.1103C2.69307 14.8877 2.7106 14.6327 2.83626 14.4257L3.64974 13.0859L3.65951 13.0703C3.8474 12.7772 3.68607 12.386 3.34603 12.3115L3.32748 12.3076L1.80501 11.9355C1.56979 11.878 1.37643 11.7101 1.28646 11.4853C0.905002 10.5317 0.905002 9.46728 1.28646 8.51363C1.37647 8.28894 1.56987 8.12191 1.80501 8.06441L3.32748 7.69137L3.34603 7.68746C3.68598 7.61292 3.84722 7.22273 3.65951 6.92965L3.64974 6.91402L2.83626 5.5732C2.71066 5.36619 2.69303 5.11119 2.78841 4.88863C3.19299 3.94469 3.94507 3.19265 4.889 2.78805C5.11155 2.69267 5.36657 2.71031 5.57357 2.8359L6.91439 3.64937L6.93001 3.65914C7.22305 3.84679 7.61321 3.6855 7.68783 3.34566L7.69173 3.32711L8.06478 1.80465C8.12227 1.56951 8.28931 1.37611 8.514 1.28609ZM10.0003 6.99996C8.34347 6.99996 7.00033 8.34311 7.00033 9.99996C7.00033 11.6568 8.34347 13 10.0003 13C11.657 12.9998 13.0003 11.6567 13.0003 9.99996C13.0003 8.34323 11.657 7.00016 10.0003 6.99996Z" fill="#1D1C1D"/>
</svg>
