<svg width="20" height="20" viewBox="0 0 20 20" fill="none" xmlns="http://www.w3.org/2000/svg">
<path d="M8.514 1.28618C9.40787 0.928628 10.399 0.906065 11.305 1.21879L11.4857 1.28618L11.5667 1.32426C11.7505 1.42465 11.8855 1.59872 11.9359 1.80473L12.3079 3.32719C12.3094 3.33313 12.3105 3.33978 12.3119 3.34575C12.3864 3.68578 12.7775 3.84711 13.0706 3.65922L13.0863 3.64946L14.4261 2.83598C14.6331 2.71033 14.8881 2.6928 15.1107 2.78813C16.0547 3.19273 16.8076 3.94466 17.2122 4.88872C17.3076 5.11131 17.2891 5.36628 17.1634 5.57329L16.3499 6.91411C16.3468 6.91924 16.3434 6.92467 16.3402 6.92973C16.1642 7.20465 16.2956 7.56485 16.5931 7.66997L16.6546 7.68754L16.6722 7.69145L18.1956 8.0645L18.2816 8.09086C18.4771 8.16452 18.6345 8.31723 18.7132 8.51372C19.0947 9.46736 19.0947 10.5318 18.7132 11.4854C18.6233 11.7101 18.4307 11.878 18.1956 11.9356L16.6722 12.3077C16.6664 12.3091 16.6605 12.3103 16.6546 12.3116C16.3358 12.3813 16.1734 12.729 16.3089 13.0137L16.3402 13.0704L16.3499 13.086L17.1634 14.4258C17.289 14.6328 17.3075 14.8879 17.2122 15.1104C16.8076 16.0545 16.0547 16.8074 15.1107 17.212C14.8882 17.3072 14.633 17.2887 14.4261 17.1631L13.0863 16.3497C13.0811 16.3465 13.0757 16.3431 13.0706 16.3399C12.7775 16.152 12.3863 16.3142 12.3119 16.6543C12.3106 16.6602 12.3094 16.6661 12.3079 16.6719L11.9359 18.1954C11.8783 18.4304 11.7104 18.623 11.4857 18.7129C10.532 19.0944 9.46764 19.0944 8.514 18.7129C8.28948 18.623 8.12236 18.4303 8.06478 18.1954L7.69173 16.6719C7.69031 16.6661 7.68911 16.6602 7.68783 16.6543C7.61344 16.3143 7.22315 16.1523 6.93001 16.3399C6.92495 16.3431 6.91953 16.3465 6.91439 16.3497L5.57357 17.1631C5.36656 17.2888 5.11159 17.3073 4.889 17.212C3.94494 16.8074 3.19301 16.0545 2.78841 15.1104C2.69307 14.8878 2.7106 14.6328 2.83626 14.4258L3.64974 13.086L3.65951 13.0704C3.8474 12.7772 3.68607 12.3861 3.34603 12.3116C3.34006 12.3103 3.33341 12.3091 3.32748 12.3077L1.80501 11.9356C1.56979 11.8781 1.37643 11.7102 1.28646 11.4854C0.905002 10.5318 0.905002 9.46736 1.28646 8.51372C1.37647 8.28902 1.56987 8.12199 1.80501 8.0645L3.32748 7.69145C3.33341 7.69 3.34006 7.68885 3.34603 7.68754C3.68598 7.613 3.84722 7.22281 3.65951 6.92973C3.65623 6.92462 3.65289 6.9193 3.64974 6.91411L2.83626 5.57329C2.71066 5.36628 2.69303 5.11128 2.78841 4.88872C3.19299 3.94477 3.94507 3.19274 4.889 2.78813L4.97396 2.75688C5.17463 2.69819 5.39249 2.72612 5.57357 2.83598L6.91439 3.64946L6.93001 3.65922C7.22305 3.84687 7.61321 3.68559 7.68783 3.34575L7.69173 3.32719L8.06478 1.80473L8.09115 1.71782C8.16485 1.52234 8.31754 1.36488 8.514 1.28618ZM10.5785 2.57036C10.1974 2.47963 9.80125 2.47945 9.42025 2.57036L9.15267 3.66508C8.85629 5.01997 7.30702 5.66716 6.13607 4.93071V4.93169L5.15658 4.33696C4.82273 4.54224 4.54251 4.82244 4.33724 5.15629L4.9222 6.12016L4.98861 6.23051C5.63317 7.38867 4.98474 8.86496 3.66634 9.15336L3.66537 9.15239L2.57064 9.41997C2.47973 9.80097 2.47992 10.1971 2.57064 10.5782L3.68392 10.8506H3.68294C5.02635 11.1561 5.66425 12.6972 4.93099 13.8633L4.93197 13.8643L4.33724 14.8428C4.54241 15.1766 4.82291 15.4559 5.15658 15.6612L6.13607 15.0674C7.30686 14.3316 8.85713 14.9786 9.15365 16.3331H9.15267L9.42025 17.4278C9.80143 17.5188 10.1972 17.5186 10.5785 17.4278L10.8509 16.3155C11.1569 14.9731 12.6979 14.3349 13.8636 15.0674H13.8646L14.8431 15.6612C15.1766 15.4561 15.4573 15.1773 15.6624 14.8438L15.0677 13.8643V13.8633C14.3353 12.6977 14.9735 11.1567 16.3158 10.8506L17.4281 10.5782C17.5189 10.197 17.5191 9.80115 17.4281 9.41997L16.3333 9.15239C14.973 8.85444 14.3261 7.29267 15.0775 6.12016L15.6615 5.15532C15.4562 4.82195 15.1766 4.54198 14.8431 4.33696L13.8646 4.93169L13.8636 4.93071C12.6978 5.66379 11.1569 5.02639 10.8509 3.68364L10.5785 2.57036ZM10.0003 6.50004C11.9332 6.50024 13.5003 8.06717 13.5003 10C13.5003 11.9329 11.9332 13.4998 10.0003 13.5C8.06733 13.5 6.50033 11.933 6.50033 10C6.50033 8.06705 8.06733 6.50004 10.0003 6.50004ZM10.0003 8.00004C8.89576 8.00004 8.00033 8.89548 8.00033 10C8.00033 11.1046 8.89576 12 10.0003 12C11.1047 11.9998 12.0003 11.1045 12.0003 10C12.0003 8.8956 11.1047 8.00024 10.0003 8.00004Z" fill="#1D1C1D"/>
</svg>
