<svg width="20" height="20" viewBox="0 0 20 20" fill="none" xmlns="http://www.w3.org/2000/svg">
<path d="M12.5 1.5C13.0523 1.5 13.5 1.94772 13.5 2.5V7C13.5 7.27614 13.2761 7.5 13 7.5H10.5C9.67157 7.5 9 8.17157 9 9V18C9 18.2761 8.77614 18.5 8.5 18.5H2C1.72386 18.5 1.5 18.2761 1.5 18V2.5C1.5 1.94772 1.94772 1.5 2.5 1.5H12.5ZM17.5 9C18.0523 9 18.5 9.44772 18.5 10V18C18.5 18.2761 18.2761 18.5 18 18.5H11C10.7239 18.5 10.5 18.2761 10.5 18V10C10.5 9.44772 10.9477 9 11.5 9H17.5ZM3.875 14.75C3.39175 14.75 3 15.1418 3 15.625C3 16.1082 3.39175 16.5 3.875 16.5C4.35825 16.5 4.75 16.1082 4.75 15.625C4.75 15.1418 4.35825 14.75 3.875 14.75ZM7.125 14.75C6.64175 14.75 6.25 15.1418 6.25 15.625C6.25 16.1082 6.64175 16.5 7.125 16.5C7.60825 16.5 8 16.1082 8 15.625C8 15.1418 7.60825 14.75 7.125 14.75ZM12.875 14.75C12.3918 14.75 12 15.1418 12 15.625C12 16.1082 12.3918 16.5 12.875 16.5C13.3582 16.5 13.75 16.1082 13.75 15.625C13.75 15.1418 13.3582 14.75 12.875 14.75ZM16.125 14.75C15.6418 14.75 15.25 15.1418 15.25 15.625C15.25 16.1082 15.6418 16.5 16.125 16.5C16.6082 16.5 17 16.1082 17 15.625C17 15.1418 16.6082 14.75 16.125 14.75ZM3.875 11C3.39175 11 3 11.3918 3 11.875C3 12.3582 3.39175 12.75 3.875 12.75C4.35825 12.75 4.75 12.3582 4.75 11.875C4.75 11.3918 4.35825 11 3.875 11ZM7.125 11C6.64175 11 6.25 11.3918 6.25 11.875C6.25 12.3582 6.64175 12.75 7.125 12.75C7.60825 12.75 8 12.3582 8 11.875C8 11.3918 7.60825 11 7.125 11ZM12.875 11C12.3918 11 12 11.3918 12 11.875C12 12.3582 12.3918 12.75 12.875 12.75C13.3582 12.75 13.75 12.3582 13.75 11.875C13.75 11.3918 13.3582 11 12.875 11ZM16.125 11C15.6418 11 15.25 11.3918 15.25 11.875C15.25 12.3582 15.6418 12.75 16.125 12.75C16.6082 12.75 17 12.3582 17 11.875C17 11.3918 16.6082 11 16.125 11ZM3.875 7.25C3.39175 7.25 3 7.64175 3 8.125C3 8.60825 3.39175 9 3.875 9C4.35825 9 4.75 8.60825 4.75 8.125C4.75 7.64175 4.35825 7.25 3.875 7.25ZM7.125 7.25C6.64175 7.25 6.25 7.64175 6.25 8.125C6.25 8.60825 6.64175 9 7.125 9C7.60825 9 8 8.60825 8 8.125C8 7.64175 7.60825 7.25 7.125 7.25ZM3.875 3.5C3.39175 3.5 3 3.89175 3 4.375C3 4.85825 3.39175 5.25 3.875 5.25C4.35825 5.25 4.75 4.85825 4.75 4.375C4.75 3.89175 4.35825 3.5 3.875 3.5ZM7.125 3.5C6.64175 3.5 6.25 3.89175 6.25 4.375C6.25 4.85825 6.64175 5.25 7.125 5.25C7.60825 5.25 8 4.85825 8 4.375C8 3.89175 7.60825 3.5 7.125 3.5ZM10.375 3.5C9.89175 3.5 9.5 3.89175 9.5 4.375C9.5 4.85825 9.89175 5.25 10.375 5.25C10.8582 5.25 11.25 4.85825 11.25 4.375C11.25 3.89175 10.8582 3.5 10.375 3.5Z" fill="#1D1C1D"/>
</svg>
