<svg width="20" height="20" viewBox="0 0 20 20" fill="none" xmlns="http://www.w3.org/2000/svg">
<path d="M11.75 1.5C12.7165 1.5 13.5 2.2835 13.5 3.25V6.75C13.5 7.16421 13.1642 7.5 12.75 7.5C12.3358 7.5 12 7.16421 12 6.75V3.25C12 3.11193 11.8881 3 11.75 3H3.25C3.11193 3 3 3.11193 3 3.25V17H8.25C8.66421 17 9 17.3358 9 17.75C9 18.1642 8.66421 18.5 8.25 18.5H2.25977C1.84025 18.4999 1.50013 18.1598 1.5 17.7402V3.25C1.5 2.2835 2.2835 1.5 3.25 1.5H11.75ZM16.75 9C17.7165 9 18.5 9.7835 18.5 10.75V17.7402C18.4999 18.1598 18.1598 18.4999 17.7402 18.5H11.2598C10.8402 18.4999 10.5001 18.1598 10.5 17.7402V10.75C10.5 9.7835 11.2835 9 12.25 9H16.75ZM12.25 10.5C12.1119 10.5 12 10.6119 12 10.75V17H17V10.75C17 10.6119 16.8881 10.5 16.75 10.5H12.25ZM15.5 14.4004C15.9142 14.4004 16.25 14.7362 16.25 15.1504C16.2498 15.5644 15.9141 15.9004 15.5 15.9004H13.5C13.0859 15.9004 12.7502 15.5644 12.75 15.1504C12.75 14.7362 13.0858 14.4004 13.5 14.4004H15.5ZM5 13.75C5.41421 13.75 5.75 14.0858 5.75 14.5C5.75 14.9142 5.41421 15.25 5 15.25C4.58579 15.25 4.25 14.9142 4.25 14.5C4.25 14.0858 4.58579 13.75 5 13.75ZM7.5 13.75C7.91421 13.75 8.25 14.0858 8.25 14.5C8.25 14.9142 7.91421 15.25 7.5 15.25C7.08579 15.25 6.75 14.9142 6.75 14.5C6.75 14.0858 7.08579 13.75 7.5 13.75ZM15.5 11.6504C15.9142 11.6504 16.25 11.9862 16.25 12.4004C16.2498 12.8144 15.9141 13.1504 15.5 13.1504H13.5C13.0859 13.1504 12.7502 12.8144 12.75 12.4004C12.75 11.9862 13.0858 11.6504 13.5 11.6504H15.5ZM5 10.75C5.41421 10.75 5.75 11.0858 5.75 11.5C5.75 11.9142 5.41421 12.25 5 12.25C4.58579 12.25 4.25 11.9142 4.25 11.5C4.25 11.0858 4.58579 10.75 5 10.75ZM7.5 10.75C7.91421 10.75 8.25 11.0858 8.25 11.5C8.25 11.9142 7.91421 12.25 7.5 12.25C7.08579 12.25 6.75 11.9142 6.75 11.5C6.75 11.0858 7.08579 10.75 7.5 10.75ZM5 7.75C5.41421 7.75 5.75 8.08579 5.75 8.5C5.75 8.91421 5.41421 9.25 5 9.25C4.58579 9.25 4.25 8.91421 4.25 8.5C4.25 8.08579 4.58579 7.75 5 7.75ZM7.5 7.75C7.91421 7.75 8.25 8.08579 8.25 8.5C8.25 8.91421 7.91421 9.25 7.5 9.25C7.08579 9.25 6.75 8.91421 6.75 8.5C6.75 8.08579 7.08579 7.75 7.5 7.75ZM5 4.75C5.41421 4.75 5.75 5.08579 5.75 5.5C5.75 5.91421 5.41421 6.25 5 6.25C4.58579 6.25 4.25 5.91421 4.25 5.5C4.25 5.08579 4.58579 4.75 5 4.75ZM7.5 4.75C7.91421 4.75 8.25 5.08579 8.25 5.5C8.25 5.91421 7.91421 6.25 7.5 6.25C7.08579 6.25 6.75 5.91421 6.75 5.5C6.75 5.08579 7.08579 4.75 7.5 4.75ZM10 4.75C10.4142 4.75 10.75 5.08579 10.75 5.5C10.75 5.91421 10.4142 6.25 10 6.25C9.58579 6.25 9.25 5.91421 9.25 5.5C9.25 5.08579 9.58579 4.75 10 4.75Z" fill="#1D1C1D"/>
</svg>
