<svg width="20" height="20" viewBox="0 0 20 20" fill="none" xmlns="http://www.w3.org/2000/svg">
<path d="M6.06836 3.54004C7.10072 3.56956 8.02329 3.92769 8.71875 4.54297C9.29393 4.15738 9.98552 3.9209 10.7461 3.9209C11.8803 3.92091 12.8951 4.44992 13.5654 5.2666C13.9233 5.16133 14.3075 5.0957 14.7148 5.0957C17.086 5.09587 18.9998 7.00972 19 9.38086C19 9.5292 18.9912 9.67591 18.9766 9.82031C17.7842 8.40213 15.9978 7.5 14 7.5C10.4102 7.5 7.50002 10.4102 7.5 14C7.5 14.8692 7.67186 15.6982 7.98145 16.4561C7.94025 16.4574 7.89895 16.46 7.85742 16.46C6.48979 16.46 5.26325 15.7184 4.625 14.584C4.58125 14.5862 4.53687 14.5869 4.49219 14.5869C2.56534 14.5869 1.0001 13.0225 1 11.0957C1 10.0301 1.47235 9.07021 2.23438 8.42969C2.15513 8.11375 2.11133 7.77983 2.11133 7.44434C2.11144 5.29057 3.87177 3.54004 6.04785 3.54004H6.06836Z" fill="#1D1C1D"/>
<path d="M9 14C9 11.2386 11.2386 9 14 9C16.7614 9 19 11.2386 19 14C19 16.7614 16.7614 19 14 19C11.2386 19 9 16.7614 9 14ZM13 16.5C13 17.0523 13.4477 17.5 14 17.5C14.5523 17.5 15 17.0523 15 16.5C15 15.9477 14.5523 15.5 14 15.5C13.4477 15.5 13 15.9477 13 16.5ZM13.25 13.75C13.25 14.1642 13.5858 14.5 14 14.5C14.4142 14.5 14.75 14.1642 14.75 13.75L14.75 11.75C14.75 11.3358 14.4142 11 14 11C13.5858 11 13.25 11.3358 13.25 11.75L13.25 13.75Z" fill="#C01343"/>
</svg>
