<svg width="20" height="20" viewBox="0 0 20 20" fill="none" xmlns="http://www.w3.org/2000/svg">
<path d="M16.5 4C17.6046 4 18.5 4.89543 18.5 6V14C18.5 15.1046 17.6046 16 16.5 16H3.5C2.39543 16 1.5 15.1046 1.5 14V6C1.5 4.89543 2.39543 4 3.5 4H16.5ZM7.00098 7C6.06363 7.00016 5.31348 7.66926 5.31348 8.76562C5.31356 9.40913 5.61215 9.95815 6.00684 10.3145C5.78282 10.3717 5.55775 10.45 5.34277 10.5518C4.79384 10.8116 4.28869 11.2374 4.0498 11.8857C3.9378 12.1899 4.02531 12.4823 4.20898 12.6855C4.38714 12.8824 4.65601 12.9999 4.93848 13H9.06348C9.34614 13 9.61572 12.8826 9.79395 12.6855C9.9776 12.4824 10.0651 12.1899 9.95312 11.8857C9.7142 11.2373 9.20823 10.8116 8.65918 10.5518C8.44417 10.45 8.21915 10.3717 7.99512 10.3145C8.38996 9.95816 8.68839 9.40931 8.68848 8.76562C8.68848 7.66913 7.93848 7 7.00098 7ZM13 10.75C12.5858 10.75 12.25 11.0858 12.25 11.5C12.25 11.9142 12.5858 12.25 13 12.25H16C16.4142 12.25 16.75 11.9142 16.75 11.5C16.75 11.0858 16.4142 10.75 16 10.75H13ZM12 7.75C11.5858 7.75 11.25 8.08579 11.25 8.5C11.25 8.91421 11.5858 9.25 12 9.25H16C16.4142 9.25 16.75 8.91421 16.75 8.5C16.75 8.08579 16.4142 7.75 16 7.75H12Z" fill="#1D1C1D"/>
</svg>
