<svg width="20" height="20" viewBox="0 0 20 20" fill="none" xmlns="http://www.w3.org/2000/svg">
<path d="M5.95898 3.35938C7.02006 3.38969 7.96879 3.75727 8.68359 4.38965C9.27463 3.99351 9.98512 3.75102 10.7666 3.75098C11.9321 3.75098 12.9751 4.29457 13.6641 5.13379C14.0319 5.02556 14.427 4.95801 14.8457 4.95801C17.2827 4.95812 19.2498 6.92533 19.25 9.3623C19.25 11.7995 17.2829 13.7675 14.8457 13.7676C14.7217 13.7676 14.6036 13.7612 14.4932 13.752C13.8651 14.5547 12.8818 15.0723 11.7783 15.0723C11.4917 15.0723 11.218 15.0375 10.958 14.9746C10.2793 15.9835 9.11844 16.6386 7.79785 16.6387C6.39217 16.6387 5.13154 15.876 4.47559 14.71C4.43054 14.7123 4.38486 14.7139 4.33887 14.7139C2.35853 14.7139 0.750146 13.1053 0.75 11.125C0.75 10.0298 1.23536 9.04308 2.01855 8.38477C1.93712 8.06008 1.8916 7.71685 1.8916 7.37207C1.89174 5.15854 3.70104 3.35944 5.9375 3.35938H5.95898Z" fill="#1D1C1D"/>
</svg>
