<svg width="20" height="20" viewBox="0 0 20 20" fill="none" xmlns="http://www.w3.org/2000/svg">
<path d="M6.06836 3.54004C7.10072 3.56956 8.02329 3.92769 8.71875 4.54297C9.29393 4.15738 9.98552 3.9209 10.7461 3.9209C11.8803 3.92091 12.8951 4.44992 13.5654 5.2666C13.9233 5.16133 14.3075 5.0957 14.7148 5.0957C17.086 5.09587 18.9998 7.00972 19 9.38086C19 9.5292 18.9912 9.67591 18.9766 9.82031C17.7842 8.40213 15.9978 7.5 14 7.5C10.4102 7.5 7.50002 10.4102 7.5 14C7.5 14.8692 7.67186 15.6982 7.98145 16.4561C7.94025 16.4574 7.89895 16.46 7.85742 16.46C6.48979 16.46 5.26325 15.7184 4.625 14.584C4.58125 14.5862 4.53687 14.5869 4.49219 14.5869C2.56534 14.5869 1.0001 13.0225 1 11.0957C1 10.0301 1.47235 9.07021 2.23438 8.42969C2.15513 8.11375 2.11133 7.77983 2.11133 7.44434C2.11144 5.29057 3.87177 3.54004 6.04785 3.54004H6.06836Z" fill="#1D1C1D"/>
<path d="M9 14C9 11.2386 11.2386 9 14 9C16.7614 9 19 11.2386 19 14C19 16.7614 16.7614 19 14 19C11.2386 19 9 16.7614 9 14ZM11.9697 13.584C11.6769 13.8769 11.6769 14.3517 11.9697 14.6445L13.1133 15.7881C13.4062 16.0805 13.8811 16.0808 14.1738 15.7881L16.4307 13.5303C16.7236 13.2374 16.7236 12.7626 16.4307 12.4697C16.1378 12.1769 15.663 12.1769 15.3701 12.4697L13.6426 14.1963L13.0303 13.584C12.7374 13.2911 12.2626 13.2911 11.9697 13.584Z" fill="#007A5A"/>
</svg>
