<svg width="20" height="20" viewBox="0 0 20 20" fill="none" xmlns="http://www.w3.org/2000/svg">
<path d="M6.07812 3.53036C7.10654 3.55974 8.0263 3.91595 8.72266 4.52645C9.29723 4.14456 9.98628 3.91026 10.7441 3.91024C11.877 3.91024 12.8898 4.43737 13.5625 5.25009C13.9177 5.14663 14.2989 5.08212 14.7031 5.08212C17.0807 5.0822 18.9998 7.00144 19 9.37899C19 9.52806 18.9913 9.6753 18.9766 9.8204C18.5103 9.26588 17.9533 8.79056 17.3281 8.41708C16.9371 7.34499 15.9136 6.58218 14.7031 6.58212C14.3236 6.58212 13.95 6.67652 13.5732 6.83798C13.2229 6.98811 12.816 6.85151 12.627 6.5206C12.2453 5.85281 11.535 5.41024 10.7441 5.41024C10.1412 5.41027 9.59817 5.66377 9.18457 6.07724C9.03083 6.23097 8.81746 6.31042 8.60059 6.29501C8.38383 6.27952 8.1841 6.17101 8.05371 5.99716C7.63405 5.43775 6.94106 5.05865 6.0459 5.03036C4.68703 5.03633 3.60845 6.12824 3.6084 7.44735C3.6084 7.78808 3.68206 8.13387 3.80371 8.42587C3.94872 8.77391 3.8129 9.17494 3.48633 9.36337C2.89151 9.70655 2.50018 10.3481 2.5 11.089C2.5 12.1948 3.39912 13.0946 4.50488 13.0948C4.62226 13.0948 4.7511 13.0746 4.95215 13.0411L5.08496 13.0313C5.39255 13.0351 5.67257 13.2287 5.78027 13.5265C6.05212 14.2792 6.74261 14.8334 7.56836 14.9415C7.64509 15.4705 7.78631 15.9784 7.98242 16.4581C7.94251 16.4593 7.90253 16.463 7.8623 16.463C6.49422 16.463 5.26818 15.7226 4.62598 14.5899C4.58613 14.5918 4.54548 14.5948 4.50488 14.5948C2.5707 14.5946 1 13.0232 1 11.089C1.00015 10.0244 1.47072 9.06586 2.22949 8.42294C2.15197 8.10975 2.1084 7.77947 2.1084 7.44735C2.10845 5.28664 3.87402 3.53061 6.05664 3.53036C6.06365 3.53036 6.07112 3.53016 6.07812 3.53036Z" fill="#1D1C1D"/>
<path d="M9 14C9 11.2386 11.2386 9 14 9C16.7614 9 19 11.2386 19 14C19 16.7614 16.7614 19 14 19C11.2386 19 9 16.7614 9 14ZM11.9697 13.584C11.6769 13.8769 11.6769 14.3517 11.9697 14.6445L13.1133 15.7881C13.4062 16.0805 13.8811 16.0808 14.1738 15.7881L16.4307 13.5303C16.7236 13.2374 16.7236 12.7626 16.4307 12.4697C16.1378 12.1769 15.663 12.1769 15.3701 12.4697L13.6426 14.1963L13.0303 13.584C12.7374 13.2911 12.2626 13.2911 11.9697 13.584Z" fill="#007A5A"/>
</svg>
