<svg width="20" height="20" viewBox="0 0 20 20" fill="none" xmlns="http://www.w3.org/2000/svg">
<path d="M15.75 4C17.2688 4 18.5 5.23122 18.5 6.75V13.25C18.5 14.7688 17.2688 16 15.75 16H4.25C2.73122 16 1.5 14.7688 1.5 13.25V6.75C1.5 5.23122 2.73122 4 4.25 4H15.75ZM4.25 5.5C3.55964 5.5 3 6.05964 3 6.75V13.25C3 13.9404 3.55964 14.5 4.25 14.5H15.75C16.4404 14.5 17 13.9404 17 13.25V6.75C17 6.05964 16.4404 5.5 15.75 5.5H4.25ZM7.00098 7C7.93848 7 8.68848 7.66913 8.68848 8.76562C8.68839 9.40931 8.38996 9.95816 7.99512 10.3145C8.21915 10.3717 8.44417 10.45 8.65918 10.5518C9.20823 10.8116 9.7142 11.2373 9.95312 11.8857C10.0651 12.1899 9.9776 12.4824 9.79395 12.6855C9.61572 12.8826 9.34614 13 9.06348 13H4.93848C4.65601 12.9999 4.38714 12.8824 4.20898 12.6855C4.02531 12.4823 3.9378 12.1899 4.0498 11.8857C4.28869 11.2374 4.79384 10.8116 5.34277 10.5518C5.55775 10.45 5.78282 10.3717 6.00684 10.3145C5.61215 9.95815 5.31356 9.40913 5.31348 8.76562C5.31348 7.66926 6.06363 7.00016 7.00098 7ZM15 10.75C15.4142 10.75 15.75 11.0858 15.75 11.5C15.75 11.9142 15.4142 12.25 15 12.25H12C11.5858 12.25 11.25 11.9142 11.25 11.5C11.25 11.0858 11.5858 10.75 12 10.75H15ZM15 7.75C15.4142 7.75 15.75 8.08579 15.75 8.5C15.75 8.91421 15.4142 9.25 15 9.25H11C10.5858 9.25 10.25 8.91421 10.25 8.5C10.25 8.08579 10.5858 7.75 11 7.75H15Z" fill="#1D1C1D"/>
</svg>
