<svg width="20" height="20" viewBox="0 0 20 20" fill="none" xmlns="http://www.w3.org/2000/svg">
<path d="M6.07812 3.53036C7.10654 3.55974 8.0263 3.91595 8.72266 4.52645C9.29723 4.14456 9.98628 3.91026 10.7441 3.91024C11.877 3.91024 12.8898 4.43737 13.5625 5.25009C13.9177 5.14663 14.2989 5.08212 14.7031 5.08212C17.0807 5.0822 18.9998 7.00144 19 9.37899C19 9.52806 18.9913 9.6753 18.9766 9.8204C18.5103 9.26588 17.9533 8.79056 17.3281 8.41708C16.9371 7.34499 15.9136 6.58218 14.7031 6.58212C14.3236 6.58212 13.95 6.67652 13.5732 6.83798C13.2229 6.98811 12.816 6.85151 12.627 6.5206C12.2453 5.85281 11.535 5.41024 10.7441 5.41024C10.1412 5.41027 9.59817 5.66377 9.18457 6.07724C9.03083 6.23097 8.81746 6.31042 8.60059 6.29501C8.38383 6.27952 8.1841 6.17101 8.05371 5.99716C7.63405 5.43775 6.94106 5.05865 6.0459 5.03036C4.68703 5.03633 3.60845 6.12824 3.6084 7.44735C3.6084 7.78808 3.68206 8.13387 3.80371 8.42587C3.94872 8.77391 3.8129 9.17494 3.48633 9.36337C2.89151 9.70655 2.50018 10.3481 2.5 11.089C2.5 12.1948 3.39912 13.0946 4.50488 13.0948C4.62226 13.0948 4.7511 13.0746 4.95215 13.0411L5.08496 13.0313C5.39255 13.0351 5.67257 13.2287 5.78027 13.5265C6.05212 14.2792 6.74261 14.8334 7.56836 14.9415C7.64509 15.4705 7.78631 15.9784 7.98242 16.4581C7.94251 16.4593 7.90253 16.463 7.8623 16.463C6.49422 16.463 5.26818 15.7226 4.62598 14.5899C4.58613 14.5918 4.54548 14.5948 4.50488 14.5948C2.5707 14.5946 1 13.0232 1 11.089C1.00015 10.0244 1.47072 9.06586 2.22949 8.42294C2.15197 8.10975 2.1084 7.77947 2.1084 7.44735C2.10845 5.28664 3.87402 3.53061 6.05664 3.53036C6.06365 3.53036 6.07112 3.53016 6.07812 3.53036Z" fill="#1D1C1D"/>
<path d="M16.166 14.8673C16.3265 14.4857 16.7657 14.3067 17.1475 14.4669C17.5292 14.6273 17.7091 15.0665 17.5488 15.4484C17.4303 15.7307 17.2781 16.0001 17.0947 16.2501C16.5731 16.9614 15.8275 17.4772 14.9775 17.713C14.1276 17.9487 13.2226 17.8909 12.4092 17.5499C12.081 17.4123 11.776 17.2299 11.5 17.0128V17.1056C11.4997 17.5195 11.164 17.8555 10.75 17.8556C10.336 17.8555 10.0003 17.5195 10 17.1056V15.2609C10 14.8467 10.3358 14.5109 10.75 14.5109H12.5947C13.0089 14.5109 13.3447 14.8467 13.3447 15.2609C13.3444 15.6472 13.0523 15.9663 12.6768 16.007C12.7765 16.067 12.8809 16.1217 12.9893 16.1671C13.4918 16.3777 14.0511 16.4132 14.5762 16.2677C15.1015 16.122 15.5633 15.803 15.8857 15.3634C15.999 15.2089 16.0928 15.0416 16.166 14.8673ZM17.1055 10.0001C17.5195 10.0004 17.8555 10.3361 17.8555 10.7501V12.5948C17.8555 13.0089 17.5195 13.3446 17.1055 13.3448H15.2598C14.8457 13.3447 14.5098 13.009 14.5098 12.5948C14.5099 12.2082 14.8028 11.8893 15.1787 11.8487C15.0788 11.7886 14.9747 11.7341 14.8662 11.6886C14.3636 11.4779 13.8045 11.4425 13.2793 11.588C12.7539 11.7337 12.2921 12.0526 11.9697 12.4923C11.8735 12.6236 11.7911 12.7633 11.7236 12.9093C11.5499 13.2853 11.1045 13.4492 10.7285 13.2755C10.3526 13.1018 10.1886 12.6564 10.3623 12.2804C10.4715 12.044 10.605 11.818 10.7607 11.6056C11.2824 10.8942 12.0278 10.3784 12.8779 10.1427C13.728 9.90696 14.6328 9.96465 15.4463 10.3058C15.7747 10.4435 16.0794 10.6256 16.3555 10.8429V10.7501C16.3555 10.3359 16.6913 10.0001 17.1055 10.0001Z" fill="#1D1C1D"/>
</svg>
