<svg width="20" height="20" viewBox="0 0 20 20" fill="none" xmlns="http://www.w3.org/2000/svg">
<path d="M6.06836 3.54004C7.10072 3.56956 8.02329 3.92769 8.71875 4.54297C9.29393 4.15738 9.98552 3.9209 10.7461 3.9209C11.8803 3.92091 12.8951 4.44992 13.5654 5.2666C13.9233 5.16133 14.3075 5.0957 14.7148 5.0957C17.086 5.09587 18.9998 7.00972 19 9.38086C19 9.5292 18.9912 9.67591 18.9766 9.82031C17.7842 8.40213 15.9978 7.5 14 7.5C10.4102 7.5 7.50002 10.4102 7.5 14C7.5 14.8692 7.67186 15.6982 7.98145 16.4561C7.94025 16.4574 7.89895 16.46 7.85742 16.46C6.48979 16.46 5.26325 15.7184 4.625 14.584C4.58125 14.5862 4.53687 14.5869 4.49219 14.5869C2.56534 14.5869 1.0001 13.0225 1 11.0957C1 10.0301 1.47235 9.07021 2.23438 8.42969C2.15513 8.11375 2.11133 7.77983 2.11133 7.44434C2.11144 5.29057 3.87177 3.54004 6.04785 3.54004H6.06836Z" fill="#1D1C1D"/>
<path d="M16.166 14.8673C16.3265 14.4857 16.7657 14.3067 17.1475 14.4669C17.5292 14.6273 17.7091 15.0665 17.5488 15.4484C17.4303 15.7307 17.2781 16.0001 17.0947 16.2501C16.5731 16.9614 15.8275 17.4772 14.9775 17.713C14.1276 17.9487 13.2226 17.8909 12.4092 17.5499C12.081 17.4123 11.776 17.2299 11.5 17.0128V17.1056C11.4997 17.5195 11.164 17.8555 10.75 17.8556C10.336 17.8555 10.0003 17.5195 10 17.1056V15.2609C10 14.8467 10.3358 14.5109 10.75 14.5109H12.5947C13.0089 14.5109 13.3447 14.8467 13.3447 15.2609C13.3444 15.6472 13.0523 15.9663 12.6768 16.007C12.7765 16.067 12.8809 16.1217 12.9893 16.1671C13.4918 16.3777 14.0511 16.4132 14.5762 16.2677C15.1015 16.122 15.5633 15.803 15.8857 15.3634C15.999 15.2089 16.0928 15.0416 16.166 14.8673ZM17.1055 10.0001C17.5195 10.0004 17.8555 10.3361 17.8555 10.7501V12.5948C17.8555 13.0089 17.5195 13.3446 17.1055 13.3448H15.2598C14.8457 13.3447 14.5098 13.009 14.5098 12.5948C14.5099 12.2082 14.8028 11.8893 15.1787 11.8487C15.0788 11.7886 14.9747 11.7341 14.8662 11.6886C14.3636 11.4779 13.8045 11.4425 13.2793 11.588C12.7539 11.7337 12.2921 12.0526 11.9697 12.4923C11.8735 12.6236 11.7911 12.7633 11.7236 12.9093C11.5499 13.2853 11.1045 13.4492 10.7285 13.2755C10.3526 13.1018 10.1886 12.6564 10.3623 12.2804C10.4715 12.044 10.605 11.818 10.7607 11.6056C11.2824 10.8942 12.0278 10.3784 12.8779 10.1427C13.728 9.90696 14.6328 9.96465 15.4463 10.3058C15.7747 10.4435 16.0794 10.6256 16.3555 10.8429V10.7501C16.3555 10.3359 16.6913 10.0001 17.1055 10.0001Z" fill="#1D1C1D"/>
</svg>
