<svg width="20" height="20" viewBox="0 0 20 20" fill="none" xmlns="http://www.w3.org/2000/svg">
<path d="M16.5 6.75C17.6046 6.75 18.5 7.64543 18.5 8.75V15.5L18.4893 15.7041C18.3938 16.6457 17.6457 17.3938 16.7041 17.4893L16.5 17.5H3.5L3.2959 17.4893C2.28722 17.387 1.5 16.5357 1.5 15.5V8.75C1.5 7.64543 2.39543 6.75 3.5 6.75H16.5ZM3.5 8.25C3.22386 8.25 3 8.47386 3 8.75V15.5C3 15.7761 3.22386 16 3.5 16H16.5C16.7761 16 17 15.7761 17 15.5V8.75C17 8.47386 16.7761 8.25 16.5 8.25H3.5ZM12 2.5C12.9665 2.5 13.75 3.2835 13.75 4.25V5.25H12.25V4.25C12.25 4.11193 12.1381 4 12 4H8C7.86193 4 7.75 4.11193 7.75 4.25V5.25H6.25V4.25C6.25 3.2835 7.0335 2.5 8 2.5H12Z" fill="#1D1C1D"/>
</svg>
