<svg width="20" height="20" viewBox="0 0 20 20" fill="none" xmlns="http://www.w3.org/2000/svg">
<path d="M5.95898 3.35947C7.02024 3.38979 7.96777 3.75911 8.68262 4.39169C9.27396 3.99494 9.98444 3.75111 10.7666 3.75107C11.932 3.75107 12.9731 4.29588 13.6621 5.13486C14.0306 5.02625 14.4261 4.9581 14.8457 4.9581C17.2827 4.95821 19.2497 6.92546 19.25 9.36239C19.25 11.7996 17.2829 13.7676 14.8457 13.7677C14.7212 13.7677 14.6031 13.7594 14.4922 13.7501C13.8642 14.5533 12.8822 15.0724 11.7783 15.0724C11.4909 15.0724 11.2167 15.0359 10.9561 14.9727C10.2774 15.9819 9.11863 16.6386 7.79785 16.6388C6.39157 16.6388 5.13131 15.875 4.47559 14.7081C4.43051 14.7104 4.3849 14.714 4.33887 14.714C2.35852 14.714 0.750146 13.1054 0.75 11.1251C0.750027 10.0299 1.23631 9.04412 2.01953 8.38583C1.93793 8.06083 1.8916 7.71731 1.8916 7.37216C1.89179 5.15867 3.70107 3.35953 5.9375 3.35947C5.94462 3.35947 5.95187 3.35926 5.95898 3.35947ZM5.92578 4.85947C4.51356 4.86577 3.39179 6.00059 3.3916 7.37216C3.3916 7.72625 3.4693 8.08529 3.5957 8.38876C3.74067 8.73668 3.60465 9.13872 3.27832 9.32724C2.65842 9.68487 2.25003 10.3533 2.25 11.1251C2.25015 12.277 3.18695 13.214 4.33887 13.214C4.46197 13.2139 4.596 13.1927 4.80273 13.1583C5.15981 13.0988 5.50885 13.3032 5.63184 13.6436C5.94793 14.5188 6.80633 15.1388 7.79785 15.1388C8.76766 15.1386 9.57325 14.5696 9.91309 13.7686L9.94629 13.7003C10.0306 13.5468 10.1664 13.4266 10.3311 13.3624C10.5195 13.289 10.73 13.2953 10.9141 13.379C11.1869 13.503 11.4732 13.5724 11.7783 13.5724C12.5099 13.5724 13.1453 13.1722 13.4736 12.586L13.5371 12.4903C13.7005 12.2812 13.965 12.1718 14.2334 12.2101C14.4658 12.2432 14.6451 12.2677 14.8457 12.2677C16.4544 12.2676 17.75 10.9711 17.75 9.36239C17.7497 7.75389 16.4543 6.45821 14.8457 6.4581C14.4509 6.4581 14.063 6.55657 13.6729 6.72372C13.3225 6.87386 12.9147 6.73725 12.7256 6.40634C12.3285 5.71185 11.59 5.25107 10.7666 5.25107C10.1387 5.25112 9.57347 5.51551 9.14355 5.9454C8.98995 6.09888 8.77714 6.17842 8.56055 6.16318C8.34368 6.14776 8.14412 6.03827 8.01367 5.86435C7.57666 5.2817 6.85494 4.88856 5.92578 4.85947Z" fill="#1D1C1D"/>
</svg>
