<svg width="20" height="20" viewBox="0 0 20 20" fill="none" xmlns="http://www.w3.org/2000/svg">
<path d="M18.2504 7.7998C18.5751 7.79996 18.8629 8.0095 18.9633 8.31836C19.0636 8.6272 18.9534 8.96526 18.6908 9.15625L14.0326 12.54L15.8129 18.0166C15.9131 18.3254 15.803 18.6645 15.5404 18.8555C15.2777 19.0463 14.9214 19.0461 14.6586 18.8555L10.0004 15.4697L5.34219 18.8555C5.07941 19.0461 4.72308 19.0463 4.46036 18.8555C4.1976 18.6645 4.08762 18.3255 4.1879 18.0166L5.96719 12.54L1.30997 9.15625C1.04715 8.9653 0.937194 8.62733 1.0375 8.31836C1.13799 8.0095 1.42558 7.7998 1.7504 7.7998H18.2504ZM7.29043 11.6475C7.55294 11.8384 7.66309 12.1775 7.5629 12.4863L6.32754 16.2842L9.55997 13.9375L9.6625 13.874C9.91016 13.7491 10.2111 13.7706 10.4408 13.9375L13.6723 16.2842L12.4379 12.4863C12.3376 12.1774 12.4477 11.8385 12.7104 11.6475L15.9428 9.2998H4.05801L7.29043 11.6475ZM10.0004 1C11.5193 1.0002 12.7504 2.23216 12.7504 3.75098C12.7503 5.2697 11.5192 6.50175 10.0004 6.50195C8.4814 6.50195 7.2505 5.26982 7.2504 3.75098C7.2504 2.23204 8.48134 1 10.0004 1ZM10.0004 2.5C9.31031 2.5 8.7504 3.05992 8.7504 3.75098C8.7505 4.44194 9.31038 5.00195 10.0004 5.00195C10.6902 5.00175 11.2503 4.44182 11.2504 3.75098C11.2504 3.06004 10.6903 2.5002 10.0004 2.5Z" fill="#1D1C1D"/>
</svg>
