<svg width="20" height="20" viewBox="0 0 20 20" fill="none" xmlns="http://www.w3.org/2000/svg">
<path d="M18.4473 8.00586C18.9317 8.0059 19.1331 8.62546 18.7413 8.91016L14.1085 12.2764C13.9333 12.4037 13.8599 12.629 13.9268 12.835L15.6964 18.2812C15.846 18.7419 15.3187 19.1245 14.9268 18.8398L10.294 15.4746C10.1188 15.3473 9.88138 15.3473 9.70613 15.4746L5.07332 18.8398C4.68148 19.1245 4.15417 18.7419 4.30379 18.2812L6.07332 12.835C6.14024 12.629 6.06682 12.4037 5.89168 12.2764L1.25887 8.91016C0.867012 8.62546 1.06845 8.00586 1.55281 8.00586H18.4473ZM10.0001 1C11.5188 1.00002 12.75 2.23166 12.7501 3.75098C12.7501 5.27034 11.5188 6.50194 10.0001 6.50195C8.4813 6.50195 7.25008 5.27035 7.25008 3.75098C7.25013 2.23165 8.48133 1 10.0001 1Z" fill="#1D1C1D"/>
</svg>
