<svg width="20" height="20" viewBox="0 0 20 20" fill="none" xmlns="http://www.w3.org/2000/svg">
<path d="M15.3896 16C15.705 16 15.9424 16.2884 15.8809 16.5977L15.7412 17.2939C15.601 17.995 14.9854 18.4999 14.2705 18.5H5.72949C5.01456 18.4999 4.399 17.995 4.25879 17.2939L4.11914 16.5977C4.0576 16.2884 4.29499 16 4.61035 16H15.3896ZM10 1.5C10.9665 1.5 11.75 2.2835 11.75 3.25C11.75 3.9912 11.2884 4.62282 10.6377 4.87793C10.5283 6.73257 11.4604 7.96044 12.5752 8.44824C13.8052 8.98637 15.3329 8.66971 16.2207 7.16309C15.7845 6.84483 15.5 6.33128 15.5 5.75C15.5 4.7835 16.2835 4 17.25 4C18.2165 4 19 4.7835 19 5.75C19 6.7165 18.2165 7.5 17.25 7.5C17.2373 7.5 17.2246 7.49832 17.2119 7.49805L15.9912 14.0908C15.9473 14.3278 15.741 14.5 15.5 14.5H4.5C4.25897 14.5 4.05268 14.3278 4.00879 14.0908L2.78711 7.49805C2.77476 7.4983 2.76241 7.5 2.75 7.5C1.7835 7.5 1 6.7165 1 5.75C1 4.7835 1.7835 4 2.75 4C3.7165 4 4.5 4.7835 4.5 5.75C4.5 6.33458 4.21188 6.85016 3.77148 7.16797C4.21326 7.97749 4.80458 8.44746 5.41504 8.66113C6.06485 8.88857 6.77521 8.84005 7.41699 8.5459C8.53683 8.03259 9.47126 6.74889 9.36035 4.87695C8.71068 4.62133 8.25 3.99043 8.25 3.25C8.25 2.2835 9.0335 1.5 10 1.5Z" fill="#1D1C1D"/>
</svg>
