<svg width="20" height="20" viewBox="0 0 20 20" fill="none" xmlns="http://www.w3.org/2000/svg">
<path d="M9.99996 1.5C10.9665 1.5 11.75 2.2835 11.75 3.25C11.75 3.84636 11.4506 4.37156 10.9951 4.6875C11.064 4.93595 11.133 5.18914 11.2002 5.43555C11.3637 6.03529 11.5357 6.62448 11.7548 7.14844C12.2062 8.22762 12.7305 8.74998 13.5 8.75C14.5784 8.75 15.1412 8.43491 15.4902 8.1123C15.6774 7.93916 15.8267 7.74109 15.9658 7.52832C16.0366 7.42 16.1003 7.31629 16.1699 7.20312C16.1806 7.18577 16.192 7.16837 16.2031 7.15039C15.7768 6.83122 15.5 6.32349 15.5 5.75C15.5 4.7835 16.2835 4 17.25 4C18.2165 4 19 4.7835 19 5.75C19 6.56803 18.4381 7.25259 17.6796 7.44434L15.9658 16.6611C15.7675 17.7268 14.8368 18.5 13.7529 18.5H6.24703C5.16312 18.5 4.23239 17.7268 4.03414 16.6611L2.31929 7.44434C1.56132 7.25226 0.999958 6.56769 0.999958 5.75C0.999958 4.7835 1.78346 4 2.74996 4C3.71646 4 4.49996 4.7835 4.49996 5.75C4.49996 6.32377 4.22248 6.83125 3.79586 7.15039C3.80707 7.16852 3.81928 7.18563 3.83004 7.20312C3.8996 7.31628 3.96336 7.42002 4.03414 7.52832C4.1732 7.74108 4.32255 7.93916 4.50972 8.1123C4.85868 8.43491 5.42157 8.74999 6.49996 8.75C7.26947 8.75 7.79369 8.22764 8.24508 7.14844C8.46419 6.62447 8.63619 6.0353 8.79976 5.43555C8.86694 5.18923 8.93498 4.93587 9.00386 4.6875C8.5487 4.37151 8.24996 3.84608 8.24996 3.25C8.24996 2.2835 9.03346 1.5 9.99996 1.5ZM9.99996 6.68652C9.89206 7.03519 9.77125 7.38835 9.62984 7.72656C9.12293 8.93875 8.23035 10.25 6.49996 10.25C5.57038 10.25 4.84824 10.0629 4.2773 9.76562L5.50972 16.3867C5.57581 16.7419 5.88574 17 6.24703 17H13.7529C14.1142 17 14.4241 16.7419 14.4902 16.3867L15.7216 9.76562C15.1508 10.0627 14.4291 10.25 13.5 10.25C11.7696 10.25 10.877 8.93874 10.3701 7.72656C10.2287 7.38836 10.1079 7.03519 9.99996 6.68652ZM12.25 13.5C12.6642 13.5 13 13.8358 13 14.25C13 14.6642 12.6642 15 12.25 15H7.74996C7.33574 15 6.99996 14.6642 6.99996 14.25C6.99996 13.8358 7.33574 13.5 7.74996 13.5H12.25Z" fill="#1D1C1D"/>
</svg>
