<svg width="20" height="20" viewBox="0 0 20 20" fill="none" xmlns="http://www.w3.org/2000/svg">
<path d="M14.75 1.5C16.8211 1.5 18.5 3.17893 18.5 5.25V14.75C18.5 16.8211 16.8211 18.5 14.75 18.5H5.25C3.17893 18.5 1.5 16.8211 1.5 14.75V5.25C1.5 3.17893 3.17893 1.5 5.25 1.5H14.75ZM5.25 3C4.00736 3 3 4.00736 3 5.25V14.75C3 15.5612 3.43047 16.2701 4.07422 16.666C4.19306 16.1675 4.45616 15.7286 4.82324 15.4062C4.7704 15.1862 4.74023 14.9534 4.74023 14.7197C4.74026 13.2194 5.91449 12 7.36523 12H7.37891C8.06695 12.0206 8.68193 12.2699 9.14551 12.6982C9.5289 12.4297 9.99011 12.2657 10.4971 12.2656C11.2532 12.2656 11.9301 12.6342 12.377 13.2031C12.6154 13.1298 12.8711 13.084 13.1426 13.084C14.7234 13.084 15.9998 14.4167 16 16.0684C16 16.2691 15.9798 16.4649 15.9434 16.6543C16.5771 16.2563 17 15.5536 17 14.75V5.25C17 4.00736 15.9926 3 14.75 3H5.25ZM13.5 8C13.9142 8 14.25 8.33579 14.25 8.75C14.25 9.16421 13.9142 9.5 13.5 9.5H5.5C5.08579 9.5 4.75 9.16421 4.75 8.75C4.75 8.33579 5.08579 8 5.5 8H13.5ZM8.5 5C8.91421 5 9.25 5.33579 9.25 5.75C9.25 6.16421 8.91421 6.5 8.5 6.5H5.5C5.08579 6.5 4.75 6.16421 4.75 5.75C4.75 5.33579 5.08579 5 5.5 5H8.5Z" fill="#1D1C1D"/>
</svg>
