<svg width="20" height="20" viewBox="0 0 20 20" fill="none" xmlns="http://www.w3.org/2000/svg">
<path d="M14.75 1.5C16.8211 1.5 18.5 3.17893 18.5 5.25V14.75C18.5 16.8211 16.8211 18.5 14.75 18.5H5.25C3.17893 18.5 1.5 16.8211 1.5 14.75V5.25C1.5 3.17893 3.17893 1.5 5.25 1.5H14.75ZM7.36523 11C5.91453 11.0001 4.74124 12.2195 4.74121 13.7197C4.74121 13.9534 4.77041 14.1862 4.82324 14.4063C4.31532 14.8524 4.00007 15.5206 4 16.2627C4 16.3906 4.012 16.516 4.03027 16.6387C4.3819 16.8662 4.79999 17 5.25 17H14.75C14.9739 17 15.1895 16.9652 15.3936 16.9043C15.7728 16.3986 16 15.7625 16 15.0684C15.9998 13.4167 14.7234 12.084 13.1426 12.084C12.8712 12.084 12.6154 12.1298 12.377 12.2031C11.9301 11.6343 11.2532 11.2656 10.4971 11.2656C9.99019 11.2657 9.52885 11.4297 9.14551 11.6982C8.68192 11.2699 8.06694 11.0206 7.37891 11H7.36523ZM5 7.25C4.58579 7.25 4.25 7.58579 4.25 8C4.25 8.41421 4.58579 8.75 5 8.75H13C13.4142 8.75 13.75 8.41421 13.75 8C13.75 7.58579 13.4142 7.25 13 7.25H5ZM5 4.25C4.58579 4.25 4.25 4.58579 4.25 5C4.25 5.41421 4.58579 5.75 5 5.75H8C8.41421 5.75 8.75 5.41421 8.75 5C8.75 4.58579 8.41421 4.25 8 4.25H5Z" fill="#1D1C1D"/>
</svg>
