<svg width="20" height="20" viewBox="0 0 20 20" fill="none" xmlns="http://www.w3.org/2000/svg">
<path d="M14.75 2.25C16.8211 2.25 18.5 3.92893 18.5 6V14.75C18.5 16.8211 16.8211 18.5 14.75 18.5H6.5C4.42893 18.5 2.75 16.8211 2.75 14.75V11C2.75 10.5858 3.08579 10.25 3.5 10.25C3.91421 10.25 4.25 10.5858 4.25 11V14.75C4.25 15.9926 5.25736 17 6.5 17H14.75C15.9926 17 17 15.9926 17 14.75V6C17 4.75736 15.9926 3.75 14.75 3.75H13.2295C12.8154 3.74981 12.4795 3.4141 12.4795 3C12.4795 2.5859 12.8154 2.25019 13.2295 2.25H14.75ZM15.25 13.1807C15.6642 13.1807 16 13.5165 16 13.9307C16 14.3449 15.6642 14.6807 15.25 14.6807H11.75C11.3358 14.6807 11 14.3449 11 13.9307C11 13.5165 11.3358 13.1807 11.75 13.1807H15.25ZM8.80859 10.9609C9.10615 10.6728 9.58098 10.681 9.86914 10.9785C10.1573 11.2761 10.1501 11.7509 9.85254 12.0391L7.6416 14.1797C7.35078 14.4613 6.88848 14.4613 6.59766 14.1797L5.47852 13.0957C5.18104 12.8076 5.173 12.3327 5.46094 12.0352C5.74898 11.7377 6.22391 11.7298 6.52148 12.0176L7.11914 12.5967L8.80859 10.9609ZM15.25 9.67188C15.6642 9.67188 16 10.0077 16 10.4219C15.9997 10.8359 15.6641 11.1719 15.25 11.1719L11.75 11.1709C11.3358 11.1709 11 10.8351 11 10.4209C11.0003 10.0069 11.3359 9.6709 11.75 9.6709L15.25 9.67188ZM3.95605 1.5C4.55831 1.51743 5.09723 1.72909 5.50293 2.09277C5.83843 1.86492 6.24192 1.72559 6.68555 1.72559C7.34702 1.72569 7.93911 2.03789 8.33008 2.52051C8.53872 2.45834 8.76251 2.41896 9 2.41895C10.3833 2.41895 11.4999 3.55065 11.5 4.95215C11.5 6.35371 10.3833 7.48535 9 7.48535C8.92984 7.48535 8.86332 7.48188 8.80078 7.47656C8.44443 7.93815 7.88595 8.23521 7.25977 8.23535C7.09721 8.23535 6.94143 8.21579 6.79395 8.17969C6.40871 8.75984 5.74955 9.1367 5 9.13672C4.20218 9.13672 3.48656 8.69789 3.11426 8.02734C3.08884 8.02867 3.06306 8.02929 3.03711 8.0293C1.91317 8.0293 1.00015 7.10456 1 5.96582C1 5.33604 1.27523 4.76822 1.71973 4.38965C1.67355 4.20302 1.64844 4.00578 1.64844 3.80762C1.64847 2.53465 2.67494 1.5 3.94434 1.5H3.95605ZM15.1328 6.16211C15.5469 6.16211 15.8826 6.49809 15.8828 6.91211C15.8828 7.32632 15.547 7.66211 15.1328 7.66211H13.5C13.0858 7.66211 12.75 7.32632 12.75 6.91211C12.7502 6.49809 13.0859 6.16211 13.5 6.16211H15.1328Z" fill="#1D1C1D"/>
</svg>
