<svg width="20" height="20" viewBox="0 0 20 20" fill="none" xmlns="http://www.w3.org/2000/svg">
<path d="M15.0254 2.25C16.9442 2.25 18.5 3.85526 18.5 5.83496V14.915C18.5 16.8947 16.9442 18.5 15.0254 18.5H6.22461C4.30583 18.5 2.75 16.8947 2.75 14.915V9.8584C3.37557 10.3482 4.15956 10.6367 5 10.6367C5.92085 10.6367 6.76444 10.2958 7.40918 9.73047C8.17603 9.69745 8.87683 9.41365 9.43262 8.96094C11.4548 8.74339 13 7.01846 13 4.95215C13 3.91706 12.6119 2.96752 11.9707 2.25H15.0254ZM11.75 13.1807C11.3359 13.1807 11.0002 13.5166 11 13.9307C11.0002 14.3447 11.3359 14.6807 11.75 14.6807H15.25C15.664 14.6806 15.9998 14.3446 16 13.9307C15.9998 13.5167 15.664 13.1808 15.25 13.1807H11.75ZM9.86914 10.9785C9.58107 10.6812 9.10613 10.6731 8.80859 10.9609L7.11914 12.5967L6.52148 12.0176C6.22401 11.73 5.74898 11.7381 5.46094 12.0352C5.17325 12.3327 5.18121 12.8077 5.47852 13.0957L6.59766 14.1797C6.88843 14.4611 7.35083 14.4611 7.6416 14.1797L9.85254 12.0391C10.1497 11.7509 10.157 11.276 9.86914 10.9785ZM11.75 9.6709C11.3361 9.6709 11.0005 10.0071 11 10.4209C11.0002 10.8349 11.3359 11.1709 11.75 11.1709L15.25 11.1719C15.6638 11.1718 15.9995 10.8356 16 10.4219C15.9998 10.0079 15.664 9.67198 15.25 9.67188L11.75 9.6709ZM3.95605 1.5C4.55831 1.51743 5.09723 1.72909 5.50293 2.09277C5.83843 1.86492 6.24192 1.72559 6.68555 1.72559C7.34702 1.72569 7.93911 2.03789 8.33008 2.52051C8.53872 2.45834 8.76251 2.41896 9 2.41895C10.3833 2.41895 11.4999 3.55065 11.5 4.95215C11.5 6.35371 10.3833 7.48535 9 7.48535C8.92984 7.48535 8.86332 7.48188 8.80078 7.47656C8.44443 7.93815 7.88595 8.23521 7.25977 8.23535C7.09721 8.23535 6.94143 8.21579 6.79395 8.17969C6.40871 8.75984 5.74955 9.1367 5 9.13672C4.20218 9.13672 3.48656 8.69789 3.11426 8.02734C3.08884 8.02867 3.06306 8.02929 3.03711 8.0293C1.91317 8.0293 1.00015 7.10456 1 5.96582C1 5.33604 1.27523 4.76822 1.71973 4.38965C1.67355 4.20302 1.64844 4.00578 1.64844 3.80762C1.64847 2.53465 2.67494 1.5 3.94434 1.5H3.95605ZM14.6338 6.16211C14.2199 6.16211 13.8842 6.49829 13.8838 6.91211C13.884 7.32613 14.2197 7.66211 14.6338 7.66211H15.1338C15.5475 7.66174 15.8836 7.3259 15.8838 6.91211C15.8833 6.49851 15.5474 6.16248 15.1338 6.16211H14.6338Z" fill="#1D1C1D"/>
</svg>
