<svg width="20" height="20" viewBox="0 0 20 20" fill="none" xmlns="http://www.w3.org/2000/svg">
<path d="M13.7617 10.0001C15.8391 10.0002 17.5234 11.6844 17.5234 13.7618C17.5233 14.5307 17.2916 15.2452 16.8955 15.8409L18.2256 17.17C18.5182 17.4629 18.5184 17.9387 18.2256 18.2315C17.9328 18.5241 17.4569 18.5241 17.1641 18.2315L15.834 16.9005C15.2397 17.2936 14.5276 17.5235 13.7617 17.5235C11.6844 17.5235 10.0003 15.839 10 13.7618C10 11.6843 11.6843 10.0001 13.7617 10.0001ZM6.07812 3.53036C7.10654 3.55975 8.0263 3.91595 8.72266 4.52645C9.29723 4.14456 9.98628 3.91026 10.7441 3.91024C11.877 3.91024 12.8898 4.43737 13.5625 5.25009C13.9177 5.14663 14.2989 5.08212 14.7031 5.08212C17.0807 5.0822 18.9998 7.00144 19 9.37899C19 9.9464 18.8892 10.4872 18.6904 10.9825C18.3805 10.4102 17.9744 9.89764 17.4951 9.46493C17.496 9.43639 17.5 9.40775 17.5 9.37899C17.4998 7.82987 16.2523 6.5822 14.7031 6.58212C14.3236 6.58212 13.95 6.67652 13.5732 6.83798C13.223 6.98801 12.8161 6.85133 12.627 6.5206C12.2453 5.85281 11.535 5.41024 10.7441 5.41024C10.1412 5.41027 9.59817 5.66377 9.18457 6.07724C9.03085 6.23088 8.81739 6.31041 8.60059 6.29501C8.3839 6.27952 8.1841 6.17091 8.05371 5.99716C7.63406 5.43775 6.94106 5.05865 6.0459 5.03036C4.68703 5.03633 3.60845 6.12824 3.6084 7.44735C3.60844 7.78799 3.68209 8.13395 3.80371 8.42587C3.94856 8.77385 3.81283 9.17498 3.48633 9.36337C2.89157 9.70656 2.50018 10.3481 2.5 11.089C2.50015 12.1946 3.39921 13.0946 4.50488 13.0948C4.62225 13.0948 4.75112 13.0746 4.95215 13.0411L5.08496 13.0313C5.39255 13.0351 5.67257 13.2287 5.78027 13.5265C6.08392 14.367 6.90921 14.963 7.8623 14.963C7.95688 14.963 8.04961 14.9553 8.14062 14.9444C8.25469 15.4494 8.43528 15.929 8.67383 16.3731C8.41266 16.4302 8.14145 16.463 7.8623 16.463C6.49431 16.463 5.26821 15.7225 4.62598 14.5899C4.58613 14.5918 4.54548 14.5948 4.50488 14.5948C2.57079 14.5946 1.00015 13.0231 1 11.089C1.00015 10.0245 1.4708 9.06585 2.22949 8.42294C2.15199 8.10984 2.10842 7.77938 2.1084 7.44735C2.10845 5.28664 3.87402 3.53061 6.05664 3.53036C6.06365 3.53036 6.07112 3.53016 6.07812 3.53036ZM13.7617 11.5001C12.5127 11.5001 11.5 12.5128 11.5 13.7618C11.5003 15.0106 12.5128 16.0235 13.7617 16.0235C15.0105 16.0235 16.0232 15.0106 16.0234 13.7618C16.0234 12.5128 15.0107 11.5002 13.7617 11.5001Z" fill="#1D1C1D"/>
</svg>
