<svg width="20" height="20" viewBox="0 0 20 20" fill="none" xmlns="http://www.w3.org/2000/svg">
<path d="M7.46967 13.9698C7.76256 13.677 8.23732 13.677 8.53022 13.9698C8.82311 14.2627 8.82311 14.7375 8.53022 15.0304L7.78022 15.7804C7.48732 16.0733 7.01256 16.0733 6.71967 15.7804L5.78217 14.8429L6.84272 13.7823L7.24994 14.1896L7.46967 13.9698ZM14.4677 14.8429L13.5302 15.7804C13.2373 16.0733 12.7626 16.0733 12.4697 15.7804L11.5322 14.8429L12.5927 13.7823L12.9999 14.1896L13.4072 13.7823L14.4677 14.8429ZM6.09272 13.0323L5.03217 14.0929L3.15717 12.2179L4.21772 11.1573L6.09272 13.0323ZM11.8427 13.0323L10.7822 14.0929L8.90717 12.2179L9.96772 11.1573L11.8427 13.0323ZM17.0927 12.2179L15.2177 14.0929L14.1572 13.0323L16.0322 11.1573L17.0927 12.2179ZM3.46772 9.59289L3.06049 10.0001L3.46772 10.4073L2.40717 11.4679L1.46967 10.5304C1.17678 10.2375 1.17678 9.76274 1.46967 9.46984L2.40717 8.53234L3.46772 9.59289ZM9.21772 9.59289L8.81049 10.0001L9.21772 10.4073L8.15717 11.4679L7.21967 10.5304C6.92678 10.2375 6.92678 9.76274 7.21967 9.46984L8.15717 8.53234L9.21772 9.59289ZM18.7802 9.46984C19.0731 9.76274 19.0731 10.2375 18.7802 10.5304L17.8427 11.4679L16.7822 10.4073L17.1894 10.0001L16.7822 9.59289L17.8427 8.53234L18.7802 9.46984ZM6.09272 6.96789L4.21772 8.84289L3.15717 7.78234L5.03217 5.90734L6.09272 6.96789ZM11.8427 6.96789L9.96772 8.84289L8.90717 7.78234L10.7822 5.90734L11.8427 6.96789ZM17.0927 7.78234L16.0322 8.84289L14.1572 6.96789L15.2177 5.90734L17.0927 7.78234ZM6.71967 4.21984C7.01256 3.92695 7.48732 3.92695 7.78022 4.21984L8.53022 4.96984C8.82311 5.26274 8.82311 5.7375 8.53022 6.03039C8.23732 6.32328 7.76256 6.32328 7.46967 6.03039L7.24994 5.81066L6.84272 6.21789L5.78217 5.15734L6.71967 4.21984ZM12.5263 4.16809C12.8209 3.92778 13.2556 3.94524 13.5302 4.21984L14.4677 5.15734L13.4072 6.21789L12.9999 5.81066L12.5927 6.21789L11.5322 5.15734L12.4697 4.21984L12.5263 4.16809Z" fill="#1D1C1D"/>
</svg>
