<svg width="20" height="20" viewBox="0 0 20 20" fill="none" xmlns="http://www.w3.org/2000/svg">
<path d="M6.77631 4.16809C7.07089 3.92778 7.50561 3.94524 7.78022 4.21984L8.53022 4.96984C8.82311 5.26274 8.82311 5.7375 8.53022 6.03039C8.23732 6.32328 7.76256 6.32328 7.46967 6.03039L7.24994 5.81066L3.06049 10.0001L7.24994 14.1896L7.46967 13.9698C7.76256 13.677 8.23732 13.677 8.53022 13.9698C8.82311 14.2627 8.82311 14.7375 8.53022 15.0304L7.78022 15.7804C7.48732 16.0733 7.01256 16.0733 6.71967 15.7804L1.46967 10.5304C1.17678 10.2375 1.17678 9.76274 1.46967 9.46984L6.71967 4.21984L6.77631 4.16809ZM12.5263 4.16809C12.8209 3.92778 13.2556 3.94524 13.5302 4.21984L18.7802 9.46984C19.0731 9.76274 19.0731 10.2375 18.7802 10.5304L13.5302 15.7804C13.2373 16.0733 12.7626 16.0733 12.4697 15.7804L7.21967 10.5304C6.92678 10.2375 6.92678 9.76274 7.21967 9.46984L12.4697 4.21984L12.5263 4.16809ZM8.81049 10.0001L12.9999 14.1896L17.1894 10.0001L12.9999 5.81066L8.81049 10.0001Z" fill="#1D1C1D"/>
</svg>
