<svg width="20" height="20" viewBox="0 0 20 20" fill="none" xmlns="http://www.w3.org/2000/svg">
<path d="M10 1.5C12.752 1.5 15.197 2.80876 16.75 4.83496V2.5C16.75 2.08579 17.0858 1.75 17.5 1.75C17.9142 1.75 18.25 2.08579 18.25 2.5V7C18.25 7.41421 17.9142 7.75 17.5 7.75H13C12.5858 7.75 12.25 7.41421 12.25 7C12.25 6.58579 12.5858 6.25 13 6.25H15.9121C14.6694 4.2952 12.4854 3 10 3C6.13401 3 3 6.13401 3 10C3 13.866 6.13401 17 10 17C11.2331 17 12.3899 16.6822 13.3945 16.124L13.5225 16.0674C13.655 16.0234 13.798 16.0174 13.9355 16.0508L16.7295 16.7295L16.0508 13.9355C16.0063 13.7523 16.0325 13.5593 16.124 13.3945C16.525 12.6729 16.8828 11.8738 17.0107 11.124C17.0804 10.7157 17.4677 10.4412 17.876 10.5107C18.2843 10.5804 18.5588 10.9677 18.4893 11.376C18.3376 12.2651 17.9598 13.1345 17.5752 13.8613L18.4785 17.5723C18.5404 17.8266 18.4654 18.0952 18.2803 18.2803C18.0952 18.4654 17.8266 18.5404 17.5723 18.4785L13.8574 17.5752C12.699 18.1662 11.3876 18.5 10 18.5C5.30558 18.5 1.5 14.6944 1.5 10C1.5 5.30558 5.30558 1.5 10 1.5Z" fill="#1D1C1D"/>
</svg>
