<svg width="20" height="20" viewBox="0 0 20 20" fill="none" xmlns="http://www.w3.org/2000/svg">
<path d="M6.99994 4C7.19886 4 7.38956 4.07907 7.53022 4.21973L8.54096 5.23047C8.82766 5.51751 8.83417 5.98046 8.55561 6.27539L5.68256 9.3125C5.31785 9.69805 5.31785 10.302 5.68256 10.6875L8.55561 13.7246C8.83417 14.0195 8.82766 14.4825 8.54096 14.7695L7.53022 15.7803C7.38956 15.9209 7.19886 16 6.99994 16C6.80103 16 6.61032 15.9209 6.46967 15.7803L1.21967 10.5303C0.926777 10.2374 0.926777 9.76262 1.21967 9.46973L6.46967 4.21973C6.61032 4.07907 6.80103 4 6.99994 4ZM12.4697 4.21973C12.7626 3.92683 13.2373 3.92683 13.5302 4.21973L18.7802 9.46973C19.0731 9.76262 19.0731 10.2374 18.7802 10.5303L13.5302 15.7803C13.2373 16.0732 12.7626 16.0732 12.4697 15.7803L7.21967 10.5303C6.92678 10.2374 6.92678 9.76262 7.21967 9.46973L12.4697 4.21973Z" fill="#1D1C1D"/>
</svg>
