<svg width="20" height="20" viewBox="0 0 20 20" fill="none" xmlns="http://www.w3.org/2000/svg">
<path d="M10.457 2.5596C10.7338 2.44217 11.054 2.50135 11.2705 2.71L18.2705 9.46C18.4171 9.60135 18.5 9.7964 18.5 10C18.5 10.2037 18.4171 10.3987 18.2705 10.5401L11.2705 17.2901C11.054 17.4987 10.7338 17.5579 10.457 17.4405C10.1801 17.3228 10 17.0509 10 16.75V13.5H6C4.64839 13.5 3.94908 13.889 3.56934 14.3321C3.17072 14.7972 3 15.4649 3 16.25C3 16.6642 2.66421 17 2.25 17C1.83579 17 1.5 16.6642 1.5 16.25V14C1.5 11.4066 2.08201 9.46024 3.5 8.19144C4.89767 6.94089 6.94438 6.50003 9.5 6.50003H10V3.25003C10 2.94918 10.1801 2.67726 10.457 2.5596Z" fill="#1D1C1D"/>
</svg>
