<svg width="20" height="20" viewBox="0 0 20 20" fill="none" xmlns="http://www.w3.org/2000/svg">
<path d="M10.457 2.5596C10.7338 2.44217 11.054 2.50135 11.2705 2.71L18.2705 9.46C18.4171 9.60135 18.5 9.7964 18.5 10C18.5 10.2037 18.4171 10.3987 18.2705 10.5401L11.2705 17.2901C11.054 17.4987 10.7338 17.5579 10.457 17.4405C10.1801 17.3228 10 17.0509 10 16.75V13.5H6C4.64841 13.5 3.94908 13.889 3.56934 14.3321C3.17073 14.7972 3 15.4649 3 16.25C3 16.6642 2.66421 17 2.25 17C1.83579 17 1.5 16.6642 1.5 16.25V14C1.5 11.4066 2.08201 9.46024 3.5 8.19144C4.89767 6.9409 6.94439 6.50003 9.5 6.50003H10V3.25003C10 2.94918 10.1801 2.67726 10.457 2.5596ZM11.5 7.25003C11.5 7.66425 11.1642 8.00003 10.75 8.00003H9.5C7.05572 8.00003 5.47734 8.43425 4.5 9.30863C3.71582 10.0103 3.20998 11.0965 3.05273 12.7901C3.77698 12.2783 4.75325 12 6 12H10.75C11.1642 12 11.5 12.3358 11.5 12.75V14.9844L16.6689 10L11.5 5.01468V7.25003Z" fill="#1D1C1D"/>
</svg>
