<svg width="20" height="20" viewBox="0 0 20 20" fill="none" xmlns="http://www.w3.org/2000/svg">
<path d="M9.72459 5.08224C9.91867 4.95407 10.1826 4.97583 10.3535 5.14669L14.8535 9.64669C14.9965 9.78969 15.0393 10.0048 14.9619 10.1916C14.8845 10.3784 14.7022 10.5002 14.5 10.5002H12.0967V14.5002C12.0967 14.7763 11.8728 15.0002 11.5967 15.0002H8.4033C8.12717 15.0002 7.9033 14.7763 7.9033 14.5002V10.5002H5.49998C5.29778 10.5002 5.11547 10.3784 5.03807 10.1916C4.96068 10.0048 5.00347 9.78969 5.14647 9.64669L9.64647 5.14669L9.72459 5.08224ZM6.70701 9.5002H8.4033C8.6794 9.50026 8.9033 9.72409 8.9033 10.0002V14.0002H11.0967V10.0002C11.0967 9.7241 11.3206 9.50026 11.5967 9.5002H13.293L9.99998 6.20724L6.70701 9.5002Z" fill="#1D1C1D"/>
</svg>
