<svg width="20" height="20" viewBox="0 0 20 20" fill="none" xmlns="http://www.w3.org/2000/svg">
<path d="M9.52627 1.66799C9.82077 1.42774 10.2556 1.44535 10.5302 1.71974L18.2802 9.46974C18.4947 9.68422 18.5593 10.0069 18.4433 10.2871C18.3272 10.5674 18.0532 10.75 17.7499 10.75H13.4999V17.75C13.4999 18.1642 13.1641 18.5 12.7499 18.5H7.2499C6.83584 18.4998 6.4999 18.1641 6.4999 17.75V10.75H2.2499C1.94669 10.7499 1.67259 10.5673 1.55654 10.2871C1.44064 10.007 1.5053 9.68417 1.71963 9.46974L9.46963 1.71974L9.52627 1.66799ZM4.06045 9.25002H7.2499C7.66408 9.25002 7.99984 9.58585 7.9999 10V17H11.9999V10C12 9.58597 12.3359 9.2502 12.7499 9.25002H15.9394L9.9999 3.31056L4.06045 9.25002Z" fill="#1D1C1D"/>
</svg>
