<svg width="20" height="20" viewBox="0 0 20 20" fill="none" xmlns="http://www.w3.org/2000/svg">
<path d="M14.4697 10.9697C14.7626 10.6768 15.2374 10.6768 15.5303 10.9697L18.0303 13.4697C18.3232 13.7626 18.3232 14.2373 18.0303 14.5302L15.5303 17.0302C15.2374 17.3231 14.7626 17.3231 14.4697 17.0302C14.1768 16.7373 14.1768 16.2626 14.4697 15.9697L15.6895 14.7499H14C11.5602 14.7499 10.3662 12.9122 9.98633 12.1132C9.80864 11.7393 9.96697 11.2921 10.3408 11.1142C10.7149 10.9363 11.163 11.0956 11.3408 11.4697C11.6346 12.0874 12.4399 13.2499 14 13.2499H15.6895L14.4697 12.0302C14.1768 11.7373 14.1768 11.2626 14.4697 10.9697ZM14.4697 2.46967C14.7626 2.17678 15.2374 2.17678 15.5303 2.46967L18.0303 4.96967C18.3232 5.26256 18.3232 5.73732 18.0303 6.03022L15.5303 8.53022C15.2374 8.82311 14.7626 8.82311 14.4697 8.53022C14.1768 8.23732 14.1768 7.76256 14.4697 7.46967L15.6895 6.24994H14C13.2928 6.24994 12.6326 6.61895 11.9424 7.34467C11.247 8.07587 10.613 9.07129 9.9502 10.1445C9.30808 11.1841 8.63121 12.3106 7.88574 13.165C7.14393 14.0151 6.20403 14.7499 5 14.7499H2.5C2.08579 14.7499 1.75 14.4142 1.75 13.9999C1.75 13.5857 2.08579 13.2499 2.5 13.2499H5C5.54594 13.2499 6.10611 12.9222 6.75488 12.1787C7.39989 11.4394 8.00453 10.4406 8.6748 9.35541C9.32428 8.30388 10.0345 7.17384 10.8545 6.31147C11.6797 5.44367 12.7073 4.74994 14 4.74994H15.6895L14.4697 3.53022C14.1768 3.23732 14.1768 2.76256 14.4697 2.46967ZM5 4.74994C6.01286 4.74994 6.81156 5.2575 7.37305 5.7724C7.93326 6.28618 8.33541 6.88157 8.53809 7.16694C8.77794 7.50464 8.69903 7.97298 8.36133 8.21283C8.02363 8.45261 7.55526 8.37277 7.31543 8.0351C7.09109 7.71923 6.78046 7.26408 6.35938 6.87787C5.9391 6.49246 5.48714 6.24994 5 6.24994H2.5C2.08579 6.24994 1.75 5.91416 1.75 5.49994C1.75 5.08573 2.08579 4.74994 2.5 4.74994H5Z" fill="#1D1C1D"/>
</svg>
