<svg width="20" height="20" viewBox="0 0 20 20" fill="none" xmlns="http://www.w3.org/2000/svg">
<path d="M14.75 2.5C16.8211 2.5 18.5 4.17893 18.5 6.25V13.75C18.5 15.8211 16.8211 17.5 14.75 17.5H5.25C3.17893 17.5 1.5 15.8211 1.5 13.75V6.25C1.5 4.17893 3.17893 2.5 5.25 2.5H14.75ZM5.25 4C4.00736 4 3 5.00736 3 6.25V13.75C3 14.9926 4.00736 16 5.25 16H9.5V4H5.25ZM13 11.75C12.5858 11.75 12.25 12.0858 12.25 12.5C12.25 12.9142 12.5858 13.25 13 13.25H15C15.4142 13.25 15.75 12.9142 15.75 12.5C15.75 12.0858 15.4142 11.75 15 11.75H13ZM13 8.75C12.5858 8.75 12.25 9.08579 12.25 9.5C12.25 9.91421 12.5858 10.25 13 10.25H15C15.4142 10.25 15.75 9.91421 15.75 9.5C15.75 9.08579 15.4142 8.75 15 8.75H13ZM13 5.75C12.5858 5.75 12.25 6.08579 12.25 6.5C12.25 6.91421 12.5858 7.25 13 7.25H15C15.4142 7.25 15.75 6.91421 15.75 6.5C15.75 6.08579 15.4142 5.75 15 5.75H13Z" fill="#1D1C1D"/>
</svg>
