<svg width="20" height="20" viewBox="0 0 20 20" fill="none" xmlns="http://www.w3.org/2000/svg">
<path d="M14.75 2.5C16.8211 2.5 18.5 4.17893 18.5 6.25V13.75C18.5 15.8211 16.8211 17.5 14.75 17.5H5.25C3.17893 17.5 1.5 15.8211 1.5 13.75V6.25C1.5 4.17893 3.17893 2.5 5.25 2.5H14.75ZM5.25 4C4.00736 4 3 5.00736 3 6.25V13.75C3 14.9926 4.00736 16 5.25 16H10.25V4H5.25ZM11.75 16H14.75C15.9926 16 17 14.9926 17 13.75V6.25C17 5.00736 15.9926 4 14.75 4H11.75V16ZM15 11.75C15.4142 11.75 15.75 12.0858 15.75 12.5C15.75 12.9142 15.4142 13.25 15 13.25H13.5C13.0858 13.25 12.75 12.9142 12.75 12.5C12.75 12.0858 13.0858 11.75 13.5 11.75H15ZM15 8.75C15.4142 8.75 15.75 9.08579 15.75 9.5C15.75 9.91421 15.4142 10.25 15 10.25H13.5C13.0858 10.25 12.75 9.91421 12.75 9.5C12.75 9.08579 13.0858 8.75 13.5 8.75H15ZM15 5.75C15.4142 5.75 15.75 6.08579 15.75 6.5C15.75 6.91421 15.4142 7.25 15 7.25H13.5C13.0858 7.25 12.75 6.91421 12.75 6.5C12.75 6.08579 13.0858 5.75 13.5 5.75H15Z" fill="#1D1C1D"/>
</svg>
