<svg width="20" height="20" viewBox="0 0 20 20" fill="none" xmlns="http://www.w3.org/2000/svg">
<path d="M14.75 2.5C16.8211 2.5 18.5 4.17893 18.5 6.25V13.75C18.5 15.8211 16.8211 17.5 14.75 17.5H5.25C3.17893 17.5 1.5 15.8211 1.5 13.75V6.25C1.5 4.17893 3.17893 2.5 5.25 2.5H14.75ZM5.25 4C4.00736 4 3 5.00736 3 6.25V13.75C3 14.9926 4.00736 16 5.25 16H8.25V4H5.25ZM9.75 4V16H14.75C15.9926 16 17 14.9926 17 13.75V6.25C17 5.00736 15.9926 4 14.75 4H9.75ZM6.5 11.75C6.91421 11.75 7.25 12.0858 7.25 12.5C7.25 12.9142 6.91421 13.25 6.5 13.25H5C4.58579 13.25 4.25 12.9142 4.25 12.5C4.25 12.0858 4.58579 11.75 5 11.75H6.5ZM6.5 8.75C6.91421 8.75 7.25 9.08579 7.25 9.5C7.25 9.91421 6.91421 10.25 6.5 10.25H5C4.58579 10.25 4.25 9.91421 4.25 9.5C4.25 9.08579 4.58579 8.75 5 8.75H6.5ZM6.5 5.75C6.91421 5.75 7.25 6.08579 7.25 6.5C7.25 6.91421 6.91421 7.25 6.5 7.25H5C4.58579 7.25 4.25 6.91421 4.25 6.5C4.25 6.08579 4.58579 5.75 5 5.75H6.5Z" fill="#1D1C1D"/>
</svg>
