<svg width="20" height="20" viewBox="0 0 20 20" fill="none" xmlns="http://www.w3.org/2000/svg">
<path d="M12.75 1.5C13.1642 1.5 13.5 1.83579 13.5 2.25C13.5 2.66421 13.1642 3 12.75 3H6.25C5.00736 3 4 4.00736 4 5.25V14.75C4 15.9926 5.00736 17 6.25 17H12.75C13.1642 17 13.5 17.3358 13.5 17.75C13.5 18.1642 13.1642 18.5 12.75 18.5H6.25C4.17893 18.5 2.5 16.8211 2.5 14.75V5.25C2.5 3.17893 4.17893 1.5 6.25 1.5H12.75ZM13.2197 6.46973C13.5126 6.17683 13.9874 6.17683 14.2803 6.46973L17.2803 9.46973C17.5732 9.76262 17.5732 10.2374 17.2803 10.5303L14.2803 13.5303C13.9874 13.8232 13.5126 13.8232 13.2197 13.5303C12.9268 13.2374 12.9268 12.7626 13.2197 12.4697L14.9395 10.75H8.75C8.33579 10.75 8 10.4142 8 10C8 9.58579 8.33579 9.25 8.75 9.25H14.9395L13.2197 7.53027C12.9268 7.23738 12.9268 6.76262 13.2197 6.46973Z" fill="#1D1C1D"/>
</svg>
