<svg width="12" height="12" viewBox="0 0 12 12" fill="none" xmlns="http://www.w3.org/2000/svg">
<path d="M8.59375 5.04883C9.0758 5.21293 9.70455 5.34237 10.5459 5.46777C10.8615 5.51482 11 5.78841 11 6C11 6.21159 10.8615 6.48519 10.5459 6.53223C8.89355 6.77848 8.06048 7.03913 7.5498 7.5498C7.03914 8.06048 6.77849 8.89354 6.53223 10.5459C6.48518 10.8615 6.21159 11 6 11C5.78841 11 5.51482 10.8615 5.46777 10.5459C5.36925 9.88481 5.26677 9.35538 5.14844 8.9248L8.59375 5.04883ZM8.68164 2.05762C8.86465 1.85107 9.17999 1.83177 9.38672 2.01465C9.59327 2.19746 9.61306 2.51292 9.43066 2.71973L3.04102 9.94238C2.85807 10.1488 2.54265 10.168 2.33594 9.98535C2.12911 9.80239 2.11 9.48613 2.29297 9.2793L8.68164 2.05762ZM6 1C6.21159 1.00001 6.48518 1.13847 6.53223 1.4541C6.61488 2.00865 6.70004 2.47065 6.79492 2.85938L3.21191 6.8916C2.75805 6.75601 2.1871 6.64147 1.4541 6.53223C1.13847 6.48519 1.00001 6.21159 1 6C0.999997 5.78841 1.13846 5.51482 1.4541 5.46777C3.1064 5.22149 3.93952 4.96086 4.4502 4.4502C4.96087 3.93952 5.22151 3.1064 5.46777 1.4541C5.51482 1.13846 5.78841 1 6 1Z" fill="#1D1C1D"/>
</svg>
