<svg width="20" height="20" viewBox="0 0 20 20" fill="none" xmlns="http://www.w3.org/2000/svg">
<path d="M7.62988 5.73047C7.97655 5.73047 8.29341 5.8169 8.58008 5.99023C8.87319 6.15681 9.10292 6.38662 9.26953 6.67969C9.44286 6.96635 9.53027 7.28012 9.53027 7.62012C9.53025 7.96674 9.44284 8.28678 9.26953 8.58008C9.10293 8.86654 8.8732 9.09627 8.58008 9.26953C8.29341 9.4362 7.97655 9.51953 7.62988 9.51953H2.90039C2.56039 9.51953 2.24353 9.4362 1.9502 9.26953C1.65691 9.09621 1.42332 8.8667 1.25 8.58008C1.08335 8.28678 1.00002 7.96674 1 7.62012C1 7.28012 1.08643 6.96635 1.25977 6.67969C1.43309 6.38642 1.66357 6.15688 1.9502 5.99023C2.24352 5.81692 2.56041 5.73047 2.90039 5.73047H7.62988ZM7.62012 1C7.96674 1.00002 8.28368 1.08645 8.57031 1.25977C8.86358 1.42643 9.09312 1.65691 9.25977 1.9502C9.43308 2.24352 9.51953 2.56041 9.51953 2.90039V4.7998H7.62012C7.28012 4.7998 6.96325 4.71647 6.66992 4.5498C6.38348 4.37658 6.15374 4.14675 5.98047 3.86035C5.81386 3.56713 5.73053 3.24691 5.73047 2.90039C5.73047 2.56039 5.8138 2.24663 5.98047 1.95996C6.15379 1.66674 6.38333 1.43305 6.66992 1.25977C6.96324 1.08645 7.28013 1 7.62012 1Z" fill="#36C5F0"/>
<path d="M12.3704 15.2002C12.7102 15.2003 13.0233 15.2867 13.3098 15.46C13.5964 15.6265 13.8229 15.8563 13.9895 16.1494C14.1628 16.436 14.2503 16.753 14.2503 17.0996C14.2503 17.4396 14.1629 17.7565 13.9895 18.0498C13.8229 18.343 13.5964 18.5726 13.3098 18.7393C13.0233 18.9125 12.7102 18.9999 12.3704 19C12.0238 19 11.7037 18.9125 11.4104 18.7393C11.1238 18.5726 10.8933 18.3431 10.72 18.0498C10.5533 17.7565 10.47 17.4396 10.47 17.0996V15.2002H12.3704ZM17.0999 10.4697C17.4399 10.4697 17.7568 10.5562 18.0501 10.7295C18.3434 10.8961 18.5729 11.1266 18.7395 11.4199C18.9129 11.7066 19.0003 12.0235 19.0003 12.3701C19.0002 12.71 18.9128 13.023 18.7395 13.3096C18.5729 13.5962 18.3434 13.8267 18.0501 14C17.7568 14.1666 17.4399 14.25 17.0999 14.25H12.3704C12.0239 14.25 11.7036 14.1665 11.4104 14C11.1238 13.8267 10.8933 13.5962 10.72 13.3096C10.5534 13.023 10.4701 12.7099 10.47 12.3701C10.47 12.0235 10.5534 11.7066 10.72 11.4199C10.8933 11.1266 11.1238 10.8962 11.4104 10.7295C11.7036 10.5563 12.0239 10.4697 12.3704 10.4697H17.0999Z" fill="#F1B900"/>
<path d="M7.62012 10.4707C7.96674 10.4707 8.28368 10.5572 8.57031 10.7305C8.86358 10.8971 9.09312 11.1276 9.25977 11.4209C9.43308 11.7076 9.51953 12.0244 9.51953 12.3711V17.1006C9.51953 17.4406 9.4331 17.7574 9.25977 18.0508C9.09319 18.3439 8.86338 18.5736 8.57031 18.7402C8.28368 18.9135 7.96674 19.001 7.62012 19.001C7.28012 19.001 6.96325 18.9136 6.66992 18.7402C6.38352 18.567 6.15372 18.3341 5.98047 18.041C5.8138 17.7543 5.73047 17.4406 5.73047 17.1006V12.3711C5.73047 12.0244 5.8138 11.7076 5.98047 11.4209C6.1538 11.1276 6.38327 10.8971 6.66992 10.7305C6.96324 10.5572 7.28013 10.4707 7.62012 10.4707ZM4.7998 10.4707V12.3711C4.79974 12.7109 4.71325 13.024 4.54004 13.3105C4.37337 13.5972 4.14294 13.8276 3.84961 14.001C3.56316 14.1674 3.24674 14.2509 2.90039 14.251C2.56049 14.251 2.24345 14.1675 1.9502 14.001C1.65686 13.8276 1.42333 13.5972 1.25 13.3105C1.08344 13.024 1.00006 12.7109 1 12.3711C1 12.0245 1.08339 11.7075 1.25 11.4209C1.42333 11.1276 1.65686 10.8971 1.9502 10.7305C2.24346 10.5572 2.56049 10.4707 2.90039 10.4707H4.7998Z" fill="#E01E5A"/>
<path d="M12.3704 1C12.7102 1.00007 13.0233 1.08659 13.3098 1.25977C13.5965 1.42642 13.8229 1.65689 13.9895 1.9502C14.1629 2.24353 14.2503 2.56039 14.2503 2.90039V7.62988C14.2503 7.97655 14.1629 8.29651 13.9895 8.58984C13.8229 8.87647 13.5965 9.10696 13.3098 9.28027C13.0234 9.44679 12.7101 9.53021 12.3704 9.53027C12.0239 9.53027 11.7036 9.44677 11.4104 9.28027C11.1238 9.10694 10.8933 8.87651 10.72 8.58984C10.5534 8.29654 10.47 7.9765 10.47 7.62988V2.90039C10.47 2.56045 10.5534 2.24349 10.72 1.9502C10.8933 1.65686 11.1238 1.42643 11.4104 1.25977C11.7036 1.0866 12.0239 1 12.3704 1ZM17.0999 5.73047C17.4399 5.73047 17.7536 5.8169 18.0403 5.99023C18.3333 6.1568 18.5663 6.38667 18.7395 6.67969C18.9129 6.96635 19.0003 7.28012 19.0003 7.62012C19.0003 7.96674 18.9128 8.28678 18.7395 8.58008C18.5729 8.86654 18.3432 9.09627 18.0501 9.26953C17.7567 9.4362 17.4399 9.51953 17.0999 9.51953H15.2005V7.62012C15.2005 7.28012 15.2838 6.96635 15.4505 6.67969C15.6237 6.38662 15.8535 6.15681 16.1399 5.99023C16.4332 5.81692 16.7533 5.73049 17.0999 5.73047Z" fill="#2EB67D"/>
</svg>
