<svg width="20" height="20" viewBox="0 0 20 20" fill="none" xmlns="http://www.w3.org/2000/svg">
<path d="M10 1C10.3809 1 10.8724 1.24922 10.957 1.81738C11.4003 4.79163 11.8708 6.29072 12.79 7.20996C13.7093 8.12918 15.2084 8.59965 18.1826 9.04297C18.7508 9.12765 19 9.61913 19 10C19 10.3809 18.7508 10.8724 18.1826 10.957C15.2083 11.4003 13.7093 11.8708 12.79 12.79C11.8708 13.7093 11.4003 15.2083 10.957 18.1826C10.8724 18.7508 10.3809 19 10 19C9.61913 19 9.12765 18.7508 9.04297 18.1826C8.59968 15.2083 8.12918 13.7093 7.20996 12.79C6.29073 11.8708 4.79168 11.4003 1.81738 10.957C1.24922 10.8724 1 10.3809 1 10C1 9.61913 1.24923 9.12765 1.81738 9.04297C4.79163 8.59965 6.29072 8.12918 7.20996 7.20996C8.1292 6.29073 8.59968 4.79163 9.04297 1.81738C9.12765 1.24922 9.61913 1 10 1Z" fill="#1D1C1D"/>
</svg>
