<svg width="20" height="20" viewBox="0 0 20 20" fill="none" xmlns="http://www.w3.org/2000/svg">
<path d="M7.62012 10.4697C7.96674 10.4697 8.28368 10.5572 8.57031 10.7305C8.86338 10.8971 9.09319 11.1268 9.25977 11.4199C9.4331 11.7066 9.51953 12.0235 9.51953 12.3701V17.0996C9.51953 17.4396 9.43308 17.7565 9.25977 18.0498C9.09312 18.3431 8.86358 18.5736 8.57031 18.7402C8.28368 18.9135 7.96674 19 7.62012 19C7.28013 19 6.96324 18.9136 6.66992 18.7402C6.38333 18.5669 6.15379 18.3333 5.98047 18.04C5.8138 17.7534 5.73047 17.4396 5.73047 17.0996V12.3701C5.73047 12.0235 5.8138 11.7066 5.98047 11.4199C6.15373 11.1268 6.38346 10.8971 6.66992 10.7305C6.96325 10.5571 7.28012 10.4697 7.62012 10.4697ZM12.3701 15.2002C12.7099 15.2002 13.023 15.2868 13.3096 15.46C13.5962 15.6266 13.8236 15.8571 13.9902 16.1504C14.1633 16.4368 14.2499 16.7533 14.25 17.0996C14.25 17.4395 14.1635 17.7565 13.9902 18.0498C13.8236 18.3431 13.5962 18.5736 13.3096 18.7402C13.023 18.9134 12.7099 19 12.3701 19C12.0235 19 11.7034 18.9135 11.4102 18.7402C11.1235 18.5736 10.8931 18.3431 10.7197 18.0498C10.5532 17.7565 10.4697 17.4395 10.4697 17.0996V15.2002H12.3701ZM4.7998 12.3701C4.79978 12.7099 4.71322 13.023 4.54004 13.3096C4.37337 13.5962 4.14294 13.8267 3.84961 14C3.56313 14.1665 3.24679 14.2499 2.90039 14.25C2.56045 14.25 2.24349 14.1666 1.9502 14C1.65686 13.8267 1.42333 13.5962 1.25 13.3096C1.08348 13.023 1.00002 12.7099 1 12.3701C1 12.0235 1.08333 11.7066 1.25 11.4199C1.42332 11.1266 1.65691 10.8971 1.9502 10.7305C2.24353 10.5571 2.56039 10.4697 2.90039 10.4697H4.7998V12.3701ZM17.0996 10.4697C17.4396 10.4697 17.7565 10.5571 18.0498 10.7305C18.3431 10.8971 18.5736 11.1266 18.7402 11.4199C18.9135 11.7066 19 12.0235 19 12.3701C19 12.7099 18.9134 13.0231 18.7402 13.3096C18.5736 13.5962 18.3431 13.8267 18.0498 14C17.7565 14.1666 17.4396 14.25 17.0996 14.25H12.3701C12.0235 14.25 11.7035 14.1666 11.4102 14C11.1235 13.8267 10.8931 13.5962 10.7197 13.3096C10.5532 13.0231 10.4697 12.7099 10.4697 12.3701C10.4697 12.0235 10.5531 11.7066 10.7197 11.4199C10.893 11.1266 11.1235 10.8971 11.4102 10.7305C11.7035 10.5571 12.0234 10.4697 12.3701 10.4697H17.0996ZM12.3701 1C12.7099 1.00002 13.023 1.08662 13.3096 1.25977C13.5962 1.42643 13.8236 1.65686 13.9902 1.9502C14.1635 2.24346 14.25 2.56049 14.25 2.90039V7.62988C14.25 7.97646 14.1635 8.29657 13.9902 8.58984C13.8236 8.87651 13.5962 9.10694 13.3096 9.28027C13.0231 9.44675 12.7099 9.53025 12.3701 9.53027C12.0235 9.53027 11.7034 9.44685 11.4102 9.28027C11.1235 9.10694 10.8931 8.87651 10.7197 8.58984C10.5531 8.29657 10.4697 7.97646 10.4697 7.62988V2.90039C10.4697 2.56049 10.5532 2.24345 10.7197 1.9502C10.8931 1.65686 11.1235 1.42643 11.4102 1.25977C11.7034 1.08652 12.0235 1 12.3701 1ZM7.62988 5.73047C7.97655 5.73047 8.29341 5.8169 8.58008 5.99023C8.87319 6.15681 9.10292 6.38662 9.26953 6.67969C9.44286 6.96635 9.53027 7.28012 9.53027 7.62012C9.53025 7.96674 9.44284 8.28678 9.26953 8.58008C9.10293 8.86654 8.8732 9.09627 8.58008 9.26953C8.29341 9.4362 7.97655 9.51953 7.62988 9.51953H2.90039C2.56039 9.51953 2.24353 9.4362 1.9502 9.26953C1.65691 9.09621 1.42332 8.8667 1.25 8.58008C1.08335 8.28678 1.00002 7.96674 1 7.62012C1 7.28012 1.08643 6.96635 1.25977 6.67969C1.43309 6.38642 1.66357 6.15688 1.9502 5.99023C2.24352 5.81692 2.56041 5.73047 2.90039 5.73047H7.62988ZM17.0996 5.73047C17.4396 5.73047 17.7534 5.8169 18.04 5.99023C18.3333 6.15687 18.5669 6.38646 18.7402 6.67969C18.9136 6.96635 19 7.28012 19 7.62012C19 7.96672 18.9135 8.28679 18.7402 8.58008C18.5736 8.86673 18.3431 9.0962 18.0498 9.26953C17.7565 9.4362 17.4396 9.51953 17.0996 9.51953H15.2002V7.62012C15.2002 7.28012 15.2835 6.96635 15.4502 6.67969C15.6234 6.38663 15.8533 6.15682 16.1396 5.99023C16.4329 5.81697 16.7531 5.73053 17.0996 5.73047ZM7.62012 1C7.96674 1.00002 8.28368 1.08645 8.57031 1.25977C8.86358 1.42643 9.09312 1.65691 9.25977 1.9502C9.43308 2.24352 9.51953 2.56041 9.51953 2.90039V4.7998H7.62012C7.28012 4.7998 6.96325 4.71647 6.66992 4.5498C6.38348 4.37658 6.15374 4.14675 5.98047 3.86035C5.81386 3.56713 5.73053 3.24691 5.73047 2.90039C5.73047 2.56039 5.8138 2.24663 5.98047 1.95996C6.15379 1.66674 6.38333 1.43305 6.66992 1.25977C6.96324 1.08645 7.28013 1 7.62012 1Z" fill="#1D1C1D"/>
</svg>
