<svg width="20" height="20" viewBox="0 0 20 20" fill="none" xmlns="http://www.w3.org/2000/svg">
<path d="M10 1C10.3571 1 10.8114 1.21914 10.9365 1.71484L10.957 1.81738L11.126 2.86523C11.5255 5.15724 11.9857 6.40563 12.79 7.20996C13.7093 8.12918 15.2084 8.59965 18.1826 9.04297C18.7508 9.12765 19 9.61913 19 10C19 10.3809 18.7508 10.8724 18.1826 10.957C15.2083 11.4003 13.7093 11.8708 12.79 12.79C11.8708 13.7093 11.4003 15.2083 10.957 18.1826C10.8724 18.7508 10.3809 19 10 19C9.61913 19 9.12765 18.7508 9.04297 18.1826C8.59968 15.2083 8.12918 13.7093 7.20996 12.79C6.29073 11.8708 4.79168 11.4003 1.81738 10.957C1.24922 10.8724 1 10.3809 1 10C1 9.61913 1.24923 9.12765 1.81738 9.04297L2.86523 8.87402C5.15724 8.47447 6.40563 8.01428 7.20996 7.20996C8.1292 6.29073 8.59968 4.79163 9.04297 1.81738L9.06348 1.71484C9.18859 1.21914 9.64287 1 10 1ZM10 4.81738C9.6267 6.29653 9.11686 7.42416 8.27051 8.27051C7.42416 9.11685 6.29655 9.62669 4.81738 10C6.29656 10.3733 7.42415 10.8831 8.27051 11.7295C9.11668 12.5757 9.62672 13.7029 10 15.1816C10.3733 13.7029 10.8833 12.5757 11.7295 11.7295C12.5757 10.8833 13.7029 10.3733 15.1816 10C13.7029 9.62671 12.5757 9.11667 11.7295 8.27051C10.8831 7.42416 10.3733 6.29653 10 4.81738Z" fill="#1D1C1D"/>
</svg>
