<svg width="12" height="12" viewBox="0 0 12 12" fill="none" xmlns="http://www.w3.org/2000/svg">
<path d="M8.64709 4.99121C9.10871 5.14279 9.711 5.26655 10.5172 5.38672C10.882 5.44113 11.0415 5.75764 11.0416 6C11.0416 6.24238 10.8821 6.55881 10.5172 6.61328C8.87739 6.85766 8.08042 7.11453 7.59729 7.59766C7.11417 8.08079 6.85731 8.87775 6.61292 10.5176C6.55845 10.8825 6.24201 11.042 5.99963 11.042C5.75728 11.0419 5.44076 10.8824 5.38635 10.5176C5.29392 9.89737 5.19885 9.39796 5.09143 8.99023L5.86389 8.12109C5.91193 8.24873 5.95828 8.38132 5.99963 8.52051C6.11726 8.12457 6.26011 7.77649 6.44202 7.47168L7.18616 6.63379C7.55333 6.35587 7.99478 6.15607 8.52014 6C8.31227 5.93824 8.11845 5.86745 7.93616 5.79004L8.64709 4.99121ZM8.65295 2.09082C8.83583 1.88425 9.15222 1.86528 9.35901 2.04785C9.56523 2.23077 9.58442 2.54626 9.40198 2.75293L3.07092 9.90918C2.88793 10.1158 2.5726 10.135 2.36584 9.95215C2.15936 9.76914 2.14003 9.45378 2.32288 9.24707L8.65295 2.09082ZM5.99963 0.958984C6.21162 0.958984 6.48023 1.08082 6.58069 1.35547L6.61292 1.4834L6.70569 2.05957C6.75306 2.33102 6.80348 2.57436 6.8551 2.79395L6.06409 3.68262C6.04195 3.61629 6.02019 3.54869 5.99963 3.47949C5.9529 3.63684 5.9007 3.78607 5.84534 3.92871L4.27893 5.69141C4.03674 5.81085 3.77139 5.91319 3.47913 6C3.61998 6.04183 3.75438 6.08799 3.88342 6.13672L3.15881 6.95117C2.72544 6.82615 2.18093 6.71729 1.48303 6.61328C1.11803 6.55889 0.958621 6.24241 0.958618 6C0.958755 5.75763 1.11819 5.4411 1.48303 5.38672L2.0592 5.29492C3.31694 5.07543 3.9802 4.8251 4.40295 4.40234C4.88575 3.91919 5.14204 3.12248 5.38635 1.4834L5.41858 1.35547C5.51893 1.08081 5.78764 0.959104 5.99963 0.958984Z" fill="#1D1C1D"/>
</svg>
