<svg width="20" height="20" viewBox="0 0 20 20" fill="none" xmlns="http://www.w3.org/2000/svg">
<path d="M14.3955 8.19043C15.2953 8.53372 16.504 8.79276 18.1826 9.04297C18.7508 9.12765 19 9.61913 19 10C19 10.3809 18.7508 10.8724 18.1826 10.957C15.2083 11.4003 13.7093 11.8708 12.79 12.79C11.8708 13.7093 11.4003 15.2083 10.957 18.1826C10.8724 18.7508 10.3809 19 10 19C9.61913 19 9.12765 18.7508 9.04297 18.1826C8.84152 16.831 8.63311 15.7844 8.38086 14.958L9.51758 13.6787C9.70371 14.1339 9.86162 14.6335 10 15.1816C10.3733 13.7029 10.8833 12.5757 11.7295 11.7295C12.5757 10.8833 13.7029 10.3733 15.1816 10C14.4964 9.82701 13.887 9.62365 13.3457 9.37207L14.3955 8.19043ZM14.9385 3.00293C15.2129 2.69286 15.6869 2.66409 15.9971 2.93848C16.3071 3.21295 16.3359 3.68689 16.0615 3.99707L4.56152 16.9971C4.28705 17.3071 3.81311 17.3359 3.50293 17.0615C3.19286 16.7871 3.16409 16.3131 3.43848 16.0029L14.9385 3.00293ZM10 1C10.3571 1 10.8114 1.21914 10.9365 1.71484L10.957 1.81738L11.126 2.86523C11.2459 3.55323 11.3722 4.14694 11.5107 4.66309L10.3486 5.96973C10.2196 5.61155 10.1037 5.22832 10 4.81738C9.6267 6.29653 9.11686 7.42416 8.27051 8.27051C7.42416 9.11685 6.29655 9.62669 4.81738 10C5.37084 10.1397 5.87529 10.2979 6.33398 10.4863L5.26465 11.6885C4.40586 11.4036 3.29323 11.177 1.81738 10.957C1.24922 10.8724 1 10.3809 1 10C1 9.61913 1.24923 9.12765 1.81738 9.04297L2.86523 8.87402C5.15724 8.47447 6.40563 8.01428 7.20996 7.20996C8.1292 6.29073 8.59968 4.79163 9.04297 1.81738L9.06348 1.71484C9.18859 1.21914 9.64287 1 10 1Z" fill="#1D1C1D"/>
</svg>
