<svg width="20" height="20" viewBox="0 0 20 20" fill="none" xmlns="http://www.w3.org/2000/svg">
<path d="M14.3955 8.19043C15.2953 8.53364 16.504 8.79276 18.1826 9.04297C18.7508 9.12765 19 9.61913 19 10C19 10.3809 18.7508 10.8724 18.1826 10.957C15.2083 11.4003 13.7093 11.8708 12.79 12.79C11.8708 13.7093 11.4003 15.2083 10.957 18.1826C10.8724 18.7508 10.3809 19 10 19C9.61913 19 9.12765 18.7508 9.04297 18.1826C8.84152 16.831 8.63303 15.7844 8.38086 14.958L14.3955 8.19043ZM14.9385 3.00293C15.2129 2.69286 15.6869 2.66409 15.9971 2.93848C16.3071 3.21295 16.3359 3.68689 16.0615 3.99707L4.56152 16.9971C4.28705 17.3071 3.81311 17.3359 3.50293 17.0615C3.19286 16.7871 3.16409 16.3131 3.43848 16.0029L14.9385 3.00293ZM10 1C10.3809 1 10.8724 1.24922 10.957 1.81738C11.1289 2.97025 11.3053 3.90136 11.5098 4.66309L5.26465 11.6885C4.40586 11.4037 3.29323 11.177 1.81738 10.957C1.24922 10.8724 1 10.3809 1 10C1 9.61913 1.24923 9.12765 1.81738 9.04297C4.79163 8.59965 6.29072 8.12918 7.20996 7.20996C8.1292 6.29073 8.59968 4.79163 9.04297 1.81738C9.12765 1.24922 9.61913 1 10 1Z" fill="#1D1C1D"/>
</svg>
