<svg width="12" height="12" viewBox="0 0 12 12" fill="none" xmlns="http://www.w3.org/2000/svg">
<path d="M6 1C6.25025 1 6.61093 1.15986 6.66602 1.57129C6.87632 3.14304 7.1322 3.92419 7.60449 4.39648C8.07682 4.86849 8.85752 5.12381 10.4287 5.33398C10.8401 5.38907 11 5.74975 11 6C11 6.25026 10.8401 6.61093 10.4287 6.66602C8.85707 6.87637 8.0768 7.13222 7.60449 7.60449C7.1322 8.07679 6.87632 8.85709 6.66602 10.4287C6.61093 10.8401 6.25025 11 6 11C5.74975 11 5.38907 10.8401 5.33398 10.4287C5.12369 8.85709 4.8678 8.07679 4.39551 7.60449C3.9232 7.13222 3.14293 6.87637 1.57129 6.66602C1.15986 6.61093 1 6.25026 1 6C1.00001 5.74975 1.15988 5.38907 1.57129 5.33398L2.125 5.25195C3.33305 5.05591 3.98229 4.80941 4.39551 4.39648C4.8678 3.92419 5.12368 3.14304 5.33398 1.57129L5.34766 1.49707C5.43362 1.14051 5.76539 1 6 1ZM6 3.41992C5.80559 4.11737 5.53345 4.67356 5.10352 5.10352C4.67356 5.53347 4.11734 5.8056 3.41992 6C4.11736 6.19444 4.67356 6.46751 5.10352 6.89746C5.5332 7.32734 5.80565 7.88294 6 8.58008C6.19435 7.88294 6.4668 7.32734 6.89648 6.89746C7.32644 6.46751 7.88264 6.19444 8.58008 6C7.88266 5.8056 7.32644 5.53347 6.89648 5.10352C6.46655 4.67356 6.19441 4.11737 6 3.41992Z" fill="#1D1C1D"/>
</svg>
