<svg width="12" height="12" viewBox="0 0 12 12" fill="none" xmlns="http://www.w3.org/2000/svg">
<path d="M6 1C6.25027 1 6.61126 1.15984 6.66632 1.57132C6.87662 3.14307 7.13173 3.92378 7.60402 4.39607C8.0763 4.86836 8.85698 5.12344 10.4287 5.33368C10.8401 5.38872 11 5.74971 11 5.99997C11 6.25024 10.8402 6.61124 10.4287 6.66631C8.85702 6.87667 8.07632 7.13181 7.60402 7.60411C7.13172 8.0764 6.87662 8.85707 6.66632 10.4287C6.61126 10.8402 6.25026 11 6 11C5.74974 11 5.38874 10.8402 5.33368 10.4287C5.12338 8.85707 4.86828 8.0764 4.39598 7.60411C3.92368 7.13181 3.14298 6.87667 1.57129 6.66631C1.15982 6.61124 0.99999 6.25024 1 5.99997C1.00001 5.74971 1.15987 5.38872 1.57134 5.33368C3.14302 5.12344 3.9237 4.86836 4.39598 4.39607C4.86827 3.92378 5.12338 3.14307 5.33368 1.57132C5.38874 1.15984 5.74974 1 6 1Z" fill="#1D1C1D"/>
</svg>
