<svg width="20" height="20" viewBox="0 0 20 20" fill="none" xmlns="http://www.w3.org/2000/svg">
<path d="M15.5 1.5C17.1569 1.5 18.5 2.84315 18.5 4.5V15.5C18.5 17.1051 17.2394 18.4158 15.6543 18.4961L15.5 18.5H4.5L4.3457 18.4961C2.81166 18.4184 1.58163 17.1883 1.50391 15.6543L1.5 15.5V4.5C1.5 2.84315 2.84315 1.5 4.5 1.5H15.5ZM4.5 3C3.67157 3 3 3.67157 3 4.5V15.5C3 16.3284 3.67157 17 4.5 17H15.5C16.3284 17 17 16.3284 17 15.5V4.5C17 3.67157 16.3284 3 15.5 3H4.5ZM11.8604 5.10938C12.0763 4.756 12.5372 4.64452 12.8906 4.86035C13.244 5.0763 13.3555 5.53721 13.1396 5.89062L7.63965 14.8906C7.4237 15.244 6.96279 15.3555 6.60938 15.1396C6.256 14.9237 6.14452 14.4628 6.36035 14.1094L11.8604 5.10938Z" fill="#1D1C1D"/>
</svg>
