<svg width="20" height="20" viewBox="0 0 20 20" fill="none" xmlns="http://www.w3.org/2000/svg">
<path d="M12.7499 9.99993C13.1642 9.99993 13.4999 10.3357 13.4999 10.7499V15.4394L15.7197 13.2197C16.0126 12.9268 16.4873 12.9268 16.7802 13.2197C17.0731 13.5125 17.0731 13.9873 16.7802 14.2802L13.2802 17.7802C12.9873 18.0731 12.5126 18.0731 12.2197 17.7802L8.71967 14.2802C8.42678 13.9873 8.42678 13.5126 8.71967 13.2197C9.01256 12.9268 9.48732 12.9268 9.78022 13.2197L11.9999 15.4394V10.7499C11.9999 10.3357 12.3357 9.99993 12.7499 9.99993ZM6.71967 2.21966C7.01256 1.92679 7.48733 1.92677 7.78022 2.21966L11.2802 5.71966C11.5731 6.01255 11.5731 6.48731 11.2802 6.7802C10.9873 7.0731 10.5126 7.0731 10.2197 6.7802L7.99994 4.56048V9.24993C7.99994 9.66414 7.66416 9.99993 7.24994 9.99993C6.83573 9.99993 6.49994 9.66414 6.49994 9.24993V4.56048L4.28022 6.7802C3.98732 7.0731 3.51256 7.0731 3.21967 6.7802C2.92678 6.48731 2.92678 6.01255 3.21967 5.71966L6.71967 2.21966Z" fill="#1D1C1D"/>
</svg>
