<svg width="20" height="20" viewBox="0 0 20 20" fill="none" xmlns="http://www.w3.org/2000/svg">
<path d="M9.76172 2.68081C9.98409 2.4902 10.2974 2.44613 10.5635 2.5685C10.8296 2.69089 11 2.95725 11 3.25014V16.7501C11 17.043 10.8296 17.3094 10.5635 17.4318C10.2974 17.5542 9.9841 17.5101 9.76172 17.3195L5.30566 13.5001H3.25C2.00736 13.5001 1 12.4928 1 11.2501V8.75014C1.00001 7.50751 2.00736 6.50014 3.25 6.50014H5.30566L9.76172 2.68081ZM13.0439 3.38491C13.182 2.9944 13.6105 2.7898 14.001 2.92788C16.9121 3.95743 18.9998 6.73411 19 10.0001C18.9998 13.2662 16.9122 16.0439 14.001 17.0734C13.6107 17.2112 13.1822 17.0064 13.0439 16.6164C12.9059 16.2259 13.1106 15.7975 13.501 15.6593C15.8317 14.8351 17.4998 12.6108 17.5 10.0001C17.4998 7.3895 15.8316 5.16624 13.501 4.34194C13.1106 4.20389 12.9061 3.77535 13.0439 3.38491ZM13.1514 6.54995C13.4002 6.21905 13.8701 6.15195 14.2012 6.40053C15.2921 7.22028 16.001 8.52776 16.001 10.0001C16.001 11.4725 15.2921 12.78 14.2012 13.5998C13.8701 13.8483 13.4002 13.7812 13.1514 13.4503C12.9027 13.1192 12.9697 12.6493 13.3008 12.4005C14.0307 11.8519 14.501 10.9808 14.501 10.0001C14.501 9.01949 14.0307 8.14838 13.3008 7.59975C12.9697 7.35099 12.9027 6.8811 13.1514 6.54995Z" fill="#1D1C1D"/>
</svg>
