<svg width="20" height="20" viewBox="0 0 20 20" fill="none" xmlns="http://www.w3.org/2000/svg">
<path d="M9.76172 2.68081C9.98409 2.4902 10.2974 2.44613 10.5635 2.5685C10.8296 2.69089 11 2.95725 11 3.25014V16.7501C11 17.043 10.8296 17.3094 10.5635 17.4318C10.2974 17.5542 9.9841 17.5101 9.76172 17.3195L5.30566 13.5001H3.25C2.00736 13.5001 1 12.4928 1 11.2501V8.75014C1.00001 7.50751 2.00736 6.50014 3.25 6.50014H5.30566L9.76172 2.68081ZM13.1514 6.54995C13.4002 6.21905 13.8701 6.15195 14.2012 6.40053C15.2921 7.22028 16.001 8.52776 16.001 10.0001C16.001 11.4725 15.2921 12.78 14.2012 13.5998C13.8701 13.8483 13.4002 13.7812 13.1514 13.4503C12.9027 13.1192 12.9697 12.6493 13.3008 12.4005C14.0307 11.8519 14.501 10.9808 14.501 10.0001C14.501 9.01949 14.0307 8.14838 13.3008 7.59975C12.9697 7.35099 12.9027 6.8811 13.1514 6.54995ZM11.5215 8.47475C11.7564 8.1337 12.2243 8.04755 12.5654 8.28237C13.1095 8.65702 13.4891 9.27668 13.4893 10.0001C13.4891 10.7235 13.1093 11.3432 12.5654 11.7179C12.2243 11.9524 11.7563 11.8665 11.5215 11.5255C11.2871 11.1846 11.3734 10.7175 11.7139 10.4826C11.8982 10.3556 11.9891 10.1759 11.9893 10.0001C11.9891 9.82436 11.8982 9.64562 11.7139 9.5187C11.373 9.28385 11.287 8.81582 11.5215 8.47475Z" fill="#1D1C1D"/>
</svg>
