<svg width="20" height="20" viewBox="0 0 20 20" fill="none" xmlns="http://www.w3.org/2000/svg">
<path d="M9.76172 2.6808C9.98409 2.4902 10.2974 2.44613 10.5635 2.5685C10.8296 2.69089 11 2.95725 11 3.25014V16.7501C11 17.043 10.8296 17.3094 10.5635 17.4318C10.2974 17.5542 9.9841 17.5101 9.76172 17.3195L5.30664 13.5001H3.25C2.00736 13.5001 1 12.4928 1 11.2501V8.75014C1.00001 7.5075 2.00736 6.50014 3.25 6.50014H5.30664L9.76172 2.6808ZM6.07129 7.81948C5.93536 7.93597 5.76203 8.00014 5.58301 8.00014H3.25C2.83579 8.00014 2.50001 8.33593 2.5 8.75014V11.2501C2.5 11.6644 2.83579 12.0001 3.25 12.0001H5.58301C5.76203 12.0001 5.93536 12.0643 6.07129 12.1808L9.5 15.1193V4.88002L6.07129 7.81948ZM17.7197 6.71987C18.0126 6.42698 18.4874 6.42698 18.7803 6.71987C19.0732 7.01276 19.0732 7.48752 18.7803 7.78041L16.5605 10.0001L18.7803 12.2199C19.0732 12.5128 19.0732 12.9875 18.7803 13.2804C18.4874 13.5733 18.0126 13.5733 17.7197 13.2804L15.5 11.0607L13.2803 13.2804C12.9874 13.5733 12.5126 13.5733 12.2197 13.2804C11.9268 12.9875 11.9268 12.5128 12.2197 12.2199L14.4395 10.0001L12.2197 7.78041C11.9268 7.48752 11.9268 7.01276 12.2197 6.71987C12.5126 6.42698 12.9874 6.42698 13.2803 6.71987L15.5 8.93959L17.7197 6.71987Z" fill="#1D1C1D"/>
</svg>
