<svg width="20" height="20" viewBox="0 0 20 20" fill="none" xmlns="http://www.w3.org/2000/svg">
<path d="M9.76172 2.6808C9.98409 2.4902 10.2974 2.44613 10.5635 2.5685C10.8296 2.69089 11 2.95725 11 3.25014V16.7501C11 17.043 10.8296 17.3094 10.5635 17.4318C10.2974 17.5542 9.9841 17.5101 9.76172 17.3195L5.30664 13.5001H3.25C2.00736 13.5001 1 12.4928 1 11.2501V8.75014C1.00001 7.5075 2.00736 6.50014 3.25 6.50014H5.30664L9.76172 2.6808ZM13.0439 3.38491C13.1821 2.9945 13.6105 2.78982 14.001 2.92787C16.9122 3.95738 18.9998 6.73405 19 10.0001C19 13.2664 16.9122 16.0438 14.001 17.0734C13.6106 17.2113 13.1821 17.0067 13.0439 16.6164C12.9059 16.2259 13.1106 15.7975 13.501 15.6593C15.8318 14.835 17.5 12.611 17.5 10.0001C17.4998 7.38944 15.8317 5.1662 13.501 4.34194C13.1105 4.20386 12.9059 3.77542 13.0439 3.38491ZM6.07129 7.81948C5.93536 7.93597 5.76203 8.00014 5.58301 8.00014H3.25C2.83579 8.00014 2.50001 8.33593 2.5 8.75014V11.2501C2.5 11.6644 2.83579 12.0001 3.25 12.0001H5.58301C5.76203 12.0001 5.93536 12.0643 6.07129 12.1808L9.5 15.1193V4.88002L6.07129 7.81948ZM13.1514 6.54994C13.4002 6.21906 13.8701 6.15195 14.2012 6.40053C15.2921 7.22028 16.001 8.52776 16.001 10.0001C16.001 11.4725 15.2921 12.78 14.2012 13.5997C13.8701 13.8483 13.4002 13.7812 13.1514 13.4503C12.9027 13.1192 12.9697 12.6493 13.3008 12.4005C14.0307 11.8519 14.501 10.9808 14.501 10.0001C14.501 9.01949 14.0307 8.14838 13.3008 7.59975C12.9697 7.35099 12.9027 6.8811 13.1514 6.54994Z" fill="#1D1C1D"/>
</svg>
