<svg width="20" height="20" viewBox="0 0 20 20" fill="none" xmlns="http://www.w3.org/2000/svg">
<path d="M9.76172 2.6808C9.98409 2.4902 10.2974 2.44613 10.5635 2.5685C10.8296 2.69089 11 2.95725 11 3.25014V16.7501C11 17.043 10.8296 17.3094 10.5635 17.4318C10.2974 17.5542 9.9841 17.5101 9.76172 17.3195L5.30664 13.5001H3.25C2.00736 13.5001 1 12.4928 1 11.2501V8.75014C1.00001 7.5075 2.00736 6.50014 3.25 6.50014H5.30664L9.76172 2.6808ZM6.07129 7.81948C5.93536 7.93597 5.76203 8.00014 5.58301 8.00014H3.25C2.83579 8.00014 2.50001 8.33593 2.5 8.75014V11.2501C2.5 11.6644 2.83579 12.0001 3.25 12.0001H5.58301C5.76203 12.0001 5.93536 12.0643 6.07129 12.1808L9.5 15.1193V4.88002L6.07129 7.81948ZM11.5215 8.47475C11.7564 8.13369 12.2243 8.04754 12.5654 8.28237C13.1095 8.65702 13.4891 9.27668 13.4893 10.0001C13.4891 10.7235 13.1093 11.3432 12.5654 11.7179C12.2243 11.9524 11.7563 11.8665 11.5215 11.5255C11.2871 11.1846 11.3733 10.7175 11.7139 10.4826C11.8982 10.3556 11.9891 10.1759 11.9893 10.0001C11.9891 9.82436 11.8982 9.64561 11.7139 9.51869C11.373 9.28385 11.287 8.81582 11.5215 8.47475Z" fill="#1D1C1D"/>
</svg>
