<svg width="20" height="20" viewBox="0 0 20 20" fill="none" xmlns="http://www.w3.org/2000/svg">
<path d="M5.24657 10.999C7.31666 10.999 8.99441 12.6788 8.99461 14.749C8.99449 16.8193 7.31671 18.499 5.24657 18.499C3.17662 18.4988 1.49962 16.8192 1.4995 14.749C1.4997 12.6789 3.17667 10.9993 5.24657 10.999ZM17.605 8.31934C18.0158 8.27013 18.3892 8.56369 18.4389 8.97461C18.4799 9.31293 18.5014 9.65711 18.5014 10.0059C18.5014 14.5348 14.9636 18.238 10.5014 18.498C10.088 18.5221 9.73355 18.2055 9.70946 17.792C9.68562 17.3787 10.0012 17.0241 10.4145 17C14.0871 16.7858 17.0014 13.7364 17.0014 10.0059C17.0014 9.71733 16.9834 9.43311 16.9497 9.1543C16.9 8.74311 17.1938 8.36908 17.605 8.31934ZM5.24657 12.499C4.00617 12.4993 2.9997 13.5063 2.9995 14.749C2.99962 15.9918 4.00612 16.9988 5.24657 16.999C6.48721 16.999 7.49449 15.992 7.49461 14.749C7.49441 13.5061 6.48716 12.499 5.24657 12.499ZM10.0005 1.5C10.3584 1.50002 10.7121 1.52227 11.0591 1.56543C11.4698 1.61681 11.7625 1.99149 11.7114 2.40234C11.6603 2.81314 11.2853 3.10443 10.8745 3.05371C10.5887 3.01815 10.2965 3.00002 10.0005 3C6.2784 3.00005 3.234 5.90823 3.01317 9.57812C2.98809 9.99119 2.63229 10.3058 2.21922 10.2812C1.80576 10.2564 1.49024 9.90077 1.51512 9.4873C1.78339 5.03124 5.47935 1.50005 10.0005 1.5ZM15.3931 1.85645C16.9111 1.85671 18.1419 3.08857 18.1421 4.60645C18.142 6.12438 16.9112 7.35618 15.3931 7.35645C13.8748 7.35629 12.6451 6.12444 12.645 4.60645C12.6452 3.0885 13.8749 1.8566 15.3931 1.85645ZM15.3931 3.35645C14.7044 3.3566 14.1452 3.91585 14.145 4.60645C14.1451 5.29709 14.7043 5.85629 15.3931 5.85645C16.0817 5.85618 16.642 5.29702 16.6421 4.60645C16.6419 3.91592 16.0816 3.35671 15.3931 3.35645Z" fill="#1D1C1D"/>
</svg>
