<svg width="20" height="20" viewBox="0 0 20 20" fill="none" xmlns="http://www.w3.org/2000/svg">
<path d="M11.3079 9.00363C10.8938 9.01263 10.5654 9.35564 10.5744 9.76975C10.5834 10.1839 10.9264 10.5123 11.3405 10.5033L11.3242 9.75345L11.3079 9.00363ZM11.9297 6.16725L12.2076 5.47064L11.9297 6.16725ZM8.31799 12.1036L7.77392 12.6198V12.6198L8.31799 12.1036ZM15.842 4.69544L16.4447 4.24905V4.24905L15.842 4.69544ZM4.99416 4.2448L5.52449 4.77513L5.52642 4.77319L4.99416 4.2448ZM10.9145 18.6171C11.3275 18.6478 11.6873 18.3379 11.718 17.9248C11.7487 17.5117 11.4388 17.152 11.0257 17.1212L10.9701 17.8692L10.9145 18.6171ZM14.9838 12.3972L14.5357 11.7958L14.5319 11.7987L14.9838 12.3972ZM11.3242 9.75345L11.3405 10.5033C12.0839 10.4871 12.7088 10.2437 13.1638 9.81273C13.6138 9.38661 13.8453 8.8266 13.8967 8.26734C13.9971 7.17505 13.4147 5.9522 12.2076 5.47064L11.9297 6.16725L11.6518 6.86387C12.1654 7.06876 12.4505 7.61357 12.403 8.13005C12.3805 8.37517 12.2842 8.57982 12.1324 8.72362C11.9856 8.86261 11.7346 8.99435 11.3079 9.00363L11.3242 9.75345ZM11.9297 6.16725L12.2076 5.47064C11.0946 5.02662 10.0454 5.04589 9.15075 5.42832C8.26917 5.80515 7.60296 6.506 7.17983 7.31648C6.34946 8.90701 6.36174 11.1315 7.77392 12.6198L8.31799 12.1036L8.86206 11.5874C7.98365 10.6616 7.9082 9.16249 8.50953 8.01068C8.80225 7.44999 9.23176 7.02498 9.74032 6.80759C10.2358 6.5958 10.8712 6.55249 11.6518 6.86387L11.9297 6.16725ZM15.842 4.69544L16.4447 4.24905C13.4083 0.149567 7.62525 0.529875 4.4619 3.71641L4.99416 4.2448L5.52642 4.77319C8.1786 2.10158 12.8587 1.92777 15.2393 5.14184L15.842 4.69544ZM4.99416 4.2448L4.46383 3.71447C2.48765 5.69066 1.73437 9.22862 2.61513 12.3267C3.51918 15.5068 6.14761 18.2627 10.9145 18.6171L10.9701 17.8692L11.0257 17.1212C6.90435 16.8148 4.79482 14.5085 4.05796 11.9166C3.29781 9.24273 4.00067 6.29895 5.52449 4.77513L4.99416 4.2448ZM8.31799 12.1036L7.77392 12.6198C9.68626 14.6353 12.8691 14.9338 15.4358 12.9958L14.9838 12.3972L14.5319 11.7987C12.5318 13.309 10.2131 13.0112 8.86206 11.5874L8.31799 12.1036ZM14.9838 12.3972L15.4319 12.9986C16.8311 11.9562 17.5183 10.3461 17.6476 8.74727C17.7764 7.15408 17.3605 5.4856 16.4447 4.24905L15.842 4.69544L15.2393 5.14184C15.9125 6.05069 16.2558 7.34771 16.1524 8.62638C16.0495 9.89937 15.5131 11.0675 14.5357 11.7958L14.9838 12.3972Z" fill="#1D1C1D"/>
</svg>
