<svg width="20" height="20" viewBox="0 0 20 20" fill="none" xmlns="http://www.w3.org/2000/svg">
<path d="M15.5 2.5C17.1569 2.5 18.5 3.84315 18.5 5.5V14.5C18.5 16.1051 17.2394 17.4158 15.6543 17.4961L15.5 17.5H4.5L4.3457 17.4961C2.81166 17.4184 1.58163 16.1883 1.50391 14.6543L1.5 14.5V5.5C1.5 3.84315 2.84315 2.5 4.5 2.5H15.5ZM3 14.5C3 15.3284 3.67157 16 4.5 16H7.25V13H3V14.5ZM8.75 16H15.5C16.3284 16 17 15.3284 17 14.5V13H8.75V16ZM3 8.5V11.5H7.25V8.5H3ZM8.75 8.5V11.5H17V8.5H8.75ZM4.5 4C3.67157 4 3 4.67157 3 5.5V7H7.25V4H4.5ZM8.75 7H17V5.5C17 4.67157 16.3284 4 15.5 4H8.75V7Z" fill="#1D1C1D"/>
</svg>
