<svg width="20" height="20" viewBox="0 0 20 20" fill="none" xmlns="http://www.w3.org/2000/svg">
<path d="M7.30762 3.5386C7.70068 2.07166 9.20884 1.20038 10.6758 1.59328L16.4717 3.147C17.9385 3.54022 18.8091 5.04823 18.416 6.51516L16.3457 14.2417C15.9525 15.7085 14.4444 16.5799 12.9775 16.187L12.9619 16.1822C12.7544 17.4954 11.6216 18.5005 10.25 18.5005H4.25C2.73132 18.5005 1.50016 17.2692 1.5 15.7505V7.75051C1.50001 6.23174 2.73123 5.00051 4.25 5.00051H6.91602L7.30762 3.5386ZM4.25 6.50051C3.55965 6.50051 3.00001 7.06017 3 7.75051V15.7505C3.00016 16.4407 3.55975 17.0005 4.25 17.0005H10.25C10.9403 17.0005 11.4998 16.4407 11.5 15.7505V7.75051C11.5 7.06017 10.9403 6.50051 10.25 6.50051H4.25ZM10.2881 3.0425C9.62132 2.86384 8.9356 3.25959 8.75684 3.92629L8.46875 5.00051H10.25C11.7688 5.00051 13 6.23174 13 7.75051V14.6392L13.3652 14.7378C14.0319 14.9164 14.7176 14.5206 14.8965 13.854L16.9668 6.12649C17.1455 5.45968 16.7498 4.77395 16.083 4.59524L10.2881 3.0425Z" fill="#1D1C1D"/>
</svg>
