<svg width="20" height="20" viewBox="0 0 20 20" fill="none" xmlns="http://www.w3.org/2000/svg">
<path d="M10.25 4.99957C11.7687 4.99957 12.9998 6.23092 13 7.74957V15.7496C13 17.2684 11.7688 18.4996 10.25 18.4996H4.25C2.73122 18.4996 1.5 17.2684 1.5 15.7496V7.74957C1.50016 6.23092 2.73132 4.99957 4.25 4.99957H10.25ZM7.29785 3.5357C7.69106 2.06899 9.1992 1.19852 10.666 1.59137L16.4619 3.1441C17.9289 3.53717 18.7992 5.04532 18.4062 6.51226L16.3359 14.2398C16.0326 15.372 15.0649 16.1492 13.9648 16.2642C13.9879 16.0961 14 15.924 14 15.7496V7.74957C13.9998 5.67864 12.321 3.99957 10.25 3.99957H7.17383L7.29785 3.5357Z" fill="#1D1C1D"/>
</svg>
