<svg width="12" height="12" viewBox="0 0 12 12" fill="none" xmlns="http://www.w3.org/2000/svg">
<path d="M5.99375 0.899414C6.37411 0.899414 6.6689 1.11709 6.87461 1.35156C7.08301 1.58909 7.25154 1.89991 7.38828 2.2207C7.60333 2.72531 7.76522 3.31887 7.86778 3.85449C8.41562 3.79444 8.99829 3.73954 9.49278 3.75977C9.80518 3.77257 10.1241 3.81683 10.3941 3.93164C10.6758 4.05153 10.9355 4.2646 11.0397 4.61523C11.1458 4.97285 11.0372 5.30718 10.8727 5.57031C10.7099 5.83058 10.467 6.06623 10.2076 6.27148C9.81042 6.58582 9.31831 6.87285 8.85411 7.10645C9.10053 7.61679 9.35603 8.23743 9.51426 8.82031C9.61602 9.19524 9.68551 9.58287 9.67246 9.92773C9.65977 10.2629 9.56298 10.6579 9.22325 10.9014C8.89009 11.1398 8.49975 11.091 8.20274 10.9902C7.89731 10.8866 7.58187 10.6941 7.28868 10.4805C6.83627 10.1508 6.37499 9.72455 5.99375 9.34375C5.61353 9.72425 5.15413 10.1509 4.70371 10.4805C4.41187 10.694 4.09816 10.8865 3.79356 10.9902C3.4968 11.0913 3.10709 11.1398 2.77403 10.9014C2.43502 10.6586 2.33751 10.2645 2.32383 9.92969C2.30979 9.58508 2.37764 9.19734 2.47813 8.82227C2.63442 8.23907 2.88853 7.61747 3.13438 7.10645C2.66945 6.87321 2.17541 6.58752 1.77696 6.27344C1.5169 6.06843 1.27333 5.83276 1.10996 5.57227C0.944673 5.30867 0.835573 4.97369 0.941996 4.61523C1.04642 4.26375 1.30715 4.05044 1.58946 3.93066C1.86009 3.81585 2.17959 3.77246 2.49278 3.75977C2.9885 3.73968 3.57235 3.79434 4.12071 3.85449C4.22325 3.31888 4.38421 2.72527 4.59922 2.2207C4.73597 1.89987 4.90542 1.58912 5.11387 1.35156C5.31959 1.11724 5.61364 0.89946 5.99375 0.899414Z" fill="#1D1C1D"/>
</svg>
