<svg width="12" height="12" viewBox="0 0 12 12" fill="none" xmlns="http://www.w3.org/2000/svg">
<path d="M5.99397 0.849609C6.39453 0.849778 6.70168 1.07969 6.91194 1.31934C7.1251 1.56241 7.29671 1.87819 7.4344 2.20117C7.64537 2.69626 7.80465 3.2757 7.90803 3.80273C8.44295 3.74461 9.01064 3.69015 9.49494 3.70996C9.80961 3.72289 10.1359 3.76752 10.4139 3.88574C10.7049 4.0097 10.9782 4.23274 11.0877 4.60156C11.1992 4.97746 11.0837 5.32645 10.9149 5.59668C10.7479 5.86362 10.5004 6.10372 10.2391 6.31055C9.85094 6.61772 9.37308 6.89837 8.91975 7.12891C9.16059 7.63279 9.40763 8.23775 9.56233 8.80762C9.66462 9.18456 9.73577 9.57766 9.72248 9.92969C9.70955 10.2711 9.61012 10.6857 9.25178 10.9424C8.89966 11.1943 8.49026 11.1407 8.18733 11.0381C7.87499 10.9321 7.55431 10.7362 7.25959 10.5215C6.81784 10.1996 6.36854 9.78621 5.99299 9.41309C5.61898 9.7854 5.17336 10.1991 4.7342 10.5205C4.44074 10.7352 4.12107 10.9309 3.8094 11.0371C3.50658 11.1402 3.09729 11.1944 2.74494 10.9424C2.3874 10.6863 2.28814 10.2727 2.27424 9.93164C2.25992 9.57977 2.32942 9.18678 2.43049 8.80957C2.58333 8.23929 2.82793 7.63353 3.06819 7.12891C2.61429 6.8988 2.13516 6.6193 1.74592 6.3125C1.48384 6.10587 1.23583 5.8659 1.06819 5.59863C0.898382 5.32784 0.782499 4.97849 0.894359 4.60156C1.00419 4.23178 1.27838 4.00855 1.57014 3.88477C1.84881 3.76664 2.17563 3.72275 2.49104 3.70996C2.9761 3.69037 3.54399 3.74458 4.07893 3.80273C4.18229 3.2756 4.34253 2.69634 4.55354 2.20117C4.69124 1.87816 4.86276 1.5624 5.076 1.31934C5.28636 1.07967 5.59333 0.849633 5.99397 0.849609ZM5.98616 1.85059C5.98128 1.85198 5.97161 1.85549 5.95784 1.86328C5.92824 1.88011 5.88384 1.91489 5.82795 1.97852C5.71311 2.10939 5.59105 2.31785 5.47346 2.59375C5.23988 3.14186 5.0701 3.84708 4.98909 4.41992C4.95114 4.68714 4.7075 4.876 4.43928 4.84668C3.74619 4.76967 3.06714 4.68731 2.53108 4.70898C2.26359 4.71985 2.07694 4.75647 1.96076 4.80566C1.86058 4.84817 1.85486 4.87966 1.85334 4.88574C1.85136 4.89243 1.83582 4.94124 1.91487 5.06738C1.99623 5.19705 2.14563 5.35435 2.36506 5.52734C2.80111 5.87103 3.40978 6.19859 3.951 6.44434C4.07663 6.50157 4.17332 6.60848 4.2176 6.73926C4.26187 6.87015 4.24959 7.01392 4.1844 7.13574C3.90578 7.65593 3.57408 8.40509 3.39631 9.06836C3.30681 9.40242 3.26491 9.68389 3.27326 9.89062C3.2774 9.99194 3.29333 10.0572 3.30842 10.0947C3.31414 10.1089 3.31887 10.1182 3.32209 10.123C3.34152 10.1249 3.39091 10.1236 3.48713 10.0908C3.65826 10.0325 3.88203 9.90507 4.14338 9.71387C4.66106 9.33509 5.21699 8.78929 5.63264 8.35449L5.70979 8.28809C5.79259 8.23098 5.89181 8.19923 5.99397 8.19922C6.13032 8.19934 6.26107 8.25592 6.3553 8.35449C6.77031 8.7886 7.32863 9.33414 7.84846 9.71289C8.11101 9.90414 8.33639 10.0324 8.50862 10.0908C8.60377 10.123 8.65341 10.1247 8.67366 10.123C8.67681 10.1184 8.68253 10.11 8.6883 10.0957C8.70323 10.0584 8.71962 9.99292 8.72346 9.8916C8.7312 9.685 8.68816 9.40345 8.59748 9.06934C8.4174 8.40595 8.08273 7.65675 7.80354 7.13574C7.73823 7.01388 7.72605 6.87024 7.77034 6.73926C7.81466 6.60844 7.9112 6.50153 8.03694 6.44434C8.57703 6.1987 9.18344 5.87027 9.61799 5.52637C9.83672 5.35323 9.98613 5.19605 10.0672 5.06641C10.1454 4.94116 10.1307 4.89228 10.1287 4.88574C10.1272 4.8799 10.122 4.84815 10.0223 4.80566C9.90684 4.75657 9.72069 4.72092 9.45393 4.70996C8.91956 4.6881 8.24259 4.76968 7.54963 4.84668C7.28106 4.87652 7.03686 4.68742 6.99885 4.41992C6.91783 3.84719 6.74805 3.14189 6.51448 2.59375C6.39692 2.31794 6.27479 2.10944 6.15998 1.97852C6.10421 1.91498 6.05972 1.8802 6.0301 1.86328C6.01649 1.85555 6.00677 1.85205 6.00178 1.85059C5.99784 1.84946 5.9951 1.84957 5.99397 1.84961C5.99302 1.84961 5.99036 1.84945 5.98616 1.85059Z" fill="#1D1C1D"/>
</svg>
