<svg width="20" height="20" viewBox="0 0 20 20" fill="none" xmlns="http://www.w3.org/2000/svg">
<path d="M9.98997 1.5C10.6236 1.50017 11.114 1.86326 11.4568 2.25391C11.8043 2.64999 12.0862 3.16818 12.3142 3.70312C12.6726 4.54423 12.9411 5.53304 13.112 6.42578C14.0252 6.32567 14.9958 6.23389 15.8201 6.26758C16.3409 6.28889 16.8728 6.3613 17.323 6.55273C17.7928 6.75253 18.2255 7.10853 18.3992 7.69336C18.5761 8.2895 18.3951 8.84657 18.1208 9.28516C17.8496 9.7189 17.4447 10.1111 17.0124 10.4531C16.3503 10.9771 15.5294 11.4553 14.7556 11.8447C15.1664 12.6954 15.5924 13.7296 15.8562 14.7012C16.0258 15.3261 16.1415 15.972 16.1199 16.5469C16.0987 17.1057 15.9375 17.7643 15.3708 18.1699C14.8156 18.5673 14.1656 18.4854 13.6706 18.3174C13.1617 18.1446 12.6367 17.8246 12.1482 17.4688C11.394 16.9193 10.6255 16.2081 9.98997 15.5732C9.35615 16.2076 8.59053 16.9194 7.83958 17.4688C7.35313 17.8246 6.82973 18.1444 6.32201 18.3174C5.82743 18.4858 5.17885 18.5672 4.62376 18.1699C4.05838 17.7652 3.89554 17.1081 3.87279 16.5498C3.84943 15.9753 3.96305 15.3293 4.1306 14.7041C4.39109 13.7321 4.81364 12.6974 5.22337 11.8457C4.44844 11.4569 3.62576 10.9796 2.96165 10.4561C2.52818 10.1143 2.12163 9.7223 1.84935 9.28809C1.57386 8.84876 1.39268 8.29079 1.57005 7.69336C1.74404 7.10742 2.17858 6.75141 2.64915 6.55176C3.10008 6.36054 3.63226 6.28874 4.15404 6.26758C4.98026 6.23408 5.95296 6.32552 6.86693 6.42578C7.0378 5.53301 7.30638 4.54423 7.66478 3.70312C7.89274 3.16818 8.17465 2.64999 8.5222 2.25391C8.86512 1.86313 9.35609 1.5 9.98997 1.5Z" fill="#1D1C1D"/>
</svg>
