<svg width="20" height="20" viewBox="0 0 20 20" fill="none" xmlns="http://www.w3.org/2000/svg">
<path d="M9.98895 1.5C10.6226 1.5 11.1129 1.86335 11.4557 2.25391C11.8032 2.64995 12.0862 3.16823 12.3141 3.70312C12.6725 4.54408 12.9391 5.53319 13.11 6.42578C14.0236 6.32561 14.9953 6.23389 15.82 6.26758C16.3406 6.28888 16.8719 6.36154 17.322 6.55273C17.7917 6.75249 18.2244 7.10864 18.3981 7.69336C18.5751 8.28953 18.3941 8.84656 18.1198 9.28516C17.8485 9.71879 17.4435 10.1111 17.0114 10.4531C16.3492 10.9771 15.5284 11.4554 14.7546 11.8447C15.1654 12.6954 15.5923 13.7294 15.8561 14.7012C16.0258 15.326 16.1415 15.9721 16.1198 16.5469C16.0986 17.1057 15.9373 17.7643 15.3708 18.1699C14.8156 18.5672 14.1655 18.4853 13.6706 18.3174C13.1617 18.1446 12.6357 17.8246 12.1472 17.4688C11.3929 16.9191 10.6245 16.2071 9.98895 15.5723C9.35512 16.2066 8.59049 16.9194 7.83953 17.4688C7.35302 17.8246 6.82876 18.1444 6.32098 18.3174C5.82647 18.4857 5.17758 18.5671 4.62274 18.1699C4.0578 17.7652 3.89548 17.1079 3.87274 16.5498C3.84939 15.9754 3.96302 15.3293 4.13055 14.7041C4.39108 13.732 4.81452 12.6974 5.2243 11.8457C4.44909 11.4568 3.62498 10.9798 2.96063 10.4561C2.52739 10.1145 2.12148 9.72206 1.8493 9.28809C1.5739 8.84882 1.39272 8.29066 1.57 7.69336C1.74397 7.10765 2.17773 6.75143 2.64813 6.55176C3.09908 6.36043 3.63212 6.28876 4.15399 6.26758C4.98015 6.23411 5.953 6.32553 6.86688 6.42578C7.03772 5.53315 7.30544 4.54413 7.66375 3.70312C7.89168 3.16827 8.17468 2.64996 8.52215 2.25391C8.86497 1.86332 9.35543 1.5002 9.98895 1.5ZM9.98895 3C9.96635 3.00018 9.85173 3.01227 9.6491 3.24316C9.44949 3.47073 9.24129 3.8272 9.04364 4.29102C8.65081 5.21303 8.3678 6.39595 8.23211 7.35547C8.17513 7.75675 7.80882 8.03988 7.40594 7.99512C6.25379 7.8671 5.11578 7.72909 4.21453 7.76562C3.76427 7.78391 3.44119 7.84475 3.23407 7.93262C3.04709 8.01202 3.01889 8.08185 3.0075 8.12012C2.99504 8.1622 2.9805 8.26898 3.11981 8.49121C3.26254 8.7188 3.52001 8.98713 3.88934 9.27832C4.62365 9.85719 5.64476 10.4066 6.54949 10.8174C6.73815 10.9032 6.8834 11.0635 6.94989 11.2598C7.01626 11.4562 6.99797 11.6717 6.90008 11.8545C6.43378 12.7251 5.8772 13.9793 5.57879 15.0928C5.42855 15.6535 5.35722 16.1325 5.37176 16.4893C5.38674 16.8561 5.48269 16.9404 5.49578 16.9502L5.49871 16.9512C5.50304 16.9525 5.51617 16.9562 5.54071 16.957C5.59581 16.9587 5.69239 16.9469 5.83758 16.8975C6.13452 16.7963 6.51535 16.5785 6.95379 16.2578C7.82299 15.6219 8.75342 14.7069 9.44696 13.9814L9.50262 13.9297C9.63758 13.8146 9.80992 13.7501 9.98895 13.75C10.1935 13.75 10.3895 13.8337 10.5309 13.9814C11.2235 14.7059 12.1581 15.6209 13.0309 16.2568C13.4712 16.5775 13.8543 16.796 14.153 16.8975C14.2985 16.9468 14.3958 16.9586 14.4518 16.957C14.477 16.9563 14.4912 16.9526 14.4958 16.9512L14.4977 16.9502C14.5092 16.9418 14.6068 16.8599 14.6208 16.4902C14.6342 16.1336 14.5602 15.6546 14.4079 15.0938C14.1055 13.9801 13.5449 12.7262 13.0778 11.8545C12.98 11.6718 12.9626 11.4561 13.029 11.2598C13.0954 11.0636 13.2399 10.9033 13.4284 10.8174C14.3312 10.4069 15.3487 9.8565 16.0807 9.27734C16.449 8.98592 16.7059 8.71684 16.8483 8.48926C16.9874 8.26669 16.9728 8.16102 16.9606 8.12012C16.9492 8.08174 16.921 8.01267 16.735 7.93359C16.5289 7.84605 16.2073 7.78496 15.7585 7.7666C14.8597 7.7299 13.7241 7.86711 12.572 7.99512C12.1693 8.03964 11.8037 7.75658 11.7468 7.35547C11.611 6.39597 11.3272 5.21309 10.9343 4.29102C10.7365 3.82711 10.5284 3.47072 10.3288 3.24316C10.1246 3.01058 10.0101 3 9.98895 3Z" fill="#1D1C1D"/>
</svg>
