<svg width="20" height="20" viewBox="0 0 20 20" fill="none" xmlns="http://www.w3.org/2000/svg">
<path d="M10.0297 9.53027L7.06097 12.5H12.4994V10H13.9994V12.5C13.9994 13.3284 13.3279 14 12.4994 14H7.06097C5.72485 13.9998 5.0548 12.3844 5.99945 11.4395L8.96917 8.46973L10.0297 9.53027ZM14.7504 3.5C15.0445 3.50016 15.3115 3.67257 15.433 3.94043C15.5544 4.20827 15.5084 4.52277 15.3149 4.74414L12.9037 7.5H14.7504C15.1644 7.50022 15.5004 7.83592 15.5004 8.25C15.5003 8.66398 15.1644 8.99978 14.7504 9H11.2504C10.9562 9 10.6894 8.82745 10.5678 8.55957C10.4462 8.29158 10.4922 7.97733 10.686 7.75586L13.0971 5H11.2504C10.8362 5 10.5004 4.66421 10.5004 4.25C10.5004 3.83579 10.8362 3.5 11.2504 3.5H14.7504Z" fill="#1D1C1D"/>
</svg>
