<svg width="20" height="20" viewBox="0 0 20 20" fill="none" xmlns="http://www.w3.org/2000/svg">
<path d="M8.25 9.75C8.53818 9.75 8.80083 9.91514 8.92578 10.1748C9.05067 10.4347 9.01604 10.7436 8.83594 10.9688L6.81055 13.5H8.25C8.66421 13.5 9 13.8358 9 14.25C9 14.6642 8.66421 15 8.25 15H5.25C4.96182 15 4.69917 14.8349 4.57422 14.5752C4.44933 14.3153 4.48396 14.0064 4.66406 13.7812L6.68945 11.25H5.25C4.83579 11.25 4.5 10.9142 4.5 10.5C4.5 10.0858 4.83579 9.75 5.25 9.75H8.25ZM14.75 5C15.0382 5 15.3008 5.16514 15.4258 5.4248C15.5507 5.68465 15.516 5.99362 15.3359 6.21875L12.3105 10H14.75C15.1642 10 15.5 10.3358 15.5 10.75C15.5 11.1642 15.1642 11.5 14.75 11.5H10.75C10.4618 11.5 10.1992 11.3349 10.0742 11.0752C9.94933 10.8153 9.98396 10.5064 10.1641 10.2812L13.1895 6.5H10.75C10.3358 6.5 10 6.16421 10 5.75C10 5.33579 10.3358 5 10.75 5H14.75Z" fill="#1D1C1D"/>
</svg>
