<svg width="20" height="20" viewBox="0 0 20 20" fill="none" xmlns="http://www.w3.org/2000/svg">
<path d="M9.40527 5.53906C9.99971 5.50001 10.1812 6.05484 9.55664 6.76855C8.97543 7.43295 8.83642 8.37582 9.20117 9.17969C9.56598 9.9836 10.3672 10.5 11.25 10.5H14.4727C14.2239 12.75 12.3163 14.5 10 14.5C7.51472 14.5 5.5 12.4853 5.5 10C5.50007 7.71639 7.20114 5.83008 9.40527 5.53906ZM14.75 3.5C15.0443 3.5 15.311 3.67244 15.4326 3.94043C15.5541 4.20839 15.5082 4.52271 15.3145 4.74414L12.9033 7.5H14.75C15.1642 7.5 15.5 7.83579 15.5 8.25C15.4999 8.66412 15.1641 9 14.75 9H11.25C10.9557 9 10.689 8.82754 10.5674 8.55957C10.4458 8.29158 10.4918 7.97733 10.6855 7.75586L13.0967 5H11.25C10.8358 5 10.5 4.66421 10.5 4.25C10.5 3.83579 10.8358 3.5 11.25 3.5H14.75Z" fill="#1D1C1D"/>
</svg>
