<svg width="20" height="20" viewBox="0 0 20 20" fill="none" xmlns="http://www.w3.org/2000/svg">
<path d="M10 7.5H7.75C7.61193 7.5 7.5 7.61193 7.5 7.75V12.25C7.5 12.3881 7.61193 12.5 7.75 12.5H12.25C12.3881 12.5 12.5 12.3881 12.5 12.25V10H14V12.25C14 13.2165 13.2165 14 12.25 14H7.75C6.7835 14 6 13.2165 6 12.25V7.75C6 6.7835 6.7835 6 7.75 6H10V7.5ZM14.75 3.5C15.0443 3.5 15.311 3.67244 15.4326 3.94043C15.5541 4.20839 15.5082 4.52271 15.3145 4.74414L12.9033 7.5H14.75C15.1642 7.5 15.5 7.83579 15.5 8.25C15.4999 8.66412 15.1641 9 14.75 9H11.25C10.9557 9 10.689 8.82754 10.5674 8.55957C10.4458 8.29158 10.4918 7.97733 10.6855 7.75586L13.0967 5H11.25C10.8358 5 10.5 4.66421 10.5 4.25C10.5 3.83579 10.8358 3.5 11.25 3.5H14.75Z" fill="#1D1C1D"/>
</svg>
