<svg width="20" height="20" viewBox="0 0 20 20" fill="none" xmlns="http://www.w3.org/2000/svg">
<path d="M12.0674 5C13.1508 5 13.8833 5.51838 14.3115 6.18457C14.7131 6.80919 14.834 7.53343 14.834 8.03516C14.834 8.51543 14.7888 9.3954 14.167 10.5029C13.5533 11.5959 12.4098 12.8551 10.3184 14.1797C10.0733 14.3349 9.76065 14.3349 9.51562 14.1797C7.42414 12.8551 6.28065 11.5959 5.66699 10.5029C5.04522 9.3954 5 8.51543 5 8.03516C5 7.53342 5.12092 6.8092 5.52246 6.18457C5.95073 5.51839 6.68318 5 7.7666 5C8.74152 5.00013 9.46479 5.57395 9.91699 6.17188C10.3692 5.57395 11.0924 5.00009 12.0674 5ZM12.0674 6.5C11.7218 6.5001 11.3823 6.70581 11.0928 7.10059C10.7954 7.50605 10.667 7.95979 10.667 8.16992L10.6631 8.24609C10.6247 8.62432 10.3053 8.9199 9.91699 8.91992C9.52863 8.91992 9.20926 8.62433 9.1709 8.24609L9.16699 8.16992L9.16113 8.08008C9.13248 7.84707 9.00146 7.45548 8.74121 7.10059C8.45171 6.70582 8.11221 6.50013 7.7666 6.5C7.23702 6.5 6.96079 6.72136 6.78418 6.99609C6.58098 7.31236 6.5 7.73047 6.5 8.03516C6.5 8.36142 6.52207 8.96073 6.97559 9.76855C7.40427 10.532 8.24609 11.5273 9.91699 12.6494C11.5879 11.5273 12.4297 10.532 12.8584 9.76855C13.3119 8.96073 13.334 8.36142 13.334 8.03516C13.334 7.73049 13.253 7.31235 13.0498 6.99609C12.8732 6.72136 12.597 6.5 12.0674 6.5Z" fill="#1D1C1D"/>
</svg>
