<svg width="20" height="20" viewBox="0 0 20 20" fill="none" xmlns="http://www.w3.org/2000/svg">
<path d="M9.00359 8.39551C9.02082 8.66194 9.08652 8.92772 9.20085 9.17969C9.56565 9.9835 10.367 10.4999 11.2497 10.5H13.9997V12.5C13.9996 13.3283 13.328 14 12.4997 14H7.02117C5.68489 13.9999 5.01578 12.3844 5.96062 11.4395L9.00359 8.39551ZM14.7497 3.5C15.0439 3.5 15.3107 3.67249 15.4323 3.94043C15.5538 4.20839 15.5079 4.52271 15.3141 4.74414L12.903 7.5H14.7497C15.1639 7.5 15.4997 7.83579 15.4997 8.25C15.4996 8.66412 15.1638 9 14.7497 9H11.2497C10.9555 8.99991 10.6886 8.82747 10.5671 8.55957C10.4455 8.29165 10.4915 7.9773 10.6852 7.75586L13.0964 5H11.2497C10.8356 4.99987 10.4997 4.66413 10.4997 4.25C10.4997 3.83587 10.8356 3.50013 11.2497 3.5H14.7497Z" fill="#1D1C1D"/>
</svg>
