<svg width="20" height="20" viewBox="0 0 20 20" fill="none" xmlns="http://www.w3.org/2000/svg">
<path d="M12.3525 5C13.3978 5 14.0834 5.49223 14.4883 6.12207C14.8774 6.72746 15 7.44231 15 7.94141C15 8.42793 14.956 9.31931 14.3184 10.4551C13.6854 11.5824 12.4864 12.9187 10.2363 14.3438C10.0922 14.435 9.9078 14.435 9.76367 14.3438C7.51355 12.9187 6.31459 11.5824 5.68164 10.4551C5.04402 9.31931 5.00001 8.42793 5 7.94141C5 7.44231 5.12255 6.72746 5.51172 6.12207C5.91662 5.49223 6.60221 5 7.64746 5C8.57444 5.00016 9.27903 5.55733 9.73047 6.17285C9.82951 6.30791 9.91985 6.45041 10 6.5957C10.0802 6.45041 10.1705 6.30791 10.2695 6.17285C10.721 5.55733 11.4256 5.00016 12.3525 5Z" fill="#1D1C1D"/>
</svg>
