<svg width="20" height="20" viewBox="0 0 20 20" fill="none" xmlns="http://www.w3.org/2000/svg">
<path d="M2.74902 11.4951C5.92324 11.4951 8.49695 14.069 8.49707 17.2432V17.75C8.49707 18.1642 8.16123 18.4999 7.74707 18.5C7.33286 18.5 6.99707 18.1642 6.99707 17.75V17.2432C6.99695 14.8974 5.09482 12.9951 2.74902 12.9951H2.25C1.83579 12.9951 1.5 12.6593 1.5 12.2451C1.50012 11.831 1.83586 11.4951 2.25 11.4951H2.74902ZM2.74902 6.49707C8.68327 6.49707 13.4939 11.308 13.4941 17.2422V17.75C13.4939 18.164 13.1582 18.5 12.7441 18.5C12.3303 18.4998 11.9944 18.1639 11.9941 17.75V17.2422C11.9939 12.1364 7.85485 7.99707 2.74902 7.99707H2.25C1.83579 7.99707 1.5 7.66128 1.5 7.24707C1.50019 6.83302 1.83591 6.49707 2.25 6.49707H2.74902ZM2.74902 1.5C11.4435 1.5 18.4922 8.54871 18.4922 17.2432V17.75C18.4922 18.1642 18.1564 18.5 17.7422 18.5C17.328 18.5 16.9922 18.1642 16.9922 17.75V17.2432C16.9922 9.37714 10.6151 3 2.74902 3H2.25C1.83579 3 1.5 2.66421 1.5 2.25C1.5 1.83579 1.83579 1.5 2.25 1.5H2.74902ZM2.74902 15.9932C3.43904 15.9932 3.99902 16.5531 3.99902 17.2432C3.99883 17.933 3.43892 18.4922 2.74902 18.4922C2.05929 18.492 1.5002 17.9329 1.5 17.2432C1.5 16.5533 2.05917 15.9934 2.74902 15.9932Z" fill="#1D1C1D"/>
</svg>
