<svg width="20" height="20" viewBox="0 0 20 20" fill="none" xmlns="http://www.w3.org/2000/svg">
<path d="M13.7041 12.5612C14.0848 12.398 14.5263 12.574 14.6895 12.9547C15.1656 14.066 15.023 15.1706 14.4229 16.0583C13.8384 16.9224 12.8584 17.532 11.7188 17.8122C10.4157 18.1324 9.14141 18.0149 7.92871 17.6764C6.50886 17.28 5.41336 16.2174 5.02539 14.776C4.91786 14.3762 5.15504 13.9649 5.55469 13.8571C5.95466 13.7495 6.36599 13.9864 6.47363 14.3864C6.71856 15.2962 7.40227 15.9715 8.33203 16.2311C9.36903 16.5206 10.3723 16.5979 11.3604 16.3551C12.2227 16.1432 12.848 15.7101 13.1807 15.2184C13.4973 14.7501 13.5841 14.184 13.3105 13.5456C13.1475 13.1651 13.3238 12.7246 13.7041 12.5612ZM8.32031 2.27213C9.57185 1.9645 11.0012 1.98046 12.2354 2.43131C13.4873 2.88875 14.5721 3.81322 14.9736 5.30533C15.0811 5.70522 14.8442 6.11667 14.4443 6.22428C14.0446 6.33152 13.6331 6.0946 13.5254 5.69498C13.2765 4.77029 12.6161 4.1667 11.7207 3.83951C10.8118 3.50752 9.69695 3.48008 8.69238 3.72428C7.17749 4.129 6.30689 5.58604 6.52148 6.87662C6.71722 8.05131 7.9393 9.50059 11.5 9.50064H17.25C17.6642 9.50064 18 9.83643 18 10.2506C17.9998 10.6647 17.6641 11.0006 17.25 11.0006H2.75C2.33591 11.0006 2.0002 10.6647 2 10.2506C2 9.83643 2.33579 9.50064 2.75 9.50064H6.41211C5.65072 8.85167 5.19347 8.03269 5.04199 7.12369C4.69507 5.03971 6.07503 2.87072 8.30664 2.27506L8.31348 2.27408L8.32031 2.27213Z" fill="#1D1C1D"/>
</svg>
