<svg width="20" height="20" viewBox="0 0 20 20" fill="none" xmlns="http://www.w3.org/2000/svg">
<path d="M14.875 1C17.1532 1 19 2.84683 19 5.125C19 7.40317 17.1532 9.25 14.875 9.25C12.8971 9.25 11.2451 7.8578 10.8438 6H3V11C3 12.7949 4.45507 14.25 6.25 14.25H10.75C10.7658 14.25 10.7814 14.251 10.7969 14.252C11.0972 12.2694 12.8086 10.75 14.875 10.75C17.1532 10.75 19 12.5968 19 14.875C19 17.1532 17.1532 19 14.875 19C12.8947 19 11.2405 17.6044 10.8418 15.7432C10.8117 15.7468 10.7811 15.75 10.75 15.75H6.25C3.62665 15.75 1.5 13.6234 1.5 11V1.75C1.5 1.33579 1.83579 1 2.25 1C2.66421 1 3 1.33579 3 1.75V4.5H10.7979C11.0991 2.51847 12.8093 1 14.875 1ZM17.0938 13.4785C16.8059 13.1808 16.331 13.1732 16.0332 13.4609L14.4697 14.9707L14.0215 14.5371C13.7239 14.2491 13.2491 14.2562 12.9609 14.5537C12.6728 14.8513 12.681 15.3261 12.9785 15.6143L13.9482 16.5537C14.2388 16.8351 14.7003 16.8357 14.9912 16.5547L17.0752 14.5391C17.3729 14.2512 17.3815 13.7763 17.0938 13.4785ZM17.0938 3.72852C16.8059 3.43079 16.331 3.42318 16.0332 3.71094L14.4697 5.2207L14.0215 4.78711C13.7239 4.49907 13.2491 4.50623 12.9609 4.80371C12.6728 5.10126 12.681 5.5761 12.9785 5.86426L13.9482 6.80371C14.2388 7.08512 14.7003 7.08573 14.9912 6.80469L17.0752 4.78906C17.3729 4.50119 17.3815 4.02631 17.0938 3.72852Z" fill="#1D1C1D"/>
</svg>
