<svg width="20" height="20" viewBox="0 0 20 20" fill="none" xmlns="http://www.w3.org/2000/svg">
<path d="M14.875 1C17.1532 1 19 2.84683 19 5.125C19 7.40317 17.1532 9.25 14.875 9.25C12.8971 9.25 11.2451 7.8578 10.8438 6H3V11C3 12.7949 4.45507 14.25 6.25 14.25H10.75C10.7658 14.25 10.7814 14.251 10.7969 14.252C11.0972 12.2694 12.8086 10.75 14.875 10.75C17.1532 10.75 19 12.5968 19 14.875C19 17.1532 17.1532 19 14.875 19C12.8947 19 11.2405 17.6044 10.8418 15.7432C10.8117 15.7468 10.7811 15.75 10.75 15.75H6.25C3.62665 15.75 1.5 13.6234 1.5 11V1.75C1.5 1.33579 1.83579 1 2.25 1C2.66421 1 3 1.33579 3 1.75V4.5H10.7979C11.0991 2.51847 12.8093 1 14.875 1ZM14.875 12.25C13.4253 12.25 12.25 13.4253 12.25 14.875C12.25 16.3247 13.4253 17.5 14.875 17.5C16.3247 17.5 17.5 16.3247 17.5 14.875C17.5 13.4253 16.3247 12.25 14.875 12.25ZM14.875 2.5C13.4253 2.5 12.25 3.67525 12.25 5.125C12.25 6.57475 13.4253 7.75 14.875 7.75C16.3247 7.75 17.5 6.57475 17.5 5.125C17.5 3.67525 16.3247 2.5 14.875 2.5Z" fill="#1D1C1D"/>
</svg>
