<svg width="20" height="20" viewBox="0 0 20 20" fill="none" xmlns="http://www.w3.org/2000/svg">
<path fill-rule="evenodd" clip-rule="evenodd" d="M10 1C10.4142 1 10.75 1.33579 10.75 1.75V3.75C10.75 4.16421 10.4142 4.5 10 4.5C9.58579 4.5 9.25 4.16421 9.25 3.75V1.75C9.25 1.33579 9.58579 1 10 1ZM10 14C12.2091 14 14 12.2091 14 10C14 7.79086 12.2091 6 10 6C7.79086 6 6 7.79086 6 10C6 12.2091 7.79086 14 10 14ZM10.75 16.26C10.75 15.8458 10.4142 15.51 10 15.51C9.58579 15.51 9.25 15.8458 9.25 16.26V18.26C9.25 18.6742 9.58579 19.01 10 19.01C10.4142 19.01 10.75 18.6742 10.75 18.26V16.26ZM4.5 10C4.5 10.4142 4.16421 10.75 3.75 10.75H1.75C1.33579 10.75 1 10.4142 1 10C1 9.58579 1.33579 9.25 1.75 9.25H3.75C4.16421 9.25 4.5 9.58579 4.5 10ZM18.25 10.75C18.6642 10.75 19 10.4142 19 10C19 9.58579 18.6642 9.25 18.25 9.25H16.25C15.8358 9.25 15.5 9.58579 15.5 10C15.5 10.4142 15.8358 10.75 16.25 10.75H18.25ZM16.0139 3.99106C16.3068 4.28396 16.3068 4.75883 16.0139 5.05172L14.9533 6.11238C14.6604 6.40528 14.1855 6.40528 13.8926 6.11238C13.5997 5.81949 13.5997 5.34462 13.8926 5.05172L14.9533 3.99106C15.2462 3.69817 15.7211 3.69817 16.0139 3.99106ZM6.10737 14.9583C6.40027 14.6654 6.40027 14.1905 6.10737 13.8976C5.81448 13.6047 5.33961 13.6047 5.04671 13.8976L3.98605 14.9583C3.69316 15.2512 3.69316 15.726 3.98605 16.0189C4.27895 16.3118 4.75382 16.3118 5.04671 16.0189L6.10737 14.9583ZM6.11445 6.11239C5.82156 6.40528 5.34668 6.40528 5.05379 6.11239L3.99313 5.05173C3.70024 4.75884 3.70024 4.28396 3.99313 3.99107C4.28602 3.69818 4.7609 3.69818 5.05379 3.99107L6.11445 5.05173C6.40734 5.34462 6.40734 5.8195 6.11445 6.11239ZM14.9533 16.0119C15.2462 16.3048 15.7211 16.3048 16.0139 16.0119C16.3068 15.719 16.3068 15.2441 16.0139 14.9512L14.9533 13.8905C14.6604 13.5977 14.1855 13.5977 13.8926 13.8905C13.5997 14.1834 13.5997 14.6583 13.8926 14.9512L14.9533 16.0119Z" fill="#1D1C1D"/>
</svg>
