<svg width="20" height="20" viewBox="0 0 20 20" fill="none" xmlns="http://www.w3.org/2000/svg">
<path d="M10 15.5098C10.4141 15.5098 10.7499 15.8457 10.75 16.2598V18.2598C10.75 18.674 10.4142 19.0098 10 19.0098C9.58579 19.0098 9.25 18.674 9.25 18.2598V16.2598C9.25013 15.8457 9.58587 15.5098 10 15.5098ZM5.04688 13.8975C5.33976 13.6047 5.81458 13.6047 6.10742 13.8975C6.40026 14.1903 6.40016 14.6651 6.10742 14.958L5.04688 16.0186C4.75398 16.3114 4.27922 16.3114 3.98633 16.0186C3.69349 15.7257 3.69345 15.2509 3.98633 14.958L5.04688 13.8975ZM13.8926 13.8906C14.1855 13.5977 14.6602 13.5978 14.9531 13.8906L16.0137 14.9512C16.3066 15.2441 16.3066 15.7188 16.0137 16.0117C15.7208 16.3045 15.246 16.3046 14.9531 16.0117L13.8926 14.9512C13.5997 14.6583 13.5998 14.1835 13.8926 13.8906ZM10 6C12.2091 6 14 7.79086 14 10C14 12.2091 12.2091 14 10 14C7.79086 14 6 12.2091 6 10C6 7.79086 7.79086 6 10 6ZM10 7.5C8.61929 7.5 7.5 8.61929 7.5 10C7.5 11.3807 8.61929 12.5 10 12.5C11.3807 12.5 12.5 11.3807 12.5 10C12.5 8.61929 11.3807 7.5 10 7.5ZM3.75 9.25C4.16421 9.25 4.5 9.58579 4.5 10C4.5 10.4142 4.16421 10.75 3.75 10.75H1.75C1.33579 10.75 1 10.4142 1 10C1 9.58579 1.33579 9.25 1.75 9.25H3.75ZM18.25 9.25C18.6642 9.25 19 9.58579 19 10C19 10.4142 18.6642 10.75 18.25 10.75H16.25C15.8358 10.75 15.5 10.4142 15.5 10C15.5 9.58579 15.8358 9.25 16.25 9.25H18.25ZM3.99316 3.99121C4.28606 3.69832 4.76082 3.69832 5.05371 3.99121L6.11426 5.05176C6.40715 5.34465 6.40715 5.81941 6.11426 6.1123C5.82136 6.40514 5.34659 6.40518 5.05371 6.1123L3.99316 5.05176C3.70029 4.75888 3.70032 4.28411 3.99316 3.99121ZM14.9531 3.99121C15.246 3.69834 15.7208 3.69838 16.0137 3.99121C16.3066 4.2841 16.3066 4.75886 16.0137 5.05176L14.9531 6.1123C14.6602 6.40516 14.1855 6.40518 13.8926 6.1123C13.5998 5.81942 13.5997 5.34463 13.8926 5.05176L14.9531 3.99121ZM10 1C10.4142 1 10.75 1.33579 10.75 1.75V3.75C10.75 4.16421 10.4142 4.5 10 4.5C9.58579 4.5 9.25 4.16421 9.25 3.75V1.75C9.25 1.33579 9.58579 1 10 1Z" fill="#1D1C1D"/>
</svg>
