<svg width="20" height="20" viewBox="0 0 20 20" fill="none" xmlns="http://www.w3.org/2000/svg">
<path d="M4 15.5C4 15.5 6.84887 13.5 10.1891 13.5C13.5294 13.5 16 15.5 16 15.5" stroke="#1D1C1D" stroke-width="1.5" stroke-linecap="round"/>
<path d="M10 4V6" stroke="#1D1C1D" stroke-width="1.5" stroke-linecap="round"/>
<path d="M3.75 12.25H1.75" stroke="#1D1C1D" stroke-width="1.5" stroke-linecap="round"/>
<path d="M18.25 12.25H16.25" stroke="#1D1C1D" stroke-width="1.5" stroke-linecap="round"/>
<path d="M15.4836 6.77148L14.423 7.83214" stroke="#1D1C1D" stroke-width="1.5" stroke-linecap="round"/>
<path d="M5.58411 7.83203L4.52345 6.77137" stroke="#1D1C1D" stroke-width="1.5" stroke-linecap="round"/>
<path d="M10 8.05469C12.1703 8.05469 13.9463 9.79235 13.9463 11.9561C13.9462 12.9059 13.6017 13.7768 13.0322 14.4521L12.5 14.0039V14.001C12.5 14.001 10.8906 14.001 10 14.001C9.10912 14.001 7.5 14.001 7.5 14.001L6.96777 14.4521C6.39825 13.7768 6.05381 12.9059 6.05371 11.9561C6.05371 9.79235 7.8297 8.05469 10 8.05469Z" fill="#1D1C1D"/>
</svg>
