<svg width="20" height="20" viewBox="0 0 20 20" fill="none" xmlns="http://www.w3.org/2000/svg">
<path d="M15.9355 15C16.3853 15 16.75 15.3647 16.75 15.8145C16.75 17.2976 15.5476 18.5 14.0645 18.5H5.93555C4.4524 18.5 3.25 17.2976 3.25 15.8145C3.25003 15.3647 3.61466 15 4.06445 15H15.9355ZM9.25 16.25C8.97386 16.25 8.75 16.4739 8.75 16.75C8.75 17.0261 8.97386 17.25 9.25 17.25H10.75C11.0261 17.25 11.25 17.0261 11.25 16.75C11.25 16.4739 11.0261 16.25 10.75 16.25H9.25ZM13 1.5C15.0711 1.5 16.75 3.17893 16.75 5.25V12.6504C16.7498 13.1195 16.3695 13.4998 15.9004 13.5H4.09961C3.63048 13.4998 3.25021 13.1195 3.25 12.6504V5.25C3.25 3.17893 4.92893 1.5 7 1.5H13Z" fill="#1D1C1D"/>
</svg>
