<svg width="20" height="20" viewBox="0 0 20 20" fill="none" xmlns="http://www.w3.org/2000/svg">
<path d="M13 1.5C15.0711 1.5 16.75 3.17893 16.75 5.25V14.75C16.75 16.8211 15.0711 18.5 13 18.5H7C4.92893 18.5 3.25 16.8211 3.25 14.75V5.25C3.25 3.17893 4.92893 1.5 7 1.5H13ZM4.76465 15C4.88906 16.1249 5.8419 17 7 17H13C14.1581 17 15.1109 16.1249 15.2354 15H4.76465ZM10.75 15.5C11.0261 15.5 11.25 15.7239 11.25 16C11.25 16.2761 11.0261 16.5 10.75 16.5H9.25C8.97386 16.5 8.75 16.2761 8.75 16C8.75 15.7239 8.97386 15.5 9.25 15.5H10.75ZM7 3C5.75736 3 4.75 4.00736 4.75 5.25V13.5H15.25V5.25C15.25 4.00736 14.2426 3 13 3H7Z" fill="#1D1C1D"/>
</svg>
