<svg width="20" height="20" viewBox="0 0 20 20" fill="none" xmlns="http://www.w3.org/2000/svg">
<path d="M9.35449 1.63472C9.7272 1.31968 10.2728 1.31968 10.6455 1.63472L15.792 5.98921C16.2409 6.36912 16.4999 6.92747 16.5 7.51558V16.5888C16.4998 17.6932 15.6044 18.5888 14.5 18.5888H5.5C4.39557 18.5888 3.50023 17.6932 3.5 16.5888V7.51558C3.50013 6.92747 3.75906 6.36912 4.20801 5.98921L9.35449 1.63472ZM7.75 14.0888C7.33579 14.0888 7 14.4246 7 14.8388C7.00023 15.2528 7.33593 15.5888 7.75 15.5888H12.25C12.6641 15.5888 12.9998 15.2528 13 14.8388C13 14.4246 12.6642 14.0888 12.25 14.0888H7.75ZM7.75 11.0888C7.33579 11.0888 7 11.4246 7 11.8388C7.00023 12.2528 7.33593 12.5888 7.75 12.5888H12.25C12.6641 12.5888 12.9998 12.2528 13 11.8388C13 11.4246 12.6642 11.0888 12.25 11.0888H7.75ZM10 5.58882C9.17157 5.58882 8.5 6.26039 8.5 7.08882C8.50023 7.91705 9.17172 8.58882 10 8.58882C10.8283 8.58882 11.4998 7.91705 11.5 7.08882C11.5 6.26039 10.8284 5.58882 10 5.58882Z" fill="#1D1C1D"/>
</svg>
