<svg width="12" height="12" viewBox="0 0 12 12" fill="none" xmlns="http://www.w3.org/2000/svg">
<path d="M5.61267 0.941673C5.83632 0.752483 6.1634 0.752547 6.38708 0.941673L9.47498 3.55398C9.74436 3.78196 9.89975 4.11709 9.89978 4.46999V9.91335C9.89969 10.576 9.36227 11.1135 8.69958 11.1135H3.30017L3.17712 11.1077C2.57213 11.0462 2.10006 10.5346 2.09998 9.91335V4.46999C2.10001 4.11709 2.2554 3.78196 2.52478 3.55398L5.61267 0.941673ZM3.17126 4.31765C3.12643 4.35562 3.10001 4.41124 3.09998 4.46999V9.91335C3.10006 10.0237 3.18977 10.1135 3.30017 10.1135H8.69958C8.80999 10.1135 8.89969 10.0237 8.89978 9.91335V4.46999C8.89975 4.41136 8.87413 4.35562 8.82947 4.31765L5.99939 1.92312L3.17126 4.31765ZM7.29919 8.01394C7.57534 8.01394 7.79919 8.2378 7.79919 8.51394C7.79911 8.79001 7.57528 9.01394 7.29919 9.01394H4.69958C4.42369 9.01371 4.19967 8.78987 4.19958 8.51394C4.19958 8.23794 4.42364 8.01417 4.69958 8.01394H7.29919ZM7.29919 6.51394C7.57534 6.51394 7.79919 6.7378 7.79919 7.01394C7.79911 7.29001 7.57528 7.51394 7.29919 7.51394H4.69958C4.42369 7.51371 4.19967 7.28987 4.19958 7.01394C4.19958 6.73794 4.42364 6.51417 4.69958 6.51394H7.29919ZM6.00037 3.31277C6.4971 3.31298 6.89955 3.71545 6.89978 4.21218C6.89978 4.70911 6.49724 5.11236 6.00037 5.11257C5.50331 5.11257 5.09998 4.70924 5.09998 4.21218C5.10021 3.71532 5.50345 3.31277 6.00037 3.31277Z" fill="#1D1C1D"/>
</svg>
