<svg width="12" height="12" viewBox="0 0 12 12" fill="none" xmlns="http://www.w3.org/2000/svg">
<path d="M5.61267 0.940451C5.83622 0.751588 6.16351 0.751652 6.38708 0.940451L9.47498 3.55373C9.74436 3.78173 9.89977 4.11683 9.89978 4.46975V9.91311C9.89966 10.5757 9.36225 11.1133 8.69958 11.1133H3.30017C2.63751 11.1133 2.1001 10.5757 2.09998 9.91311V4.46975C2.09999 4.11687 2.25546 3.78173 2.52478 3.55373L5.61267 0.940451ZM4.64978 8.41213C4.40146 8.41222 4.1998 8.61306 4.19958 8.86135C4.19958 9.10982 4.40133 9.31145 4.64978 9.31155H7.34998C7.59849 9.31153 7.80017 9.10987 7.80017 8.86135C7.79996 8.61301 7.59836 8.41214 7.34998 8.41213H4.64978ZM4.64978 6.6133C4.40146 6.6134 4.1998 6.81423 4.19958 7.06252C4.19958 7.31099 4.40133 7.51262 4.64978 7.51272H7.34998C7.59849 7.5127 7.80017 7.31104 7.80017 7.06252C7.79996 6.81418 7.59836 6.61332 7.34998 6.6133H4.64978ZM6.00037 3.31252C5.50338 3.31252 5.10008 3.71497 5.09998 4.21194C5.09998 4.70899 5.50331 5.11233 6.00037 5.11233C6.49724 5.11212 6.89978 4.70886 6.89978 4.21194C6.89967 3.7151 6.49718 3.31273 6.00037 3.31252Z" fill="#1D1C1D"/>
</svg>
