<svg width="20" height="20" viewBox="0 0 20 20" fill="none" xmlns="http://www.w3.org/2000/svg">
<path d="M9.35449 1.63594C9.7273 1.32057 10.2727 1.32057 10.6455 1.63594L15.792 5.98946C16.241 6.36946 16.5 6.92854 16.5 7.5168V16.5891L16.4893 16.7932C16.3937 17.7346 15.6456 18.4829 14.7041 18.5783L14.5 18.5891H5.5L5.2959 18.5783C4.35441 18.4829 3.60628 17.7346 3.51074 16.7932L3.5 16.5891V7.5168C3.5 6.92854 3.75896 6.36946 4.20801 5.98946L9.35449 1.63594ZM5.17676 7.13497C5.06463 7.22996 5 7.36983 5 7.5168V16.5891C5.0001 16.8651 5.22392 17.0891 5.5 17.0891H14.5C14.7761 17.0891 14.9999 16.8651 15 16.5891V7.5168C15 7.36983 14.9354 7.22996 14.8232 7.13497L10 3.05391L5.17676 7.13497ZM12.25 13.5891C12.6642 13.5891 13 13.9249 13 14.3391C12.9999 14.7532 12.6642 15.0891 12.25 15.0891H7.75C7.33585 15.0891 7.0001 14.7532 7 14.3391C7 13.9249 7.33579 13.5891 7.75 13.5891H12.25ZM12.25 11.0891C12.6642 11.0891 13 11.4249 13 11.8391C12.9999 12.2532 12.6642 12.5891 12.25 12.5891H7.75C7.33585 12.5891 7.0001 12.2532 7 11.8391C7 11.4249 7.33579 11.0891 7.75 11.0891H12.25ZM10 5.58907C10.8284 5.58907 11.5 6.26064 11.5 7.08907C11.4999 7.91741 10.8284 8.58907 10 8.58907C9.17163 8.58907 8.5001 7.91741 8.5 7.08907C8.5 6.26064 9.17157 5.58907 10 5.58907Z" fill="#1D1C1D"/>
</svg>
