<svg width="20" height="20" viewBox="0 0 20 20" fill="none" xmlns="http://www.w3.org/2000/svg">
<path d="M16.75 2.5C17.7165 2.5 18.5 3.2835 18.5 4.25V15.75C18.5 16.7165 17.7165 17.5 16.75 17.5H3.25C2.2835 17.5 1.5 16.7165 1.5 15.75V4.25C1.5 3.2835 2.2835 2.5 3.25 2.5H16.75ZM3 5.5V15.75C3 15.8881 3.11193 16 3.25 16H16.75C16.8881 16 17 15.8881 17 15.75V5.5H3ZM11 10.75C11.4142 10.75 11.75 11.0858 11.75 11.5C11.75 11.9142 11.4142 12.25 11 12.25H9C8.58579 12.25 8.25 11.9142 8.25 11.5C8.25 11.0858 8.58579 10.75 9 10.75H11ZM4.75195 7.43945C5.06161 7.16441 5.53546 7.19235 5.81055 7.50195L7.36621 9.25293C7.61868 9.53718 7.61888 9.96593 7.36621 10.25L5.81055 11.998C5.53534 12.3074 5.06144 12.3355 4.75195 12.0605C4.44258 11.7853 4.41446 11.3114 4.68945 11.002L5.80176 9.75L4.68945 8.49805C4.41441 8.18839 4.44235 7.71454 4.75195 7.43945Z" fill="#1D1C1D"/>
</svg>
