<svg width="20" height="20" viewBox="0 0 20 20" fill="none" xmlns="http://www.w3.org/2000/svg">
<path d="M15.75 3.5C17.2688 3.5 18.5 4.73122 18.5 6.25V14.75C18.5 16.2688 17.2688 17.5 15.75 17.5H5.25C3.73122 17.5 2.5 16.2688 2.5 14.75V12.25C2.5 11.8358 2.83579 11.5 3.25 11.5C3.66421 11.5 4 11.8358 4 12.25V14.75C4 15.4404 4.55964 16 5.25 16H15.75C16.4404 16 17 15.4404 17 14.75V6.25C17 5.55964 16.4404 5 15.75 5H11.25C10.8358 5 10.5 4.66421 10.5 4.25C10.5 3.83579 10.8358 3.5 11.25 3.5H15.75ZM8.25 2.5C8.66421 2.5 9 2.83579 9 3.25V4.25C9 4.66421 8.66421 5 8.25 5C7.83579 5 7.5 4.66421 7.5 4.25V4H6V8.5H6.15625C6.57046 8.5 6.90625 8.83579 6.90625 9.25C6.90625 9.66421 6.57046 10 6.15625 10H4.25C3.83579 10 3.5 9.66421 3.5 9.25C3.5 8.83579 3.83579 8.5 4.25 8.5H4.5V4H3V4.25C3 4.66421 2.66421 5 2.25 5C1.83579 5 1.5 4.66421 1.5 4.25V3.25C1.5 2.83579 1.83579 2.5 2.25 2.5H8.25Z" fill="#1D1C1D"/>
</svg>
