<svg width="20" height="20" viewBox="0 0 20 20" fill="none" xmlns="http://www.w3.org/2000/svg">
<path d="M15 4.25C15.4142 4.25 15.75 4.58579 15.75 5V6.92285C15.75 7.33707 15.4142 7.67285 15 7.67285C14.5858 7.67285 14.25 7.33707 14.25 6.92285V5.75H10.75V14.25H11.5C11.9142 14.25 12.25 14.5858 12.25 15C12.25 15.4142 11.9142 15.75 11.5 15.75H8.5C8.08579 15.75 7.75 15.4142 7.75 15C7.75 14.5858 8.08579 14.25 8.5 14.25H9.25V5.75H5.75V6.92285C5.75 7.33707 5.41421 7.67285 5 7.67285C4.58579 7.67285 4.25 7.33707 4.25 6.92285V5C4.25 4.58579 4.58579 4.25 5 4.25H15Z" fill="#1D1C1D"/>
</svg>
