<svg width="20" height="20" viewBox="0 0 20 20" fill="none" xmlns="http://www.w3.org/2000/svg">
<path d="M10 1.5C14.6944 1.5 18.5 5.30558 18.5 10C18.5 11.388 18.1665 12.7006 17.5752 13.8594L18.4785 17.5723C18.5404 17.8266 18.4654 18.0952 18.2803 18.2803C18.0952 18.4654 17.8266 18.5404 17.5723 18.4785L13.8594 17.5752C12.7006 18.1665 11.388 18.5 10 18.5C5.30558 18.5 1.5 14.6944 1.5 10C1.5 5.30558 5.30558 1.5 10 1.5ZM6.75 11C6.33579 11 6 11.3358 6 11.75C6 12.1642 6.33579 12.5 6.75 12.5H11.25C11.6642 12.5 12 12.1642 12 11.75C12 11.3358 11.6642 11 11.25 11H6.75ZM6.75 7.5C6.33579 7.5 6 7.83579 6 8.25C6 8.66421 6.33579 9 6.75 9H13.25C13.6642 9 14 8.66421 14 8.25C14 7.83579 13.6642 7.5 13.25 7.5H6.75Z" fill="#1D1C1D"/>
</svg>
