<svg width="20" height="20" viewBox="0 0 20 20" fill="none" xmlns="http://www.w3.org/2000/svg">
<path d="M10 1.5C14.6944 1.5 18.5 5.30558 18.5 10C18.5 11.3876 18.1662 12.699 17.5752 13.8574L18.4785 17.5723C18.5404 17.8266 18.4654 18.0952 18.2803 18.2803C18.0952 18.4654 17.8266 18.5404 17.5723 18.4785L13.8574 17.5752C12.699 18.1662 11.3876 18.5 10 18.5C5.30558 18.5 1.5 14.6944 1.5 10C1.5 5.30558 5.30558 1.5 10 1.5ZM10 3C6.13401 3 3 6.13401 3 10C3 13.866 6.13401 17 10 17C11.2331 17 12.3899 16.6822 13.3945 16.124L13.5225 16.0674C13.655 16.0234 13.798 16.0174 13.9355 16.0508L16.7295 16.7295L16.0508 13.9355C16.0063 13.7523 16.0325 13.5593 16.124 13.3945C16.6822 12.3899 17 11.2331 17 10C17 6.13401 13.866 3 10 3ZM11.25 11C11.6642 11 12 11.3358 12 11.75C12 12.1642 11.6642 12.5 11.25 12.5H6.75C6.33579 12.5 6 12.1642 6 11.75C6 11.3358 6.33579 11 6.75 11H11.25ZM13.25 7.5C13.6642 7.50001 14 7.83579 14 8.25C14 8.66421 13.6642 8.99999 13.25 9H6.75C6.33579 9 6 8.66421 6 8.25C6 7.83579 6.33579 7.5 6.75 7.5H13.25Z" fill="#1D1C1D"/>
</svg>
