<svg width="12" height="12" viewBox="0 0 12 12" fill="none" xmlns="http://www.w3.org/2000/svg">
<path d="M5.99957 0.899414C8.81609 0.899414 11.0999 3.18255 11.1002 5.99902C11.1002 6.8317 10.9002 7.6193 10.5455 8.31445L11.0875 10.543C11.1246 10.6956 11.0794 10.8567 10.9683 10.9678C10.8573 11.0788 10.6961 11.124 10.5435 11.0869L8.315 10.5449C7.61985 10.8996 6.83225 11.0996 5.99957 11.0996C3.1831 11.0994 0.899963 8.81555 0.899963 5.99902C0.900175 3.18268 3.18323 0.899625 5.99957 0.899414ZM4.05035 6.5498C3.77421 6.5498 3.55035 6.77366 3.55035 7.0498C3.55057 7.32577 3.77434 7.5498 4.05035 7.5498H6.75055C7.02629 7.54949 7.25034 7.32557 7.25055 7.0498C7.25055 6.77386 7.02642 6.55012 6.75055 6.5498H4.05035ZM4.05035 4.44922C3.77428 4.44922 3.55046 4.67317 3.55035 4.94922C3.55035 5.22536 3.77421 5.44922 4.05035 5.44922H7.95074C8.22653 5.4488 8.45074 5.2251 8.45074 4.94922C8.45064 4.67343 8.22646 4.44964 7.95074 4.44922H4.05035Z" fill="#1D1C1D"/>
</svg>
