<svg width="20" height="20" viewBox="0 0 20 20" fill="none" xmlns="http://www.w3.org/2000/svg">
<path d="M9.46271 1.13418C9.81174 1.02165 10.1879 1.02171 10.5369 1.13418L17.9803 3.53554C18.0399 3.55478 18.0944 3.58302 18.1453 3.61464C18.1657 3.62732 18.185 3.64115 18.2039 3.65566C18.223 3.67023 18.2412 3.68536 18.2586 3.70156C18.2752 3.71696 18.2903 3.73355 18.3055 3.75039C18.3237 3.77065 18.3414 3.79087 18.3572 3.81289C18.3691 3.82941 18.3789 3.84715 18.3895 3.86464C18.4033 3.88772 18.4172 3.91054 18.4285 3.93496C18.4383 3.95589 18.4461 3.97748 18.4539 3.99941C18.4621 4.02226 18.4695 4.04514 18.4754 4.06875C18.4839 4.10291 18.4923 4.13741 18.4959 4.17324C18.497 4.18391 18.4962 4.19471 18.4969 4.20546C18.4977 4.22004 18.4998 4.23462 18.4998 4.24941V14.4994C18.4998 14.5722 18.4859 14.6419 18.4666 14.7084C18.4597 14.7321 18.4534 14.7558 18.4442 14.7787C18.4361 14.7987 18.4255 14.8172 18.4158 14.8363C18.4038 14.8602 18.3923 14.8841 18.3777 14.9066C18.3648 14.9266 18.3495 14.9447 18.3348 14.9633C18.3201 14.9818 18.3063 15.0008 18.2899 15.018C18.2729 15.0357 18.2538 15.0508 18.2352 15.0668C18.2145 15.0845 18.1945 15.103 18.1717 15.1186C18.1694 15.1201 18.1672 15.1219 18.1649 15.1234C18.1314 15.1456 18.0962 15.1659 18.0584 15.183L18.0447 15.1889C18.0429 15.1897 18.0408 15.19 18.0389 15.1908L10.7205 18.4975C10.2626 18.7043 9.73703 18.7043 9.27911 18.4975L1.95978 15.1908C1.95788 15.19 1.9558 15.1897 1.95392 15.1889L1.94122 15.183C1.87746 15.1542 1.8215 15.1155 1.77032 15.0727C1.74834 15.0542 1.72658 15.0358 1.70685 15.015C1.69613 15.0037 1.6875 14.9908 1.67755 14.9789C1.65694 14.9543 1.63632 14.9299 1.61896 14.9027C1.60701 14.884 1.59792 14.8638 1.58771 14.8441C1.57647 14.8226 1.56462 14.8014 1.55548 14.7787C1.54502 14.7526 1.53759 14.7257 1.53009 14.6986C1.52428 14.6776 1.51648 14.6569 1.51251 14.6352C1.5112 14.628 1.51069 14.6208 1.50958 14.6137C1.50392 14.5765 1.49982 14.5382 1.49982 14.4994V4.24941C1.49985 4.18908 1.50879 4.1308 1.52228 4.07461C1.52907 4.04653 1.53872 4.01958 1.54865 3.99257C1.5558 3.97308 1.56242 3.95365 1.57111 3.93496C1.58125 3.91309 1.59309 3.89228 1.60529 3.87148C1.61826 3.84942 1.63121 3.82757 1.6463 3.80703C1.65956 3.78891 1.67439 3.77218 1.68927 3.75527C1.70562 3.73674 1.72197 3.71839 1.74005 3.70156C1.75815 3.6847 1.77781 3.66979 1.79767 3.65468C1.8161 3.64066 1.8346 3.62695 1.85431 3.61464C1.90525 3.58295 1.95968 3.55481 2.01935 3.53554L9.46271 1.13418ZM2.99982 14.015L9.24982 16.8373V8.48379L2.99982 5.66054V14.015ZM10.7498 8.48379V16.8373L16.9998 14.015V5.66054L10.7498 8.48379ZM9.92267 2.56191L4.00665 4.47011L9.89728 7.13027C9.96247 7.15957 10.0372 7.15957 10.1024 7.13027L15.992 4.47011L10.077 2.56191C10.0272 2.54591 9.97247 2.54585 9.92267 2.56191Z" fill="#1D1C1D"/>
</svg>
