<svg width="20" height="20" viewBox="0 0 20 20" fill="none" xmlns="http://www.w3.org/2000/svg">
<path d="M9.41504 1.60128C10.8111 1.41404 12.2291 1.45985 13.6104 1.73604L14.0605 1.82589C15.9237 2.19852 17.3858 3.64627 17.7773 5.50558L18.6387 9.59737C19.0344 11.4772 17.43 13.1734 15.5312 12.8825L13.1006 12.5095L13.7119 14.3415C13.7143 14.3486 13.7166 14.3559 13.7188 14.363L14.1045 15.6501C14.4185 16.6967 13.9563 17.8202 12.9971 18.3435C11.7294 19.0348 10.1506 18.4014 9.69629 17.0398C9.45159 16.3065 9.09311 15.6116 8.6377 14.988L7.14453 12.9431C7.0508 12.8147 7 12.6597 7 12.5007V2.58175C7.00008 2.20613 7.27809 1.88851 7.65039 1.83858L9.41504 1.60128ZM5 1.57882C5.41416 1.57882 5.74991 1.91468 5.75 2.32882V12.3288C5.75 12.743 5.41421 13.0788 5 13.0788H2.25C2.05109 13.0788 1.86038 12.9997 1.71973 12.8591C1.57912 12.7184 1.5 12.5277 1.5 12.3288V4.23214C1.50009 2.76688 2.68804 1.57882 4.15332 1.57882H5Z" fill="#1D1C1D"/>
</svg>
