<svg width="20" height="20" viewBox="0 0 20 20" fill="none" xmlns="http://www.w3.org/2000/svg">
<path d="M9.41504 18.512C10.8111 18.6992 12.2291 18.6534 13.6104 18.3772L14.0605 18.2874C15.9237 17.9148 17.3858 16.467 17.7773 14.6077L18.6387 10.5159C19.0344 8.63612 17.43 6.93984 15.5312 7.23075L13.1006 7.6038L13.7119 5.77177C13.7143 5.76469 13.7166 5.75743 13.7188 5.75028L14.1045 4.46317C14.4185 3.41658 13.9563 2.29307 12.9971 1.76982C11.7294 1.07849 10.1506 1.71192 9.69629 3.07353C9.45159 3.80679 9.09311 4.50165 8.6377 5.12528L7.14453 7.17021C7.0508 7.2986 7 7.45362 7 7.61259V17.5315C7.00008 17.9071 7.27809 18.2248 7.65039 18.2747L9.41504 18.512ZM5 18.5345C5.41416 18.5345 5.74991 18.1986 5.75 17.7845V7.78446C5.75 7.37025 5.41421 7.03446 5 7.03446H2.25C2.05109 7.03446 1.86038 7.11354 1.71973 7.25419C1.57912 7.39484 1.5 7.58559 1.5 7.78446V15.8811C1.50009 17.3464 2.68804 18.5345 4.15332 18.5345H5Z" fill="#1D1C1D"/>
</svg>
