<svg width="20" height="20" viewBox="0 0 20 20" fill="none" xmlns="http://www.w3.org/2000/svg">
<path d="M8.49609 17.8557C10.1489 18.1872 11.851 18.1873 13.5039 17.8567L13.5605 17.846C15.4238 17.4733 16.8859 16.0256 17.2773 14.1663L18.1387 10.0745C18.5342 8.19482 16.9299 6.49845 15.0312 6.78931L12.6006 7.16236L13.2119 5.33033C13.2143 5.32329 13.2166 5.31595 13.2188 5.30884L13.583 4.09205C13.909 3.00442 13.4293 1.83711 12.4326 1.29322C11.2006 0.621301 9.65731 1.14386 9.08691 2.42603L8.89648 2.85279C8.24972 4.30688 7.27074 5.5886 6.04004 6.59595C6.02675 6.59525 6.01346 6.59302 6 6.59302H1.75C1.55116 6.59302 1.36036 6.67219 1.21973 6.81275C1.07915 6.95333 1.00008 7.14422 1 7.34302V15.4397C1 16.905 2.18798 18.093 3.65332 18.093H6C6.35958 18.093 6.65843 17.8399 6.73145 17.5022L8.49609 17.8557ZM13.21 16.386C11.7515 16.6777 10.2494 16.6775 8.79102 16.385L6.75 15.9749V7.95045L6.88965 7.83912C8.34933 6.67129 9.50793 5.17022 10.2676 3.46217L10.457 3.03541C10.6713 2.5539 11.2511 2.35742 11.7139 2.60963C12.0884 2.81391 12.2689 3.25274 12.1465 3.66138L11.7881 4.85572L10.7881 7.85279C10.7055 8.10057 10.7585 8.37376 10.9268 8.57349C11.0951 8.77316 11.3551 8.87076 11.6133 8.83131L15.2578 8.27271C16.1208 8.14036 16.8506 8.91148 16.6709 9.76588L15.8096 13.8577C15.5417 15.1298 14.5414 16.1203 13.2666 16.3753L13.21 16.386ZM3.65332 16.593C3.01641 16.593 2.5 16.0766 2.5 15.4397V8.09302H5.25V16.593H3.65332Z" fill="#1D1C1D"/>
</svg>
