<svg width="20" height="20" viewBox="0 0 20 20" fill="none" xmlns="http://www.w3.org/2000/svg">
<path d="M8.99609 1.74975C10.6489 1.41825 12.351 1.41818 14.0039 1.74877L14.0605 1.75951C15.9238 2.13218 17.3859 3.57985 17.7773 5.4392L18.6387 9.531C19.0342 11.4107 17.4299 13.107 15.5312 12.8162L13.1006 12.4431L13.7119 14.2751C13.7143 14.2822 13.7166 14.2895 13.7188 14.2966L14.083 15.5134C14.409 16.6011 13.9293 17.7684 12.9326 18.3122C11.7006 18.9842 10.1573 18.4616 9.58691 17.1794L9.39648 16.7527C8.74972 15.2986 7.77074 14.0169 6.54004 13.0095C6.52675 13.0102 6.51346 13.0124 6.5 13.0124H2.25C2.05116 13.0124 1.86036 12.9333 1.71973 12.7927C1.57915 12.6521 1.50008 12.4612 1.5 12.2624V4.16576C1.5 2.70043 2.68798 1.51244 4.15332 1.51244H6.5C6.85958 1.51244 7.15843 1.76553 7.23145 2.10326L8.99609 1.74975ZM13.71 3.21948C12.2515 2.92777 10.7494 2.92794 9.29102 3.22045L7.25 3.63061V11.655L7.38965 11.7664C8.84933 12.9342 10.0079 14.4352 10.7676 16.1433L10.957 16.5701C11.1713 17.0516 11.7511 17.2481 12.2139 16.9958C12.5884 16.7916 12.7689 16.3527 12.6465 15.9441L12.2881 14.7497L11.2881 11.7527C11.2055 11.5049 11.2585 11.2317 11.4268 11.032C11.5951 10.8323 11.8551 10.7347 12.1133 10.7742L15.7578 11.3328C16.6208 11.4651 17.3506 10.694 17.1709 9.83959L16.3096 5.7478C16.0417 4.47568 15.0414 3.4852 13.7666 3.23022L13.71 3.21948ZM4.15332 3.01244C3.51641 3.01244 3 3.52886 3 4.16576V11.5124H5.75V3.01244H4.15332Z" fill="#1D1C1D"/>
</svg>
