<svg width="20" height="20" viewBox="0 0 20 20" fill="none" xmlns="http://www.w3.org/2000/svg">
<path d="M14.6782 3.31183C15.6118 3.06168 16.5714 3.6157 16.8215 4.54927L17.1165 5.65008C17.2576 6.17655 17.0363 6.66759 16.7274 6.96352C16.436 7.24267 16.1139 7.70407 16.2785 8.31823C16.4431 8.93239 16.9527 9.17095 17.3446 9.26703C17.7601 9.36885 18.1972 9.68347 18.3383 10.2099L18.6333 11.3107C18.8834 12.2443 18.3294 13.2039 17.3958 13.454L5.32176 16.6893C4.38819 16.9394 3.4286 16.3854 3.17845 15.4519L2.88349 14.351C2.74244 13.8246 2.96371 13.3335 3.27263 13.0376C3.56398 12.7584 3.88604 12.297 3.72148 11.6829C3.55691 11.0687 3.0473 10.8302 2.65541 10.7341C2.23991 10.6323 1.80276 10.3176 1.66168 9.79119L1.36672 8.69037C1.11657 7.7568 1.67059 6.79721 2.60416 6.54707L14.6782 3.31183ZM2.99239 7.99596C2.85902 8.03169 2.77987 8.16878 2.81561 8.30214L3.08201 9.29637C3.68842 9.459 4.80704 9.93871 5.17037 11.2947C5.53359 12.6502 4.80457 13.6242 4.36069 14.0685L4.62734 15.0636C4.66308 15.197 4.80016 15.2761 4.93353 15.2404L13.3854 12.9757L13.0783 11.8296C13.0068 11.5629 13.1651 11.2887 13.4318 11.2173C13.6986 11.1458 13.9727 11.3041 14.0442 11.5708L14.3513 12.7169L17.0076 12.0052C17.141 11.9694 17.2201 11.8323 17.1844 11.699L16.9177 10.7038C16.3112 10.541 15.1929 10.0621 14.8296 8.70646C14.4663 7.35052 15.1952 6.37577 15.639 5.93172L15.3726 4.93749C15.3369 4.80413 15.1998 4.72498 15.0665 4.76072L12.4102 5.47247L12.7501 6.74119C12.8216 7.0079 12.6633 7.28206 12.3966 7.35356C12.1298 7.42503 11.8557 7.26674 11.7842 7.00001L11.4442 5.73129L2.99239 7.99596ZM12.5907 8.07801C12.8574 8.00656 13.1316 8.16484 13.203 8.43156L13.5913 9.88045C13.6627 10.1472 13.5044 10.4213 13.2377 10.4928C12.971 10.5643 12.6968 10.406 12.6254 10.1393L12.2371 8.69038C12.1657 8.42365 12.3239 8.14948 12.5907 8.07801Z" fill="#1D1C1D"/>
</svg>
