<svg width="20" height="20" viewBox="0 0 20 20" fill="none" xmlns="http://www.w3.org/2000/svg">
<path fill-rule="evenodd" clip-rule="evenodd" d="M12.4747 5.71349C12.5462 5.98023 12.3879 6.25439 12.1211 6.32587C11.8544 6.39734 11.5802 6.23905 11.5088 5.97231L11.056 4.28241L2.60416 6.54707C1.67059 6.79721 1.11657 7.7568 1.36672 8.69037L1.66168 9.79119C1.80276 10.3176 2.23991 10.6323 2.65541 10.7341C3.0473 10.8302 3.55691 11.0687 3.72148 11.6829C3.88604 12.297 3.56398 12.7584 3.27263 13.0376C2.96371 13.3335 2.74244 13.8246 2.88349 14.351L3.17845 15.4519C3.4286 16.3854 4.38819 16.9394 5.32176 16.6893L13.7736 14.4246L13.3205 12.7338C13.249 12.4671 13.4073 12.1929 13.6741 12.1214C13.9408 12.0499 14.215 12.2082 14.2864 12.475L14.7395 14.1658L17.3958 13.454C18.3294 13.2039 18.8834 12.2443 18.6333 11.3107L18.3383 10.2099C18.1972 9.68347 17.7601 9.36885 17.3446 9.26703C16.9527 9.17095 16.4431 8.93239 16.2785 8.31823C16.1139 7.70407 16.436 7.24267 16.7274 6.96352C17.0363 6.66759 17.2576 6.17655 17.1165 5.65008L16.8215 4.54927C16.5714 3.6157 15.6118 3.06168 14.6782 3.31183L12.0219 4.02359L12.4747 5.71349ZM13.2858 10.6725C13.5526 10.6011 13.7108 10.3269 13.6394 10.0602L13.1217 8.12831C13.0503 7.86157 12.7761 7.70328 12.5094 7.77475C12.2426 7.84623 12.0843 8.12039 12.1558 8.38713L12.6735 10.319C12.7449 10.5857 13.0191 10.744 13.2858 10.6725Z" fill="#1D1C1D"/>
</svg>
