<svg width="20" height="20" viewBox="0 0 20 20" fill="none" xmlns="http://www.w3.org/2000/svg">
<path d="M5.41441 1.71978C5.70722 1.427 6.18205 1.42715 6.47496 1.71978L9.84801 5.09283L10.5267 4.41412L10.6019 4.34576C10.9685 4.04648 11.4979 4.04664 11.8646 4.34576L11.9408 4.41412L15.5804 8.0567C15.9705 8.44711 15.9705 9.07931 15.5804 9.46978L14.9027 10.1475L18.2787 13.5235C18.419 13.6641 18.4974 13.8551 18.4974 14.0538C18.4973 14.2525 18.4192 14.4435 18.2787 14.584L14.5834 18.2784C14.2905 18.5711 13.8156 18.5712 13.5228 18.2784L10.1498 14.9053L8.27574 16.7823C8.18357 16.8745 8.0685 16.9412 7.94273 16.9756L2.44664 18.4756C2.18709 18.5464 1.90938 18.4725 1.7191 18.2823C1.52893 18.092 1.45506 17.8143 1.52574 17.5547L3.02476 12.0557L3.05601 11.9639C3.09355 11.8741 3.14888 11.792 3.21812 11.7227L5.09215 9.84771L1.7191 6.47564C1.42661 6.18287 1.42672 5.70794 1.7191 5.4151L5.41441 1.71978ZM11.2093 13.8438L14.0531 16.6876L16.6869 14.0538L15.64 13.0069L14.3607 14.2862C14.1654 14.4812 13.8489 14.4814 13.6537 14.2862C13.4591 14.091 13.4589 13.7742 13.6537 13.5792L14.933 12.2999L13.8421 11.209L11.2093 13.8438ZM3.31773 16.6827L7.13316 15.6407L4.35777 12.8633L3.31773 16.6827ZM3.30992 5.94537L6.15269 8.78717L8.78648 6.15338L7.66148 5.02838L6.42027 6.27057C6.225 6.46565 5.90844 6.46577 5.71324 6.27057C5.51838 6.07534 5.51827 5.7587 5.71324 5.56353L6.95445 4.32135L5.94469 3.3106L3.30992 5.94537ZM12.9476 1.99615C13.6336 1.32822 14.7297 1.33558 15.4066 2.01275L17.9896 4.59771C18.6786 5.28744 18.6711 6.4075 17.973 7.08795L17.4974 7.55084C17.2034 7.83717 16.7329 7.83431 16.4427 7.544L12.4466 3.54498C12.305 3.40313 12.2256 3.21029 12.2269 3.00982C12.2283 2.80938 12.3099 2.61751 12.4535 2.4776L12.9476 1.99615Z" fill="#1D1C1D"/>
</svg>
