<svg width="20" height="20" viewBox="0 0 20 20" fill="none" xmlns="http://www.w3.org/2000/svg">
<path d="M5.42636 1.71967C5.71925 1.42677 6.19401 1.42678 6.4869 1.71967L9.85116 5.08392L12.567 2.3681C13.6409 1.29441 15.3818 1.29435 16.4557 2.3681L17.6305 3.54291C18.7044 4.61685 18.7044 6.35862 17.6305 7.43256L14.9146 10.1474L18.2799 13.5126C18.4203 13.6532 18.4996 13.8441 18.4996 14.0429C18.4995 14.2417 18.4204 14.4326 18.2799 14.5732L14.5885 18.2646C14.2957 18.5574 13.8208 18.5572 13.5279 18.2646L10.1627 14.8994L8.28573 16.7773C8.19346 16.8695 8.07861 16.9363 7.95272 16.9706L2.44784 18.4726C2.18831 18.5433 1.91057 18.4694 1.7203 18.2792C1.53009 18.089 1.45631 17.8112 1.52694 17.5517L3.02792 12.0468L3.06015 11.954C3.09763 11.8645 3.15227 11.7829 3.22128 11.7138L5.09921 9.83588L1.73495 6.47162C1.4421 6.17872 1.44207 5.70395 1.73495 5.41107L5.42636 1.71967ZM4.42245 12.6328L3.31894 16.6796L7.36581 15.5751L7.43905 15.4999L4.49667 12.5576L4.42245 12.6328ZM11.2232 13.8388L14.0582 16.6738L16.6891 14.0429L15.6432 12.997L14.3658 14.2744C14.1705 14.4696 13.854 14.4696 13.6588 14.2744C13.4636 14.0791 13.4635 13.7626 13.6588 13.5673L14.9361 12.29L13.8541 11.2079L11.2232 13.8388ZM5.55722 11.497L8.4996 14.4394L14.4508 8.4892L11.5084 5.54681L5.55722 11.497ZM3.32577 5.94135L6.15976 8.77533L8.79062 6.14447L7.67245 5.02631L6.43222 6.26752C6.237 6.46274 5.92046 6.46265 5.72519 6.26752C5.52992 6.07225 5.52992 5.75575 5.72519 5.56049L6.96542 4.31927L5.95663 3.31049L3.32577 5.94135ZM15.3951 3.42865C14.907 2.94068 14.1157 2.94075 13.6275 3.42865L12.5689 4.48627L15.5113 7.42865L16.5699 6.37201C17.058 5.88389 17.058 5.09259 16.5699 4.60443L15.3951 3.42865Z" fill="#1D1C1D"/>
</svg>
