<svg width="20" height="20" viewBox="0 0 20 20" fill="none" xmlns="http://www.w3.org/2000/svg">
<path d="M11.25 1C12.4926 1 13.5 2.00736 13.5 3.25V3.5H15.75C16.9926 3.5 18 4.50736 18 5.75V7.25C18 7.66421 17.6642 8 17.25 8H16.5V16.25C16.5 17.4926 15.4926 18.5 14.25 18.5H5.75C4.50736 18.5 3.5 17.4926 3.5 16.25V8H2.75C2.33579 8 2 7.66421 2 7.25V5.75C2 4.50736 3.00736 3.5 4.25 3.5H6.5V3.25C6.5 2.00736 7.50736 1 8.75 1H11.25ZM5 16.25C5 16.6642 5.33579 17 5.75 17H14.25C14.6642 17 15 16.6642 15 16.25V8H5V16.25ZM8.25 9.5C8.66421 9.5 9 9.83579 9 10.25V14.75C9 15.1642 8.66421 15.5 8.25 15.5C7.83579 15.5 7.5 15.1642 7.5 14.75V10.25C7.5 9.83579 7.83579 9.5 8.25 9.5ZM11.75 9.5C12.1642 9.5 12.5 9.83579 12.5 10.25V14.75C12.5 15.1642 12.1642 15.5 11.75 15.5C11.3358 15.5 11 15.1642 11 14.75V10.25C11 9.83579 11.3358 9.5 11.75 9.5ZM4.25 5C3.83579 5 3.5 5.33579 3.5 5.75V6.5H16.5V5.75C16.5 5.33579 16.1642 5 15.75 5H4.25ZM8.75 2.5C8.33579 2.5 8 2.83579 8 3.25V3.5H12V3.25C12 2.83579 11.6642 2.5 11.25 2.5H8.75Z" fill="#1D1C1D"/>
</svg>
