<svg width="20" height="20" viewBox="0 0 20 20" fill="none" xmlns="http://www.w3.org/2000/svg">
<path d="M16.5 16.25C16.5 17.4926 15.4926 18.5 14.25 18.5H5.75C4.50736 18.5 3.5 17.4926 3.5 16.25V8.5H16.5V16.25ZM8.25 10C7.83579 10 7.5 10.3358 7.5 10.75V14.75C7.5 15.1642 7.83579 15.5 8.25 15.5C8.66421 15.5 9 15.1642 9 14.75V10.75C9 10.3358 8.66421 10 8.25 10ZM11.75 10C11.3358 10 11 10.3358 11 10.75V14.75C11 15.1642 11.3358 15.5 11.75 15.5C12.1642 15.5 12.5 15.1642 12.5 14.75V10.75C12.5 10.3358 12.1642 10 11.75 10ZM11.25 1C12.4926 1 13.5 2.00736 13.5 3.25V3.5H15.75C16.9926 3.5 18 4.50736 18 5.75V6.25C18 6.66421 17.6642 7 17.25 7H2.75C2.33579 7 2 6.66421 2 6.25V5.75C2 4.50736 3.00736 3.5 4.25 3.5H6.5V3.25C6.5 2.00736 7.50736 1 8.75 1H11.25Z" fill="#1D1C1D"/>
</svg>
