<svg width="20" height="20" viewBox="0 0 20 20" fill="none" xmlns="http://www.w3.org/2000/svg">
<path d="M14.1993 1.6996C15.2901 1.27482 16.5205 1.80222 16.965 2.88515L17.6027 4.44081C17.8653 5.08142 17.5578 5.81363 16.9161 6.07362L12.1573 8.00038H17.2003C17.8905 8.00055 18.4503 8.56013 18.4503 9.25038V16.1322C18.4501 17.4399 17.3898 18.5001 16.0821 18.5004H6.33312C5.0253 18.5002 3.96512 17.44 3.96496 16.1322V11.3129C3.34061 11.5129 2.65918 11.1952 2.41906 10.5736L1.75304 8.84609C1.32737 7.74255 1.8746 6.50308 2.97667 6.07362L14.1993 1.6996ZM5.46496 10.7094V16.1322C5.46512 16.6116 5.85373 17.0002 6.33312 17.0004H16.0821C16.5614 17.0001 16.9501 16.6115 16.9503 16.1322V9.50038H8.5548V9.45839L5.46496 10.7094ZM12.9913 10.7182C13.4382 10.7182 13.8009 11.0809 13.8009 11.5277C13.8008 11.9745 13.4381 12.3372 12.9913 12.3373H9.21496C8.76813 12.3373 8.40552 11.9745 8.40539 11.5277C8.40539 11.0808 8.76804 10.7182 9.21496 10.7182H12.9913ZM15.5773 3.45448C15.4433 3.12825 15.0729 2.97006 14.7443 3.09804L3.5216 7.47109C3.18953 7.60048 3.02418 7.97453 3.15246 8.30702L3.7257 9.7953L16.1193 4.77773L15.5773 3.45448Z" fill="#1D1C1D"/>
</svg>
