<svg width="20" height="20" viewBox="0 0 20 20" fill="none" xmlns="http://www.w3.org/2000/svg">
<path d="M14.1993 1.6996C15.2901 1.27482 16.5205 1.80222 16.965 2.88514L17.6027 4.44081C17.8653 5.08141 17.5578 5.81362 16.9161 6.07362L12.1573 8.00038H17.2003C17.8905 8.00055 18.4503 8.56013 18.4503 9.25038V16.1322C18.45 17.4398 17.3897 18.5001 16.0821 18.5004H6.33312C5.02541 18.5002 3.9653 17.4399 3.96496 16.1322V11.3129C3.3406 11.5129 2.65918 11.1952 2.41906 10.5736L1.75304 8.84608C1.32737 7.74255 1.8746 6.50307 2.97667 6.07362L14.1993 1.6996ZM9.21496 10.7182C8.76804 10.7182 8.40539 11.0808 8.40539 11.5277C8.40559 11.9745 8.76817 12.3373 9.21496 12.3373H12.9913C13.438 12.3372 13.8007 11.9744 13.8009 11.5277C13.8009 11.0809 13.4382 10.7182 12.9913 10.7182H9.21496Z" fill="#1D1C1D"/>
</svg>
