<svg width="20" height="20" viewBox="0 0 20 20" fill="none" xmlns="http://www.w3.org/2000/svg">
<path d="M17.25 17.1191C17.6642 17.1191 18 17.4549 18 17.8691C17.9999 18.2832 17.6641 18.6191 17.25 18.6191H2.75C2.33587 18.6191 2.00013 18.2832 2 17.8691C2 17.4549 2.33579 17.1191 2.75 17.1191H17.25ZM14.5 1.63086C14.9141 1.63086 15.2499 1.96676 15.25 2.38086V10.3809C15.25 13.2804 12.8995 15.6309 10 15.6309C7.10051 15.6309 4.75 13.2804 4.75 10.3809V2.38086C4.75013 1.96676 5.08587 1.63086 5.5 1.63086C5.91413 1.63086 6.24987 1.96676 6.25 2.38086V10.3809C6.25 12.4519 7.92893 14.1309 10 14.1309C12.0711 14.1309 13.75 12.4519 13.75 10.3809V2.38086C13.7501 1.96676 14.0859 1.63086 14.5 1.63086Z" fill="#1D1C1D"/>
</svg>
