<svg width="20" height="20" viewBox="0 0 20 20" fill="none" xmlns="http://www.w3.org/2000/svg">
<path d="M10 1C12.4853 1 14.5 3.01472 14.5 5.5V9.5H14.75C15.9926 9.5 17 10.5074 17 11.75V17.25C17 18.2165 16.2165 19 15.25 19H4.75C3.7835 19 3 18.2165 3 17.25V11.75C3 10.5074 4.00736 9.5 5.25 9.5H13V5.5C13 3.84315 11.6569 2.5 10 2.5C8.34315 2.5 7 3.84315 7 5.5V7.25H5.5V5.5C5.5 3.01472 7.51472 1 10 1ZM5.25 11C4.83579 11 4.5 11.3358 4.5 11.75V17.25C4.5 17.3881 4.61193 17.5 4.75 17.5H15.25C15.3881 17.5 15.5 17.3881 15.5 17.25V11.75C15.5 11.3358 15.1642 11 14.75 11H5.25Z" fill="#1D1C1D"/>
</svg>
