<svg width="12" height="12" viewBox="0 0 12 12" fill="none" xmlns="http://www.w3.org/2000/svg">
<path fill-rule="evenodd" clip-rule="evenodd" d="M6 2C6.9665 2 7.75 2.7835 7.75 3.75V5.5H3.15039C2.37719 5.5 1.75 6.12719 1.75 6.90039V9.90039C1.75021 10.5076 2.24241 10.9998 2.84961 11H9.15039C9.75759 10.9998 10.2498 10.5076 10.25 9.90039V6.90039C10.25 6.12719 9.62281 5.5 8.84961 5.5H8.75V3.75C8.75 2.23122 7.51878 1 6 1C4.48122 1 3.25 2.23122 3.25 3.75V4H4.25V3.75C4.25 2.7835 5.0335 2 6 2Z" fill="#1D1C1D"/>
</svg>
