<svg width="12" height="12" viewBox="0 0 12 12" fill="none" xmlns="http://www.w3.org/2000/svg">
<path d="M8.84961 5.5C9.62281 5.5 10.25 6.12719 10.25 6.90039V9.90039C10.2498 10.5076 9.75759 10.9998 9.15039 11H2.84961C2.24241 10.9998 1.75021 10.5076 1.75 9.90039V6.90039C1.75 6.12719 2.37719 5.5 3.15039 5.5H7.75V3.75C7.75 2.7835 6.9665 2 6 2C5.0335 2 4.25 2.7835 4.25 3.75V4H3.25V3.75C3.25 2.23122 4.48122 1 6 1C7.51878 1 8.75 2.23122 8.75 3.75V5.5H8.84961ZM3.15039 6.5C2.92948 6.5 2.75 6.67948 2.75 6.90039V9.90039C2.75021 9.95531 2.79469 9.99979 2.84961 10H9.15039C9.20531 9.99979 9.24979 9.95531 9.25 9.90039V6.90039C9.25 6.67948 9.07052 6.5 8.84961 6.5H3.15039Z" fill="#1D1C1D"/>
</svg>
