<svg width="20" height="20" viewBox="0 0 20 20" fill="none" xmlns="http://www.w3.org/2000/svg">
<path d="M16.7946 6.38574C16.9786 6.42741 17.1565 6.48197 17.323 6.55273C17.7927 6.75252 18.2255 7.10856 18.3991 7.69336C18.5761 8.2895 18.3951 8.84657 18.1208 9.28516C17.8496 9.71887 17.4446 10.1111 17.0124 10.4531C16.3503 10.9771 15.5294 11.4554 14.7556 11.8447C15.1663 12.6954 15.5924 13.7296 15.8562 14.7012C16.0258 15.3261 16.1415 15.972 16.1198 16.5469C16.0987 17.1057 15.9375 17.7643 15.3708 18.1699C14.8156 18.5673 14.1656 18.4854 13.6706 18.3174C13.1618 18.1446 12.6366 17.8246 12.1482 17.4688C11.394 16.9193 10.6255 16.208 9.98995 15.5732C9.35614 16.2075 8.59048 16.9194 7.83956 17.4688C7.35314 17.8246 6.82967 18.1444 6.32199 18.3174C5.89846 18.4616 5.36185 18.5418 4.86788 18.3125L16.7946 6.38574ZM16.4694 2.46973C16.7623 2.1769 17.2371 2.17705 17.53 2.46973C17.8229 2.76262 17.8229 3.23738 17.53 3.53027L3.52999 17.5303C3.23708 17.823 2.76227 17.8231 2.46945 17.5303C2.17684 17.2374 2.17684 16.7626 2.46945 16.4697L16.4694 2.46973ZM9.98995 1.5C10.6236 1.50017 11.114 1.86329 11.4568 2.25391C11.8043 2.64997 12.0862 3.1682 12.3142 3.70312C12.3933 3.88879 12.4675 4.08186 12.5378 4.2793L5.05831 11.7588C4.3333 11.3862 3.57838 10.9422 2.96163 10.4561C2.5282 10.1144 2.12159 9.72226 1.84933 9.28809C1.57388 8.84878 1.3927 8.29074 1.57003 7.69336C1.74401 7.10748 2.17862 6.75142 2.64913 6.55176C3.10001 6.36056 3.6323 6.28875 4.15402 6.26758C4.98019 6.23408 5.95299 6.32552 6.86691 6.42578C7.03777 5.53303 7.30638 4.54422 7.66476 3.70312C7.89271 3.16822 8.17466 2.64998 8.52218 2.25391C8.86507 1.86316 9.35615 1.50006 9.98995 1.5Z" fill="#1D1C1D"/>
</svg>
