<svg width="20" height="20" viewBox="0 0 20 20" fill="none" xmlns="http://www.w3.org/2000/svg">
<path d="M16.3047 6.94922C16.4604 6.56563 16.8976 6.38088 17.2813 6.53613C17.7657 6.73247 18.2194 7.09028 18.3985 7.69336C18.5755 8.2895 18.3945 8.84657 18.1202 9.28516C17.8489 9.71885 17.444 10.1111 17.0118 10.4531C16.3495 10.9772 15.5288 11.4553 14.7549 11.8447C15.1658 12.6955 15.5927 13.7294 15.8565 14.7012C16.0261 15.326 16.1419 15.9721 16.1202 16.5469C16.099 17.1056 15.9376 17.7642 15.3712 18.1699C14.8159 18.5674 14.166 18.4854 13.671 18.3174C13.162 18.1446 12.6361 17.8247 12.1475 17.4688C11.3928 16.9188 10.6241 16.2064 9.98834 15.5713C9.29753 16.2627 8.44999 17.0494 7.6319 17.6162C7.29143 17.8521 6.82385 17.7672 6.58795 17.4268C6.35244 17.0864 6.43727 16.6197 6.77741 16.3838C7.69222 15.75 8.70338 14.7597 9.44733 13.9814L9.50299 13.9297C9.63805 13.8145 9.81017 13.75 9.98932 13.75C10.1939 13.75 10.3899 13.8336 10.5313 13.9814C11.2239 14.7059 12.1584 15.6209 13.0313 16.2568C13.4717 16.5777 13.8546 16.7961 14.1534 16.8975C14.2992 16.9469 14.3963 16.9587 14.4522 16.957C14.4781 16.9562 14.4921 16.9525 14.4962 16.9512L14.4981 16.9502C14.5098 16.9416 14.6072 16.8593 14.6212 16.4902C14.6346 16.1336 14.5605 15.6546 14.4083 15.0938C14.1059 13.9801 13.5453 12.7262 13.0782 11.8545C12.9802 11.6717 12.9629 11.4562 13.0294 11.2598C13.0958 11.0634 13.2401 10.9032 13.4288 10.8174C14.3316 10.4068 15.3491 9.85656 16.0811 9.27734C16.4494 8.98585 16.7064 8.71686 16.8487 8.48926C16.9877 8.26677 16.9731 8.16103 16.961 8.12012C16.9514 8.0879 16.9369 8.06496 16.9112 8.04004C16.8811 8.01092 16.8237 7.96935 16.7188 7.92676C16.3349 7.77118 16.1492 7.3331 16.3047 6.94922ZM16.4698 2.46973C16.7627 2.17688 17.2375 2.17685 17.5303 2.46973C17.8232 2.76261 17.8232 3.23739 17.5303 3.53027L3.53033 17.5303C3.23746 17.8232 2.76268 17.8231 2.46979 17.5303C2.1769 17.2374 2.17689 16.7626 2.46979 16.4697L16.4698 2.46973ZM9.98932 1.5C10.6485 1.50004 11.1522 1.89223 11.4991 2.30371C11.8529 2.72353 12.14 3.27231 12.3702 3.83691C12.5263 4.22026 12.3422 4.65798 11.959 4.81445C11.5756 4.9708 11.137 4.78674 10.9805 4.40332C10.7786 3.90806 10.5633 3.5206 10.3526 3.27051C10.1353 3.01272 10.0118 3.00003 9.98932 3C9.96776 3.00003 9.85338 3.01083 9.64948 3.24316C9.44981 3.47071 9.24172 3.82707 9.04401 4.29102C8.65115 5.21305 8.36818 6.39589 8.23248 7.35547C8.17553 7.75675 7.80917 8.03983 7.40631 7.99512C6.25406 7.86709 5.11625 7.7291 4.21491 7.76562C3.76448 7.78389 3.44163 7.84474 3.23444 7.93262C3.04718 8.01207 3.01927 8.08182 3.00787 8.12012C2.98813 8.18661 2.98464 8.42732 3.461 8.90137C3.89668 9.33492 4.56109 9.78223 5.29694 10.1895C5.65929 10.39 5.79041 10.8466 5.58991 11.209C5.38937 11.5713 4.93373 11.7023 4.57135 11.502C3.78885 11.0689 2.98315 10.5428 2.40241 9.96484C1.8623 9.42731 1.29575 8.61835 1.57037 7.69336C1.74439 7.10751 2.17797 6.7514 2.6485 6.55176C3.09956 6.3604 3.63239 6.28874 4.15436 6.26758C4.98063 6.23411 5.95329 6.32551 6.86725 6.42578C7.03811 5.5331 7.30578 4.54416 7.66412 3.70312C7.89209 3.16819 8.17498 2.64998 8.52252 2.25391C8.86542 1.86325 9.35562 1.50004 9.98932 1.5Z" fill="#1D1C1D"/>
</svg>
