<svg width="12" height="12" viewBox="0 0 12 12" fill="none" xmlns="http://www.w3.org/2000/svg">
<path d="M5.99995 1.2002C7.49986 1.2002 8.69999 2.27023 8.70015 4.02441C8.70015 5.05506 8.22119 5.93378 7.58882 6.50391C7.94792 6.59551 8.30866 6.7197 8.65328 6.88281C9.53167 7.29861 10.3403 7.97921 10.7226 9.0166C10.9019 9.50323 10.7625 9.97072 10.4687 10.2959C10.1835 10.6114 9.75222 10.7998 9.29976 10.7998H2.70015C2.24776 10.7998 1.81734 10.6113 1.53218 10.2959C1.23825 9.97071 1.09796 9.50334 1.2773 9.0166C1.65953 7.97924 2.46829 7.29863 3.34663 6.88281C3.6909 6.71987 4.05138 6.59549 4.41011 6.50391C3.77804 5.93377 3.29976 5.05475 3.29976 4.02441C3.29992 2.27025 4.50007 1.20022 5.99995 1.2002Z" fill="#1D1C1D"/>
</svg>
