<svg width="20" height="20" viewBox="0 0 20 20" fill="none" xmlns="http://www.w3.org/2000/svg">
<path d="M15.5 1.5C16.6046 1.5 17.5 2.39543 17.5 3.5V16.5C17.5 17.6046 16.6046 18.5 15.5 18.5H5C3.89543 18.5 3 17.6046 3 16.5V14H2C1.58579 14 1.25 13.6642 1.25 13.25C1.25 12.8358 1.58579 12.5 2 12.5H3V10.75H2C1.58579 10.75 1.25 10.4142 1.25 10C1.25 9.58579 1.58579 9.25 2 9.25H3V7.5H2C1.58579 7.5 1.25 7.16421 1.25 6.75C1.25 6.33579 1.58579 6 2 6H3V3.5C3 2.39543 3.89543 1.5 5 1.5H15.5ZM10.5 5.5C9.28707 5.5 8 6.37591 8 8C8 8.81787 8.28001 9.66381 8.84082 10.2695C8.48749 10.3966 8.17084 10.5659 7.8916 10.7695C7.23486 11.2487 6.82626 11.888 6.60742 12.5244C6.42045 13.0683 6.57585 13.5944 6.90039 13.9561C7.21173 14.3027 7.67265 14.5 8.15039 14.5H12.8496C13.3273 14.5 13.7873 14.3027 14.0986 13.9561C14.4234 13.5944 14.5796 13.0685 14.3926 12.5244C14.1737 11.8878 13.7645 11.2487 13.1074 10.7695C12.8282 10.5659 12.5124 10.3966 12.1592 10.2695C12.72 9.66381 13 8.81789 13 8C13 6.37591 11.7129 5.5 10.5 5.5Z" fill="#1D1C1D"/>
</svg>
