<svg width="20" height="20" viewBox="0 0 20 20" fill="none" xmlns="http://www.w3.org/2000/svg">
<path d="M10.0002 2C11.2226 2.00003 12.3568 2.43792 13.1867 3.2666C14.0193 4.09813 14.5001 5.27737 14.5002 6.67285C14.5002 8.15059 13.8927 9.43067 13.05 10.3389C12.8923 10.5087 12.7238 10.6679 12.547 10.8145C13.1789 10.9692 13.8153 11.1845 14.422 11.4717C15.886 12.1647 17.2332 13.2993 17.8703 15.0283C18.1691 15.8394 17.9372 16.6182 17.4474 17.1602C16.9722 17.6859 16.2542 18 15.5002 18H4.50015C3.74608 18 3.02816 17.6859 2.55289 17.1602C2.06309 16.6182 1.83115 15.8395 2.13004 15.0283C2.76716 13.2993 4.11424 12.1647 5.57828 11.4717C6.18475 11.1846 6.82068 10.9692 7.4523 10.8145C7.27573 10.668 7.10784 10.5086 6.95035 10.3389C6.10753 9.43067 5.50015 8.15063 5.50015 6.67285C5.50019 5.27734 5.98097 4.09813 6.81363 3.2666C7.6435 2.43793 8.77771 2 10.0002 2ZM10.0002 12C8.85289 12 7.44852 12.2456 6.21988 12.8271C4.9958 13.4066 4.00015 14.2907 3.53726 15.5469C3.45428 15.7721 3.50335 15.9742 3.66617 16.1543C3.84362 16.3505 4.14977 16.5 4.50015 16.5H15.5002C15.8505 16.5 16.1567 16.3505 16.3341 16.1543C16.4969 15.9742 16.546 15.772 16.463 15.5469C16.0002 14.2907 15.0045 13.4066 13.7804 12.8271C12.5518 12.2456 11.1474 12 10.0002 12ZM10.0002 3.5C9.13953 3.5 8.39844 3.80478 7.87418 4.32812C7.35272 4.84888 7.00019 5.63186 7.00015 6.67285C7.00015 7.73023 7.4346 8.65524 8.04996 9.31836C8.67918 9.99631 9.43006 10.333 10.0002 10.333C10.5702 10.333 11.3212 9.9963 11.9503 9.31836C12.5657 8.65525 13.0002 7.7302 13.0002 6.67285C13.0001 5.6319 12.6476 4.84888 12.1261 4.32812C11.6019 3.80476 10.8608 3.50003 10.0002 3.5Z" fill="#1D1C1D"/>
</svg>
