<svg width="20" height="20" viewBox="0 0 20 20" fill="none" xmlns="http://www.w3.org/2000/svg">
<path d="M14.75 1.5C16.2688 1.5 17.5 2.73122 17.5 4.25V15.75C17.5 17.2688 16.2688 18.5 14.75 18.5H4.75C3.7835 18.5 3 17.7165 3 16.75V16.25C3 15.8358 3.33579 15.5 3.75 15.5C4.16421 15.5 4.5 15.8358 4.5 16.25V16.75C4.5 16.8881 4.61193 17 4.75 17H14.75C15.4404 17 16 16.4404 16 15.75V4.25C16 3.55964 15.4404 3 14.75 3H4.75C4.61193 3 4.5 3.11193 4.5 3.25V3.75C4.5 4.16421 4.16421 4.5 3.75 4.5C3.33579 4.5 3 4.16421 3 3.75V3.25C3 2.2835 3.7835 1.5 4.75 1.5H14.75ZM10.5 5.5C11.7129 5.5 13 6.37591 13 8C13 8.71193 12.7834 9.43717 12.3779 10.002C12.3102 10.0963 12.2336 10.1851 12.1533 10.2715C12.5086 10.3988 12.828 10.565 13.1084 10.7695C13.765 11.2487 14.1737 11.8881 14.3926 12.5244C14.5795 13.0682 14.4241 13.5945 14.0996 13.9561C13.7884 14.3026 13.3281 14.4998 12.8506 14.5H8.15039C7.67276 14.5 7.2127 14.3026 6.90137 13.9561C6.57668 13.5944 6.42138 13.0684 6.6084 12.5244C6.8273 11.888 7.23575 11.2486 7.89258 10.7695C8.17284 10.5652 8.49084 10.3978 8.8457 10.2705C8.76577 10.1844 8.68955 10.0959 8.62207 10.002C8.21659 9.43717 8 8.71193 8 8C8 6.37591 9.28707 5.5 10.5 5.5ZM4.25 12.5C4.66421 12.5 5 12.8358 5 13.25C5 13.6642 4.66421 14 4.25 14H2.25C1.83579 14 1.5 13.6642 1.5 13.25C1.5 12.8358 1.83579 12.5 2.25 12.5H4.25ZM10.5 11.5C9.69563 11.5001 9.14775 11.7107 8.77637 11.9814C8.41495 12.2451 8.17815 12.5975 8.04199 12.9697C8.04743 12.9731 8.05304 12.9792 8.06055 12.9824C8.08513 12.993 8.11624 13 8.15039 13H12.8506C12.8847 12.9999 12.9159 12.993 12.9404 12.9824C12.9476 12.9792 12.9527 12.9729 12.958 12.9697C12.8219 12.5977 12.5857 12.2451 12.2246 11.9814C11.8532 11.7106 11.3045 11.5001 10.5 11.5ZM4.25 9.25C4.66421 9.25 5 9.58579 5 10C5 10.4142 4.66421 10.75 4.25 10.75H2.25C1.83579 10.75 1.5 10.4142 1.5 10C1.5 9.58579 1.83579 9.25 2.25 9.25H4.25ZM10.5 7C9.96293 7 9.5 7.34909 9.5 8C9.5 8.42557 9.6338 8.83861 9.84082 9.12695C10.0434 9.40891 10.2741 9.52539 10.5 9.52539C10.7259 9.52539 10.9566 9.40891 11.1592 9.12695C11.3662 8.83861 11.5 8.42557 11.5 8C11.5 7.34909 11.0371 7 10.5 7ZM4.25 6C4.66421 6 5 6.33579 5 6.75C5 7.16421 4.66421 7.5 4.25 7.5H2.25C1.83579 7.5 1.5 7.16421 1.5 6.75C1.5 6.33579 1.83579 6 2.25 6H4.25Z" fill="#1D1C1D"/>
</svg>
