<svg width="20" height="20" viewBox="0 0 20 20" fill="none" xmlns="http://www.w3.org/2000/svg">
<path d="M16.0967 7.75C16.5109 7.75 16.8467 8.08579 16.8467 8.5V15.75C16.8467 17.2688 15.6155 18.5 14.0967 18.5H5.35449C4.38816 18.4998 3.60449 17.7164 3.60449 16.75V16.6455C3.60449 16.2314 3.94045 15.8957 4.35449 15.8955C4.76871 15.8955 5.10449 16.2313 5.10449 16.6455V16.75C5.10449 16.888 5.21659 16.9998 5.35449 17H14.0967C14.787 17 15.3467 16.4404 15.3467 15.75V8.5C15.3467 8.08582 15.6825 7.75006 16.0967 7.75ZM10.4512 6.86328C11.5794 6.86328 12.7821 7.67947 12.7822 9.19336C12.7822 9.85025 12.5829 10.5204 12.207 11.0439C12.1652 11.1023 12.1185 11.1575 12.0713 11.2129C12.3332 11.3154 12.5733 11.4429 12.79 11.5938C13.3908 12.0119 13.7765 12.5739 13.9941 13.1416C14.2034 13.6878 14.0532 14.2232 13.7275 14.5898C13.4172 14.9392 12.9552 15.1367 12.4775 15.1367H8.42578C7.94812 15.1367 7.48613 14.9392 7.17578 14.5898C6.8501 14.2232 6.69987 13.6879 6.90918 13.1416L6.99902 12.9287C7.22682 12.4352 7.58762 11.9596 8.11328 11.5938C8.32988 11.443 8.56934 11.3154 8.83105 11.2129C8.78403 11.1577 8.73804 11.1021 8.69629 11.0439C8.32044 10.5204 8.12109 9.85025 8.12109 9.19336C8.12119 7.67967 9.3231 6.8635 10.4512 6.86328ZM4.80664 13.1855C5.22077 13.1856 5.55664 13.5214 5.55664 13.9355C5.55661 14.3497 5.22075 14.6854 4.80664 14.6855H3C2.58581 14.6855 2.25003 14.3497 2.25 13.9355C2.25 13.5213 2.58579 13.1855 3 13.1855H4.80664ZM10.4512 12.4277C9.76059 12.4278 9.28977 12.6015 8.96973 12.8242C8.66695 13.0349 8.46111 13.3155 8.33398 13.6172C8.33502 13.6177 8.33583 13.6187 8.33691 13.6191C8.36125 13.6297 8.3918 13.6367 8.42578 13.6367H12.4775C12.5114 13.6367 12.5421 13.6297 12.5664 13.6191L12.5684 13.6172C12.4412 13.3156 12.2353 13.0349 11.9326 12.8242C11.6125 12.6016 11.1416 12.4277 10.4512 12.4277ZM4.80664 10.25C5.22077 10.2501 5.55664 10.5858 5.55664 11C5.55664 11.4142 5.22077 11.7499 4.80664 11.75H3C2.58579 11.75 2.25 11.4142 2.25 11C2.25 10.5858 2.58579 10.25 3 10.25H4.80664ZM10.4512 8.36328C9.99903 8.36347 9.62118 8.65283 9.62109 9.19336C9.62109 9.56388 9.73766 9.92188 9.91504 10.1689C10.0878 10.4096 10.2762 10.4979 10.4512 10.498C10.6263 10.498 10.8153 10.4098 10.9883 10.1689C11.1657 9.92188 11.2822 9.56388 11.2822 9.19336C11.2821 8.65265 10.9035 8.36328 10.4512 8.36328ZM4.80664 7.31445C5.22075 7.31456 5.55661 7.65033 5.55664 8.06445C5.55664 8.4786 5.22077 8.81435 4.80664 8.81445H3C2.58579 8.81445 2.25 8.47867 2.25 8.06445C2.25003 7.65027 2.58581 7.31445 3 7.31445H4.80664ZM16.0488 1.25C16.4628 1.25023 16.7988 1.58593 16.7988 2V3.25H18.0488C18.4628 3.25023 18.7988 3.58593 18.7988 4C18.7988 4.41407 18.4628 4.74977 18.0488 4.75H16.7988V6C16.7988 6.41407 16.4628 6.74977 16.0488 6.75C15.6346 6.75 15.2988 6.41421 15.2988 6V4.75H14.0488C13.6346 4.75 13.2988 4.41421 13.2988 4C13.2988 3.58579 13.6346 3.25 14.0488 3.25H15.2988V2C15.2988 1.58579 15.6346 1.25 16.0488 1.25ZM11.5488 3.25C11.9628 3.25023 12.2988 3.58593 12.2988 4C12.2988 4.41407 11.9628 4.74977 11.5488 4.75H5.35449C5.21659 4.7502 5.10449 4.86205 5.10449 5V5.35449C5.10449 5.76871 4.76871 6.10449 4.35449 6.10449C3.94045 6.10429 3.60449 5.76858 3.60449 5.35449V5C3.60449 4.03362 4.38816 3.2502 5.35449 3.25H11.5488Z" fill="#1D1C1D"/>
</svg>
