<svg width="20" height="20" viewBox="0 0 20 20" fill="none" xmlns="http://www.w3.org/2000/svg">
<path d="M10.0005 2C10.0784 2.00001 10.1559 2.00143 10.2329 2.00488C12.6231 2.11225 14.5005 3.87539 14.5005 6.70801C14.5004 8.41928 13.7087 9.87967 12.6606 10.8301C12.6572 10.8332 12.6533 10.8358 12.6499 10.8389C13.2479 10.9915 13.8485 11.2 14.4224 11.4717C15.8863 12.1647 17.2335 13.2994 17.8706 15.0283C18.1694 15.8394 17.9374 16.6182 17.4477 17.1602C16.9726 17.6859 16.2544 17.9999 15.5005 18H4.50048C3.7464 18 3.02848 17.6859 2.55321 17.1602C2.06335 16.6182 1.83054 15.8395 2.12938 15.0283C2.76652 13.2992 4.11448 12.1647 5.5786 11.4717C6.1521 11.2002 6.75151 10.9915 7.34911 10.8389C7.34586 10.8359 7.34259 10.833 7.33934 10.8301C6.29128 9.87967 5.5006 8.41924 5.50048 6.70801C5.50048 3.87544 7.37694 2.11231 9.76708 2.00488C9.84421 2.00142 9.92232 2 10.0005 2Z" fill="#1D1C1D"/>
</svg>
