<svg width="20" height="20" viewBox="0 0 20 20" fill="none" xmlns="http://www.w3.org/2000/svg">
<path d="M10.0005 2C12.5003 2.0002 14.5005 3.7842 14.5005 6.70801C14.5004 8.42572 13.702 9.88972 12.648 10.8398C12.9074 10.906 13.1674 10.9816 13.4253 11.0693C13.6218 11.1362 13.7504 11.3228 13.7505 11.5303V12.75H12.7505C11.7841 12.75 11.0007 13.5336 11.0005 14.5C11.0005 15.4665 11.784 16.25 12.7505 16.25H13.7505V17.5C13.7505 17.776 13.5265 17.9998 13.2505 18H4.50054C3.74646 18 3.02854 17.6859 2.55327 17.1602C2.06341 16.6182 1.8306 15.8395 2.12945 15.0283C2.76658 13.2992 4.11454 12.1647 5.57866 11.4717C6.15246 11.2001 6.75224 10.9915 7.35015 10.8389C6.29698 9.8887 5.50066 8.42483 5.50054 6.70801C5.50054 3.78403 7.50054 2 10.0005 2ZM15.5005 11C15.9146 11.0002 16.2505 11.3359 16.2505 11.75V13.75H18.2505C18.6646 13.7502 19.0005 14.0859 19.0005 14.5C19.0005 14.9141 18.6646 15.2498 18.2505 15.25H16.2505V17.25C16.2505 17.6641 15.9146 17.9998 15.5005 18C15.0863 18 14.7505 17.6642 14.7505 17.25V15.25H12.7505C12.3363 15.25 12.0005 14.9142 12.0005 14.5C12.0005 14.0858 12.3363 13.75 12.7505 13.75H14.7505V11.75C14.7505 11.3358 15.0863 11 15.5005 11Z" fill="#1D1C1D"/>
</svg>
