<svg width="20" height="20" viewBox="0 0 20 20" fill="none" xmlns="http://www.w3.org/2000/svg">
<path d="M13.7505 9C16.3736 9.00023 18.5005 11.1268 18.5005 13.75C18.5005 16.3732 16.3736 18.4998 13.7505 18.5C11.1271 18.5 9.00046 16.3734 9.00046 13.75C9.00046 11.1266 11.1271 9 13.7505 9ZM10.2329 2.00488C12.6231 2.11225 14.5005 3.87539 14.5005 6.70801C14.5004 6.99213 14.4762 7.26898 14.435 7.53809C14.2102 7.51357 13.9818 7.50002 13.7505 7.5C10.2987 7.50002 7.50046 10.2982 7.50046 13.75C7.50046 15.3918 8.13413 16.8847 9.16941 18H4.50046C3.74641 18 3.02845 17.6859 2.55319 17.1602C2.06336 16.6182 1.83055 15.8395 2.12937 15.0283C2.76649 13.2992 4.11449 12.1647 5.57859 11.4717C6.15206 11.2003 6.75152 10.9915 7.34909 10.8389C7.34586 10.8359 7.34256 10.833 7.33933 10.8301C6.29129 9.87967 5.50059 8.41921 5.50046 6.70801C5.50046 3.87548 7.37697 2.11235 9.76706 2.00488C9.84416 2.00142 9.92233 2 10.0005 2C10.0784 2.00001 10.156 2.00143 10.2329 2.00488ZM11.9663 16.4668C12.4784 16.8037 13.0917 17 13.7505 17C15.5452 16.9998 17.0005 15.5448 17.0005 13.75C17.0005 13.0912 16.8031 12.4789 16.4663 11.9668L11.9663 16.4668ZM13.7505 10.5C11.9555 10.5 10.5005 11.9551 10.5005 13.75C10.5005 14.3425 10.659 14.8977 10.936 15.376L15.3755 10.9365C14.8973 10.6597 14.3427 10.5001 13.7505 10.5Z" fill="#1D1C1D"/>
</svg>
