<svg width="20" height="20" viewBox="0 0 20 20" fill="none" xmlns="http://www.w3.org/2000/svg">
<path d="M11.9997 4.5C12.4997 4.5 12.9726 4.58076 13.4059 4.73047C13.5296 4.7732 13.6503 4.8213 13.7673 4.875C14.1186 5.03623 14.4384 5.2459 14.7194 5.49609C14.8133 5.57963 14.9031 5.66741 14.988 5.75977C15.2422 6.03638 15.455 6.35145 15.6188 6.69727C15.6735 6.81272 15.7228 6.93165 15.7663 7.05371C15.9183 7.48019 15.9997 7.94545 15.9997 8.4375C15.9997 10.0811 15.4353 11.407 14.6061 12.2891C14.5979 12.2978 14.589 12.3058 14.5807 12.3145C15.0181 12.4251 15.4497 12.5655 15.863 12.7441C17.0969 13.2775 18.2167 14.1534 18.821 15.4951C19.1853 16.304 18.9672 17.1017 18.4782 17.6523C18.0077 18.182 17.2845 18.5 16.53 18.5H7.4704C6.71574 18.5 5.99164 18.1821 5.52118 17.6523C5.03224 17.1017 4.81512 16.304 5.17938 15.4951C5.78373 14.1534 6.90349 13.2775 8.13739 12.7441C8.55032 12.5657 8.98167 12.426 9.41864 12.3154C9.41022 12.3066 9.40161 12.298 9.39325 12.2891C8.56429 11.407 7.99969 10.081 7.99969 8.4375C7.99969 6.1876 9.71413 4.50015 11.9997 4.5ZM8.11493 1.5C8.36167 1.50002 8.60097 1.51624 8.83173 1.54785C9.24194 1.60421 9.52949 1.98233 9.47333 2.39258C9.41711 2.80277 9.03876 3.09009 8.6286 3.03418C8.46811 3.01218 8.29656 3.00002 8.11493 3C6.40381 3 5.48016 4.19245 5.48016 5.5C5.48016 6.46648 5.80215 7.46303 6.82489 8.79297C6.84036 8.8131 6.85376 8.83434 6.86688 8.85547C6.8728 8.865 6.87798 8.87493 6.88348 8.88477C6.896 8.9071 6.90667 8.92999 6.91669 8.95312C6.92746 8.97807 6.93593 9.00386 6.94403 9.03027C6.95051 9.05135 6.95607 9.07234 6.96063 9.09375C6.96329 9.10619 6.96835 9.11817 6.9704 9.13086C6.97253 9.1441 6.97093 9.15771 6.97235 9.1709C6.97445 9.19082 6.97673 9.2105 6.97723 9.23047C6.97805 9.26021 6.97598 9.28926 6.97333 9.31836C6.9716 9.33706 6.96961 9.3555 6.96649 9.37402C6.96196 9.40093 6.95628 9.42713 6.94891 9.45312C6.94351 9.4723 6.93729 9.49102 6.93036 9.50977C6.92135 9.53399 6.91051 9.55701 6.89911 9.58008C6.88907 9.60047 6.87981 9.6211 6.86786 9.64062C6.85439 9.6626 6.83857 9.68265 6.82294 9.70312C6.80945 9.72076 6.79713 9.73929 6.78192 9.75586C6.77647 9.76182 6.77096 9.76765 6.76532 9.77344C6.74094 9.79833 6.71559 9.82288 6.68719 9.84473C6.68497 9.84643 6.68162 9.84695 6.67938 9.84863C6.67266 9.85369 6.66578 9.85844 6.65887 9.86328C6.62614 9.88621 6.59321 9.90777 6.55829 9.9248C6.51606 9.94534 6.47119 9.96212 6.4245 9.97461L6.3493 9.99023H6.34833C6.34469 9.99088 6.33733 9.99236 6.32782 9.99414C6.30839 9.99779 6.27714 10.0038 6.23602 10.0127C6.15236 10.0309 6.02702 10.061 5.87274 10.1055C5.56232 10.195 5.14026 10.3422 4.69598 10.5703C3.79959 11.0307 2.88354 11.7809 2.50946 12.9912C2.47463 13.104 2.49746 13.2025 2.58661 13.2998C2.6877 13.41 2.86755 13.4999 3.07977 13.5H3.30145C3.71555 13.5001 4.05145 13.8359 4.05145 14.25C4.05145 14.6641 3.71555 14.9999 3.30145 15H3.07977C2.46376 14.9999 1.87728 14.7453 1.48114 14.3135C1.07347 13.8688 0.867353 13.2271 1.07684 12.5488C1.61485 10.808 2.91775 9.79803 4.01141 9.23633C4.36766 9.05339 4.70998 8.91426 5.00946 8.80859C4.29227 7.65752 3.98016 6.6022 3.98016 5.5C3.98016 3.42221 5.51836 1.5 8.11493 1.5Z" fill="#1D1C1D"/>
</svg>
