<svg width="20" height="20" viewBox="0 0 20 20" fill="none" xmlns="http://www.w3.org/2000/svg">
<path d="M9.00015 2C10.2226 2.00003 11.3568 2.43792 12.1867 3.2666C13.0193 4.09813 13.5001 5.27737 13.5002 6.67285C13.5002 8.15059 12.8927 9.43067 12.05 10.3389C11.8925 10.5086 11.7236 10.667 11.547 10.8135C11.8646 10.8912 12.1832 10.9839 12.4982 11.0938C12.889 11.2303 13.0953 11.6579 12.9591 12.0488C12.8228 12.4398 12.3951 12.6469 12.0041 12.5107C10.9814 12.1541 9.90688 12 9.00015 12C7.85289 12 6.44852 12.2456 5.21988 12.8271C3.9958 13.4066 3.00015 14.2907 2.53726 15.5469C2.45428 15.7721 2.50335 15.9742 2.66617 16.1543C2.84362 16.3505 3.14977 16.5 3.50015 16.5H12.2502C12.6643 16.5001 13.0002 16.8358 13.0002 17.25C13.0002 17.6642 12.6643 17.9999 12.2502 18H3.50015C2.74608 18 2.02816 17.6859 1.55289 17.1602C1.06309 16.6182 0.831146 15.8395 1.13004 15.0283C1.76716 13.2993 3.11424 12.1647 4.57828 11.4717C5.18475 11.1846 5.82068 10.9692 6.4523 10.8145C6.27573 10.668 6.10784 10.5086 5.95035 10.3389C5.10753 9.43067 4.50015 8.15063 4.50015 6.67285C4.50019 5.27734 4.98097 4.09813 5.81363 3.2666C6.6435 2.43793 7.77771 2 9.00015 2ZM15.5002 11C15.9143 11.0001 16.2502 11.3358 16.2502 11.75V13.75H18.2502C18.6643 13.7501 19.0002 14.0858 19.0002 14.5C19.0002 14.9142 18.6643 15.2499 18.2502 15.25H16.2502V17.25C16.2502 17.6642 15.9143 17.9999 15.5002 18C15.0859 18 14.7502 17.6642 14.7502 17.25V15.25H12.7502C12.3359 15.25 12.0002 14.9142 12.0002 14.5C12.0002 14.0858 12.3359 13.75 12.7502 13.75H14.7502V11.75C14.7502 11.3358 15.0859 11 15.5002 11ZM9.00015 3.5C8.13953 3.5 7.39844 3.80478 6.87418 4.32812C6.35272 4.84888 6.00019 5.63186 6.00015 6.67285C6.00015 7.73023 6.4346 8.65524 7.04996 9.31836C7.67918 9.99631 8.43006 10.333 9.00015 10.333C9.57025 10.333 10.3212 9.9963 10.9503 9.31836C11.5657 8.65525 12.0002 7.7302 12.0002 6.67285C12.0001 5.6319 11.6476 4.84888 11.1261 4.32812C10.6019 3.80476 9.86075 3.50003 9.00015 3.5Z" fill="#1D1C1D"/>
</svg>
