<svg width="20" height="20" viewBox="0 0 20 20" fill="none" xmlns="http://www.w3.org/2000/svg">
<path d="M13.7502 9C16.3734 9.00008 18.5002 11.1267 18.5002 13.75C18.5002 16.3733 16.3734 18.4999 13.7502 18.5C11.1268 18.5 9.00015 16.3734 9.00015 13.75C9.00015 11.1266 11.1268 9 13.7502 9ZM10.0002 2C11.2226 2.00003 12.3568 2.43792 13.1867 3.2666C14.0193 4.09813 14.5001 5.27737 14.5002 6.67285C14.5002 6.96947 14.4738 7.25783 14.4279 7.53711C14.2052 7.51309 13.9792 7.50001 13.7502 7.5C13.4599 7.5 13.1744 7.52128 12.8947 7.55957C12.9621 7.27726 13.0002 6.98081 13.0002 6.67285C13.0001 5.6319 12.6476 4.84888 12.1261 4.32812C11.6019 3.80476 10.8608 3.50003 10.0002 3.5C9.13953 3.5 8.39844 3.80478 7.87418 4.32812C7.35272 4.84888 7.00019 5.63186 7.00015 6.67285C7.00015 7.73023 7.4346 8.65524 8.04996 9.31836C8.28706 9.57383 8.54156 9.78065 8.79703 9.93945C8.26597 10.6287 7.87595 11.4315 7.6691 12.3057C7.17648 12.4345 6.68557 12.6067 6.21988 12.8271C4.9958 13.4066 4.00015 14.2907 3.53726 15.5469C3.45428 15.7721 3.50335 15.9742 3.66617 16.1543C3.84362 16.3505 4.14977 16.5 4.50015 16.5H8.13687C8.40714 17.0506 8.75622 17.5552 9.1691 18H4.50015C3.74608 18 3.02816 17.6859 2.55289 17.1602C2.06309 16.6182 1.83115 15.8395 2.13004 15.0283C2.76716 13.2993 4.11424 12.1647 5.57828 11.4717C6.18475 11.1846 6.82068 10.9692 7.4523 10.8145C7.27573 10.668 7.10784 10.5086 6.95035 10.3389C6.10753 9.43067 5.50015 8.15063 5.50015 6.67285C5.50019 5.27734 5.98097 4.09813 6.81363 3.2666C7.6435 2.43793 8.77771 2 10.0002 2ZM11.966 16.4668C12.4781 16.8038 13.0913 17 13.7502 17C15.545 16.9999 17.0002 15.5449 17.0002 13.75C17.0002 13.0912 16.8029 12.4789 16.466 11.9668L11.966 16.4668ZM13.7502 10.5C11.9552 10.5 10.5002 11.9551 10.5002 13.75C10.5002 14.3423 10.6599 14.8968 10.9367 15.375L15.3752 10.9365C14.897 10.6597 14.3424 10.5 13.7502 10.5Z" fill="#1D1C1D"/>
</svg>
