<svg width="20" height="20" viewBox="0 0 20 20" fill="none" xmlns="http://www.w3.org/2000/svg">
<path d="M15.5 11.9995C15.9141 11.9995 16.2499 12.3354 16.25 12.7495V14.7495H18.25C18.6641 14.7495 18.9999 15.0854 19 15.4995C19 15.9137 18.6642 16.2494 18.25 16.2495H16.25V18.2495C16.25 18.6637 15.9142 18.9994 15.5 18.9995C15.0858 18.9995 14.75 18.6637 14.75 18.2495V16.2495H12.75C12.3358 16.2495 12 15.9137 12 15.4995C12.0002 15.0854 12.3359 14.7495 12.75 14.7495H14.75V12.7495C14.7502 12.3354 15.0859 11.9995 15.5 11.9995ZM12 2.24945C14.2856 2.24946 15.9999 3.93708 16 6.18695C16 9.2807 14 11.2494 12 11.2495C10.9081 11.2495 9.73281 11.4382 8.73244 11.8705C7.7359 12.3013 6.95596 12.9526 6.54689 13.8608C6.45769 14.0589 6.49121 14.235 6.6426 14.4057C6.81281 14.5974 7.11993 14.7494 7.46975 14.7495H9.50002C9.91404 14.7496 10.2499 15.0854 10.25 15.4995C10.25 15.9136 9.91412 16.2493 9.50002 16.2495H7.46975C6.71525 16.2494 5.99192 15.9314 5.5215 15.4018C5.03265 14.8511 4.8145 14.0534 5.17873 13.2446C5.78303 11.9029 6.90292 11.0269 8.13674 10.4936C8.54996 10.315 8.9816 10.1745 9.41896 10.0639C8.57653 9.18203 8.00002 7.84669 8.00002 6.18695C8.00014 3.93708 9.71439 2.24945 12 2.24945ZM7.58303 1.0268C7.99469 0.982601 8.36472 1.28124 8.4092 1.69281C8.45341 2.10466 8.15503 2.47477 7.74318 2.51899C6.28445 2.67594 5.47972 3.77746 5.47951 4.99945C5.47956 5.96575 5.80187 6.96282 6.82424 8.29242C6.86286 8.3427 6.89197 8.39788 6.91603 8.45356C6.9262 8.47713 6.93559 8.50094 6.94338 8.52582C6.95057 8.54876 6.95604 8.57183 6.96096 8.59516C6.96345 8.60697 6.96878 8.61826 6.97072 8.63031C6.97274 8.64284 6.9713 8.65592 6.97268 8.6684C6.97519 8.69155 6.97622 8.71453 6.97658 8.73774C6.97701 8.76246 6.97661 8.78669 6.97463 8.81098C6.97285 8.83263 6.97046 8.85402 6.96682 8.87543C6.96227 8.90208 6.95559 8.9278 6.94826 8.95356C6.94296 8.97234 6.93745 8.99086 6.93068 9.00922C6.92107 9.0351 6.90981 9.05986 6.89748 9.08441C6.88855 9.10228 6.87957 9.11994 6.86916 9.13715C6.85537 9.15987 6.84033 9.18144 6.82424 9.20258C6.81024 9.22095 6.79713 9.24006 6.78127 9.25727C6.77675 9.26219 6.77225 9.26711 6.7676 9.27191C6.74266 9.29756 6.71572 9.32174 6.68654 9.34418L6.68361 9.34516C6.6747 9.35196 6.66551 9.35827 6.65627 9.36469C6.62418 9.38697 6.59181 9.40762 6.55764 9.42426C6.55107 9.42745 6.54381 9.42907 6.53713 9.43207C6.49291 9.45202 6.44766 9.46711 6.40139 9.47797L6.34963 9.48969H6.34865C6.34504 9.49032 6.3379 9.49176 6.32814 9.49359C6.30835 9.49731 6.27583 9.5039 6.23342 9.51313C6.14839 9.53164 6.02156 9.56159 5.86525 9.60688C5.55017 9.69819 5.12253 9.84868 4.67385 10.0815C3.76908 10.551 2.84994 11.3169 2.49123 12.5551C2.46313 12.6524 2.4822 12.7366 2.56057 12.8217C2.65013 12.9189 2.80986 12.9994 3.00002 12.9995C3.41409 12.9995 3.74989 13.3354 3.75002 13.7495C3.75002 14.1636 3.41417 14.4994 3.00002 14.4995C2.40601 14.4994 1.84167 14.2545 1.45803 13.8383C1.0636 13.4103 0.859923 12.7928 1.04982 12.1371C1.56541 10.3576 2.87623 9.32458 3.98244 8.75043C4.3491 8.56016 4.70214 8.41741 5.00978 8.30902C4.29237 7.15775 3.97955 6.10179 3.97951 4.99945C3.97973 3.08054 5.29496 1.27279 7.58303 1.0268ZM12 3.74945C10.5205 3.74945 9.50014 4.78769 9.50002 6.18695C9.50002 8.52834 10.8562 9.61073 11.8145 9.73676L12 9.74945L12.1856 9.73676C13.1438 9.61072 14.5 8.52832 14.5 6.18695C14.4999 4.78769 13.4796 3.74946 12 3.74945Z" fill="#1D1C1D"/>
</svg>
