<svg width="12" height="12" viewBox="0 0 12 12" fill="none" xmlns="http://www.w3.org/2000/svg">
<path d="M8.85004 0.850586C9.78872 0.850817 10.5502 1.61204 10.5502 2.55078V9.4502C10.5502 10.3889 9.78873 11.1502 8.85004 11.1504H2.85004C2.24277 11.1502 1.75053 10.6581 1.75043 10.0508V9.75098C1.75043 9.47483 1.97428 9.25098 2.25043 9.25098C2.52637 9.25121 2.75043 9.47498 2.75043 9.75098V10.0508C2.75053 10.1058 2.79505 10.1502 2.85004 10.1504H8.85004C9.23644 10.1502 9.55023 9.83665 9.55023 9.4502V2.55078C9.55023 2.16432 9.23644 1.85082 8.85004 1.85059H2.85004C2.79512 1.8508 2.75064 1.89528 2.75043 1.9502V2.25098C2.75022 2.5268 2.52624 2.75075 2.25043 2.75098C1.97442 2.75098 1.75064 2.52694 1.75043 2.25098V1.9502C1.75064 1.34299 2.24283 0.850797 2.85004 0.850586H8.85004ZM6.30023 3.25C7.05035 3.25021 7.84993 3.79323 7.85004 4.7998C7.85004 5.23642 7.718 5.68222 7.4682 6.03027C7.44102 6.06814 7.40989 6.10366 7.37933 6.13965C7.569 6.21402 7.7412 6.30875 7.89496 6.4209C8.29842 6.71529 8.54891 7.10886 8.68304 7.49902C8.8015 7.84396 8.70284 8.17823 8.4975 8.40723C8.30083 8.62623 8.0103 8.74987 7.71039 8.75H4.89008C4.59024 8.74989 4.30063 8.6261 4.10394 8.40723C3.8983 8.17822 3.79887 7.84421 3.91742 7.49902L3.97308 7.35254C4.11647 7.01186 4.35328 6.67852 4.70648 6.4209C4.85997 6.30903 5.03098 6.21393 5.22015 6.13965C5.18982 6.10389 5.16025 6.06787 5.13324 6.03027C4.88333 5.68219 4.75043 5.23651 4.75043 4.7998C4.75053 3.79312 5.55005 3.25009 6.30023 3.25ZM2.55023 7.4502C2.82628 7.4503 3.05023 7.67412 3.05023 7.9502C3.05023 8.22627 2.82628 8.45009 2.55023 8.4502H1.35004C1.07389 8.4502 0.850037 8.22634 0.850037 7.9502C0.850037 7.67405 1.07389 7.4502 1.35004 7.4502H2.55023ZM6.30023 6.9502C5.82686 6.95024 5.50853 7.07411 5.29535 7.22949C5.10394 7.36918 4.97596 7.55368 4.89496 7.75H7.70648C7.6255 7.55356 7.4966 7.36926 7.30511 7.22949C7.09197 7.07405 6.77367 6.95028 6.30023 6.9502ZM2.55023 5.5C2.82628 5.50011 3.05023 5.72392 3.05023 6C3.05023 6.27608 2.82628 6.49989 2.55023 6.5H1.35004C1.07389 6.5 0.850037 6.27614 0.850037 6C0.850037 5.72386 1.07389 5.5 1.35004 5.5H2.55023ZM6.30023 4.25C6.00066 4.25008 5.75052 4.4419 5.75043 4.7998C5.75043 5.0456 5.82815 5.28347 5.94574 5.44727C6.0602 5.60637 6.18482 5.66497 6.30023 5.66504C6.4157 5.6649 6.54122 5.60662 6.6557 5.44727C6.77321 5.28348 6.85004 5.0455 6.85004 4.7998C6.84995 4.44199 6.5997 4.25018 6.30023 4.25ZM2.55023 3.55078C2.82628 3.55089 3.05023 3.7747 3.05023 4.05078C3.05023 4.32686 2.82628 4.55068 2.55023 4.55078H1.35004C1.07389 4.55078 0.850037 4.32692 0.850037 4.05078C0.850037 3.77464 1.07389 3.55078 1.35004 3.55078H2.55023Z" fill="#1D1C1D"/>
</svg>
