<svg width="12" height="12" viewBox="0 0 12 12" fill="none" xmlns="http://www.w3.org/2000/svg">
<path d="M6.00025 1.15039C6.74559 1.15049 7.4395 1.41755 7.94751 1.9248C8.45732 2.43403 8.75018 3.15498 8.75025 4.00391C8.75025 4.90453 8.37968 5.6852 7.86646 6.23828C7.79289 6.31752 7.7138 6.39166 7.63306 6.46289C7.98468 6.55452 8.33749 6.67812 8.67505 6.83789C9.56126 7.25751 10.3818 7.94702 10.7698 9C10.956 9.50597 10.8107 9.99295 10.5061 10.3301C10.2111 10.6565 9.76582 10.8495 9.30005 10.8496H2.70044C2.23462 10.8496 1.78948 10.6564 1.49439 10.3301C1.18966 9.99292 1.0444 9.50612 1.23072 9C1.61877 7.94696 2.43914 7.25748 3.32544 6.83789C3.66285 6.67822 4.01501 6.55448 4.36646 6.46289C4.28582 6.39175 4.20752 6.31742 4.13404 6.23828C3.62072 5.68519 3.25025 4.90464 3.25025 4.00391C3.25031 3.15487 3.54305 2.43404 4.05298 1.9248C4.56107 1.41759 5.25485 1.15039 6.00025 1.15039ZM6.00025 7.25C5.31817 7.25 4.4826 7.39603 3.75318 7.74121C3.02682 8.08506 2.44112 8.60784 2.16919 9.3457C2.12677 9.46113 2.14992 9.56327 2.23658 9.65918C2.33314 9.76588 2.50374 9.84961 2.70044 9.84961H9.30005C9.49671 9.84949 9.66745 9.7659 9.76392 9.65918C9.85039 9.56337 9.87363 9.461 9.8313 9.3457C9.55944 8.60789 8.97356 8.08508 8.24732 7.74121C7.51796 7.39599 6.68236 7.25006 6.00025 7.25ZM6.00025 2.15039C5.49598 2.15039 5.06438 2.32903 4.76001 2.63281C4.45754 2.93487 4.25031 3.39123 4.25025 4.00391C4.25025 4.6243 4.50484 5.16792 4.86646 5.55762C5.2373 5.9571 5.67579 6.15039 6.00025 6.15039C6.32472 6.15023 6.76331 5.95707 7.13404 5.55762C7.49555 5.16793 7.75025 4.62419 7.75025 4.00391C7.75018 3.39136 7.54284 2.93487 7.24048 2.63281C6.93619 2.32899 6.50445 2.15049 6.00025 2.15039Z" fill="#1D1C1D"/>
</svg>
