<svg width="12" height="12" viewBox="0 0 12 12" fill="none" xmlns="http://www.w3.org/2000/svg">
<path d="M9.29962 0.900391C9.96236 0.900391 10.4998 1.43784 10.4998 2.10059V9.90039C10.4998 10.5631 9.96236 11.1006 9.29962 11.1006H2.99982C2.33715 11.1005 1.79962 10.5631 1.79962 9.90039V8.4502H1.20001C0.92387 8.4502 0.700012 8.22634 0.700012 7.9502C0.700012 7.67405 0.92387 7.4502 1.20001 7.4502H1.79962V6.5H1.20001C0.92387 6.5 0.700012 6.27614 0.700012 6C0.700012 5.72386 0.92387 5.5 1.20001 5.5H1.79962V4.5498H1.20001C0.92387 4.5498 0.700012 4.32595 0.700012 4.0498C0.700012 3.77366 0.92387 3.5498 1.20001 3.5498H1.79962V2.10059C1.79962 1.4379 2.33715 0.900483 2.99982 0.900391H9.29962ZM6.29962 3.30078C5.57197 3.30096 4.79962 3.82649 4.79962 4.80078C4.79971 5.29138 4.96811 5.79877 5.3045 6.16211C5.09251 6.23836 4.90271 6.33971 4.73517 6.46191C4.34092 6.74948 4.09597 7.13365 3.96466 7.51562C3.8526 7.84191 3.94571 8.15712 4.14044 8.37402C4.32714 8.58192 4.60299 8.70007 4.88947 8.7002H7.70978C7.99642 8.7002 8.27297 8.58204 8.45978 8.37402C8.65438 8.15715 8.74753 7.84179 8.63556 7.51562C8.50427 7.13373 8.25916 6.74946 7.86505 6.46191C7.69756 6.33975 7.50763 6.23835 7.29572 6.16211C7.63209 5.79878 7.79953 5.29136 7.79962 4.80078C7.79962 3.82633 7.02738 3.30078 6.29962 3.30078Z" fill="#1D1C1D"/>
</svg>
