<svg width="20" height="20" viewBox="0 0 20 20" fill="none" xmlns="http://www.w3.org/2000/svg">
<path d="M8.99969 2C10.222 2 11.3564 2.43808 12.1862 3.2666C13.0189 4.09813 13.4997 5.27734 13.4997 6.67285C13.4997 8.15067 12.8923 9.43067 12.0495 10.3389C11.8197 10.5864 11.5657 10.8098 11.2975 11.0059C11.3886 11.1551 11.4309 11.3356 11.3991 11.5215C11.3291 11.9295 10.941 12.2036 10.5329 12.1338C9.99467 12.0418 9.47259 12 8.99969 12C7.85251 12.0001 6.44788 12.2457 5.21942 12.8271C3.99553 13.4066 2.99962 14.2908 2.5368 15.5469C2.45393 15.7719 2.50308 15.9743 2.66571 16.1543C2.84304 16.3505 3.14946 16.4998 3.49969 16.5H10.4489C10.8631 16.5 11.1989 16.8358 11.1989 17.25C11.1989 17.6642 10.8631 18 10.4489 18H3.49969C2.7458 17.9998 2.02757 17.6858 1.55242 17.1602C1.06283 16.6182 0.830811 15.8393 1.12957 15.0283C1.76662 13.2994 3.11394 12.1647 4.57782 11.4717C5.18415 11.1847 5.82036 10.9681 6.45184 10.8135C6.27563 10.6672 6.10708 10.5082 5.94989 10.3389C5.10721 9.43069 4.49969 8.15047 4.49969 6.67285C4.49972 5.27745 4.98064 4.09812 5.81317 3.2666C6.64292 2.43797 7.7774 2.00014 8.99969 2ZM15.4997 11C17.4327 11 18.9997 12.567 18.9997 14.5C18.9997 16.433 17.4327 18 15.4997 18C13.5669 17.9997 11.9997 16.4328 11.9997 14.5C11.9997 12.5672 13.5669 11.0003 15.4997 11ZM15.4997 12.5C14.3954 12.5003 13.4997 13.3956 13.4997 14.5C13.4997 15.6044 14.3954 16.4997 15.4997 16.5C16.6043 16.5 17.4997 15.6046 17.4997 14.5C17.4997 13.3954 16.6043 12.5 15.4997 12.5ZM8.99969 3.5C8.13924 3.50014 7.39787 3.8048 6.87371 4.32812C6.35237 4.84888 5.99972 5.632 5.99969 6.67285C5.99969 7.73008 6.43427 8.65526 7.04949 9.31836C7.67852 9.99612 8.42965 10.3328 8.99969 10.333C9.56974 10.333 10.3207 9.99621 10.9499 9.31836C11.5653 8.65524 11.9997 7.73028 11.9997 6.67285C11.9997 5.63186 11.6471 4.84888 11.1257 4.32812C10.6014 3.80491 9.86019 3.5 8.99969 3.5Z" fill="#1D1C1D"/>
</svg>
