<svg width="20" height="20" viewBox="0 0 20 20" fill="none" xmlns="http://www.w3.org/2000/svg">
<path d="M11.9996 4.5C14.2853 4.5 15.9996 6.1875 15.9996 8.4375C15.9996 10.0977 15.4226 11.4326 14.5797 12.3145C15.0173 12.4251 15.4494 12.5654 15.8629 12.7441C17.0967 13.2775 18.2166 14.1535 18.8209 15.4951C19.1851 16.3039 18.968 17.1017 18.4791 17.6523C18.0088 18.1819 17.2852 18.4998 16.5309 18.5H7.47034C6.71584 18.5 5.99256 18.1819 5.52209 17.6523C5.03308 17.1017 4.81503 16.304 5.17932 15.4951C5.78364 14.1534 6.90348 13.2775 8.13733 12.7441C8.55025 12.5657 8.98155 12.426 9.41858 12.3154C8.57591 11.4336 7.99963 10.0975 7.99963 8.4375C7.99963 6.18762 9.7141 4.50018 11.9996 4.5ZM12.0006 13.5C10.9087 13.5 9.7334 13.6888 8.73303 14.1211C7.73645 14.5518 6.95657 15.2031 6.54748 16.1113C6.45824 16.3095 6.49161 16.4855 6.64319 16.6562C6.81347 16.8479 7.12053 17 7.47034 17H16.5309C16.8804 16.9998 17.1869 16.8478 17.3571 16.6562C17.5086 16.4855 17.5429 16.3094 17.4537 16.1113C17.0447 15.2031 16.2647 14.5519 15.2682 14.1211C14.2679 13.6887 13.0926 13.5001 12.0006 13.5ZM8.11487 1.5C8.36161 1.50002 8.60091 1.51624 8.83166 1.54785C9.24187 1.60421 9.52943 1.98233 9.47327 2.39258C9.41704 2.80277 9.0387 3.09009 8.62854 3.03418C8.46805 3.01218 8.2965 3.00002 8.11487 3C6.40374 3 5.4801 4.19245 5.4801 5.5C5.4801 6.46648 5.80209 7.46303 6.82483 8.79297C6.8403 8.8131 6.8537 8.83434 6.86682 8.85547C6.87274 8.865 6.87792 8.87493 6.88342 8.88477C6.89594 8.9071 6.90661 8.92999 6.91663 8.95312C6.9274 8.97807 6.93586 9.00386 6.94397 9.03027C6.95045 9.05135 6.95601 9.07234 6.96057 9.09375C6.96323 9.10619 6.96829 9.11817 6.97034 9.13086C6.97247 9.1441 6.97087 9.15771 6.97229 9.1709C6.97439 9.19082 6.97667 9.2105 6.97717 9.23047C6.97799 9.26021 6.97592 9.28926 6.97327 9.31836C6.97154 9.33706 6.96955 9.3555 6.96643 9.37402C6.9619 9.40093 6.95622 9.42713 6.94885 9.45312C6.94345 9.4723 6.93723 9.49102 6.9303 9.50977C6.92129 9.53399 6.91045 9.55701 6.89905 9.58008C6.88901 9.60047 6.87974 9.6211 6.8678 9.64062C6.85433 9.6626 6.83851 9.68265 6.82288 9.70312C6.80939 9.72076 6.79707 9.73929 6.78186 9.75586C6.77641 9.76182 6.7709 9.76765 6.76526 9.77344C6.74088 9.79833 6.71553 9.82288 6.68713 9.84473C6.68491 9.84643 6.68156 9.84695 6.67932 9.84863C6.6726 9.85369 6.66572 9.85844 6.65881 9.86328C6.62608 9.88621 6.59315 9.90777 6.55823 9.9248C6.516 9.94534 6.47112 9.96212 6.42444 9.97461L6.34924 9.99023H6.34827C6.34463 9.99088 6.33726 9.99236 6.32776 9.99414C6.30833 9.99779 6.27708 10.0038 6.23596 10.0127C6.15229 10.0309 6.02695 10.061 5.87268 10.1055C5.56226 10.195 5.1402 10.3422 4.69592 10.5703C3.79952 11.0307 2.88348 11.7809 2.5094 12.9912C2.47457 13.104 2.4974 13.2025 2.58655 13.2998C2.68763 13.41 2.86749 13.4999 3.07971 13.5H3.30139C3.71549 13.5001 4.05139 13.8359 4.05139 14.25C4.05139 14.6641 3.71549 14.9999 3.30139 15H3.07971C2.4637 14.9999 1.87722 14.7453 1.48108 14.3135C1.07341 13.8688 0.867292 13.2271 1.07678 12.5488C1.61479 10.808 2.91768 9.79803 4.01135 9.23633C4.36759 9.05339 4.70991 8.91426 5.0094 8.80859C4.29221 7.65752 3.9801 6.6022 3.9801 5.5C3.9801 3.42221 5.5183 1.5 8.11487 1.5ZM11.9996 6C10.5202 6.00017 9.49963 7.03823 9.49963 8.4375C9.49963 10.9345 11.0424 11.9997 11.9996 12C12.9569 12 14.4996 10.9348 14.4996 8.4375C14.4996 7.03811 13.4793 6 11.9996 6Z" fill="#1D1C1D"/>
</svg>
