<svg width="20" height="20" viewBox="0 0 20 20" fill="none" xmlns="http://www.w3.org/2000/svg">
<path d="M11.3137 1.56077C12.2828 1.08708 13.4536 1.4682 13.9592 2.42112L14.5158 3.47093C14.5881 3.60709 14.7195 3.70301 14.8713 3.72972L16.0432 3.93479C17.1056 4.1212 17.8289 5.11674 17.6779 6.18479L17.511 7.36253C17.4894 7.51522 17.5395 7.66965 17.6467 7.7805L18.4738 8.63499C19.2239 9.41033 19.2239 10.6409 18.4738 11.4162L17.6467 12.2707C17.5395 12.3815 17.4894 12.536 17.511 12.6887L17.6779 13.8664C17.829 14.9345 17.1057 15.93 16.0432 16.1164L14.8713 16.3215C14.7195 16.3482 14.5881 16.4441 14.5158 16.5803L13.9592 17.6311C13.4536 18.5839 12.2828 18.9642 11.3137 18.4905L10.2453 17.968C10.1068 17.9003 9.94443 17.9003 9.80587 17.968L8.73751 18.4905C7.76838 18.9641 6.59761 18.584 6.09201 17.6311L5.53536 16.5803C5.46309 16.4441 5.33177 16.3482 5.1799 16.3215L4.00802 16.1164C2.9456 15.9299 2.22219 14.9345 2.37326 13.8664L2.54025 12.6887C2.5618 12.536 2.51171 12.3815 2.40451 12.2707L1.57736 11.4162C0.82734 10.6409 0.827306 9.41032 1.57736 8.63499L2.40451 7.7805C2.51174 7.66965 2.56185 7.51523 2.54025 7.36253L2.37326 6.18479C2.2223 5.11679 2.94564 4.12126 4.00802 3.93479L5.1799 3.72972C5.33176 3.70304 5.4631 3.60713 5.53536 3.47093L6.09201 2.42112C6.59758 1.46824 7.76837 1.08716 8.73751 1.56077L9.80587 2.08323C9.94443 2.15096 10.1068 2.15096 10.2453 2.08323L11.3137 1.56077ZM13.2404 7.18186C12.9271 6.91128 12.4536 6.94598 12.1828 7.25901L8.68087 11.3127L7.59494 9.89964C7.34258 9.57132 6.87158 9.50976 6.54318 9.76194C6.2148 10.0143 6.15315 10.4853 6.40548 10.8137L8.05197 12.9573C8.18926 13.1358 8.40006 13.2427 8.62521 13.2492C8.85052 13.2557 9.06769 13.161 9.21505 12.9905L13.3176 8.24046C13.5884 7.92699 13.5539 7.45263 13.2404 7.18186Z" fill="#1D1C1D"/>
</svg>
