<svg width="20" height="20" viewBox="0 0 20 20" fill="none" xmlns="http://www.w3.org/2000/svg">
<path d="M11.3137 1.56096C12.2828 1.08725 13.4535 1.4675 13.9592 2.42034L14.5158 3.47112C14.5881 3.6071 14.7196 3.70324 14.8713 3.72991L16.0431 3.93499C17.1056 4.12145 17.829 5.11691 17.6779 6.18499L17.5109 7.36272C17.4895 7.51524 17.5396 7.66998 17.6467 7.78069L18.4738 8.63518C19.2236 9.41054 19.2238 10.6412 18.4738 11.4164L17.6467 12.2709C17.5396 12.3818 17.4893 12.5363 17.5109 12.6889L17.6779 13.8666C17.8286 14.9345 17.1055 15.9302 16.0431 16.1166L14.8713 16.3217C14.7195 16.3484 14.588 16.4444 14.5158 16.5805L13.9592 17.6313C13.4534 18.5837 12.2826 18.9641 11.3137 18.4907L10.2453 17.9682C10.1067 17.9005 9.9444 17.9005 9.80584 17.9682L8.73748 18.4907C7.76856 18.9641 6.59768 18.5837 6.09198 17.6313L5.53534 16.5805C5.46308 16.4443 5.33169 16.3484 5.17987 16.3217L4.00799 16.1166C2.94575 15.9302 2.22251 14.9345 2.37323 13.8666L2.54022 12.6889C2.5618 12.5363 2.51155 12.3818 2.40448 12.2709L1.57733 11.4164C0.827346 10.6412 0.827523 9.41054 1.57733 8.63518L2.40448 7.78069C2.51158 7.66998 2.56162 7.51525 2.54022 7.36272L2.37323 6.18499C2.22219 5.11696 2.94562 4.12151 4.00799 3.93499L5.17987 3.72991C5.3316 3.70327 5.46302 3.60714 5.53534 3.47112L6.09198 2.42034C6.59759 1.4675 7.76836 1.08732 8.73748 1.56096L9.80584 2.08343C9.9443 2.15104 10.1068 2.15104 10.2453 2.08343L11.3137 1.56096ZM12.634 3.12346C12.5076 2.88544 12.215 2.79047 11.9728 2.90862L10.9035 3.43108C10.3495 3.70169 9.7016 3.70172 9.14764 3.43108L8.0783 2.90862C7.83613 2.79054 7.54351 2.88544 7.41717 3.12346L6.86053 4.17425C6.57136 4.71899 6.04614 5.09991 5.43866 5.20647L4.26776 5.41253C4.00216 5.45916 3.82081 5.70802 3.85858 5.97503L4.02557 7.15276C4.11172 7.76336 3.91137 8.38045 3.4826 8.82366L2.65545 9.67815C2.46819 9.872 2.46802 10.1797 2.65545 10.3735L3.4826 11.228C3.91134 11.6713 4.11191 12.2882 4.02557 12.8989L3.85858 14.0766C3.82109 14.3434 4.00228 14.5925 4.26776 14.6391L5.43866 14.8442C6.04624 14.9508 6.57141 15.3325 6.86053 15.8774L7.41717 16.9282C7.5436 17.1658 7.83632 17.2608 8.0783 17.143L9.14764 16.6205C9.70172 16.3498 10.3494 16.3498 10.9035 16.6205L11.9728 17.143C12.2148 17.2609 12.5075 17.1658 12.634 16.9282L13.1916 15.8774C13.4807 15.3325 14.0049 14.9508 14.6125 14.8442L15.7844 14.6391C16.0496 14.5923 16.23 14.3433 16.1926 14.0766L16.0256 12.8989C15.9392 12.2882 16.1398 11.6713 16.5685 11.228L17.3957 10.3735C17.5831 10.1797 17.583 9.872 17.3957 9.67815L16.5685 8.82366C16.1398 8.38045 15.9394 7.76335 16.0256 7.15276L16.1926 5.97503C16.2303 5.70818 16.0497 5.45937 15.7844 5.41253L14.6125 5.20647C14.005 5.09991 13.4808 4.71897 13.1916 4.17425L12.634 3.12346ZM12.1828 7.26018C12.4536 6.94679 12.927 6.91229 13.2404 7.18303C13.5535 7.45386 13.5882 7.92733 13.3176 8.24065L9.21502 12.9907C9.06778 13.161 8.85123 13.2567 8.62616 13.2504C8.40103 13.244 8.1903 13.1359 8.05291 12.9574L6.40545 10.8149C6.15307 10.4865 6.2149 10.0156 6.54315 9.76311C6.87156 9.51069 7.34248 9.5724 7.59491 9.90081L8.68084 11.3129L12.1828 7.26018Z" fill="#1D1C1D"/>
</svg>
