<svg width="20" height="20" viewBox="0 0 20 20" fill="none" xmlns="http://www.w3.org/2000/svg">
<path d="M14.9425 1.74821C15.2196 1.44038 15.6943 1.41547 16.0021 1.69255C16.3099 1.96965 16.3349 2.44425 16.0578 2.75212L2.55778 17.7521C2.28068 18.0599 1.80607 18.0849 1.49821 17.8078C1.19038 17.5307 1.16547 17.0561 1.44255 16.7482L14.9425 1.74821ZM17.1261 5.03141C17.9595 4.55162 19.0002 5.15381 19.0002 6.1154V13.8849C19.0002 14.8465 17.9595 15.4487 17.1261 14.9689L14.5002 13.4562V14.7502C14.5002 15.9928 13.4928 17.0002 12.2502 17.0002H5.28825L6.62223 15.5002H12.2502C12.6644 15.5002 13.0002 15.1644 13.0002 14.7502V12.1593C13.0002 11.8916 13.1433 11.644 13.3752 11.5099C13.6068 11.3761 13.8923 11.3756 14.1242 11.509L17.5002 13.4523V6.54704L14.1242 8.49137C13.8923 8.62476 13.6068 8.6242 13.3752 8.4904C13.2582 8.4228 13.1636 8.32645 13.0988 8.21305L14.6711 6.4445L17.1261 5.03141ZM10.3781 4.50016H3.75016C3.33595 4.50017 3.00017 4.83595 3.00016 5.25016V12.8L1.50016 14.4875V5.25016C1.50017 4.00753 2.50753 3.00017 3.75016 3.00016H11.7121L10.3781 4.50016Z" fill="#1D1C1D"/>
</svg>
