<svg width="20" height="20" viewBox="0 0 20 20" fill="none" xmlns="http://www.w3.org/2000/svg">
<path d="M14.9425 1.74821C15.2196 1.44038 15.6943 1.41547 16.0021 1.69255C16.3099 1.96965 16.3349 2.44425 16.0578 2.75212L2.55778 17.7521C2.28068 18.0599 1.80607 18.0849 1.49821 17.8078C1.19038 17.5307 1.16547 17.0561 1.44255 16.7482L14.9425 1.74821ZM17.1261 5.03141C17.9595 4.55162 19.0002 5.15381 19.0002 6.1154V13.8849C19.0002 14.8465 17.9595 15.4487 17.1261 14.9689L14.5002 13.4562V14.7502C14.5002 15.9928 13.4928 17.0002 12.2502 17.0002H5.28825L14.6691 6.44645L17.1261 5.03141ZM1.50016 14.4875V5.25016C1.50017 4.00753 2.50753 3.00017 3.75016 3.00016H11.7121L1.50016 14.4875Z" fill="#1D1C1D"/>
</svg>
