<svg width="20" height="20" viewBox="0 0 20 20" fill="none" xmlns="http://www.w3.org/2000/svg">
<path d="M15.5 1.5C17.1569 1.5 18.5 2.84315 18.5 4.5V15.5C18.5 17.1569 17.1569 18.5 15.5 18.5H4.5C2.84315 18.5 1.5 17.1569 1.5 15.5V4.5C1.5 2.84315 2.84315 1.5 4.5 1.5H15.5ZM5.83594 12.9141H7.05957L9.39648 7.08594H8.2998C8.18789 7.08597 8.09291 7.11644 8.01562 7.17773C7.94107 7.23634 7.88968 7.30336 7.86035 7.37793L6.74023 10.498C6.6869 10.634 6.63589 10.7836 6.58789 10.9463C6.5426 11.1062 6.50117 11.2743 6.46387 11.4502C6.41857 11.2743 6.37093 11.1062 6.32031 10.9463C6.26966 10.7837 6.21738 10.634 6.16406 10.498L5.03613 7.37793C4.99881 7.29261 4.94405 7.22325 4.87207 7.16992C4.80007 7.11392 4.70522 7.08594 4.58789 7.08594H3.5L5.83594 12.9141ZM9.85547 12.9141H11.2158V7.08594H9.85547V12.9141ZM12.3398 12.9141H13.6914V10.9658H14.3955C14.798 10.9658 15.1462 10.9182 15.4395 10.8223C15.7354 10.7236 15.9799 10.5874 16.1719 10.4141C16.3638 10.2408 16.5063 10.0326 16.5996 9.79004C16.6929 9.54746 16.7402 9.28079 16.7402 8.99023C16.7402 8.72097 16.6941 8.47023 16.6035 8.23828C16.5128 8.00628 16.3717 7.80446 16.1797 7.63379C15.9905 7.46327 15.7479 7.33034 15.4521 7.23438C15.1588 7.13571 14.8062 7.08594 14.3955 7.08594H12.3398V12.9141ZM14.3955 8.09766C14.5662 8.09766 14.7133 8.11944 14.8359 8.16211C14.9611 8.20473 15.0636 8.26586 15.1436 8.3457C15.2262 8.42304 15.2881 8.51664 15.3281 8.62598C15.3681 8.73528 15.3877 8.85695 15.3877 8.99023C15.3876 9.29142 15.3109 9.52639 15.1562 9.69434C15.0016 9.86232 14.7475 9.94629 14.3955 9.94629H13.6914V8.09766H14.3955Z" fill="#1D1C1D"/>
</svg>
