<svg width="12" height="12" viewBox="0 0 12 12" fill="none" xmlns="http://www.w3.org/2000/svg">
<path d="M9 1C10.1046 1 11 1.89543 11 3V9C11 10.1046 10.1046 11 9 11H3C1.89543 11 1 10.1046 1 9V3C1 1.89543 1.89543 1 3 1H9ZM3.55078 7.71387H4.27051L5.64453 4.28516H5C4.93445 4.28521 4.87835 4.30307 4.83301 4.33887C4.78923 4.37326 4.7585 4.41329 4.74121 4.45703L4.08301 6.29199C4.05169 6.37185 4.02136 6.46017 3.99316 6.55566C3.96654 6.64965 3.94186 6.74917 3.91992 6.85254C3.89328 6.74913 3.86571 6.64968 3.83594 6.55566C3.80616 6.46009 3.77548 6.37191 3.74414 6.29199L3.08008 4.45703C3.05812 4.40694 3.02569 4.36629 2.9834 4.33496C2.94111 4.30211 2.88525 4.2852 2.81641 4.28516H2.17676L3.55078 7.71387ZM5.91504 7.71387H6.71484V4.28516H5.91504V7.71387ZM7.37695 7.71387H8.17188V6.56738H8.58594C8.82268 6.56736 9.02772 6.53887 9.2002 6.48242C9.37402 6.42442 9.51804 6.34497 9.63086 6.24316C9.74359 6.1413 9.82797 6.01852 9.88281 5.87598C9.93759 5.73338 9.96483 5.57603 9.96484 5.40527C9.9648 5.247 9.93805 5.09924 9.88477 4.96289C9.83144 4.82656 9.74857 4.70774 9.63574 4.60742C9.52441 4.50707 9.38106 4.42853 9.20703 4.37207C9.0346 4.31411 8.82726 4.28518 8.58594 4.28516H7.37695V7.71387ZM8.58594 4.88086C8.68611 4.88088 8.77268 4.89294 8.84473 4.91797C8.91836 4.94305 8.97934 4.97936 9.02637 5.02637C9.07485 5.07177 9.11126 5.12728 9.13477 5.19141C9.15814 5.25549 9.16988 5.32719 9.16992 5.40527C9.1699 5.58226 9.12394 5.72056 9.0332 5.81934C8.94226 5.91811 8.79284 5.96773 8.58594 5.96777H8.17188V4.88086H8.58594Z" fill="#1D1C1D"/>
</svg>
