<svg width="12" height="12" viewBox="0 0 12 12" fill="none" xmlns="http://www.w3.org/2000/svg">
<path d="M9 1C10.1046 1 11 1.89543 11 3V9C11 10.0357 10.2128 10.887 9.2041 10.9893L9 11H3L2.7959 10.9893C1.85435 10.8938 1.1062 10.1457 1.01074 9.2041L1 9V3C1 1.89543 1.89543 1 3 1H9ZM3 2C2.44772 2 2 2.44772 2 3V9C2 9.55229 2.44772 10 3 10H9C9.55229 10 10 9.55229 10 9V3C10 2.44772 9.55229 2 9 2H3ZM3.49316 4.70117C3.54629 4.70119 3.58946 4.7139 3.62207 4.73926C3.6545 4.76339 3.67944 4.79547 3.69629 4.83398L4.20703 6.24707C4.23114 6.30858 4.25541 6.37666 4.27832 6.4502C4.30122 6.52253 4.32228 6.59916 4.34277 6.67871C4.35966 6.59909 4.37891 6.52259 4.39941 6.4502C4.42111 6.3767 4.44465 6.30855 4.46875 6.24707L4.97559 4.83398C4.98885 4.80021 5.01314 4.76971 5.04688 4.74316C5.08181 4.71548 5.12427 4.70125 5.1748 4.70117H5.67188L4.61328 7.3418H4.05859L3 4.70117H3.49316ZM6.49609 7.3418H5.87988V4.70117H6.49609V7.3418ZM7.9375 4.70117C8.12353 4.70117 8.28312 4.72388 8.41602 4.76855C8.54999 4.81202 8.66035 4.87199 8.74609 4.94922C8.83301 5.02653 8.89742 5.11857 8.93848 5.22363C8.97938 5.32857 9 5.44268 9 5.56445C8.99991 5.69586 8.97873 5.81702 8.93652 5.92676C8.89422 6.03651 8.82906 6.13056 8.74219 6.20898C8.65525 6.2874 8.54508 6.34986 8.41113 6.39453C8.27822 6.43801 8.11993 6.45996 7.9375 6.45996H7.61914V7.3418H7.00586V4.70117H7.9375ZM7.61914 5.99707H7.9375C8.09687 5.99707 8.21212 5.95881 8.28223 5.88281C8.35207 5.80684 8.38755 5.70051 8.3877 5.56445C8.3877 5.50433 8.3783 5.44877 8.36035 5.39941C8.34226 5.34995 8.31373 5.30747 8.27637 5.27246C8.24014 5.23625 8.19345 5.20781 8.13672 5.18848C8.08123 5.16925 8.01462 5.16016 7.9375 5.16016H7.61914V5.99707Z" fill="#1D1C1D"/>
</svg>
