<svg width="20" height="20" viewBox="0 0 20 20" fill="none" xmlns="http://www.w3.org/2000/svg">
<path d="M15.5 1.5C17.1569 1.5 18.5 2.84315 18.5 4.5V15.5C18.5 17.1051 17.2394 18.4158 15.6543 18.4961L15.5 18.5H4.5L4.3457 18.4961C2.81166 18.4184 1.58163 17.1883 1.50391 15.6543L1.5 15.5V4.5C1.5 2.84315 2.84315 1.5 4.5 1.5H15.5ZM4.5 3C3.67157 3 3 3.67157 3 4.5V15.5C3 16.3284 3.67157 17 4.5 17H15.5C16.3284 17 17 16.3284 17 15.5V4.5C17 3.67157 16.3284 3 15.5 3H4.5ZM5.74023 7.85156C5.83061 7.85162 5.90446 7.87288 5.95996 7.91602C6.01541 7.95716 6.05716 8.01139 6.08594 8.07715L6.95703 10.4863C6.99818 10.5913 7.03903 10.7065 7.07812 10.832C7.11719 10.9554 7.1545 11.085 7.18945 11.2207C7.21825 11.085 7.2502 10.9554 7.28516 10.832C7.32219 10.7066 7.3612 10.5913 7.40234 10.4863L8.2666 8.07715C8.28926 8.01955 8.33009 7.96812 8.3877 7.92285C8.4473 7.8757 8.52021 7.8516 8.60645 7.85156H9.45312L7.64941 12.3516H6.7041L4.90039 7.85156H5.74023ZM10.8574 12.3516H9.80762V7.85156H10.8574V12.3516ZM13.3135 7.85156C13.6304 7.8516 13.9025 7.88967 14.1289 7.96582C14.3573 8.03994 14.5453 8.14272 14.6914 8.27441C14.8395 8.40613 14.9486 8.56221 15.0186 8.74121C15.0884 8.92013 15.123 9.11362 15.123 9.32129C15.123 9.54563 15.0876 9.75214 15.0156 9.93945C14.9436 10.1267 14.8327 10.2871 14.6846 10.4209C14.5364 10.5547 14.3475 10.6602 14.1191 10.7363C13.8928 10.8103 13.624 10.8476 13.3135 10.8477H12.7695V12.3516H11.7256V7.85156H13.3135ZM12.7695 10.0596H13.3135C13.5851 10.0595 13.781 9.99489 13.9004 9.86523C14.0196 9.73553 14.0791 9.55379 14.0791 9.32129C14.0791 9.2187 14.0639 9.12519 14.0332 9.04102C14.0024 8.95669 13.9544 8.88389 13.8906 8.82422C13.829 8.76271 13.7497 8.7155 13.6533 8.68262C13.5587 8.64971 13.4451 8.63285 13.3135 8.63281H12.7695V10.0596Z" fill="#1D1C1D"/>
</svg>
