<svg width="20" height="20" viewBox="0 0 20 20" fill="none" xmlns="http://www.w3.org/2000/svg">
<path d="M10 12.75C10.5523 12.75 11 13.1977 11 13.75C11 14.3023 10.5523 14.75 10 14.75C9.44772 14.75 9 14.3023 9 13.75C9 13.1977 9.44772 12.75 10 12.75ZM10 6.75C10.4142 6.75 10.75 7.08579 10.75 7.5V11C10.75 11.4142 10.4142 11.75 10 11.75C9.58579 11.75 9.25 11.4142 9.25 11V7.5C9.25 7.08579 9.58579 6.75 10 6.75Z" fill="#1D1C1D"/>
<path d="M7.71191 3.54205C8.73245 1.81937 11.2676 1.81926 12.2881 3.54205L15.3379 8.69342L18.3887 13.8448C19.4312 15.606 18.1077 17.7499 16.1006 17.7501H3.89941C1.89221 17.7501 0.568793 15.606 1.61132 13.8448L7.71191 3.54205ZM10.9971 4.3067C10.5575 3.5647 9.44257 3.56481 9.00292 4.3067L2.90234 14.6085C2.4854 15.3125 2.98684 16.2501 3.89941 16.2501H16.1006C17.013 16.2499 17.5146 15.3125 17.0977 14.6085L14.0478 9.45807L10.9971 4.3067Z" fill="#1D1C1D"/>
</svg>
