<svg width="20" height="20" viewBox="0 0 20 20" fill="none" xmlns="http://www.w3.org/2000/svg">
<path d="M7.71209 3.54202C8.73265 1.8194 11.2678 1.81925 12.2883 3.54202L18.3888 13.8448C19.431 15.6058 18.1076 17.7496 16.1008 17.75H3.89959C1.89239 17.75 0.568976 15.606 1.61151 13.8448L7.71209 3.54202ZM10.0002 12.75C9.44791 12.75 9.00021 13.1978 9.00018 13.75C9.00018 14.3023 9.44789 14.75 10.0002 14.75C10.5523 14.7498 11.0002 14.3022 11.0002 13.75C11.0001 13.1979 10.5523 12.7502 10.0002 12.75ZM10.0002 6.75003C9.58598 6.75003 9.25021 7.08584 9.25018 7.50003V11C9.25018 11.4142 9.58596 11.75 10.0002 11.75C10.4142 11.7498 10.7502 11.4141 10.7502 11V7.50003C10.7501 7.08596 10.4142 6.75022 10.0002 6.75003Z" fill="#1D1C1D"/>
</svg>
