<svg width="12" height="12" viewBox="0 0 12 12" fill="none" xmlns="http://www.w3.org/2000/svg">
<path fill-rule="evenodd" clip-rule="evenodd" d="M4.64444 2.27623C5.24801 1.24126 6.7518 1.24126 7.35538 2.27623L10.787 8.16295C11.3961 9.20789 10.6302 10.4998 9.43155 10.4999H2.56827C1.36976 10.4997 0.603857 9.20783 1.2128 8.16295L4.64444 2.27623ZM5.98526 7.42858C5.64008 7.42858 5.36026 7.7084 5.36026 8.05358C5.36042 8.39862 5.64018 8.67858 5.98526 8.67858C6.33023 8.67845 6.6101 8.39854 6.61026 8.05358C6.61026 7.70848 6.33033 7.42871 5.98526 7.42858ZM6.00284 3.99986C5.72682 4.00002 5.50284 4.22381 5.50284 4.49986V6.35729C5.50308 6.63313 5.72697 6.85714 6.00284 6.85729C6.27872 6.85716 6.5026 6.63315 6.50284 6.35729V4.49986C6.50284 4.2238 6.27887 3.99999 6.00284 3.99986Z" fill="#1D1C1D"/>
</svg>
