<svg width="12" height="12" viewBox="0 0 12 12" fill="none" xmlns="http://www.w3.org/2000/svg">
<path d="M5.98499 7.42871C6.33016 7.42871 6.60999 7.70853 6.60999 8.05371C6.6099 8.39881 6.33011 8.67871 5.98499 8.67871C5.63986 8.67871 5.36007 8.39881 5.35999 8.05371C5.35999 7.70853 5.63981 7.42871 5.98499 7.42871ZM6.00256 4C6.27871 4 6.50256 4.22386 6.50256 4.5V6.35742C6.5024 6.63342 6.2786 6.85742 6.00256 6.85742C5.72665 6.85727 5.50273 6.63333 5.50256 6.35742V4.5C5.50256 4.22395 5.72655 4.00015 6.00256 4Z" fill="#1D1C1D"/>
<path d="M5.07611 2.5283C5.48673 1.8239 6.51327 1.8239 6.92389 2.5283L10.3555 8.41509C10.7661 9.1195 10.2528 10 9.43159 10H2.56841C1.74717 10 1.2339 9.1195 1.64452 8.41509L5.07611 2.5283Z" stroke="#1D1C1D"/>
</svg>
