<svg width="20" height="20" viewBox="0 0 20 20" fill="none" xmlns="http://www.w3.org/2000/svg">
<path d="M2.09863 12.5986C2.39153 12.3058 2.8663 12.3058 3.15918 12.5986C3.45179 12.8915 3.45195 13.3664 3.15918 13.6592C2.95032 13.868 2.784 14.1157 2.6709 14.3887C2.55783 14.6617 2.5 14.9545 2.5 15.25C2.5 15.5455 2.55786 15.8384 2.6709 16.1113C2.78397 16.3843 2.95029 16.6319 3.15918 16.8408C3.36812 17.0497 3.61577 17.2161 3.88867 17.3291C4.16165 17.4422 4.45453 17.5 4.75 17.5C5.04529 17.5 5.33824 17.4422 5.61133 17.3291C5.88437 17.216 6.13201 17.0496 6.34082 16.8408C6.54972 16.6319 6.71603 16.3843 6.8291 16.1113C6.94217 15.8383 7 15.5455 7 15.25C7 14.8358 7.33579 14.5 7.75 14.5H12.25C12.6642 14.5 13 14.8358 13 15.25C13 15.6642 12.6642 16 12.25 16H8.42383C8.37611 16.2337 8.30654 16.4631 8.21484 16.6846C8.02639 17.1395 7.74958 17.5532 7.40137 17.9014C7.05306 18.2497 6.63942 18.5264 6.18457 18.7148C5.72991 18.9031 5.24239 19 4.75 19C4.25754 19 3.76942 18.9033 3.31445 18.7148C2.85956 18.5264 2.44675 18.2495 2.09863 17.9014C1.75042 17.5532 1.47361 17.1395 1.28516 16.6846C1.09681 16.2297 1 15.7422 1 15.25C1 14.7575 1.0967 14.2694 1.28516 13.8145C1.47358 13.3597 1.75044 12.9468 2.09863 12.5986ZM11.0059 6.7627C11.3763 6.57745 11.8275 6.72717 12.0127 7.09766L14.2773 11.6289C14.5939 11.5439 14.9208 11.5 15.25 11.5C15.7423 11.5 16.2298 11.5968 16.6846 11.7852C17.1396 11.9736 17.5532 12.2505 17.9014 12.5986C18.2496 12.9469 18.5264 13.3605 18.7148 13.8154C18.9032 14.2702 19 14.7577 19 15.25C19 15.7423 18.9032 16.2298 18.7148 16.6846C18.5264 17.1395 18.2496 17.5532 17.9014 17.9014C17.5531 18.2497 17.1394 18.5264 16.6846 18.7148C16.2299 18.9031 15.7424 19 15.25 19C14.7575 19 14.2694 18.9033 13.8145 18.7148C13.4319 18.5562 13.2507 18.117 13.4092 17.7344C13.5678 17.3519 14.0061 17.1707 14.3887 17.3291C14.6617 17.4422 14.9545 17.5 15.25 17.5C15.5453 17.5 15.8382 17.4422 16.1113 17.3291C16.3844 17.216 16.632 17.0496 16.8408 16.8408C17.0497 16.6319 17.216 16.3843 17.3291 16.1113C17.4422 15.8383 17.5 15.5455 17.5 15.25C17.5 14.9546 17.4422 14.6617 17.3291 14.3887C17.216 14.1158 17.0497 13.8681 16.8408 13.6592C16.6319 13.4502 16.3841 13.2839 16.1113 13.1709C15.8384 13.0578 15.5454 13 15.25 13C14.9545 13 14.6616 13.0578 14.3887 13.1709C14.3396 13.1912 14.2915 13.2136 14.2441 13.2373C13.8737 13.4225 13.4226 13.2727 13.2373 12.9023L10.6709 7.76855C10.4857 7.39818 10.6356 6.94804 11.0059 6.7627ZM10 1C10.4923 1.00001 10.9798 1.09684 11.4346 1.28516C11.8896 1.47364 12.3032 1.7505 12.6514 2.09863C12.9996 2.44685 13.2764 2.86046 13.4648 3.31543C13.6532 3.77025 13.75 4.25769 13.75 4.75C13.75 5.1642 13.4142 5.49997 13 5.5C12.5858 5.5 12.25 5.16421 12.25 4.75C12.25 4.45455 12.1922 4.16167 12.0791 3.88867C11.966 3.61576 11.7997 3.36806 11.5908 3.15918C11.3819 2.95024 11.1341 2.78393 10.8613 2.6709C10.5884 2.55783 10.2954 2.50001 10 2.5C9.70452 2.5 9.41164 2.55783 9.13867 2.6709C8.86572 2.78396 8.61809 2.95028 8.40918 3.15918C8.20032 3.36804 8.034 3.61567 7.9209 3.88867C7.80783 4.16165 7.75 4.45453 7.75 4.75C7.75 5.04555 7.80786 5.33844 7.9209 5.61133C8.03397 5.88425 8.20029 6.13193 8.40918 6.34082C8.58044 6.51207 8.77818 6.65471 8.99414 6.7627C9.36426 6.94805 9.51418 7.39824 9.3291 7.76855L6.7627 12.9023C6.57744 13.2728 6.12633 13.4225 5.75586 13.2373C5.38564 13.052 5.23575 12.6018 5.4209 12.2314L7.68652 7.69727C7.56883 7.60488 7.45486 7.50759 7.34863 7.40137C7.00042 7.05315 6.72361 6.63954 6.53516 6.18457C6.34681 5.72967 6.25 5.24218 6.25 4.75C6.25 4.25755 6.3467 3.76942 6.53516 3.31445C6.72358 2.85966 7.00044 2.44683 7.34863 2.09863C7.69678 1.75049 8.10959 1.4736 8.56445 1.28516C9.01943 1.0967 9.50756 1 10 1Z" fill="#1D1C1D"/>
</svg>
