<svg width="20" height="20" viewBox="0 0 20 20" fill="none" xmlns="http://www.w3.org/2000/svg">
<path d="M16 2.5C17.3807 2.5 18.5 3.61929 18.5 5V15C18.5 16.3807 17.3807 17.5 16 17.5H4C2.61929 17.5 1.5 16.3807 1.5 15V5C1.5 3.61929 2.61929 2.5 4 2.5H16ZM4 4C3.44772 4 3 4.44772 3 5V15L3.00488 15.1025C3.05621 15.6067 3.48232 16 4 16H16L16.1025 15.9951C16.6067 15.9438 17 15.5177 17 15V5C17 4.48232 16.6067 4.05621 16.1025 4.00488L16 4H4ZM8.5 11.5C8.77614 11.5 9 11.7239 9 12V14.5654C9 14.9648 8.55493 15.203 8.22266 14.9814L4.37402 12.416C3.96243 12.1416 4.15668 11.5 4.65137 11.5H8.5ZM11 5.43457C11 5.03522 11.4451 4.79704 11.7773 5.01855L15.626 7.58398C16.0376 7.8584 15.8433 8.49998 15.3486 8.5H11.5C11.2239 8.5 11 8.27614 11 8V5.43457Z" fill="#1D1C1D"/>
</svg>
