<svg width="20" height="20" viewBox="0 0 20 20" fill="none" xmlns="http://www.w3.org/2000/svg">
<path d="M16 2.5C17.3807 2.5 18.5 3.61929 18.5 5V15C18.5 16.3807 17.3807 17.5 16 17.5H4C2.61929 17.5 1.5 16.3807 1.5 15V5C1.5 3.61929 2.61929 2.5 4 2.5H16ZM4 4C3.44772 4 3 4.44772 3 5V15L3.00488 15.1025C3.05621 15.6067 3.48232 16 4 16H16L16.1025 15.9951C16.6067 15.9438 17 15.5177 17 15V5C17 4.48232 16.6067 4.05621 16.1025 4.00488L16 4H4ZM4.5 11.4346C4.5 11.0352 4.94507 10.797 5.27734 11.0186L9.12598 13.584C9.53757 13.8584 9.34332 14.5 8.84863 14.5H5C4.72386 14.5 4.5 14.2761 4.5 14V11.4346ZM15 5.5C15.2761 5.5 15.5 5.72386 15.5 6V8.56543C15.5 8.96478 15.0549 9.20296 14.7227 8.98145L10.874 6.41602C10.4624 6.1416 10.6567 5.50002 11.1514 5.5H15Z" fill="#1D1C1D"/>
</svg>
