<svg width="20" height="20" viewBox="0 0 20 20" fill="none" xmlns="http://www.w3.org/2000/svg">
<path d="M16 2.5C17.3807 2.5 18.5 3.61929 18.5 5V15C18.5 16.3807 17.3807 17.5 16 17.5H4C2.61929 17.5 1.5 16.3807 1.5 15V5C1.5 3.61929 2.61929 2.5 4 2.5H16ZM5.27734 11.0186C4.94507 10.797 4.5 11.0352 4.5 11.4346V14C4.5 14.2761 4.72386 14.5 5 14.5H8.84863C9.34332 14.5 9.53757 13.8584 9.12598 13.584L5.27734 11.0186ZM11.1514 5.5C10.6567 5.50002 10.4624 6.1416 10.874 6.41602L14.7227 8.98145C15.0549 9.20296 15.5 8.96478 15.5 8.56543V6C15.5 5.72386 15.2761 5.5 15 5.5H11.1514Z" fill="#1D1C1D"/>
</svg>
