<svg width="20" height="20" viewBox="0 0 20 20" fill="none" xmlns="http://www.w3.org/2000/svg">
<path d="M16 2.5C17.3807 2.5 18.5 3.61929 18.5 5V15C18.5 16.3807 17.3807 17.5 16 17.5H4C2.61929 17.5 1.5 16.3807 1.5 15V5C1.5 3.61929 2.61929 2.5 4 2.5H16ZM4.0166 11.5C3.50656 11.5 3.30611 12.2196 3.73047 12.5273L7.69824 15.4053C8.04078 15.6537 8.49988 15.3862 8.5 14.9385V12.0605C8.49989 11.7509 8.26902 11.5 7.98438 11.5H4.0166ZM12.3018 4.59473C11.9592 4.34632 11.5001 4.61376 11.5 5.06152V7.93945C11.5001 8.24905 11.731 8.5 12.0156 8.5H15.9834C16.4934 8.5 16.6939 7.78043 16.2695 7.47266L12.3018 4.59473Z" fill="#1D1C1D"/>
</svg>
