<svg width="20" height="20" viewBox="0 0 20 20" fill="none" xmlns="http://www.w3.org/2000/svg">
<path d="M16 2.5C17.3807 2.5 18.5 3.61929 18.5 5V15C18.5 16.3807 17.3807 17.5 16 17.5H4C2.61929 17.5 1.5 16.3807 1.5 15V5C1.5 3.61929 2.61929 2.5 4 2.5H16ZM3.01367 15.168C3.09356 15.6403 3.50494 16 4 16H4.34082L17 6.85645V5.06738L3.01367 15.168ZM6.9043 16H8.60254L17 9.93457V8.70801L6.9043 16ZM14.9365 16H16L16.1025 15.9951C16.6067 15.9438 17 15.5177 17 15V14.5088L14.9365 16ZM11.166 16H12.374L17 12.6572V11.7861L11.166 16ZM3 11.0684V13.3271L15.915 4H12.7881L3 11.0684ZM4 4C3.44772 4 3 4.44772 3 5V9.21777L10.2246 4H4Z" fill="#1D1C1D"/>
</svg>
