<svg width="20" height="20" viewBox="0 0 20 20" fill="none" xmlns="http://www.w3.org/2000/svg">
<path d="M7.5 10.75C8.4665 10.75 9.25 11.5335 9.25 12.5V16.75C9.25 17.7165 8.4665 18.5 7.5 18.5H3.25C2.2835 18.5 1.5 17.7165 1.5 16.75V12.5C1.5 11.5335 2.2835 10.75 3.25 10.75H7.5ZM16.75 10.75C17.7165 10.75 18.5 11.5335 18.5 12.5V16.75C18.5 17.7165 17.7165 18.5 16.75 18.5H12.5C11.5335 18.5 10.75 17.7165 10.75 16.75V12.5C10.75 11.5335 11.5335 10.75 12.5 10.75H16.75ZM3.25 12.25C3.11193 12.25 3 12.3619 3 12.5V16.75C3 16.8881 3.11193 17 3.25 17H7.5C7.63807 17 7.75 16.8881 7.75 16.75V12.5C7.75 12.3619 7.63807 12.25 7.5 12.25H3.25ZM12.5 12.25C12.3619 12.25 12.25 12.3619 12.25 12.5V16.75C12.25 16.8881 12.3619 17 12.5 17H16.75C16.8881 17 17 16.8881 17 16.75V12.5C17 12.3619 16.8881 12.25 16.75 12.25H12.5ZM7.5 1.5C8.4665 1.5 9.25 2.2835 9.25 3.25V7.5C9.25 8.4665 8.4665 9.25 7.5 9.25H3.25C2.2835 9.25 1.5 8.4665 1.5 7.5V3.25C1.5 2.2835 2.2835 1.5 3.25 1.5H7.5ZM16.75 1.5C17.7165 1.5 18.5 2.2835 18.5 3.25V7.5C18.5 8.4665 17.7165 9.25 16.75 9.25H12.5C11.5335 9.25 10.75 8.4665 10.75 7.5V3.25C10.75 2.2835 11.5335 1.5 12.5 1.5H16.75ZM3.25 3C3.11193 3 3 3.11193 3 3.25V7.5C3 7.63807 3.11193 7.75 3.25 7.75H7.5C7.63807 7.75 7.75 7.63807 7.75 7.5V3.25C7.75 3.11193 7.63807 3 7.5 3H3.25ZM12.5 3C12.3619 3 12.25 3.11193 12.25 3.25V7.5C12.25 7.63807 12.3619 7.75 12.5 7.75H16.75C16.8881 7.75 17 7.63807 17 7.5V3.25C17 3.11193 16.8881 3 16.75 3H12.5Z" fill="#1D1C1D"/>
</svg>
