<svg width="12" height="12" viewBox="0 0 12 12" fill="none" xmlns="http://www.w3.org/2000/svg">
<path d="M4.24963 6.75C4.80179 6.75 5.24942 7.19789 5.24963 7.75V10.1006C5.24953 10.6528 4.80185 11.1006 4.24963 11.1006H1.90002C1.3478 11.1006 0.90013 10.6528 0.900024 10.1006V7.75C0.900235 7.19789 1.34787 6.75 1.90002 6.75H4.24963ZM10.1002 6.75C10.6523 6.75011 11.1 7.19796 11.1002 7.75V10.1006C11.1001 10.6527 10.6523 11.1005 10.1002 11.1006H7.74963C7.19759 11.1004 6.74974 10.6527 6.74963 10.1006V7.75C6.74984 7.19802 7.19766 6.75021 7.74963 6.75H10.1002ZM4.24963 0.900391C4.80192 0.900391 5.24963 1.34811 5.24963 1.90039V4.25C5.24963 4.80228 4.80192 5.25 4.24963 5.25H1.90002C1.34774 5.25 0.900024 4.80228 0.900024 4.25V1.90039C0.900024 1.34811 1.34774 0.900391 1.90002 0.900391H4.24963ZM10.1002 0.900391C10.6524 0.900496 11.1002 1.34817 11.1002 1.90039V4.25C11.1002 4.80222 10.6524 5.24989 10.1002 5.25H7.74963C7.19753 5.24979 6.74963 4.80215 6.74963 4.25V1.90039C6.74963 1.34824 7.19753 0.900602 7.74963 0.900391H10.1002Z" fill="#1D1C1D"/>
</svg>
