<svg width="12" height="12" viewBox="0 0 12 12" fill="none" xmlns="http://www.w3.org/2000/svg">
<path d="M4.09998 6.39941C4.92834 6.39941 5.59987 7.07108 5.59998 7.89941V9.64941C5.59998 10.4778 4.9284 11.1494 4.09998 11.1494H2.34998C1.52155 11.1494 0.849976 10.4778 0.849976 9.64941V7.89941C0.850081 7.07108 1.52161 6.39941 2.34998 6.39941H4.09998ZM9.64978 6.39941C10.4781 6.39941 11.1497 7.07108 11.1498 7.89941V9.64941C11.1498 10.4778 10.4782 11.1494 9.64978 11.1494H7.89978C7.07144 11.1493 6.39978 10.4778 6.39978 9.64941V7.89941C6.39989 7.07114 7.07151 6.39952 7.89978 6.39941H9.64978ZM2.34998 7.39941C2.0739 7.39941 1.85008 7.62336 1.84998 7.89941V9.64941C1.84998 9.92556 2.07383 10.1494 2.34998 10.1494H4.09998C4.37612 10.1494 4.59998 9.92556 4.59998 9.64941V7.89941C4.59987 7.62336 4.37605 7.39941 4.09998 7.39941H2.34998ZM7.89978 7.39941C7.62379 7.39952 7.39989 7.62343 7.39978 7.89941V9.64941C7.39978 9.92549 7.62373 10.1493 7.89978 10.1494H9.64978C9.92592 10.1494 10.1498 9.92556 10.1498 9.64941V7.89941C10.1497 7.62336 9.92586 7.39941 9.64978 7.39941H7.89978ZM4.09998 0.849609C4.9284 0.849609 5.59998 1.52118 5.59998 2.34961V4.09961C5.59998 4.92804 4.9284 5.59961 4.09998 5.59961H2.34998C1.52155 5.59961 0.849976 4.92804 0.849976 4.09961V2.34961C0.849976 1.52118 1.52155 0.849609 2.34998 0.849609H4.09998ZM9.64978 0.849609C10.4782 0.849609 11.1498 1.52118 11.1498 2.34961V4.09961C11.1498 4.92804 10.4782 5.59961 9.64978 5.59961H7.89978C7.07144 5.5995 6.39978 4.92797 6.39978 4.09961V2.34961C6.39978 1.52125 7.07144 0.849715 7.89978 0.849609H9.64978ZM2.34998 1.84961C2.07383 1.84961 1.84998 2.07347 1.84998 2.34961V4.09961C1.84998 4.37575 2.07383 4.59961 2.34998 4.59961H4.09998C4.37612 4.59961 4.59998 4.37575 4.59998 4.09961V2.34961C4.59998 2.07347 4.37612 1.84961 4.09998 1.84961H2.34998ZM7.89978 1.84961C7.62373 1.84972 7.39978 2.07353 7.39978 2.34961V4.09961C7.39978 4.37569 7.62373 4.5995 7.89978 4.59961H9.64978C9.92592 4.59961 10.1498 4.37575 10.1498 4.09961V2.34961C10.1498 2.07347 9.92592 1.84961 9.64978 1.84961H7.89978Z" fill="#1D1C1D"/>
</svg>
