<svg width="20" height="20" viewBox="0 0 20 20" fill="none" xmlns="http://www.w3.org/2000/svg">
<path d="M7.75 11.25C8.30228 11.25 8.75 11.6977 8.75 12.25V17.5C8.75 18.0523 8.30228 18.5 7.75 18.5H2.5C1.94772 18.5 1.5 18.0523 1.5 17.5V12.25C1.5 11.6977 1.94772 11.25 2.5 11.25H7.75ZM17.5 11.25C18.0523 11.25 18.5 11.6977 18.5 12.25V17.5C18.5 18.0523 18.0523 18.5 17.5 18.5H12.25C11.6977 18.5 11.25 18.0523 11.25 17.5V12.25C11.25 11.6977 11.6977 11.25 12.25 11.25H17.5ZM7.75 1.5C8.30228 1.5 8.75 1.94772 8.75 2.5V7.75C8.75 8.30228 8.30228 8.75 7.75 8.75H2.5C1.94772 8.75 1.5 8.30228 1.5 7.75V2.5C1.5 1.94772 1.94772 1.5 2.5 1.5H7.75ZM17.5 1.5C18.0523 1.5 18.5 1.94772 18.5 2.5V7.75C18.5 8.30228 18.0523 8.75 17.5 8.75H12.25C11.6977 8.75 11.25 8.30228 11.25 7.75V2.5C11.25 1.94772 11.6977 1.5 12.25 1.5H17.5Z" fill="#1D1C1D"/>
</svg>
