<svg width="20" height="20" viewBox="0 0 20 20" fill="none" xmlns="http://www.w3.org/2000/svg">
<path d="M13.5004 1.25C15.6722 1.25018 17.562 2.4547 18.5394 4.22852C18.7391 4.59109 18.6068 5.04706 18.2445 5.24707C18.0902 5.33211 17.9184 5.3574 17.7572 5.33008H14.8353C13.96 5.33008 13.2504 6.03966 13.2504 6.91504C13.2504 7.7904 13.96 8.5 14.8353 8.5H18.0004C18.103 8.50462 18.2064 8.53084 18.3041 8.58008C18.6738 8.76671 18.8226 9.21816 18.6361 9.58789C17.6902 11.4619 15.7462 12.7498 13.5004 12.75C13.0528 12.75 12.5629 12.7415 11.6283 12.4326L6.52089 17.54C5.273 18.7876 3.22697 18.7088 2.0785 17.3691C1.03507 16.1518 1.12062 14.3317 2.27382 13.2178L7.81483 7.86621C7.77206 7.58338 7.75038 7.29394 7.75038 7C7.75038 3.82436 10.3247 1.25 13.5004 1.25ZM4.50038 14.25C3.94809 14.25 3.50038 14.6977 3.50038 15.25C3.50038 15.8023 3.94809 16.25 4.50038 16.25C5.05243 16.2497 5.50038 15.8021 5.50038 15.25C5.50038 14.6979 5.05243 14.2503 4.50038 14.25Z" fill="#1D1C1D"/>
</svg>
