<svg width="20" height="20" viewBox="0 0 20 20" fill="none" xmlns="http://www.w3.org/2000/svg">
<path d="M13.5004 1.25C15.6722 1.25017 17.562 2.45468 18.5394 4.22852C18.7391 4.59111 18.6069 5.04707 18.2445 5.24707C18.1666 5.29 18.0834 5.31481 18.0004 5.32812V5.33008H17.9926C17.9195 5.34098 17.8466 5.34056 17.7748 5.33008H14.8353C13.96 5.33008 13.2504 6.03966 13.2504 6.91504C13.2504 7.7904 13.96 8.5 14.8353 8.5H18.0004V8.50195C18.103 8.50657 18.2065 8.53084 18.3041 8.58008C18.6738 8.7667 18.8226 9.21815 18.6361 9.58789C17.6902 11.4619 15.7462 12.7498 13.5004 12.75C13.0526 12.75 12.5627 12.7409 11.6273 12.4316L6.52088 17.54C5.273 18.7876 3.22697 18.7089 2.0785 17.3691C1.03507 16.1518 1.12062 14.3317 2.27381 13.2178L7.81581 7.86426C7.77319 7.58192 7.75038 7.2934 7.75038 7C7.75038 3.82436 10.3247 1.25 13.5004 1.25ZM13.5004 2.75C11.1532 2.75 9.25038 4.65279 9.25038 7C9.25038 7.26027 9.2733 7.51444 9.31776 7.76074C9.33238 7.84172 9.32967 7.92177 9.31874 7.99902C9.37311 8.24518 9.30436 8.51221 9.10975 8.7002L3.31581 14.2969C2.73362 14.8592 2.69052 15.778 3.21717 16.3926C3.79706 17.0691 4.83028 17.1086 5.46034 16.4785L10.9027 11.0361C11.1277 10.8111 11.46 10.7601 11.7348 10.8809C11.7432 10.8837 11.7517 10.8865 11.7601 10.8896C12.7633 11.2615 13.143 11.25 13.5004 11.25C14.6751 11.2499 15.7375 10.7716 16.5072 10H14.8353C13.1315 10 11.7504 8.61883 11.7504 6.91504C11.7504 5.21124 13.1315 3.83008 14.8353 3.83008H16.3295C15.5776 3.15846 14.5867 2.75011 13.5004 2.75ZM4.50038 14.5C4.91438 14.5002 5.25038 14.8359 5.25038 15.25C5.25038 15.6641 4.91438 15.9998 4.50038 16C4.08616 16 3.75038 15.6642 3.75038 15.25C3.75038 14.8358 4.08616 14.5 4.50038 14.5Z" fill="#1D1C1D"/>
</svg>
