<svg width="20" height="20" viewBox="0 0 20 20" fill="none" xmlns="http://www.w3.org/2000/svg">
<path d="M10 1C14.9706 1 19 5.02944 19 10C19 14.9706 14.9706 19 10 19C5.02944 19 1 14.9706 1 10C1 5.02944 5.02944 1 10 1ZM10.4873 7.03809C10.0943 6.9071 9.66907 7.11974 9.53809 7.5127L8.03809 12.0127C7.96185 12.2414 8.00065 12.4929 8.1416 12.6885C8.28257 12.8841 8.50892 13 8.75 13H11.25C11.6642 13 12 12.6642 12 12.25C12 11.8358 11.6642 11.5 11.25 11.5H9.79102L10.9619 7.9873C11.0929 7.59435 10.8803 7.16907 10.4873 7.03809ZM5.75 8.75C5.19772 8.75 4.75 9.19772 4.75 9.75C4.75 10.3023 5.19772 10.75 5.75 10.75C6.30228 10.75 6.75 10.3023 6.75 9.75C6.75 9.19772 6.30228 8.75 5.75 8.75ZM13.75 8.75C13.1977 8.75 12.75 9.19772 12.75 9.75C12.75 10.3023 13.1977 10.75 13.75 10.75C14.3023 10.75 14.75 10.3023 14.75 9.75C14.75 9.19772 14.3023 8.75 13.75 8.75Z" fill="#1D1C1D"/>
</svg>
