<svg width="20" height="20" viewBox="0 0 20 20" fill="none" xmlns="http://www.w3.org/2000/svg">
<path d="M8.5248 2C8.2176 2 8 2.2176 8 2.5248V5.8144C8 6.5696 8.5504 7.12 9.3056 7.12H10.5344C11.2896 7.12 11.84 6.5696 11.84 5.8144V2.5248C11.84 2.2176 11.6224 2 11.3152 2H8.5248ZM9.408 3.28H10.432C10.5088 3.28 10.56 3.3312 10.56 3.408V4.1632C10.56 4.3936 10.3936 4.56 10.1632 4.56H9.6768C9.4464 4.56 9.28 4.3936 9.28 4.1632V3.408C9.28 3.3312 9.3312 3.28 9.408 3.28ZM10.5728 7.76C10.1888 7.76 9.92 8.0288 9.92 8.4C9.92 8.7712 10.1888 9.04 10.5728 9.04H11.1872C11.5712 9.04 11.84 8.7712 11.84 8.4C11.84 8.0288 11.5712 7.76 11.1872 7.76H10.5728ZM8.6528 9.04C8.2688 9.04 8 9.3088 8 9.68C8 10.0512 8.2688 10.32 8.6528 10.32H9.2672C9.6512 10.32 9.92 10.0512 9.92 9.68C9.92 9.3088 9.6512 9.04 9.2672 9.04H8.6528ZM10.5728 10.32C10.1888 10.32 9.92 10.5888 9.92 10.96C9.92 11.3312 10.1888 11.6 10.5728 11.6H11.1872C11.5712 11.6 11.84 11.3312 11.84 10.96C11.84 10.5888 11.5712 10.32 11.1872 10.32H10.5728ZM8.6528 11.6C8.2688 11.6 8 11.8688 8 12.24C8 12.6112 8.2688 12.88 8.6528 12.88H9.2672C9.6512 12.88 9.92 12.6112 9.92 12.24C9.92 11.8688 9.6512 11.6 9.2672 11.6H8.6528ZM10.5728 12.88C10.1888 12.88 9.92 13.1488 9.92 13.52C9.92 13.8912 10.1888 14.16 10.5728 14.16H11.1872C11.5712 14.16 11.84 13.8912 11.84 13.52C11.84 13.1488 11.5712 12.88 11.1872 12.88H10.5728ZM8.6528 14.16C8.2688 14.16 8 14.4288 8 14.8C8 15.1712 8.2688 15.44 8.6528 15.44H9.2672C9.6512 15.44 9.92 15.1712 9.92 14.8C9.92 14.4288 9.6512 14.16 9.2672 14.16H8.6528ZM10.5728 15.44C10.1888 15.44 9.92 15.7088 9.92 16.08C9.92 16.4512 10.1888 16.72 10.5728 16.72H11.1872C11.5712 16.72 11.84 16.4512 11.84 16.08C11.84 15.7088 11.5712 15.44 11.1872 15.44H10.5728ZM8.6528 16.72C8.2688 16.72 8 16.9888 8 17.36C8 17.7312 8.2688 18 8.6528 18H9.2672C9.6512 18 9.92 17.7312 9.92 17.36C9.92 16.9888 9.6512 16.72 9.2672 16.72H8.6528Z" fill="#1D1C1D"/>
</svg>
