<svg width="20" height="20" viewBox="0 0 20 20" fill="none" xmlns="http://www.w3.org/2000/svg">
<path d="M9.75 2.49976C10.1641 2.49976 10.4999 2.83565 10.5 3.24976C10.5 3.66397 10.1642 3.99976 9.75 3.99976H5.25C4.00744 3.99976 3.00013 5.00723 3 6.24976V14.7498C3 15.9924 4.00736 16.9998 5.25 16.9998H13.75C14.9926 16.9998 16 15.9924 16 14.7498V10.2498C16.0001 9.83565 16.3359 9.49976 16.75 9.49976C17.1641 9.49976 17.4999 9.83565 17.5 10.2498V14.7498C17.5 16.8208 15.8211 18.4998 13.75 18.4998H5.25C3.17893 18.4998 1.5 16.8208 1.5 14.7498V6.24976C1.50013 4.1788 3.17901 2.49976 5.25 2.49976H9.75ZM14.2324 2.20679C15.2087 1.23081 16.7913 1.23082 17.7676 2.20679L17.793 2.23218C18.7691 3.20841 18.769 4.79105 17.793 5.76733L11.0303 12.53C10.931 12.6293 10.8058 12.6986 10.6689 12.7302L7.41895 13.4802C7.16698 13.5384 6.90258 13.4629 6.71973 13.28C6.53696 13.0972 6.4614 12.8327 6.51953 12.5808L7.26953 9.33081L7.2998 9.2312C7.33733 9.13345 7.39514 9.04407 7.46973 8.96948L14.2324 2.20679ZM8.68164 9.87769L8.25 11.7488L10.1211 11.3171L15.1885 6.24878L13.749 4.80933L8.68164 9.87769ZM16.707 3.26733C16.3166 2.87715 15.6834 2.87715 15.293 3.26733L14.8096 3.74878L16.249 5.18823L16.7324 4.70679C17.1226 4.31628 17.1227 3.68317 16.7324 3.29272L16.707 3.26733Z" fill="#454447"/>
</svg>
