<svg width="20" height="20" viewBox="0 0 20 20" fill="none" xmlns="http://www.w3.org/2000/svg">
<path d="M10 1C12.2886 1 14.4052 2.01489 15.9434 3.48828C17.4761 4.95654 18.5 6.94548 18.5 8.96582V13.5H18.4951C18.4983 13.5704 18.5 13.641 18.5 13.7119V14.2881C18.5 16.5097 16.9182 18.5 14.75 18.5H14.25C13.1863 18.5 12.5 17.5428 12.5 16.5957V11.4043C12.5 10.4572 13.1863 9.5 14.25 9.5H14.75C15.6143 9.5 16.3851 9.81675 17 10.3379V8.96582C17 7.4441 16.2151 5.82517 14.9062 4.57129C13.6026 3.32248 11.844 2.5 10 2.5C8.15595 2.5 6.39745 3.32248 5.09375 4.57129C3.78489 5.82517 3 7.4441 3 8.96582V10.3379C3.6149 9.81675 4.38565 9.5 5.25 9.5H5.75C6.81366 9.5 7.5 10.4572 7.5 11.4043V16.5957C7.5 17.5428 6.81366 18.5 5.75 18.5H5.25C3.08177 18.5 1.5 16.5097 1.5 14.2881V13.7119C1.5 13.641 1.50169 13.5704 1.50488 13.5H1.5V8.96582C1.5 6.94548 2.52391 4.95654 4.05664 3.48828C5.59479 2.01489 7.71144 1 10 1ZM5.25 11C4.10452 11 3 12.11 3 13.7119V14.2881C3 15.89 4.10452 17 5.25 17H5.75C5.7812 17 5.83311 16.9873 5.89062 16.9209C5.94943 16.853 6 16.7399 6 16.5957V11.4043C6 11.2601 5.94943 11.147 5.89062 11.0791C5.83311 11.0127 5.7812 11 5.75 11H5.25ZM14.25 11C14.2188 11 14.1669 11.0127 14.1094 11.0791C14.0506 11.147 14 11.2601 14 11.4043V16.5957C14 16.7399 14.0506 16.853 14.1094 16.9209C14.1669 16.9873 14.2188 17 14.25 17H14.75C15.8955 17 17 15.89 17 14.2881V13.7119C17 12.11 15.8955 11 14.75 11H14.25Z" fill="#454447"/>
</svg>
