<svg width="16" height="16" viewBox="0 0 16 16" fill="none" xmlns="http://www.w3.org/2000/svg">
<path d="M8 1.84961C8.41408 1.84961 8.74979 2.18558 8.75 2.59961V7.25H13.3994C13.8136 7.25 14.1494 7.58579 14.1494 8C14.1494 8.41421 13.8136 8.75 13.3994 8.75H8.75V13.3994C8.75 13.8136 8.41421 14.1494 8 14.1494C7.58579 14.1494 7.25 13.8136 7.25 13.3994V8.75H2.59961C2.18558 8.74979 1.84961 8.41408 1.84961 8C1.84961 7.58592 2.18558 7.25021 2.59961 7.25H7.25V2.59961C7.25021 2.18558 7.58592 1.84961 8 1.84961Z" fill="#454447"/>
</svg>
