<svg width="18" height="18" viewBox="0 0 18 18" fill="none" xmlns="http://www.w3.org/2000/svg">
<g clip-path="url(#clip0_7545_11302)">
<path d="M9 0.825195C13.5148 0.825301 17.1747 4.48523 17.1748 9C17.1747 13.5148 13.5148 17.1747 9 17.1748C4.48523 17.1747 0.825301 13.5148 0.825195 9C0.825301 4.48523 4.48523 0.825301 9 0.825195ZM9 2.3252C5.31365 2.3253 2.3253 5.31365 2.3252 9C2.3253 12.6863 5.31365 15.6747 9 15.6748C12.6863 15.6747 15.6747 12.6863 15.6748 9C15.6747 5.31365 12.6863 2.3253 9 2.3252ZM11.124 10.5654C11.2535 10.1721 11.6779 9.95761 12.0713 10.0869C12.4647 10.2163 12.679 10.6408 12.5498 11.0342C11.9923 12.729 10.4917 13.5752 9.02441 13.5752C7.55713 13.5752 6.05652 12.729 5.49902 11.0342C5.36979 10.6408 5.58416 10.2163 5.97754 10.0869C6.3709 9.95764 6.79533 10.1721 6.9248 10.5654C7.25549 11.5706 8.12331 12.0752 9.02441 12.0752C9.92551 12.0752 10.7933 11.5705 11.124 10.5654ZM6.75 5.84961C7.49558 5.84961 8.09961 6.45461 8.09961 7.2002C8.0995 7.94569 7.49552 8.5498 6.75 8.5498C6.00448 8.5498 5.4005 7.94569 5.40039 7.2002C5.40039 6.45461 6.00442 5.84961 6.75 5.84961ZM11.25 5.84961C11.9956 5.84961 12.5996 6.45461 12.5996 7.2002C12.5995 7.94569 11.9955 8.5498 11.25 8.5498C10.5045 8.5498 9.9005 7.94569 9.90039 7.2002C9.90039 6.45461 10.5044 5.84961 11.25 5.84961Z" fill="#454447"/>
</g>
<defs>
<clipPath id="clip0_7545_11302">
<rect width="18" height="18" fill="white"/>
</clipPath>
</defs>
</svg>
