<svg width="20" height="20" viewBox="0 0 20 20" fill="none" xmlns="http://www.w3.org/2000/svg">
<path d="M9 1.5C13.1421 1.5 16.5 4.85786 16.5 9C16.5 10.8009 15.8636 12.4522 14.8057 13.7451L18.2803 17.2197C18.5732 17.5126 18.5732 17.9874 18.2803 18.2803C17.9874 18.5732 17.5126 18.5732 17.2197 18.2803L13.7451 14.8057C12.4522 15.8636 10.8009 16.5 9 16.5C4.85786 16.5 1.5 13.1421 1.5 9C1.5 4.85786 4.85786 1.5 9 1.5ZM9 3C5.68629 3 3 5.68629 3 9C3 12.3137 5.68629 15 9 15C12.3137 15 15 12.3137 15 9C15 5.68629 12.3137 3 9 3Z" fill="#454447"/>
</svg>
