<svg width="54" height="54" viewBox="0 0 54 54" fill="none" xmlns="http://www.w3.org/2000/svg">
<g clip-path="url(#clip0_7633_12492)">
<path fill-rule="evenodd" clip-rule="evenodd" d="M19.7122 0.132812C16.7431 0.132812 14.3362 2.54446 14.3362 5.51951C14.3362 8.49457 16.7431 10.9062 19.7122 10.9062H25.0883V5.51951C25.0883 2.54446 22.6814 0.132812 19.7122 0.132812" fill="#36C5F0"/>
<path fill-rule="evenodd" clip-rule="evenodd" d="M19.7121 14.4976H5.37604C2.40687 14.4976 0 16.9092 0 19.8843C0 22.8593 2.40687 25.271 5.37604 25.271H19.7121C22.6813 25.271 25.0882 22.8593 25.0882 19.8843C25.0882 16.9092 22.6813 14.4976 19.7121 14.4976" fill="#36C5F0"/>
<path fill-rule="evenodd" clip-rule="evenodd" d="M53.7604 19.8843C53.7604 16.9092 51.3535 14.4976 48.3843 14.4976C45.4152 14.4976 43.0083 16.9092 43.0083 19.8843V25.271H48.3843C51.3535 25.271 53.7604 22.8593 53.7604 19.8843" fill="#2EB67D"/>
<mask id="mask0_7633_12492" style="mask-type:luminance" maskUnits="userSpaceOnUse" x="28" y="0" width="12" height="54">
<path fill-rule="evenodd" clip-rule="evenodd" d="M28.6721 0.132812H39.4242V53.9838H28.6721V0.132812Z" fill="white"/>
</mask>
<g mask="url(#mask0_7633_12492)">
<path fill-rule="evenodd" clip-rule="evenodd" d="M39.4242 19.884V5.51951C39.4242 2.54446 37.0173 0.132812 34.0482 0.132812C31.079 0.132812 28.6721 2.54446 28.6721 5.51951V19.884C28.6721 22.8591 31.079 25.2707 34.0482 25.2707C37.0173 25.2707 39.4242 22.8591 39.4242 19.884" fill="#2EB67D"/>
<path fill-rule="evenodd" clip-rule="evenodd" d="M34.0482 54C37.0173 54 39.4242 51.5883 39.4242 48.6133C39.4242 45.6382 37.0173 43.2266 34.0482 43.2266H28.6721V48.6133C28.6721 51.5883 31.079 54 34.0482 54" fill="#ECB22E"/>
</g>
<path fill-rule="evenodd" clip-rule="evenodd" d="M34.0482 39.6352H48.3843C51.3534 39.6352 53.7603 37.2236 53.7603 34.2485C53.7603 31.2735 51.3534 28.8618 48.3843 28.8618H34.0482C31.079 28.8618 28.6721 31.2735 28.6721 34.2485C28.6721 37.2236 31.079 39.6352 34.0482 39.6352" fill="#ECB22E"/>
<mask id="mask1_7633_12492" style="mask-type:luminance" maskUnits="userSpaceOnUse" x="0" y="28" width="26" height="26">
<path fill-rule="evenodd" clip-rule="evenodd" d="M0 28.8618H25.0882V53.9838H0V28.8618Z" fill="white"/>
</mask>
<g mask="url(#mask1_7633_12492)">
<path fill-rule="evenodd" clip-rule="evenodd" d="M0 34.2485C0 37.2236 2.40687 39.6352 5.37604 39.6352C8.34521 39.6352 10.7521 37.2236 10.7521 34.2485V28.8618H5.37604C2.40687 28.8618 0 31.2735 0 34.2485" fill="#E01E5A"/>
<path fill-rule="evenodd" clip-rule="evenodd" d="M14.3362 34.2485V48.613C14.3362 51.5881 16.7431 53.9997 19.7122 53.9997C22.6814 53.9997 25.0883 51.5881 25.0883 48.613V34.2485C25.0883 31.2732 22.6814 28.8618 19.7122 28.8618C16.7431 28.8618 14.3362 31.2735 14.3362 34.2485" fill="#E01E5A"/>
</g>
</g>
<defs>
<clipPath id="clip0_7633_12492">
<rect width="54" height="54" fill="white"/>
</clipPath>
</defs>
</svg>
