<svg width="20" height="20" viewBox="0 0 20 20" fill="none" xmlns="http://www.w3.org/2000/svg">
<path fill-rule="evenodd" clip-rule="evenodd" d="M9.98889 1.5C10.6225 1.5 11.1128 1.86335 11.4557 2.25391C11.8032 2.64995 12.0861 3.16823 12.3141 3.70312C12.6724 4.54408 12.9391 5.53319 13.11 6.42578C14.0235 6.32561 14.9952 6.23389 15.8199 6.26758C16.3405 6.28888 16.8719 6.36154 17.3219 6.55273C17.7916 6.75249 18.2244 7.10864 18.3981 7.69336C18.5751 8.28953 18.394 8.84656 18.1197 9.28516C17.8485 9.71879 17.4435 10.1111 17.0113 10.4531C16.3491 10.9771 15.5283 11.4554 14.7545 11.8447C15.1653 12.6954 15.5923 13.7294 15.8561 14.7012C16.0257 15.326 16.1414 15.9721 16.1197 16.5469C16.0986 17.1057 15.9372 17.7642 15.3707 18.1699C14.8155 18.5672 14.1655 18.4853 13.6705 18.3174C13.1616 18.1446 12.6356 17.8246 12.1471 17.4688C11.3928 16.9191 10.6244 16.2071 9.98889 15.5723C9.35506 16.2066 8.59043 16.9194 7.83947 17.4688C7.35296 17.8246 6.8287 18.1444 6.32092 18.3174C5.82641 18.4857 5.17752 18.5671 4.62268 18.1699C4.05774 17.7652 3.89542 17.1079 3.87268 16.5498C3.84932 15.9754 3.96295 15.3293 4.13049 14.7041C4.39102 13.732 4.81446 12.6974 5.22424 11.8457C4.44903 11.4569 3.62492 10.9798 2.96057 10.4561C2.52733 10.1145 2.12142 9.72206 1.84924 9.28809C1.57384 8.84882 1.39265 8.29066 1.56994 7.69336C1.74391 7.10765 2.17767 6.75143 2.64807 6.55176C3.09902 6.36043 3.63206 6.28876 4.15393 6.26758C4.98009 6.23411 5.95294 6.32553 6.86682 6.42578C7.03766 5.53315 7.30538 4.54413 7.66369 3.70312C7.89162 3.16827 8.17462 2.64996 8.52209 2.25391C8.86491 1.86332 9.35537 1.5002 9.98889 1.5ZM9.98889 3C9.96629 3.00018 9.85167 3.01227 9.64904 3.24316C9.44943 3.47073 9.24123 3.8272 9.04357 4.29102C8.65075 5.21303 8.36774 6.39595 8.23205 7.35547C8.17507 7.75674 7.80876 8.03988 7.40588 7.99512C6.25373 7.8671 5.11572 7.72909 4.21447 7.76562C3.76421 7.78391 3.44113 7.84475 3.234 7.93262C3.04703 8.01202 3.01883 8.08185 3.00744 8.12012C2.99498 8.1622 2.98044 8.26898 3.11975 8.49121C3.26248 8.7188 3.51995 8.98713 3.88928 9.27832C4.62358 9.85719 5.6447 10.4066 6.54943 10.8174C6.73809 10.9032 6.88334 11.0635 6.94982 11.2598C7.0162 11.4562 6.99791 11.6717 6.90002 11.8545C6.43372 12.7251 5.87714 13.9793 5.57873 15.0928C5.42849 15.6535 5.35716 16.1325 5.3717 16.4893C5.38668 16.8561 5.48263 16.9404 5.49572 16.9502L5.49865 16.9512C5.50298 16.9525 5.51611 16.9562 5.54064 16.957C5.59575 16.9587 5.69233 16.9469 5.83752 16.8975C6.13446 16.7963 6.51529 16.5785 6.95373 16.2578C7.82292 15.6219 8.75336 14.7069 9.44689 13.9814L9.50256 13.9297C9.63752 13.8146 9.80986 13.7501 9.98889 13.75C10.1934 13.75 10.3894 13.8337 10.5309 13.9814C11.2234 14.7059 12.158 15.6209 13.0309 16.2568C13.4711 16.5775 13.8542 16.796 14.1529 16.8975C14.2985 16.9468 14.3958 16.9586 14.4518 16.957C14.477 16.9563 14.4912 16.9526 14.4957 16.9512L14.4977 16.9502C14.5091 16.9418 14.6067 16.8599 14.6207 16.4902C14.6342 16.1336 14.5601 15.6546 14.4078 15.0938C14.1054 13.9801 13.5449 12.7262 13.0778 11.8545C12.9799 11.6718 12.9626 11.4561 13.0289 11.2598C13.0953 11.0636 13.2399 10.9033 13.4283 10.8174C14.3311 10.4069 15.3487 9.8565 16.0807 9.27734C16.4489 8.98592 16.7059 8.71684 16.8483 8.48926C16.9874 8.26669 16.9727 8.16102 16.9606 8.12012C16.9491 8.08174 16.9209 8.01267 16.735 7.93359C16.5288 7.84605 16.2073 7.78496 15.7584 7.7666C14.8596 7.7299 13.724 7.86711 12.5719 7.99512C12.1692 8.03964 11.8037 7.75658 11.7467 7.35547C11.611 6.39597 11.3271 5.21309 10.9342 4.29102C10.7365 3.82711 10.5284 3.47072 10.3287 3.24316C10.1246 3.01058 10.01 3 9.98889 3Z" fill="#454447"/>
</svg>
