<svg width="20" height="20" viewBox="0 0 20 20" fill="none" xmlns="http://www.w3.org/2000/svg">
<path d="M9.99998 2C11.2224 2 12.3566 2.43798 13.1865 3.2666C14.0192 4.09813 14.4999 5.27734 14.5 6.67285C14.5 8.15063 13.8926 9.43067 13.0498 10.3389C12.8921 10.5087 12.7236 10.6679 12.5469 10.8145C13.1788 10.9692 13.8151 11.1845 14.4219 11.4717C15.8859 12.1647 17.233 13.2993 17.8701 15.0283C18.169 15.8395 17.937 16.6182 17.4472 17.1602C16.972 17.6859 16.254 18 15.5 18H4.49998C3.74598 17.9999 3.02792 17.6859 2.55271 17.1602C2.06302 16.6182 1.83105 15.8394 2.12986 15.0283C2.76695 13.2994 4.11414 12.1647 5.5781 11.4717C6.18478 11.1845 6.82127 10.9692 7.4531 10.8145C7.27638 10.6679 7.10779 10.5087 6.95017 10.3389C6.10743 9.43068 5.49998 8.15055 5.49998 6.67285C5.50001 5.27741 5.98088 4.09813 6.81345 3.2666C7.64327 2.43796 8.77761 2.00007 9.99998 2ZM9.99998 12C8.85274 12 7.44828 12.2456 6.2197 12.8271C4.99571 13.4066 3.99994 14.2907 3.53709 15.5469C3.45417 15.772 3.5033 15.9742 3.66599 16.1543C3.84339 16.3505 4.14967 16.4999 4.49998 16.5H15.5C15.8503 16.5 16.1565 16.3505 16.334 16.1543C16.4968 15.9742 16.5458 15.7721 16.4629 15.5469C16 14.2907 15.0043 13.4066 13.7803 12.8271C12.5516 12.2457 11.1472 12 9.99998 12ZM9.99998 3.5C9.13944 3.50006 8.39821 3.80479 7.874 4.32812C7.35262 4.84888 7.00001 5.63195 6.99998 6.67285C6.99998 7.73016 7.43449 8.65525 8.04978 9.31836C8.67892 9.99624 9.4299 10.3329 9.99998 10.333C10.57 10.333 11.321 9.99626 11.9502 9.31836C12.5655 8.65524 13 7.73023 13 6.67285C12.9999 5.63186 12.6474 4.84888 12.126 4.32812C11.6017 3.80482 10.8606 3.5 9.99998 3.5Z" fill="#454447"/>
</svg>
